G04 MADE WITH FRITZING*
G04 WWW.FRITZING.ORG*
G04 DOUBLE SIDED*
G04 HOLES PLATED*
G04 CONTOUR ON CENTER OF CONTOUR VECTOR*
%ASAXBY*%
%FSLAX23Y23*%
%MOIN*%
%OFA0B0*%
%SFA1.0B1.0*%
%ADD10C,0.080000*%
%ADD11C,0.075000*%
%ADD12C,0.078000*%
%ADD13R,0.080000X0.080000*%
%ADD14R,0.075000X0.075000*%
%ADD15C,0.016000*%
%LNCOPPER0*%
G90*
G70*
G54D10*
X211Y123D03*
X211Y261D03*
G54D11*
X675Y224D03*
X375Y224D03*
X675Y324D03*
X375Y324D03*
X460Y86D03*
X360Y86D03*
X670Y89D03*
X570Y89D03*
G54D12*
X1015Y282D03*
X1015Y182D03*
X1015Y82D03*
G54D11*
X845Y212D03*
X845Y112D03*
G54D13*
X211Y123D03*
G54D14*
X675Y224D03*
X845Y212D03*
G54D15*
X583Y71D02*
X611Y31D01*
D02*
X611Y31D02*
X781Y29D01*
D02*
X781Y29D02*
X830Y94D01*
D02*
X652Y324D02*
X573Y321D01*
D02*
X573Y321D02*
X470Y106D01*
D02*
X995Y97D02*
X863Y198D01*
D02*
X689Y103D02*
X826Y199D01*
D02*
X398Y324D02*
X524Y323D01*
D02*
X524Y323D02*
X438Y153D01*
D02*
X438Y153D02*
X283Y153D01*
D02*
X283Y153D02*
X283Y29D01*
D02*
X283Y29D02*
X505Y29D01*
D02*
X505Y29D02*
X553Y74D01*
G04 End of Copper0*
M02*