G04 MADE WITH FRITZING*
G04 WWW.FRITZING.ORG*
G04 DOUBLE SIDED*
G04 HOLES PLATED*
G04 CONTOUR ON CENTER OF CONTOUR VECTOR*
%ASAXBY*%
%FSLAX23Y23*%
%MOIN*%
%OFA0B0*%
%SFA1.0B1.0*%
%ADD10C,0.010000*%
%ADD11C,0.005000*%
%ADD12C,0.009799*%
%ADD13R,0.001000X0.001000*%
%LNSILK1*%
G90*
G70*
G54D10*
X299Y49D02*
X299Y335D01*
D02*
X299Y335D02*
X83Y335D01*
D02*
X83Y335D02*
X83Y49D01*
D02*
X83Y49D02*
X299Y49D01*
G54D11*
D02*
X123Y335D02*
X123Y49D01*
G54D12*
D02*
X325Y360D02*
X325Y182D01*
G54D10*
D02*
X965Y332D02*
X965Y32D01*
D02*
X965Y32D02*
X1065Y32D01*
D02*
X1065Y32D02*
X1065Y332D01*
D02*
X1065Y332D02*
X965Y332D01*
G54D11*
D02*
X965Y297D02*
X1000Y332D01*
G54D13*
X0Y377D02*
X1187Y377D01*
X0Y376D02*
X1187Y376D01*
X0Y375D02*
X1187Y375D01*
X0Y374D02*
X1187Y374D01*
X0Y373D02*
X1187Y373D01*
X0Y372D02*
X1187Y372D01*
X0Y371D02*
X1187Y371D01*
X0Y370D02*
X1187Y370D01*
X0Y369D02*
X7Y369D01*
X1180Y369D02*
X1187Y369D01*
X0Y368D02*
X7Y368D01*
X1180Y368D02*
X1187Y368D01*
X0Y367D02*
X7Y367D01*
X1180Y367D02*
X1187Y367D01*
X0Y366D02*
X7Y366D01*
X1180Y366D02*
X1187Y366D01*
X0Y365D02*
X7Y365D01*
X1180Y365D02*
X1187Y365D01*
X0Y364D02*
X7Y364D01*
X1180Y364D02*
X1187Y364D01*
X0Y363D02*
X7Y363D01*
X325Y363D02*
X356Y363D01*
X392Y363D02*
X656Y363D01*
X691Y363D02*
X715Y363D01*
X1180Y363D02*
X1187Y363D01*
X0Y362D02*
X7Y362D01*
X324Y362D02*
X354Y362D01*
X393Y362D02*
X654Y362D01*
X693Y362D02*
X715Y362D01*
X1180Y362D02*
X1187Y362D01*
X0Y361D02*
X7Y361D01*
X324Y361D02*
X353Y361D01*
X395Y361D02*
X653Y361D01*
X695Y361D02*
X715Y361D01*
X768Y361D02*
X769Y361D01*
X1180Y361D02*
X1187Y361D01*
X0Y360D02*
X7Y360D01*
X324Y360D02*
X351Y360D01*
X397Y360D02*
X651Y360D01*
X696Y360D02*
X720Y360D01*
X747Y360D02*
X747Y360D01*
X767Y360D02*
X770Y360D01*
X818Y360D02*
X821Y360D01*
X861Y360D02*
X861Y360D01*
X869Y360D02*
X878Y360D01*
X904Y360D02*
X904Y360D01*
X928Y360D02*
X930Y360D01*
X939Y360D02*
X948Y360D01*
X974Y360D02*
X974Y360D01*
X1180Y360D02*
X1187Y360D01*
X0Y359D02*
X7Y359D01*
X324Y359D02*
X350Y359D01*
X398Y359D02*
X650Y359D01*
X698Y359D02*
X720Y359D01*
X746Y359D02*
X747Y359D01*
X767Y359D02*
X770Y359D01*
X784Y359D02*
X784Y359D01*
X817Y359D02*
X822Y359D01*
X860Y359D02*
X862Y359D01*
X868Y359D02*
X879Y359D01*
X903Y359D02*
X905Y359D01*
X927Y359D02*
X931Y359D01*
X938Y359D02*
X949Y359D01*
X974Y359D02*
X975Y359D01*
X1180Y359D02*
X1187Y359D01*
X0Y358D02*
X7Y358D01*
X324Y358D02*
X348Y358D01*
X399Y358D02*
X648Y358D01*
X699Y358D02*
X720Y358D01*
X746Y358D02*
X747Y358D01*
X768Y358D02*
X769Y358D01*
X783Y358D02*
X785Y358D01*
X818Y358D02*
X822Y358D01*
X859Y358D02*
X861Y358D01*
X869Y358D02*
X879Y358D01*
X903Y358D02*
X905Y358D01*
X926Y358D02*
X932Y358D01*
X939Y358D02*
X948Y358D01*
X974Y358D02*
X975Y358D01*
X982Y358D02*
X982Y358D01*
X1180Y358D02*
X1187Y358D01*
X0Y357D02*
X7Y357D01*
X711Y357D02*
X720Y357D01*
X746Y357D02*
X747Y357D01*
X783Y357D02*
X785Y357D01*
X821Y357D02*
X822Y357D01*
X859Y357D02*
X861Y357D01*
X878Y357D02*
X879Y357D01*
X903Y357D02*
X905Y357D01*
X925Y357D02*
X927Y357D01*
X930Y357D02*
X932Y357D01*
X943Y357D02*
X944Y357D01*
X974Y357D02*
X975Y357D01*
X981Y357D02*
X982Y357D01*
X1180Y357D02*
X1187Y357D01*
X0Y356D02*
X7Y356D01*
X711Y356D02*
X720Y356D01*
X746Y356D02*
X747Y356D01*
X783Y356D02*
X785Y356D01*
X821Y356D02*
X822Y356D01*
X858Y356D02*
X860Y356D01*
X878Y356D02*
X879Y356D01*
X903Y356D02*
X905Y356D01*
X923Y356D02*
X926Y356D01*
X930Y356D02*
X932Y356D01*
X943Y356D02*
X944Y356D01*
X974Y356D02*
X975Y356D01*
X981Y356D02*
X982Y356D01*
X1180Y356D02*
X1187Y356D01*
X0Y355D02*
X7Y355D01*
X711Y355D02*
X720Y355D01*
X746Y355D02*
X747Y355D01*
X751Y355D02*
X753Y355D01*
X765Y355D02*
X769Y355D01*
X782Y355D02*
X790Y355D01*
X821Y355D02*
X822Y355D01*
X834Y355D02*
X834Y355D01*
X858Y355D02*
X860Y355D01*
X878Y355D02*
X879Y355D01*
X889Y355D02*
X894Y355D01*
X903Y355D02*
X905Y355D01*
X912Y355D02*
X912Y355D01*
X922Y355D02*
X925Y355D01*
X930Y355D02*
X932Y355D01*
X943Y355D02*
X944Y355D01*
X960Y355D02*
X966Y355D01*
X974Y355D02*
X975Y355D01*
X981Y355D02*
X982Y355D01*
X1180Y355D02*
X1187Y355D01*
X0Y354D02*
X7Y354D01*
X711Y354D02*
X720Y354D01*
X746Y354D02*
X755Y354D01*
X765Y354D02*
X770Y354D01*
X781Y354D02*
X791Y354D01*
X821Y354D02*
X822Y354D01*
X833Y354D02*
X835Y354D01*
X843Y354D02*
X844Y354D01*
X857Y354D02*
X859Y354D01*
X878Y354D02*
X879Y354D01*
X888Y354D02*
X895Y354D01*
X903Y354D02*
X905Y354D01*
X911Y354D02*
X913Y354D01*
X922Y354D02*
X924Y354D01*
X930Y354D02*
X932Y354D01*
X943Y354D02*
X944Y354D01*
X958Y354D02*
X966Y354D01*
X974Y354D02*
X975Y354D01*
X981Y354D02*
X982Y354D01*
X1180Y354D02*
X1187Y354D01*
X0Y353D02*
X7Y353D01*
X711Y353D02*
X720Y353D01*
X746Y353D02*
X756Y353D01*
X765Y353D02*
X770Y353D01*
X781Y353D02*
X790Y353D01*
X821Y353D02*
X822Y353D01*
X833Y353D02*
X835Y353D01*
X843Y353D02*
X844Y353D01*
X857Y353D02*
X858Y353D01*
X878Y353D02*
X879Y353D01*
X889Y353D02*
X896Y353D01*
X903Y353D02*
X905Y353D01*
X910Y353D02*
X912Y353D01*
X921Y353D02*
X923Y353D01*
X930Y353D02*
X932Y353D01*
X943Y353D02*
X944Y353D01*
X957Y353D02*
X966Y353D01*
X974Y353D02*
X975Y353D01*
X981Y353D02*
X982Y353D01*
X1180Y353D02*
X1187Y353D01*
X0Y352D02*
X7Y352D01*
X711Y352D02*
X720Y352D01*
X746Y352D02*
X749Y352D01*
X755Y352D02*
X757Y352D01*
X768Y352D02*
X770Y352D01*
X783Y352D02*
X785Y352D01*
X821Y352D02*
X822Y352D01*
X833Y352D02*
X835Y352D01*
X843Y352D02*
X844Y352D01*
X856Y352D02*
X858Y352D01*
X870Y352D02*
X879Y352D01*
X895Y352D02*
X896Y352D01*
X903Y352D02*
X905Y352D01*
X909Y352D02*
X911Y352D01*
X921Y352D02*
X922Y352D01*
X930Y352D02*
X932Y352D01*
X943Y352D02*
X944Y352D01*
X956Y352D02*
X959Y352D01*
X974Y352D02*
X975Y352D01*
X981Y352D02*
X982Y352D01*
X1180Y352D02*
X1187Y352D01*
X0Y351D02*
X7Y351D01*
X711Y351D02*
X720Y351D01*
X746Y351D02*
X748Y351D01*
X755Y351D02*
X757Y351D01*
X768Y351D02*
X770Y351D01*
X783Y351D02*
X785Y351D01*
X821Y351D02*
X822Y351D01*
X834Y351D02*
X835Y351D01*
X842Y351D02*
X844Y351D01*
X855Y351D02*
X857Y351D01*
X869Y351D02*
X879Y351D01*
X895Y351D02*
X896Y351D01*
X903Y351D02*
X905Y351D01*
X907Y351D02*
X910Y351D01*
X921Y351D02*
X922Y351D01*
X930Y351D02*
X932Y351D01*
X943Y351D02*
X944Y351D01*
X956Y351D02*
X958Y351D01*
X974Y351D02*
X975Y351D01*
X981Y351D02*
X982Y351D01*
X1180Y351D02*
X1187Y351D01*
X0Y350D02*
X7Y350D01*
X711Y350D02*
X720Y350D01*
X746Y350D02*
X747Y350D01*
X755Y350D02*
X757Y350D01*
X768Y350D02*
X770Y350D01*
X783Y350D02*
X785Y350D01*
X821Y350D02*
X822Y350D01*
X834Y350D02*
X836Y350D01*
X842Y350D02*
X844Y350D01*
X855Y350D02*
X857Y350D01*
X868Y350D02*
X878Y350D01*
X889Y350D02*
X893Y350D01*
X895Y350D02*
X896Y350D01*
X903Y350D02*
X909Y350D01*
X921Y350D02*
X922Y350D01*
X930Y350D02*
X932Y350D01*
X943Y350D02*
X944Y350D01*
X956Y350D02*
X957Y350D01*
X974Y350D02*
X983Y350D01*
X1180Y350D02*
X1187Y350D01*
X0Y349D02*
X7Y349D01*
X711Y349D02*
X720Y349D01*
X746Y349D02*
X747Y349D01*
X755Y349D02*
X757Y349D01*
X768Y349D02*
X770Y349D01*
X783Y349D02*
X785Y349D01*
X803Y349D02*
X804Y349D01*
X821Y349D02*
X822Y349D01*
X834Y349D02*
X836Y349D01*
X841Y349D02*
X843Y349D01*
X854Y349D02*
X856Y349D01*
X868Y349D02*
X870Y349D01*
X887Y349D02*
X896Y349D01*
X903Y349D02*
X908Y349D01*
X921Y349D02*
X922Y349D01*
X925Y349D02*
X927Y349D01*
X930Y349D02*
X931Y349D01*
X943Y349D02*
X944Y349D01*
X956Y349D02*
X957Y349D01*
X974Y349D02*
X983Y349D01*
X1180Y349D02*
X1187Y349D01*
X0Y348D02*
X7Y348D01*
X711Y348D02*
X720Y348D01*
X746Y348D02*
X747Y348D01*
X755Y348D02*
X757Y348D01*
X768Y348D02*
X770Y348D01*
X783Y348D02*
X785Y348D01*
X802Y348D02*
X806Y348D01*
X821Y348D02*
X822Y348D01*
X835Y348D02*
X837Y348D01*
X841Y348D02*
X843Y348D01*
X854Y348D02*
X855Y348D01*
X868Y348D02*
X870Y348D01*
X886Y348D02*
X897Y348D01*
X903Y348D02*
X909Y348D01*
X921Y348D02*
X922Y348D01*
X926Y348D02*
X931Y348D01*
X943Y348D02*
X944Y348D01*
X956Y348D02*
X957Y348D01*
X974Y348D02*
X983Y348D01*
X1180Y348D02*
X1187Y348D01*
X0Y347D02*
X7Y347D01*
X711Y347D02*
X720Y347D01*
X746Y347D02*
X747Y347D01*
X755Y347D02*
X757Y347D01*
X768Y347D02*
X770Y347D01*
X783Y347D02*
X785Y347D01*
X802Y347D02*
X806Y347D01*
X821Y347D02*
X822Y347D01*
X835Y347D02*
X837Y347D01*
X841Y347D02*
X842Y347D01*
X853Y347D02*
X855Y347D01*
X868Y347D02*
X870Y347D01*
X886Y347D02*
X887Y347D01*
X895Y347D02*
X897Y347D01*
X903Y347D02*
X910Y347D01*
X921Y347D02*
X922Y347D01*
X926Y347D02*
X930Y347D01*
X943Y347D02*
X944Y347D01*
X956Y347D02*
X957Y347D01*
X981Y347D02*
X982Y347D01*
X1180Y347D02*
X1187Y347D01*
X0Y346D02*
X7Y346D01*
X711Y346D02*
X720Y346D01*
X746Y346D02*
X748Y346D01*
X755Y346D02*
X757Y346D01*
X768Y346D02*
X770Y346D01*
X783Y346D02*
X785Y346D01*
X802Y346D02*
X806Y346D01*
X821Y346D02*
X822Y346D01*
X836Y346D02*
X837Y346D01*
X840Y346D02*
X842Y346D01*
X852Y346D02*
X854Y346D01*
X868Y346D02*
X870Y346D01*
X886Y346D02*
X887Y346D01*
X895Y346D02*
X897Y346D01*
X903Y346D02*
X905Y346D01*
X908Y346D02*
X911Y346D01*
X921Y346D02*
X922Y346D01*
X926Y346D02*
X929Y346D01*
X943Y346D02*
X944Y346D01*
X956Y346D02*
X957Y346D01*
X981Y346D02*
X982Y346D01*
X1180Y346D02*
X1187Y346D01*
X0Y345D02*
X7Y345D01*
X711Y345D02*
X720Y345D01*
X746Y345D02*
X749Y345D01*
X755Y345D02*
X757Y345D01*
X768Y345D02*
X770Y345D01*
X783Y345D02*
X785Y345D01*
X790Y345D02*
X792Y345D01*
X802Y345D02*
X805Y345D01*
X821Y345D02*
X822Y345D01*
X836Y345D02*
X841Y345D01*
X852Y345D02*
X854Y345D01*
X868Y345D02*
X870Y345D01*
X886Y345D02*
X887Y345D01*
X894Y345D02*
X897Y345D01*
X903Y345D02*
X905Y345D01*
X909Y345D02*
X912Y345D01*
X921Y345D02*
X922Y345D01*
X925Y345D02*
X928Y345D01*
X943Y345D02*
X944Y345D01*
X956Y345D02*
X959Y345D01*
X981Y345D02*
X982Y345D01*
X1180Y345D02*
X1187Y345D01*
X0Y344D02*
X7Y344D01*
X711Y344D02*
X720Y344D01*
X746Y344D02*
X750Y344D01*
X754Y344D02*
X756Y344D01*
X768Y344D02*
X770Y344D01*
X783Y344D02*
X786Y344D01*
X789Y344D02*
X792Y344D01*
X820Y344D02*
X822Y344D01*
X837Y344D02*
X841Y344D01*
X851Y344D02*
X853Y344D01*
X868Y344D02*
X870Y344D01*
X886Y344D02*
X888Y344D01*
X893Y344D02*
X897Y344D01*
X903Y344D02*
X905Y344D01*
X911Y344D02*
X913Y344D01*
X921Y344D02*
X929Y344D01*
X943Y344D02*
X945Y344D01*
X957Y344D02*
X960Y344D01*
X981Y344D02*
X982Y344D01*
X1180Y344D02*
X1187Y344D01*
X0Y343D02*
X7Y343D01*
X712Y343D02*
X720Y343D01*
X746Y343D02*
X755Y343D01*
X765Y343D02*
X773Y343D01*
X784Y343D02*
X791Y343D01*
X817Y343D02*
X825Y343D01*
X837Y343D02*
X840Y343D01*
X851Y343D02*
X853Y343D01*
X868Y343D02*
X879Y343D01*
X886Y343D02*
X897Y343D01*
X903Y343D02*
X905Y343D01*
X912Y343D02*
X914Y343D01*
X921Y343D02*
X925Y343D01*
X928Y343D02*
X932Y343D01*
X938Y343D02*
X949Y343D01*
X958Y343D02*
X966Y343D01*
X981Y343D02*
X982Y343D01*
X1180Y343D02*
X1187Y343D01*
X0Y342D02*
X7Y342D01*
X712Y342D02*
X720Y342D01*
X746Y342D02*
X747Y342D01*
X750Y342D02*
X754Y342D01*
X765Y342D02*
X773Y342D01*
X785Y342D02*
X790Y342D01*
X817Y342D02*
X825Y342D01*
X838Y342D02*
X840Y342D01*
X851Y342D02*
X852Y342D01*
X868Y342D02*
X879Y342D01*
X887Y342D02*
X893Y342D01*
X896Y342D02*
X896Y342D01*
X904Y342D02*
X904Y342D01*
X913Y342D02*
X914Y342D01*
X922Y342D02*
X924Y342D01*
X928Y342D02*
X931Y342D01*
X938Y342D02*
X949Y342D01*
X959Y342D02*
X966Y342D01*
X981Y342D02*
X982Y342D01*
X1180Y342D02*
X1187Y342D01*
X0Y341D02*
X7Y341D01*
X713Y341D02*
X720Y341D01*
X838Y341D02*
X840Y341D01*
X1180Y341D02*
X1187Y341D01*
X0Y340D02*
X7Y340D01*
X713Y340D02*
X720Y340D01*
X837Y340D02*
X839Y340D01*
X1180Y340D02*
X1187Y340D01*
X0Y339D02*
X7Y339D01*
X714Y339D02*
X720Y339D01*
X837Y339D02*
X839Y339D01*
X1180Y339D02*
X1187Y339D01*
X0Y338D02*
X7Y338D01*
X714Y338D02*
X720Y338D01*
X833Y338D02*
X838Y338D01*
X1180Y338D02*
X1187Y338D01*
X0Y337D02*
X7Y337D01*
X714Y337D02*
X720Y337D01*
X834Y337D02*
X838Y337D01*
X1180Y337D02*
X1187Y337D01*
X0Y336D02*
X7Y336D01*
X715Y336D02*
X720Y336D01*
X1180Y336D02*
X1187Y336D01*
X0Y335D02*
X7Y335D01*
X715Y335D02*
X720Y335D01*
X1180Y335D02*
X1187Y335D01*
X0Y334D02*
X7Y334D01*
X715Y334D02*
X720Y334D01*
X1180Y334D02*
X1187Y334D01*
X0Y333D02*
X7Y333D01*
X716Y333D02*
X720Y333D01*
X1180Y333D02*
X1187Y333D01*
X0Y332D02*
X7Y332D01*
X716Y332D02*
X720Y332D01*
X1180Y332D02*
X1187Y332D01*
X0Y331D02*
X7Y331D01*
X716Y331D02*
X720Y331D01*
X1180Y331D02*
X1187Y331D01*
X0Y330D02*
X7Y330D01*
X716Y330D02*
X720Y330D01*
X1180Y330D02*
X1187Y330D01*
X0Y329D02*
X7Y329D01*
X716Y329D02*
X720Y329D01*
X1180Y329D02*
X1187Y329D01*
X0Y328D02*
X7Y328D01*
X716Y328D02*
X720Y328D01*
X1180Y328D02*
X1187Y328D01*
X0Y327D02*
X7Y327D01*
X717Y327D02*
X720Y327D01*
X1180Y327D02*
X1187Y327D01*
X0Y326D02*
X7Y326D01*
X717Y326D02*
X720Y326D01*
X1180Y326D02*
X1187Y326D01*
X0Y325D02*
X7Y325D01*
X27Y325D02*
X32Y325D01*
X717Y325D02*
X720Y325D01*
X1180Y325D02*
X1187Y325D01*
X0Y324D02*
X7Y324D01*
X26Y324D02*
X33Y324D01*
X717Y324D02*
X720Y324D01*
X1180Y324D02*
X1187Y324D01*
X0Y323D02*
X7Y323D01*
X26Y323D02*
X34Y323D01*
X717Y323D02*
X720Y323D01*
X1180Y323D02*
X1187Y323D01*
X0Y322D02*
X7Y322D01*
X25Y322D02*
X34Y322D01*
X716Y322D02*
X720Y322D01*
X1180Y322D02*
X1187Y322D01*
X0Y321D02*
X7Y321D01*
X25Y321D02*
X34Y321D01*
X716Y321D02*
X720Y321D01*
X1180Y321D02*
X1187Y321D01*
X0Y320D02*
X7Y320D01*
X25Y320D02*
X34Y320D01*
X716Y320D02*
X720Y320D01*
X1180Y320D02*
X1187Y320D01*
X0Y319D02*
X7Y319D01*
X25Y319D02*
X34Y319D01*
X716Y319D02*
X720Y319D01*
X1180Y319D02*
X1187Y319D01*
X0Y318D02*
X7Y318D01*
X25Y318D02*
X34Y318D01*
X716Y318D02*
X720Y318D01*
X1180Y318D02*
X1187Y318D01*
X0Y317D02*
X7Y317D01*
X25Y317D02*
X34Y317D01*
X716Y317D02*
X720Y317D01*
X1180Y317D02*
X1187Y317D01*
X0Y316D02*
X7Y316D01*
X25Y316D02*
X34Y316D01*
X715Y316D02*
X720Y316D01*
X1180Y316D02*
X1187Y316D01*
X0Y315D02*
X7Y315D01*
X25Y315D02*
X34Y315D01*
X715Y315D02*
X720Y315D01*
X1180Y315D02*
X1187Y315D01*
X0Y314D02*
X7Y314D01*
X25Y314D02*
X34Y314D01*
X715Y314D02*
X720Y314D01*
X1180Y314D02*
X1187Y314D01*
X0Y313D02*
X7Y313D01*
X25Y313D02*
X34Y313D01*
X714Y313D02*
X720Y313D01*
X1180Y313D02*
X1187Y313D01*
X0Y312D02*
X7Y312D01*
X25Y312D02*
X34Y312D01*
X714Y312D02*
X720Y312D01*
X1180Y312D02*
X1187Y312D01*
X0Y311D02*
X7Y311D01*
X25Y311D02*
X34Y311D01*
X714Y311D02*
X720Y311D01*
X1180Y311D02*
X1187Y311D01*
X0Y310D02*
X7Y310D01*
X25Y310D02*
X34Y310D01*
X713Y310D02*
X720Y310D01*
X1180Y310D02*
X1187Y310D01*
X0Y309D02*
X7Y309D01*
X25Y309D02*
X34Y309D01*
X713Y309D02*
X720Y309D01*
X1180Y309D02*
X1187Y309D01*
X0Y308D02*
X7Y308D01*
X25Y308D02*
X34Y308D01*
X712Y308D02*
X720Y308D01*
X1180Y308D02*
X1187Y308D01*
X0Y307D02*
X7Y307D01*
X25Y307D02*
X34Y307D01*
X712Y307D02*
X720Y307D01*
X1180Y307D02*
X1187Y307D01*
X0Y306D02*
X7Y306D01*
X25Y306D02*
X34Y306D01*
X711Y306D02*
X720Y306D01*
X1180Y306D02*
X1187Y306D01*
X0Y305D02*
X7Y305D01*
X25Y305D02*
X34Y305D01*
X711Y305D02*
X720Y305D01*
X1180Y305D02*
X1187Y305D01*
X0Y304D02*
X7Y304D01*
X25Y304D02*
X34Y304D01*
X711Y304D02*
X720Y304D01*
X1180Y304D02*
X1187Y304D01*
X0Y303D02*
X7Y303D01*
X25Y303D02*
X34Y303D01*
X711Y303D02*
X720Y303D01*
X1180Y303D02*
X1187Y303D01*
X0Y302D02*
X7Y302D01*
X25Y302D02*
X34Y302D01*
X711Y302D02*
X720Y302D01*
X1083Y302D02*
X1099Y302D01*
X1146Y302D02*
X1161Y302D01*
X1180Y302D02*
X1187Y302D01*
X0Y301D02*
X7Y301D01*
X25Y301D02*
X34Y301D01*
X413Y301D02*
X415Y301D01*
X440Y301D02*
X442Y301D01*
X469Y301D02*
X484Y301D01*
X511Y301D02*
X528Y301D01*
X561Y301D02*
X563Y301D01*
X606Y301D02*
X631Y301D01*
X711Y301D02*
X720Y301D01*
X1082Y301D02*
X1101Y301D01*
X1145Y301D02*
X1163Y301D01*
X1180Y301D02*
X1187Y301D01*
X0Y300D02*
X7Y300D01*
X25Y300D02*
X34Y300D01*
X412Y300D02*
X416Y300D01*
X439Y300D02*
X443Y300D01*
X467Y300D02*
X485Y300D01*
X509Y300D02*
X528Y300D01*
X560Y300D02*
X564Y300D01*
X606Y300D02*
X633Y300D01*
X711Y300D02*
X720Y300D01*
X1082Y300D02*
X1101Y300D01*
X1144Y300D02*
X1164Y300D01*
X1180Y300D02*
X1187Y300D01*
X0Y299D02*
X7Y299D01*
X25Y299D02*
X34Y299D01*
X411Y299D02*
X417Y299D01*
X437Y299D02*
X443Y299D01*
X467Y299D02*
X485Y299D01*
X509Y299D02*
X528Y299D01*
X559Y299D02*
X565Y299D01*
X606Y299D02*
X635Y299D01*
X711Y299D02*
X720Y299D01*
X1082Y299D02*
X1102Y299D01*
X1145Y299D02*
X1165Y299D01*
X1180Y299D02*
X1187Y299D01*
X0Y298D02*
X7Y298D01*
X25Y298D02*
X34Y298D01*
X411Y298D02*
X417Y298D01*
X436Y298D02*
X444Y298D01*
X467Y298D02*
X486Y298D01*
X509Y298D02*
X528Y298D01*
X559Y298D02*
X565Y298D01*
X606Y298D02*
X636Y298D01*
X711Y298D02*
X720Y298D01*
X1083Y298D02*
X1102Y298D01*
X1146Y298D02*
X1165Y298D01*
X1180Y298D02*
X1187Y298D01*
X0Y297D02*
X7Y297D01*
X25Y297D02*
X34Y297D01*
X411Y297D02*
X417Y297D01*
X435Y297D02*
X444Y297D01*
X467Y297D02*
X486Y297D01*
X509Y297D02*
X528Y297D01*
X559Y297D02*
X565Y297D01*
X606Y297D02*
X637Y297D01*
X711Y297D02*
X720Y297D01*
X1099Y297D02*
X1102Y297D01*
X1162Y297D02*
X1165Y297D01*
X1180Y297D02*
X1187Y297D01*
X0Y296D02*
X7Y296D01*
X25Y296D02*
X34Y296D01*
X411Y296D02*
X417Y296D01*
X434Y296D02*
X443Y296D01*
X467Y296D02*
X486Y296D01*
X509Y296D02*
X528Y296D01*
X559Y296D02*
X565Y296D01*
X606Y296D02*
X637Y296D01*
X711Y296D02*
X720Y296D01*
X1099Y296D02*
X1102Y296D01*
X1162Y296D02*
X1165Y296D01*
X1180Y296D02*
X1187Y296D01*
X0Y295D02*
X7Y295D01*
X25Y295D02*
X34Y295D01*
X411Y295D02*
X417Y295D01*
X433Y295D02*
X442Y295D01*
X467Y295D02*
X486Y295D01*
X510Y295D02*
X528Y295D01*
X559Y295D02*
X565Y295D01*
X581Y295D02*
X583Y295D01*
X606Y295D02*
X638Y295D01*
X711Y295D02*
X720Y295D01*
X1099Y295D02*
X1102Y295D01*
X1162Y295D02*
X1165Y295D01*
X1180Y295D02*
X1187Y295D01*
X0Y294D02*
X7Y294D01*
X25Y294D02*
X34Y294D01*
X411Y294D02*
X417Y294D01*
X431Y294D02*
X441Y294D01*
X467Y294D02*
X472Y294D01*
X480Y294D02*
X486Y294D01*
X522Y294D02*
X528Y294D01*
X559Y294D02*
X565Y294D01*
X580Y294D02*
X584Y294D01*
X606Y294D02*
X612Y294D01*
X631Y294D02*
X638Y294D01*
X711Y294D02*
X720Y294D01*
X1099Y294D02*
X1102Y294D01*
X1162Y294D02*
X1165Y294D01*
X1180Y294D02*
X1187Y294D01*
X0Y293D02*
X7Y293D01*
X25Y293D02*
X34Y293D01*
X411Y293D02*
X417Y293D01*
X430Y293D02*
X440Y293D01*
X467Y293D02*
X472Y293D01*
X480Y293D02*
X486Y293D01*
X522Y293D02*
X528Y293D01*
X559Y293D02*
X565Y293D01*
X579Y293D02*
X585Y293D01*
X606Y293D02*
X612Y293D01*
X632Y293D02*
X638Y293D01*
X711Y293D02*
X720Y293D01*
X1099Y293D02*
X1102Y293D01*
X1162Y293D02*
X1165Y293D01*
X1180Y293D02*
X1187Y293D01*
X0Y292D02*
X7Y292D01*
X25Y292D02*
X34Y292D01*
X411Y292D02*
X417Y292D01*
X429Y292D02*
X439Y292D01*
X467Y292D02*
X472Y292D01*
X480Y292D02*
X486Y292D01*
X522Y292D02*
X528Y292D01*
X559Y292D02*
X565Y292D01*
X579Y292D02*
X585Y292D01*
X606Y292D02*
X612Y292D01*
X633Y292D02*
X639Y292D01*
X711Y292D02*
X720Y292D01*
X1099Y292D02*
X1102Y292D01*
X1162Y292D02*
X1165Y292D01*
X1180Y292D02*
X1187Y292D01*
X0Y291D02*
X7Y291D01*
X25Y291D02*
X34Y291D01*
X411Y291D02*
X417Y291D01*
X428Y291D02*
X437Y291D01*
X467Y291D02*
X472Y291D01*
X480Y291D02*
X486Y291D01*
X522Y291D02*
X528Y291D01*
X559Y291D02*
X565Y291D01*
X579Y291D02*
X585Y291D01*
X606Y291D02*
X612Y291D01*
X633Y291D02*
X639Y291D01*
X711Y291D02*
X720Y291D01*
X1099Y291D02*
X1102Y291D01*
X1162Y291D02*
X1165Y291D01*
X1180Y291D02*
X1187Y291D01*
X0Y290D02*
X7Y290D01*
X25Y290D02*
X34Y290D01*
X411Y290D02*
X417Y290D01*
X427Y290D02*
X436Y290D01*
X467Y290D02*
X472Y290D01*
X480Y290D02*
X486Y290D01*
X522Y290D02*
X528Y290D01*
X559Y290D02*
X565Y290D01*
X579Y290D02*
X585Y290D01*
X606Y290D02*
X612Y290D01*
X633Y290D02*
X639Y290D01*
X711Y290D02*
X720Y290D01*
X1099Y290D02*
X1102Y290D01*
X1162Y290D02*
X1165Y290D01*
X1180Y290D02*
X1187Y290D01*
X0Y289D02*
X7Y289D01*
X25Y289D02*
X34Y289D01*
X411Y289D02*
X417Y289D01*
X426Y289D02*
X435Y289D01*
X467Y289D02*
X472Y289D01*
X480Y289D02*
X486Y289D01*
X522Y289D02*
X528Y289D01*
X559Y289D02*
X565Y289D01*
X579Y289D02*
X585Y289D01*
X606Y289D02*
X612Y289D01*
X633Y289D02*
X639Y289D01*
X711Y289D02*
X720Y289D01*
X1099Y289D02*
X1102Y289D01*
X1161Y289D02*
X1165Y289D01*
X1180Y289D02*
X1187Y289D01*
X0Y288D02*
X7Y288D01*
X25Y288D02*
X34Y288D01*
X411Y288D02*
X417Y288D01*
X424Y288D02*
X434Y288D01*
X467Y288D02*
X472Y288D01*
X480Y288D02*
X486Y288D01*
X522Y288D02*
X528Y288D01*
X559Y288D02*
X565Y288D01*
X579Y288D02*
X585Y288D01*
X606Y288D02*
X612Y288D01*
X633Y288D02*
X639Y288D01*
X711Y288D02*
X720Y288D01*
X1098Y288D02*
X1102Y288D01*
X1161Y288D02*
X1165Y288D01*
X1180Y288D02*
X1187Y288D01*
X0Y287D02*
X7Y287D01*
X25Y287D02*
X34Y287D01*
X411Y287D02*
X417Y287D01*
X423Y287D02*
X433Y287D01*
X467Y287D02*
X472Y287D01*
X480Y287D02*
X486Y287D01*
X522Y287D02*
X528Y287D01*
X559Y287D02*
X565Y287D01*
X579Y287D02*
X585Y287D01*
X606Y287D02*
X612Y287D01*
X633Y287D02*
X639Y287D01*
X711Y287D02*
X720Y287D01*
X1087Y287D02*
X1102Y287D01*
X1150Y287D02*
X1164Y287D01*
X1180Y287D02*
X1187Y287D01*
X0Y286D02*
X7Y286D01*
X25Y286D02*
X34Y286D01*
X411Y286D02*
X417Y286D01*
X422Y286D02*
X432Y286D01*
X467Y286D02*
X472Y286D01*
X480Y286D02*
X486Y286D01*
X522Y286D02*
X528Y286D01*
X559Y286D02*
X565Y286D01*
X579Y286D02*
X585Y286D01*
X606Y286D02*
X612Y286D01*
X633Y286D02*
X639Y286D01*
X711Y286D02*
X720Y286D01*
X1086Y286D02*
X1101Y286D01*
X1149Y286D02*
X1164Y286D01*
X1180Y286D02*
X1187Y286D01*
X0Y285D02*
X7Y285D01*
X25Y285D02*
X34Y285D01*
X411Y285D02*
X417Y285D01*
X421Y285D02*
X430Y285D01*
X467Y285D02*
X472Y285D01*
X480Y285D02*
X486Y285D01*
X522Y285D02*
X528Y285D01*
X559Y285D02*
X565Y285D01*
X579Y285D02*
X585Y285D01*
X606Y285D02*
X612Y285D01*
X633Y285D02*
X639Y285D01*
X711Y285D02*
X720Y285D01*
X1086Y285D02*
X1101Y285D01*
X1149Y285D02*
X1163Y285D01*
X1180Y285D02*
X1187Y285D01*
X0Y284D02*
X7Y284D01*
X25Y284D02*
X34Y284D01*
X411Y284D02*
X417Y284D01*
X420Y284D02*
X429Y284D01*
X467Y284D02*
X472Y284D01*
X480Y284D02*
X486Y284D01*
X522Y284D02*
X528Y284D01*
X559Y284D02*
X565Y284D01*
X579Y284D02*
X585Y284D01*
X606Y284D02*
X612Y284D01*
X633Y284D02*
X639Y284D01*
X711Y284D02*
X720Y284D01*
X1086Y284D02*
X1101Y284D01*
X1149Y284D02*
X1164Y284D01*
X1180Y284D02*
X1187Y284D01*
X0Y283D02*
X7Y283D01*
X25Y283D02*
X34Y283D01*
X411Y283D02*
X417Y283D01*
X419Y283D02*
X428Y283D01*
X467Y283D02*
X472Y283D01*
X480Y283D02*
X486Y283D01*
X522Y283D02*
X528Y283D01*
X559Y283D02*
X565Y283D01*
X579Y283D02*
X585Y283D01*
X606Y283D02*
X612Y283D01*
X633Y283D02*
X639Y283D01*
X711Y283D02*
X720Y283D01*
X1097Y283D02*
X1102Y283D01*
X1160Y283D02*
X1165Y283D01*
X1180Y283D02*
X1187Y283D01*
X0Y282D02*
X7Y282D01*
X25Y282D02*
X34Y282D01*
X411Y282D02*
X427Y282D01*
X467Y282D02*
X472Y282D01*
X480Y282D02*
X486Y282D01*
X522Y282D02*
X528Y282D01*
X559Y282D02*
X565Y282D01*
X579Y282D02*
X585Y282D01*
X606Y282D02*
X612Y282D01*
X633Y282D02*
X639Y282D01*
X711Y282D02*
X720Y282D01*
X1098Y282D02*
X1102Y282D01*
X1161Y282D02*
X1165Y282D01*
X1180Y282D02*
X1187Y282D01*
X0Y281D02*
X7Y281D01*
X25Y281D02*
X34Y281D01*
X411Y281D02*
X426Y281D01*
X467Y281D02*
X472Y281D01*
X480Y281D02*
X486Y281D01*
X522Y281D02*
X528Y281D01*
X559Y281D02*
X565Y281D01*
X579Y281D02*
X585Y281D01*
X606Y281D02*
X612Y281D01*
X633Y281D02*
X639Y281D01*
X711Y281D02*
X720Y281D01*
X1099Y281D02*
X1102Y281D01*
X1120Y281D02*
X1127Y281D01*
X1162Y281D02*
X1165Y281D01*
X1180Y281D02*
X1187Y281D01*
X0Y280D02*
X7Y280D01*
X25Y280D02*
X34Y280D01*
X411Y280D02*
X425Y280D01*
X467Y280D02*
X472Y280D01*
X480Y280D02*
X486Y280D01*
X522Y280D02*
X528Y280D01*
X559Y280D02*
X565Y280D01*
X579Y280D02*
X585Y280D01*
X606Y280D02*
X612Y280D01*
X633Y280D02*
X639Y280D01*
X711Y280D02*
X720Y280D01*
X1099Y280D02*
X1102Y280D01*
X1119Y280D02*
X1127Y280D01*
X1162Y280D02*
X1165Y280D01*
X1180Y280D02*
X1187Y280D01*
X0Y279D02*
X7Y279D01*
X25Y279D02*
X34Y279D01*
X411Y279D02*
X423Y279D01*
X467Y279D02*
X472Y279D01*
X480Y279D02*
X486Y279D01*
X522Y279D02*
X528Y279D01*
X559Y279D02*
X565Y279D01*
X579Y279D02*
X585Y279D01*
X606Y279D02*
X612Y279D01*
X633Y279D02*
X639Y279D01*
X711Y279D02*
X720Y279D01*
X1099Y279D02*
X1102Y279D01*
X1119Y279D02*
X1127Y279D01*
X1162Y279D02*
X1165Y279D01*
X1180Y279D02*
X1187Y279D01*
X0Y278D02*
X7Y278D01*
X25Y278D02*
X34Y278D01*
X411Y278D02*
X422Y278D01*
X464Y278D02*
X488Y278D01*
X522Y278D02*
X528Y278D01*
X559Y278D02*
X565Y278D01*
X579Y278D02*
X585Y278D01*
X606Y278D02*
X612Y278D01*
X633Y278D02*
X639Y278D01*
X711Y278D02*
X720Y278D01*
X1099Y278D02*
X1102Y278D01*
X1119Y278D02*
X1127Y278D01*
X1162Y278D02*
X1165Y278D01*
X1180Y278D02*
X1187Y278D01*
X0Y277D02*
X7Y277D01*
X25Y277D02*
X34Y277D01*
X411Y277D02*
X421Y277D01*
X463Y277D02*
X490Y277D01*
X522Y277D02*
X528Y277D01*
X559Y277D02*
X565Y277D01*
X579Y277D02*
X585Y277D01*
X606Y277D02*
X612Y277D01*
X632Y277D02*
X638Y277D01*
X711Y277D02*
X720Y277D01*
X1099Y277D02*
X1102Y277D01*
X1119Y277D02*
X1127Y277D01*
X1162Y277D02*
X1165Y277D01*
X1180Y277D02*
X1187Y277D01*
X0Y276D02*
X7Y276D01*
X25Y276D02*
X34Y276D01*
X411Y276D02*
X420Y276D01*
X462Y276D02*
X491Y276D01*
X522Y276D02*
X528Y276D01*
X559Y276D02*
X565Y276D01*
X579Y276D02*
X585Y276D01*
X606Y276D02*
X612Y276D01*
X631Y276D02*
X638Y276D01*
X711Y276D02*
X720Y276D01*
X1099Y276D02*
X1102Y276D01*
X1119Y276D02*
X1127Y276D01*
X1162Y276D02*
X1165Y276D01*
X1180Y276D02*
X1187Y276D01*
X0Y275D02*
X7Y275D01*
X25Y275D02*
X34Y275D01*
X411Y275D02*
X419Y275D01*
X461Y275D02*
X491Y275D01*
X522Y275D02*
X528Y275D01*
X559Y275D02*
X565Y275D01*
X579Y275D02*
X585Y275D01*
X606Y275D02*
X638Y275D01*
X711Y275D02*
X720Y275D01*
X1099Y275D02*
X1102Y275D01*
X1120Y275D02*
X1127Y275D01*
X1162Y275D02*
X1165Y275D01*
X1180Y275D02*
X1187Y275D01*
X0Y274D02*
X7Y274D01*
X25Y274D02*
X34Y274D01*
X411Y274D02*
X420Y274D01*
X460Y274D02*
X492Y274D01*
X522Y274D02*
X528Y274D01*
X559Y274D02*
X565Y274D01*
X579Y274D02*
X585Y274D01*
X606Y274D02*
X637Y274D01*
X711Y274D02*
X720Y274D01*
X1099Y274D02*
X1102Y274D01*
X1121Y274D02*
X1126Y274D01*
X1162Y274D02*
X1165Y274D01*
X1180Y274D02*
X1187Y274D01*
X0Y273D02*
X7Y273D01*
X25Y273D02*
X34Y273D01*
X411Y273D02*
X421Y273D01*
X460Y273D02*
X492Y273D01*
X522Y273D02*
X528Y273D01*
X559Y273D02*
X565Y273D01*
X579Y273D02*
X585Y273D01*
X606Y273D02*
X637Y273D01*
X711Y273D02*
X720Y273D01*
X1099Y273D02*
X1102Y273D01*
X1161Y273D02*
X1165Y273D01*
X1180Y273D02*
X1187Y273D01*
X0Y272D02*
X7Y272D01*
X25Y272D02*
X34Y272D01*
X411Y272D02*
X422Y272D01*
X460Y272D02*
X492Y272D01*
X522Y272D02*
X528Y272D01*
X537Y272D02*
X540Y272D01*
X559Y272D02*
X587Y272D01*
X606Y272D02*
X636Y272D01*
X711Y272D02*
X720Y272D01*
X1082Y272D02*
X1102Y272D01*
X1145Y272D02*
X1165Y272D01*
X1180Y272D02*
X1187Y272D01*
X0Y271D02*
X7Y271D01*
X25Y271D02*
X34Y271D01*
X411Y271D02*
X424Y271D01*
X460Y271D02*
X466Y271D01*
X487Y271D02*
X492Y271D01*
X522Y271D02*
X528Y271D01*
X536Y271D02*
X541Y271D01*
X559Y271D02*
X588Y271D01*
X606Y271D02*
X635Y271D01*
X711Y271D02*
X720Y271D01*
X1082Y271D02*
X1102Y271D01*
X1144Y271D02*
X1165Y271D01*
X1180Y271D02*
X1187Y271D01*
X0Y270D02*
X7Y270D01*
X25Y270D02*
X34Y270D01*
X411Y270D02*
X425Y270D01*
X460Y270D02*
X466Y270D01*
X487Y270D02*
X492Y270D01*
X522Y270D02*
X528Y270D01*
X535Y270D02*
X541Y270D01*
X559Y270D02*
X588Y270D01*
X606Y270D02*
X633Y270D01*
X711Y270D02*
X720Y270D01*
X1082Y270D02*
X1101Y270D01*
X1144Y270D02*
X1164Y270D01*
X1180Y270D02*
X1187Y270D01*
X0Y269D02*
X7Y269D01*
X25Y269D02*
X34Y269D01*
X411Y269D02*
X426Y269D01*
X460Y269D02*
X466Y269D01*
X487Y269D02*
X492Y269D01*
X522Y269D02*
X528Y269D01*
X535Y269D02*
X541Y269D01*
X559Y269D02*
X588Y269D01*
X606Y269D02*
X630Y269D01*
X711Y269D02*
X720Y269D01*
X1082Y269D02*
X1100Y269D01*
X1145Y269D02*
X1163Y269D01*
X1180Y269D02*
X1187Y269D01*
X0Y268D02*
X7Y268D01*
X25Y268D02*
X34Y268D01*
X411Y268D02*
X427Y268D01*
X460Y268D02*
X466Y268D01*
X487Y268D02*
X492Y268D01*
X522Y268D02*
X528Y268D01*
X535Y268D02*
X541Y268D01*
X559Y268D02*
X588Y268D01*
X606Y268D02*
X612Y268D01*
X711Y268D02*
X720Y268D01*
X838Y268D02*
X849Y268D01*
X1180Y268D02*
X1187Y268D01*
X0Y267D02*
X7Y267D01*
X25Y267D02*
X34Y267D01*
X411Y267D02*
X417Y267D01*
X419Y267D02*
X428Y267D01*
X460Y267D02*
X466Y267D01*
X487Y267D02*
X492Y267D01*
X522Y267D02*
X528Y267D01*
X535Y267D02*
X541Y267D01*
X559Y267D02*
X587Y267D01*
X606Y267D02*
X612Y267D01*
X717Y267D02*
X720Y267D01*
X828Y267D02*
X858Y267D01*
X1180Y267D02*
X1187Y267D01*
X0Y266D02*
X7Y266D01*
X25Y266D02*
X34Y266D01*
X411Y266D02*
X417Y266D01*
X420Y266D02*
X429Y266D01*
X460Y266D02*
X466Y266D01*
X487Y266D02*
X492Y266D01*
X522Y266D02*
X528Y266D01*
X535Y266D02*
X541Y266D01*
X559Y266D02*
X585Y266D01*
X606Y266D02*
X612Y266D01*
X717Y266D02*
X720Y266D01*
X823Y266D02*
X864Y266D01*
X1180Y266D02*
X1187Y266D01*
X0Y265D02*
X7Y265D01*
X25Y265D02*
X34Y265D01*
X411Y265D02*
X417Y265D01*
X421Y265D02*
X431Y265D01*
X460Y265D02*
X466Y265D01*
X487Y265D02*
X492Y265D01*
X522Y265D02*
X528Y265D01*
X535Y265D02*
X541Y265D01*
X579Y265D02*
X585Y265D01*
X606Y265D02*
X612Y265D01*
X717Y265D02*
X720Y265D01*
X819Y265D02*
X868Y265D01*
X1180Y265D02*
X1187Y265D01*
X0Y264D02*
X7Y264D01*
X25Y264D02*
X34Y264D01*
X411Y264D02*
X417Y264D01*
X422Y264D02*
X432Y264D01*
X460Y264D02*
X466Y264D01*
X487Y264D02*
X492Y264D01*
X522Y264D02*
X528Y264D01*
X535Y264D02*
X541Y264D01*
X579Y264D02*
X585Y264D01*
X606Y264D02*
X612Y264D01*
X717Y264D02*
X720Y264D01*
X815Y264D02*
X872Y264D01*
X1180Y264D02*
X1187Y264D01*
X0Y263D02*
X7Y263D01*
X25Y263D02*
X34Y263D01*
X411Y263D02*
X417Y263D01*
X423Y263D02*
X433Y263D01*
X460Y263D02*
X466Y263D01*
X487Y263D02*
X492Y263D01*
X522Y263D02*
X528Y263D01*
X535Y263D02*
X541Y263D01*
X579Y263D02*
X585Y263D01*
X606Y263D02*
X612Y263D01*
X717Y263D02*
X720Y263D01*
X812Y263D02*
X875Y263D01*
X1180Y263D02*
X1187Y263D01*
X0Y262D02*
X7Y262D01*
X25Y262D02*
X34Y262D01*
X411Y262D02*
X417Y262D01*
X425Y262D02*
X434Y262D01*
X460Y262D02*
X466Y262D01*
X487Y262D02*
X492Y262D01*
X522Y262D02*
X528Y262D01*
X535Y262D02*
X541Y262D01*
X579Y262D02*
X585Y262D01*
X606Y262D02*
X612Y262D01*
X717Y262D02*
X720Y262D01*
X809Y262D02*
X878Y262D01*
X1180Y262D02*
X1187Y262D01*
X0Y261D02*
X7Y261D01*
X25Y261D02*
X34Y261D01*
X411Y261D02*
X417Y261D01*
X426Y261D02*
X435Y261D01*
X460Y261D02*
X466Y261D01*
X487Y261D02*
X492Y261D01*
X522Y261D02*
X528Y261D01*
X535Y261D02*
X541Y261D01*
X579Y261D02*
X585Y261D01*
X606Y261D02*
X612Y261D01*
X717Y261D02*
X720Y261D01*
X806Y261D02*
X881Y261D01*
X1180Y261D02*
X1187Y261D01*
X0Y260D02*
X7Y260D01*
X25Y260D02*
X34Y260D01*
X411Y260D02*
X417Y260D01*
X427Y260D02*
X436Y260D01*
X460Y260D02*
X466Y260D01*
X487Y260D02*
X492Y260D01*
X522Y260D02*
X528Y260D01*
X535Y260D02*
X541Y260D01*
X579Y260D02*
X585Y260D01*
X606Y260D02*
X612Y260D01*
X717Y260D02*
X720Y260D01*
X804Y260D02*
X883Y260D01*
X1180Y260D02*
X1187Y260D01*
X0Y259D02*
X7Y259D01*
X25Y259D02*
X34Y259D01*
X411Y259D02*
X417Y259D01*
X428Y259D02*
X438Y259D01*
X460Y259D02*
X466Y259D01*
X487Y259D02*
X492Y259D01*
X522Y259D02*
X528Y259D01*
X535Y259D02*
X541Y259D01*
X579Y259D02*
X585Y259D01*
X606Y259D02*
X612Y259D01*
X717Y259D02*
X720Y259D01*
X802Y259D02*
X885Y259D01*
X1180Y259D02*
X1187Y259D01*
X0Y258D02*
X7Y258D01*
X25Y258D02*
X70Y258D01*
X411Y258D02*
X417Y258D01*
X429Y258D02*
X439Y258D01*
X460Y258D02*
X466Y258D01*
X487Y258D02*
X492Y258D01*
X522Y258D02*
X528Y258D01*
X535Y258D02*
X541Y258D01*
X579Y258D02*
X585Y258D01*
X606Y258D02*
X612Y258D01*
X717Y258D02*
X720Y258D01*
X800Y258D02*
X837Y258D01*
X850Y258D02*
X887Y258D01*
X1180Y258D02*
X1187Y258D01*
X0Y257D02*
X7Y257D01*
X25Y257D02*
X72Y257D01*
X411Y257D02*
X417Y257D01*
X430Y257D02*
X440Y257D01*
X460Y257D02*
X466Y257D01*
X487Y257D02*
X492Y257D01*
X522Y257D02*
X528Y257D01*
X535Y257D02*
X541Y257D01*
X579Y257D02*
X585Y257D01*
X606Y257D02*
X612Y257D01*
X717Y257D02*
X720Y257D01*
X797Y257D02*
X828Y257D01*
X859Y257D02*
X889Y257D01*
X1180Y257D02*
X1187Y257D01*
X0Y256D02*
X7Y256D01*
X25Y256D02*
X73Y256D01*
X411Y256D02*
X417Y256D01*
X432Y256D02*
X441Y256D01*
X460Y256D02*
X466Y256D01*
X487Y256D02*
X492Y256D01*
X522Y256D02*
X528Y256D01*
X535Y256D02*
X541Y256D01*
X579Y256D02*
X585Y256D01*
X606Y256D02*
X612Y256D01*
X717Y256D02*
X720Y256D01*
X795Y256D02*
X822Y256D01*
X864Y256D02*
X891Y256D01*
X1180Y256D02*
X1187Y256D01*
X0Y255D02*
X7Y255D01*
X25Y255D02*
X73Y255D01*
X411Y255D02*
X417Y255D01*
X433Y255D02*
X442Y255D01*
X460Y255D02*
X492Y255D01*
X510Y255D02*
X541Y255D01*
X579Y255D02*
X585Y255D01*
X606Y255D02*
X612Y255D01*
X717Y255D02*
X720Y255D01*
X794Y255D02*
X800Y255D01*
X886Y255D02*
X893Y255D01*
X1180Y255D02*
X1187Y255D01*
X0Y254D02*
X7Y254D01*
X25Y254D02*
X74Y254D01*
X411Y254D02*
X417Y254D01*
X434Y254D02*
X443Y254D01*
X460Y254D02*
X492Y254D01*
X509Y254D02*
X541Y254D01*
X579Y254D02*
X585Y254D01*
X606Y254D02*
X612Y254D01*
X717Y254D02*
X720Y254D01*
X792Y254D02*
X800Y254D01*
X886Y254D02*
X895Y254D01*
X1180Y254D02*
X1187Y254D01*
X0Y253D02*
X7Y253D01*
X25Y253D02*
X74Y253D01*
X411Y253D02*
X417Y253D01*
X435Y253D02*
X444Y253D01*
X460Y253D02*
X492Y253D01*
X509Y253D02*
X541Y253D01*
X579Y253D02*
X585Y253D01*
X606Y253D02*
X612Y253D01*
X717Y253D02*
X720Y253D01*
X790Y253D02*
X800Y253D01*
X886Y253D02*
X896Y253D01*
X1180Y253D02*
X1187Y253D01*
X0Y252D02*
X7Y252D01*
X25Y252D02*
X74Y252D01*
X411Y252D02*
X417Y252D01*
X436Y252D02*
X444Y252D01*
X461Y252D02*
X491Y252D01*
X509Y252D02*
X541Y252D01*
X579Y252D02*
X585Y252D01*
X606Y252D02*
X612Y252D01*
X717Y252D02*
X720Y252D01*
X789Y252D02*
X800Y252D01*
X886Y252D02*
X898Y252D01*
X1180Y252D02*
X1187Y252D01*
X0Y251D02*
X7Y251D01*
X25Y251D02*
X73Y251D01*
X411Y251D02*
X417Y251D01*
X437Y251D02*
X443Y251D01*
X462Y251D02*
X491Y251D01*
X509Y251D02*
X541Y251D01*
X579Y251D02*
X585Y251D01*
X606Y251D02*
X612Y251D01*
X717Y251D02*
X720Y251D01*
X787Y251D02*
X800Y251D01*
X886Y251D02*
X900Y251D01*
X1180Y251D02*
X1187Y251D01*
X0Y250D02*
X7Y250D01*
X25Y250D02*
X73Y250D01*
X412Y250D02*
X416Y250D01*
X439Y250D02*
X443Y250D01*
X463Y250D02*
X489Y250D01*
X510Y250D02*
X540Y250D01*
X580Y250D02*
X584Y250D01*
X607Y250D02*
X611Y250D01*
X717Y250D02*
X720Y250D01*
X785Y250D02*
X800Y250D01*
X886Y250D02*
X901Y250D01*
X1180Y250D02*
X1187Y250D01*
X0Y249D02*
X7Y249D01*
X25Y249D02*
X72Y249D01*
X414Y249D02*
X415Y249D01*
X440Y249D02*
X441Y249D01*
X465Y249D02*
X487Y249D01*
X511Y249D02*
X539Y249D01*
X582Y249D02*
X582Y249D01*
X608Y249D02*
X609Y249D01*
X717Y249D02*
X720Y249D01*
X784Y249D02*
X800Y249D01*
X886Y249D02*
X903Y249D01*
X1180Y249D02*
X1187Y249D01*
X0Y248D02*
X7Y248D01*
X717Y248D02*
X720Y248D01*
X783Y248D02*
X800Y248D01*
X887Y248D02*
X904Y248D01*
X1180Y248D02*
X1187Y248D01*
X0Y247D02*
X7Y247D01*
X717Y247D02*
X720Y247D01*
X781Y247D02*
X798Y247D01*
X889Y247D02*
X905Y247D01*
X1180Y247D02*
X1187Y247D01*
X0Y246D02*
X7Y246D01*
X717Y246D02*
X720Y246D01*
X780Y246D02*
X796Y246D01*
X891Y246D02*
X907Y246D01*
X1180Y246D02*
X1187Y246D01*
X0Y245D02*
X7Y245D01*
X717Y245D02*
X720Y245D01*
X779Y245D02*
X794Y245D01*
X893Y245D02*
X908Y245D01*
X1180Y245D02*
X1187Y245D01*
X0Y244D02*
X7Y244D01*
X717Y244D02*
X720Y244D01*
X777Y244D02*
X793Y244D01*
X894Y244D02*
X909Y244D01*
X1180Y244D02*
X1187Y244D01*
X0Y243D02*
X7Y243D01*
X717Y243D02*
X720Y243D01*
X776Y243D02*
X791Y243D01*
X896Y243D02*
X910Y243D01*
X1180Y243D02*
X1187Y243D01*
X0Y242D02*
X7Y242D01*
X717Y242D02*
X720Y242D01*
X775Y242D02*
X789Y242D01*
X897Y242D02*
X912Y242D01*
X1180Y242D02*
X1187Y242D01*
X0Y241D02*
X7Y241D01*
X717Y241D02*
X720Y241D01*
X774Y241D02*
X788Y241D01*
X899Y241D02*
X913Y241D01*
X1180Y241D02*
X1187Y241D01*
X0Y240D02*
X7Y240D01*
X717Y240D02*
X720Y240D01*
X773Y240D02*
X787Y240D01*
X900Y240D02*
X914Y240D01*
X1180Y240D02*
X1187Y240D01*
X0Y239D02*
X7Y239D01*
X717Y239D02*
X720Y239D01*
X772Y239D02*
X785Y239D01*
X902Y239D02*
X915Y239D01*
X1180Y239D02*
X1187Y239D01*
X0Y238D02*
X7Y238D01*
X717Y238D02*
X720Y238D01*
X771Y238D02*
X784Y238D01*
X903Y238D02*
X916Y238D01*
X1180Y238D02*
X1187Y238D01*
X0Y237D02*
X7Y237D01*
X717Y237D02*
X720Y237D01*
X770Y237D02*
X782Y237D01*
X904Y237D02*
X917Y237D01*
X1180Y237D02*
X1187Y237D01*
X0Y236D02*
X7Y236D01*
X717Y236D02*
X720Y236D01*
X769Y236D02*
X781Y236D01*
X905Y236D02*
X918Y236D01*
X1180Y236D02*
X1187Y236D01*
X0Y235D02*
X7Y235D01*
X717Y235D02*
X720Y235D01*
X768Y235D02*
X780Y235D01*
X906Y235D02*
X919Y235D01*
X1180Y235D02*
X1187Y235D01*
X0Y234D02*
X7Y234D01*
X717Y234D02*
X720Y234D01*
X767Y234D02*
X779Y234D01*
X908Y234D02*
X920Y234D01*
X1180Y234D02*
X1187Y234D01*
X0Y233D02*
X7Y233D01*
X717Y233D02*
X720Y233D01*
X766Y233D02*
X778Y233D01*
X786Y233D02*
X791Y233D01*
X896Y233D02*
X900Y233D01*
X909Y233D02*
X921Y233D01*
X1180Y233D02*
X1187Y233D01*
X0Y232D02*
X7Y232D01*
X717Y232D02*
X720Y232D01*
X765Y232D02*
X777Y232D01*
X785Y232D02*
X792Y232D01*
X895Y232D02*
X902Y232D01*
X910Y232D02*
X922Y232D01*
X1180Y232D02*
X1187Y232D01*
X0Y231D02*
X7Y231D01*
X717Y231D02*
X720Y231D01*
X764Y231D02*
X776Y231D01*
X784Y231D02*
X793Y231D01*
X894Y231D02*
X902Y231D01*
X911Y231D02*
X922Y231D01*
X1180Y231D02*
X1187Y231D01*
X0Y230D02*
X7Y230D01*
X717Y230D02*
X720Y230D01*
X763Y230D02*
X775Y230D01*
X784Y230D02*
X793Y230D01*
X894Y230D02*
X903Y230D01*
X912Y230D02*
X923Y230D01*
X1180Y230D02*
X1187Y230D01*
X0Y229D02*
X7Y229D01*
X717Y229D02*
X720Y229D01*
X763Y229D02*
X774Y229D01*
X784Y229D02*
X793Y229D01*
X893Y229D02*
X903Y229D01*
X913Y229D02*
X924Y229D01*
X1180Y229D02*
X1187Y229D01*
X0Y228D02*
X7Y228D01*
X717Y228D02*
X720Y228D01*
X762Y228D02*
X773Y228D01*
X783Y228D02*
X793Y228D01*
X893Y228D02*
X903Y228D01*
X914Y228D02*
X925Y228D01*
X1180Y228D02*
X1187Y228D01*
X0Y227D02*
X7Y227D01*
X717Y227D02*
X720Y227D01*
X761Y227D02*
X772Y227D01*
X783Y227D02*
X793Y227D01*
X893Y227D02*
X903Y227D01*
X915Y227D02*
X926Y227D01*
X1180Y227D02*
X1187Y227D01*
X0Y226D02*
X7Y226D01*
X717Y226D02*
X720Y226D01*
X760Y226D02*
X771Y226D01*
X783Y226D02*
X793Y226D01*
X893Y226D02*
X903Y226D01*
X916Y226D02*
X926Y226D01*
X1180Y226D02*
X1187Y226D01*
X0Y225D02*
X7Y225D01*
X717Y225D02*
X720Y225D01*
X760Y225D02*
X770Y225D01*
X783Y225D02*
X793Y225D01*
X893Y225D02*
X903Y225D01*
X916Y225D02*
X927Y225D01*
X1180Y225D02*
X1187Y225D01*
X0Y224D02*
X7Y224D01*
X717Y224D02*
X720Y224D01*
X759Y224D02*
X769Y224D01*
X783Y224D02*
X793Y224D01*
X893Y224D02*
X903Y224D01*
X917Y224D02*
X928Y224D01*
X1180Y224D02*
X1187Y224D01*
X0Y223D02*
X7Y223D01*
X717Y223D02*
X720Y223D01*
X758Y223D02*
X769Y223D01*
X783Y223D02*
X793Y223D01*
X893Y223D02*
X903Y223D01*
X918Y223D02*
X929Y223D01*
X1180Y223D02*
X1187Y223D01*
X0Y222D02*
X7Y222D01*
X717Y222D02*
X720Y222D01*
X757Y222D02*
X768Y222D01*
X783Y222D02*
X793Y222D01*
X893Y222D02*
X903Y222D01*
X919Y222D02*
X929Y222D01*
X1180Y222D02*
X1187Y222D01*
X0Y221D02*
X7Y221D01*
X717Y221D02*
X720Y221D01*
X757Y221D02*
X767Y221D01*
X783Y221D02*
X793Y221D01*
X893Y221D02*
X903Y221D01*
X920Y221D02*
X930Y221D01*
X1180Y221D02*
X1187Y221D01*
X0Y220D02*
X7Y220D01*
X717Y220D02*
X720Y220D01*
X756Y220D02*
X766Y220D01*
X783Y220D02*
X793Y220D01*
X893Y220D02*
X903Y220D01*
X920Y220D02*
X931Y220D01*
X1180Y220D02*
X1187Y220D01*
X0Y219D02*
X7Y219D01*
X717Y219D02*
X720Y219D01*
X755Y219D02*
X766Y219D01*
X783Y219D02*
X793Y219D01*
X893Y219D02*
X903Y219D01*
X921Y219D02*
X931Y219D01*
X1180Y219D02*
X1187Y219D01*
X0Y218D02*
X7Y218D01*
X717Y218D02*
X720Y218D01*
X755Y218D02*
X765Y218D01*
X783Y218D02*
X793Y218D01*
X893Y218D02*
X903Y218D01*
X922Y218D02*
X932Y218D01*
X1180Y218D02*
X1187Y218D01*
X0Y217D02*
X7Y217D01*
X717Y217D02*
X720Y217D01*
X754Y217D02*
X764Y217D01*
X783Y217D02*
X793Y217D01*
X893Y217D02*
X903Y217D01*
X923Y217D02*
X933Y217D01*
X1180Y217D02*
X1187Y217D01*
X0Y216D02*
X7Y216D01*
X717Y216D02*
X720Y216D01*
X754Y216D02*
X764Y216D01*
X783Y216D02*
X793Y216D01*
X893Y216D02*
X903Y216D01*
X923Y216D02*
X933Y216D01*
X1180Y216D02*
X1187Y216D01*
X0Y215D02*
X7Y215D01*
X717Y215D02*
X720Y215D01*
X753Y215D02*
X763Y215D01*
X783Y215D02*
X793Y215D01*
X893Y215D02*
X903Y215D01*
X924Y215D02*
X934Y215D01*
X1180Y215D02*
X1187Y215D01*
X0Y214D02*
X7Y214D01*
X717Y214D02*
X720Y214D01*
X752Y214D02*
X762Y214D01*
X783Y214D02*
X793Y214D01*
X893Y214D02*
X903Y214D01*
X924Y214D02*
X934Y214D01*
X1180Y214D02*
X1187Y214D01*
X0Y213D02*
X7Y213D01*
X717Y213D02*
X720Y213D01*
X752Y213D02*
X762Y213D01*
X783Y213D02*
X793Y213D01*
X893Y213D02*
X903Y213D01*
X925Y213D02*
X935Y213D01*
X1180Y213D02*
X1187Y213D01*
X0Y212D02*
X7Y212D01*
X717Y212D02*
X720Y212D01*
X751Y212D02*
X761Y212D01*
X783Y212D02*
X793Y212D01*
X893Y212D02*
X903Y212D01*
X926Y212D02*
X935Y212D01*
X1180Y212D02*
X1187Y212D01*
X0Y211D02*
X7Y211D01*
X717Y211D02*
X720Y211D01*
X751Y211D02*
X761Y211D01*
X783Y211D02*
X793Y211D01*
X893Y211D02*
X903Y211D01*
X926Y211D02*
X936Y211D01*
X1180Y211D02*
X1187Y211D01*
X0Y210D02*
X7Y210D01*
X717Y210D02*
X720Y210D01*
X750Y210D02*
X760Y210D01*
X783Y210D02*
X793Y210D01*
X893Y210D02*
X903Y210D01*
X927Y210D02*
X936Y210D01*
X1180Y210D02*
X1187Y210D01*
X0Y209D02*
X7Y209D01*
X717Y209D02*
X720Y209D01*
X750Y209D02*
X759Y209D01*
X783Y209D02*
X793Y209D01*
X893Y209D02*
X903Y209D01*
X927Y209D02*
X937Y209D01*
X1180Y209D02*
X1187Y209D01*
X0Y208D02*
X7Y208D01*
X717Y208D02*
X720Y208D01*
X749Y208D02*
X759Y208D01*
X783Y208D02*
X793Y208D01*
X893Y208D02*
X903Y208D01*
X928Y208D02*
X937Y208D01*
X1180Y208D02*
X1187Y208D01*
X0Y207D02*
X7Y207D01*
X717Y207D02*
X720Y207D01*
X749Y207D02*
X758Y207D01*
X783Y207D02*
X793Y207D01*
X893Y207D02*
X903Y207D01*
X928Y207D02*
X938Y207D01*
X1180Y207D02*
X1187Y207D01*
X0Y206D02*
X7Y206D01*
X717Y206D02*
X720Y206D01*
X748Y206D02*
X758Y206D01*
X783Y206D02*
X793Y206D01*
X893Y206D02*
X903Y206D01*
X929Y206D02*
X938Y206D01*
X1180Y206D02*
X1187Y206D01*
X0Y205D02*
X7Y205D01*
X717Y205D02*
X720Y205D01*
X748Y205D02*
X757Y205D01*
X783Y205D02*
X793Y205D01*
X893Y205D02*
X903Y205D01*
X929Y205D02*
X939Y205D01*
X1090Y205D02*
X1094Y205D01*
X1115Y205D02*
X1117Y205D01*
X1133Y205D02*
X1135Y205D01*
X1148Y205D02*
X1170Y205D01*
X1180Y205D02*
X1187Y205D01*
X0Y204D02*
X7Y204D01*
X717Y204D02*
X720Y204D01*
X747Y204D02*
X757Y204D01*
X783Y204D02*
X793Y204D01*
X893Y204D02*
X903Y204D01*
X930Y204D02*
X939Y204D01*
X1088Y204D02*
X1095Y204D01*
X1114Y204D02*
X1118Y204D01*
X1133Y204D02*
X1136Y204D01*
X1148Y204D02*
X1170Y204D01*
X1180Y204D02*
X1187Y204D01*
X0Y203D02*
X7Y203D01*
X717Y203D02*
X720Y203D01*
X747Y203D02*
X756Y203D01*
X783Y203D02*
X793Y203D01*
X893Y203D02*
X903Y203D01*
X930Y203D02*
X940Y203D01*
X1087Y203D02*
X1096Y203D01*
X1114Y203D02*
X1118Y203D01*
X1133Y203D02*
X1136Y203D01*
X1148Y203D02*
X1170Y203D01*
X1180Y203D02*
X1187Y203D01*
X0Y202D02*
X7Y202D01*
X717Y202D02*
X720Y202D01*
X747Y202D02*
X756Y202D01*
X783Y202D02*
X793Y202D01*
X893Y202D02*
X903Y202D01*
X931Y202D02*
X940Y202D01*
X1087Y202D02*
X1097Y202D01*
X1114Y202D02*
X1118Y202D01*
X1133Y202D02*
X1136Y202D01*
X1148Y202D02*
X1170Y202D01*
X1180Y202D02*
X1187Y202D01*
X0Y201D02*
X7Y201D01*
X717Y201D02*
X720Y201D01*
X746Y201D02*
X755Y201D01*
X783Y201D02*
X793Y201D01*
X893Y201D02*
X903Y201D01*
X931Y201D02*
X941Y201D01*
X1086Y201D02*
X1097Y201D01*
X1114Y201D02*
X1118Y201D01*
X1133Y201D02*
X1136Y201D01*
X1148Y201D02*
X1170Y201D01*
X1180Y201D02*
X1187Y201D01*
X0Y200D02*
X7Y200D01*
X717Y200D02*
X720Y200D01*
X746Y200D02*
X755Y200D01*
X783Y200D02*
X793Y200D01*
X893Y200D02*
X903Y200D01*
X932Y200D02*
X941Y200D01*
X1086Y200D02*
X1090Y200D01*
X1094Y200D02*
X1098Y200D01*
X1114Y200D02*
X1118Y200D01*
X1133Y200D02*
X1136Y200D01*
X1148Y200D02*
X1151Y200D01*
X1157Y200D02*
X1160Y200D01*
X1166Y200D02*
X1170Y200D01*
X1180Y200D02*
X1187Y200D01*
X0Y199D02*
X7Y199D01*
X717Y199D02*
X720Y199D01*
X745Y199D02*
X755Y199D01*
X783Y199D02*
X793Y199D01*
X893Y199D02*
X903Y199D01*
X932Y199D02*
X941Y199D01*
X1085Y199D02*
X1089Y199D01*
X1094Y199D02*
X1098Y199D01*
X1114Y199D02*
X1118Y199D01*
X1133Y199D02*
X1136Y199D01*
X1148Y199D02*
X1151Y199D01*
X1157Y199D02*
X1160Y199D01*
X1166Y199D02*
X1170Y199D01*
X1180Y199D02*
X1187Y199D01*
X0Y198D02*
X7Y198D01*
X717Y198D02*
X720Y198D01*
X745Y198D02*
X754Y198D01*
X783Y198D02*
X793Y198D01*
X893Y198D02*
X903Y198D01*
X932Y198D02*
X942Y198D01*
X1085Y198D02*
X1089Y198D01*
X1095Y198D02*
X1099Y198D01*
X1114Y198D02*
X1118Y198D01*
X1133Y198D02*
X1136Y198D01*
X1148Y198D02*
X1151Y198D01*
X1157Y198D02*
X1160Y198D01*
X1167Y198D02*
X1169Y198D01*
X1180Y198D02*
X1187Y198D01*
X0Y197D02*
X7Y197D01*
X717Y197D02*
X720Y197D01*
X745Y197D02*
X754Y197D01*
X784Y197D02*
X793Y197D01*
X894Y197D02*
X903Y197D01*
X933Y197D02*
X942Y197D01*
X1084Y197D02*
X1088Y197D01*
X1095Y197D02*
X1099Y197D01*
X1114Y197D02*
X1118Y197D01*
X1133Y197D02*
X1136Y197D01*
X1157Y197D02*
X1160Y197D01*
X1180Y197D02*
X1187Y197D01*
X0Y196D02*
X7Y196D01*
X717Y196D02*
X720Y196D01*
X744Y196D02*
X754Y196D01*
X784Y196D02*
X793Y196D01*
X894Y196D02*
X903Y196D01*
X933Y196D02*
X942Y196D01*
X1084Y196D02*
X1088Y196D01*
X1096Y196D02*
X1100Y196D01*
X1114Y196D02*
X1118Y196D01*
X1133Y196D02*
X1136Y196D01*
X1157Y196D02*
X1160Y196D01*
X1180Y196D02*
X1187Y196D01*
X0Y195D02*
X7Y195D01*
X717Y195D02*
X720Y195D01*
X744Y195D02*
X753Y195D01*
X785Y195D02*
X792Y195D01*
X895Y195D02*
X902Y195D01*
X933Y195D02*
X943Y195D01*
X1083Y195D02*
X1087Y195D01*
X1096Y195D02*
X1100Y195D01*
X1114Y195D02*
X1118Y195D01*
X1133Y195D02*
X1136Y195D01*
X1157Y195D02*
X1160Y195D01*
X1180Y195D02*
X1187Y195D01*
X0Y194D02*
X7Y194D01*
X717Y194D02*
X720Y194D01*
X744Y194D02*
X753Y194D01*
X786Y194D02*
X791Y194D01*
X896Y194D02*
X901Y194D01*
X934Y194D02*
X943Y194D01*
X1083Y194D02*
X1087Y194D01*
X1097Y194D02*
X1101Y194D01*
X1114Y194D02*
X1118Y194D01*
X1133Y194D02*
X1136Y194D01*
X1157Y194D02*
X1160Y194D01*
X1180Y194D02*
X1187Y194D01*
X0Y193D02*
X7Y193D01*
X717Y193D02*
X720Y193D01*
X743Y193D02*
X753Y193D01*
X788Y193D02*
X789Y193D01*
X898Y193D02*
X899Y193D01*
X934Y193D02*
X943Y193D01*
X1082Y193D02*
X1086Y193D01*
X1097Y193D02*
X1101Y193D01*
X1114Y193D02*
X1118Y193D01*
X1133Y193D02*
X1136Y193D01*
X1157Y193D02*
X1160Y193D01*
X1180Y193D02*
X1187Y193D01*
X0Y192D02*
X7Y192D01*
X717Y192D02*
X720Y192D01*
X743Y192D02*
X752Y192D01*
X935Y192D02*
X944Y192D01*
X1082Y192D02*
X1086Y192D01*
X1098Y192D02*
X1102Y192D01*
X1114Y192D02*
X1118Y192D01*
X1133Y192D02*
X1136Y192D01*
X1157Y192D02*
X1160Y192D01*
X1180Y192D02*
X1187Y192D01*
X0Y191D02*
X7Y191D01*
X717Y191D02*
X720Y191D01*
X743Y191D02*
X752Y191D01*
X935Y191D02*
X944Y191D01*
X1081Y191D02*
X1085Y191D01*
X1098Y191D02*
X1102Y191D01*
X1114Y191D02*
X1118Y191D01*
X1133Y191D02*
X1136Y191D01*
X1157Y191D02*
X1160Y191D01*
X1180Y191D02*
X1187Y191D01*
X0Y190D02*
X7Y190D01*
X717Y190D02*
X720Y190D01*
X742Y190D02*
X752Y190D01*
X935Y190D02*
X944Y190D01*
X1081Y190D02*
X1085Y190D01*
X1099Y190D02*
X1103Y190D01*
X1114Y190D02*
X1118Y190D01*
X1133Y190D02*
X1136Y190D01*
X1157Y190D02*
X1160Y190D01*
X1180Y190D02*
X1187Y190D01*
X0Y189D02*
X7Y189D01*
X717Y189D02*
X720Y189D01*
X742Y189D02*
X751Y189D01*
X935Y189D02*
X945Y189D01*
X1081Y189D02*
X1085Y189D01*
X1099Y189D02*
X1103Y189D01*
X1114Y189D02*
X1118Y189D01*
X1133Y189D02*
X1136Y189D01*
X1157Y189D02*
X1160Y189D01*
X1180Y189D02*
X1187Y189D01*
X0Y188D02*
X7Y188D01*
X717Y188D02*
X720Y188D01*
X742Y188D02*
X751Y188D01*
X936Y188D02*
X945Y188D01*
X1081Y188D02*
X1084Y188D01*
X1099Y188D02*
X1103Y188D01*
X1114Y188D02*
X1118Y188D01*
X1133Y188D02*
X1136Y188D01*
X1157Y188D02*
X1160Y188D01*
X1180Y188D02*
X1187Y188D01*
X0Y187D02*
X7Y187D01*
X717Y187D02*
X720Y187D01*
X742Y187D02*
X751Y187D01*
X936Y187D02*
X945Y187D01*
X1081Y187D02*
X1085Y187D01*
X1099Y187D02*
X1103Y187D01*
X1114Y187D02*
X1118Y187D01*
X1133Y187D02*
X1136Y187D01*
X1157Y187D02*
X1160Y187D01*
X1180Y187D02*
X1187Y187D01*
X0Y186D02*
X7Y186D01*
X325Y186D02*
X359Y186D01*
X389Y186D02*
X470Y186D01*
X569Y186D02*
X631Y186D01*
X717Y186D02*
X720Y186D01*
X741Y186D02*
X751Y186D01*
X936Y186D02*
X945Y186D01*
X1081Y186D02*
X1085Y186D01*
X1099Y186D02*
X1103Y186D01*
X1114Y186D02*
X1118Y186D01*
X1133Y186D02*
X1136Y186D01*
X1157Y186D02*
X1160Y186D01*
X1180Y186D02*
X1187Y186D01*
X0Y185D02*
X7Y185D01*
X324Y185D02*
X361Y185D01*
X386Y185D02*
X470Y185D01*
X569Y185D02*
X631Y185D01*
X717Y185D02*
X720Y185D01*
X741Y185D02*
X750Y185D01*
X936Y185D02*
X945Y185D01*
X1081Y185D02*
X1085Y185D01*
X1098Y185D02*
X1102Y185D01*
X1114Y185D02*
X1118Y185D01*
X1133Y185D02*
X1136Y185D01*
X1157Y185D02*
X1160Y185D01*
X1180Y185D02*
X1187Y185D01*
X0Y184D02*
X7Y184D01*
X324Y184D02*
X365Y184D01*
X383Y184D02*
X470Y184D01*
X569Y184D02*
X631Y184D01*
X717Y184D02*
X720Y184D01*
X741Y184D02*
X750Y184D01*
X937Y184D02*
X946Y184D01*
X1081Y184D02*
X1086Y184D01*
X1098Y184D02*
X1102Y184D01*
X1114Y184D02*
X1118Y184D01*
X1133Y184D02*
X1136Y184D01*
X1157Y184D02*
X1160Y184D01*
X1180Y184D02*
X1187Y184D01*
X0Y183D02*
X7Y183D01*
X324Y183D02*
X371Y183D01*
X377Y183D02*
X470Y183D01*
X569Y183D02*
X631Y183D01*
X741Y183D02*
X750Y183D01*
X937Y183D02*
X946Y183D01*
X1082Y183D02*
X1086Y183D01*
X1098Y183D02*
X1102Y183D01*
X1114Y183D02*
X1118Y183D01*
X1133Y183D02*
X1136Y183D01*
X1157Y183D02*
X1160Y183D01*
X1180Y183D02*
X1187Y183D01*
X0Y182D02*
X7Y182D01*
X324Y182D02*
X470Y182D01*
X569Y182D02*
X715Y182D01*
X741Y182D02*
X750Y182D01*
X937Y182D02*
X946Y182D01*
X1082Y182D02*
X1087Y182D01*
X1097Y182D02*
X1101Y182D01*
X1114Y182D02*
X1118Y182D01*
X1133Y182D02*
X1136Y182D01*
X1157Y182D02*
X1160Y182D01*
X1180Y182D02*
X1187Y182D01*
X0Y181D02*
X7Y181D01*
X324Y181D02*
X470Y181D01*
X569Y181D02*
X715Y181D01*
X740Y181D02*
X750Y181D01*
X937Y181D02*
X946Y181D01*
X1083Y181D02*
X1087Y181D01*
X1097Y181D02*
X1101Y181D01*
X1114Y181D02*
X1118Y181D01*
X1133Y181D02*
X1136Y181D01*
X1157Y181D02*
X1160Y181D01*
X1180Y181D02*
X1187Y181D01*
X0Y180D02*
X7Y180D01*
X740Y180D02*
X749Y180D01*
X937Y180D02*
X946Y180D01*
X1083Y180D02*
X1088Y180D01*
X1096Y180D02*
X1100Y180D01*
X1114Y180D02*
X1118Y180D01*
X1133Y180D02*
X1136Y180D01*
X1157Y180D02*
X1160Y180D01*
X1180Y180D02*
X1187Y180D01*
X0Y179D02*
X7Y179D01*
X740Y179D02*
X749Y179D01*
X938Y179D02*
X947Y179D01*
X1084Y179D02*
X1088Y179D01*
X1096Y179D02*
X1100Y179D01*
X1114Y179D02*
X1118Y179D01*
X1133Y179D02*
X1136Y179D01*
X1157Y179D02*
X1160Y179D01*
X1180Y179D02*
X1187Y179D01*
X0Y178D02*
X7Y178D01*
X740Y178D02*
X749Y178D01*
X938Y178D02*
X947Y178D01*
X1084Y178D02*
X1089Y178D01*
X1095Y178D02*
X1099Y178D01*
X1114Y178D02*
X1118Y178D01*
X1133Y178D02*
X1136Y178D01*
X1157Y178D02*
X1160Y178D01*
X1180Y178D02*
X1187Y178D01*
X0Y177D02*
X7Y177D01*
X740Y177D02*
X749Y177D01*
X938Y177D02*
X947Y177D01*
X1085Y177D02*
X1089Y177D01*
X1095Y177D02*
X1099Y177D01*
X1114Y177D02*
X1118Y177D01*
X1133Y177D02*
X1136Y177D01*
X1157Y177D02*
X1160Y177D01*
X1180Y177D02*
X1187Y177D01*
X0Y176D02*
X7Y176D01*
X740Y176D02*
X749Y176D01*
X938Y176D02*
X947Y176D01*
X1085Y176D02*
X1090Y176D01*
X1094Y176D02*
X1098Y176D01*
X1114Y176D02*
X1118Y176D01*
X1132Y176D02*
X1136Y176D01*
X1157Y176D02*
X1160Y176D01*
X1180Y176D02*
X1187Y176D01*
X0Y175D02*
X7Y175D01*
X740Y175D02*
X749Y175D01*
X938Y175D02*
X947Y175D01*
X1086Y175D02*
X1090Y175D01*
X1093Y175D02*
X1098Y175D01*
X1114Y175D02*
X1119Y175D01*
X1132Y175D02*
X1136Y175D01*
X1157Y175D02*
X1160Y175D01*
X1180Y175D02*
X1187Y175D01*
X0Y174D02*
X7Y174D01*
X739Y174D02*
X749Y174D01*
X938Y174D02*
X947Y174D01*
X1086Y174D02*
X1097Y174D01*
X1115Y174D02*
X1136Y174D01*
X1157Y174D02*
X1160Y174D01*
X1180Y174D02*
X1187Y174D01*
X0Y173D02*
X7Y173D01*
X739Y173D02*
X748Y173D01*
X938Y173D02*
X947Y173D01*
X1087Y173D02*
X1097Y173D01*
X1115Y173D02*
X1135Y173D01*
X1157Y173D02*
X1160Y173D01*
X1180Y173D02*
X1187Y173D01*
X0Y172D02*
X7Y172D01*
X739Y172D02*
X748Y172D01*
X938Y172D02*
X947Y172D01*
X1088Y172D02*
X1096Y172D01*
X1116Y172D02*
X1134Y172D01*
X1157Y172D02*
X1160Y172D01*
X1180Y172D02*
X1187Y172D01*
X0Y171D02*
X7Y171D01*
X739Y171D02*
X748Y171D01*
X938Y171D02*
X947Y171D01*
X1089Y171D02*
X1095Y171D01*
X1117Y171D02*
X1133Y171D01*
X1157Y171D02*
X1160Y171D01*
X1180Y171D02*
X1187Y171D01*
X0Y170D02*
X7Y170D01*
X739Y170D02*
X748Y170D01*
X939Y170D02*
X948Y170D01*
X1090Y170D02*
X1093Y170D01*
X1119Y170D02*
X1131Y170D01*
X1158Y170D02*
X1159Y170D01*
X1180Y170D02*
X1187Y170D01*
X0Y169D02*
X7Y169D01*
X739Y169D02*
X748Y169D01*
X939Y169D02*
X948Y169D01*
X1180Y169D02*
X1187Y169D01*
X0Y168D02*
X7Y168D01*
X739Y168D02*
X748Y168D01*
X939Y168D02*
X948Y168D01*
X1180Y168D02*
X1187Y168D01*
X0Y167D02*
X7Y167D01*
X739Y167D02*
X748Y167D01*
X939Y167D02*
X948Y167D01*
X1180Y167D02*
X1187Y167D01*
X0Y166D02*
X7Y166D01*
X739Y166D02*
X748Y166D01*
X939Y166D02*
X948Y166D01*
X1180Y166D02*
X1187Y166D01*
X0Y165D02*
X7Y165D01*
X739Y165D02*
X748Y165D01*
X939Y165D02*
X948Y165D01*
X1180Y165D02*
X1187Y165D01*
X0Y164D02*
X7Y164D01*
X739Y164D02*
X748Y164D01*
X939Y164D02*
X948Y164D01*
X1180Y164D02*
X1187Y164D01*
X0Y163D02*
X7Y163D01*
X739Y163D02*
X748Y163D01*
X939Y163D02*
X948Y163D01*
X1180Y163D02*
X1187Y163D01*
X0Y162D02*
X7Y162D01*
X739Y162D02*
X748Y162D01*
X939Y162D02*
X948Y162D01*
X1180Y162D02*
X1187Y162D01*
X0Y161D02*
X7Y161D01*
X739Y161D02*
X748Y161D01*
X939Y161D02*
X948Y161D01*
X1180Y161D02*
X1187Y161D01*
X0Y160D02*
X7Y160D01*
X739Y160D02*
X748Y160D01*
X939Y160D02*
X948Y160D01*
X1180Y160D02*
X1187Y160D01*
X0Y159D02*
X7Y159D01*
X20Y159D02*
X33Y159D01*
X63Y159D02*
X66Y159D01*
X739Y159D02*
X748Y159D01*
X939Y159D02*
X948Y159D01*
X1180Y159D02*
X1187Y159D01*
X0Y158D02*
X7Y158D01*
X20Y158D02*
X33Y158D01*
X61Y158D02*
X68Y158D01*
X739Y158D02*
X748Y158D01*
X939Y158D02*
X948Y158D01*
X1180Y158D02*
X1187Y158D01*
X0Y157D02*
X7Y157D01*
X20Y157D02*
X34Y157D01*
X61Y157D02*
X68Y157D01*
X739Y157D02*
X748Y157D01*
X939Y157D02*
X948Y157D01*
X1180Y157D02*
X1187Y157D01*
X0Y156D02*
X7Y156D01*
X20Y156D02*
X34Y156D01*
X60Y156D02*
X69Y156D01*
X739Y156D02*
X748Y156D01*
X938Y156D02*
X947Y156D01*
X1180Y156D02*
X1187Y156D01*
X0Y155D02*
X7Y155D01*
X20Y155D02*
X35Y155D01*
X60Y155D02*
X69Y155D01*
X739Y155D02*
X748Y155D01*
X938Y155D02*
X947Y155D01*
X1180Y155D02*
X1187Y155D01*
X0Y154D02*
X7Y154D01*
X20Y154D02*
X35Y154D01*
X60Y154D02*
X69Y154D01*
X739Y154D02*
X748Y154D01*
X938Y154D02*
X947Y154D01*
X1180Y154D02*
X1187Y154D01*
X0Y153D02*
X7Y153D01*
X20Y153D02*
X36Y153D01*
X60Y153D02*
X69Y153D01*
X739Y153D02*
X749Y153D01*
X938Y153D02*
X947Y153D01*
X1180Y153D02*
X1187Y153D01*
X0Y152D02*
X7Y152D01*
X20Y152D02*
X36Y152D01*
X60Y152D02*
X69Y152D01*
X662Y152D02*
X676Y152D01*
X740Y152D02*
X749Y152D01*
X938Y152D02*
X947Y152D01*
X1180Y152D02*
X1187Y152D01*
X0Y151D02*
X7Y151D01*
X20Y151D02*
X36Y151D01*
X60Y151D02*
X69Y151D01*
X656Y151D02*
X682Y151D01*
X740Y151D02*
X749Y151D01*
X938Y151D02*
X947Y151D01*
X1180Y151D02*
X1187Y151D01*
X0Y150D02*
X7Y150D01*
X20Y150D02*
X37Y150D01*
X60Y150D02*
X69Y150D01*
X652Y150D02*
X685Y150D01*
X740Y150D02*
X749Y150D01*
X938Y150D02*
X947Y150D01*
X1180Y150D02*
X1187Y150D01*
X0Y149D02*
X7Y149D01*
X20Y149D02*
X37Y149D01*
X60Y149D02*
X69Y149D01*
X649Y149D02*
X688Y149D01*
X740Y149D02*
X749Y149D01*
X938Y149D02*
X947Y149D01*
X1180Y149D02*
X1187Y149D01*
X0Y148D02*
X7Y148D01*
X20Y148D02*
X38Y148D01*
X60Y148D02*
X69Y148D01*
X451Y148D02*
X467Y148D01*
X647Y148D02*
X691Y148D01*
X740Y148D02*
X749Y148D01*
X938Y148D02*
X947Y148D01*
X1180Y148D02*
X1187Y148D01*
X0Y147D02*
X7Y147D01*
X20Y147D02*
X38Y147D01*
X60Y147D02*
X69Y147D01*
X446Y147D02*
X472Y147D01*
X644Y147D02*
X693Y147D01*
X740Y147D02*
X749Y147D01*
X937Y147D02*
X946Y147D01*
X1180Y147D02*
X1187Y147D01*
X0Y146D02*
X7Y146D01*
X20Y146D02*
X39Y146D01*
X60Y146D02*
X69Y146D01*
X442Y146D02*
X476Y146D01*
X642Y146D02*
X695Y146D01*
X740Y146D02*
X750Y146D01*
X937Y146D02*
X946Y146D01*
X1180Y146D02*
X1187Y146D01*
X0Y145D02*
X7Y145D01*
X20Y145D02*
X39Y145D01*
X60Y145D02*
X69Y145D01*
X439Y145D02*
X479Y145D01*
X640Y145D02*
X697Y145D01*
X741Y145D02*
X750Y145D01*
X937Y145D02*
X946Y145D01*
X1180Y145D02*
X1187Y145D01*
X0Y144D02*
X7Y144D01*
X20Y144D02*
X40Y144D01*
X60Y144D02*
X69Y144D01*
X437Y144D02*
X482Y144D01*
X639Y144D02*
X699Y144D01*
X741Y144D02*
X750Y144D01*
X937Y144D02*
X946Y144D01*
X1180Y144D02*
X1187Y144D01*
X0Y143D02*
X7Y143D01*
X20Y143D02*
X40Y143D01*
X60Y143D02*
X69Y143D01*
X434Y143D02*
X484Y143D01*
X637Y143D02*
X701Y143D01*
X741Y143D02*
X750Y143D01*
X937Y143D02*
X946Y143D01*
X1180Y143D02*
X1187Y143D01*
X0Y142D02*
X7Y142D01*
X20Y142D02*
X40Y142D01*
X60Y142D02*
X69Y142D01*
X432Y142D02*
X486Y142D01*
X635Y142D02*
X661Y142D01*
X677Y142D02*
X702Y142D01*
X741Y142D02*
X750Y142D01*
X936Y142D02*
X946Y142D01*
X1180Y142D02*
X1187Y142D01*
X0Y141D02*
X7Y141D01*
X20Y141D02*
X41Y141D01*
X60Y141D02*
X69Y141D01*
X430Y141D02*
X488Y141D01*
X634Y141D02*
X656Y141D01*
X682Y141D02*
X704Y141D01*
X741Y141D02*
X751Y141D01*
X936Y141D02*
X945Y141D01*
X1180Y141D02*
X1187Y141D01*
X0Y140D02*
X7Y140D01*
X20Y140D02*
X29Y140D01*
X31Y140D02*
X41Y140D01*
X60Y140D02*
X69Y140D01*
X429Y140D02*
X490Y140D01*
X633Y140D02*
X652Y140D01*
X686Y140D02*
X705Y140D01*
X742Y140D02*
X751Y140D01*
X936Y140D02*
X945Y140D01*
X1180Y140D02*
X1187Y140D01*
X0Y139D02*
X7Y139D01*
X20Y139D02*
X29Y139D01*
X32Y139D02*
X42Y139D01*
X60Y139D02*
X69Y139D01*
X427Y139D02*
X491Y139D01*
X631Y139D02*
X649Y139D01*
X689Y139D02*
X706Y139D01*
X742Y139D02*
X751Y139D01*
X936Y139D02*
X945Y139D01*
X1180Y139D02*
X1187Y139D01*
X0Y138D02*
X7Y138D01*
X20Y138D02*
X29Y138D01*
X32Y138D02*
X42Y138D01*
X60Y138D02*
X69Y138D01*
X426Y138D02*
X450Y138D01*
X468Y138D02*
X493Y138D01*
X630Y138D02*
X647Y138D01*
X691Y138D02*
X708Y138D01*
X742Y138D02*
X751Y138D01*
X935Y138D02*
X945Y138D01*
X1180Y138D02*
X1187Y138D01*
X0Y137D02*
X7Y137D01*
X20Y137D02*
X29Y137D01*
X33Y137D02*
X43Y137D01*
X60Y137D02*
X69Y137D01*
X424Y137D02*
X445Y137D01*
X473Y137D02*
X494Y137D01*
X629Y137D02*
X645Y137D01*
X693Y137D02*
X709Y137D01*
X742Y137D02*
X752Y137D01*
X935Y137D02*
X944Y137D01*
X1180Y137D02*
X1187Y137D01*
X0Y136D02*
X7Y136D01*
X20Y136D02*
X29Y136D01*
X33Y136D02*
X43Y136D01*
X60Y136D02*
X69Y136D01*
X423Y136D02*
X442Y136D01*
X476Y136D02*
X496Y136D01*
X628Y136D02*
X643Y136D01*
X695Y136D02*
X710Y136D01*
X743Y136D02*
X752Y136D01*
X935Y136D02*
X944Y136D01*
X1180Y136D02*
X1187Y136D01*
X0Y135D02*
X7Y135D01*
X20Y135D02*
X29Y135D01*
X33Y135D02*
X43Y135D01*
X60Y135D02*
X69Y135D01*
X421Y135D02*
X439Y135D01*
X479Y135D02*
X497Y135D01*
X627Y135D02*
X641Y135D01*
X697Y135D02*
X711Y135D01*
X743Y135D02*
X752Y135D01*
X935Y135D02*
X944Y135D01*
X1180Y135D02*
X1187Y135D01*
X0Y134D02*
X7Y134D01*
X20Y134D02*
X29Y134D01*
X34Y134D02*
X44Y134D01*
X60Y134D02*
X69Y134D01*
X420Y134D02*
X437Y134D01*
X482Y134D02*
X498Y134D01*
X626Y134D02*
X639Y134D01*
X699Y134D02*
X712Y134D01*
X743Y134D02*
X753Y134D01*
X934Y134D02*
X943Y134D01*
X1180Y134D02*
X1187Y134D01*
X0Y133D02*
X7Y133D01*
X20Y133D02*
X29Y133D01*
X34Y133D02*
X44Y133D01*
X60Y133D02*
X69Y133D01*
X419Y133D02*
X435Y133D01*
X484Y133D02*
X499Y133D01*
X625Y133D02*
X638Y133D01*
X700Y133D02*
X713Y133D01*
X744Y133D02*
X753Y133D01*
X934Y133D02*
X943Y133D01*
X1180Y133D02*
X1187Y133D01*
X0Y132D02*
X7Y132D01*
X20Y132D02*
X29Y132D01*
X35Y132D02*
X45Y132D01*
X60Y132D02*
X69Y132D01*
X418Y132D02*
X433Y132D01*
X486Y132D02*
X500Y132D01*
X624Y132D02*
X636Y132D01*
X701Y132D02*
X714Y132D01*
X744Y132D02*
X753Y132D01*
X933Y132D02*
X943Y132D01*
X1180Y132D02*
X1187Y132D01*
X0Y131D02*
X7Y131D01*
X20Y131D02*
X29Y131D01*
X35Y131D02*
X45Y131D01*
X60Y131D02*
X69Y131D01*
X417Y131D02*
X431Y131D01*
X487Y131D02*
X501Y131D01*
X623Y131D02*
X635Y131D01*
X703Y131D02*
X715Y131D01*
X744Y131D02*
X754Y131D01*
X933Y131D02*
X942Y131D01*
X1180Y131D02*
X1187Y131D01*
X0Y130D02*
X7Y130D01*
X20Y130D02*
X29Y130D01*
X36Y130D02*
X46Y130D01*
X60Y130D02*
X69Y130D01*
X416Y130D02*
X429Y130D01*
X489Y130D02*
X502Y130D01*
X622Y130D02*
X634Y130D01*
X704Y130D02*
X716Y130D01*
X745Y130D02*
X754Y130D01*
X933Y130D02*
X942Y130D01*
X1180Y130D02*
X1187Y130D01*
X0Y129D02*
X7Y129D01*
X20Y129D02*
X29Y129D01*
X36Y129D02*
X46Y129D01*
X60Y129D02*
X69Y129D01*
X415Y129D02*
X428Y129D01*
X490Y129D02*
X503Y129D01*
X621Y129D02*
X633Y129D01*
X705Y129D02*
X717Y129D01*
X745Y129D02*
X754Y129D01*
X932Y129D02*
X942Y129D01*
X1180Y129D02*
X1187Y129D01*
X0Y128D02*
X7Y128D01*
X20Y128D02*
X29Y128D01*
X36Y128D02*
X47Y128D01*
X60Y128D02*
X69Y128D01*
X414Y128D02*
X427Y128D01*
X492Y128D02*
X504Y128D01*
X620Y128D02*
X632Y128D01*
X706Y128D02*
X717Y128D01*
X745Y128D02*
X755Y128D01*
X932Y128D02*
X941Y128D01*
X1180Y128D02*
X1187Y128D01*
X0Y127D02*
X7Y127D01*
X20Y127D02*
X29Y127D01*
X37Y127D02*
X47Y127D01*
X60Y127D02*
X69Y127D01*
X413Y127D02*
X425Y127D01*
X493Y127D02*
X505Y127D01*
X620Y127D02*
X631Y127D01*
X707Y127D02*
X718Y127D01*
X746Y127D02*
X755Y127D01*
X932Y127D02*
X941Y127D01*
X1180Y127D02*
X1187Y127D01*
X0Y126D02*
X7Y126D01*
X20Y126D02*
X29Y126D01*
X37Y126D02*
X47Y126D01*
X60Y126D02*
X69Y126D01*
X412Y126D02*
X424Y126D01*
X494Y126D02*
X506Y126D01*
X619Y126D02*
X630Y126D01*
X708Y126D02*
X719Y126D01*
X746Y126D02*
X755Y126D01*
X931Y126D02*
X941Y126D01*
X1180Y126D02*
X1187Y126D01*
X0Y125D02*
X7Y125D01*
X20Y125D02*
X29Y125D01*
X38Y125D02*
X48Y125D01*
X60Y125D02*
X69Y125D01*
X411Y125D02*
X423Y125D01*
X495Y125D02*
X507Y125D01*
X618Y125D02*
X629Y125D01*
X709Y125D02*
X720Y125D01*
X746Y125D02*
X756Y125D01*
X931Y125D02*
X940Y125D01*
X1180Y125D02*
X1187Y125D01*
X0Y124D02*
X7Y124D01*
X20Y124D02*
X29Y124D01*
X38Y124D02*
X48Y124D01*
X60Y124D02*
X69Y124D01*
X411Y124D02*
X422Y124D01*
X496Y124D02*
X508Y124D01*
X618Y124D02*
X628Y124D01*
X710Y124D02*
X720Y124D01*
X747Y124D02*
X756Y124D01*
X930Y124D02*
X940Y124D01*
X1180Y124D02*
X1187Y124D01*
X0Y123D02*
X7Y123D01*
X20Y123D02*
X29Y123D01*
X39Y123D02*
X49Y123D01*
X60Y123D02*
X69Y123D01*
X410Y123D02*
X421Y123D01*
X497Y123D02*
X508Y123D01*
X617Y123D02*
X627Y123D01*
X710Y123D02*
X721Y123D01*
X747Y123D02*
X757Y123D01*
X930Y123D02*
X939Y123D01*
X1180Y123D02*
X1187Y123D01*
X0Y122D02*
X7Y122D01*
X20Y122D02*
X29Y122D01*
X39Y122D02*
X49Y122D01*
X60Y122D02*
X69Y122D01*
X409Y122D02*
X420Y122D01*
X498Y122D02*
X509Y122D01*
X616Y122D02*
X627Y122D01*
X711Y122D02*
X721Y122D01*
X748Y122D02*
X757Y122D01*
X929Y122D02*
X939Y122D01*
X1180Y122D02*
X1187Y122D01*
X0Y121D02*
X7Y121D01*
X20Y121D02*
X29Y121D01*
X40Y121D02*
X50Y121D01*
X60Y121D02*
X69Y121D01*
X408Y121D02*
X419Y121D01*
X499Y121D02*
X510Y121D01*
X616Y121D02*
X626Y121D01*
X712Y121D02*
X722Y121D01*
X748Y121D02*
X758Y121D01*
X929Y121D02*
X938Y121D01*
X1180Y121D02*
X1187Y121D01*
X0Y120D02*
X7Y120D01*
X20Y120D02*
X29Y120D01*
X40Y120D02*
X50Y120D01*
X60Y120D02*
X69Y120D01*
X408Y120D02*
X418Y120D01*
X500Y120D02*
X511Y120D01*
X615Y120D02*
X625Y120D01*
X713Y120D02*
X723Y120D01*
X749Y120D02*
X758Y120D01*
X928Y120D02*
X938Y120D01*
X1180Y120D02*
X1187Y120D01*
X0Y119D02*
X7Y119D01*
X20Y119D02*
X29Y119D01*
X40Y119D02*
X51Y119D01*
X60Y119D02*
X69Y119D01*
X407Y119D02*
X418Y119D01*
X501Y119D02*
X511Y119D01*
X615Y119D02*
X625Y119D01*
X713Y119D02*
X723Y119D01*
X749Y119D02*
X759Y119D01*
X928Y119D02*
X938Y119D01*
X1180Y119D02*
X1187Y119D01*
X0Y118D02*
X7Y118D01*
X20Y118D02*
X29Y118D01*
X41Y118D02*
X51Y118D01*
X60Y118D02*
X69Y118D01*
X407Y118D02*
X417Y118D01*
X502Y118D02*
X512Y118D01*
X614Y118D02*
X624Y118D01*
X714Y118D02*
X724Y118D01*
X750Y118D02*
X759Y118D01*
X927Y118D02*
X937Y118D01*
X1180Y118D02*
X1187Y118D01*
X0Y117D02*
X7Y117D01*
X20Y117D02*
X29Y117D01*
X41Y117D02*
X51Y117D01*
X60Y117D02*
X69Y117D01*
X406Y117D02*
X416Y117D01*
X502Y117D02*
X512Y117D01*
X614Y117D02*
X623Y117D01*
X714Y117D02*
X724Y117D01*
X750Y117D02*
X760Y117D01*
X927Y117D02*
X937Y117D01*
X1180Y117D02*
X1187Y117D01*
X0Y116D02*
X7Y116D01*
X20Y116D02*
X29Y116D01*
X42Y116D02*
X52Y116D01*
X60Y116D02*
X69Y116D01*
X405Y116D02*
X415Y116D01*
X503Y116D02*
X513Y116D01*
X613Y116D02*
X623Y116D01*
X715Y116D02*
X725Y116D01*
X751Y116D02*
X760Y116D01*
X926Y116D02*
X936Y116D01*
X1180Y116D02*
X1187Y116D01*
X0Y115D02*
X7Y115D01*
X20Y115D02*
X29Y115D01*
X42Y115D02*
X52Y115D01*
X60Y115D02*
X69Y115D01*
X405Y115D02*
X415Y115D01*
X504Y115D02*
X513Y115D01*
X613Y115D02*
X622Y115D01*
X716Y115D02*
X725Y115D01*
X751Y115D02*
X761Y115D01*
X926Y115D02*
X936Y115D01*
X1180Y115D02*
X1187Y115D01*
X0Y114D02*
X7Y114D01*
X20Y114D02*
X29Y114D01*
X43Y114D02*
X53Y114D01*
X60Y114D02*
X69Y114D01*
X404Y114D02*
X414Y114D01*
X504Y114D02*
X514Y114D01*
X612Y114D02*
X622Y114D01*
X716Y114D02*
X726Y114D01*
X752Y114D02*
X762Y114D01*
X925Y114D02*
X935Y114D01*
X1180Y114D02*
X1187Y114D01*
X0Y113D02*
X7Y113D01*
X20Y113D02*
X29Y113D01*
X43Y113D02*
X53Y113D01*
X60Y113D02*
X69Y113D01*
X404Y113D02*
X414Y113D01*
X505Y113D02*
X514Y113D01*
X612Y113D02*
X621Y113D01*
X717Y113D02*
X726Y113D01*
X752Y113D02*
X762Y113D01*
X924Y113D02*
X934Y113D01*
X1180Y113D02*
X1187Y113D01*
X0Y112D02*
X7Y112D01*
X20Y112D02*
X29Y112D01*
X44Y112D02*
X54Y112D01*
X60Y112D02*
X69Y112D01*
X403Y112D02*
X413Y112D01*
X505Y112D02*
X515Y112D01*
X611Y112D02*
X621Y112D01*
X717Y112D02*
X726Y112D01*
X753Y112D02*
X763Y112D01*
X924Y112D02*
X934Y112D01*
X1180Y112D02*
X1187Y112D01*
X0Y111D02*
X7Y111D01*
X20Y111D02*
X29Y111D01*
X44Y111D02*
X54Y111D01*
X60Y111D02*
X69Y111D01*
X403Y111D02*
X412Y111D01*
X506Y111D02*
X515Y111D01*
X611Y111D02*
X620Y111D01*
X717Y111D02*
X727Y111D01*
X753Y111D02*
X763Y111D01*
X923Y111D02*
X933Y111D01*
X1180Y111D02*
X1187Y111D01*
X0Y110D02*
X7Y110D01*
X20Y110D02*
X29Y110D01*
X44Y110D02*
X54Y110D01*
X60Y110D02*
X69Y110D01*
X402Y110D02*
X412Y110D01*
X506Y110D02*
X516Y110D01*
X611Y110D02*
X620Y110D01*
X718Y110D02*
X727Y110D01*
X754Y110D02*
X764Y110D01*
X923Y110D02*
X933Y110D01*
X1180Y110D02*
X1187Y110D01*
X0Y109D02*
X7Y109D01*
X20Y109D02*
X29Y109D01*
X45Y109D02*
X55Y109D01*
X60Y109D02*
X69Y109D01*
X402Y109D02*
X412Y109D01*
X507Y109D02*
X516Y109D01*
X610Y109D02*
X620Y109D01*
X718Y109D02*
X727Y109D01*
X755Y109D02*
X765Y109D01*
X922Y109D02*
X932Y109D01*
X1180Y109D02*
X1187Y109D01*
X0Y108D02*
X7Y108D01*
X20Y108D02*
X29Y108D01*
X45Y108D02*
X55Y108D01*
X60Y108D02*
X69Y108D01*
X402Y108D02*
X411Y108D01*
X507Y108D02*
X517Y108D01*
X610Y108D02*
X619Y108D01*
X718Y108D02*
X728Y108D01*
X755Y108D02*
X766Y108D01*
X921Y108D02*
X931Y108D01*
X1180Y108D02*
X1187Y108D01*
X0Y107D02*
X7Y107D01*
X20Y107D02*
X29Y107D01*
X46Y107D02*
X56Y107D01*
X60Y107D02*
X69Y107D01*
X401Y107D02*
X411Y107D01*
X508Y107D02*
X517Y107D01*
X610Y107D02*
X619Y107D01*
X719Y107D02*
X728Y107D01*
X756Y107D02*
X766Y107D01*
X920Y107D02*
X931Y107D01*
X1180Y107D02*
X1187Y107D01*
X0Y106D02*
X7Y106D01*
X20Y106D02*
X29Y106D01*
X46Y106D02*
X56Y106D01*
X60Y106D02*
X69Y106D01*
X401Y106D02*
X410Y106D01*
X508Y106D02*
X517Y106D01*
X610Y106D02*
X619Y106D01*
X719Y106D02*
X728Y106D01*
X757Y106D02*
X767Y106D01*
X920Y106D02*
X930Y106D01*
X1180Y106D02*
X1187Y106D01*
X0Y105D02*
X7Y105D01*
X20Y105D02*
X29Y105D01*
X47Y105D02*
X57Y105D01*
X60Y105D02*
X69Y105D01*
X401Y105D02*
X410Y105D01*
X508Y105D02*
X518Y105D01*
X609Y105D02*
X629Y105D01*
X719Y105D02*
X729Y105D01*
X757Y105D02*
X768Y105D01*
X919Y105D02*
X930Y105D01*
X1180Y105D02*
X1187Y105D01*
X0Y104D02*
X7Y104D01*
X20Y104D02*
X29Y104D01*
X47Y104D02*
X57Y104D01*
X60Y104D02*
X69Y104D01*
X400Y104D02*
X410Y104D01*
X509Y104D02*
X518Y104D01*
X609Y104D02*
X629Y104D01*
X720Y104D02*
X729Y104D01*
X758Y104D02*
X769Y104D01*
X918Y104D02*
X929Y104D01*
X1180Y104D02*
X1187Y104D01*
X0Y103D02*
X7Y103D01*
X20Y103D02*
X29Y103D01*
X47Y103D02*
X58Y103D01*
X60Y103D02*
X69Y103D01*
X400Y103D02*
X409Y103D01*
X509Y103D02*
X518Y103D01*
X610Y103D02*
X628Y103D01*
X720Y103D02*
X729Y103D01*
X759Y103D02*
X769Y103D01*
X917Y103D02*
X928Y103D01*
X1180Y103D02*
X1187Y103D01*
X0Y102D02*
X7Y102D01*
X20Y102D02*
X29Y102D01*
X48Y102D02*
X58Y102D01*
X60Y102D02*
X69Y102D01*
X400Y102D02*
X409Y102D01*
X509Y102D02*
X519Y102D01*
X610Y102D02*
X628Y102D01*
X720Y102D02*
X729Y102D01*
X759Y102D02*
X770Y102D01*
X917Y102D02*
X927Y102D01*
X1180Y102D02*
X1187Y102D01*
X0Y101D02*
X7Y101D01*
X20Y101D02*
X29Y101D01*
X48Y101D02*
X58Y101D01*
X60Y101D02*
X69Y101D01*
X399Y101D02*
X419Y101D01*
X510Y101D02*
X519Y101D01*
X610Y101D02*
X628Y101D01*
X720Y101D02*
X729Y101D01*
X760Y101D02*
X771Y101D01*
X916Y101D02*
X927Y101D01*
X1180Y101D02*
X1187Y101D01*
X0Y100D02*
X7Y100D01*
X20Y100D02*
X29Y100D01*
X49Y100D02*
X69Y100D01*
X400Y100D02*
X419Y100D01*
X510Y100D02*
X519Y100D01*
X611Y100D02*
X627Y100D01*
X721Y100D02*
X730Y100D01*
X761Y100D02*
X772Y100D01*
X915Y100D02*
X926Y100D01*
X1180Y100D02*
X1187Y100D01*
X0Y99D02*
X7Y99D01*
X20Y99D02*
X29Y99D01*
X49Y99D02*
X69Y99D01*
X400Y99D02*
X418Y99D01*
X510Y99D02*
X519Y99D01*
X611Y99D02*
X627Y99D01*
X721Y99D02*
X730Y99D01*
X762Y99D02*
X773Y99D01*
X914Y99D02*
X925Y99D01*
X1180Y99D02*
X1187Y99D01*
X0Y98D02*
X7Y98D01*
X20Y98D02*
X29Y98D01*
X50Y98D02*
X69Y98D01*
X400Y98D02*
X418Y98D01*
X510Y98D02*
X520Y98D01*
X611Y98D02*
X627Y98D01*
X721Y98D02*
X730Y98D01*
X762Y98D02*
X774Y98D01*
X913Y98D02*
X924Y98D01*
X1180Y98D02*
X1187Y98D01*
X0Y97D02*
X7Y97D01*
X20Y97D02*
X29Y97D01*
X50Y97D02*
X69Y97D01*
X401Y97D02*
X418Y97D01*
X511Y97D02*
X520Y97D01*
X611Y97D02*
X627Y97D01*
X721Y97D02*
X730Y97D01*
X763Y97D02*
X775Y97D01*
X912Y97D02*
X923Y97D01*
X1180Y97D02*
X1187Y97D01*
X0Y96D02*
X7Y96D01*
X20Y96D02*
X29Y96D01*
X51Y96D02*
X69Y96D01*
X401Y96D02*
X418Y96D01*
X511Y96D02*
X520Y96D01*
X611Y96D02*
X626Y96D01*
X721Y96D02*
X730Y96D01*
X764Y96D02*
X776Y96D01*
X911Y96D02*
X923Y96D01*
X1092Y96D02*
X1102Y96D01*
X1114Y96D02*
X1120Y96D01*
X1134Y96D02*
X1135Y96D01*
X1149Y96D02*
X1160Y96D01*
X1180Y96D02*
X1187Y96D01*
X0Y95D02*
X7Y95D01*
X20Y95D02*
X29Y95D01*
X51Y95D02*
X69Y95D01*
X401Y95D02*
X417Y95D01*
X511Y95D02*
X520Y95D01*
X612Y95D02*
X626Y95D01*
X721Y95D02*
X730Y95D01*
X765Y95D02*
X777Y95D01*
X910Y95D02*
X922Y95D01*
X1090Y95D02*
X1103Y95D01*
X1114Y95D02*
X1120Y95D01*
X1133Y95D02*
X1136Y95D01*
X1148Y95D02*
X1162Y95D01*
X1180Y95D02*
X1187Y95D01*
X0Y94D02*
X7Y94D01*
X20Y94D02*
X29Y94D01*
X51Y94D02*
X69Y94D01*
X401Y94D02*
X417Y94D01*
X511Y94D02*
X520Y94D01*
X612Y94D02*
X626Y94D01*
X721Y94D02*
X730Y94D01*
X766Y94D02*
X778Y94D01*
X909Y94D02*
X921Y94D01*
X1089Y94D02*
X1103Y94D01*
X1114Y94D02*
X1120Y94D01*
X1133Y94D02*
X1136Y94D01*
X1148Y94D02*
X1163Y94D01*
X1180Y94D02*
X1187Y94D01*
X0Y93D02*
X7Y93D01*
X20Y93D02*
X29Y93D01*
X52Y93D02*
X69Y93D01*
X402Y93D02*
X417Y93D01*
X511Y93D02*
X520Y93D01*
X612Y93D02*
X626Y93D01*
X721Y93D02*
X730Y93D01*
X767Y93D02*
X779Y93D01*
X908Y93D02*
X920Y93D01*
X1088Y93D02*
X1102Y93D01*
X1114Y93D02*
X1121Y93D01*
X1133Y93D02*
X1136Y93D01*
X1148Y93D02*
X1163Y93D01*
X1180Y93D02*
X1187Y93D01*
X0Y92D02*
X7Y92D01*
X20Y92D02*
X29Y92D01*
X52Y92D02*
X69Y92D01*
X402Y92D02*
X417Y92D01*
X511Y92D02*
X520Y92D01*
X612Y92D02*
X626Y92D01*
X721Y92D02*
X730Y92D01*
X768Y92D02*
X780Y92D01*
X907Y92D02*
X919Y92D01*
X1088Y92D02*
X1101Y92D01*
X1114Y92D02*
X1121Y92D01*
X1133Y92D02*
X1136Y92D01*
X1149Y92D02*
X1164Y92D01*
X1180Y92D02*
X1187Y92D01*
X0Y91D02*
X7Y91D01*
X20Y91D02*
X29Y91D01*
X53Y91D02*
X69Y91D01*
X402Y91D02*
X416Y91D01*
X511Y91D02*
X520Y91D01*
X612Y91D02*
X626Y91D01*
X721Y91D02*
X730Y91D01*
X769Y91D02*
X781Y91D01*
X906Y91D02*
X918Y91D01*
X1087Y91D02*
X1092Y91D01*
X1114Y91D02*
X1122Y91D01*
X1133Y91D02*
X1136Y91D01*
X1152Y91D02*
X1156Y91D01*
X1160Y91D02*
X1165Y91D01*
X1180Y91D02*
X1187Y91D01*
X0Y90D02*
X7Y90D01*
X20Y90D02*
X29Y90D01*
X53Y90D02*
X69Y90D01*
X402Y90D02*
X416Y90D01*
X511Y90D02*
X520Y90D01*
X612Y90D02*
X626Y90D01*
X721Y90D02*
X730Y90D01*
X770Y90D02*
X782Y90D01*
X904Y90D02*
X917Y90D01*
X1086Y90D02*
X1091Y90D01*
X1114Y90D02*
X1122Y90D01*
X1133Y90D02*
X1136Y90D01*
X1152Y90D02*
X1156Y90D01*
X1161Y90D02*
X1165Y90D01*
X1180Y90D02*
X1187Y90D01*
X0Y89D02*
X7Y89D01*
X20Y89D02*
X29Y89D01*
X54Y89D02*
X69Y89D01*
X402Y89D02*
X416Y89D01*
X512Y89D02*
X521Y89D01*
X612Y89D02*
X626Y89D01*
X721Y89D02*
X730Y89D01*
X771Y89D02*
X784Y89D01*
X903Y89D02*
X916Y89D01*
X1085Y89D02*
X1090Y89D01*
X1114Y89D02*
X1123Y89D01*
X1133Y89D02*
X1136Y89D01*
X1152Y89D02*
X1156Y89D01*
X1161Y89D02*
X1166Y89D01*
X1180Y89D02*
X1187Y89D01*
X0Y88D02*
X7Y88D01*
X20Y88D02*
X29Y88D01*
X54Y88D02*
X69Y88D01*
X402Y88D02*
X416Y88D01*
X512Y88D02*
X521Y88D01*
X612Y88D02*
X626Y88D01*
X721Y88D02*
X730Y88D01*
X772Y88D02*
X785Y88D01*
X902Y88D02*
X915Y88D01*
X1085Y88D02*
X1089Y88D01*
X1114Y88D02*
X1123Y88D01*
X1133Y88D02*
X1136Y88D01*
X1152Y88D02*
X1156Y88D01*
X1162Y88D02*
X1166Y88D01*
X1180Y88D02*
X1187Y88D01*
X0Y87D02*
X7Y87D01*
X20Y87D02*
X29Y87D01*
X54Y87D02*
X69Y87D01*
X402Y87D02*
X416Y87D01*
X512Y87D02*
X521Y87D01*
X612Y87D02*
X626Y87D01*
X721Y87D02*
X730Y87D01*
X773Y87D02*
X786Y87D01*
X900Y87D02*
X914Y87D01*
X1084Y87D02*
X1089Y87D01*
X1114Y87D02*
X1124Y87D01*
X1133Y87D02*
X1136Y87D01*
X1152Y87D02*
X1156Y87D01*
X1162Y87D02*
X1167Y87D01*
X1180Y87D02*
X1187Y87D01*
X0Y86D02*
X7Y86D01*
X21Y86D02*
X29Y86D01*
X55Y86D02*
X69Y86D01*
X402Y86D02*
X416Y86D01*
X512Y86D02*
X521Y86D01*
X612Y86D02*
X626Y86D01*
X721Y86D02*
X730Y86D01*
X774Y86D02*
X788Y86D01*
X899Y86D02*
X913Y86D01*
X1083Y86D02*
X1088Y86D01*
X1114Y86D02*
X1118Y86D01*
X1120Y86D02*
X1124Y86D01*
X1133Y86D02*
X1136Y86D01*
X1152Y86D02*
X1156Y86D01*
X1163Y86D02*
X1167Y86D01*
X1180Y86D02*
X1187Y86D01*
X0Y85D02*
X7Y85D01*
X21Y85D02*
X29Y85D01*
X55Y85D02*
X69Y85D01*
X402Y85D02*
X416Y85D01*
X512Y85D02*
X521Y85D01*
X611Y85D02*
X626Y85D01*
X721Y85D02*
X730Y85D01*
X775Y85D02*
X789Y85D01*
X898Y85D02*
X912Y85D01*
X1082Y85D02*
X1087Y85D01*
X1114Y85D02*
X1118Y85D01*
X1120Y85D02*
X1124Y85D01*
X1133Y85D02*
X1136Y85D01*
X1152Y85D02*
X1156Y85D01*
X1163Y85D02*
X1168Y85D01*
X1180Y85D02*
X1187Y85D01*
X0Y84D02*
X7Y84D01*
X21Y84D02*
X28Y84D01*
X56Y84D02*
X69Y84D01*
X402Y84D02*
X416Y84D01*
X511Y84D02*
X520Y84D01*
X611Y84D02*
X627Y84D01*
X721Y84D02*
X730Y84D01*
X776Y84D02*
X791Y84D01*
X896Y84D02*
X911Y84D01*
X1082Y84D02*
X1086Y84D01*
X1114Y84D02*
X1118Y84D01*
X1121Y84D02*
X1125Y84D01*
X1133Y84D02*
X1136Y84D01*
X1152Y84D02*
X1156Y84D01*
X1164Y84D02*
X1168Y84D01*
X1180Y84D02*
X1187Y84D01*
X0Y83D02*
X7Y83D01*
X22Y83D02*
X27Y83D01*
X56Y83D02*
X69Y83D01*
X402Y83D02*
X416Y83D01*
X511Y83D02*
X520Y83D01*
X611Y83D02*
X627Y83D01*
X721Y83D02*
X730Y83D01*
X777Y83D02*
X792Y83D01*
X894Y83D02*
X909Y83D01*
X1081Y83D02*
X1086Y83D01*
X1114Y83D02*
X1118Y83D01*
X1121Y83D02*
X1125Y83D01*
X1133Y83D02*
X1136Y83D01*
X1152Y83D02*
X1156Y83D01*
X1164Y83D02*
X1169Y83D01*
X1180Y83D02*
X1187Y83D01*
X0Y82D02*
X7Y82D01*
X25Y82D02*
X25Y82D01*
X57Y82D02*
X69Y82D01*
X402Y82D02*
X417Y82D01*
X511Y82D02*
X520Y82D01*
X611Y82D02*
X627Y82D01*
X721Y82D02*
X730Y82D01*
X779Y82D02*
X794Y82D01*
X893Y82D02*
X908Y82D01*
X1081Y82D02*
X1085Y82D01*
X1114Y82D02*
X1118Y82D01*
X1122Y82D02*
X1126Y82D01*
X1133Y82D02*
X1136Y82D01*
X1152Y82D02*
X1156Y82D01*
X1165Y82D02*
X1169Y82D01*
X1180Y82D02*
X1187Y82D01*
X0Y81D02*
X7Y81D01*
X402Y81D02*
X417Y81D01*
X511Y81D02*
X520Y81D01*
X610Y81D02*
X627Y81D01*
X720Y81D02*
X729Y81D01*
X780Y81D02*
X796Y81D01*
X891Y81D02*
X907Y81D01*
X1081Y81D02*
X1085Y81D01*
X1114Y81D02*
X1118Y81D01*
X1122Y81D02*
X1126Y81D01*
X1133Y81D02*
X1136Y81D01*
X1152Y81D02*
X1156Y81D01*
X1165Y81D02*
X1169Y81D01*
X1180Y81D02*
X1187Y81D01*
X0Y80D02*
X7Y80D01*
X401Y80D02*
X417Y80D01*
X511Y80D02*
X520Y80D01*
X610Y80D02*
X628Y80D01*
X720Y80D02*
X729Y80D01*
X781Y80D02*
X797Y80D01*
X889Y80D02*
X906Y80D01*
X1081Y80D02*
X1084Y80D01*
X1114Y80D02*
X1118Y80D01*
X1122Y80D02*
X1127Y80D01*
X1133Y80D02*
X1136Y80D01*
X1152Y80D02*
X1156Y80D01*
X1166Y80D02*
X1169Y80D01*
X1180Y80D02*
X1187Y80D01*
X0Y79D02*
X7Y79D01*
X401Y79D02*
X417Y79D01*
X511Y79D02*
X520Y79D01*
X610Y79D02*
X628Y79D01*
X720Y79D02*
X729Y79D01*
X783Y79D02*
X799Y79D01*
X887Y79D02*
X904Y79D01*
X1081Y79D02*
X1084Y79D01*
X1114Y79D02*
X1118Y79D01*
X1123Y79D02*
X1127Y79D01*
X1133Y79D02*
X1136Y79D01*
X1152Y79D02*
X1156Y79D01*
X1166Y79D02*
X1170Y79D01*
X1180Y79D02*
X1187Y79D01*
X0Y78D02*
X7Y78D01*
X401Y78D02*
X417Y78D01*
X511Y78D02*
X520Y78D01*
X610Y78D02*
X628Y78D01*
X720Y78D02*
X729Y78D01*
X784Y78D02*
X801Y78D01*
X885Y78D02*
X903Y78D01*
X1081Y78D02*
X1084Y78D01*
X1114Y78D02*
X1118Y78D01*
X1123Y78D02*
X1127Y78D01*
X1133Y78D02*
X1136Y78D01*
X1152Y78D02*
X1156Y78D01*
X1166Y78D02*
X1170Y78D01*
X1180Y78D02*
X1187Y78D01*
X0Y77D02*
X7Y77D01*
X401Y77D02*
X418Y77D01*
X511Y77D02*
X520Y77D01*
X609Y77D02*
X629Y77D01*
X720Y77D02*
X729Y77D01*
X785Y77D02*
X804Y77D01*
X883Y77D02*
X902Y77D01*
X1081Y77D02*
X1084Y77D01*
X1114Y77D02*
X1118Y77D01*
X1124Y77D02*
X1128Y77D01*
X1133Y77D02*
X1136Y77D01*
X1152Y77D02*
X1156Y77D01*
X1166Y77D02*
X1170Y77D01*
X1180Y77D02*
X1187Y77D01*
X0Y76D02*
X7Y76D01*
X400Y76D02*
X418Y76D01*
X511Y76D02*
X520Y76D01*
X609Y76D02*
X629Y76D01*
X719Y76D02*
X728Y76D01*
X787Y76D02*
X806Y76D01*
X881Y76D02*
X900Y76D01*
X1081Y76D02*
X1084Y76D01*
X1093Y76D02*
X1103Y76D01*
X1114Y76D02*
X1118Y76D01*
X1124Y76D02*
X1128Y76D01*
X1133Y76D02*
X1136Y76D01*
X1152Y76D02*
X1156Y76D01*
X1165Y76D02*
X1169Y76D01*
X1180Y76D02*
X1187Y76D01*
X0Y75D02*
X7Y75D01*
X400Y75D02*
X418Y75D01*
X510Y75D02*
X519Y75D01*
X610Y75D02*
X619Y75D01*
X719Y75D02*
X728Y75D01*
X788Y75D02*
X809Y75D01*
X878Y75D02*
X898Y75D01*
X1081Y75D02*
X1084Y75D01*
X1092Y75D02*
X1103Y75D01*
X1114Y75D02*
X1118Y75D01*
X1125Y75D02*
X1129Y75D01*
X1133Y75D02*
X1136Y75D01*
X1152Y75D02*
X1156Y75D01*
X1165Y75D02*
X1169Y75D01*
X1180Y75D02*
X1187Y75D01*
X0Y74D02*
X7Y74D01*
X400Y74D02*
X419Y74D01*
X510Y74D02*
X519Y74D01*
X610Y74D02*
X619Y74D01*
X719Y74D02*
X728Y74D01*
X790Y74D02*
X811Y74D01*
X875Y74D02*
X897Y74D01*
X1081Y74D02*
X1084Y74D01*
X1092Y74D02*
X1103Y74D01*
X1114Y74D02*
X1118Y74D01*
X1125Y74D02*
X1129Y74D01*
X1133Y74D02*
X1136Y74D01*
X1152Y74D02*
X1156Y74D01*
X1164Y74D02*
X1169Y74D01*
X1180Y74D02*
X1187Y74D01*
X0Y73D02*
X7Y73D01*
X399Y73D02*
X419Y73D01*
X510Y73D02*
X519Y73D01*
X610Y73D02*
X619Y73D01*
X718Y73D02*
X728Y73D01*
X792Y73D02*
X814Y73D01*
X873Y73D02*
X895Y73D01*
X1081Y73D02*
X1084Y73D01*
X1093Y73D02*
X1103Y73D01*
X1114Y73D02*
X1118Y73D01*
X1126Y73D02*
X1130Y73D01*
X1133Y73D02*
X1136Y73D01*
X1152Y73D02*
X1156Y73D01*
X1164Y73D02*
X1168Y73D01*
X1180Y73D02*
X1187Y73D01*
X0Y72D02*
X7Y72D01*
X399Y72D02*
X419Y72D01*
X510Y72D02*
X519Y72D01*
X610Y72D02*
X620Y72D01*
X718Y72D02*
X727Y72D01*
X793Y72D02*
X818Y72D01*
X869Y72D02*
X893Y72D01*
X1081Y72D02*
X1084Y72D01*
X1099Y72D02*
X1103Y72D01*
X1114Y72D02*
X1118Y72D01*
X1126Y72D02*
X1130Y72D01*
X1133Y72D02*
X1136Y72D01*
X1152Y72D02*
X1156Y72D01*
X1163Y72D02*
X1168Y72D01*
X1180Y72D02*
X1187Y72D01*
X0Y71D02*
X7Y71D01*
X400Y71D02*
X409Y71D01*
X509Y71D02*
X518Y71D01*
X611Y71D02*
X620Y71D01*
X718Y71D02*
X727Y71D01*
X795Y71D02*
X822Y71D01*
X865Y71D02*
X892Y71D01*
X1081Y71D02*
X1084Y71D01*
X1099Y71D02*
X1103Y71D01*
X1114Y71D02*
X1118Y71D01*
X1126Y71D02*
X1131Y71D01*
X1133Y71D02*
X1136Y71D01*
X1152Y71D02*
X1156Y71D01*
X1163Y71D02*
X1167Y71D01*
X1180Y71D02*
X1187Y71D01*
X0Y70D02*
X7Y70D01*
X400Y70D02*
X409Y70D01*
X509Y70D02*
X518Y70D01*
X611Y70D02*
X621Y70D01*
X717Y70D02*
X727Y70D01*
X797Y70D02*
X827Y70D01*
X860Y70D02*
X890Y70D01*
X1081Y70D02*
X1084Y70D01*
X1099Y70D02*
X1103Y70D01*
X1114Y70D02*
X1118Y70D01*
X1127Y70D02*
X1131Y70D01*
X1133Y70D02*
X1136Y70D01*
X1152Y70D02*
X1156Y70D01*
X1162Y70D02*
X1167Y70D01*
X1180Y70D02*
X1187Y70D01*
X0Y69D02*
X7Y69D01*
X400Y69D02*
X410Y69D01*
X509Y69D02*
X518Y69D01*
X612Y69D02*
X621Y69D01*
X717Y69D02*
X726Y69D01*
X799Y69D02*
X835Y69D01*
X851Y69D02*
X887Y69D01*
X1081Y69D02*
X1084Y69D01*
X1099Y69D02*
X1103Y69D01*
X1114Y69D02*
X1118Y69D01*
X1127Y69D02*
X1136Y69D01*
X1152Y69D02*
X1156Y69D01*
X1162Y69D02*
X1166Y69D01*
X1180Y69D02*
X1187Y69D01*
X0Y68D02*
X7Y68D01*
X401Y68D02*
X410Y68D01*
X508Y68D02*
X518Y68D01*
X612Y68D02*
X621Y68D01*
X716Y68D02*
X726Y68D01*
X801Y68D02*
X885Y68D01*
X1081Y68D02*
X1084Y68D01*
X1099Y68D02*
X1103Y68D01*
X1114Y68D02*
X1118Y68D01*
X1128Y68D02*
X1136Y68D01*
X1152Y68D02*
X1156Y68D01*
X1161Y68D02*
X1166Y68D01*
X1180Y68D02*
X1187Y68D01*
X0Y67D02*
X7Y67D01*
X401Y67D02*
X410Y67D01*
X508Y67D02*
X517Y67D01*
X612Y67D02*
X622Y67D01*
X716Y67D02*
X725Y67D01*
X803Y67D02*
X883Y67D01*
X1081Y67D02*
X1085Y67D01*
X1099Y67D02*
X1103Y67D01*
X1114Y67D02*
X1118Y67D01*
X1128Y67D02*
X1136Y67D01*
X1152Y67D02*
X1156Y67D01*
X1161Y67D02*
X1165Y67D01*
X1180Y67D02*
X1187Y67D01*
X0Y66D02*
X7Y66D01*
X402Y66D02*
X411Y66D01*
X507Y66D02*
X517Y66D01*
X613Y66D02*
X622Y66D01*
X715Y66D02*
X725Y66D01*
X806Y66D02*
X881Y66D01*
X1081Y66D02*
X1085Y66D01*
X1099Y66D02*
X1103Y66D01*
X1114Y66D02*
X1118Y66D01*
X1129Y66D02*
X1136Y66D01*
X1152Y66D02*
X1156Y66D01*
X1160Y66D02*
X1165Y66D01*
X1180Y66D02*
X1187Y66D01*
X0Y65D02*
X7Y65D01*
X402Y65D02*
X411Y65D01*
X507Y65D02*
X516Y65D01*
X613Y65D02*
X623Y65D01*
X715Y65D02*
X724Y65D01*
X808Y65D02*
X878Y65D01*
X1081Y65D02*
X1102Y65D01*
X1114Y65D02*
X1118Y65D01*
X1129Y65D02*
X1136Y65D01*
X1150Y65D02*
X1164Y65D01*
X1180Y65D02*
X1187Y65D01*
X0Y64D02*
X7Y64D01*
X402Y64D02*
X412Y64D01*
X507Y64D02*
X516Y64D01*
X614Y64D02*
X624Y64D01*
X714Y64D02*
X724Y64D01*
X811Y64D02*
X875Y64D01*
X1082Y64D02*
X1102Y64D01*
X1114Y64D02*
X1118Y64D01*
X1129Y64D02*
X1136Y64D01*
X1148Y64D02*
X1164Y64D01*
X1180Y64D02*
X1187Y64D01*
X0Y63D02*
X7Y63D01*
X403Y63D02*
X412Y63D01*
X506Y63D02*
X516Y63D01*
X614Y63D02*
X624Y63D01*
X714Y63D02*
X723Y63D01*
X815Y63D02*
X872Y63D01*
X1082Y63D02*
X1101Y63D01*
X1114Y63D02*
X1118Y63D01*
X1130Y63D02*
X1136Y63D01*
X1148Y63D02*
X1163Y63D01*
X1180Y63D02*
X1187Y63D01*
X0Y62D02*
X7Y62D01*
X403Y62D02*
X413Y62D01*
X506Y62D02*
X515Y62D01*
X615Y62D02*
X625Y62D01*
X713Y62D02*
X723Y62D01*
X818Y62D02*
X869Y62D01*
X1083Y62D02*
X1100Y62D01*
X1114Y62D02*
X1118Y62D01*
X1130Y62D02*
X1136Y62D01*
X1148Y62D02*
X1162Y62D01*
X1180Y62D02*
X1187Y62D01*
X0Y61D02*
X7Y61D01*
X404Y61D02*
X413Y61D01*
X505Y61D02*
X515Y61D01*
X615Y61D02*
X625Y61D01*
X712Y61D02*
X722Y61D01*
X822Y61D02*
X864Y61D01*
X1085Y61D02*
X1099Y61D01*
X1115Y61D02*
X1117Y61D01*
X1131Y61D02*
X1136Y61D01*
X1149Y61D02*
X1160Y61D01*
X1180Y61D02*
X1187Y61D01*
X0Y60D02*
X7Y60D01*
X404Y60D02*
X414Y60D01*
X504Y60D02*
X514Y60D01*
X616Y60D02*
X626Y60D01*
X712Y60D02*
X722Y60D01*
X828Y60D02*
X859Y60D01*
X1180Y60D02*
X1187Y60D01*
X0Y59D02*
X7Y59D01*
X405Y59D02*
X414Y59D01*
X504Y59D02*
X514Y59D01*
X617Y59D02*
X627Y59D01*
X711Y59D02*
X721Y59D01*
X837Y59D02*
X850Y59D01*
X1180Y59D02*
X1187Y59D01*
X0Y58D02*
X7Y58D01*
X405Y58D02*
X415Y58D01*
X503Y58D02*
X513Y58D01*
X617Y58D02*
X628Y58D01*
X710Y58D02*
X721Y58D01*
X1180Y58D02*
X1187Y58D01*
X0Y57D02*
X7Y57D01*
X406Y57D02*
X416Y57D01*
X503Y57D02*
X513Y57D01*
X618Y57D02*
X628Y57D01*
X709Y57D02*
X720Y57D01*
X1180Y57D02*
X1187Y57D01*
X0Y56D02*
X7Y56D01*
X406Y56D02*
X417Y56D01*
X502Y56D02*
X512Y56D01*
X619Y56D02*
X629Y56D01*
X708Y56D02*
X719Y56D01*
X1180Y56D02*
X1187Y56D01*
X0Y55D02*
X7Y55D01*
X407Y55D02*
X417Y55D01*
X501Y55D02*
X511Y55D01*
X619Y55D02*
X630Y55D01*
X708Y55D02*
X719Y55D01*
X1180Y55D02*
X1187Y55D01*
X0Y54D02*
X7Y54D01*
X408Y54D02*
X418Y54D01*
X500Y54D02*
X511Y54D01*
X620Y54D02*
X631Y54D01*
X707Y54D02*
X718Y54D01*
X1180Y54D02*
X1187Y54D01*
X0Y53D02*
X7Y53D01*
X408Y53D02*
X419Y53D01*
X499Y53D02*
X510Y53D01*
X621Y53D02*
X632Y53D01*
X706Y53D02*
X717Y53D01*
X776Y53D02*
X793Y53D01*
X841Y53D02*
X853Y53D01*
X907Y53D02*
X928Y53D01*
X1180Y53D02*
X1187Y53D01*
X0Y52D02*
X7Y52D01*
X409Y52D02*
X420Y52D01*
X499Y52D02*
X509Y52D01*
X622Y52D02*
X633Y52D01*
X704Y52D02*
X716Y52D01*
X774Y52D02*
X794Y52D01*
X840Y52D02*
X853Y52D01*
X907Y52D02*
X929Y52D01*
X1180Y52D02*
X1187Y52D01*
X0Y51D02*
X7Y51D01*
X410Y51D02*
X421Y51D01*
X498Y51D02*
X509Y51D01*
X622Y51D02*
X634Y51D01*
X703Y51D02*
X715Y51D01*
X774Y51D02*
X795Y51D01*
X840Y51D02*
X853Y51D01*
X907Y51D02*
X929Y51D01*
X1180Y51D02*
X1187Y51D01*
X0Y50D02*
X7Y50D01*
X337Y50D02*
X339Y50D01*
X379Y50D02*
X390Y50D01*
X410Y50D02*
X425Y50D01*
X497Y50D02*
X508Y50D01*
X623Y50D02*
X636Y50D01*
X702Y50D02*
X714Y50D01*
X773Y50D02*
X795Y50D01*
X841Y50D02*
X853Y50D01*
X907Y50D02*
X928Y50D01*
X1180Y50D02*
X1187Y50D01*
X0Y49D02*
X7Y49D01*
X336Y49D02*
X341Y49D01*
X377Y49D02*
X392Y49D01*
X408Y49D02*
X427Y49D01*
X441Y49D02*
X441Y49D01*
X496Y49D02*
X507Y49D01*
X576Y49D02*
X579Y49D01*
X596Y49D02*
X613Y49D01*
X624Y49D02*
X644Y49D01*
X661Y49D02*
X661Y49D01*
X701Y49D02*
X714Y49D01*
X773Y49D02*
X777Y49D01*
X791Y49D02*
X795Y49D01*
X849Y49D02*
X853Y49D01*
X907Y49D02*
X911Y49D01*
X1180Y49D02*
X1187Y49D01*
X0Y48D02*
X7Y48D01*
X335Y48D02*
X343Y48D01*
X375Y48D02*
X393Y48D01*
X407Y48D02*
X428Y48D01*
X441Y48D02*
X443Y48D01*
X495Y48D02*
X506Y48D01*
X562Y48D02*
X581Y48D01*
X594Y48D02*
X615Y48D01*
X625Y48D02*
X646Y48D01*
X659Y48D02*
X662Y48D01*
X699Y48D02*
X713Y48D01*
X773Y48D02*
X777Y48D01*
X792Y48D02*
X795Y48D01*
X849Y48D02*
X853Y48D01*
X907Y48D02*
X911Y48D01*
X1180Y48D02*
X1187Y48D01*
X0Y47D02*
X7Y47D01*
X336Y47D02*
X346Y47D01*
X373Y47D02*
X393Y47D01*
X406Y47D02*
X429Y47D01*
X441Y47D02*
X445Y47D01*
X493Y47D02*
X506Y47D01*
X561Y47D02*
X582Y47D01*
X594Y47D02*
X615Y47D01*
X626Y47D02*
X647Y47D01*
X659Y47D02*
X663Y47D01*
X698Y47D02*
X712Y47D01*
X773Y47D02*
X777Y47D01*
X792Y47D02*
X795Y47D01*
X849Y47D02*
X853Y47D01*
X907Y47D02*
X911Y47D01*
X1180Y47D02*
X1187Y47D01*
X0Y46D02*
X7Y46D01*
X336Y46D02*
X349Y46D01*
X371Y46D02*
X394Y46D01*
X406Y46D02*
X429Y46D01*
X441Y46D02*
X445Y46D01*
X492Y46D02*
X505Y46D01*
X562Y46D02*
X582Y46D01*
X594Y46D02*
X615Y46D01*
X627Y46D02*
X648Y46D01*
X659Y46D02*
X663Y46D01*
X696Y46D02*
X711Y46D01*
X773Y46D02*
X777Y46D01*
X792Y46D02*
X795Y46D01*
X849Y46D02*
X853Y46D01*
X907Y46D02*
X911Y46D01*
X1180Y46D02*
X1187Y46D01*
X0Y45D02*
X7Y45D01*
X371Y45D02*
X375Y45D01*
X390Y45D02*
X394Y45D01*
X406Y45D02*
X410Y45D01*
X415Y45D02*
X429Y45D01*
X441Y45D02*
X445Y45D01*
X491Y45D02*
X504Y45D01*
X562Y45D02*
X583Y45D01*
X594Y45D02*
X615Y45D01*
X627Y45D02*
X648Y45D01*
X659Y45D02*
X663Y45D01*
X695Y45D02*
X710Y45D01*
X773Y45D02*
X777Y45D01*
X792Y45D02*
X795Y45D01*
X849Y45D02*
X853Y45D01*
X907Y45D02*
X911Y45D01*
X1180Y45D02*
X1187Y45D01*
X0Y44D02*
X7Y44D01*
X355Y44D02*
X359Y44D01*
X371Y44D02*
X375Y44D01*
X390Y44D02*
X394Y44D01*
X406Y44D02*
X410Y44D01*
X416Y44D02*
X429Y44D01*
X441Y44D02*
X445Y44D01*
X490Y44D02*
X503Y44D01*
X579Y44D02*
X583Y44D01*
X594Y44D02*
X597Y44D01*
X612Y44D02*
X615Y44D01*
X626Y44D02*
X648Y44D01*
X659Y44D02*
X663Y44D01*
X692Y44D02*
X708Y44D01*
X773Y44D02*
X777Y44D01*
X792Y44D02*
X795Y44D01*
X849Y44D02*
X853Y44D01*
X907Y44D02*
X911Y44D01*
X1180Y44D02*
X1187Y44D01*
X0Y43D02*
X7Y43D01*
X355Y43D02*
X359Y43D01*
X371Y43D02*
X375Y43D01*
X390Y43D02*
X394Y43D01*
X406Y43D02*
X410Y43D01*
X416Y43D02*
X430Y43D01*
X441Y43D02*
X445Y43D01*
X488Y43D02*
X502Y43D01*
X579Y43D02*
X583Y43D01*
X594Y43D02*
X597Y43D01*
X612Y43D02*
X615Y43D01*
X626Y43D02*
X648Y43D01*
X659Y43D02*
X663Y43D01*
X690Y43D02*
X707Y43D01*
X773Y43D02*
X777Y43D01*
X792Y43D02*
X795Y43D01*
X849Y43D02*
X853Y43D01*
X874Y43D02*
X877Y43D01*
X892Y43D02*
X895Y43D01*
X907Y43D02*
X911Y43D01*
X1180Y43D02*
X1187Y43D01*
X0Y42D02*
X7Y42D01*
X355Y42D02*
X359Y42D01*
X371Y42D02*
X375Y42D01*
X390Y42D02*
X394Y42D01*
X406Y42D02*
X410Y42D01*
X418Y42D02*
X432Y42D01*
X441Y42D02*
X445Y42D01*
X486Y42D02*
X501Y42D01*
X579Y42D02*
X583Y42D01*
X594Y42D02*
X597Y42D01*
X612Y42D02*
X615Y42D01*
X626Y42D02*
X630Y42D01*
X632Y42D02*
X650Y42D01*
X659Y42D02*
X663Y42D01*
X688Y42D02*
X706Y42D01*
X773Y42D02*
X777Y42D01*
X792Y42D02*
X795Y42D01*
X849Y42D02*
X853Y42D01*
X874Y42D02*
X877Y42D01*
X892Y42D02*
X895Y42D01*
X907Y42D02*
X911Y42D01*
X1180Y42D02*
X1187Y42D01*
X0Y41D02*
X7Y41D01*
X355Y41D02*
X359Y41D01*
X371Y41D02*
X375Y41D01*
X390Y41D02*
X394Y41D01*
X406Y41D02*
X410Y41D01*
X419Y41D02*
X434Y41D01*
X441Y41D02*
X445Y41D01*
X485Y41D02*
X500Y41D01*
X579Y41D02*
X583Y41D01*
X594Y41D02*
X597Y41D01*
X612Y41D02*
X615Y41D01*
X626Y41D02*
X630Y41D01*
X633Y41D02*
X653Y41D01*
X659Y41D02*
X663Y41D01*
X685Y41D02*
X705Y41D01*
X773Y41D02*
X777Y41D01*
X792Y41D02*
X795Y41D01*
X849Y41D02*
X853Y41D01*
X873Y41D02*
X877Y41D01*
X892Y41D02*
X896Y41D01*
X907Y41D02*
X924Y41D01*
X1180Y41D02*
X1187Y41D01*
X0Y40D02*
X7Y40D01*
X355Y40D02*
X359Y40D01*
X371Y40D02*
X375Y40D01*
X390Y40D02*
X394Y40D01*
X406Y40D02*
X410Y40D01*
X420Y40D02*
X436Y40D01*
X441Y40D02*
X445Y40D01*
X482Y40D02*
X499Y40D01*
X579Y40D02*
X583Y40D01*
X594Y40D02*
X597Y40D01*
X612Y40D02*
X615Y40D01*
X626Y40D02*
X630Y40D01*
X635Y40D02*
X657Y40D01*
X659Y40D02*
X663Y40D01*
X681Y40D02*
X703Y40D01*
X773Y40D02*
X777Y40D01*
X792Y40D02*
X795Y40D01*
X849Y40D02*
X853Y40D01*
X874Y40D02*
X877Y40D01*
X892Y40D02*
X896Y40D01*
X907Y40D02*
X924Y40D01*
X1180Y40D02*
X1187Y40D01*
X0Y39D02*
X7Y39D01*
X355Y39D02*
X359Y39D01*
X371Y39D02*
X375Y39D01*
X390Y39D02*
X394Y39D01*
X406Y39D02*
X410Y39D01*
X421Y39D02*
X438Y39D01*
X441Y39D02*
X445Y39D01*
X458Y39D02*
X461Y39D01*
X480Y39D02*
X497Y39D01*
X579Y39D02*
X583Y39D01*
X594Y39D02*
X597Y39D01*
X612Y39D02*
X615Y39D01*
X626Y39D02*
X630Y39D01*
X636Y39D02*
X665Y39D01*
X673Y39D02*
X702Y39D01*
X773Y39D02*
X777Y39D01*
X792Y39D02*
X795Y39D01*
X849Y39D02*
X853Y39D01*
X874Y39D02*
X877Y39D01*
X892Y39D02*
X896Y39D01*
X907Y39D02*
X924Y39D01*
X1180Y39D02*
X1187Y39D01*
X0Y38D02*
X7Y38D01*
X355Y38D02*
X359Y38D01*
X371Y38D02*
X375Y38D01*
X390Y38D02*
X394Y38D01*
X406Y38D02*
X410Y38D01*
X422Y38D02*
X445Y38D01*
X457Y38D02*
X462Y38D01*
X478Y38D02*
X496Y38D01*
X579Y38D02*
X583Y38D01*
X594Y38D02*
X597Y38D01*
X612Y38D02*
X615Y38D01*
X626Y38D02*
X630Y38D01*
X638Y38D02*
X700Y38D01*
X773Y38D02*
X777Y38D01*
X792Y38D02*
X795Y38D01*
X849Y38D02*
X853Y38D01*
X874Y38D02*
X877Y38D01*
X892Y38D02*
X896Y38D01*
X907Y38D02*
X924Y38D01*
X1180Y38D02*
X1187Y38D01*
X0Y37D02*
X7Y37D01*
X355Y37D02*
X359Y37D01*
X371Y37D02*
X375Y37D01*
X390Y37D02*
X394Y37D01*
X406Y37D02*
X410Y37D01*
X424Y37D02*
X445Y37D01*
X456Y37D02*
X462Y37D01*
X475Y37D02*
X495Y37D01*
X579Y37D02*
X583Y37D01*
X594Y37D02*
X615Y37D01*
X626Y37D02*
X630Y37D01*
X639Y37D02*
X699Y37D01*
X773Y37D02*
X777Y37D01*
X792Y37D02*
X795Y37D01*
X849Y37D02*
X853Y37D01*
X874Y37D02*
X877Y37D01*
X892Y37D02*
X896Y37D01*
X907Y37D02*
X911Y37D01*
X1180Y37D02*
X1187Y37D01*
X0Y36D02*
X7Y36D01*
X355Y36D02*
X359Y36D01*
X371Y36D02*
X375Y36D01*
X390Y36D02*
X394Y36D01*
X406Y36D02*
X410Y36D01*
X425Y36D02*
X448Y36D01*
X455Y36D02*
X461Y36D01*
X470Y36D02*
X493Y36D01*
X579Y36D02*
X583Y36D01*
X594Y36D02*
X615Y36D01*
X626Y36D02*
X630Y36D01*
X641Y36D02*
X697Y36D01*
X773Y36D02*
X777Y36D01*
X792Y36D02*
X795Y36D01*
X849Y36D02*
X853Y36D01*
X874Y36D02*
X877Y36D01*
X892Y36D02*
X896Y36D01*
X907Y36D02*
X911Y36D01*
X1180Y36D02*
X1187Y36D01*
X0Y35D02*
X7Y35D01*
X355Y35D02*
X359Y35D01*
X371Y35D02*
X375Y35D01*
X390Y35D02*
X394Y35D01*
X406Y35D02*
X410Y35D01*
X425Y35D02*
X492Y35D01*
X579Y35D02*
X583Y35D01*
X594Y35D02*
X615Y35D01*
X626Y35D02*
X630Y35D01*
X643Y35D02*
X695Y35D01*
X773Y35D02*
X777Y35D01*
X792Y35D02*
X795Y35D01*
X849Y35D02*
X853Y35D01*
X874Y35D02*
X877Y35D01*
X892Y35D02*
X896Y35D01*
X907Y35D02*
X911Y35D01*
X1180Y35D02*
X1187Y35D01*
X0Y34D02*
X7Y34D01*
X355Y34D02*
X359Y34D01*
X371Y34D02*
X375Y34D01*
X390Y34D02*
X394Y34D01*
X406Y34D02*
X410Y34D01*
X425Y34D02*
X490Y34D01*
X578Y34D02*
X582Y34D01*
X594Y34D02*
X615Y34D01*
X626Y34D02*
X630Y34D01*
X644Y34D02*
X693Y34D01*
X773Y34D02*
X777Y34D01*
X792Y34D02*
X795Y34D01*
X849Y34D02*
X853Y34D01*
X860Y34D02*
X860Y34D01*
X874Y34D02*
X877Y34D01*
X892Y34D02*
X896Y34D01*
X907Y34D02*
X911Y34D01*
X1180Y34D02*
X1187Y34D01*
X0Y33D02*
X7Y33D01*
X338Y33D02*
X359Y33D01*
X371Y33D02*
X375Y33D01*
X390Y33D02*
X394Y33D01*
X406Y33D02*
X410Y33D01*
X425Y33D02*
X489Y33D01*
X566Y33D02*
X582Y33D01*
X611Y33D02*
X615Y33D01*
X626Y33D02*
X630Y33D01*
X644Y33D02*
X690Y33D01*
X773Y33D02*
X777Y33D01*
X792Y33D02*
X795Y33D01*
X849Y33D02*
X853Y33D01*
X859Y33D02*
X862Y33D01*
X874Y33D02*
X877Y33D01*
X892Y33D02*
X896Y33D01*
X907Y33D02*
X911Y33D01*
X1180Y33D02*
X1187Y33D01*
X0Y32D02*
X7Y32D01*
X337Y32D02*
X358Y32D01*
X371Y32D02*
X375Y32D01*
X390Y32D02*
X394Y32D01*
X406Y32D02*
X410Y32D01*
X425Y32D02*
X429Y32D01*
X432Y32D02*
X487Y32D01*
X566Y32D02*
X581Y32D01*
X612Y32D02*
X615Y32D01*
X626Y32D02*
X630Y32D01*
X644Y32D02*
X648Y32D01*
X650Y32D02*
X687Y32D01*
X773Y32D02*
X777Y32D01*
X792Y32D02*
X795Y32D01*
X815Y32D02*
X820Y32D01*
X849Y32D02*
X853Y32D01*
X858Y32D02*
X862Y32D01*
X874Y32D02*
X877Y32D01*
X892Y32D02*
X896Y32D01*
X907Y32D02*
X911Y32D01*
X1180Y32D02*
X1187Y32D01*
X0Y31D02*
X7Y31D01*
X336Y31D02*
X358Y31D01*
X371Y31D02*
X375Y31D01*
X390Y31D02*
X394Y31D01*
X406Y31D02*
X410Y31D01*
X425Y31D02*
X429Y31D01*
X434Y31D02*
X485Y31D01*
X566Y31D02*
X581Y31D01*
X612Y31D02*
X615Y31D01*
X626Y31D02*
X630Y31D01*
X644Y31D02*
X648Y31D01*
X654Y31D02*
X684Y31D01*
X773Y31D02*
X777Y31D01*
X792Y31D02*
X795Y31D01*
X814Y31D02*
X821Y31D01*
X849Y31D02*
X853Y31D01*
X858Y31D02*
X862Y31D01*
X874Y31D02*
X877Y31D01*
X892Y31D02*
X896Y31D01*
X907Y31D02*
X911Y31D01*
X1180Y31D02*
X1187Y31D01*
X0Y30D02*
X7Y30D01*
X336Y30D02*
X357Y30D01*
X371Y30D02*
X375Y30D01*
X390Y30D02*
X394Y30D01*
X406Y30D02*
X410Y30D01*
X425Y30D02*
X429Y30D01*
X436Y30D02*
X483Y30D01*
X567Y30D02*
X582Y30D01*
X612Y30D02*
X615Y30D01*
X626Y30D02*
X630Y30D01*
X644Y30D02*
X648Y30D01*
X658Y30D02*
X680Y30D01*
X773Y30D02*
X777Y30D01*
X792Y30D02*
X795Y30D01*
X814Y30D02*
X822Y30D01*
X849Y30D02*
X853Y30D01*
X858Y30D02*
X862Y30D01*
X874Y30D02*
X878Y30D01*
X892Y30D02*
X896Y30D01*
X907Y30D02*
X911Y30D01*
X1180Y30D02*
X1187Y30D01*
X0Y29D02*
X7Y29D01*
X335Y29D02*
X355Y29D01*
X371Y29D02*
X375Y29D01*
X390Y29D02*
X394Y29D01*
X406Y29D02*
X410Y29D01*
X425Y29D02*
X429Y29D01*
X438Y29D02*
X480Y29D01*
X578Y29D02*
X582Y29D01*
X612Y29D02*
X615Y29D01*
X626Y29D02*
X630Y29D01*
X644Y29D02*
X648Y29D01*
X659Y29D02*
X671Y29D01*
X773Y29D02*
X777Y29D01*
X792Y29D02*
X795Y29D01*
X813Y29D02*
X822Y29D01*
X849Y29D02*
X853Y29D01*
X858Y29D02*
X862Y29D01*
X874Y29D02*
X878Y29D01*
X892Y29D02*
X896Y29D01*
X907Y29D02*
X911Y29D01*
X1180Y29D02*
X1187Y29D01*
X0Y28D02*
X7Y28D01*
X335Y28D02*
X339Y28D01*
X371Y28D02*
X375Y28D01*
X390Y28D02*
X394Y28D01*
X406Y28D02*
X410Y28D01*
X425Y28D02*
X429Y28D01*
X441Y28D02*
X477Y28D01*
X579Y28D02*
X583Y28D01*
X612Y28D02*
X615Y28D01*
X626Y28D02*
X630Y28D01*
X644Y28D02*
X648Y28D01*
X659Y28D02*
X669Y28D01*
X773Y28D02*
X777Y28D01*
X792Y28D02*
X795Y28D01*
X813Y28D02*
X822Y28D01*
X849Y28D02*
X853Y28D01*
X858Y28D02*
X862Y28D01*
X874Y28D02*
X878Y28D01*
X892Y28D02*
X896Y28D01*
X907Y28D02*
X911Y28D01*
X1180Y28D02*
X1187Y28D01*
X0Y27D02*
X7Y27D01*
X335Y27D02*
X339Y27D01*
X371Y27D02*
X375Y27D01*
X390Y27D02*
X394Y27D01*
X406Y27D02*
X410Y27D01*
X425Y27D02*
X429Y27D01*
X441Y27D02*
X474Y27D01*
X579Y27D02*
X583Y27D01*
X612Y27D02*
X615Y27D01*
X626Y27D02*
X630Y27D01*
X644Y27D02*
X648Y27D01*
X659Y27D02*
X669Y27D01*
X773Y27D02*
X777Y27D01*
X792Y27D02*
X795Y27D01*
X813Y27D02*
X822Y27D01*
X849Y27D02*
X853Y27D01*
X858Y27D02*
X862Y27D01*
X874Y27D02*
X878Y27D01*
X892Y27D02*
X896Y27D01*
X907Y27D02*
X911Y27D01*
X1180Y27D02*
X1187Y27D01*
X0Y26D02*
X7Y26D01*
X335Y26D02*
X339Y26D01*
X371Y26D02*
X375Y26D01*
X390Y26D02*
X394Y26D01*
X406Y26D02*
X410Y26D01*
X425Y26D02*
X429Y26D01*
X441Y26D02*
X469Y26D01*
X579Y26D02*
X583Y26D01*
X612Y26D02*
X615Y26D01*
X626Y26D02*
X630Y26D01*
X644Y26D02*
X648Y26D01*
X659Y26D02*
X670Y26D01*
X773Y26D02*
X777Y26D01*
X792Y26D02*
X795Y26D01*
X813Y26D02*
X822Y26D01*
X849Y26D02*
X853Y26D01*
X858Y26D02*
X862Y26D01*
X874Y26D02*
X878Y26D01*
X890Y26D02*
X896Y26D01*
X907Y26D02*
X911Y26D01*
X1180Y26D02*
X1187Y26D01*
X0Y25D02*
X7Y25D01*
X335Y25D02*
X339Y25D01*
X371Y25D02*
X375Y25D01*
X390Y25D02*
X394Y25D01*
X406Y25D02*
X410Y25D01*
X425Y25D02*
X429Y25D01*
X441Y25D02*
X454Y25D01*
X459Y25D02*
X459Y25D01*
X579Y25D02*
X583Y25D01*
X612Y25D02*
X615Y25D01*
X626Y25D02*
X630Y25D01*
X644Y25D02*
X648Y25D01*
X659Y25D02*
X671Y25D01*
X773Y25D02*
X777Y25D01*
X792Y25D02*
X795Y25D01*
X814Y25D02*
X822Y25D01*
X849Y25D02*
X853Y25D01*
X858Y25D02*
X862Y25D01*
X874Y25D02*
X878Y25D01*
X888Y25D02*
X896Y25D01*
X907Y25D02*
X911Y25D01*
X1180Y25D02*
X1187Y25D01*
X0Y24D02*
X7Y24D01*
X335Y24D02*
X339Y24D01*
X371Y24D02*
X375Y24D01*
X390Y24D02*
X394Y24D01*
X406Y24D02*
X410Y24D01*
X425Y24D02*
X429Y24D01*
X441Y24D02*
X455Y24D01*
X579Y24D02*
X583Y24D01*
X612Y24D02*
X615Y24D01*
X626Y24D02*
X630Y24D01*
X644Y24D02*
X648Y24D01*
X659Y24D02*
X664Y24D01*
X667Y24D02*
X673Y24D01*
X773Y24D02*
X777Y24D01*
X792Y24D02*
X795Y24D01*
X815Y24D02*
X821Y24D01*
X849Y24D02*
X853Y24D01*
X858Y24D02*
X862Y24D01*
X874Y24D02*
X878Y24D01*
X887Y24D02*
X896Y24D01*
X907Y24D02*
X911Y24D01*
X1180Y24D02*
X1187Y24D01*
X0Y23D02*
X7Y23D01*
X335Y23D02*
X339Y23D01*
X371Y23D02*
X375Y23D01*
X390Y23D02*
X394Y23D01*
X406Y23D02*
X410Y23D01*
X425Y23D02*
X429Y23D01*
X441Y23D02*
X446Y23D01*
X449Y23D02*
X456Y23D01*
X579Y23D02*
X583Y23D01*
X612Y23D02*
X615Y23D01*
X626Y23D02*
X630Y23D01*
X644Y23D02*
X648Y23D01*
X659Y23D02*
X663Y23D01*
X668Y23D02*
X674Y23D01*
X773Y23D02*
X777Y23D01*
X792Y23D02*
X795Y23D01*
X849Y23D02*
X853Y23D01*
X858Y23D02*
X862Y23D01*
X874Y23D02*
X878Y23D01*
X885Y23D02*
X896Y23D01*
X907Y23D02*
X911Y23D01*
X1180Y23D02*
X1187Y23D01*
X0Y22D02*
X7Y22D01*
X335Y22D02*
X339Y22D01*
X371Y22D02*
X375Y22D01*
X390Y22D02*
X394Y22D01*
X406Y22D02*
X410Y22D01*
X425Y22D02*
X429Y22D01*
X441Y22D02*
X445Y22D01*
X451Y22D02*
X457Y22D01*
X579Y22D02*
X583Y22D01*
X612Y22D02*
X615Y22D01*
X626Y22D02*
X630Y22D01*
X644Y22D02*
X648Y22D01*
X659Y22D02*
X663Y22D01*
X669Y22D02*
X675Y22D01*
X773Y22D02*
X795Y22D01*
X841Y22D02*
X862Y22D01*
X875Y22D02*
X896Y22D01*
X907Y22D02*
X911Y22D01*
X1180Y22D02*
X1187Y22D01*
X0Y21D02*
X7Y21D01*
X335Y21D02*
X339Y21D01*
X371Y21D02*
X375Y21D01*
X390Y21D02*
X394Y21D01*
X406Y21D02*
X410Y21D01*
X425Y21D02*
X429Y21D01*
X441Y21D02*
X445Y21D01*
X452Y21D02*
X458Y21D01*
X579Y21D02*
X583Y21D01*
X612Y21D02*
X615Y21D01*
X626Y21D02*
X630Y21D01*
X644Y21D02*
X648Y21D01*
X659Y21D02*
X663Y21D01*
X670Y21D02*
X676Y21D01*
X773Y21D02*
X795Y21D01*
X840Y21D02*
X862Y21D01*
X875Y21D02*
X890Y21D01*
X892Y21D02*
X896Y21D01*
X907Y21D02*
X911Y21D01*
X1180Y21D02*
X1187Y21D01*
X0Y20D02*
X7Y20D01*
X335Y20D02*
X339Y20D01*
X371Y20D02*
X375Y20D01*
X390Y20D02*
X394Y20D01*
X406Y20D02*
X410Y20D01*
X425Y20D02*
X429Y20D01*
X441Y20D02*
X445Y20D01*
X453Y20D02*
X459Y20D01*
X579Y20D02*
X583Y20D01*
X612Y20D02*
X615Y20D01*
X626Y20D02*
X630Y20D01*
X644Y20D02*
X648Y20D01*
X659Y20D02*
X663Y20D01*
X671Y20D02*
X677Y20D01*
X774Y20D02*
X794Y20D01*
X840Y20D02*
X862Y20D01*
X876Y20D02*
X888Y20D01*
X892Y20D02*
X895Y20D01*
X907Y20D02*
X911Y20D01*
X1180Y20D02*
X1187Y20D01*
X0Y19D02*
X7Y19D01*
X335Y19D02*
X339Y19D01*
X371Y19D02*
X375Y19D01*
X390Y19D02*
X394Y19D01*
X406Y19D02*
X410Y19D01*
X425Y19D02*
X429Y19D01*
X441Y19D02*
X445Y19D01*
X454Y19D02*
X461Y19D01*
X579Y19D02*
X583Y19D01*
X612Y19D02*
X615Y19D01*
X626Y19D02*
X630Y19D01*
X644Y19D02*
X648Y19D01*
X659Y19D02*
X663Y19D01*
X672Y19D02*
X678Y19D01*
X775Y19D02*
X794Y19D01*
X840Y19D02*
X862Y19D01*
X877Y19D02*
X887Y19D01*
X892Y19D02*
X895Y19D01*
X907Y19D02*
X910Y19D01*
X1180Y19D02*
X1187Y19D01*
X0Y18D02*
X7Y18D01*
X335Y18D02*
X339Y18D01*
X371Y18D02*
X375Y18D01*
X390Y18D02*
X394Y18D01*
X406Y18D02*
X410Y18D01*
X425Y18D02*
X429Y18D01*
X441Y18D02*
X445Y18D01*
X455Y18D02*
X462Y18D01*
X562Y18D02*
X583Y18D01*
X610Y18D02*
X615Y18D01*
X627Y18D02*
X648Y18D01*
X659Y18D02*
X663Y18D01*
X674Y18D02*
X680Y18D01*
X776Y18D02*
X792Y18D01*
X841Y18D02*
X861Y18D01*
X879Y18D02*
X885Y18D01*
X893Y18D02*
X894Y18D01*
X908Y18D02*
X909Y18D01*
X1180Y18D02*
X1187Y18D01*
X0Y17D02*
X7Y17D01*
X335Y17D02*
X357Y17D01*
X371Y17D02*
X394Y17D01*
X406Y17D02*
X429Y17D01*
X441Y17D02*
X445Y17D01*
X456Y17D02*
X463Y17D01*
X562Y17D02*
X582Y17D01*
X610Y17D02*
X615Y17D01*
X627Y17D02*
X648Y17D01*
X659Y17D02*
X663Y17D01*
X675Y17D02*
X680Y17D01*
X1180Y17D02*
X1187Y17D01*
X0Y16D02*
X7Y16D01*
X335Y16D02*
X358Y16D01*
X371Y16D02*
X394Y16D01*
X406Y16D02*
X429Y16D01*
X441Y16D02*
X445Y16D01*
X458Y16D02*
X464Y16D01*
X561Y16D02*
X582Y16D01*
X610Y16D02*
X615Y16D01*
X627Y16D02*
X647Y16D01*
X659Y16D02*
X663Y16D01*
X676Y16D02*
X680Y16D01*
X1180Y16D02*
X1187Y16D01*
X0Y15D02*
X7Y15D01*
X335Y15D02*
X359Y15D01*
X371Y15D02*
X393Y15D01*
X406Y15D02*
X428Y15D01*
X441Y15D02*
X445Y15D01*
X459Y15D02*
X464Y15D01*
X562Y15D02*
X581Y15D01*
X610Y15D02*
X615Y15D01*
X628Y15D02*
X646Y15D01*
X659Y15D02*
X662Y15D01*
X677Y15D02*
X680Y15D01*
X1180Y15D02*
X1187Y15D01*
X0Y14D02*
X7Y14D01*
X335Y14D02*
X358Y14D01*
X372Y14D02*
X393Y14D01*
X407Y14D02*
X428Y14D01*
X441Y14D02*
X445Y14D01*
X460Y14D02*
X464Y14D01*
X1180Y14D02*
X1187Y14D01*
X0Y13D02*
X7Y13D01*
X335Y13D02*
X358Y13D01*
X373Y13D02*
X391Y13D01*
X408Y13D02*
X426Y13D01*
X442Y13D02*
X444Y13D01*
X461Y13D02*
X463Y13D01*
X1180Y13D02*
X1187Y13D01*
X0Y12D02*
X7Y12D01*
X1180Y12D02*
X1187Y12D01*
X0Y11D02*
X7Y11D01*
X1180Y11D02*
X1187Y11D01*
X0Y10D02*
X7Y10D01*
X1180Y10D02*
X1187Y10D01*
X0Y9D02*
X1187Y9D01*
X0Y8D02*
X1187Y8D01*
X0Y7D02*
X1187Y7D01*
X0Y6D02*
X1187Y6D01*
X0Y5D02*
X1187Y5D01*
X0Y4D02*
X1187Y4D01*
X0Y3D02*
X1187Y3D01*
X0Y2D02*
X1187Y2D01*
D02*
G04 End of Silk1*
M02*