G04 MADE WITH FRITZING*
G04 WWW.FRITZING.ORG*
G04 DOUBLE SIDED*
G04 HOLES PLATED*
G04 CONTOUR ON CENTER OF CONTOUR VECTOR*
%ASAXBY*%
%FSLAX23Y23*%
%MOIN*%
%OFA0B0*%
%SFA1.0B1.0*%
%ADD10C,0.080000*%
%ADD11C,0.075000*%
%ADD12C,0.078000*%
%ADD13R,0.080000X0.080000*%
%ADD14R,0.075000X0.075000*%
%ADD15C,0.016000*%
%LNCOPPER1*%
G90*
G70*
G54D10*
X211Y123D03*
X211Y261D03*
G54D11*
X460Y86D03*
X360Y86D03*
X675Y224D03*
X375Y224D03*
X675Y324D03*
X375Y324D03*
G54D12*
X1015Y282D03*
X1015Y182D03*
X1015Y82D03*
G54D11*
X845Y212D03*
X845Y112D03*
X670Y89D03*
X570Y89D03*
G54D13*
X211Y123D03*
G54D14*
X675Y224D03*
X845Y212D03*
G54D15*
X990Y282D02*
X754Y282D01*
D02*
X754Y282D02*
X754Y31D01*
D02*
X754Y31D02*
X144Y29D01*
D02*
X144Y29D02*
X146Y353D01*
D02*
X146Y353D02*
X257Y353D01*
D02*
X257Y353D02*
X359Y241D01*
D02*
X992Y173D02*
X866Y121D01*
D02*
X236Y117D02*
X338Y91D01*
D02*
X652Y224D02*
X510Y223D01*
D02*
X510Y223D02*
X395Y153D01*
D02*
X395Y153D02*
X325Y153D01*
D02*
X325Y153D02*
X230Y244D01*
G04 End of Copper1*
M02*