<?xml version="1.0" encoding="UTF-8"?>
<!DOCTYPE svg PUBLIC "-//W3C//DTD SVG 1.1//EN" "http://www.w3.org/Graphics/SVG/1.1/DTD/svg11.dtd">
<!-- Creator: CorelDRAW X6 -->
<svg xmlns="http://www.w3.org/2000/svg" xml:space="preserve" width="2.56906in" height="1.2198in" version="1.1" shape-rendering="geometricPrecision" text-rendering="geometricPrecision" image-rendering="optimizeQuality" fill-rule="evenodd" clip-rule="evenodd"
viewBox="0 0 2569 1220"
 xmlns:xlink="http://www.w3.org/1999/xlink">
 <g id="board">
  <metadata id="CorelCorpID_0Corel-Layer"/>
  <path id="boardoutline" fill="#FEFEFE" fill-rule="nonzero" fill-opacity="0.501961" d="M123 5l2322 0c66,0 118,53 118,119l0 944c0,66 -53,119 -118,119l-2322 0c-66,0 -118,-53 -118,-119l0 -944c0,-66 53,-119 118,-119zm0 0z"/>
  <polygon fill="#373435" fill-opacity="0.200000" points="1497,984 1773,984 1773,1220 1497,1220 "/>
  <polygon fill="#373435" fill-opacity="0.200000" points="1993,984 2269,984 2269,1220 1993,1220 "/>
  <polygon fill="#373435" fill-opacity="0.200000" points="292,931 694,931 694,1218 292,1218 "/>
  <polygon fill="#373435" fill-opacity="0.200000" points="513,285 41,285 41,757 513,757 "/>
  <g id="_898434400">
   <g>
    <polygon fill="#373435" fill-opacity="0.200000" points="285,44 2284,44 2284,241 285,241 "/>
    <path fill="#373435" fill-opacity="0.200000" d="M362 192c0,-16 -13,-29 -28,-29 -16,0 -29,13 -29,29 0,15 13,28 29,28 15,0 28,-13 28,-28zm-9 0c0,-11 -9,-20 -19,-20 -11,0 -20,9 -20,20 0,10 9,19 20,19 10,0 19,-9 19,-19zm9 -100c0,-16 -13,-29 -28,-29 -16,0 -29,13 -29,29 0,15 13,28 29,28 15,0 28,-13 28,-28zm-9 0c0,-11 -9,-20 -19,-20 -11,0 -20,9 -20,20 0,10 9,19 20,19 10,0 19,-9 19,-19zm209 100c0,-16 -13,-29 -28,-29 -16,0 -29,13 -29,29 0,15 13,28 29,28 15,0 28,-13 28,-28zm-9 0c0,-11 -9,-20 -19,-20 -11,0 -20,9 -20,20 0,10 9,19 20,19 10,0 19,-9 19,-19zm-91 0c0,-16 -13,-29 -28,-29 -16,0 -29,13 -29,29 0,15 13,28 29,28 15,0 28,-13 28,-28zm-9 0c0,-11 -9,-20 -19,-20 -11,0 -20,9 -20,20 0,10 9,19 20,19 10,0 19,-9 19,-19zm9 -100c0,-16 -13,-29 -28,-29 -16,0 -29,13 -29,29 0,15 13,28 29,28 15,0 28,-13 28,-28zm-9 0c0,-11 -9,-20 -19,-20 -11,0 -20,9 -20,20 0,10 9,19 20,19 10,0 19,-9 19,-19zm209 100c0,-16 -13,-29 -28,-29 -16,0 -29,13 -29,29 0,15 13,28 29,28 15,0 28,-13 28,-28zm-9 0c0,-11 -9,-20 -19,-20 -11,0 -20,9 -20,20 0,10 9,19 20,19 10,0 19,-9 19,-19zm109 -100c0,-16 -13,-29 -28,-29 -16,0 -29,13 -29,29 0,15 13,28 29,28 15,0 28,-13 28,-28zm-9 0c0,-11 -9,-20 -19,-20 -11,0 -20,9 -20,20 0,10 9,19 20,19 10,0 19,-9 19,-19zm-91 0c0,-16 -13,-29 -28,-29 -16,0 -29,13 -29,29 0,15 13,28 29,28 15,0 28,-13 28,-28zm-9 0c0,-11 -9,-20 -19,-20 -11,0 -20,9 -20,20 0,10 9,19 20,19 10,0 19,-9 19,-19zm209 100c0,-16 -13,-29 -28,-29 -16,0 -29,13 -29,29 0,15 13,28 29,28 15,0 28,-13 28,-28zm-9 0c0,-11 -9,-20 -19,-20 -11,0 -20,9 -20,20 0,10 9,19 20,19 10,0 19,-9 19,-19zm9 -100c0,-16 -13,-29 -28,-29 -16,0 -29,13 -29,29 0,15 13,28 29,28 15,0 28,-13 28,-28zm-9 0c0,-11 -9,-20 -19,-20 -11,0 -20,9 -20,20 0,10 9,19 20,19 10,0 19,-9 19,-19zm208 100c0,-16 -13,-29 -28,-29 -16,0 -29,13 -29,29 0,15 13,28 29,28 15,0 28,-13 28,-28zm-9 0c0,-11 -9,-20 -19,-20 -11,0 -20,9 -20,20 0,10 9,19 20,19 10,0 19,-9 19,-19zm-90 0c0,-16 -13,-29 -28,-29 -16,0 -29,13 -29,29 0,15 13,28 29,28 15,0 28,-13 28,-28zm-9 0c0,-11 -9,-20 -19,-20 -11,0 -20,9 -20,20 0,10 9,19 20,19 10,0 19,-9 19,-19zm108 -100c0,-16 -13,-29 -28,-29 -16,0 -29,13 -29,29 0,15 13,28 29,28 15,0 28,-13 28,-28zm-9 0c0,-11 -9,-20 -19,-20 -11,0 -20,9 -20,20 0,10 9,19 20,19 10,0 19,-9 19,-19zm109 100c0,-16 -13,-29 -28,-29 -16,0 -29,13 -29,29 0,15 13,28 29,28 15,0 28,-13 28,-28zm-9 0c0,-11 -9,-20 -19,-20 -11,0 -20,9 -20,20 0,10 9,19 20,19 10,0 19,-9 19,-19zm9 -100c0,-16 -13,-29 -28,-29 -16,0 -29,13 -29,29 0,15 13,28 29,28 15,0 28,-13 28,-28zm-9 0c0,-11 -9,-20 -19,-20 -11,0 -20,9 -20,20 0,10 9,19 20,19 10,0 19,-9 19,-19zm209 100c0,-16 -13,-29 -28,-29 -16,0 -29,13 -29,29 0,15 13,28 29,28 15,0 28,-13 28,-28zm-9 0c0,-11 -9,-20 -19,-20 -11,0 -20,9 -20,20 0,10 9,19 20,19 10,0 19,-9 19,-19zm-91 0c0,-16 -13,-29 -28,-29 -16,0 -29,13 -29,29 0,15 13,28 29,28 15,0 28,-13 28,-28zm-9 0c0,-11 -9,-20 -19,-20 -11,0 -20,9 -20,20 0,10 9,19 20,19 10,0 19,-9 19,-19zm109 -100c0,-16 -13,-29 -28,-29 -16,0 -29,13 -29,29 0,15 13,28 29,28 15,0 28,-13 28,-28zm-9 0c0,-11 -9,-20 -19,-20 -11,0 -20,9 -20,20 0,10 9,19 20,19 10,0 19,-9 19,-19zm109 100c0,-16 -13,-29 -28,-29 -16,0 -29,13 -29,29 0,15 13,28 29,28 15,0 28,-13 28,-28zm-9 0c0,-11 -9,-20 -19,-20 -11,0 -20,9 -20,20 0,10 9,19 20,19 10,0 19,-9 19,-19zm109 -100c0,-16 -13,-29 -28,-29 -16,0 -29,13 -29,29 0,15 13,28 29,28 15,0 28,-13 28,-28zm-9 0c0,-11 -9,-20 -19,-20 -11,0 -20,9 -20,20 0,10 9,19 20,19 10,0 19,-9 19,-19zm-91 0c0,-16 -13,-29 -28,-29 -16,0 -29,13 -29,29 0,15 13,28 29,28 15,0 28,-13 28,-28zm-9 0c0,-11 -9,-20 -19,-20 -11,0 -20,9 -20,20 0,10 9,19 20,19 10,0 19,-9 19,-19zm209 100c0,-16 -13,-29 -28,-29 -16,0 -29,13 -29,29 0,15 13,28 29,28 15,0 28,-13 28,-28zm-9 0c0,-11 -9,-20 -19,-20 -11,0 -20,9 -20,20 0,10 9,19 20,19 10,0 19,-9 19,-19zm9 -100c0,-16 -13,-29 -28,-29 -16,0 -29,13 -29,29 0,15 13,28 29,28 15,0 28,-13 28,-28zm-9 0c0,-11 -9,-20 -19,-20 -11,0 -20,9 -20,20 0,10 9,19 20,19 10,0 19,-9 19,-19zm209 100c0,-16 -13,-29 -28,-29 -16,0 -29,13 -29,29 0,15 13,28 29,28 15,0 28,-13 28,-28zm-9 0c0,-11 -9,-20 -19,-20 -11,0 -20,9 -20,20 0,10 9,19 20,19 10,0 19,-9 19,-19zm-91 0c0,-16 -13,-29 -28,-29 -16,0 -29,13 -29,29 0,15 13,28 29,28 15,0 28,-13 28,-28zm-9 0c0,-11 -9,-20 -19,-20 -11,0 -20,9 -20,20 0,10 9,19 20,19 10,0 19,-9 19,-19zm109 -100c0,-16 -13,-29 -28,-29 -16,0 -29,13 -29,29 0,15 13,28 29,28 15,0 28,-13 28,-28zm-9 0c0,-11 -9,-20 -19,-20 -11,0 -20,9 -20,20 0,10 9,19 20,19 10,0 19,-9 19,-19zm109 100c0,-16 -13,-29 -28,-29 -16,0 -29,13 -29,29 0,15 13,28 29,28 15,0 28,-13 28,-28zm-9 0c0,-11 -9,-20 -19,-20 -11,0 -20,9 -20,20 0,10 9,19 20,19 10,0 19,-9 19,-19zm209 0c0,-16 -13,-29 -28,-29 -16,0 -29,13 -29,29 0,15 13,28 29,28 15,0 28,-13 28,-28zm-9 0c0,-11 -9,-20 -19,-20 -11,0 -20,9 -20,20 0,10 9,19 20,19 10,0 19,-9 19,-19zm-91 0c0,-16 -13,-29 -28,-29 -16,0 -29,13 -29,29 0,15 13,28 29,28 15,0 28,-13 28,-28zm-9 0c0,-11 -9,-20 -19,-20 -11,0 -20,9 -20,20 0,10 9,19 20,19 10,0 19,-9 19,-19zm109 -100c0,-16 -13,-29 -28,-29 -16,0 -29,13 -29,29 0,15 13,28 29,28 15,0 28,-13 28,-28zm-9 0c0,-11 -9,-20 -19,-20 -11,0 -20,9 -20,20 0,10 9,19 20,19 10,0 19,-9 19,-19zm-91 0c0,-16 -13,-29 -28,-29 -16,0 -29,13 -29,29 0,15 13,28 29,28 15,0 28,-13 28,-28zm-9 0c0,-11 -9,-20 -19,-20 -11,0 -20,9 -20,20 0,10 9,19 20,19 10,0 19,-9 19,-19zm209 0c0,-16 -13,-29 -28,-29 -16,0 -29,13 -29,29 0,15 13,28 29,28 15,0 28,-13 28,-28zm-9 0c0,-11 -9,-20 -19,-20 -11,0 -20,9 -20,20 0,10 9,19 20,19 10,0 19,-9 19,-19zm-991 0c0,-16 -13,-29 -28,-29 -16,0 -29,13 -29,29 0,15 13,28 29,28 15,0 28,-13 28,-28zm-9 0c0,-11 -9,-20 -19,-20 -11,0 -20,9 -20,20 0,10 9,19 20,19 10,0 19,-9 19,-19zm309 100c0,-16 -13,-29 -28,-29 -16,0 -29,13 -29,29 0,15 13,28 29,28 15,0 28,-13 28,-28zm-9 0c0,-11 -9,-20 -19,-20 -11,0 -20,9 -20,20 0,10 9,19 20,19 10,0 19,-9 19,-19zm209 -100c0,-16 -13,-29 -28,-29 -16,0 -29,13 -29,29 0,15 13,28 29,28 15,0 28,-13 28,-28zm-9 0c0,-11 -9,-20 -19,-20 -11,0 -20,9 -20,20 0,10 9,19 20,19 10,0 19,-9 19,-19zm209 0c0,-16 -13,-29 -28,-29 -16,0 -29,13 -29,29 0,15 13,28 29,28 15,0 28,-13 28,-28zm-9 0c0,-11 -9,-20 -19,-20 -11,0 -20,9 -20,20 0,10 9,19 20,19 10,0 19,-9 19,-19zm309 100c0,-16 -13,-29 -28,-29 -16,0 -29,13 -29,29 0,15 13,28 29,28 15,0 28,-13 28,-28zm-9 0c0,-11 -9,-20 -19,-20 -11,0 -20,9 -20,20 0,10 9,19 20,19 10,0 19,-9 19,-19zm-1690 -100c0,-16 -13,-29 -28,-29 -16,0 -29,13 -29,29 0,15 13,28 29,28 15,0 28,-13 28,-28zm-9 0c0,-11 -9,-20 -19,-20 -11,0 -20,9 -20,20 0,10 9,19 20,19 10,0 19,-9 19,-19zm209 100c0,-16 -13,-29 -28,-29 -16,0 -29,13 -29,29 0,15 13,28 29,28 15,0 28,-13 28,-28zm-9 0c0,-11 -9,-20 -19,-20 -11,0 -20,9 -20,20 0,10 9,19 20,19 10,0 19,-9 19,-19zm209 -100c0,-16 -13,-29 -28,-29 -16,0 -29,13 -29,29 0,15 13,28 29,28 15,0 28,-13 28,-28zm-9 0c0,-11 -9,-20 -19,-20 -11,0 -20,9 -20,20 0,10 9,19 20,19 10,0 19,-9 19,-19z"/>
   </g>
   <line fill="none" stroke="#FEFEFE" stroke-width="6.94488" stroke-linecap="round" x1="1245" y1="143" x2="1324" y2= "143" />
   <line fill="none" stroke="#FEFEFE" stroke-width="6.94488" stroke-linecap="round" x1="1285" y1="123" x2="1285" y2= "162" />
  </g>
  <path fill="#373435" fill-opacity="0.200000" d="M253 143c0,-61 -49,-111 -110,-111 -61,0 -111,49 -111,111 0,60 49,110 111,110 60,0 110,-49 110,-110zm-60 0c0,-28 -22,-50 -49,-50 -28,0 -50,22 -50,50 0,27 22,49 50,49 27,0 49,-22 49,-49z"/>
  <path fill="#373435" fill-opacity="0.200000" d="M253 1049c0,-61 -49,-111 -110,-111 -61,0 -111,49 -111,111 0,60 49,110 111,110 60,0 110,-49 110,-110zm-60 0c0,-28 -22,-50 -49,-50 -28,0 -50,22 -50,50 0,27 22,49 50,49 27,0 49,-22 49,-49z"/>
  <path fill="#373435" fill-opacity="0.200000" d="M2536 143c0,-61 -49,-111 -110,-111 -61,0 -111,49 -111,111 0,60 49,110 111,110 60,0 110,-49 110,-110zm-60 0c0,-28 -22,-50 -49,-50 -28,0 -50,22 -50,50 0,27 22,49 50,49 27,0 49,-22 49,-49z"/>
  <path fill="#373435" fill-opacity="0.200000" d="M2536 1049c0,-61 -49,-111 -110,-111 -61,0 -111,49 -111,111 0,60 49,110 111,110 60,0 110,-49 110,-110zm-60 0c0,-28 -22,-50 -49,-50 -28,0 -50,22 -50,50 0,27 22,49 50,49 27,0 49,-22 49,-49z"/>
 </g>
 <g id="silkscreen">
  <metadata id="CorelCorpID_1Corel-Layer"/>
  <path id="Curve" fill="none" fill-rule="nonzero" stroke="#373435" stroke-width="10" d="M123 5l2322 0c66,0 118,53 118,119l0 944c0,66 -53,119 -118,119l-2322 0c-66,0 -118,-53 -118,-119l0 -944c0,-66 53,-119 118,-119zm0 0z"/>
 </g>
 <g id="silkscreen0">
  <metadata id="CorelCorpID_2Corel-Layer"/>
  <path id="Curve_0" fill="none" fill-rule="nonzero" stroke="#373435" stroke-width="10" d="M123 5l2322 0c66,0 118,53 118,119l0 944c0,66 -53,119 -118,119l-2322 0c-66,0 -118,-53 -118,-119l0 -944c0,-66 53,-119 118,-119zm0 0z"/>
 </g>
</svg>
