G04 MADE WITH FRITZING*
G04 WWW.FRITZING.ORG*
G04 DOUBLE SIDED*
G04 HOLES PLATED*
G04 CONTOUR ON CENTER OF CONTOUR VECTOR*
%ASAXBY*%
%FSLAX23Y23*%
%MOIN*%
%OFA0B0*%
%SFA1.0B1.0*%
%ADD10C,0.008000*%
%ADD11C,0.010000*%
%ADD12R,0.001000X0.001000*%
%LNSILK1*%
G90*
G70*
G54D10*
X635Y192D02*
X714Y192D01*
D02*
X714Y34D02*
X635Y34D01*
G54D11*
D02*
X323Y190D02*
X463Y190D01*
D02*
X415Y265D02*
X365Y265D01*
D02*
X365Y265D02*
X365Y315D01*
D02*
X365Y315D02*
X415Y315D01*
D02*
X415Y315D02*
X415Y265D01*
D02*
X18Y76D02*
X218Y76D01*
D02*
X218Y76D02*
X218Y176D01*
D02*
X218Y176D02*
X18Y176D01*
D02*
X18Y176D02*
X18Y76D01*
D02*
X20Y230D02*
X220Y230D01*
D02*
X220Y230D02*
X220Y330D01*
D02*
X220Y330D02*
X20Y330D01*
D02*
X20Y330D02*
X20Y230D01*
G54D12*
X0Y421D02*
X807Y421D01*
X0Y420D02*
X807Y420D01*
X0Y419D02*
X807Y419D01*
X0Y418D02*
X807Y418D01*
X0Y417D02*
X807Y417D01*
X0Y416D02*
X807Y416D01*
X0Y415D02*
X807Y415D01*
X0Y414D02*
X807Y414D01*
X0Y413D02*
X7Y413D01*
X620Y413D02*
X645Y413D01*
X693Y413D02*
X717Y413D01*
X800Y413D02*
X807Y413D01*
X0Y412D02*
X7Y412D01*
X618Y412D02*
X640Y412D01*
X697Y412D02*
X719Y412D01*
X800Y412D02*
X807Y412D01*
X0Y411D02*
X7Y411D01*
X616Y411D02*
X636Y411D01*
X701Y411D02*
X721Y411D01*
X800Y411D02*
X807Y411D01*
X0Y410D02*
X7Y410D01*
X614Y410D02*
X633Y410D01*
X704Y410D02*
X723Y410D01*
X800Y410D02*
X807Y410D01*
X0Y409D02*
X7Y409D01*
X612Y409D02*
X630Y409D01*
X707Y409D02*
X725Y409D01*
X800Y409D02*
X807Y409D01*
X0Y408D02*
X7Y408D01*
X610Y408D02*
X627Y408D01*
X709Y408D02*
X727Y408D01*
X800Y408D02*
X807Y408D01*
X0Y407D02*
X7Y407D01*
X608Y407D02*
X625Y407D01*
X712Y407D02*
X729Y407D01*
X800Y407D02*
X807Y407D01*
X0Y406D02*
X7Y406D01*
X606Y406D02*
X622Y406D01*
X714Y406D02*
X730Y406D01*
X800Y406D02*
X807Y406D01*
X0Y405D02*
X7Y405D01*
X605Y405D02*
X620Y405D01*
X717Y405D02*
X732Y405D01*
X800Y405D02*
X807Y405D01*
X0Y404D02*
X7Y404D01*
X603Y404D02*
X618Y404D01*
X719Y404D02*
X734Y404D01*
X800Y404D02*
X807Y404D01*
X0Y403D02*
X7Y403D01*
X602Y403D02*
X616Y403D01*
X721Y403D02*
X735Y403D01*
X800Y403D02*
X807Y403D01*
X0Y402D02*
X7Y402D01*
X600Y402D02*
X614Y402D01*
X723Y402D02*
X737Y402D01*
X800Y402D02*
X807Y402D01*
X0Y401D02*
X7Y401D01*
X599Y401D02*
X612Y401D01*
X724Y401D02*
X738Y401D01*
X800Y401D02*
X807Y401D01*
X0Y400D02*
X7Y400D01*
X597Y400D02*
X610Y400D01*
X726Y400D02*
X740Y400D01*
X800Y400D02*
X807Y400D01*
X0Y399D02*
X7Y399D01*
X596Y399D02*
X609Y399D01*
X728Y399D02*
X741Y399D01*
X800Y399D02*
X807Y399D01*
X0Y398D02*
X7Y398D01*
X595Y398D02*
X607Y398D01*
X729Y398D02*
X742Y398D01*
X800Y398D02*
X807Y398D01*
X0Y397D02*
X7Y397D01*
X593Y397D02*
X606Y397D01*
X731Y397D02*
X743Y397D01*
X800Y397D02*
X807Y397D01*
X0Y396D02*
X7Y396D01*
X592Y396D02*
X604Y396D01*
X733Y396D02*
X745Y396D01*
X800Y396D02*
X807Y396D01*
X0Y395D02*
X7Y395D01*
X591Y395D02*
X603Y395D01*
X734Y395D02*
X746Y395D01*
X800Y395D02*
X807Y395D01*
X0Y394D02*
X7Y394D01*
X590Y394D02*
X601Y394D01*
X735Y394D02*
X747Y394D01*
X800Y394D02*
X807Y394D01*
X0Y393D02*
X7Y393D01*
X588Y393D02*
X600Y393D01*
X737Y393D02*
X748Y393D01*
X800Y393D02*
X807Y393D01*
X0Y392D02*
X7Y392D01*
X587Y392D02*
X599Y392D01*
X738Y392D02*
X749Y392D01*
X800Y392D02*
X807Y392D01*
X0Y391D02*
X7Y391D01*
X586Y391D02*
X597Y391D01*
X739Y391D02*
X751Y391D01*
X800Y391D02*
X807Y391D01*
X0Y390D02*
X7Y390D01*
X585Y390D02*
X596Y390D01*
X741Y390D02*
X752Y390D01*
X800Y390D02*
X807Y390D01*
X0Y389D02*
X7Y389D01*
X584Y389D02*
X595Y389D01*
X742Y389D02*
X753Y389D01*
X800Y389D02*
X807Y389D01*
X0Y388D02*
X7Y388D01*
X583Y388D02*
X594Y388D01*
X743Y388D02*
X754Y388D01*
X800Y388D02*
X807Y388D01*
X0Y387D02*
X7Y387D01*
X177Y387D02*
X181Y387D01*
X582Y387D02*
X592Y387D01*
X744Y387D02*
X755Y387D01*
X800Y387D02*
X807Y387D01*
X0Y386D02*
X7Y386D01*
X176Y386D02*
X182Y386D01*
X581Y386D02*
X591Y386D01*
X745Y386D02*
X756Y386D01*
X800Y386D02*
X807Y386D01*
X0Y385D02*
X7Y385D01*
X175Y385D02*
X183Y385D01*
X580Y385D02*
X590Y385D01*
X746Y385D02*
X757Y385D01*
X800Y385D02*
X807Y385D01*
X0Y384D02*
X7Y384D01*
X175Y384D02*
X183Y384D01*
X579Y384D02*
X589Y384D01*
X748Y384D02*
X757Y384D01*
X800Y384D02*
X807Y384D01*
X0Y383D02*
X7Y383D01*
X174Y383D02*
X183Y383D01*
X578Y383D02*
X588Y383D01*
X749Y383D02*
X758Y383D01*
X800Y383D02*
X807Y383D01*
X0Y382D02*
X7Y382D01*
X174Y382D02*
X184Y382D01*
X577Y382D02*
X587Y382D01*
X750Y382D02*
X759Y382D01*
X800Y382D02*
X807Y382D01*
X0Y381D02*
X7Y381D01*
X174Y381D02*
X184Y381D01*
X577Y381D02*
X586Y381D01*
X751Y381D02*
X760Y381D01*
X800Y381D02*
X807Y381D01*
X0Y380D02*
X7Y380D01*
X174Y380D02*
X184Y380D01*
X576Y380D02*
X585Y380D01*
X752Y380D02*
X761Y380D01*
X800Y380D02*
X807Y380D01*
X0Y379D02*
X7Y379D01*
X174Y379D02*
X184Y379D01*
X575Y379D02*
X584Y379D01*
X752Y379D02*
X762Y379D01*
X800Y379D02*
X807Y379D01*
X0Y378D02*
X7Y378D01*
X174Y378D02*
X184Y378D01*
X574Y378D02*
X583Y378D01*
X753Y378D02*
X763Y378D01*
X800Y378D02*
X807Y378D01*
X0Y377D02*
X7Y377D01*
X174Y377D02*
X184Y377D01*
X573Y377D02*
X583Y377D01*
X754Y377D02*
X764Y377D01*
X800Y377D02*
X807Y377D01*
X0Y376D02*
X7Y376D01*
X174Y376D02*
X184Y376D01*
X572Y376D02*
X582Y376D01*
X755Y376D02*
X764Y376D01*
X800Y376D02*
X807Y376D01*
X0Y375D02*
X7Y375D01*
X174Y375D02*
X184Y375D01*
X572Y375D02*
X581Y375D01*
X756Y375D02*
X765Y375D01*
X800Y375D02*
X807Y375D01*
X0Y374D02*
X7Y374D01*
X174Y374D02*
X184Y374D01*
X571Y374D02*
X580Y374D01*
X757Y374D02*
X766Y374D01*
X800Y374D02*
X807Y374D01*
X0Y373D02*
X7Y373D01*
X174Y373D02*
X184Y373D01*
X570Y373D02*
X579Y373D01*
X758Y373D02*
X767Y373D01*
X800Y373D02*
X807Y373D01*
X0Y372D02*
X7Y372D01*
X174Y372D02*
X184Y372D01*
X570Y372D02*
X578Y372D01*
X759Y372D02*
X767Y372D01*
X800Y372D02*
X807Y372D01*
X0Y371D02*
X7Y371D01*
X174Y371D02*
X184Y371D01*
X569Y371D02*
X578Y371D01*
X759Y371D02*
X768Y371D01*
X800Y371D02*
X807Y371D01*
X0Y370D02*
X7Y370D01*
X174Y370D02*
X184Y370D01*
X568Y370D02*
X577Y370D01*
X760Y370D02*
X769Y370D01*
X800Y370D02*
X807Y370D01*
X0Y369D02*
X7Y369D01*
X174Y369D02*
X184Y369D01*
X567Y369D02*
X576Y369D01*
X761Y369D02*
X769Y369D01*
X800Y369D02*
X807Y369D01*
X0Y368D02*
X7Y368D01*
X160Y368D02*
X198Y368D01*
X567Y368D02*
X575Y368D01*
X762Y368D02*
X770Y368D01*
X800Y368D02*
X807Y368D01*
X0Y367D02*
X7Y367D01*
X157Y367D02*
X201Y367D01*
X566Y367D02*
X575Y367D01*
X762Y367D02*
X771Y367D01*
X800Y367D02*
X807Y367D01*
X0Y366D02*
X7Y366D01*
X48Y366D02*
X90Y366D01*
X156Y366D02*
X202Y366D01*
X566Y366D02*
X574Y366D01*
X763Y366D02*
X771Y366D01*
X800Y366D02*
X807Y366D01*
X0Y365D02*
X7Y365D01*
X46Y365D02*
X91Y365D01*
X155Y365D02*
X203Y365D01*
X565Y365D02*
X573Y365D01*
X764Y365D02*
X772Y365D01*
X800Y365D02*
X807Y365D01*
X0Y364D02*
X7Y364D01*
X45Y364D02*
X92Y364D01*
X155Y364D02*
X203Y364D01*
X564Y364D02*
X573Y364D01*
X764Y364D02*
X772Y364D01*
X800Y364D02*
X807Y364D01*
X0Y363D02*
X7Y363D01*
X45Y363D02*
X93Y363D01*
X155Y363D02*
X203Y363D01*
X564Y363D02*
X572Y363D01*
X765Y363D02*
X773Y363D01*
X800Y363D02*
X807Y363D01*
X0Y362D02*
X7Y362D01*
X44Y362D02*
X93Y362D01*
X155Y362D02*
X203Y362D01*
X563Y362D02*
X571Y362D01*
X766Y362D02*
X774Y362D01*
X800Y362D02*
X807Y362D01*
X0Y361D02*
X7Y361D01*
X44Y361D02*
X93Y361D01*
X155Y361D02*
X203Y361D01*
X563Y361D02*
X571Y361D01*
X766Y361D02*
X774Y361D01*
X800Y361D02*
X807Y361D01*
X0Y360D02*
X7Y360D01*
X44Y360D02*
X93Y360D01*
X156Y360D02*
X202Y360D01*
X562Y360D02*
X570Y360D01*
X767Y360D02*
X775Y360D01*
X800Y360D02*
X807Y360D01*
X0Y359D02*
X7Y359D01*
X44Y359D02*
X93Y359D01*
X157Y359D02*
X201Y359D01*
X561Y359D02*
X569Y359D01*
X767Y359D02*
X775Y359D01*
X800Y359D02*
X807Y359D01*
X0Y358D02*
X7Y358D01*
X44Y358D02*
X93Y358D01*
X159Y358D02*
X199Y358D01*
X561Y358D02*
X569Y358D01*
X768Y358D02*
X776Y358D01*
X800Y358D02*
X807Y358D01*
X0Y357D02*
X7Y357D01*
X44Y357D02*
X93Y357D01*
X174Y357D02*
X184Y357D01*
X560Y357D02*
X568Y357D01*
X769Y357D02*
X776Y357D01*
X800Y357D02*
X807Y357D01*
X0Y356D02*
X7Y356D01*
X45Y356D02*
X93Y356D01*
X174Y356D02*
X184Y356D01*
X560Y356D02*
X568Y356D01*
X769Y356D02*
X777Y356D01*
X800Y356D02*
X807Y356D01*
X0Y355D02*
X7Y355D01*
X45Y355D02*
X93Y355D01*
X174Y355D02*
X184Y355D01*
X559Y355D02*
X567Y355D01*
X770Y355D02*
X777Y355D01*
X800Y355D02*
X807Y355D01*
X0Y354D02*
X7Y354D01*
X45Y354D02*
X92Y354D01*
X174Y354D02*
X184Y354D01*
X559Y354D02*
X567Y354D01*
X770Y354D02*
X778Y354D01*
X800Y354D02*
X807Y354D01*
X0Y353D02*
X7Y353D01*
X46Y353D02*
X91Y353D01*
X174Y353D02*
X184Y353D01*
X558Y353D02*
X566Y353D01*
X771Y353D02*
X778Y353D01*
X800Y353D02*
X807Y353D01*
X0Y352D02*
X7Y352D01*
X49Y352D02*
X88Y352D01*
X174Y352D02*
X184Y352D01*
X558Y352D02*
X566Y352D01*
X771Y352D02*
X779Y352D01*
X800Y352D02*
X807Y352D01*
X0Y351D02*
X7Y351D01*
X174Y351D02*
X184Y351D01*
X558Y351D02*
X565Y351D01*
X772Y351D02*
X779Y351D01*
X800Y351D02*
X807Y351D01*
X0Y350D02*
X7Y350D01*
X174Y350D02*
X184Y350D01*
X557Y350D02*
X565Y350D01*
X772Y350D02*
X780Y350D01*
X800Y350D02*
X807Y350D01*
X0Y349D02*
X7Y349D01*
X174Y349D02*
X184Y349D01*
X557Y349D02*
X564Y349D01*
X773Y349D02*
X780Y349D01*
X800Y349D02*
X807Y349D01*
X0Y348D02*
X7Y348D01*
X174Y348D02*
X184Y348D01*
X556Y348D02*
X564Y348D01*
X773Y348D02*
X781Y348D01*
X800Y348D02*
X807Y348D01*
X0Y347D02*
X7Y347D01*
X174Y347D02*
X184Y347D01*
X556Y347D02*
X563Y347D01*
X774Y347D02*
X781Y347D01*
X800Y347D02*
X807Y347D01*
X0Y346D02*
X7Y346D01*
X174Y346D02*
X184Y346D01*
X555Y346D02*
X563Y346D01*
X774Y346D02*
X781Y346D01*
X800Y346D02*
X807Y346D01*
X0Y345D02*
X7Y345D01*
X174Y345D02*
X184Y345D01*
X555Y345D02*
X562Y345D01*
X774Y345D02*
X782Y345D01*
X800Y345D02*
X807Y345D01*
X0Y344D02*
X7Y344D01*
X174Y344D02*
X184Y344D01*
X555Y344D02*
X562Y344D01*
X775Y344D02*
X782Y344D01*
X800Y344D02*
X807Y344D01*
X0Y343D02*
X7Y343D01*
X174Y343D02*
X183Y343D01*
X554Y343D02*
X562Y343D01*
X775Y343D02*
X782Y343D01*
X800Y343D02*
X807Y343D01*
X0Y342D02*
X7Y342D01*
X175Y342D02*
X183Y342D01*
X554Y342D02*
X561Y342D01*
X776Y342D02*
X783Y342D01*
X800Y342D02*
X807Y342D01*
X0Y341D02*
X7Y341D01*
X175Y341D02*
X183Y341D01*
X554Y341D02*
X561Y341D01*
X776Y341D02*
X783Y341D01*
X800Y341D02*
X807Y341D01*
X0Y340D02*
X7Y340D01*
X176Y340D02*
X182Y340D01*
X553Y340D02*
X560Y340D01*
X776Y340D02*
X784Y340D01*
X800Y340D02*
X807Y340D01*
X0Y339D02*
X7Y339D01*
X177Y339D02*
X181Y339D01*
X553Y339D02*
X560Y339D01*
X777Y339D02*
X784Y339D01*
X800Y339D02*
X807Y339D01*
X0Y338D02*
X7Y338D01*
X553Y338D02*
X560Y338D01*
X777Y338D02*
X784Y338D01*
X800Y338D02*
X807Y338D01*
X0Y337D02*
X7Y337D01*
X552Y337D02*
X559Y337D01*
X777Y337D02*
X784Y337D01*
X800Y337D02*
X807Y337D01*
X0Y336D02*
X7Y336D01*
X552Y336D02*
X559Y336D01*
X778Y336D02*
X785Y336D01*
X800Y336D02*
X807Y336D01*
X0Y335D02*
X7Y335D01*
X552Y335D02*
X559Y335D01*
X778Y335D02*
X785Y335D01*
X800Y335D02*
X807Y335D01*
X0Y334D02*
X7Y334D01*
X551Y334D02*
X558Y334D01*
X778Y334D02*
X785Y334D01*
X800Y334D02*
X807Y334D01*
X0Y333D02*
X7Y333D01*
X551Y333D02*
X558Y333D01*
X779Y333D02*
X786Y333D01*
X800Y333D02*
X807Y333D01*
X0Y332D02*
X7Y332D01*
X551Y332D02*
X558Y332D01*
X779Y332D02*
X786Y332D01*
X800Y332D02*
X807Y332D01*
X0Y331D02*
X7Y331D01*
X551Y331D02*
X558Y331D01*
X779Y331D02*
X786Y331D01*
X800Y331D02*
X807Y331D01*
X0Y330D02*
X7Y330D01*
X550Y330D02*
X557Y330D01*
X779Y330D02*
X786Y330D01*
X800Y330D02*
X807Y330D01*
X0Y329D02*
X7Y329D01*
X550Y329D02*
X557Y329D01*
X780Y329D02*
X787Y329D01*
X800Y329D02*
X807Y329D01*
X0Y328D02*
X7Y328D01*
X550Y328D02*
X557Y328D01*
X780Y328D02*
X787Y328D01*
X800Y328D02*
X807Y328D01*
X0Y327D02*
X7Y327D01*
X550Y327D02*
X557Y327D01*
X780Y327D02*
X787Y327D01*
X800Y327D02*
X807Y327D01*
X0Y326D02*
X7Y326D01*
X550Y326D02*
X556Y326D01*
X780Y326D02*
X787Y326D01*
X800Y326D02*
X807Y326D01*
X0Y325D02*
X7Y325D01*
X549Y325D02*
X556Y325D01*
X780Y325D02*
X788Y325D01*
X800Y325D02*
X807Y325D01*
X0Y324D02*
X7Y324D01*
X549Y324D02*
X556Y324D01*
X781Y324D02*
X788Y324D01*
X800Y324D02*
X807Y324D01*
X0Y323D02*
X7Y323D01*
X549Y323D02*
X556Y323D01*
X781Y323D02*
X788Y323D01*
X800Y323D02*
X807Y323D01*
X0Y322D02*
X7Y322D01*
X549Y322D02*
X556Y322D01*
X781Y322D02*
X788Y322D01*
X800Y322D02*
X807Y322D01*
X0Y321D02*
X7Y321D01*
X549Y321D02*
X555Y321D01*
X781Y321D02*
X788Y321D01*
X800Y321D02*
X807Y321D01*
X0Y320D02*
X7Y320D01*
X548Y320D02*
X555Y320D01*
X781Y320D02*
X788Y320D01*
X800Y320D02*
X807Y320D01*
X0Y319D02*
X7Y319D01*
X548Y319D02*
X555Y319D01*
X782Y319D02*
X789Y319D01*
X800Y319D02*
X807Y319D01*
X0Y318D02*
X7Y318D01*
X548Y318D02*
X555Y318D01*
X782Y318D02*
X789Y318D01*
X800Y318D02*
X807Y318D01*
X0Y317D02*
X7Y317D01*
X548Y317D02*
X555Y317D01*
X782Y317D02*
X789Y317D01*
X800Y317D02*
X807Y317D01*
X0Y316D02*
X7Y316D01*
X548Y316D02*
X555Y316D01*
X782Y316D02*
X789Y316D01*
X800Y316D02*
X807Y316D01*
X0Y315D02*
X7Y315D01*
X548Y315D02*
X555Y315D01*
X782Y315D02*
X789Y315D01*
X800Y315D02*
X807Y315D01*
X0Y314D02*
X7Y314D01*
X548Y314D02*
X554Y314D01*
X782Y314D02*
X789Y314D01*
X800Y314D02*
X807Y314D01*
X0Y313D02*
X7Y313D01*
X548Y313D02*
X554Y313D01*
X782Y313D02*
X789Y313D01*
X800Y313D02*
X807Y313D01*
X0Y312D02*
X7Y312D01*
X547Y312D02*
X554Y312D01*
X782Y312D02*
X789Y312D01*
X800Y312D02*
X807Y312D01*
X0Y311D02*
X7Y311D01*
X547Y311D02*
X554Y311D01*
X783Y311D02*
X789Y311D01*
X800Y311D02*
X807Y311D01*
X0Y310D02*
X7Y310D01*
X547Y310D02*
X554Y310D01*
X783Y310D02*
X790Y310D01*
X800Y310D02*
X807Y310D01*
X0Y309D02*
X7Y309D01*
X547Y309D02*
X554Y309D01*
X783Y309D02*
X790Y309D01*
X800Y309D02*
X807Y309D01*
X0Y308D02*
X7Y308D01*
X547Y308D02*
X554Y308D01*
X783Y308D02*
X790Y308D01*
X800Y308D02*
X807Y308D01*
X0Y307D02*
X7Y307D01*
X547Y307D02*
X554Y307D01*
X783Y307D02*
X790Y307D01*
X800Y307D02*
X807Y307D01*
X0Y306D02*
X7Y306D01*
X547Y306D02*
X554Y306D01*
X783Y306D02*
X790Y306D01*
X800Y306D02*
X807Y306D01*
X0Y305D02*
X7Y305D01*
X547Y305D02*
X554Y305D01*
X783Y305D02*
X790Y305D01*
X800Y305D02*
X807Y305D01*
X0Y304D02*
X7Y304D01*
X547Y304D02*
X554Y304D01*
X783Y304D02*
X790Y304D01*
X800Y304D02*
X807Y304D01*
X0Y303D02*
X7Y303D01*
X547Y303D02*
X554Y303D01*
X783Y303D02*
X790Y303D01*
X800Y303D02*
X807Y303D01*
X0Y302D02*
X7Y302D01*
X547Y302D02*
X554Y302D01*
X783Y302D02*
X790Y302D01*
X800Y302D02*
X807Y302D01*
X0Y301D02*
X7Y301D01*
X547Y301D02*
X554Y301D01*
X783Y301D02*
X790Y301D01*
X800Y301D02*
X807Y301D01*
X0Y300D02*
X7Y300D01*
X547Y300D02*
X554Y300D01*
X783Y300D02*
X790Y300D01*
X800Y300D02*
X807Y300D01*
X0Y299D02*
X7Y299D01*
X547Y299D02*
X554Y299D01*
X783Y299D02*
X790Y299D01*
X800Y299D02*
X807Y299D01*
X0Y298D02*
X7Y298D01*
X547Y298D02*
X554Y298D01*
X783Y298D02*
X790Y298D01*
X800Y298D02*
X807Y298D01*
X0Y297D02*
X7Y297D01*
X547Y297D02*
X554Y297D01*
X783Y297D02*
X790Y297D01*
X800Y297D02*
X807Y297D01*
X0Y296D02*
X7Y296D01*
X547Y296D02*
X554Y296D01*
X783Y296D02*
X790Y296D01*
X800Y296D02*
X807Y296D01*
X0Y295D02*
X7Y295D01*
X547Y295D02*
X554Y295D01*
X783Y295D02*
X790Y295D01*
X800Y295D02*
X807Y295D01*
X0Y294D02*
X7Y294D01*
X332Y294D02*
X364Y294D01*
X415Y294D02*
X446Y294D01*
X547Y294D02*
X554Y294D01*
X783Y294D02*
X790Y294D01*
X800Y294D02*
X807Y294D01*
X0Y293D02*
X7Y293D01*
X332Y293D02*
X364Y293D01*
X415Y293D02*
X446Y293D01*
X547Y293D02*
X554Y293D01*
X783Y293D02*
X790Y293D01*
X800Y293D02*
X807Y293D01*
X0Y292D02*
X7Y292D01*
X332Y292D02*
X364Y292D01*
X415Y292D02*
X446Y292D01*
X547Y292D02*
X554Y292D01*
X783Y292D02*
X789Y292D01*
X800Y292D02*
X807Y292D01*
X0Y291D02*
X7Y291D01*
X332Y291D02*
X364Y291D01*
X415Y291D02*
X446Y291D01*
X547Y291D02*
X554Y291D01*
X783Y291D02*
X789Y291D01*
X800Y291D02*
X807Y291D01*
X0Y290D02*
X7Y290D01*
X332Y290D02*
X364Y290D01*
X415Y290D02*
X446Y290D01*
X547Y290D02*
X554Y290D01*
X782Y290D02*
X789Y290D01*
X800Y290D02*
X807Y290D01*
X0Y289D02*
X7Y289D01*
X332Y289D02*
X364Y289D01*
X415Y289D02*
X446Y289D01*
X548Y289D02*
X554Y289D01*
X782Y289D02*
X789Y289D01*
X800Y289D02*
X807Y289D01*
X0Y288D02*
X7Y288D01*
X332Y288D02*
X364Y288D01*
X415Y288D02*
X446Y288D01*
X548Y288D02*
X555Y288D01*
X782Y288D02*
X789Y288D01*
X800Y288D02*
X807Y288D01*
X0Y287D02*
X7Y287D01*
X332Y287D02*
X364Y287D01*
X415Y287D02*
X446Y287D01*
X548Y287D02*
X555Y287D01*
X782Y287D02*
X789Y287D01*
X800Y287D02*
X807Y287D01*
X0Y286D02*
X7Y286D01*
X332Y286D02*
X364Y286D01*
X415Y286D02*
X446Y286D01*
X548Y286D02*
X555Y286D01*
X782Y286D02*
X789Y286D01*
X800Y286D02*
X807Y286D01*
X0Y285D02*
X7Y285D01*
X332Y285D02*
X364Y285D01*
X415Y285D02*
X446Y285D01*
X548Y285D02*
X555Y285D01*
X782Y285D02*
X789Y285D01*
X800Y285D02*
X807Y285D01*
X0Y284D02*
X7Y284D01*
X548Y284D02*
X555Y284D01*
X782Y284D02*
X789Y284D01*
X800Y284D02*
X807Y284D01*
X0Y283D02*
X7Y283D01*
X548Y283D02*
X555Y283D01*
X782Y283D02*
X788Y283D01*
X800Y283D02*
X807Y283D01*
X0Y282D02*
X7Y282D01*
X549Y282D02*
X555Y282D01*
X781Y282D02*
X788Y282D01*
X800Y282D02*
X807Y282D01*
X0Y281D02*
X7Y281D01*
X549Y281D02*
X556Y281D01*
X781Y281D02*
X788Y281D01*
X800Y281D02*
X807Y281D01*
X0Y280D02*
X7Y280D01*
X549Y280D02*
X556Y280D01*
X781Y280D02*
X788Y280D01*
X800Y280D02*
X807Y280D01*
X0Y279D02*
X7Y279D01*
X549Y279D02*
X556Y279D01*
X781Y279D02*
X788Y279D01*
X800Y279D02*
X807Y279D01*
X0Y278D02*
X7Y278D01*
X549Y278D02*
X556Y278D01*
X781Y278D02*
X788Y278D01*
X800Y278D02*
X807Y278D01*
X0Y277D02*
X7Y277D01*
X549Y277D02*
X556Y277D01*
X780Y277D02*
X787Y277D01*
X800Y277D02*
X807Y277D01*
X0Y276D02*
X7Y276D01*
X550Y276D02*
X557Y276D01*
X780Y276D02*
X787Y276D01*
X800Y276D02*
X807Y276D01*
X0Y275D02*
X7Y275D01*
X550Y275D02*
X557Y275D01*
X780Y275D02*
X787Y275D01*
X800Y275D02*
X807Y275D01*
X0Y274D02*
X7Y274D01*
X550Y274D02*
X557Y274D01*
X780Y274D02*
X787Y274D01*
X800Y274D02*
X807Y274D01*
X0Y273D02*
X7Y273D01*
X550Y273D02*
X557Y273D01*
X779Y273D02*
X786Y273D01*
X800Y273D02*
X807Y273D01*
X0Y272D02*
X7Y272D01*
X551Y272D02*
X558Y272D01*
X779Y272D02*
X786Y272D01*
X800Y272D02*
X807Y272D01*
X0Y271D02*
X7Y271D01*
X551Y271D02*
X558Y271D01*
X779Y271D02*
X786Y271D01*
X800Y271D02*
X807Y271D01*
X0Y270D02*
X7Y270D01*
X551Y270D02*
X558Y270D01*
X779Y270D02*
X786Y270D01*
X800Y270D02*
X807Y270D01*
X0Y269D02*
X7Y269D01*
X551Y269D02*
X558Y269D01*
X778Y269D02*
X785Y269D01*
X800Y269D02*
X807Y269D01*
X0Y268D02*
X7Y268D01*
X552Y268D02*
X559Y268D01*
X778Y268D02*
X785Y268D01*
X800Y268D02*
X807Y268D01*
X0Y267D02*
X7Y267D01*
X552Y267D02*
X559Y267D01*
X778Y267D02*
X785Y267D01*
X800Y267D02*
X807Y267D01*
X0Y266D02*
X7Y266D01*
X21Y266D02*
X21Y266D01*
X552Y266D02*
X559Y266D01*
X777Y266D02*
X785Y266D01*
X800Y266D02*
X807Y266D01*
X0Y265D02*
X7Y265D01*
X20Y265D02*
X22Y265D01*
X553Y265D02*
X560Y265D01*
X777Y265D02*
X784Y265D01*
X800Y265D02*
X807Y265D01*
X0Y264D02*
X7Y264D01*
X19Y264D02*
X23Y264D01*
X553Y264D02*
X560Y264D01*
X777Y264D02*
X784Y264D01*
X800Y264D02*
X807Y264D01*
X0Y263D02*
X7Y263D01*
X19Y263D02*
X24Y263D01*
X553Y263D02*
X560Y263D01*
X776Y263D02*
X784Y263D01*
X800Y263D02*
X807Y263D01*
X0Y262D02*
X7Y262D01*
X19Y262D02*
X25Y262D01*
X553Y262D02*
X561Y262D01*
X776Y262D02*
X783Y262D01*
X800Y262D02*
X807Y262D01*
X0Y261D02*
X7Y261D01*
X20Y261D02*
X25Y261D01*
X554Y261D02*
X561Y261D01*
X776Y261D02*
X783Y261D01*
X800Y261D02*
X807Y261D01*
X0Y260D02*
X7Y260D01*
X21Y260D02*
X25Y260D01*
X554Y260D02*
X562Y260D01*
X775Y260D02*
X783Y260D01*
X800Y260D02*
X807Y260D01*
X0Y259D02*
X7Y259D01*
X22Y259D02*
X25Y259D01*
X555Y259D02*
X562Y259D01*
X775Y259D02*
X782Y259D01*
X800Y259D02*
X807Y259D01*
X0Y258D02*
X7Y258D01*
X23Y258D02*
X25Y258D01*
X555Y258D02*
X562Y258D01*
X774Y258D02*
X782Y258D01*
X800Y258D02*
X807Y258D01*
X0Y257D02*
X7Y257D01*
X24Y257D02*
X25Y257D01*
X555Y257D02*
X563Y257D01*
X774Y257D02*
X781Y257D01*
X800Y257D02*
X807Y257D01*
X0Y256D02*
X7Y256D01*
X25Y256D02*
X25Y256D01*
X556Y256D02*
X563Y256D01*
X774Y256D02*
X781Y256D01*
X800Y256D02*
X807Y256D01*
X0Y255D02*
X7Y255D01*
X556Y255D02*
X564Y255D01*
X773Y255D02*
X781Y255D01*
X800Y255D02*
X807Y255D01*
X0Y254D02*
X7Y254D01*
X557Y254D02*
X564Y254D01*
X773Y254D02*
X780Y254D01*
X800Y254D02*
X807Y254D01*
X0Y253D02*
X7Y253D01*
X557Y253D02*
X564Y253D01*
X772Y253D02*
X780Y253D01*
X800Y253D02*
X807Y253D01*
X0Y252D02*
X7Y252D01*
X557Y252D02*
X565Y252D01*
X772Y252D02*
X779Y252D01*
X800Y252D02*
X807Y252D01*
X0Y251D02*
X7Y251D01*
X558Y251D02*
X565Y251D01*
X771Y251D02*
X779Y251D01*
X800Y251D02*
X807Y251D01*
X0Y250D02*
X7Y250D01*
X558Y250D02*
X566Y250D01*
X771Y250D02*
X778Y250D01*
X800Y250D02*
X807Y250D01*
X0Y249D02*
X7Y249D01*
X559Y249D02*
X566Y249D01*
X770Y249D02*
X778Y249D01*
X800Y249D02*
X807Y249D01*
X0Y248D02*
X7Y248D01*
X559Y248D02*
X567Y248D01*
X770Y248D02*
X778Y248D01*
X800Y248D02*
X807Y248D01*
X0Y247D02*
X7Y247D01*
X560Y247D02*
X568Y247D01*
X769Y247D02*
X777Y247D01*
X800Y247D02*
X807Y247D01*
X0Y246D02*
X7Y246D01*
X560Y246D02*
X568Y246D01*
X769Y246D02*
X776Y246D01*
X800Y246D02*
X807Y246D01*
X0Y245D02*
X7Y245D01*
X561Y245D02*
X569Y245D01*
X768Y245D02*
X776Y245D01*
X800Y245D02*
X807Y245D01*
X0Y244D02*
X7Y244D01*
X561Y244D02*
X569Y244D01*
X767Y244D02*
X775Y244D01*
X800Y244D02*
X807Y244D01*
X0Y243D02*
X7Y243D01*
X562Y243D02*
X570Y243D01*
X767Y243D02*
X775Y243D01*
X800Y243D02*
X807Y243D01*
X0Y242D02*
X7Y242D01*
X562Y242D02*
X570Y242D01*
X766Y242D02*
X774Y242D01*
X800Y242D02*
X807Y242D01*
X0Y241D02*
X7Y241D01*
X563Y241D02*
X571Y241D01*
X766Y241D02*
X774Y241D01*
X800Y241D02*
X807Y241D01*
X0Y240D02*
X7Y240D01*
X564Y240D02*
X572Y240D01*
X765Y240D02*
X773Y240D01*
X800Y240D02*
X807Y240D01*
X0Y239D02*
X7Y239D01*
X564Y239D02*
X572Y239D01*
X764Y239D02*
X773Y239D01*
X800Y239D02*
X807Y239D01*
X0Y238D02*
X7Y238D01*
X565Y238D02*
X573Y238D01*
X764Y238D02*
X772Y238D01*
X800Y238D02*
X807Y238D01*
X0Y237D02*
X7Y237D01*
X565Y237D02*
X574Y237D01*
X763Y237D02*
X771Y237D01*
X800Y237D02*
X807Y237D01*
X0Y236D02*
X7Y236D01*
X566Y236D02*
X574Y236D01*
X762Y236D02*
X771Y236D01*
X800Y236D02*
X807Y236D01*
X0Y235D02*
X7Y235D01*
X46Y235D02*
X53Y235D01*
X567Y235D02*
X575Y235D01*
X762Y235D02*
X770Y235D01*
X800Y235D02*
X807Y235D01*
X0Y234D02*
X7Y234D01*
X47Y234D02*
X54Y234D01*
X567Y234D02*
X576Y234D01*
X761Y234D02*
X770Y234D01*
X800Y234D02*
X807Y234D01*
X0Y233D02*
X7Y233D01*
X48Y233D02*
X55Y233D01*
X568Y233D02*
X576Y233D01*
X760Y233D02*
X769Y233D01*
X800Y233D02*
X807Y233D01*
X0Y232D02*
X7Y232D01*
X49Y232D02*
X55Y232D01*
X569Y232D02*
X577Y232D01*
X759Y232D02*
X768Y232D01*
X800Y232D02*
X807Y232D01*
X0Y231D02*
X7Y231D01*
X50Y231D02*
X55Y231D01*
X569Y231D02*
X578Y231D01*
X759Y231D02*
X767Y231D01*
X800Y231D02*
X807Y231D01*
X0Y230D02*
X7Y230D01*
X51Y230D02*
X54Y230D01*
X570Y230D02*
X579Y230D01*
X758Y230D02*
X767Y230D01*
X800Y230D02*
X807Y230D01*
X0Y229D02*
X7Y229D01*
X52Y229D02*
X53Y229D01*
X571Y229D02*
X580Y229D01*
X757Y229D02*
X766Y229D01*
X800Y229D02*
X807Y229D01*
X0Y228D02*
X7Y228D01*
X572Y228D02*
X580Y228D01*
X756Y228D02*
X765Y228D01*
X800Y228D02*
X807Y228D01*
X0Y227D02*
X7Y227D01*
X572Y227D02*
X581Y227D01*
X755Y227D02*
X764Y227D01*
X800Y227D02*
X807Y227D01*
X0Y226D02*
X7Y226D01*
X573Y226D02*
X582Y226D01*
X755Y226D02*
X764Y226D01*
X800Y226D02*
X807Y226D01*
X0Y225D02*
X7Y225D01*
X574Y225D02*
X583Y225D01*
X754Y225D02*
X763Y225D01*
X800Y225D02*
X807Y225D01*
X0Y224D02*
X7Y224D01*
X575Y224D02*
X584Y224D01*
X753Y224D02*
X762Y224D01*
X800Y224D02*
X807Y224D01*
X0Y223D02*
X7Y223D01*
X576Y223D02*
X585Y223D01*
X752Y223D02*
X761Y223D01*
X800Y223D02*
X807Y223D01*
X0Y222D02*
X7Y222D01*
X576Y222D02*
X586Y222D01*
X751Y222D02*
X760Y222D01*
X800Y222D02*
X807Y222D01*
X0Y221D02*
X7Y221D01*
X577Y221D02*
X587Y221D01*
X750Y221D02*
X760Y221D01*
X800Y221D02*
X807Y221D01*
X0Y220D02*
X7Y220D01*
X578Y220D02*
X588Y220D01*
X749Y220D02*
X759Y220D01*
X800Y220D02*
X807Y220D01*
X0Y219D02*
X7Y219D01*
X579Y219D02*
X589Y219D01*
X748Y219D02*
X758Y219D01*
X800Y219D02*
X807Y219D01*
X0Y218D02*
X7Y218D01*
X580Y218D02*
X590Y218D01*
X747Y218D02*
X757Y218D01*
X800Y218D02*
X807Y218D01*
X0Y217D02*
X7Y217D01*
X581Y217D02*
X591Y217D01*
X746Y217D02*
X756Y217D01*
X800Y217D02*
X807Y217D01*
X0Y216D02*
X7Y216D01*
X582Y216D02*
X592Y216D01*
X744Y216D02*
X755Y216D01*
X800Y216D02*
X807Y216D01*
X0Y215D02*
X7Y215D01*
X583Y215D02*
X593Y215D01*
X743Y215D02*
X754Y215D01*
X800Y215D02*
X807Y215D01*
X0Y214D02*
X7Y214D01*
X584Y214D02*
X595Y214D01*
X742Y214D02*
X753Y214D01*
X800Y214D02*
X807Y214D01*
X0Y213D02*
X7Y213D01*
X585Y213D02*
X596Y213D01*
X741Y213D02*
X752Y213D01*
X800Y213D02*
X807Y213D01*
X0Y212D02*
X7Y212D01*
X586Y212D02*
X597Y212D01*
X740Y212D02*
X751Y212D01*
X800Y212D02*
X807Y212D01*
X0Y211D02*
X7Y211D01*
X587Y211D02*
X598Y211D01*
X738Y211D02*
X750Y211D01*
X800Y211D02*
X807Y211D01*
X0Y210D02*
X7Y210D01*
X588Y210D02*
X749Y210D01*
X800Y210D02*
X807Y210D01*
X0Y209D02*
X7Y209D01*
X589Y209D02*
X747Y209D01*
X800Y209D02*
X807Y209D01*
X0Y208D02*
X7Y208D01*
X590Y208D02*
X746Y208D01*
X800Y208D02*
X807Y208D01*
X0Y207D02*
X7Y207D01*
X592Y207D02*
X745Y207D01*
X800Y207D02*
X807Y207D01*
X0Y206D02*
X7Y206D01*
X593Y206D02*
X744Y206D01*
X800Y206D02*
X807Y206D01*
X0Y205D02*
X7Y205D01*
X594Y205D02*
X743Y205D01*
X800Y205D02*
X807Y205D01*
X0Y204D02*
X7Y204D01*
X596Y204D02*
X741Y204D01*
X800Y204D02*
X807Y204D01*
X0Y203D02*
X7Y203D01*
X800Y203D02*
X807Y203D01*
X0Y202D02*
X7Y202D01*
X800Y202D02*
X807Y202D01*
X0Y201D02*
X7Y201D01*
X800Y201D02*
X807Y201D01*
X0Y200D02*
X7Y200D01*
X800Y200D02*
X807Y200D01*
X0Y199D02*
X7Y199D01*
X800Y199D02*
X807Y199D01*
X0Y198D02*
X7Y198D01*
X800Y198D02*
X807Y198D01*
X0Y197D02*
X7Y197D01*
X800Y197D02*
X807Y197D01*
X0Y196D02*
X7Y196D01*
X800Y196D02*
X807Y196D01*
X0Y195D02*
X7Y195D01*
X627Y195D02*
X634Y195D01*
X714Y195D02*
X720Y195D01*
X800Y195D02*
X807Y195D01*
X0Y194D02*
X7Y194D01*
X623Y194D02*
X634Y194D01*
X714Y194D02*
X725Y194D01*
X800Y194D02*
X807Y194D01*
X0Y193D02*
X7Y193D01*
X620Y193D02*
X634Y193D01*
X714Y193D02*
X728Y193D01*
X800Y193D02*
X807Y193D01*
X0Y192D02*
X7Y192D01*
X617Y192D02*
X634Y192D01*
X714Y192D02*
X731Y192D01*
X800Y192D02*
X807Y192D01*
X0Y191D02*
X7Y191D01*
X615Y191D02*
X634Y191D01*
X714Y191D02*
X733Y191D01*
X800Y191D02*
X807Y191D01*
X0Y190D02*
X7Y190D01*
X613Y190D02*
X634Y190D01*
X714Y190D02*
X735Y190D01*
X800Y190D02*
X807Y190D01*
X0Y189D02*
X7Y189D01*
X611Y189D02*
X634Y189D01*
X714Y189D02*
X737Y189D01*
X800Y189D02*
X807Y189D01*
X0Y188D02*
X7Y188D01*
X609Y188D02*
X634Y188D01*
X714Y188D02*
X739Y188D01*
X800Y188D02*
X807Y188D01*
X0Y187D02*
X7Y187D01*
X607Y187D02*
X627Y187D01*
X721Y187D02*
X741Y187D01*
X800Y187D02*
X807Y187D01*
X0Y186D02*
X7Y186D01*
X606Y186D02*
X623Y186D01*
X725Y186D02*
X742Y186D01*
X800Y186D02*
X807Y186D01*
X0Y185D02*
X7Y185D01*
X604Y185D02*
X620Y185D01*
X728Y185D02*
X744Y185D01*
X800Y185D02*
X807Y185D01*
X0Y184D02*
X7Y184D01*
X603Y184D02*
X617Y184D01*
X731Y184D02*
X745Y184D01*
X800Y184D02*
X807Y184D01*
X0Y183D02*
X7Y183D01*
X602Y183D02*
X615Y183D01*
X733Y183D02*
X746Y183D01*
X800Y183D02*
X807Y183D01*
X0Y182D02*
X7Y182D01*
X600Y182D02*
X613Y182D01*
X735Y182D02*
X747Y182D01*
X800Y182D02*
X807Y182D01*
X0Y181D02*
X7Y181D01*
X599Y181D02*
X611Y181D01*
X737Y181D02*
X749Y181D01*
X800Y181D02*
X807Y181D01*
X0Y180D02*
X7Y180D01*
X598Y180D02*
X610Y180D01*
X738Y180D02*
X750Y180D01*
X800Y180D02*
X807Y180D01*
X0Y179D02*
X7Y179D01*
X597Y179D02*
X608Y179D01*
X740Y179D02*
X751Y179D01*
X800Y179D02*
X807Y179D01*
X0Y178D02*
X7Y178D01*
X596Y178D02*
X607Y178D01*
X741Y178D02*
X752Y178D01*
X800Y178D02*
X807Y178D01*
X0Y177D02*
X7Y177D01*
X595Y177D02*
X605Y177D01*
X743Y177D02*
X753Y177D01*
X800Y177D02*
X807Y177D01*
X0Y176D02*
X7Y176D01*
X594Y176D02*
X604Y176D01*
X744Y176D02*
X754Y176D01*
X800Y176D02*
X807Y176D01*
X0Y175D02*
X7Y175D01*
X593Y175D02*
X603Y175D01*
X745Y175D02*
X755Y175D01*
X800Y175D02*
X807Y175D01*
X0Y174D02*
X7Y174D01*
X592Y174D02*
X602Y174D01*
X746Y174D02*
X755Y174D01*
X800Y174D02*
X807Y174D01*
X0Y173D02*
X7Y173D01*
X592Y173D02*
X601Y173D01*
X747Y173D02*
X756Y173D01*
X800Y173D02*
X807Y173D01*
X0Y172D02*
X7Y172D01*
X591Y172D02*
X600Y172D01*
X748Y172D02*
X757Y172D01*
X800Y172D02*
X807Y172D01*
X0Y171D02*
X7Y171D01*
X590Y171D02*
X599Y171D01*
X749Y171D02*
X758Y171D01*
X800Y171D02*
X807Y171D01*
X0Y170D02*
X7Y170D01*
X589Y170D02*
X598Y170D01*
X750Y170D02*
X759Y170D01*
X800Y170D02*
X807Y170D01*
X0Y169D02*
X7Y169D01*
X589Y169D02*
X597Y169D01*
X751Y169D02*
X759Y169D01*
X800Y169D02*
X807Y169D01*
X0Y168D02*
X7Y168D01*
X588Y168D02*
X596Y168D01*
X751Y168D02*
X760Y168D01*
X800Y168D02*
X807Y168D01*
X0Y167D02*
X7Y167D01*
X587Y167D02*
X596Y167D01*
X752Y167D02*
X761Y167D01*
X800Y167D02*
X807Y167D01*
X0Y166D02*
X7Y166D01*
X587Y166D02*
X595Y166D01*
X753Y166D02*
X761Y166D01*
X800Y166D02*
X807Y166D01*
X0Y165D02*
X7Y165D01*
X586Y165D02*
X594Y165D01*
X754Y165D02*
X762Y165D01*
X800Y165D02*
X807Y165D01*
X0Y164D02*
X7Y164D01*
X586Y164D02*
X594Y164D01*
X754Y164D02*
X762Y164D01*
X800Y164D02*
X807Y164D01*
X0Y163D02*
X7Y163D01*
X585Y163D02*
X593Y163D01*
X755Y163D02*
X763Y163D01*
X800Y163D02*
X807Y163D01*
X0Y162D02*
X7Y162D01*
X585Y162D02*
X592Y162D01*
X755Y162D02*
X763Y162D01*
X800Y162D02*
X807Y162D01*
X0Y161D02*
X7Y161D01*
X584Y161D02*
X592Y161D01*
X756Y161D02*
X764Y161D01*
X800Y161D02*
X807Y161D01*
X0Y160D02*
X7Y160D01*
X584Y160D02*
X591Y160D01*
X757Y160D02*
X764Y160D01*
X800Y160D02*
X807Y160D01*
X0Y159D02*
X7Y159D01*
X583Y159D02*
X591Y159D01*
X757Y159D02*
X765Y159D01*
X800Y159D02*
X807Y159D01*
X0Y158D02*
X7Y158D01*
X583Y158D02*
X590Y158D01*
X757Y158D02*
X765Y158D01*
X800Y158D02*
X807Y158D01*
X0Y157D02*
X7Y157D01*
X582Y157D02*
X590Y157D01*
X758Y157D02*
X765Y157D01*
X800Y157D02*
X807Y157D01*
X0Y156D02*
X7Y156D01*
X582Y156D02*
X589Y156D01*
X758Y156D02*
X766Y156D01*
X800Y156D02*
X807Y156D01*
X0Y155D02*
X7Y155D01*
X582Y155D02*
X589Y155D01*
X759Y155D02*
X766Y155D01*
X800Y155D02*
X807Y155D01*
X0Y154D02*
X7Y154D01*
X581Y154D02*
X589Y154D01*
X759Y154D02*
X767Y154D01*
X800Y154D02*
X807Y154D01*
X0Y153D02*
X7Y153D01*
X581Y153D02*
X588Y153D01*
X759Y153D02*
X767Y153D01*
X800Y153D02*
X807Y153D01*
X0Y152D02*
X7Y152D01*
X581Y152D02*
X588Y152D01*
X760Y152D02*
X767Y152D01*
X800Y152D02*
X807Y152D01*
X0Y151D02*
X7Y151D01*
X580Y151D02*
X588Y151D01*
X760Y151D02*
X767Y151D01*
X800Y151D02*
X807Y151D01*
X0Y150D02*
X7Y150D01*
X580Y150D02*
X585Y150D01*
X763Y150D02*
X768Y150D01*
X800Y150D02*
X807Y150D01*
X0Y149D02*
X7Y149D01*
X800Y149D02*
X807Y149D01*
X0Y148D02*
X7Y148D01*
X800Y148D02*
X807Y148D01*
X0Y147D02*
X7Y147D01*
X800Y147D02*
X807Y147D01*
X0Y146D02*
X7Y146D01*
X800Y146D02*
X807Y146D01*
X0Y145D02*
X7Y145D01*
X800Y145D02*
X807Y145D01*
X0Y144D02*
X7Y144D01*
X800Y144D02*
X807Y144D01*
X0Y143D02*
X7Y143D01*
X800Y143D02*
X807Y143D01*
X0Y142D02*
X7Y142D01*
X800Y142D02*
X807Y142D01*
X0Y141D02*
X7Y141D01*
X800Y141D02*
X807Y141D01*
X0Y140D02*
X7Y140D01*
X800Y140D02*
X807Y140D01*
X0Y139D02*
X7Y139D01*
X800Y139D02*
X807Y139D01*
X0Y138D02*
X7Y138D01*
X800Y138D02*
X807Y138D01*
X0Y137D02*
X7Y137D01*
X800Y137D02*
X807Y137D01*
X0Y136D02*
X7Y136D01*
X800Y136D02*
X807Y136D01*
X0Y135D02*
X7Y135D01*
X800Y135D02*
X807Y135D01*
X0Y134D02*
X7Y134D01*
X800Y134D02*
X807Y134D01*
X0Y133D02*
X7Y133D01*
X800Y133D02*
X807Y133D01*
X0Y132D02*
X7Y132D01*
X800Y132D02*
X807Y132D01*
X0Y131D02*
X7Y131D01*
X800Y131D02*
X807Y131D01*
X0Y130D02*
X7Y130D01*
X800Y130D02*
X807Y130D01*
X0Y129D02*
X7Y129D01*
X800Y129D02*
X807Y129D01*
X0Y128D02*
X7Y128D01*
X800Y128D02*
X807Y128D01*
X0Y127D02*
X7Y127D01*
X800Y127D02*
X807Y127D01*
X0Y126D02*
X7Y126D01*
X800Y126D02*
X807Y126D01*
X0Y125D02*
X7Y125D01*
X800Y125D02*
X807Y125D01*
X0Y124D02*
X7Y124D01*
X800Y124D02*
X807Y124D01*
X0Y123D02*
X7Y123D01*
X800Y123D02*
X807Y123D01*
X0Y122D02*
X7Y122D01*
X800Y122D02*
X807Y122D01*
X0Y121D02*
X7Y121D01*
X800Y121D02*
X807Y121D01*
X0Y120D02*
X7Y120D01*
X800Y120D02*
X807Y120D01*
X0Y119D02*
X7Y119D01*
X800Y119D02*
X807Y119D01*
X0Y118D02*
X7Y118D01*
X800Y118D02*
X807Y118D01*
X0Y117D02*
X7Y117D01*
X800Y117D02*
X807Y117D01*
X0Y116D02*
X7Y116D01*
X800Y116D02*
X807Y116D01*
X0Y115D02*
X7Y115D01*
X800Y115D02*
X807Y115D01*
X0Y114D02*
X7Y114D01*
X800Y114D02*
X807Y114D01*
X0Y113D02*
X7Y113D01*
X20Y113D02*
X20Y113D01*
X800Y113D02*
X807Y113D01*
X0Y112D02*
X7Y112D01*
X19Y112D02*
X21Y112D01*
X800Y112D02*
X807Y112D01*
X0Y111D02*
X7Y111D01*
X18Y111D02*
X22Y111D01*
X800Y111D02*
X807Y111D01*
X0Y110D02*
X7Y110D01*
X17Y110D02*
X23Y110D01*
X800Y110D02*
X807Y110D01*
X0Y109D02*
X7Y109D01*
X18Y109D02*
X23Y109D01*
X800Y109D02*
X807Y109D01*
X0Y108D02*
X7Y108D01*
X19Y108D02*
X23Y108D01*
X800Y108D02*
X807Y108D01*
X0Y107D02*
X7Y107D01*
X20Y107D02*
X23Y107D01*
X800Y107D02*
X807Y107D01*
X0Y106D02*
X7Y106D01*
X21Y106D02*
X23Y106D01*
X800Y106D02*
X807Y106D01*
X0Y105D02*
X7Y105D01*
X22Y105D02*
X23Y105D01*
X800Y105D02*
X807Y105D01*
X0Y104D02*
X7Y104D01*
X23Y104D02*
X23Y104D01*
X800Y104D02*
X807Y104D01*
X0Y103D02*
X7Y103D01*
X800Y103D02*
X807Y103D01*
X0Y102D02*
X7Y102D01*
X800Y102D02*
X807Y102D01*
X0Y101D02*
X7Y101D01*
X800Y101D02*
X807Y101D01*
X0Y100D02*
X7Y100D01*
X800Y100D02*
X807Y100D01*
X0Y99D02*
X7Y99D01*
X800Y99D02*
X807Y99D01*
X0Y98D02*
X7Y98D01*
X800Y98D02*
X807Y98D01*
X0Y97D02*
X7Y97D01*
X800Y97D02*
X807Y97D01*
X0Y96D02*
X7Y96D01*
X800Y96D02*
X807Y96D01*
X0Y95D02*
X7Y95D01*
X800Y95D02*
X807Y95D01*
X0Y94D02*
X7Y94D01*
X800Y94D02*
X807Y94D01*
X0Y93D02*
X7Y93D01*
X800Y93D02*
X807Y93D01*
X0Y92D02*
X7Y92D01*
X800Y92D02*
X807Y92D01*
X0Y91D02*
X7Y91D01*
X800Y91D02*
X807Y91D01*
X0Y90D02*
X7Y90D01*
X800Y90D02*
X807Y90D01*
X0Y89D02*
X7Y89D01*
X800Y89D02*
X807Y89D01*
X0Y88D02*
X7Y88D01*
X472Y88D02*
X473Y88D01*
X800Y88D02*
X807Y88D01*
X0Y87D02*
X7Y87D01*
X471Y87D02*
X475Y87D01*
X800Y87D02*
X807Y87D01*
X0Y86D02*
X7Y86D01*
X307Y86D02*
X309Y86D01*
X471Y86D02*
X478Y86D01*
X800Y86D02*
X807Y86D01*
X0Y85D02*
X7Y85D01*
X303Y85D02*
X309Y85D01*
X470Y85D02*
X479Y85D01*
X800Y85D02*
X807Y85D01*
X0Y84D02*
X7Y84D01*
X301Y84D02*
X309Y84D01*
X470Y84D02*
X479Y84D01*
X800Y84D02*
X807Y84D01*
X0Y83D02*
X7Y83D01*
X301Y83D02*
X310Y83D01*
X470Y83D02*
X479Y83D01*
X800Y83D02*
X807Y83D01*
X0Y82D02*
X7Y82D01*
X45Y82D02*
X51Y82D01*
X301Y82D02*
X310Y82D01*
X470Y82D02*
X479Y82D01*
X800Y82D02*
X807Y82D01*
X0Y81D02*
X7Y81D01*
X46Y81D02*
X52Y81D01*
X301Y81D02*
X310Y81D01*
X470Y81D02*
X479Y81D01*
X800Y81D02*
X807Y81D01*
X0Y80D02*
X7Y80D01*
X47Y80D02*
X53Y80D01*
X301Y80D02*
X310Y80D01*
X470Y80D02*
X479Y80D01*
X800Y80D02*
X807Y80D01*
X0Y79D02*
X7Y79D01*
X48Y79D02*
X54Y79D01*
X301Y79D02*
X310Y79D01*
X470Y79D02*
X479Y79D01*
X800Y79D02*
X807Y79D01*
X0Y78D02*
X7Y78D01*
X49Y78D02*
X54Y78D01*
X301Y78D02*
X310Y78D01*
X470Y78D02*
X479Y78D01*
X800Y78D02*
X807Y78D01*
X0Y77D02*
X7Y77D01*
X50Y77D02*
X53Y77D01*
X301Y77D02*
X310Y77D01*
X469Y77D02*
X478Y77D01*
X580Y77D02*
X584Y77D01*
X764Y77D02*
X767Y77D01*
X800Y77D02*
X807Y77D01*
X0Y76D02*
X7Y76D01*
X51Y76D02*
X52Y76D01*
X301Y76D02*
X311Y76D01*
X469Y76D02*
X478Y76D01*
X580Y76D02*
X588Y76D01*
X760Y76D02*
X767Y76D01*
X800Y76D02*
X807Y76D01*
X0Y75D02*
X7Y75D01*
X302Y75D02*
X311Y75D01*
X469Y75D02*
X478Y75D01*
X581Y75D02*
X588Y75D01*
X760Y75D02*
X767Y75D01*
X800Y75D02*
X807Y75D01*
X0Y74D02*
X7Y74D01*
X302Y74D02*
X311Y74D01*
X468Y74D02*
X478Y74D01*
X581Y74D02*
X588Y74D01*
X760Y74D02*
X767Y74D01*
X800Y74D02*
X807Y74D01*
X0Y73D02*
X7Y73D01*
X302Y73D02*
X312Y73D01*
X468Y73D02*
X477Y73D01*
X581Y73D02*
X589Y73D01*
X759Y73D02*
X767Y73D01*
X800Y73D02*
X807Y73D01*
X0Y72D02*
X7Y72D01*
X303Y72D02*
X312Y72D01*
X468Y72D02*
X477Y72D01*
X582Y72D02*
X589Y72D01*
X759Y72D02*
X766Y72D01*
X800Y72D02*
X807Y72D01*
X0Y71D02*
X7Y71D01*
X303Y71D02*
X313Y71D01*
X467Y71D02*
X477Y71D01*
X582Y71D02*
X589Y71D01*
X758Y71D02*
X766Y71D01*
X800Y71D02*
X807Y71D01*
X0Y70D02*
X7Y70D01*
X303Y70D02*
X313Y70D01*
X467Y70D02*
X476Y70D01*
X582Y70D02*
X590Y70D01*
X758Y70D02*
X766Y70D01*
X800Y70D02*
X807Y70D01*
X0Y69D02*
X7Y69D01*
X304Y69D02*
X314Y69D01*
X466Y69D02*
X476Y69D01*
X583Y69D02*
X590Y69D01*
X758Y69D02*
X765Y69D01*
X800Y69D02*
X807Y69D01*
X0Y68D02*
X7Y68D01*
X304Y68D02*
X314Y68D01*
X466Y68D02*
X476Y68D01*
X583Y68D02*
X591Y68D01*
X757Y68D02*
X765Y68D01*
X800Y68D02*
X807Y68D01*
X0Y67D02*
X7Y67D01*
X167Y67D02*
X172Y67D01*
X305Y67D02*
X315Y67D01*
X465Y67D02*
X475Y67D01*
X583Y67D02*
X591Y67D01*
X757Y67D02*
X764Y67D01*
X800Y67D02*
X807Y67D01*
X0Y66D02*
X7Y66D01*
X166Y66D02*
X173Y66D01*
X305Y66D02*
X315Y66D01*
X464Y66D02*
X475Y66D01*
X584Y66D02*
X592Y66D01*
X756Y66D02*
X764Y66D01*
X800Y66D02*
X807Y66D01*
X0Y65D02*
X7Y65D01*
X165Y65D02*
X174Y65D01*
X306Y65D02*
X316Y65D01*
X464Y65D02*
X474Y65D01*
X584Y65D02*
X592Y65D01*
X756Y65D02*
X763Y65D01*
X800Y65D02*
X807Y65D01*
X0Y64D02*
X7Y64D01*
X165Y64D02*
X174Y64D01*
X306Y64D02*
X317Y64D01*
X463Y64D02*
X473Y64D01*
X585Y64D02*
X593Y64D01*
X755Y64D02*
X763Y64D01*
X800Y64D02*
X807Y64D01*
X0Y63D02*
X7Y63D01*
X165Y63D02*
X174Y63D01*
X307Y63D02*
X318Y63D01*
X462Y63D02*
X473Y63D01*
X585Y63D02*
X593Y63D01*
X754Y63D02*
X762Y63D01*
X800Y63D02*
X807Y63D01*
X0Y62D02*
X7Y62D01*
X165Y62D02*
X174Y62D01*
X307Y62D02*
X319Y62D01*
X461Y62D02*
X472Y62D01*
X586Y62D02*
X594Y62D01*
X754Y62D02*
X762Y62D01*
X800Y62D02*
X807Y62D01*
X0Y61D02*
X7Y61D01*
X165Y61D02*
X174Y61D01*
X308Y61D02*
X319Y61D01*
X460Y61D02*
X472Y61D01*
X587Y61D02*
X595Y61D01*
X753Y61D02*
X761Y61D01*
X800Y61D02*
X807Y61D01*
X0Y60D02*
X7Y60D01*
X165Y60D02*
X174Y60D01*
X309Y60D02*
X320Y60D01*
X459Y60D02*
X471Y60D01*
X587Y60D02*
X595Y60D01*
X752Y60D02*
X761Y60D01*
X800Y60D02*
X807Y60D01*
X0Y59D02*
X7Y59D01*
X165Y59D02*
X174Y59D01*
X310Y59D02*
X322Y59D01*
X458Y59D02*
X470Y59D01*
X588Y59D02*
X596Y59D01*
X752Y59D02*
X760Y59D01*
X800Y59D02*
X807Y59D01*
X0Y58D02*
X7Y58D01*
X165Y58D02*
X174Y58D01*
X310Y58D02*
X323Y58D01*
X457Y58D02*
X469Y58D01*
X588Y58D02*
X597Y58D01*
X751Y58D02*
X759Y58D01*
X800Y58D02*
X807Y58D01*
X0Y57D02*
X7Y57D01*
X165Y57D02*
X174Y57D01*
X311Y57D02*
X324Y57D01*
X456Y57D02*
X469Y57D01*
X589Y57D02*
X598Y57D01*
X750Y57D02*
X759Y57D01*
X800Y57D02*
X807Y57D01*
X0Y56D02*
X7Y56D01*
X165Y56D02*
X174Y56D01*
X312Y56D02*
X325Y56D01*
X455Y56D02*
X468Y56D01*
X590Y56D02*
X599Y56D01*
X749Y56D02*
X758Y56D01*
X800Y56D02*
X807Y56D01*
X0Y55D02*
X7Y55D01*
X165Y55D02*
X174Y55D01*
X313Y55D02*
X326Y55D01*
X454Y55D02*
X467Y55D01*
X591Y55D02*
X600Y55D01*
X748Y55D02*
X757Y55D01*
X800Y55D02*
X807Y55D01*
X0Y54D02*
X7Y54D01*
X165Y54D02*
X174Y54D01*
X314Y54D02*
X328Y54D01*
X452Y54D02*
X466Y54D01*
X591Y54D02*
X601Y54D01*
X747Y54D02*
X756Y54D01*
X800Y54D02*
X807Y54D01*
X0Y53D02*
X7Y53D01*
X165Y53D02*
X174Y53D01*
X315Y53D02*
X329Y53D01*
X451Y53D02*
X465Y53D01*
X592Y53D02*
X602Y53D01*
X746Y53D02*
X756Y53D01*
X800Y53D02*
X807Y53D01*
X0Y52D02*
X7Y52D01*
X165Y52D02*
X174Y52D01*
X316Y52D02*
X331Y52D01*
X449Y52D02*
X464Y52D01*
X593Y52D02*
X603Y52D01*
X745Y52D02*
X755Y52D01*
X800Y52D02*
X807Y52D01*
X0Y51D02*
X7Y51D01*
X165Y51D02*
X174Y51D01*
X317Y51D02*
X332Y51D01*
X448Y51D02*
X463Y51D01*
X594Y51D02*
X604Y51D01*
X744Y51D02*
X754Y51D01*
X800Y51D02*
X807Y51D01*
X0Y50D02*
X7Y50D01*
X165Y50D02*
X174Y50D01*
X318Y50D02*
X334Y50D01*
X446Y50D02*
X462Y50D01*
X595Y50D02*
X605Y50D01*
X743Y50D02*
X753Y50D01*
X800Y50D02*
X807Y50D01*
X0Y49D02*
X7Y49D01*
X165Y49D02*
X174Y49D01*
X319Y49D02*
X336Y49D01*
X444Y49D02*
X461Y49D01*
X596Y49D02*
X606Y49D01*
X742Y49D02*
X752Y49D01*
X800Y49D02*
X807Y49D01*
X0Y48D02*
X7Y48D01*
X149Y48D02*
X190Y48D01*
X320Y48D02*
X337Y48D01*
X442Y48D02*
X460Y48D01*
X597Y48D02*
X608Y48D01*
X740Y48D02*
X751Y48D01*
X800Y48D02*
X807Y48D01*
X0Y47D02*
X7Y47D01*
X147Y47D02*
X192Y47D01*
X321Y47D02*
X339Y47D01*
X440Y47D02*
X458Y47D01*
X598Y47D02*
X609Y47D01*
X739Y47D02*
X750Y47D01*
X800Y47D02*
X807Y47D01*
X0Y46D02*
X7Y46D01*
X146Y46D02*
X193Y46D01*
X323Y46D02*
X342Y46D01*
X438Y46D02*
X457Y46D01*
X599Y46D02*
X611Y46D01*
X737Y46D02*
X749Y46D01*
X800Y46D02*
X807Y46D01*
X0Y45D02*
X7Y45D01*
X146Y45D02*
X194Y45D01*
X324Y45D02*
X344Y45D01*
X436Y45D02*
X456Y45D01*
X600Y45D02*
X613Y45D01*
X735Y45D02*
X748Y45D01*
X800Y45D02*
X807Y45D01*
X0Y44D02*
X7Y44D01*
X145Y44D02*
X194Y44D01*
X326Y44D02*
X346Y44D01*
X433Y44D02*
X454Y44D01*
X601Y44D02*
X614Y44D01*
X733Y44D02*
X746Y44D01*
X800Y44D02*
X807Y44D01*
X0Y43D02*
X7Y43D01*
X145Y43D02*
X194Y43D01*
X327Y43D02*
X349Y43D01*
X431Y43D02*
X453Y43D01*
X603Y43D02*
X617Y43D01*
X731Y43D02*
X745Y43D01*
X800Y43D02*
X807Y43D01*
X0Y42D02*
X7Y42D01*
X145Y42D02*
X194Y42D01*
X329Y42D02*
X352Y42D01*
X428Y42D02*
X451Y42D01*
X604Y42D02*
X619Y42D01*
X729Y42D02*
X744Y42D01*
X800Y42D02*
X807Y42D01*
X0Y41D02*
X7Y41D01*
X47Y41D02*
X91Y41D01*
X146Y41D02*
X193Y41D01*
X330Y41D02*
X355Y41D01*
X425Y41D02*
X449Y41D01*
X605Y41D02*
X622Y41D01*
X726Y41D02*
X742Y41D01*
X800Y41D02*
X807Y41D01*
X0Y40D02*
X7Y40D01*
X46Y40D02*
X92Y40D01*
X146Y40D02*
X193Y40D01*
X332Y40D02*
X359Y40D01*
X421Y40D02*
X448Y40D01*
X607Y40D02*
X626Y40D01*
X722Y40D02*
X741Y40D01*
X800Y40D02*
X807Y40D01*
X0Y39D02*
X7Y39D01*
X45Y39D02*
X93Y39D01*
X148Y39D02*
X192Y39D01*
X334Y39D02*
X363Y39D01*
X417Y39D02*
X446Y39D01*
X609Y39D02*
X632Y39D01*
X716Y39D02*
X739Y39D01*
X800Y39D02*
X807Y39D01*
X0Y38D02*
X7Y38D01*
X45Y38D02*
X93Y38D01*
X165Y38D02*
X174Y38D01*
X336Y38D02*
X369Y38D01*
X411Y38D02*
X444Y38D01*
X610Y38D02*
X634Y38D01*
X714Y38D02*
X737Y38D01*
X800Y38D02*
X807Y38D01*
X0Y37D02*
X7Y37D01*
X45Y37D02*
X93Y37D01*
X165Y37D02*
X174Y37D01*
X338Y37D02*
X376Y37D01*
X403Y37D02*
X441Y37D01*
X612Y37D02*
X634Y37D01*
X714Y37D02*
X736Y37D01*
X800Y37D02*
X807Y37D01*
X0Y36D02*
X7Y36D01*
X45Y36D02*
X93Y36D01*
X165Y36D02*
X174Y36D01*
X340Y36D02*
X439Y36D01*
X614Y36D02*
X634Y36D01*
X714Y36D02*
X733Y36D01*
X800Y36D02*
X807Y36D01*
X0Y35D02*
X7Y35D01*
X45Y35D02*
X93Y35D01*
X165Y35D02*
X174Y35D01*
X343Y35D02*
X437Y35D01*
X617Y35D02*
X634Y35D01*
X714Y35D02*
X731Y35D01*
X800Y35D02*
X807Y35D01*
X0Y34D02*
X7Y34D01*
X45Y34D02*
X93Y34D01*
X165Y34D02*
X174Y34D01*
X346Y34D02*
X434Y34D01*
X619Y34D02*
X634Y34D01*
X714Y34D02*
X729Y34D01*
X800Y34D02*
X807Y34D01*
X0Y33D02*
X7Y33D01*
X45Y33D02*
X93Y33D01*
X165Y33D02*
X174Y33D01*
X348Y33D02*
X431Y33D01*
X622Y33D02*
X634Y33D01*
X714Y33D02*
X725Y33D01*
X800Y33D02*
X807Y33D01*
X0Y32D02*
X7Y32D01*
X45Y32D02*
X93Y32D01*
X165Y32D02*
X174Y32D01*
X352Y32D02*
X428Y32D01*
X626Y32D02*
X634Y32D01*
X714Y32D02*
X721Y32D01*
X800Y32D02*
X807Y32D01*
X0Y31D02*
X7Y31D01*
X45Y31D02*
X93Y31D01*
X165Y31D02*
X174Y31D01*
X355Y31D02*
X425Y31D01*
X633Y31D02*
X634Y31D01*
X714Y31D02*
X715Y31D01*
X800Y31D02*
X807Y31D01*
X0Y30D02*
X7Y30D01*
X45Y30D02*
X93Y30D01*
X165Y30D02*
X174Y30D01*
X359Y30D02*
X421Y30D01*
X800Y30D02*
X807Y30D01*
X0Y29D02*
X7Y29D01*
X46Y29D02*
X92Y29D01*
X165Y29D02*
X174Y29D01*
X364Y29D02*
X416Y29D01*
X800Y29D02*
X807Y29D01*
X0Y28D02*
X7Y28D01*
X48Y28D02*
X90Y28D01*
X165Y28D02*
X174Y28D01*
X369Y28D02*
X410Y28D01*
X800Y28D02*
X807Y28D01*
X0Y27D02*
X7Y27D01*
X165Y27D02*
X174Y27D01*
X378Y27D02*
X402Y27D01*
X800Y27D02*
X807Y27D01*
X0Y26D02*
X7Y26D01*
X165Y26D02*
X174Y26D01*
X800Y26D02*
X807Y26D01*
X0Y25D02*
X7Y25D01*
X165Y25D02*
X174Y25D01*
X800Y25D02*
X807Y25D01*
X0Y24D02*
X7Y24D01*
X165Y24D02*
X174Y24D01*
X800Y24D02*
X807Y24D01*
X0Y23D02*
X7Y23D01*
X165Y23D02*
X174Y23D01*
X800Y23D02*
X807Y23D01*
X0Y22D02*
X7Y22D01*
X165Y22D02*
X174Y22D01*
X800Y22D02*
X807Y22D01*
X0Y21D02*
X7Y21D01*
X166Y21D02*
X173Y21D01*
X800Y21D02*
X807Y21D01*
X0Y20D02*
X7Y20D01*
X166Y20D02*
X173Y20D01*
X800Y20D02*
X807Y20D01*
X0Y19D02*
X7Y19D01*
X168Y19D02*
X171Y19D01*
X800Y19D02*
X807Y19D01*
X0Y18D02*
X7Y18D01*
X800Y18D02*
X807Y18D01*
X0Y17D02*
X7Y17D01*
X800Y17D02*
X807Y17D01*
X0Y16D02*
X7Y16D01*
X800Y16D02*
X807Y16D01*
X0Y15D02*
X7Y15D01*
X800Y15D02*
X807Y15D01*
X0Y14D02*
X7Y14D01*
X800Y14D02*
X807Y14D01*
X0Y13D02*
X7Y13D01*
X800Y13D02*
X807Y13D01*
X0Y12D02*
X7Y12D01*
X800Y12D02*
X807Y12D01*
X0Y11D02*
X7Y11D01*
X800Y11D02*
X807Y11D01*
X0Y10D02*
X7Y10D01*
X800Y10D02*
X807Y10D01*
X0Y9D02*
X7Y9D01*
X800Y9D02*
X807Y9D01*
X0Y8D02*
X807Y8D01*
X0Y7D02*
X807Y7D01*
X0Y6D02*
X807Y6D01*
X0Y5D02*
X807Y5D01*
X0Y4D02*
X807Y4D01*
X0Y3D02*
X807Y3D01*
X0Y2D02*
X807Y2D01*
X0Y1D02*
X807Y1D01*
D02*
G04 End of Silk1*
M02*