G04 MADE WITH FRITZING*
G04 WWW.FRITZING.ORG*
G04 DOUBLE SIDED*
G04 HOLES PLATED*
G04 CONTOUR ON CENTER OF CONTOUR VECTOR*
%ASAXBY*%
%FSLAX23Y23*%
%MOIN*%
%OFA0B0*%
%SFA1.0B1.0*%
%ADD10R,0.808531X0.421496X0.792531X0.405496*%
%ADD11C,0.008000*%
%ADD12R,0.001000X0.001000*%
%LNSILK0*%
G90*
G70*
G54D11*
X4Y417D02*
X805Y417D01*
X805Y4D01*
X4Y4D01*
X4Y417D01*
D02*
G54D12*
X333Y401D02*
X337Y401D01*
X369Y401D02*
X406Y401D01*
X438Y401D02*
X474Y401D01*
X596Y401D02*
X615Y401D01*
X648Y401D02*
X691Y401D01*
X332Y400D02*
X338Y400D01*
X368Y400D02*
X407Y400D01*
X437Y400D02*
X474Y400D01*
X592Y400D02*
X617Y400D01*
X645Y400D02*
X692Y400D01*
X757Y400D02*
X762Y400D01*
X331Y399D02*
X339Y399D01*
X366Y399D02*
X409Y399D01*
X436Y399D02*
X474Y399D01*
X589Y399D02*
X618Y399D01*
X644Y399D02*
X692Y399D01*
X756Y399D02*
X763Y399D01*
X331Y398D02*
X339Y398D01*
X365Y398D02*
X410Y398D01*
X436Y398D02*
X474Y398D01*
X588Y398D02*
X619Y398D01*
X643Y398D02*
X692Y398D01*
X755Y398D02*
X764Y398D01*
X331Y397D02*
X340Y397D01*
X365Y397D02*
X410Y397D01*
X435Y397D02*
X474Y397D01*
X587Y397D02*
X619Y397D01*
X643Y397D02*
X692Y397D01*
X755Y397D02*
X764Y397D01*
X331Y396D02*
X340Y396D01*
X364Y396D02*
X411Y396D01*
X436Y396D02*
X474Y396D01*
X586Y396D02*
X619Y396D01*
X643Y396D02*
X692Y396D01*
X755Y396D02*
X764Y396D01*
X331Y395D02*
X340Y395D01*
X364Y395D02*
X411Y395D01*
X436Y395D02*
X474Y395D01*
X585Y395D02*
X619Y395D01*
X643Y395D02*
X692Y395D01*
X755Y395D02*
X764Y395D01*
X331Y394D02*
X340Y394D01*
X363Y394D02*
X412Y394D01*
X436Y394D02*
X474Y394D01*
X584Y394D02*
X619Y394D01*
X643Y394D02*
X692Y394D01*
X755Y394D02*
X764Y394D01*
X331Y393D02*
X340Y393D01*
X363Y393D02*
X412Y393D01*
X437Y393D02*
X474Y393D01*
X584Y393D02*
X618Y393D01*
X644Y393D02*
X692Y393D01*
X755Y393D02*
X764Y393D01*
X331Y392D02*
X340Y392D01*
X363Y392D02*
X412Y392D01*
X439Y392D02*
X474Y392D01*
X583Y392D02*
X617Y392D01*
X645Y392D02*
X692Y392D01*
X755Y392D02*
X764Y392D01*
X331Y391D02*
X340Y391D01*
X363Y391D02*
X372Y391D01*
X403Y391D02*
X412Y391D01*
X465Y391D02*
X474Y391D01*
X583Y391D02*
X615Y391D01*
X648Y391D02*
X692Y391D01*
X755Y391D02*
X764Y391D01*
X331Y390D02*
X340Y390D01*
X363Y390D02*
X372Y390D01*
X403Y390D02*
X412Y390D01*
X465Y390D02*
X474Y390D01*
X582Y390D02*
X593Y390D01*
X600Y390D02*
X610Y390D01*
X683Y390D02*
X692Y390D01*
X755Y390D02*
X764Y390D01*
X331Y389D02*
X340Y389D01*
X363Y389D02*
X372Y389D01*
X403Y389D02*
X412Y389D01*
X465Y389D02*
X474Y389D01*
X582Y389D02*
X592Y389D01*
X600Y389D02*
X610Y389D01*
X683Y389D02*
X692Y389D01*
X755Y389D02*
X764Y389D01*
X331Y388D02*
X340Y388D01*
X363Y388D02*
X372Y388D01*
X403Y388D02*
X412Y388D01*
X465Y388D02*
X474Y388D01*
X581Y388D02*
X591Y388D01*
X600Y388D02*
X610Y388D01*
X683Y388D02*
X692Y388D01*
X755Y388D02*
X764Y388D01*
X173Y387D02*
X177Y387D01*
X331Y387D02*
X340Y387D01*
X363Y387D02*
X372Y387D01*
X403Y387D02*
X412Y387D01*
X465Y387D02*
X474Y387D01*
X581Y387D02*
X591Y387D01*
X600Y387D02*
X610Y387D01*
X683Y387D02*
X692Y387D01*
X755Y387D02*
X764Y387D01*
X172Y386D02*
X178Y386D01*
X331Y386D02*
X340Y386D01*
X363Y386D02*
X372Y386D01*
X403Y386D02*
X412Y386D01*
X465Y386D02*
X474Y386D01*
X580Y386D02*
X590Y386D01*
X600Y386D02*
X610Y386D01*
X755Y386D02*
X764Y386D01*
X171Y385D02*
X179Y385D01*
X331Y385D02*
X340Y385D01*
X363Y385D02*
X372Y385D01*
X403Y385D02*
X412Y385D01*
X465Y385D02*
X474Y385D01*
X580Y385D02*
X590Y385D01*
X600Y385D02*
X610Y385D01*
X755Y385D02*
X764Y385D01*
X171Y384D02*
X179Y384D01*
X331Y384D02*
X340Y384D01*
X363Y384D02*
X372Y384D01*
X403Y384D02*
X412Y384D01*
X465Y384D02*
X474Y384D01*
X579Y384D02*
X589Y384D01*
X600Y384D02*
X610Y384D01*
X755Y384D02*
X764Y384D01*
X171Y383D02*
X180Y383D01*
X331Y383D02*
X340Y383D01*
X363Y383D02*
X372Y383D01*
X403Y383D02*
X412Y383D01*
X465Y383D02*
X474Y383D01*
X579Y383D02*
X589Y383D01*
X600Y383D02*
X610Y383D01*
X755Y383D02*
X764Y383D01*
X170Y382D02*
X180Y382D01*
X331Y382D02*
X340Y382D01*
X363Y382D02*
X372Y382D01*
X403Y382D02*
X412Y382D01*
X465Y382D02*
X474Y382D01*
X578Y382D02*
X588Y382D01*
X600Y382D02*
X610Y382D01*
X755Y382D02*
X764Y382D01*
X170Y381D02*
X180Y381D01*
X331Y381D02*
X340Y381D01*
X363Y381D02*
X372Y381D01*
X403Y381D02*
X412Y381D01*
X465Y381D02*
X474Y381D01*
X578Y381D02*
X588Y381D01*
X600Y381D02*
X610Y381D01*
X755Y381D02*
X764Y381D01*
X170Y380D02*
X180Y380D01*
X299Y380D02*
X302Y380D01*
X331Y380D02*
X340Y380D01*
X363Y380D02*
X372Y380D01*
X403Y380D02*
X412Y380D01*
X465Y380D02*
X474Y380D01*
X577Y380D02*
X587Y380D01*
X600Y380D02*
X610Y380D01*
X755Y380D02*
X764Y380D01*
X170Y379D02*
X180Y379D01*
X297Y379D02*
X304Y379D01*
X331Y379D02*
X340Y379D01*
X363Y379D02*
X372Y379D01*
X403Y379D02*
X412Y379D01*
X465Y379D02*
X474Y379D01*
X577Y379D02*
X587Y379D01*
X600Y379D02*
X610Y379D01*
X755Y379D02*
X764Y379D01*
X170Y378D02*
X180Y378D01*
X297Y378D02*
X305Y378D01*
X331Y378D02*
X340Y378D01*
X363Y378D02*
X372Y378D01*
X403Y378D02*
X412Y378D01*
X465Y378D02*
X474Y378D01*
X576Y378D02*
X586Y378D01*
X600Y378D02*
X610Y378D01*
X755Y378D02*
X764Y378D01*
X170Y377D02*
X180Y377D01*
X296Y377D02*
X306Y377D01*
X331Y377D02*
X340Y377D01*
X363Y377D02*
X372Y377D01*
X403Y377D02*
X412Y377D01*
X465Y377D02*
X474Y377D01*
X576Y377D02*
X586Y377D01*
X600Y377D02*
X610Y377D01*
X755Y377D02*
X764Y377D01*
X170Y376D02*
X180Y376D01*
X296Y376D02*
X307Y376D01*
X331Y376D02*
X340Y376D01*
X363Y376D02*
X372Y376D01*
X403Y376D02*
X412Y376D01*
X465Y376D02*
X474Y376D01*
X575Y376D02*
X585Y376D01*
X600Y376D02*
X610Y376D01*
X755Y376D02*
X764Y376D01*
X170Y375D02*
X180Y375D01*
X296Y375D02*
X308Y375D01*
X331Y375D02*
X340Y375D01*
X363Y375D02*
X372Y375D01*
X403Y375D02*
X412Y375D01*
X465Y375D02*
X474Y375D01*
X575Y375D02*
X585Y375D01*
X600Y375D02*
X610Y375D01*
X755Y375D02*
X764Y375D01*
X170Y374D02*
X180Y374D01*
X296Y374D02*
X310Y374D01*
X331Y374D02*
X340Y374D01*
X363Y374D02*
X372Y374D01*
X403Y374D02*
X412Y374D01*
X465Y374D02*
X474Y374D01*
X574Y374D02*
X584Y374D01*
X600Y374D02*
X610Y374D01*
X755Y374D02*
X764Y374D01*
X170Y373D02*
X180Y373D01*
X297Y373D02*
X311Y373D01*
X331Y373D02*
X340Y373D01*
X363Y373D02*
X372Y373D01*
X403Y373D02*
X412Y373D01*
X465Y373D02*
X474Y373D01*
X574Y373D02*
X584Y373D01*
X600Y373D02*
X610Y373D01*
X755Y373D02*
X764Y373D01*
X170Y372D02*
X180Y372D01*
X297Y372D02*
X312Y372D01*
X331Y372D02*
X340Y372D01*
X363Y372D02*
X372Y372D01*
X403Y372D02*
X412Y372D01*
X465Y372D02*
X474Y372D01*
X573Y372D02*
X583Y372D01*
X600Y372D02*
X610Y372D01*
X755Y372D02*
X764Y372D01*
X170Y371D02*
X180Y371D01*
X299Y371D02*
X313Y371D01*
X331Y371D02*
X340Y371D01*
X363Y371D02*
X372Y371D01*
X403Y371D02*
X412Y371D01*
X465Y371D02*
X474Y371D01*
X573Y371D02*
X583Y371D01*
X600Y371D02*
X610Y371D01*
X755Y371D02*
X764Y371D01*
X170Y370D02*
X180Y370D01*
X300Y370D02*
X314Y370D01*
X331Y370D02*
X340Y370D01*
X363Y370D02*
X372Y370D01*
X403Y370D02*
X412Y370D01*
X465Y370D02*
X474Y370D01*
X572Y370D02*
X582Y370D01*
X600Y370D02*
X610Y370D01*
X755Y370D02*
X764Y370D01*
X170Y369D02*
X180Y369D01*
X301Y369D02*
X315Y369D01*
X331Y369D02*
X340Y369D01*
X363Y369D02*
X372Y369D01*
X403Y369D02*
X412Y369D01*
X465Y369D02*
X474Y369D01*
X572Y369D02*
X582Y369D01*
X600Y369D02*
X610Y369D01*
X755Y369D02*
X764Y369D01*
X170Y368D02*
X180Y368D01*
X302Y368D02*
X317Y368D01*
X331Y368D02*
X340Y368D01*
X363Y368D02*
X372Y368D01*
X403Y368D02*
X412Y368D01*
X465Y368D02*
X474Y368D01*
X572Y368D02*
X581Y368D01*
X600Y368D02*
X610Y368D01*
X755Y368D02*
X764Y368D01*
X153Y367D02*
X197Y367D01*
X303Y367D02*
X318Y367D01*
X331Y367D02*
X340Y367D01*
X363Y367D02*
X372Y367D01*
X403Y367D02*
X412Y367D01*
X441Y367D02*
X474Y367D01*
X571Y367D02*
X581Y367D01*
X600Y367D02*
X610Y367D01*
X755Y367D02*
X764Y367D01*
X152Y366D02*
X198Y366D01*
X304Y366D02*
X319Y366D01*
X331Y366D02*
X340Y366D01*
X363Y366D02*
X372Y366D01*
X403Y366D02*
X412Y366D01*
X440Y366D02*
X474Y366D01*
X571Y366D02*
X581Y366D01*
X600Y366D02*
X610Y366D01*
X755Y366D02*
X764Y366D01*
X151Y365D02*
X199Y365D01*
X306Y365D02*
X320Y365D01*
X331Y365D02*
X340Y365D01*
X363Y365D02*
X372Y365D01*
X403Y365D02*
X412Y365D01*
X439Y365D02*
X474Y365D01*
X571Y365D02*
X580Y365D01*
X600Y365D02*
X610Y365D01*
X755Y365D02*
X764Y365D01*
X42Y364D02*
X83Y364D01*
X151Y364D02*
X199Y364D01*
X307Y364D02*
X321Y364D01*
X331Y364D02*
X340Y364D01*
X363Y364D02*
X372Y364D01*
X403Y364D02*
X412Y364D01*
X438Y364D02*
X474Y364D01*
X571Y364D02*
X580Y364D01*
X600Y364D02*
X610Y364D01*
X755Y364D02*
X764Y364D01*
X40Y363D02*
X85Y363D01*
X151Y363D02*
X199Y363D01*
X308Y363D02*
X322Y363D01*
X331Y363D02*
X340Y363D01*
X363Y363D02*
X372Y363D01*
X403Y363D02*
X412Y363D01*
X437Y363D02*
X474Y363D01*
X571Y363D02*
X580Y363D01*
X600Y363D02*
X610Y363D01*
X755Y363D02*
X764Y363D01*
X39Y362D02*
X86Y362D01*
X151Y362D02*
X199Y362D01*
X309Y362D02*
X324Y362D01*
X331Y362D02*
X340Y362D01*
X363Y362D02*
X372Y362D01*
X403Y362D02*
X412Y362D01*
X436Y362D02*
X474Y362D01*
X571Y362D02*
X580Y362D01*
X600Y362D02*
X610Y362D01*
X755Y362D02*
X764Y362D01*
X38Y361D02*
X86Y361D01*
X151Y361D02*
X199Y361D01*
X310Y361D02*
X325Y361D01*
X331Y361D02*
X340Y361D01*
X363Y361D02*
X372Y361D01*
X403Y361D02*
X412Y361D01*
X436Y361D02*
X474Y361D01*
X571Y361D02*
X580Y361D01*
X600Y361D02*
X610Y361D01*
X755Y361D02*
X764Y361D01*
X38Y360D02*
X87Y360D01*
X152Y360D02*
X198Y360D01*
X311Y360D02*
X326Y360D01*
X331Y360D02*
X340Y360D01*
X363Y360D02*
X372Y360D01*
X403Y360D02*
X412Y360D01*
X436Y360D02*
X474Y360D01*
X571Y360D02*
X580Y360D01*
X600Y360D02*
X610Y360D01*
X755Y360D02*
X764Y360D01*
X38Y359D02*
X87Y359D01*
X153Y359D02*
X197Y359D01*
X313Y359D02*
X327Y359D01*
X331Y359D02*
X340Y359D01*
X363Y359D02*
X372Y359D01*
X403Y359D02*
X412Y359D01*
X435Y359D02*
X474Y359D01*
X571Y359D02*
X580Y359D01*
X600Y359D02*
X610Y359D01*
X755Y359D02*
X764Y359D01*
X38Y358D02*
X87Y358D01*
X155Y358D02*
X195Y358D01*
X314Y358D02*
X328Y358D01*
X331Y358D02*
X340Y358D01*
X363Y358D02*
X372Y358D01*
X403Y358D02*
X412Y358D01*
X435Y358D02*
X474Y358D01*
X571Y358D02*
X581Y358D01*
X600Y358D02*
X610Y358D01*
X755Y358D02*
X764Y358D01*
X38Y357D02*
X87Y357D01*
X170Y357D02*
X180Y357D01*
X315Y357D02*
X340Y357D01*
X363Y357D02*
X372Y357D01*
X403Y357D02*
X412Y357D01*
X435Y357D02*
X444Y357D01*
X571Y357D02*
X581Y357D01*
X600Y357D02*
X610Y357D01*
X755Y357D02*
X764Y357D01*
X38Y356D02*
X87Y356D01*
X170Y356D02*
X180Y356D01*
X316Y356D02*
X340Y356D01*
X363Y356D02*
X372Y356D01*
X403Y356D02*
X412Y356D01*
X435Y356D02*
X444Y356D01*
X572Y356D02*
X581Y356D01*
X600Y356D02*
X610Y356D01*
X755Y356D02*
X764Y356D01*
X38Y355D02*
X87Y355D01*
X170Y355D02*
X180Y355D01*
X317Y355D02*
X340Y355D01*
X363Y355D02*
X372Y355D01*
X403Y355D02*
X412Y355D01*
X435Y355D02*
X444Y355D01*
X572Y355D02*
X582Y355D01*
X600Y355D02*
X610Y355D01*
X755Y355D02*
X764Y355D01*
X38Y354D02*
X87Y354D01*
X170Y354D02*
X180Y354D01*
X317Y354D02*
X340Y354D01*
X363Y354D02*
X372Y354D01*
X403Y354D02*
X412Y354D01*
X435Y354D02*
X444Y354D01*
X572Y354D02*
X582Y354D01*
X600Y354D02*
X610Y354D01*
X755Y354D02*
X764Y354D01*
X38Y353D02*
X86Y353D01*
X170Y353D02*
X180Y353D01*
X316Y353D02*
X340Y353D01*
X363Y353D02*
X372Y353D01*
X403Y353D02*
X412Y353D01*
X435Y353D02*
X444Y353D01*
X573Y353D02*
X583Y353D01*
X600Y353D02*
X610Y353D01*
X755Y353D02*
X764Y353D01*
X39Y352D02*
X86Y352D01*
X170Y352D02*
X180Y352D01*
X315Y352D02*
X340Y352D01*
X363Y352D02*
X372Y352D01*
X403Y352D02*
X412Y352D01*
X435Y352D02*
X444Y352D01*
X573Y352D02*
X583Y352D01*
X600Y352D02*
X610Y352D01*
X755Y352D02*
X764Y352D01*
X40Y351D02*
X85Y351D01*
X170Y351D02*
X180Y351D01*
X314Y351D02*
X340Y351D01*
X363Y351D02*
X372Y351D01*
X403Y351D02*
X412Y351D01*
X435Y351D02*
X444Y351D01*
X574Y351D02*
X584Y351D01*
X600Y351D02*
X610Y351D01*
X755Y351D02*
X764Y351D01*
X42Y350D02*
X83Y350D01*
X170Y350D02*
X180Y350D01*
X313Y350D02*
X340Y350D01*
X363Y350D02*
X372Y350D01*
X403Y350D02*
X412Y350D01*
X435Y350D02*
X444Y350D01*
X574Y350D02*
X584Y350D01*
X600Y350D02*
X610Y350D01*
X755Y350D02*
X764Y350D01*
X170Y349D02*
X180Y349D01*
X312Y349D02*
X340Y349D01*
X363Y349D02*
X372Y349D01*
X403Y349D02*
X412Y349D01*
X435Y349D02*
X444Y349D01*
X575Y349D02*
X585Y349D01*
X600Y349D02*
X610Y349D01*
X755Y349D02*
X764Y349D01*
X170Y348D02*
X180Y348D01*
X310Y348D02*
X340Y348D01*
X363Y348D02*
X372Y348D01*
X403Y348D02*
X412Y348D01*
X435Y348D02*
X444Y348D01*
X575Y348D02*
X585Y348D01*
X600Y348D02*
X610Y348D01*
X755Y348D02*
X764Y348D01*
X170Y347D02*
X180Y347D01*
X309Y347D02*
X324Y347D01*
X327Y347D02*
X340Y347D01*
X363Y347D02*
X372Y347D01*
X403Y347D02*
X412Y347D01*
X435Y347D02*
X444Y347D01*
X576Y347D02*
X586Y347D01*
X600Y347D02*
X610Y347D01*
X755Y347D02*
X764Y347D01*
X170Y346D02*
X180Y346D01*
X308Y346D02*
X323Y346D01*
X328Y346D02*
X340Y346D01*
X363Y346D02*
X372Y346D01*
X403Y346D02*
X412Y346D01*
X435Y346D02*
X444Y346D01*
X576Y346D02*
X586Y346D01*
X600Y346D02*
X610Y346D01*
X755Y346D02*
X764Y346D01*
X170Y345D02*
X180Y345D01*
X307Y345D02*
X322Y345D01*
X329Y345D02*
X340Y345D01*
X363Y345D02*
X372Y345D01*
X403Y345D02*
X412Y345D01*
X435Y345D02*
X444Y345D01*
X577Y345D02*
X587Y345D01*
X600Y345D02*
X610Y345D01*
X755Y345D02*
X764Y345D01*
X170Y344D02*
X180Y344D01*
X306Y344D02*
X320Y344D01*
X330Y344D02*
X340Y344D01*
X363Y344D02*
X372Y344D01*
X403Y344D02*
X412Y344D01*
X435Y344D02*
X444Y344D01*
X577Y344D02*
X587Y344D01*
X600Y344D02*
X610Y344D01*
X755Y344D02*
X764Y344D01*
X171Y343D02*
X180Y343D01*
X305Y343D02*
X319Y343D01*
X331Y343D02*
X340Y343D01*
X363Y343D02*
X372Y343D01*
X403Y343D02*
X412Y343D01*
X435Y343D02*
X444Y343D01*
X578Y343D02*
X588Y343D01*
X600Y343D02*
X610Y343D01*
X755Y343D02*
X764Y343D01*
X171Y342D02*
X179Y342D01*
X303Y342D02*
X318Y342D01*
X331Y342D02*
X340Y342D01*
X363Y342D02*
X372Y342D01*
X403Y342D02*
X412Y342D01*
X435Y342D02*
X444Y342D01*
X578Y342D02*
X588Y342D01*
X600Y342D02*
X610Y342D01*
X755Y342D02*
X764Y342D01*
X171Y341D02*
X179Y341D01*
X302Y341D02*
X317Y341D01*
X331Y341D02*
X340Y341D01*
X363Y341D02*
X372Y341D01*
X403Y341D02*
X412Y341D01*
X435Y341D02*
X444Y341D01*
X579Y341D02*
X589Y341D01*
X600Y341D02*
X610Y341D01*
X755Y341D02*
X764Y341D01*
X172Y340D02*
X178Y340D01*
X301Y340D02*
X316Y340D01*
X331Y340D02*
X340Y340D01*
X363Y340D02*
X372Y340D01*
X403Y340D02*
X412Y340D01*
X435Y340D02*
X444Y340D01*
X579Y340D02*
X589Y340D01*
X600Y340D02*
X610Y340D01*
X755Y340D02*
X764Y340D01*
X173Y339D02*
X177Y339D01*
X300Y339D02*
X314Y339D01*
X331Y339D02*
X340Y339D01*
X363Y339D02*
X372Y339D01*
X403Y339D02*
X412Y339D01*
X435Y339D02*
X444Y339D01*
X580Y339D02*
X590Y339D01*
X600Y339D02*
X610Y339D01*
X755Y339D02*
X764Y339D01*
X299Y338D02*
X313Y338D01*
X331Y338D02*
X340Y338D01*
X363Y338D02*
X372Y338D01*
X403Y338D02*
X412Y338D01*
X435Y338D02*
X444Y338D01*
X479Y338D02*
X480Y338D01*
X580Y338D02*
X591Y338D01*
X600Y338D02*
X610Y338D01*
X755Y338D02*
X764Y338D01*
X298Y337D02*
X312Y337D01*
X331Y337D02*
X340Y337D01*
X363Y337D02*
X372Y337D01*
X403Y337D02*
X412Y337D01*
X435Y337D02*
X444Y337D01*
X476Y337D02*
X482Y337D01*
X581Y337D02*
X591Y337D01*
X600Y337D02*
X610Y337D01*
X755Y337D02*
X764Y337D01*
X296Y336D02*
X311Y336D01*
X331Y336D02*
X340Y336D01*
X363Y336D02*
X372Y336D01*
X403Y336D02*
X412Y336D01*
X435Y336D02*
X444Y336D01*
X474Y336D02*
X483Y336D01*
X581Y336D02*
X592Y336D01*
X600Y336D02*
X610Y336D01*
X755Y336D02*
X764Y336D01*
X295Y335D02*
X310Y335D01*
X331Y335D02*
X340Y335D01*
X363Y335D02*
X372Y335D01*
X403Y335D02*
X412Y335D01*
X435Y335D02*
X444Y335D01*
X472Y335D02*
X484Y335D01*
X582Y335D02*
X592Y335D01*
X600Y335D02*
X610Y335D01*
X755Y335D02*
X764Y335D01*
X294Y334D02*
X309Y334D01*
X331Y334D02*
X340Y334D01*
X363Y334D02*
X373Y334D01*
X402Y334D02*
X412Y334D01*
X435Y334D02*
X445Y334D01*
X469Y334D02*
X484Y334D01*
X582Y334D02*
X593Y334D01*
X600Y334D02*
X610Y334D01*
X755Y334D02*
X764Y334D01*
X293Y333D02*
X307Y333D01*
X331Y333D02*
X340Y333D01*
X363Y333D02*
X412Y333D01*
X435Y333D02*
X484Y333D01*
X583Y333D02*
X616Y333D01*
X719Y333D02*
X764Y333D01*
X292Y332D02*
X306Y332D01*
X331Y332D02*
X340Y332D01*
X363Y332D02*
X412Y332D01*
X436Y332D02*
X484Y332D01*
X583Y332D02*
X618Y332D01*
X717Y332D02*
X764Y332D01*
X296Y331D02*
X305Y331D01*
X331Y331D02*
X340Y331D01*
X364Y331D02*
X411Y331D01*
X436Y331D02*
X482Y331D01*
X584Y331D02*
X619Y331D01*
X716Y331D02*
X764Y331D01*
X301Y330D02*
X304Y330D01*
X331Y330D02*
X340Y330D01*
X364Y330D02*
X411Y330D01*
X436Y330D02*
X477Y330D01*
X584Y330D02*
X619Y330D01*
X716Y330D02*
X764Y330D01*
X331Y329D02*
X340Y329D01*
X365Y329D02*
X410Y329D01*
X437Y329D02*
X474Y329D01*
X585Y329D02*
X619Y329D01*
X715Y329D02*
X764Y329D01*
X331Y328D02*
X339Y328D01*
X365Y328D02*
X410Y328D01*
X437Y328D02*
X471Y328D01*
X586Y328D02*
X619Y328D01*
X715Y328D02*
X764Y328D01*
X331Y327D02*
X339Y327D01*
X366Y327D02*
X409Y327D01*
X438Y327D02*
X469Y327D01*
X587Y327D02*
X619Y327D01*
X715Y327D02*
X764Y327D01*
X332Y326D02*
X339Y326D01*
X367Y326D02*
X408Y326D01*
X439Y326D02*
X467Y326D01*
X588Y326D02*
X619Y326D01*
X716Y326D02*
X764Y326D01*
X333Y325D02*
X338Y325D01*
X369Y325D02*
X406Y325D01*
X441Y325D02*
X466Y325D01*
X590Y325D02*
X618Y325D01*
X716Y325D02*
X764Y325D01*
X335Y324D02*
X335Y324D01*
X372Y324D02*
X403Y324D01*
X444Y324D02*
X464Y324D01*
X592Y324D02*
X617Y324D01*
X718Y324D02*
X764Y324D01*
X329Y98D02*
X341Y98D01*
X441Y98D02*
X442Y98D01*
X328Y97D02*
X341Y97D01*
X439Y97D02*
X444Y97D01*
X328Y96D02*
X341Y96D01*
X438Y96D02*
X445Y96D01*
X327Y95D02*
X341Y95D01*
X437Y95D02*
X445Y95D01*
X327Y94D02*
X341Y94D01*
X437Y94D02*
X446Y94D01*
X671Y94D02*
X694Y94D01*
X326Y93D02*
X341Y93D01*
X437Y93D02*
X446Y93D01*
X668Y93D02*
X696Y93D01*
X326Y92D02*
X341Y92D01*
X437Y92D02*
X446Y92D01*
X666Y92D02*
X696Y92D01*
X325Y91D02*
X341Y91D01*
X367Y91D02*
X368Y91D01*
X437Y91D02*
X446Y91D01*
X665Y91D02*
X697Y91D01*
X325Y90D02*
X341Y90D01*
X366Y90D02*
X369Y90D01*
X437Y90D02*
X446Y90D01*
X469Y90D02*
X469Y90D01*
X664Y90D02*
X697Y90D01*
X325Y89D02*
X341Y89D01*
X366Y89D02*
X371Y89D01*
X413Y89D02*
X413Y89D01*
X437Y89D02*
X446Y89D01*
X469Y89D02*
X471Y89D01*
X625Y89D02*
X625Y89D01*
X663Y89D02*
X697Y89D01*
X324Y88D02*
X341Y88D01*
X365Y88D02*
X373Y88D01*
X411Y88D02*
X413Y88D01*
X437Y88D02*
X446Y88D01*
X469Y88D02*
X473Y88D01*
X624Y88D02*
X625Y88D01*
X662Y88D02*
X697Y88D01*
X324Y87D02*
X341Y87D01*
X365Y87D02*
X375Y87D01*
X409Y87D02*
X413Y87D01*
X437Y87D02*
X446Y87D01*
X468Y87D02*
X475Y87D01*
X623Y87D02*
X625Y87D01*
X661Y87D02*
X696Y87D01*
X323Y86D02*
X341Y86D01*
X365Y86D02*
X375Y86D01*
X407Y86D02*
X413Y86D01*
X437Y86D02*
X446Y86D01*
X468Y86D02*
X478Y86D01*
X622Y86D02*
X625Y86D01*
X661Y86D02*
X696Y86D01*
X323Y85D02*
X341Y85D01*
X365Y85D02*
X374Y85D01*
X404Y85D02*
X413Y85D01*
X437Y85D02*
X446Y85D01*
X467Y85D02*
X481Y85D01*
X621Y85D02*
X625Y85D01*
X660Y85D02*
X694Y85D01*
X298Y84D02*
X301Y84D01*
X322Y84D02*
X341Y84D01*
X364Y84D02*
X374Y84D01*
X404Y84D02*
X413Y84D01*
X437Y84D02*
X446Y84D01*
X467Y84D02*
X485Y84D01*
X620Y84D02*
X625Y84D01*
X660Y84D02*
X671Y84D01*
X678Y84D02*
X687Y84D01*
X292Y83D02*
X301Y83D01*
X322Y83D02*
X341Y83D01*
X364Y83D02*
X373Y83D01*
X404Y83D02*
X413Y83D01*
X437Y83D02*
X446Y83D01*
X466Y83D02*
X485Y83D01*
X618Y83D02*
X625Y83D01*
X659Y83D02*
X670Y83D01*
X678Y83D02*
X687Y83D01*
X292Y82D02*
X301Y82D01*
X321Y82D02*
X341Y82D01*
X364Y82D02*
X373Y82D01*
X404Y82D02*
X413Y82D01*
X437Y82D02*
X446Y82D01*
X466Y82D02*
X485Y82D01*
X617Y82D02*
X625Y82D01*
X659Y82D02*
X669Y82D01*
X678Y82D02*
X687Y82D01*
X292Y81D02*
X301Y81D01*
X321Y81D02*
X341Y81D01*
X364Y81D02*
X373Y81D01*
X404Y81D02*
X413Y81D01*
X437Y81D02*
X446Y81D01*
X465Y81D02*
X485Y81D01*
X616Y81D02*
X625Y81D01*
X658Y81D02*
X669Y81D01*
X678Y81D02*
X687Y81D01*
X292Y80D02*
X301Y80D01*
X321Y80D02*
X341Y80D01*
X364Y80D02*
X373Y80D01*
X404Y80D02*
X413Y80D01*
X437Y80D02*
X446Y80D01*
X465Y80D02*
X485Y80D01*
X576Y80D02*
X577Y80D01*
X616Y80D02*
X625Y80D01*
X658Y80D02*
X668Y80D01*
X678Y80D02*
X687Y80D01*
X292Y79D02*
X301Y79D01*
X320Y79D02*
X330Y79D01*
X332Y79D02*
X341Y79D01*
X364Y79D02*
X373Y79D01*
X404Y79D02*
X413Y79D01*
X437Y79D02*
X446Y79D01*
X465Y79D02*
X485Y79D01*
X576Y79D02*
X579Y79D01*
X616Y79D02*
X625Y79D01*
X657Y79D02*
X668Y79D01*
X678Y79D02*
X687Y79D01*
X769Y79D02*
X769Y79D01*
X292Y78D02*
X301Y78D01*
X320Y78D02*
X330Y78D01*
X332Y78D02*
X341Y78D01*
X364Y78D02*
X373Y78D01*
X404Y78D02*
X413Y78D01*
X437Y78D02*
X446Y78D01*
X464Y78D02*
X474Y78D01*
X476Y78D02*
X485Y78D01*
X576Y78D02*
X581Y78D01*
X616Y78D02*
X625Y78D01*
X657Y78D02*
X667Y78D01*
X678Y78D02*
X687Y78D01*
X767Y78D02*
X769Y78D01*
X292Y77D02*
X301Y77D01*
X319Y77D02*
X329Y77D01*
X332Y77D02*
X341Y77D01*
X364Y77D02*
X373Y77D01*
X404Y77D02*
X413Y77D01*
X437Y77D02*
X446Y77D01*
X464Y77D02*
X474Y77D01*
X476Y77D02*
X485Y77D01*
X576Y77D02*
X584Y77D01*
X616Y77D02*
X625Y77D01*
X656Y77D02*
X667Y77D01*
X678Y77D02*
X687Y77D01*
X764Y77D02*
X769Y77D01*
X292Y76D02*
X301Y76D01*
X319Y76D02*
X329Y76D01*
X332Y76D02*
X341Y76D01*
X364Y76D02*
X373Y76D01*
X404Y76D02*
X413Y76D01*
X437Y76D02*
X446Y76D01*
X463Y76D02*
X473Y76D01*
X476Y76D02*
X485Y76D01*
X576Y76D02*
X585Y76D01*
X616Y76D02*
X625Y76D01*
X656Y76D02*
X666Y76D01*
X678Y76D02*
X687Y76D01*
X760Y76D02*
X769Y76D01*
X292Y75D02*
X301Y75D01*
X318Y75D02*
X328Y75D01*
X332Y75D02*
X341Y75D01*
X364Y75D02*
X373Y75D01*
X404Y75D02*
X413Y75D01*
X437Y75D02*
X446Y75D01*
X463Y75D02*
X473Y75D01*
X476Y75D02*
X485Y75D01*
X576Y75D02*
X585Y75D01*
X616Y75D02*
X625Y75D01*
X655Y75D02*
X666Y75D01*
X678Y75D02*
X687Y75D01*
X760Y75D02*
X769Y75D01*
X292Y74D02*
X301Y74D01*
X318Y74D02*
X328Y74D01*
X332Y74D02*
X341Y74D01*
X364Y74D02*
X373Y74D01*
X404Y74D02*
X413Y74D01*
X437Y74D02*
X446Y74D01*
X462Y74D02*
X473Y74D01*
X476Y74D02*
X485Y74D01*
X576Y74D02*
X585Y74D01*
X616Y74D02*
X625Y74D01*
X655Y74D02*
X665Y74D01*
X678Y74D02*
X687Y74D01*
X760Y74D02*
X769Y74D01*
X292Y73D02*
X301Y73D01*
X317Y73D02*
X328Y73D01*
X332Y73D02*
X341Y73D01*
X364Y73D02*
X373Y73D01*
X404Y73D02*
X413Y73D01*
X437Y73D02*
X446Y73D01*
X462Y73D02*
X472Y73D01*
X476Y73D02*
X485Y73D01*
X576Y73D02*
X585Y73D01*
X616Y73D02*
X625Y73D01*
X654Y73D02*
X665Y73D01*
X678Y73D02*
X687Y73D01*
X760Y73D02*
X769Y73D01*
X292Y72D02*
X301Y72D01*
X317Y72D02*
X327Y72D01*
X332Y72D02*
X341Y72D01*
X364Y72D02*
X373Y72D01*
X404Y72D02*
X413Y72D01*
X437Y72D02*
X446Y72D01*
X462Y72D02*
X472Y72D01*
X476Y72D02*
X485Y72D01*
X576Y72D02*
X586Y72D01*
X616Y72D02*
X625Y72D01*
X654Y72D02*
X664Y72D01*
X678Y72D02*
X687Y72D01*
X760Y72D02*
X769Y72D01*
X292Y71D02*
X301Y71D01*
X317Y71D02*
X327Y71D01*
X332Y71D02*
X341Y71D01*
X364Y71D02*
X373Y71D01*
X404Y71D02*
X413Y71D01*
X437Y71D02*
X446Y71D01*
X461Y71D02*
X471Y71D01*
X476Y71D02*
X485Y71D01*
X576Y71D02*
X586Y71D01*
X616Y71D02*
X625Y71D01*
X653Y71D02*
X664Y71D01*
X678Y71D02*
X687Y71D01*
X760Y71D02*
X769Y71D01*
X292Y70D02*
X301Y70D01*
X316Y70D02*
X326Y70D01*
X332Y70D02*
X341Y70D01*
X364Y70D02*
X373Y70D01*
X404Y70D02*
X413Y70D01*
X437Y70D02*
X446Y70D01*
X461Y70D02*
X471Y70D01*
X476Y70D02*
X485Y70D01*
X577Y70D02*
X588Y70D01*
X616Y70D02*
X625Y70D01*
X653Y70D02*
X663Y70D01*
X678Y70D02*
X687Y70D01*
X760Y70D02*
X769Y70D01*
X292Y69D02*
X301Y69D01*
X316Y69D02*
X326Y69D01*
X332Y69D02*
X341Y69D01*
X364Y69D02*
X373Y69D01*
X404Y69D02*
X413Y69D01*
X437Y69D02*
X446Y69D01*
X460Y69D02*
X470Y69D01*
X476Y69D02*
X485Y69D01*
X577Y69D02*
X625Y69D01*
X652Y69D02*
X663Y69D01*
X678Y69D02*
X687Y69D01*
X760Y69D02*
X769Y69D01*
X292Y68D02*
X301Y68D01*
X315Y68D02*
X325Y68D01*
X332Y68D02*
X341Y68D01*
X364Y68D02*
X373Y68D01*
X404Y68D02*
X413Y68D01*
X437Y68D02*
X446Y68D01*
X460Y68D02*
X470Y68D01*
X476Y68D02*
X485Y68D01*
X577Y68D02*
X625Y68D01*
X652Y68D02*
X662Y68D01*
X678Y68D02*
X687Y68D01*
X760Y68D02*
X769Y68D01*
X292Y67D02*
X301Y67D01*
X315Y67D02*
X325Y67D01*
X332Y67D02*
X341Y67D01*
X364Y67D02*
X373Y67D01*
X404Y67D02*
X413Y67D01*
X437Y67D02*
X446Y67D01*
X459Y67D02*
X469Y67D01*
X476Y67D02*
X485Y67D01*
X578Y67D02*
X625Y67D01*
X651Y67D02*
X662Y67D01*
X678Y67D02*
X687Y67D01*
X760Y67D02*
X769Y67D01*
X292Y66D02*
X301Y66D01*
X314Y66D02*
X325Y66D01*
X332Y66D02*
X341Y66D01*
X364Y66D02*
X373Y66D01*
X404Y66D02*
X413Y66D01*
X437Y66D02*
X446Y66D01*
X459Y66D02*
X469Y66D01*
X476Y66D02*
X485Y66D01*
X578Y66D02*
X625Y66D01*
X651Y66D02*
X661Y66D01*
X678Y66D02*
X687Y66D01*
X760Y66D02*
X769Y66D01*
X166Y65D02*
X169Y65D01*
X292Y65D02*
X301Y65D01*
X314Y65D02*
X324Y65D01*
X332Y65D02*
X341Y65D01*
X364Y65D02*
X373Y65D01*
X404Y65D02*
X413Y65D01*
X437Y65D02*
X446Y65D01*
X458Y65D02*
X469Y65D01*
X476Y65D02*
X485Y65D01*
X579Y65D02*
X625Y65D01*
X650Y65D02*
X661Y65D01*
X678Y65D02*
X687Y65D01*
X760Y65D02*
X769Y65D01*
X165Y64D02*
X170Y64D01*
X292Y64D02*
X301Y64D01*
X314Y64D02*
X324Y64D01*
X332Y64D02*
X341Y64D01*
X364Y64D02*
X374Y64D01*
X404Y64D02*
X413Y64D01*
X437Y64D02*
X446Y64D01*
X458Y64D02*
X468Y64D01*
X476Y64D02*
X485Y64D01*
X580Y64D02*
X625Y64D01*
X650Y64D02*
X660Y64D01*
X678Y64D02*
X687Y64D01*
X760Y64D02*
X769Y64D01*
X164Y63D02*
X171Y63D01*
X292Y63D02*
X301Y63D01*
X313Y63D02*
X323Y63D01*
X332Y63D02*
X341Y63D01*
X365Y63D02*
X374Y63D01*
X404Y63D02*
X413Y63D01*
X437Y63D02*
X446Y63D01*
X458Y63D02*
X468Y63D01*
X476Y63D02*
X485Y63D01*
X581Y63D02*
X625Y63D01*
X650Y63D02*
X660Y63D01*
X678Y63D02*
X687Y63D01*
X760Y63D02*
X769Y63D01*
X163Y62D02*
X172Y62D01*
X292Y62D02*
X301Y62D01*
X313Y62D02*
X323Y62D01*
X332Y62D02*
X341Y62D01*
X365Y62D02*
X375Y62D01*
X404Y62D02*
X413Y62D01*
X437Y62D02*
X446Y62D01*
X457Y62D02*
X467Y62D01*
X476Y62D02*
X485Y62D01*
X582Y62D02*
X625Y62D01*
X649Y62D02*
X659Y62D01*
X678Y62D02*
X687Y62D01*
X760Y62D02*
X769Y62D01*
X163Y61D02*
X172Y61D01*
X292Y61D02*
X301Y61D01*
X312Y61D02*
X322Y61D01*
X332Y61D02*
X341Y61D01*
X365Y61D02*
X376Y61D01*
X404Y61D02*
X413Y61D01*
X437Y61D02*
X446Y61D01*
X457Y61D02*
X467Y61D01*
X476Y61D02*
X485Y61D01*
X584Y61D02*
X625Y61D01*
X649Y61D02*
X659Y61D01*
X678Y61D02*
X687Y61D01*
X760Y61D02*
X769Y61D01*
X163Y60D02*
X172Y60D01*
X292Y60D02*
X301Y60D01*
X312Y60D02*
X322Y60D01*
X332Y60D02*
X341Y60D01*
X365Y60D02*
X413Y60D01*
X437Y60D02*
X446Y60D01*
X456Y60D02*
X466Y60D01*
X476Y60D02*
X485Y60D01*
X586Y60D02*
X625Y60D01*
X649Y60D02*
X658Y60D01*
X678Y60D02*
X687Y60D01*
X760Y60D02*
X769Y60D01*
X163Y59D02*
X172Y59D01*
X292Y59D02*
X301Y59D01*
X311Y59D02*
X321Y59D01*
X332Y59D02*
X341Y59D01*
X366Y59D02*
X413Y59D01*
X437Y59D02*
X446Y59D01*
X456Y59D02*
X466Y59D01*
X476Y59D02*
X485Y59D01*
X591Y59D02*
X625Y59D01*
X649Y59D02*
X658Y59D01*
X678Y59D02*
X687Y59D01*
X760Y59D02*
X769Y59D01*
X163Y58D02*
X172Y58D01*
X292Y58D02*
X301Y58D01*
X311Y58D02*
X321Y58D01*
X332Y58D02*
X341Y58D01*
X366Y58D02*
X413Y58D01*
X437Y58D02*
X446Y58D01*
X455Y58D02*
X466Y58D01*
X476Y58D02*
X485Y58D01*
X596Y58D02*
X607Y58D01*
X616Y58D02*
X625Y58D01*
X648Y58D02*
X658Y58D01*
X678Y58D02*
X687Y58D01*
X760Y58D02*
X769Y58D01*
X163Y57D02*
X172Y57D01*
X292Y57D02*
X301Y57D01*
X310Y57D02*
X321Y57D01*
X332Y57D02*
X341Y57D01*
X367Y57D02*
X413Y57D01*
X437Y57D02*
X446Y57D01*
X455Y57D02*
X465Y57D01*
X476Y57D02*
X485Y57D01*
X596Y57D02*
X607Y57D01*
X616Y57D02*
X625Y57D01*
X648Y57D02*
X658Y57D01*
X678Y57D02*
X687Y57D01*
X760Y57D02*
X769Y57D01*
X163Y56D02*
X172Y56D01*
X292Y56D02*
X301Y56D01*
X310Y56D02*
X320Y56D01*
X332Y56D02*
X341Y56D01*
X368Y56D02*
X413Y56D01*
X437Y56D02*
X446Y56D01*
X455Y56D02*
X465Y56D01*
X476Y56D02*
X485Y56D01*
X595Y56D02*
X606Y56D01*
X616Y56D02*
X625Y56D01*
X648Y56D02*
X657Y56D01*
X678Y56D02*
X687Y56D01*
X760Y56D02*
X769Y56D01*
X163Y55D02*
X172Y55D01*
X292Y55D02*
X301Y55D01*
X310Y55D02*
X320Y55D01*
X332Y55D02*
X341Y55D01*
X368Y55D02*
X413Y55D01*
X437Y55D02*
X446Y55D01*
X454Y55D02*
X464Y55D01*
X476Y55D02*
X485Y55D01*
X595Y55D02*
X605Y55D01*
X616Y55D02*
X625Y55D01*
X648Y55D02*
X657Y55D01*
X678Y55D02*
X687Y55D01*
X760Y55D02*
X769Y55D01*
X163Y54D02*
X172Y54D01*
X292Y54D02*
X301Y54D01*
X309Y54D02*
X319Y54D01*
X332Y54D02*
X341Y54D01*
X369Y54D02*
X413Y54D01*
X437Y54D02*
X446Y54D01*
X454Y54D02*
X464Y54D01*
X476Y54D02*
X485Y54D01*
X594Y54D02*
X605Y54D01*
X616Y54D02*
X625Y54D01*
X648Y54D02*
X658Y54D01*
X678Y54D02*
X687Y54D01*
X760Y54D02*
X769Y54D01*
X163Y53D02*
X172Y53D01*
X292Y53D02*
X301Y53D01*
X309Y53D02*
X319Y53D01*
X332Y53D02*
X341Y53D01*
X371Y53D02*
X413Y53D01*
X437Y53D02*
X446Y53D01*
X453Y53D02*
X463Y53D01*
X476Y53D02*
X485Y53D01*
X594Y53D02*
X604Y53D01*
X616Y53D02*
X625Y53D01*
X648Y53D02*
X658Y53D01*
X678Y53D02*
X687Y53D01*
X760Y53D02*
X769Y53D01*
X163Y52D02*
X172Y52D01*
X292Y52D02*
X301Y52D01*
X308Y52D02*
X318Y52D01*
X332Y52D02*
X341Y52D01*
X372Y52D02*
X413Y52D01*
X437Y52D02*
X446Y52D01*
X453Y52D02*
X463Y52D01*
X476Y52D02*
X485Y52D01*
X593Y52D02*
X604Y52D01*
X616Y52D02*
X625Y52D01*
X649Y52D02*
X658Y52D01*
X678Y52D02*
X687Y52D01*
X760Y52D02*
X769Y52D01*
X163Y51D02*
X172Y51D01*
X292Y51D02*
X301Y51D01*
X308Y51D02*
X318Y51D01*
X332Y51D02*
X341Y51D01*
X374Y51D02*
X413Y51D01*
X437Y51D02*
X446Y51D01*
X452Y51D02*
X462Y51D01*
X476Y51D02*
X485Y51D01*
X592Y51D02*
X603Y51D01*
X616Y51D02*
X625Y51D01*
X649Y51D02*
X658Y51D01*
X678Y51D02*
X687Y51D01*
X760Y51D02*
X769Y51D01*
X163Y50D02*
X172Y50D01*
X292Y50D02*
X301Y50D01*
X307Y50D02*
X317Y50D01*
X332Y50D02*
X341Y50D01*
X379Y50D02*
X413Y50D01*
X437Y50D02*
X446Y50D01*
X452Y50D02*
X462Y50D01*
X476Y50D02*
X485Y50D01*
X592Y50D02*
X603Y50D01*
X616Y50D02*
X625Y50D01*
X649Y50D02*
X659Y50D01*
X678Y50D02*
X687Y50D01*
X760Y50D02*
X769Y50D01*
X163Y49D02*
X172Y49D01*
X292Y49D02*
X301Y49D01*
X307Y49D02*
X317Y49D01*
X332Y49D02*
X341Y49D01*
X404Y49D02*
X413Y49D01*
X437Y49D02*
X446Y49D01*
X451Y49D02*
X462Y49D01*
X476Y49D02*
X485Y49D01*
X591Y49D02*
X602Y49D01*
X616Y49D02*
X625Y49D01*
X649Y49D02*
X659Y49D01*
X678Y49D02*
X687Y49D01*
X760Y49D02*
X769Y49D01*
X163Y48D02*
X172Y48D01*
X292Y48D02*
X301Y48D01*
X307Y48D02*
X317Y48D01*
X332Y48D02*
X341Y48D01*
X404Y48D02*
X413Y48D01*
X437Y48D02*
X446Y48D01*
X451Y48D02*
X461Y48D01*
X476Y48D02*
X485Y48D01*
X591Y48D02*
X601Y48D01*
X616Y48D02*
X625Y48D01*
X650Y48D02*
X660Y48D01*
X678Y48D02*
X687Y48D01*
X760Y48D02*
X769Y48D01*
X163Y47D02*
X172Y47D01*
X292Y47D02*
X301Y47D01*
X306Y47D02*
X316Y47D01*
X332Y47D02*
X341Y47D01*
X404Y47D02*
X413Y47D01*
X437Y47D02*
X446Y47D01*
X451Y47D02*
X461Y47D01*
X476Y47D02*
X485Y47D01*
X590Y47D02*
X601Y47D01*
X616Y47D02*
X625Y47D01*
X650Y47D02*
X660Y47D01*
X678Y47D02*
X687Y47D01*
X760Y47D02*
X769Y47D01*
X163Y46D02*
X172Y46D01*
X292Y46D02*
X301Y46D01*
X306Y46D02*
X316Y46D01*
X332Y46D02*
X341Y46D01*
X404Y46D02*
X413Y46D01*
X437Y46D02*
X446Y46D01*
X450Y46D02*
X460Y46D01*
X476Y46D02*
X485Y46D01*
X589Y46D02*
X600Y46D01*
X616Y46D02*
X625Y46D01*
X650Y46D02*
X661Y46D01*
X678Y46D02*
X687Y46D01*
X760Y46D02*
X769Y46D01*
X146Y45D02*
X189Y45D01*
X292Y45D02*
X301Y45D01*
X305Y45D02*
X315Y45D01*
X332Y45D02*
X341Y45D01*
X404Y45D02*
X413Y45D01*
X437Y45D02*
X446Y45D01*
X450Y45D02*
X460Y45D01*
X476Y45D02*
X485Y45D01*
X589Y45D02*
X600Y45D01*
X616Y45D02*
X625Y45D01*
X651Y45D02*
X661Y45D01*
X678Y45D02*
X687Y45D01*
X760Y45D02*
X769Y45D01*
X145Y44D02*
X190Y44D01*
X292Y44D02*
X301Y44D01*
X305Y44D02*
X315Y44D01*
X332Y44D02*
X341Y44D01*
X404Y44D02*
X413Y44D01*
X437Y44D02*
X446Y44D01*
X449Y44D02*
X459Y44D01*
X476Y44D02*
X485Y44D01*
X588Y44D02*
X599Y44D01*
X616Y44D02*
X625Y44D01*
X651Y44D02*
X662Y44D01*
X678Y44D02*
X687Y44D01*
X760Y44D02*
X769Y44D01*
X144Y43D02*
X191Y43D01*
X292Y43D02*
X301Y43D01*
X304Y43D02*
X314Y43D01*
X332Y43D02*
X341Y43D01*
X404Y43D02*
X413Y43D01*
X437Y43D02*
X446Y43D01*
X449Y43D02*
X459Y43D01*
X476Y43D02*
X485Y43D01*
X588Y43D02*
X598Y43D01*
X616Y43D02*
X625Y43D01*
X652Y43D02*
X662Y43D01*
X678Y43D02*
X687Y43D01*
X760Y43D02*
X769Y43D01*
X143Y42D02*
X192Y42D01*
X292Y42D02*
X301Y42D01*
X304Y42D02*
X314Y42D01*
X332Y42D02*
X341Y42D01*
X404Y42D02*
X413Y42D01*
X437Y42D02*
X446Y42D01*
X448Y42D02*
X458Y42D01*
X476Y42D02*
X485Y42D01*
X587Y42D02*
X598Y42D01*
X616Y42D02*
X625Y42D01*
X652Y42D02*
X663Y42D01*
X678Y42D02*
X687Y42D01*
X760Y42D02*
X769Y42D01*
X48Y41D02*
X86Y41D01*
X143Y41D02*
X192Y41D01*
X292Y41D02*
X301Y41D01*
X303Y41D02*
X314Y41D01*
X332Y41D02*
X341Y41D01*
X404Y41D02*
X413Y41D01*
X437Y41D02*
X446Y41D01*
X448Y41D02*
X458Y41D01*
X476Y41D02*
X485Y41D01*
X587Y41D02*
X597Y41D01*
X616Y41D02*
X625Y41D01*
X653Y41D02*
X663Y41D01*
X678Y41D02*
X687Y41D01*
X760Y41D02*
X769Y41D01*
X45Y40D02*
X89Y40D01*
X143Y40D02*
X192Y40D01*
X292Y40D02*
X301Y40D01*
X303Y40D02*
X313Y40D01*
X332Y40D02*
X341Y40D01*
X404Y40D02*
X413Y40D01*
X437Y40D02*
X446Y40D01*
X448Y40D02*
X458Y40D01*
X476Y40D02*
X485Y40D01*
X586Y40D02*
X597Y40D01*
X616Y40D02*
X625Y40D01*
X653Y40D02*
X664Y40D01*
X678Y40D02*
X687Y40D01*
X760Y40D02*
X769Y40D01*
X44Y39D02*
X90Y39D01*
X143Y39D02*
X192Y39D01*
X292Y39D02*
X313Y39D01*
X332Y39D02*
X341Y39D01*
X404Y39D02*
X413Y39D01*
X437Y39D02*
X457Y39D01*
X476Y39D02*
X485Y39D01*
X585Y39D02*
X596Y39D01*
X616Y39D02*
X625Y39D01*
X654Y39D02*
X664Y39D01*
X678Y39D02*
X687Y39D01*
X760Y39D02*
X769Y39D01*
X43Y38D02*
X91Y38D01*
X144Y38D02*
X191Y38D01*
X292Y38D02*
X312Y38D01*
X332Y38D02*
X341Y38D01*
X404Y38D02*
X413Y38D01*
X437Y38D02*
X457Y38D01*
X476Y38D02*
X485Y38D01*
X585Y38D02*
X596Y38D01*
X616Y38D02*
X625Y38D01*
X654Y38D02*
X665Y38D01*
X678Y38D02*
X687Y38D01*
X760Y38D02*
X769Y38D01*
X43Y37D02*
X91Y37D01*
X145Y37D02*
X190Y37D01*
X292Y37D02*
X312Y37D01*
X332Y37D02*
X341Y37D01*
X404Y37D02*
X413Y37D01*
X437Y37D02*
X456Y37D01*
X476Y37D02*
X485Y37D01*
X584Y37D02*
X595Y37D01*
X616Y37D02*
X625Y37D01*
X655Y37D02*
X665Y37D01*
X678Y37D02*
X687Y37D01*
X760Y37D02*
X769Y37D01*
X43Y36D02*
X91Y36D01*
X146Y36D02*
X189Y36D01*
X292Y36D02*
X311Y36D01*
X332Y36D02*
X341Y36D01*
X404Y36D02*
X413Y36D01*
X437Y36D02*
X456Y36D01*
X476Y36D02*
X485Y36D01*
X584Y36D02*
X594Y36D01*
X616Y36D02*
X625Y36D01*
X655Y36D02*
X666Y36D01*
X678Y36D02*
X687Y36D01*
X760Y36D02*
X769Y36D01*
X43Y35D02*
X91Y35D01*
X163Y35D02*
X172Y35D01*
X292Y35D02*
X311Y35D01*
X332Y35D02*
X341Y35D01*
X404Y35D02*
X413Y35D01*
X437Y35D02*
X455Y35D01*
X476Y35D02*
X485Y35D01*
X583Y35D02*
X594Y35D01*
X616Y35D02*
X625Y35D01*
X656Y35D02*
X666Y35D01*
X678Y35D02*
X687Y35D01*
X760Y35D02*
X769Y35D01*
X43Y34D02*
X91Y34D01*
X163Y34D02*
X172Y34D01*
X292Y34D02*
X310Y34D01*
X332Y34D02*
X341Y34D01*
X404Y34D02*
X413Y34D01*
X437Y34D02*
X455Y34D01*
X476Y34D02*
X485Y34D01*
X582Y34D02*
X593Y34D01*
X616Y34D02*
X625Y34D01*
X656Y34D02*
X667Y34D01*
X678Y34D02*
X687Y34D01*
X760Y34D02*
X769Y34D01*
X43Y33D02*
X91Y33D01*
X163Y33D02*
X172Y33D01*
X292Y33D02*
X310Y33D01*
X332Y33D02*
X341Y33D01*
X404Y33D02*
X413Y33D01*
X437Y33D02*
X455Y33D01*
X476Y33D02*
X485Y33D01*
X582Y33D02*
X593Y33D01*
X616Y33D02*
X625Y33D01*
X657Y33D02*
X667Y33D01*
X678Y33D02*
X687Y33D01*
X760Y33D02*
X769Y33D01*
X43Y32D02*
X91Y32D01*
X163Y32D02*
X172Y32D01*
X292Y32D02*
X310Y32D01*
X332Y32D02*
X341Y32D01*
X404Y32D02*
X413Y32D01*
X437Y32D02*
X454Y32D01*
X476Y32D02*
X485Y32D01*
X581Y32D02*
X592Y32D01*
X616Y32D02*
X625Y32D01*
X657Y32D02*
X668Y32D01*
X678Y32D02*
X687Y32D01*
X760Y32D02*
X769Y32D01*
X43Y31D02*
X91Y31D01*
X163Y31D02*
X172Y31D01*
X292Y31D02*
X309Y31D01*
X332Y31D02*
X341Y31D01*
X404Y31D02*
X413Y31D01*
X437Y31D02*
X454Y31D01*
X476Y31D02*
X485Y31D01*
X581Y31D02*
X591Y31D01*
X616Y31D02*
X625Y31D01*
X658Y31D02*
X668Y31D01*
X678Y31D02*
X687Y31D01*
X760Y31D02*
X769Y31D01*
X43Y30D02*
X91Y30D01*
X163Y30D02*
X172Y30D01*
X292Y30D02*
X309Y30D01*
X332Y30D02*
X341Y30D01*
X404Y30D02*
X413Y30D01*
X437Y30D02*
X453Y30D01*
X476Y30D02*
X485Y30D01*
X580Y30D02*
X591Y30D01*
X616Y30D02*
X625Y30D01*
X658Y30D02*
X669Y30D01*
X678Y30D02*
X687Y30D01*
X760Y30D02*
X769Y30D01*
X44Y29D02*
X91Y29D01*
X163Y29D02*
X172Y29D01*
X292Y29D02*
X308Y29D01*
X332Y29D02*
X341Y29D01*
X404Y29D02*
X413Y29D01*
X437Y29D02*
X453Y29D01*
X476Y29D02*
X485Y29D01*
X580Y29D02*
X590Y29D01*
X616Y29D02*
X625Y29D01*
X659Y29D02*
X669Y29D01*
X678Y29D02*
X687Y29D01*
X760Y29D02*
X769Y29D01*
X44Y28D02*
X90Y28D01*
X163Y28D02*
X172Y28D01*
X292Y28D02*
X308Y28D01*
X332Y28D02*
X341Y28D01*
X404Y28D02*
X413Y28D01*
X437Y28D02*
X452Y28D01*
X476Y28D02*
X485Y28D01*
X579Y28D02*
X590Y28D01*
X616Y28D02*
X625Y28D01*
X659Y28D02*
X670Y28D01*
X678Y28D02*
X687Y28D01*
X760Y28D02*
X769Y28D01*
X46Y27D02*
X88Y27D01*
X163Y27D02*
X172Y27D01*
X292Y27D02*
X307Y27D01*
X332Y27D02*
X341Y27D01*
X404Y27D02*
X413Y27D01*
X437Y27D02*
X452Y27D01*
X476Y27D02*
X485Y27D01*
X578Y27D02*
X589Y27D01*
X616Y27D02*
X625Y27D01*
X660Y27D02*
X672Y27D01*
X678Y27D02*
X687Y27D01*
X760Y27D02*
X769Y27D01*
X163Y26D02*
X172Y26D01*
X292Y26D02*
X307Y26D01*
X332Y26D02*
X341Y26D01*
X404Y26D02*
X413Y26D01*
X437Y26D02*
X451Y26D01*
X476Y26D02*
X485Y26D01*
X578Y26D02*
X589Y26D01*
X616Y26D02*
X625Y26D01*
X660Y26D02*
X694Y26D01*
X723Y26D02*
X769Y26D01*
X163Y25D02*
X172Y25D01*
X292Y25D02*
X307Y25D01*
X332Y25D02*
X341Y25D01*
X404Y25D02*
X413Y25D01*
X437Y25D02*
X451Y25D01*
X476Y25D02*
X485Y25D01*
X577Y25D02*
X588Y25D01*
X616Y25D02*
X625Y25D01*
X661Y25D02*
X696Y25D01*
X722Y25D02*
X769Y25D01*
X163Y24D02*
X172Y24D01*
X292Y24D02*
X306Y24D01*
X332Y24D02*
X341Y24D01*
X404Y24D02*
X413Y24D01*
X437Y24D02*
X451Y24D01*
X477Y24D02*
X485Y24D01*
X577Y24D02*
X587Y24D01*
X616Y24D02*
X625Y24D01*
X661Y24D02*
X696Y24D01*
X721Y24D02*
X769Y24D01*
X163Y23D02*
X172Y23D01*
X292Y23D02*
X306Y23D01*
X332Y23D02*
X340Y23D01*
X405Y23D02*
X412Y23D01*
X437Y23D02*
X450Y23D01*
X477Y23D02*
X485Y23D01*
X576Y23D02*
X587Y23D01*
X616Y23D02*
X625Y23D01*
X662Y23D02*
X697Y23D01*
X721Y23D02*
X769Y23D01*
X163Y22D02*
X172Y22D01*
X292Y22D02*
X305Y22D01*
X333Y22D02*
X339Y22D01*
X405Y22D02*
X412Y22D01*
X437Y22D02*
X450Y22D01*
X478Y22D02*
X484Y22D01*
X576Y22D02*
X586Y22D01*
X616Y22D02*
X625Y22D01*
X663Y22D02*
X697Y22D01*
X721Y22D02*
X769Y22D01*
X163Y21D02*
X172Y21D01*
X292Y21D02*
X305Y21D01*
X334Y21D02*
X338Y21D01*
X407Y21D02*
X410Y21D01*
X437Y21D02*
X449Y21D01*
X479Y21D02*
X483Y21D01*
X576Y21D02*
X586Y21D01*
X616Y21D02*
X625Y21D01*
X664Y21D02*
X697Y21D01*
X721Y21D02*
X769Y21D01*
X163Y20D02*
X172Y20D01*
X576Y20D02*
X585Y20D01*
X616Y20D02*
X624Y20D01*
X665Y20D02*
X697Y20D01*
X721Y20D02*
X769Y20D01*
X163Y19D02*
X172Y19D01*
X577Y19D02*
X584Y19D01*
X617Y19D02*
X624Y19D01*
X666Y19D02*
X696Y19D01*
X721Y19D02*
X769Y19D01*
X164Y18D02*
X171Y18D01*
X578Y18D02*
X584Y18D01*
X617Y18D02*
X623Y18D01*
X668Y18D02*
X695Y18D01*
X722Y18D02*
X769Y18D01*
X165Y17D02*
X170Y17D01*
X579Y17D02*
X582Y17D01*
X619Y17D02*
X622Y17D01*
X671Y17D02*
X694Y17D01*
X724Y17D02*
X769Y17D01*
X166Y16D02*
X169Y16D01*
D02*
G04 End of Silk0*
M02*