G04 MADE WITH FRITZING*
G04 WWW.FRITZING.ORG*
G04 DOUBLE SIDED*
G04 HOLES PLATED*
G04 CONTOUR ON CENTER OF CONTOUR VECTOR*
%ASAXBY*%
%FSLAX23Y23*%
%MOIN*%
%OFA0B0*%
%SFA1.0B1.0*%
%ADD10C,0.008*%
%LNCONTOUR*%
G90*
G70*
G54D10*
X112Y1215D02*
X113Y1215D01*
X114Y1215D01*
X115Y1215D01*
X116Y1215D01*
X117Y1215D01*
X118Y1215D01*
X119Y1215D01*
X120Y1215D01*
X121Y1215D01*
X122Y1215D01*
X123Y1215D01*
X124Y1215D01*
X125Y1215D01*
X126Y1215D01*
X127Y1215D01*
X128Y1215D01*
X129Y1215D01*
X130Y1215D01*
X131Y1215D01*
X132Y1215D01*
X133Y1215D01*
X134Y1215D01*
X135Y1215D01*
X136Y1215D01*
X137Y1215D01*
X138Y1215D01*
X139Y1215D01*
X140Y1215D01*
X141Y1215D01*
X142Y1215D01*
X143Y1215D01*
X144Y1215D01*
X145Y1215D01*
X146Y1215D01*
X147Y1215D01*
X148Y1215D01*
X149Y1215D01*
X150Y1215D01*
X151Y1215D01*
X152Y1215D01*
X153Y1215D01*
X154Y1215D01*
X155Y1215D01*
X156Y1215D01*
X157Y1215D01*
X158Y1215D01*
X159Y1215D01*
X160Y1215D01*
X161Y1215D01*
X162Y1215D01*
X163Y1215D01*
X164Y1215D01*
X165Y1215D01*
X166Y1215D01*
X167Y1215D01*
X168Y1215D01*
X169Y1215D01*
X170Y1215D01*
X171Y1215D01*
X172Y1215D01*
X173Y1215D01*
X174Y1215D01*
X175Y1215D01*
X176Y1215D01*
X177Y1215D01*
X178Y1215D01*
X179Y1215D01*
X180Y1215D01*
X181Y1215D01*
X182Y1215D01*
X183Y1215D01*
X184Y1215D01*
X185Y1215D01*
X186Y1215D01*
X187Y1215D01*
X188Y1215D01*
X189Y1215D01*
X190Y1215D01*
X191Y1215D01*
X192Y1215D01*
X193Y1215D01*
X194Y1215D01*
X195Y1215D01*
X196Y1215D01*
X197Y1215D01*
X198Y1215D01*
X199Y1215D01*
X200Y1215D01*
X201Y1215D01*
X202Y1215D01*
X203Y1215D01*
X204Y1215D01*
X205Y1215D01*
X206Y1215D01*
X207Y1215D01*
X208Y1215D01*
X209Y1215D01*
X210Y1215D01*
X211Y1215D01*
X212Y1215D01*
X213Y1215D01*
X214Y1215D01*
X215Y1215D01*
X216Y1215D01*
X217Y1215D01*
X218Y1215D01*
X219Y1215D01*
X220Y1215D01*
X221Y1215D01*
X222Y1215D01*
X223Y1215D01*
X224Y1215D01*
X225Y1215D01*
X226Y1215D01*
X227Y1215D01*
X228Y1215D01*
X229Y1215D01*
X230Y1215D01*
X231Y1215D01*
X232Y1215D01*
X233Y1215D01*
X234Y1215D01*
X235Y1215D01*
X236Y1215D01*
X237Y1215D01*
X238Y1215D01*
X239Y1215D01*
X240Y1215D01*
X241Y1215D01*
X242Y1215D01*
X243Y1215D01*
X244Y1215D01*
X245Y1215D01*
X246Y1215D01*
X247Y1215D01*
X248Y1215D01*
X249Y1215D01*
X250Y1215D01*
X251Y1215D01*
X252Y1215D01*
X253Y1215D01*
X254Y1215D01*
X255Y1215D01*
X256Y1215D01*
X257Y1215D01*
X258Y1215D01*
X259Y1215D01*
X260Y1215D01*
X261Y1215D01*
X262Y1215D01*
X263Y1215D01*
X264Y1215D01*
X265Y1215D01*
X266Y1215D01*
X267Y1215D01*
X268Y1215D01*
X269Y1215D01*
X270Y1215D01*
X271Y1215D01*
X272Y1215D01*
X273Y1215D01*
X274Y1215D01*
X275Y1215D01*
X276Y1215D01*
X277Y1215D01*
X278Y1215D01*
X279Y1215D01*
X280Y1215D01*
X281Y1215D01*
X282Y1215D01*
X283Y1215D01*
X284Y1215D01*
X285Y1215D01*
X286Y1215D01*
X287Y1215D01*
X288Y1215D01*
X289Y1215D01*
X290Y1215D01*
X291Y1215D01*
X292Y1215D01*
X293Y1215D01*
X294Y1215D01*
X295Y1215D01*
X296Y1215D01*
X297Y1215D01*
X298Y1215D01*
X299Y1215D01*
X300Y1215D01*
X301Y1215D01*
X302Y1215D01*
X303Y1215D01*
X304Y1215D01*
X305Y1215D01*
X306Y1215D01*
X307Y1215D01*
X308Y1215D01*
X309Y1215D01*
X310Y1215D01*
X311Y1215D01*
X312Y1215D01*
X313Y1215D01*
X314Y1215D01*
X315Y1215D01*
X316Y1215D01*
X317Y1215D01*
X318Y1215D01*
X319Y1215D01*
X320Y1215D01*
X321Y1215D01*
X322Y1215D01*
X323Y1215D01*
X324Y1215D01*
X325Y1215D01*
X326Y1215D01*
X327Y1215D01*
X328Y1215D01*
X329Y1215D01*
X330Y1215D01*
X331Y1215D01*
X332Y1215D01*
X333Y1215D01*
X334Y1215D01*
X335Y1215D01*
X336Y1215D01*
X337Y1215D01*
X338Y1215D01*
X339Y1215D01*
X340Y1215D01*
X341Y1215D01*
X342Y1215D01*
X343Y1215D01*
X344Y1215D01*
X345Y1215D01*
X346Y1215D01*
X347Y1215D01*
X348Y1215D01*
X349Y1215D01*
X350Y1215D01*
X351Y1215D01*
X352Y1215D01*
X353Y1215D01*
X354Y1215D01*
X355Y1215D01*
X356Y1215D01*
X357Y1215D01*
X358Y1215D01*
X359Y1215D01*
X360Y1215D01*
X361Y1215D01*
X362Y1215D01*
X363Y1215D01*
X364Y1215D01*
X365Y1215D01*
X366Y1215D01*
X367Y1215D01*
X368Y1215D01*
X369Y1215D01*
X370Y1215D01*
X371Y1215D01*
X372Y1215D01*
X373Y1215D01*
X374Y1215D01*
X375Y1215D01*
X376Y1215D01*
X377Y1215D01*
X378Y1215D01*
X379Y1215D01*
X380Y1215D01*
X381Y1215D01*
X382Y1215D01*
X383Y1215D01*
X384Y1215D01*
X385Y1215D01*
X386Y1215D01*
X387Y1215D01*
X388Y1215D01*
X389Y1215D01*
X390Y1215D01*
X391Y1215D01*
X392Y1215D01*
X393Y1215D01*
X394Y1215D01*
X395Y1215D01*
X396Y1215D01*
X397Y1215D01*
X398Y1215D01*
X399Y1215D01*
X400Y1215D01*
X401Y1215D01*
X402Y1215D01*
X403Y1215D01*
X404Y1215D01*
X405Y1215D01*
X406Y1215D01*
X407Y1215D01*
X408Y1215D01*
X409Y1215D01*
X410Y1215D01*
X411Y1215D01*
X412Y1215D01*
X413Y1215D01*
X414Y1215D01*
X415Y1215D01*
X416Y1215D01*
X417Y1215D01*
X418Y1215D01*
X419Y1215D01*
X420Y1215D01*
X421Y1215D01*
X422Y1215D01*
X423Y1215D01*
X424Y1215D01*
X425Y1215D01*
X426Y1215D01*
X427Y1215D01*
X428Y1215D01*
X429Y1215D01*
X430Y1215D01*
X431Y1215D01*
X432Y1215D01*
X433Y1215D01*
X434Y1215D01*
X435Y1215D01*
X436Y1215D01*
X437Y1215D01*
X438Y1215D01*
X439Y1215D01*
X440Y1215D01*
X441Y1215D01*
X442Y1215D01*
X443Y1215D01*
X444Y1215D01*
X445Y1215D01*
X446Y1215D01*
X447Y1215D01*
X448Y1215D01*
X449Y1215D01*
X450Y1215D01*
X451Y1215D01*
X452Y1215D01*
X453Y1215D01*
X454Y1215D01*
X455Y1215D01*
X456Y1215D01*
X457Y1215D01*
X458Y1215D01*
X459Y1215D01*
X460Y1215D01*
X461Y1215D01*
X462Y1215D01*
X463Y1215D01*
X464Y1215D01*
X465Y1215D01*
X466Y1215D01*
X467Y1215D01*
X468Y1215D01*
X469Y1215D01*
X470Y1215D01*
X471Y1215D01*
X472Y1215D01*
X473Y1215D01*
X474Y1215D01*
X475Y1215D01*
X476Y1215D01*
X477Y1215D01*
X478Y1215D01*
X479Y1215D01*
X480Y1215D01*
X481Y1215D01*
X482Y1215D01*
X483Y1215D01*
X484Y1215D01*
X485Y1215D01*
X486Y1215D01*
X487Y1215D01*
X488Y1215D01*
X489Y1215D01*
X490Y1215D01*
X491Y1215D01*
X492Y1215D01*
X493Y1215D01*
X494Y1215D01*
X495Y1215D01*
X496Y1215D01*
X497Y1215D01*
X498Y1215D01*
X499Y1215D01*
X500Y1215D01*
X501Y1215D01*
X502Y1215D01*
X503Y1215D01*
X504Y1215D01*
X505Y1215D01*
X506Y1215D01*
X507Y1215D01*
X508Y1215D01*
X509Y1215D01*
X510Y1215D01*
X511Y1215D01*
X512Y1215D01*
X513Y1215D01*
X514Y1215D01*
X515Y1215D01*
X516Y1215D01*
X517Y1215D01*
X518Y1215D01*
X519Y1215D01*
X520Y1215D01*
X521Y1215D01*
X522Y1215D01*
X523Y1215D01*
X524Y1215D01*
X525Y1215D01*
X526Y1215D01*
X527Y1215D01*
X528Y1215D01*
X529Y1215D01*
X530Y1215D01*
X531Y1215D01*
X532Y1215D01*
X533Y1215D01*
X534Y1215D01*
X535Y1215D01*
X536Y1215D01*
X537Y1215D01*
X538Y1215D01*
X539Y1215D01*
X540Y1215D01*
X541Y1215D01*
X542Y1215D01*
X543Y1215D01*
X544Y1215D01*
X545Y1215D01*
X546Y1215D01*
X547Y1215D01*
X548Y1215D01*
X549Y1215D01*
X550Y1215D01*
X551Y1215D01*
X552Y1215D01*
X553Y1215D01*
X554Y1215D01*
X555Y1215D01*
X556Y1215D01*
X557Y1215D01*
X558Y1215D01*
X559Y1215D01*
X560Y1215D01*
X561Y1215D01*
X562Y1215D01*
X563Y1215D01*
X564Y1215D01*
X565Y1215D01*
X566Y1215D01*
X567Y1215D01*
X568Y1215D01*
X569Y1215D01*
X570Y1215D01*
X571Y1215D01*
X572Y1215D01*
X573Y1215D01*
X574Y1215D01*
X575Y1215D01*
X576Y1215D01*
X577Y1215D01*
X578Y1215D01*
X579Y1215D01*
X580Y1215D01*
X581Y1215D01*
X582Y1215D01*
X583Y1215D01*
X584Y1215D01*
X585Y1215D01*
X586Y1215D01*
X587Y1215D01*
X588Y1215D01*
X589Y1215D01*
X590Y1215D01*
X591Y1215D01*
X592Y1215D01*
X593Y1215D01*
X594Y1215D01*
X595Y1215D01*
X596Y1215D01*
X597Y1215D01*
X598Y1215D01*
X599Y1215D01*
X600Y1215D01*
X601Y1215D01*
X602Y1215D01*
X603Y1215D01*
X604Y1215D01*
X605Y1215D01*
X606Y1215D01*
X607Y1215D01*
X608Y1215D01*
X609Y1215D01*
X610Y1215D01*
X611Y1215D01*
X612Y1215D01*
X613Y1215D01*
X614Y1215D01*
X615Y1215D01*
X616Y1215D01*
X617Y1215D01*
X618Y1215D01*
X619Y1215D01*
X620Y1215D01*
X621Y1215D01*
X622Y1215D01*
X623Y1215D01*
X624Y1215D01*
X625Y1215D01*
X626Y1215D01*
X627Y1215D01*
X628Y1215D01*
X629Y1215D01*
X630Y1215D01*
X631Y1215D01*
X632Y1215D01*
X633Y1215D01*
X634Y1215D01*
X635Y1215D01*
X636Y1215D01*
X637Y1215D01*
X638Y1215D01*
X639Y1215D01*
X640Y1215D01*
X641Y1215D01*
X642Y1215D01*
X643Y1215D01*
X644Y1215D01*
X645Y1215D01*
X646Y1215D01*
X647Y1215D01*
X648Y1215D01*
X649Y1215D01*
X650Y1215D01*
X651Y1215D01*
X652Y1215D01*
X653Y1215D01*
X654Y1215D01*
X655Y1215D01*
X656Y1215D01*
X657Y1215D01*
X658Y1215D01*
X659Y1215D01*
X660Y1215D01*
X661Y1215D01*
X662Y1215D01*
X663Y1215D01*
X664Y1215D01*
X665Y1215D01*
X666Y1215D01*
X667Y1215D01*
X668Y1215D01*
X669Y1215D01*
X670Y1215D01*
X671Y1215D01*
X672Y1215D01*
X673Y1215D01*
X674Y1215D01*
X675Y1215D01*
X676Y1215D01*
X677Y1215D01*
X678Y1215D01*
X679Y1215D01*
X680Y1215D01*
X681Y1215D01*
X682Y1215D01*
X683Y1215D01*
X684Y1215D01*
X685Y1215D01*
X686Y1215D01*
X687Y1215D01*
X688Y1215D01*
X689Y1215D01*
X690Y1215D01*
X691Y1215D01*
X692Y1215D01*
X693Y1215D01*
X694Y1215D01*
X695Y1215D01*
X696Y1215D01*
X697Y1215D01*
X698Y1215D01*
X699Y1215D01*
X700Y1215D01*
X701Y1215D01*
X702Y1215D01*
X703Y1215D01*
X704Y1215D01*
X705Y1215D01*
X706Y1215D01*
X707Y1215D01*
X708Y1215D01*
X709Y1215D01*
X710Y1215D01*
X711Y1215D01*
X712Y1215D01*
X713Y1215D01*
X714Y1215D01*
X715Y1215D01*
X716Y1215D01*
X717Y1215D01*
X718Y1215D01*
X719Y1215D01*
X720Y1215D01*
X721Y1215D01*
X722Y1215D01*
X723Y1215D01*
X724Y1215D01*
X725Y1215D01*
X726Y1215D01*
X727Y1215D01*
X728Y1215D01*
X729Y1215D01*
X730Y1215D01*
X731Y1215D01*
X732Y1215D01*
X733Y1215D01*
X734Y1215D01*
X735Y1215D01*
X736Y1215D01*
X737Y1215D01*
X738Y1215D01*
X739Y1215D01*
X740Y1215D01*
X741Y1215D01*
X742Y1215D01*
X743Y1215D01*
X744Y1215D01*
X745Y1215D01*
X746Y1215D01*
X747Y1215D01*
X748Y1215D01*
X749Y1215D01*
X750Y1215D01*
X751Y1215D01*
X752Y1215D01*
X753Y1215D01*
X754Y1215D01*
X755Y1215D01*
X756Y1215D01*
X757Y1215D01*
X758Y1215D01*
X759Y1215D01*
X760Y1215D01*
X761Y1215D01*
X762Y1215D01*
X763Y1215D01*
X764Y1215D01*
X765Y1215D01*
X766Y1215D01*
X767Y1215D01*
X768Y1215D01*
X769Y1215D01*
X770Y1215D01*
X771Y1215D01*
X772Y1215D01*
X773Y1215D01*
X774Y1215D01*
X775Y1215D01*
X776Y1215D01*
X777Y1215D01*
X778Y1215D01*
X779Y1215D01*
X780Y1215D01*
X781Y1215D01*
X782Y1215D01*
X783Y1215D01*
X784Y1215D01*
X785Y1215D01*
X786Y1215D01*
X787Y1215D01*
X788Y1215D01*
X789Y1215D01*
X790Y1215D01*
X791Y1215D01*
X792Y1215D01*
X793Y1215D01*
X794Y1215D01*
X795Y1215D01*
X796Y1215D01*
X797Y1215D01*
X798Y1215D01*
X799Y1215D01*
X800Y1215D01*
X801Y1215D01*
X802Y1215D01*
X803Y1215D01*
X804Y1215D01*
X805Y1215D01*
X806Y1215D01*
X807Y1215D01*
X808Y1215D01*
X809Y1215D01*
X810Y1215D01*
X811Y1215D01*
X812Y1215D01*
X813Y1215D01*
X814Y1215D01*
X815Y1215D01*
X816Y1215D01*
X817Y1215D01*
X818Y1215D01*
X819Y1215D01*
X820Y1215D01*
X821Y1215D01*
X822Y1215D01*
X823Y1215D01*
X824Y1215D01*
X825Y1215D01*
X826Y1215D01*
X827Y1215D01*
X828Y1215D01*
X829Y1215D01*
X830Y1215D01*
X831Y1215D01*
X832Y1215D01*
X833Y1215D01*
X834Y1215D01*
X835Y1215D01*
X836Y1215D01*
X837Y1215D01*
X838Y1215D01*
X839Y1215D01*
X840Y1215D01*
X841Y1215D01*
X842Y1215D01*
X843Y1215D01*
X844Y1215D01*
X845Y1215D01*
X846Y1215D01*
X847Y1215D01*
X848Y1215D01*
X849Y1215D01*
X850Y1215D01*
X851Y1215D01*
X852Y1215D01*
X853Y1215D01*
X854Y1215D01*
X855Y1215D01*
X856Y1215D01*
X857Y1215D01*
X858Y1215D01*
X859Y1215D01*
X860Y1215D01*
X861Y1215D01*
X862Y1215D01*
X863Y1215D01*
X864Y1215D01*
X865Y1215D01*
X866Y1215D01*
X867Y1215D01*
X868Y1215D01*
X869Y1215D01*
X870Y1215D01*
X871Y1215D01*
X872Y1215D01*
X873Y1215D01*
X874Y1215D01*
X875Y1215D01*
X876Y1215D01*
X877Y1215D01*
X878Y1215D01*
X879Y1215D01*
X880Y1215D01*
X881Y1215D01*
X882Y1215D01*
X883Y1215D01*
X884Y1215D01*
X885Y1215D01*
X886Y1215D01*
X887Y1215D01*
X888Y1215D01*
X889Y1215D01*
X890Y1215D01*
X891Y1215D01*
X892Y1215D01*
X893Y1215D01*
X894Y1215D01*
X895Y1215D01*
X896Y1215D01*
X897Y1215D01*
X898Y1215D01*
X899Y1215D01*
X900Y1215D01*
X901Y1215D01*
X902Y1215D01*
X903Y1215D01*
X904Y1215D01*
X905Y1215D01*
X906Y1215D01*
X907Y1215D01*
X908Y1215D01*
X909Y1215D01*
X910Y1215D01*
X911Y1215D01*
X912Y1215D01*
X913Y1215D01*
X914Y1215D01*
X915Y1215D01*
X916Y1215D01*
X917Y1215D01*
X918Y1215D01*
X919Y1215D01*
X920Y1215D01*
X921Y1215D01*
X922Y1215D01*
X923Y1215D01*
X924Y1215D01*
X925Y1215D01*
X926Y1215D01*
X927Y1215D01*
X928Y1215D01*
X929Y1215D01*
X930Y1215D01*
X931Y1215D01*
X932Y1215D01*
X933Y1215D01*
X934Y1215D01*
X935Y1215D01*
X936Y1215D01*
X937Y1215D01*
X938Y1215D01*
X939Y1215D01*
X940Y1215D01*
X941Y1215D01*
X942Y1215D01*
X943Y1215D01*
X944Y1215D01*
X945Y1215D01*
X946Y1215D01*
X947Y1215D01*
X948Y1215D01*
X949Y1215D01*
X950Y1215D01*
X951Y1215D01*
X952Y1215D01*
X953Y1215D01*
X954Y1215D01*
X955Y1215D01*
X956Y1215D01*
X957Y1215D01*
X958Y1215D01*
X959Y1215D01*
X960Y1215D01*
X961Y1215D01*
X962Y1215D01*
X963Y1215D01*
X964Y1215D01*
X965Y1215D01*
X966Y1215D01*
X967Y1215D01*
X968Y1215D01*
X969Y1215D01*
X970Y1215D01*
X971Y1215D01*
X972Y1215D01*
X973Y1215D01*
X974Y1215D01*
X975Y1215D01*
X976Y1215D01*
X977Y1215D01*
X978Y1215D01*
X979Y1215D01*
X980Y1215D01*
X981Y1215D01*
X982Y1215D01*
X983Y1215D01*
X984Y1215D01*
X985Y1215D01*
X986Y1215D01*
X987Y1215D01*
X988Y1215D01*
X989Y1215D01*
X990Y1215D01*
X991Y1215D01*
X992Y1215D01*
X993Y1215D01*
X994Y1215D01*
X995Y1215D01*
X996Y1215D01*
X997Y1215D01*
X998Y1215D01*
X999Y1215D01*
X1000Y1215D01*
X1001Y1215D01*
X1002Y1215D01*
X1003Y1215D01*
X1004Y1215D01*
X1005Y1215D01*
X1006Y1215D01*
X1007Y1215D01*
X1008Y1215D01*
X1009Y1215D01*
X1010Y1215D01*
X1011Y1215D01*
X1012Y1215D01*
X1013Y1215D01*
X1014Y1215D01*
X1015Y1215D01*
X1016Y1215D01*
X1017Y1215D01*
X1018Y1215D01*
X1019Y1215D01*
X1020Y1215D01*
X1021Y1215D01*
X1022Y1215D01*
X1023Y1215D01*
X1024Y1215D01*
X1025Y1215D01*
X1026Y1215D01*
X1027Y1215D01*
X1028Y1215D01*
X1029Y1215D01*
X1030Y1215D01*
X1031Y1215D01*
X1032Y1215D01*
X1033Y1215D01*
X1034Y1215D01*
X1035Y1215D01*
X1036Y1215D01*
X1037Y1215D01*
X1038Y1215D01*
X1039Y1215D01*
X1040Y1215D01*
X1041Y1215D01*
X1042Y1215D01*
X1043Y1215D01*
X1044Y1215D01*
X1045Y1215D01*
X1046Y1215D01*
X1047Y1215D01*
X1048Y1215D01*
X1049Y1215D01*
X1050Y1215D01*
X1051Y1215D01*
X1052Y1215D01*
X1053Y1215D01*
X1054Y1215D01*
X1055Y1215D01*
X1056Y1215D01*
X1057Y1215D01*
X1058Y1215D01*
X1059Y1215D01*
X1060Y1215D01*
X1061Y1215D01*
X1062Y1215D01*
X1063Y1215D01*
X1064Y1215D01*
X1065Y1215D01*
X1066Y1215D01*
X1067Y1215D01*
X1068Y1215D01*
X1069Y1215D01*
X1070Y1215D01*
X1071Y1215D01*
X1072Y1215D01*
X1073Y1215D01*
X1074Y1215D01*
X1075Y1215D01*
X1076Y1215D01*
X1077Y1215D01*
X1078Y1215D01*
X1079Y1215D01*
X1080Y1215D01*
X1081Y1215D01*
X1082Y1215D01*
X1083Y1215D01*
X1084Y1215D01*
X1085Y1215D01*
X1086Y1215D01*
X1087Y1215D01*
X1088Y1215D01*
X1089Y1215D01*
X1090Y1215D01*
X1091Y1215D01*
X1092Y1215D01*
X1093Y1215D01*
X1094Y1215D01*
X1095Y1215D01*
X1096Y1215D01*
X1097Y1215D01*
X1098Y1215D01*
X1099Y1215D01*
X1100Y1215D01*
X1101Y1215D01*
X1102Y1215D01*
X1103Y1215D01*
X1104Y1215D01*
X1105Y1215D01*
X1106Y1215D01*
X1107Y1215D01*
X1108Y1215D01*
X1109Y1215D01*
X1110Y1215D01*
X1111Y1215D01*
X1112Y1215D01*
X1113Y1215D01*
X1114Y1215D01*
X1115Y1215D01*
X1116Y1215D01*
X1117Y1215D01*
X1118Y1215D01*
X1119Y1215D01*
X1120Y1215D01*
X1121Y1215D01*
X1122Y1215D01*
X1123Y1215D01*
X1124Y1215D01*
X1125Y1215D01*
X1126Y1215D01*
X1127Y1215D01*
X1128Y1215D01*
X1129Y1215D01*
X1130Y1215D01*
X1131Y1215D01*
X1132Y1215D01*
X1133Y1215D01*
X1134Y1215D01*
X1135Y1215D01*
X1136Y1215D01*
X1137Y1215D01*
X1138Y1215D01*
X1139Y1215D01*
X1140Y1215D01*
X1141Y1215D01*
X1142Y1215D01*
X1143Y1215D01*
X1144Y1215D01*
X1145Y1215D01*
X1146Y1215D01*
X1147Y1215D01*
X1148Y1215D01*
X1149Y1215D01*
X1150Y1215D01*
X1151Y1215D01*
X1152Y1215D01*
X1153Y1215D01*
X1154Y1215D01*
X1155Y1215D01*
X1156Y1215D01*
X1157Y1215D01*
X1158Y1215D01*
X1159Y1215D01*
X1160Y1215D01*
X1161Y1215D01*
X1162Y1215D01*
X1163Y1215D01*
X1164Y1215D01*
X1165Y1215D01*
X1166Y1215D01*
X1167Y1215D01*
X1168Y1215D01*
X1169Y1215D01*
X1170Y1215D01*
X1171Y1215D01*
X1172Y1215D01*
X1173Y1215D01*
X1174Y1215D01*
X1175Y1215D01*
X1176Y1215D01*
X1177Y1215D01*
X1178Y1215D01*
X1179Y1215D01*
X1180Y1215D01*
X1181Y1215D01*
X1182Y1215D01*
X1183Y1215D01*
X1184Y1215D01*
X1185Y1215D01*
X1186Y1215D01*
X1187Y1215D01*
X1188Y1215D01*
X1189Y1215D01*
X1190Y1215D01*
X1191Y1215D01*
X1192Y1215D01*
X1193Y1215D01*
X1194Y1215D01*
X1195Y1215D01*
X1196Y1215D01*
X1197Y1215D01*
X1198Y1215D01*
X1199Y1215D01*
X1200Y1215D01*
X1201Y1215D01*
X1202Y1215D01*
X1203Y1215D01*
X1204Y1215D01*
X1205Y1215D01*
X1206Y1215D01*
X1207Y1215D01*
X1208Y1215D01*
X1209Y1215D01*
X1210Y1215D01*
X1211Y1215D01*
X1212Y1215D01*
X1213Y1215D01*
X1214Y1215D01*
X1215Y1215D01*
X1216Y1215D01*
X1217Y1215D01*
X1218Y1215D01*
X1219Y1215D01*
X1220Y1215D01*
X1221Y1215D01*
X1222Y1215D01*
X1223Y1215D01*
X1224Y1215D01*
X1225Y1215D01*
X1226Y1215D01*
X1227Y1215D01*
X1228Y1215D01*
X1229Y1215D01*
X1230Y1215D01*
X1231Y1215D01*
X1232Y1215D01*
X1233Y1215D01*
X1234Y1215D01*
X1235Y1215D01*
X1236Y1215D01*
X1237Y1215D01*
X1238Y1215D01*
X1239Y1215D01*
X1240Y1215D01*
X1241Y1215D01*
X1242Y1215D01*
X1243Y1215D01*
X1244Y1215D01*
X1245Y1215D01*
X1246Y1215D01*
X1247Y1215D01*
X1248Y1215D01*
X1249Y1215D01*
X1250Y1215D01*
X1251Y1215D01*
X1252Y1215D01*
X1253Y1215D01*
X1254Y1215D01*
X1255Y1215D01*
X1256Y1215D01*
X1257Y1215D01*
X1258Y1215D01*
X1259Y1215D01*
X1260Y1215D01*
X1261Y1215D01*
X1262Y1215D01*
X1263Y1215D01*
X1264Y1215D01*
X1265Y1215D01*
X1266Y1215D01*
X1267Y1215D01*
X1268Y1215D01*
X1269Y1215D01*
X1270Y1215D01*
X1271Y1215D01*
X1272Y1215D01*
X1273Y1215D01*
X1274Y1215D01*
X1275Y1215D01*
X1276Y1215D01*
X1277Y1215D01*
X1278Y1215D01*
X1279Y1215D01*
X1280Y1215D01*
X1281Y1215D01*
X1282Y1215D01*
X1283Y1215D01*
X1284Y1215D01*
X1285Y1215D01*
X1286Y1215D01*
X1287Y1215D01*
X1288Y1215D01*
X1289Y1215D01*
X1290Y1215D01*
X1291Y1215D01*
X1292Y1215D01*
X1293Y1215D01*
X1294Y1215D01*
X1295Y1215D01*
X1296Y1215D01*
X1297Y1215D01*
X1298Y1215D01*
X1299Y1215D01*
X1300Y1215D01*
X1301Y1215D01*
X1302Y1215D01*
X1303Y1215D01*
X1304Y1215D01*
X1305Y1215D01*
X1306Y1215D01*
X1307Y1215D01*
X1308Y1215D01*
X1309Y1215D01*
X1310Y1215D01*
X1311Y1215D01*
X1312Y1215D01*
X1313Y1215D01*
X1314Y1215D01*
X1315Y1215D01*
X1316Y1215D01*
X1317Y1215D01*
X1318Y1215D01*
X1319Y1215D01*
X1320Y1215D01*
X1321Y1215D01*
X1322Y1215D01*
X1323Y1215D01*
X1324Y1215D01*
X1325Y1215D01*
X1326Y1215D01*
X1327Y1215D01*
X1328Y1215D01*
X1329Y1215D01*
X1330Y1215D01*
X1331Y1215D01*
X1332Y1215D01*
X1333Y1215D01*
X1334Y1215D01*
X1335Y1215D01*
X1336Y1215D01*
X1337Y1215D01*
X1338Y1215D01*
X1339Y1215D01*
X1340Y1215D01*
X1341Y1215D01*
X1342Y1215D01*
X1343Y1215D01*
X1344Y1215D01*
X1345Y1215D01*
X1346Y1215D01*
X1347Y1215D01*
X1348Y1215D01*
X1349Y1215D01*
X1350Y1215D01*
X1351Y1215D01*
X1352Y1215D01*
X1353Y1215D01*
X1354Y1215D01*
X1355Y1215D01*
X1356Y1215D01*
X1357Y1215D01*
X1358Y1215D01*
X1359Y1215D01*
X1360Y1215D01*
X1361Y1215D01*
X1362Y1215D01*
X1363Y1215D01*
X1364Y1215D01*
X1365Y1215D01*
X1366Y1215D01*
X1367Y1215D01*
X1368Y1215D01*
X1369Y1215D01*
X1370Y1215D01*
X1371Y1215D01*
X1372Y1215D01*
X1373Y1215D01*
X1374Y1215D01*
X1375Y1215D01*
X1376Y1215D01*
X1377Y1215D01*
X1378Y1215D01*
X1379Y1215D01*
X1380Y1215D01*
X1381Y1215D01*
X1382Y1215D01*
X1383Y1215D01*
X1384Y1215D01*
X1385Y1215D01*
X1386Y1215D01*
X1387Y1215D01*
X1388Y1215D01*
X1389Y1215D01*
X1390Y1215D01*
X1391Y1215D01*
X1392Y1215D01*
X1393Y1215D01*
X1394Y1215D01*
X1395Y1215D01*
X1396Y1215D01*
X1397Y1215D01*
X1398Y1215D01*
X1399Y1215D01*
X1400Y1215D01*
X1401Y1215D01*
X1402Y1215D01*
X1403Y1215D01*
X1404Y1215D01*
X1405Y1215D01*
X1406Y1215D01*
X1407Y1215D01*
X1408Y1215D01*
X1409Y1215D01*
X1410Y1215D01*
X1411Y1215D01*
X1412Y1215D01*
X1413Y1215D01*
X1414Y1215D01*
X1415Y1215D01*
X1416Y1215D01*
X1417Y1215D01*
X1418Y1215D01*
X1419Y1215D01*
X1420Y1215D01*
X1421Y1215D01*
X1422Y1215D01*
X1423Y1215D01*
X1424Y1215D01*
X1425Y1215D01*
X1426Y1215D01*
X1427Y1215D01*
X1428Y1215D01*
X1429Y1215D01*
X1430Y1215D01*
X1431Y1215D01*
X1432Y1215D01*
X1433Y1215D01*
X1434Y1215D01*
X1435Y1215D01*
X1436Y1215D01*
X1437Y1215D01*
X1438Y1215D01*
X1439Y1215D01*
X1440Y1215D01*
X1441Y1215D01*
X1442Y1215D01*
X1443Y1215D01*
X1444Y1215D01*
X1445Y1215D01*
X1446Y1215D01*
X1447Y1215D01*
X1448Y1215D01*
X1449Y1215D01*
X1450Y1215D01*
X1451Y1215D01*
X1452Y1215D01*
X1453Y1215D01*
X1454Y1215D01*
X1455Y1215D01*
X1456Y1215D01*
X1457Y1215D01*
X1458Y1215D01*
X1459Y1215D01*
X1460Y1215D01*
X1461Y1215D01*
X1462Y1215D01*
X1463Y1215D01*
X1464Y1215D01*
X1465Y1215D01*
X1466Y1215D01*
X1467Y1215D01*
X1468Y1215D01*
X1469Y1215D01*
X1470Y1215D01*
X1471Y1215D01*
X1472Y1215D01*
X1473Y1215D01*
X1474Y1215D01*
X1475Y1215D01*
X1476Y1215D01*
X1477Y1215D01*
X1478Y1215D01*
X1479Y1215D01*
X1480Y1215D01*
X1481Y1215D01*
X1482Y1215D01*
X1483Y1215D01*
X1484Y1215D01*
X1485Y1215D01*
X1486Y1215D01*
X1487Y1215D01*
X1488Y1215D01*
X1489Y1215D01*
X1490Y1215D01*
X1491Y1215D01*
X1492Y1215D01*
X1493Y1215D01*
X1494Y1215D01*
X1495Y1215D01*
X1496Y1215D01*
X1497Y1215D01*
X1498Y1215D01*
X1499Y1215D01*
X1500Y1215D01*
X1501Y1215D01*
X1502Y1215D01*
X1503Y1215D01*
X1504Y1215D01*
X1505Y1215D01*
X1506Y1215D01*
X1507Y1215D01*
X1508Y1215D01*
X1509Y1215D01*
X1510Y1215D01*
X1511Y1215D01*
X1512Y1215D01*
X1513Y1215D01*
X1514Y1215D01*
X1515Y1215D01*
X1516Y1215D01*
X1517Y1215D01*
X1518Y1215D01*
X1519Y1215D01*
X1520Y1215D01*
X1521Y1215D01*
X1522Y1215D01*
X1523Y1215D01*
X1524Y1215D01*
X1525Y1215D01*
X1526Y1215D01*
X1527Y1215D01*
X1528Y1215D01*
X1529Y1215D01*
X1530Y1215D01*
X1531Y1215D01*
X1532Y1215D01*
X1533Y1215D01*
X1534Y1215D01*
X1535Y1215D01*
X1536Y1215D01*
X1537Y1215D01*
X1538Y1215D01*
X1539Y1215D01*
X1540Y1215D01*
X1541Y1215D01*
X1542Y1215D01*
X1543Y1215D01*
X1544Y1215D01*
X1545Y1215D01*
X1546Y1215D01*
X1547Y1215D01*
X1548Y1215D01*
X1549Y1215D01*
X1550Y1215D01*
X1551Y1215D01*
X1552Y1215D01*
X1553Y1215D01*
X1554Y1215D01*
X1555Y1215D01*
X1556Y1215D01*
X1557Y1215D01*
X1558Y1215D01*
X1559Y1215D01*
X1560Y1215D01*
X1561Y1215D01*
X1562Y1215D01*
X1563Y1215D01*
X1564Y1215D01*
X1565Y1215D01*
X1566Y1215D01*
X1567Y1215D01*
X1568Y1215D01*
X1569Y1215D01*
X1570Y1215D01*
X1571Y1215D01*
X1572Y1215D01*
X1573Y1215D01*
X1574Y1215D01*
X1575Y1215D01*
X1576Y1215D01*
X1577Y1215D01*
X1578Y1215D01*
X1579Y1215D01*
X1580Y1215D01*
X1581Y1215D01*
X1582Y1215D01*
X1583Y1215D01*
X1584Y1215D01*
X1585Y1215D01*
X1586Y1215D01*
X1587Y1215D01*
X1588Y1215D01*
X1589Y1215D01*
X1590Y1215D01*
X1591Y1215D01*
X1592Y1215D01*
X1593Y1215D01*
X1594Y1215D01*
X1595Y1215D01*
X1596Y1215D01*
X1597Y1215D01*
X1598Y1215D01*
X1599Y1215D01*
X1600Y1215D01*
X1601Y1215D01*
X1602Y1215D01*
X1603Y1215D01*
X1604Y1215D01*
X1605Y1215D01*
X1606Y1215D01*
X1607Y1215D01*
X1608Y1215D01*
X1609Y1215D01*
X1610Y1215D01*
X1611Y1215D01*
X1612Y1215D01*
X1613Y1215D01*
X1614Y1215D01*
X1615Y1215D01*
X1616Y1215D01*
X1617Y1215D01*
X1618Y1215D01*
X1619Y1215D01*
X1620Y1215D01*
X1621Y1215D01*
X1622Y1215D01*
X1623Y1215D01*
X1624Y1215D01*
X1625Y1215D01*
X1626Y1215D01*
X1627Y1215D01*
X1628Y1215D01*
X1629Y1215D01*
X1630Y1215D01*
X1631Y1215D01*
X1632Y1215D01*
X1633Y1215D01*
X1634Y1215D01*
X1635Y1215D01*
X1636Y1215D01*
X1637Y1215D01*
X1638Y1215D01*
X1639Y1215D01*
X1640Y1215D01*
X1641Y1215D01*
X1642Y1215D01*
X1643Y1215D01*
X1644Y1215D01*
X1645Y1215D01*
X1646Y1215D01*
X1647Y1215D01*
X1648Y1215D01*
X1649Y1215D01*
X1650Y1215D01*
X1651Y1215D01*
X1652Y1215D01*
X1653Y1215D01*
X1654Y1215D01*
X1655Y1215D01*
X1656Y1215D01*
X1657Y1215D01*
X1658Y1215D01*
X1659Y1215D01*
X1660Y1215D01*
X1661Y1215D01*
X1662Y1215D01*
X1663Y1215D01*
X1664Y1215D01*
X1665Y1215D01*
X1666Y1215D01*
X1667Y1215D01*
X1668Y1215D01*
X1669Y1215D01*
X1670Y1215D01*
X1671Y1215D01*
X1672Y1215D01*
X1673Y1215D01*
X1674Y1215D01*
X1675Y1215D01*
X1676Y1215D01*
X1677Y1215D01*
X1678Y1215D01*
X1679Y1215D01*
X1680Y1215D01*
X1681Y1215D01*
X1682Y1215D01*
X1683Y1215D01*
X1684Y1215D01*
X1685Y1215D01*
X1686Y1215D01*
X1687Y1215D01*
X1688Y1215D01*
X1689Y1215D01*
X1690Y1215D01*
X1691Y1215D01*
X1692Y1215D01*
X1693Y1215D01*
X1694Y1215D01*
X1695Y1215D01*
X1696Y1215D01*
X1697Y1215D01*
X1698Y1215D01*
X1699Y1215D01*
X1700Y1215D01*
X1701Y1215D01*
X1702Y1215D01*
X1703Y1215D01*
X1704Y1215D01*
X1705Y1215D01*
X1706Y1215D01*
X1707Y1215D01*
X1708Y1215D01*
X1709Y1215D01*
X1710Y1215D01*
X1711Y1215D01*
X1712Y1215D01*
X1713Y1215D01*
X1714Y1215D01*
X1715Y1215D01*
X1716Y1215D01*
X1717Y1215D01*
X1718Y1215D01*
X1719Y1215D01*
X1720Y1215D01*
X1721Y1215D01*
X1722Y1215D01*
X1723Y1215D01*
X1724Y1215D01*
X1725Y1215D01*
X1726Y1215D01*
X1727Y1215D01*
X1728Y1215D01*
X1729Y1215D01*
X1730Y1215D01*
X1731Y1215D01*
X1732Y1215D01*
X1733Y1215D01*
X1734Y1215D01*
X1735Y1215D01*
X1736Y1215D01*
X1737Y1215D01*
X1738Y1215D01*
X1739Y1215D01*
X1740Y1215D01*
X1741Y1215D01*
X1742Y1215D01*
X1743Y1215D01*
X1744Y1215D01*
X1745Y1215D01*
X1746Y1215D01*
X1747Y1215D01*
X1748Y1215D01*
X1749Y1215D01*
X1750Y1215D01*
X1751Y1215D01*
X1752Y1215D01*
X1753Y1215D01*
X1754Y1215D01*
X1755Y1215D01*
X1756Y1215D01*
X1757Y1215D01*
X1758Y1215D01*
X1759Y1215D01*
X1760Y1215D01*
X1761Y1215D01*
X1762Y1215D01*
X1763Y1215D01*
X1764Y1215D01*
X1765Y1215D01*
X1766Y1215D01*
X1767Y1215D01*
X1768Y1215D01*
X1769Y1215D01*
X1770Y1215D01*
X1771Y1215D01*
X1772Y1215D01*
X1773Y1215D01*
X1774Y1215D01*
X1775Y1215D01*
X1776Y1215D01*
X1777Y1215D01*
X1778Y1215D01*
X1779Y1215D01*
X1780Y1215D01*
X1781Y1215D01*
X1782Y1215D01*
X1783Y1215D01*
X1784Y1215D01*
X1785Y1215D01*
X1786Y1215D01*
X1787Y1215D01*
X1788Y1215D01*
X1789Y1215D01*
X1790Y1215D01*
X1791Y1215D01*
X1792Y1215D01*
X1793Y1215D01*
X1794Y1215D01*
X1795Y1215D01*
X1796Y1215D01*
X1797Y1215D01*
X1798Y1215D01*
X1799Y1215D01*
X1800Y1215D01*
X1801Y1215D01*
X1802Y1215D01*
X1803Y1215D01*
X1804Y1215D01*
X1805Y1215D01*
X1806Y1215D01*
X1807Y1215D01*
X1808Y1215D01*
X1809Y1215D01*
X1810Y1215D01*
X1811Y1215D01*
X1812Y1215D01*
X1813Y1215D01*
X1814Y1215D01*
X1815Y1215D01*
X1816Y1215D01*
X1817Y1215D01*
X1818Y1215D01*
X1819Y1215D01*
X1820Y1215D01*
X1821Y1215D01*
X1822Y1215D01*
X1823Y1215D01*
X1824Y1215D01*
X1825Y1215D01*
X1826Y1215D01*
X1827Y1215D01*
X1828Y1215D01*
X1829Y1215D01*
X1830Y1215D01*
X1831Y1215D01*
X1832Y1215D01*
X1833Y1215D01*
X1834Y1215D01*
X1835Y1215D01*
X1836Y1215D01*
X1837Y1215D01*
X1838Y1215D01*
X1839Y1215D01*
X1840Y1215D01*
X1841Y1215D01*
X1842Y1215D01*
X1843Y1215D01*
X1844Y1215D01*
X1845Y1215D01*
X1846Y1215D01*
X1847Y1215D01*
X1848Y1215D01*
X1849Y1215D01*
X1850Y1215D01*
X1851Y1215D01*
X1852Y1215D01*
X1853Y1215D01*
X1854Y1215D01*
X1855Y1215D01*
X1856Y1215D01*
X1857Y1215D01*
X1858Y1215D01*
X1859Y1215D01*
X1860Y1215D01*
X1861Y1215D01*
X1862Y1215D01*
X1863Y1215D01*
X1864Y1215D01*
X1865Y1215D01*
X1866Y1215D01*
X1867Y1215D01*
X1868Y1215D01*
X1869Y1215D01*
X1870Y1215D01*
X1871Y1215D01*
X1872Y1215D01*
X1873Y1215D01*
X1874Y1215D01*
X1875Y1215D01*
X1876Y1215D01*
X1877Y1215D01*
X1878Y1215D01*
X1879Y1215D01*
X1880Y1215D01*
X1881Y1215D01*
X1882Y1215D01*
X1883Y1215D01*
X1884Y1215D01*
X1885Y1215D01*
X1886Y1215D01*
X1887Y1215D01*
X1888Y1215D01*
X1889Y1215D01*
X1890Y1215D01*
X1891Y1215D01*
X1892Y1215D01*
X1893Y1215D01*
X1894Y1215D01*
X1895Y1215D01*
X1896Y1215D01*
X1897Y1215D01*
X1898Y1215D01*
X1899Y1215D01*
X1900Y1215D01*
X1901Y1215D01*
X1902Y1215D01*
X1903Y1215D01*
X1904Y1215D01*
X1905Y1215D01*
X1906Y1215D01*
X1907Y1215D01*
X1908Y1215D01*
X1909Y1215D01*
X1910Y1215D01*
X1911Y1215D01*
X1912Y1215D01*
X1913Y1215D01*
X1914Y1215D01*
X1915Y1215D01*
X1916Y1215D01*
X1917Y1215D01*
X1918Y1215D01*
X1919Y1215D01*
X1920Y1215D01*
X1921Y1215D01*
X1922Y1215D01*
X1923Y1215D01*
X1924Y1215D01*
X1925Y1215D01*
X1926Y1215D01*
X1927Y1215D01*
X1928Y1215D01*
X1929Y1215D01*
X1930Y1215D01*
X1931Y1215D01*
X1932Y1215D01*
X1933Y1215D01*
X1934Y1215D01*
X1935Y1215D01*
X1936Y1215D01*
X1937Y1215D01*
X1938Y1215D01*
X1939Y1215D01*
X1940Y1215D01*
X1941Y1215D01*
X1942Y1215D01*
X1943Y1215D01*
X1944Y1215D01*
X1945Y1215D01*
X1946Y1215D01*
X1947Y1215D01*
X1948Y1215D01*
X1949Y1215D01*
X1950Y1215D01*
X1951Y1215D01*
X1952Y1215D01*
X1953Y1215D01*
X1954Y1215D01*
X1955Y1215D01*
X1956Y1215D01*
X1957Y1215D01*
X1958Y1215D01*
X1959Y1215D01*
X1960Y1215D01*
X1961Y1215D01*
X1962Y1215D01*
X1963Y1215D01*
X1964Y1215D01*
X1965Y1215D01*
X1966Y1215D01*
X1967Y1215D01*
X1968Y1215D01*
X1969Y1215D01*
X1970Y1215D01*
X1971Y1215D01*
X1972Y1215D01*
X1973Y1215D01*
X1974Y1215D01*
X1975Y1215D01*
X1976Y1215D01*
X1977Y1215D01*
X1978Y1215D01*
X1979Y1215D01*
X1980Y1215D01*
X1981Y1215D01*
X1982Y1215D01*
X1983Y1215D01*
X1984Y1215D01*
X1985Y1215D01*
X1986Y1215D01*
X1987Y1215D01*
X1988Y1215D01*
X1989Y1215D01*
X1990Y1215D01*
X1991Y1215D01*
X1992Y1215D01*
X1993Y1215D01*
X1994Y1215D01*
X1995Y1215D01*
X1996Y1215D01*
X1997Y1215D01*
X1998Y1215D01*
X1999Y1215D01*
X2000Y1215D01*
X2001Y1215D01*
X2002Y1215D01*
X2003Y1215D01*
X2004Y1215D01*
X2005Y1215D01*
X2006Y1215D01*
X2007Y1215D01*
X2008Y1215D01*
X2009Y1215D01*
X2010Y1215D01*
X2011Y1215D01*
X2012Y1215D01*
X2013Y1215D01*
X2014Y1215D01*
X2015Y1215D01*
X2016Y1215D01*
X2017Y1215D01*
X2018Y1215D01*
X2019Y1215D01*
X2020Y1215D01*
X2021Y1215D01*
X2022Y1215D01*
X2023Y1215D01*
X2024Y1215D01*
X2025Y1215D01*
X2026Y1215D01*
X2027Y1215D01*
X2028Y1215D01*
X2029Y1215D01*
X2030Y1215D01*
X2031Y1215D01*
X2032Y1215D01*
X2033Y1215D01*
X2034Y1215D01*
X2035Y1215D01*
X2036Y1215D01*
X2037Y1215D01*
X2038Y1215D01*
X2039Y1215D01*
X2040Y1215D01*
X2041Y1215D01*
X2042Y1215D01*
X2043Y1215D01*
X2044Y1215D01*
X2045Y1215D01*
X2046Y1215D01*
X2047Y1215D01*
X2048Y1215D01*
X2049Y1215D01*
X2050Y1215D01*
X2051Y1215D01*
X2052Y1215D01*
X2053Y1215D01*
X2054Y1215D01*
X2055Y1215D01*
X2056Y1215D01*
X2057Y1215D01*
X2058Y1215D01*
X2059Y1215D01*
X2060Y1215D01*
X2061Y1215D01*
X2062Y1215D01*
X2063Y1215D01*
X2064Y1215D01*
X2065Y1215D01*
X2066Y1215D01*
X2067Y1215D01*
X2068Y1215D01*
X2069Y1215D01*
X2070Y1215D01*
X2071Y1215D01*
X2072Y1215D01*
X2073Y1215D01*
X2074Y1215D01*
X2075Y1215D01*
X2076Y1215D01*
X2077Y1215D01*
X2078Y1215D01*
X2079Y1215D01*
X2080Y1215D01*
X2081Y1215D01*
X2082Y1215D01*
X2083Y1215D01*
X2084Y1215D01*
X2085Y1215D01*
X2086Y1215D01*
X2087Y1215D01*
X2088Y1215D01*
X2089Y1215D01*
X2090Y1215D01*
X2091Y1215D01*
X2092Y1215D01*
X2093Y1215D01*
X2094Y1215D01*
X2095Y1215D01*
X2096Y1215D01*
X2097Y1215D01*
X2098Y1215D01*
X2099Y1215D01*
X2100Y1215D01*
X2101Y1215D01*
X2102Y1215D01*
X2103Y1215D01*
X2104Y1215D01*
X2105Y1215D01*
X2106Y1215D01*
X2107Y1215D01*
X2108Y1215D01*
X2109Y1215D01*
X2110Y1215D01*
X2111Y1215D01*
X2112Y1215D01*
X2113Y1215D01*
X2114Y1215D01*
X2115Y1215D01*
X2116Y1215D01*
X2117Y1215D01*
X2118Y1215D01*
X2119Y1215D01*
X2120Y1215D01*
X2121Y1215D01*
X2122Y1215D01*
X2123Y1215D01*
X2124Y1215D01*
X2125Y1215D01*
X2126Y1215D01*
X2127Y1215D01*
X2128Y1215D01*
X2129Y1215D01*
X2130Y1215D01*
X2131Y1215D01*
X2132Y1215D01*
X2133Y1215D01*
X2134Y1215D01*
X2135Y1215D01*
X2136Y1215D01*
X2137Y1215D01*
X2138Y1215D01*
X2139Y1215D01*
X2140Y1215D01*
X2141Y1215D01*
X2142Y1215D01*
X2143Y1215D01*
X2144Y1215D01*
X2145Y1215D01*
X2146Y1215D01*
X2147Y1215D01*
X2148Y1215D01*
X2149Y1215D01*
X2150Y1215D01*
X2151Y1215D01*
X2152Y1215D01*
X2153Y1215D01*
X2154Y1215D01*
X2155Y1215D01*
X2156Y1215D01*
X2157Y1215D01*
X2158Y1215D01*
X2159Y1215D01*
X2160Y1215D01*
X2161Y1215D01*
X2162Y1215D01*
X2163Y1215D01*
X2164Y1215D01*
X2165Y1215D01*
X2166Y1215D01*
X2167Y1215D01*
X2168Y1215D01*
X2169Y1215D01*
X2170Y1215D01*
X2171Y1215D01*
X2172Y1215D01*
X2173Y1215D01*
X2174Y1215D01*
X2175Y1215D01*
X2176Y1215D01*
X2177Y1215D01*
X2178Y1215D01*
X2179Y1215D01*
X2180Y1215D01*
X2181Y1215D01*
X2182Y1215D01*
X2183Y1215D01*
X2184Y1215D01*
X2185Y1215D01*
X2186Y1215D01*
X2187Y1215D01*
X2188Y1215D01*
X2189Y1215D01*
X2190Y1215D01*
X2191Y1215D01*
X2192Y1215D01*
X2193Y1215D01*
X2194Y1215D01*
X2195Y1215D01*
X2196Y1215D01*
X2197Y1215D01*
X2198Y1215D01*
X2199Y1215D01*
X2200Y1215D01*
X2201Y1215D01*
X2202Y1215D01*
X2203Y1215D01*
X2204Y1215D01*
X2205Y1215D01*
X2206Y1215D01*
X2207Y1215D01*
X2208Y1215D01*
X2209Y1215D01*
X2210Y1215D01*
X2211Y1215D01*
X2212Y1215D01*
X2213Y1215D01*
X2214Y1215D01*
X2215Y1215D01*
X2216Y1215D01*
X2217Y1215D01*
X2218Y1215D01*
X2219Y1215D01*
X2220Y1215D01*
X2221Y1215D01*
X2222Y1215D01*
X2223Y1215D01*
X2224Y1215D01*
X2225Y1215D01*
X2226Y1215D01*
X2227Y1215D01*
X2228Y1215D01*
X2229Y1215D01*
X2230Y1215D01*
X2231Y1215D01*
X2232Y1215D01*
X2233Y1215D01*
X2234Y1215D01*
X2235Y1215D01*
X2236Y1215D01*
X2237Y1215D01*
X2238Y1215D01*
X2239Y1215D01*
X2240Y1215D01*
X2241Y1215D01*
X2242Y1215D01*
X2243Y1215D01*
X2244Y1215D01*
X2245Y1215D01*
X2246Y1215D01*
X2247Y1215D01*
X2248Y1215D01*
X2249Y1215D01*
X2250Y1215D01*
X2251Y1215D01*
X2252Y1215D01*
X2253Y1215D01*
X2254Y1215D01*
X2255Y1215D01*
X2256Y1215D01*
X2257Y1215D01*
X2258Y1215D01*
X2259Y1215D01*
X2260Y1215D01*
X2261Y1215D01*
X2262Y1215D01*
X2263Y1215D01*
X2264Y1215D01*
X2265Y1215D01*
X2266Y1215D01*
X2267Y1215D01*
X2268Y1215D01*
X2269Y1215D01*
X2270Y1215D01*
X2271Y1215D01*
X2272Y1215D01*
X2273Y1215D01*
X2274Y1215D01*
X2275Y1215D01*
X2276Y1215D01*
X2277Y1215D01*
X2278Y1215D01*
X2279Y1215D01*
X2280Y1215D01*
X2281Y1215D01*
X2282Y1215D01*
X2283Y1215D01*
X2284Y1215D01*
X2285Y1215D01*
X2286Y1215D01*
X2287Y1215D01*
X2288Y1215D01*
X2289Y1215D01*
X2290Y1215D01*
X2291Y1215D01*
X2292Y1215D01*
X2293Y1215D01*
X2294Y1215D01*
X2295Y1215D01*
X2296Y1215D01*
X2297Y1215D01*
X2298Y1215D01*
X2299Y1215D01*
X2300Y1215D01*
X2301Y1215D01*
X2302Y1215D01*
X2303Y1215D01*
X2304Y1215D01*
X2305Y1215D01*
X2306Y1215D01*
X2307Y1215D01*
X2308Y1215D01*
X2309Y1215D01*
X2310Y1215D01*
X2311Y1215D01*
X2312Y1215D01*
X2313Y1215D01*
X2314Y1215D01*
X2315Y1215D01*
X2316Y1215D01*
X2317Y1215D01*
X2318Y1215D01*
X2319Y1215D01*
X2320Y1215D01*
X2321Y1215D01*
X2322Y1215D01*
X2323Y1215D01*
X2324Y1215D01*
X2325Y1215D01*
X2326Y1215D01*
X2327Y1215D01*
X2328Y1215D01*
X2329Y1215D01*
X2330Y1215D01*
X2331Y1215D01*
X2332Y1215D01*
X2333Y1215D01*
X2334Y1215D01*
X2335Y1215D01*
X2336Y1215D01*
X2337Y1215D01*
X2338Y1215D01*
X2339Y1215D01*
X2340Y1215D01*
X2341Y1215D01*
X2342Y1215D01*
X2343Y1215D01*
X2344Y1215D01*
X2345Y1215D01*
X2346Y1215D01*
X2347Y1215D01*
X2348Y1215D01*
X2349Y1215D01*
X2350Y1215D01*
X2351Y1215D01*
X2352Y1215D01*
X2353Y1215D01*
X2354Y1215D01*
X2355Y1215D01*
X2356Y1215D01*
X2357Y1215D01*
X2358Y1215D01*
X2359Y1215D01*
X2360Y1215D01*
X2361Y1215D01*
X2362Y1215D01*
X2363Y1215D01*
X2364Y1215D01*
X2365Y1215D01*
X2366Y1215D01*
X2367Y1215D01*
X2368Y1215D01*
X2369Y1215D01*
X2370Y1215D01*
X2371Y1215D01*
X2372Y1215D01*
X2373Y1215D01*
X2374Y1215D01*
X2375Y1215D01*
X2376Y1215D01*
X2377Y1215D01*
X2378Y1215D01*
X2379Y1215D01*
X2380Y1215D01*
X2381Y1215D01*
X2382Y1215D01*
X2383Y1215D01*
X2384Y1215D01*
X2385Y1215D01*
X2386Y1215D01*
X2387Y1215D01*
X2388Y1215D01*
X2389Y1215D01*
X2390Y1215D01*
X2391Y1215D01*
X2392Y1215D01*
X2393Y1215D01*
X2394Y1215D01*
X2395Y1215D01*
X2396Y1215D01*
X2397Y1215D01*
X2398Y1215D01*
X2399Y1215D01*
X2400Y1215D01*
X2401Y1215D01*
X2402Y1215D01*
X2403Y1215D01*
X2404Y1215D01*
X2405Y1215D01*
X2406Y1215D01*
X2407Y1215D01*
X2408Y1215D01*
X2409Y1215D01*
X2410Y1215D01*
X2411Y1215D01*
X2412Y1215D01*
X2413Y1215D01*
X2414Y1215D01*
X2415Y1215D01*
X2416Y1215D01*
X2417Y1215D01*
X2418Y1215D01*
X2419Y1215D01*
X2420Y1215D01*
X2421Y1215D01*
X2422Y1215D01*
X2423Y1215D01*
X2424Y1215D01*
X2425Y1215D01*
X2426Y1215D01*
X2427Y1215D01*
X2428Y1215D01*
X2429Y1215D01*
X2430Y1215D01*
X2431Y1215D01*
X2432Y1215D01*
X2433Y1215D01*
X2434Y1215D01*
X2435Y1215D01*
X2436Y1215D01*
X2437Y1215D01*
X2438Y1215D01*
X2439Y1215D01*
X2440Y1215D01*
X2441Y1215D01*
X2442Y1215D01*
X2443Y1215D01*
X2444Y1215D01*
X2445Y1215D01*
X2446Y1215D01*
X2447Y1215D01*
X2448Y1215D01*
X2449Y1215D01*
X2450Y1215D01*
X2451Y1215D01*
X2452Y1215D01*
X2453Y1215D01*
X2454Y1215D01*
X2455Y1215D01*
X2456Y1214D01*
X2457Y1214D01*
X2458Y1214D01*
X2459Y1214D01*
X2460Y1214D01*
X2461Y1214D01*
X2462Y1214D01*
X2463Y1214D01*
X2464Y1213D01*
X2465Y1213D01*
X2466Y1213D01*
X2467Y1213D01*
X2468Y1213D01*
X2469Y1212D01*
X2470Y1212D01*
X2471Y1212D01*
X2472Y1212D01*
X2473Y1212D01*
X2474Y1211D01*
X2475Y1211D01*
X2476Y1211D01*
X2477Y1211D01*
X2478Y1210D01*
X2479Y1210D01*
X2480Y1210D01*
X2481Y1209D01*
X2482Y1209D01*
X2483Y1209D01*
X2484Y1208D01*
X2485Y1208D01*
X2486Y1208D01*
X2487Y1207D01*
X2488Y1207D01*
X2489Y1206D01*
X2490Y1206D01*
X2491Y1206D01*
X2492Y1205D01*
X2493Y1205D01*
X2494Y1204D01*
X2495Y1204D01*
X2496Y1203D01*
X2497Y1203D01*
X2498Y1202D01*
X2499Y1202D01*
X2500Y1201D01*
X2501Y1201D01*
X2502Y1200D01*
X2503Y1200D01*
X2504Y1199D01*
X2505Y1198D01*
X2506Y1198D01*
X2507Y1197D01*
X2508Y1197D01*
X2509Y1196D01*
X2510Y1195D01*
X2511Y1195D01*
X2512Y1194D01*
X2513Y1193D01*
X2514Y1193D01*
X2515Y1192D01*
X2516Y1191D01*
X2517Y1190D01*
X2518Y1189D01*
X2519Y1189D01*
X2520Y1188D01*
X2521Y1187D01*
X2522Y1186D01*
X2523Y1185D01*
X2524Y1184D01*
X2525Y1183D01*
X2526Y1182D01*
X2527Y1181D01*
X2528Y1181D01*
X2528Y1180D01*
X2529Y1179D01*
X2530Y1178D01*
X2531Y1177D01*
X2532Y1176D01*
X2533Y1175D01*
X2534Y1174D01*
X2535Y1173D01*
X2536Y1172D01*
X2536Y1171D01*
X2537Y1170D01*
X2538Y1169D01*
X2539Y1168D01*
X2539Y1167D01*
X2540Y1166D01*
X2541Y1165D01*
X2542Y1164D01*
X2542Y1163D01*
X2543Y1162D01*
X2543Y1161D01*
X2544Y1160D01*
X2545Y1159D01*
X2545Y1158D01*
X2546Y1157D01*
X2546Y1156D01*
X2547Y1155D01*
X2548Y1154D01*
X2548Y1153D01*
X2549Y1152D01*
X2549Y1151D01*
X2550Y1150D01*
X2550Y1149D01*
X2551Y1148D01*
X2551Y1147D01*
X2552Y1146D01*
X2552Y1144D01*
X2553Y1143D01*
X2553Y1142D01*
X2554Y1141D01*
X2554Y1139D01*
X2555Y1138D01*
X2555Y1136D01*
X2556Y1135D01*
X2556Y1133D01*
X2557Y1132D01*
X2557Y1130D01*
X2558Y1129D01*
X2558Y1126D01*
X2559Y1125D01*
X2559Y1122D01*
X2560Y1121D01*
X2560Y1116D01*
X2561Y1115D01*
X2561Y1108D01*
X2562Y1107D01*
X2562Y143D01*
X2561Y142D01*
X2561Y135D01*
X2560Y134D01*
X2560Y129D01*
X2559Y128D01*
X2559Y125D01*
X2558Y124D01*
X2558Y121D01*
X2557Y120D01*
X2557Y118D01*
X2556Y117D01*
X2556Y115D01*
X2555Y114D01*
X2555Y112D01*
X2554Y111D01*
X2554Y110D01*
X2553Y109D01*
X2553Y107D01*
X2552Y106D01*
X2552Y105D01*
X2551Y104D01*
X2551Y103D01*
X2550Y102D01*
X2550Y101D01*
X2549Y100D01*
X2549Y99D01*
X2548Y98D01*
X2548Y97D01*
X2547Y96D01*
X2547Y95D01*
X2546Y94D01*
X2546Y93D01*
X2545Y92D01*
X2544Y91D01*
X2544Y90D01*
X2543Y89D01*
X2543Y88D01*
X2542Y87D01*
X2541Y86D01*
X2541Y85D01*
X2540Y84D01*
X2539Y83D01*
X2538Y82D01*
X2538Y81D01*
X2537Y80D01*
X2536Y79D01*
X2535Y78D01*
X2534Y77D01*
X2534Y76D01*
X2533Y75D01*
X2532Y74D01*
X2531Y73D01*
X2530Y72D01*
X2529Y71D01*
X2528Y70D01*
X2527Y69D01*
X2526Y68D01*
X2525Y67D01*
X2524Y66D01*
X2523Y65D01*
X2522Y64D01*
X2521Y63D01*
X2520Y62D01*
X2519Y62D01*
X2518Y61D01*
X2517Y60D01*
X2516Y59D01*
X2515Y58D01*
X2514Y58D01*
X2513Y57D01*
X2512Y56D01*
X2511Y56D01*
X2510Y55D01*
X2509Y54D01*
X2508Y54D01*
X2507Y53D01*
X2506Y52D01*
X2505Y52D01*
X2504Y51D01*
X2503Y51D01*
X2502Y50D01*
X2501Y49D01*
X2500Y49D01*
X2499Y48D01*
X2498Y48D01*
X2497Y47D01*
X2496Y47D01*
X2495Y46D01*
X2494Y46D01*
X2493Y45D01*
X2492Y45D01*
X2491Y45D01*
X2490Y44D01*
X2489Y44D01*
X2488Y43D01*
X2487Y43D01*
X2486Y43D01*
X2485Y42D01*
X2484Y42D01*
X2483Y41D01*
X2482Y41D01*
X2481Y41D01*
X2480Y40D01*
X2479Y40D01*
X2478Y40D01*
X2477Y40D01*
X2476Y39D01*
X2475Y39D01*
X2474Y39D01*
X2473Y38D01*
X2472Y38D01*
X2471Y38D01*
X2470Y38D01*
X2469Y38D01*
X2468Y37D01*
X2467Y37D01*
X2466Y37D01*
X2465Y37D01*
X2464Y37D01*
X2463Y36D01*
X2462Y36D01*
X2461Y36D01*
X2460Y36D01*
X2459Y36D01*
X2458Y36D01*
X2457Y36D01*
X2456Y36D01*
X2455Y35D01*
X2454Y35D01*
X2453Y35D01*
X2452Y35D01*
X2451Y35D01*
X2450Y35D01*
X2449Y35D01*
X2448Y35D01*
X2447Y35D01*
X2446Y35D01*
X2445Y35D01*
X2444Y35D01*
X2443Y35D01*
X2442Y35D01*
X2441Y35D01*
X2440Y35D01*
X2439Y35D01*
X2438Y35D01*
X2437Y35D01*
X2436Y35D01*
X2435Y35D01*
X2434Y35D01*
X2433Y35D01*
X2432Y35D01*
X2431Y35D01*
X2430Y35D01*
X2429Y35D01*
X2428Y35D01*
X2427Y35D01*
X2426Y35D01*
X2425Y35D01*
X2424Y35D01*
X2423Y35D01*
X2422Y35D01*
X2421Y35D01*
X2420Y35D01*
X2419Y35D01*
X2418Y35D01*
X2417Y35D01*
X2416Y35D01*
X2415Y35D01*
X2414Y35D01*
X2413Y35D01*
X2412Y35D01*
X2411Y35D01*
X2410Y35D01*
X2409Y35D01*
X2408Y35D01*
X2407Y35D01*
X2406Y35D01*
X2405Y35D01*
X2404Y35D01*
X2403Y35D01*
X2402Y35D01*
X2401Y35D01*
X2400Y35D01*
X2399Y35D01*
X2398Y35D01*
X2397Y35D01*
X2396Y35D01*
X2395Y35D01*
X2394Y35D01*
X2393Y35D01*
X2392Y35D01*
X2391Y35D01*
X2390Y35D01*
X2389Y35D01*
X2388Y35D01*
X2387Y35D01*
X2386Y35D01*
X2385Y35D01*
X2384Y35D01*
X2383Y35D01*
X2382Y35D01*
X2381Y35D01*
X2380Y35D01*
X2379Y35D01*
X2378Y35D01*
X2377Y35D01*
X2376Y35D01*
X2375Y35D01*
X2374Y35D01*
X2373Y35D01*
X2372Y35D01*
X2371Y35D01*
X2370Y35D01*
X2369Y35D01*
X2368Y35D01*
X2367Y35D01*
X2366Y35D01*
X2365Y35D01*
X2364Y35D01*
X2363Y35D01*
X2362Y35D01*
X2361Y35D01*
X2360Y35D01*
X2359Y35D01*
X2358Y35D01*
X2357Y35D01*
X2356Y35D01*
X2355Y35D01*
X2354Y35D01*
X2353Y35D01*
X2352Y35D01*
X2351Y35D01*
X2350Y35D01*
X2349Y35D01*
X2348Y35D01*
X2347Y35D01*
X2346Y35D01*
X2345Y35D01*
X2344Y35D01*
X2343Y35D01*
X2342Y35D01*
X2341Y35D01*
X2340Y35D01*
X2339Y35D01*
X2338Y35D01*
X2337Y35D01*
X2336Y35D01*
X2335Y35D01*
X2334Y35D01*
X2333Y35D01*
X2332Y35D01*
X2331Y35D01*
X2330Y35D01*
X2329Y35D01*
X2328Y35D01*
X2327Y35D01*
X2326Y35D01*
X2325Y35D01*
X2324Y35D01*
X2323Y35D01*
X2322Y35D01*
X2321Y35D01*
X2320Y35D01*
X2319Y35D01*
X2318Y35D01*
X2317Y35D01*
X2316Y35D01*
X2315Y35D01*
X2314Y35D01*
X2313Y35D01*
X2312Y35D01*
X2311Y35D01*
X2310Y35D01*
X2309Y35D01*
X2308Y35D01*
X2307Y35D01*
X2306Y35D01*
X2305Y35D01*
X2304Y35D01*
X2303Y35D01*
X2302Y35D01*
X2301Y35D01*
X2300Y35D01*
X2299Y35D01*
X2298Y35D01*
X2297Y35D01*
X2296Y35D01*
X2295Y35D01*
X2294Y35D01*
X2293Y35D01*
X2292Y35D01*
X2291Y35D01*
X2290Y35D01*
X2289Y35D01*
X2288Y35D01*
X2287Y35D01*
X2286Y35D01*
X2285Y35D01*
X2284Y35D01*
X2283Y35D01*
X2282Y35D01*
X2281Y35D01*
X2280Y35D01*
X2279Y35D01*
X2278Y35D01*
X2277Y35D01*
X2276Y35D01*
X2275Y35D01*
X2274Y35D01*
X2273Y35D01*
X2272Y35D01*
X2271Y35D01*
X2270Y35D01*
X2269Y35D01*
X2268Y35D01*
X2267Y35D01*
X2266Y35D01*
X2265Y35D01*
X2264Y35D01*
X2263Y35D01*
X2262Y35D01*
X2261Y35D01*
X2260Y35D01*
X2259Y35D01*
X2258Y35D01*
X2257Y35D01*
X2256Y35D01*
X2255Y35D01*
X2254Y35D01*
X2253Y35D01*
X2252Y35D01*
X2251Y35D01*
X2250Y35D01*
X2249Y35D01*
X2248Y35D01*
X2247Y35D01*
X2246Y35D01*
X2245Y35D01*
X2244Y35D01*
X2243Y35D01*
X2242Y35D01*
X2241Y35D01*
X2240Y35D01*
X2239Y35D01*
X2238Y35D01*
X2237Y35D01*
X2236Y35D01*
X2235Y35D01*
X2234Y35D01*
X2233Y35D01*
X2232Y35D01*
X2231Y35D01*
X2230Y35D01*
X2229Y35D01*
X2228Y35D01*
X2227Y35D01*
X2226Y35D01*
X2225Y35D01*
X2224Y35D01*
X2223Y35D01*
X2222Y35D01*
X2221Y35D01*
X2220Y35D01*
X2219Y35D01*
X2218Y35D01*
X2217Y35D01*
X2216Y35D01*
X2215Y35D01*
X2214Y35D01*
X2213Y35D01*
X2212Y35D01*
X2211Y35D01*
X2210Y35D01*
X2209Y35D01*
X2208Y35D01*
X2207Y35D01*
X2206Y35D01*
X2205Y35D01*
X2204Y35D01*
X2203Y35D01*
X2202Y35D01*
X2201Y35D01*
X2200Y35D01*
X2199Y35D01*
X2198Y35D01*
X2197Y35D01*
X2196Y35D01*
X2195Y35D01*
X2194Y35D01*
X2193Y35D01*
X2192Y35D01*
X2191Y35D01*
X2190Y35D01*
X2189Y35D01*
X2188Y35D01*
X2187Y35D01*
X2186Y35D01*
X2185Y35D01*
X2184Y35D01*
X2183Y35D01*
X2182Y35D01*
X2181Y35D01*
X2180Y35D01*
X2179Y35D01*
X2178Y35D01*
X2177Y35D01*
X2176Y35D01*
X2175Y35D01*
X2174Y35D01*
X2173Y35D01*
X2172Y35D01*
X2171Y35D01*
X2170Y35D01*
X2169Y35D01*
X2168Y35D01*
X2167Y35D01*
X2166Y35D01*
X2165Y35D01*
X2164Y35D01*
X2163Y35D01*
X2162Y35D01*
X2161Y35D01*
X2160Y35D01*
X2159Y35D01*
X2158Y35D01*
X2157Y35D01*
X2156Y35D01*
X2155Y35D01*
X2154Y35D01*
X2153Y35D01*
X2152Y35D01*
X2151Y35D01*
X2150Y35D01*
X2149Y35D01*
X2148Y35D01*
X2147Y35D01*
X2146Y35D01*
X2145Y35D01*
X2144Y35D01*
X2143Y35D01*
X2142Y35D01*
X2141Y35D01*
X2140Y35D01*
X2139Y35D01*
X2138Y35D01*
X2137Y35D01*
X2136Y35D01*
X2135Y35D01*
X2134Y35D01*
X2133Y35D01*
X2132Y35D01*
X2131Y35D01*
X2130Y35D01*
X2129Y35D01*
X2128Y35D01*
X2127Y35D01*
X2126Y35D01*
X2125Y35D01*
X2124Y35D01*
X2123Y35D01*
X2122Y35D01*
X2121Y35D01*
X2120Y35D01*
X2119Y35D01*
X2118Y35D01*
X2117Y35D01*
X2116Y35D01*
X2115Y35D01*
X2114Y35D01*
X2113Y35D01*
X2112Y35D01*
X2111Y35D01*
X2110Y35D01*
X2109Y35D01*
X2108Y35D01*
X2107Y35D01*
X2106Y35D01*
X2105Y35D01*
X2104Y35D01*
X2103Y35D01*
X2102Y35D01*
X2101Y35D01*
X2100Y35D01*
X2099Y35D01*
X2098Y35D01*
X2097Y35D01*
X2096Y35D01*
X2095Y35D01*
X2094Y35D01*
X2093Y35D01*
X2092Y35D01*
X2091Y35D01*
X2090Y35D01*
X2089Y35D01*
X2088Y35D01*
X2087Y35D01*
X2086Y35D01*
X2085Y35D01*
X2084Y35D01*
X2083Y35D01*
X2082Y35D01*
X2081Y35D01*
X2080Y35D01*
X2079Y35D01*
X2078Y35D01*
X2077Y35D01*
X2076Y35D01*
X2075Y35D01*
X2074Y35D01*
X2073Y35D01*
X2072Y35D01*
X2071Y35D01*
X2070Y35D01*
X2069Y35D01*
X2068Y35D01*
X2067Y35D01*
X2066Y35D01*
X2065Y35D01*
X2064Y35D01*
X2063Y35D01*
X2062Y35D01*
X2061Y35D01*
X2060Y35D01*
X2059Y35D01*
X2058Y35D01*
X2057Y35D01*
X2056Y35D01*
X2055Y35D01*
X2054Y35D01*
X2053Y35D01*
X2052Y35D01*
X2051Y35D01*
X2050Y35D01*
X2049Y35D01*
X2048Y35D01*
X2047Y35D01*
X2046Y35D01*
X2045Y35D01*
X2044Y35D01*
X2043Y35D01*
X2042Y35D01*
X2041Y35D01*
X2040Y35D01*
X2039Y35D01*
X2038Y35D01*
X2037Y35D01*
X2036Y35D01*
X2035Y35D01*
X2034Y35D01*
X2033Y35D01*
X2032Y35D01*
X2031Y35D01*
X2030Y35D01*
X2029Y35D01*
X2028Y35D01*
X2027Y35D01*
X2026Y35D01*
X2025Y35D01*
X2024Y35D01*
X2023Y35D01*
X2022Y35D01*
X2021Y35D01*
X2020Y35D01*
X2019Y35D01*
X2018Y35D01*
X2017Y35D01*
X2016Y35D01*
X2015Y35D01*
X2014Y35D01*
X2013Y35D01*
X2012Y35D01*
X2011Y35D01*
X2010Y35D01*
X2009Y35D01*
X2008Y35D01*
X2007Y35D01*
X2006Y35D01*
X2005Y35D01*
X2004Y35D01*
X2003Y35D01*
X2002Y35D01*
X2001Y35D01*
X2000Y35D01*
X1999Y35D01*
X1998Y35D01*
X1997Y35D01*
X1996Y35D01*
X1995Y35D01*
X1994Y35D01*
X1993Y35D01*
X1992Y35D01*
X1991Y35D01*
X1990Y35D01*
X1989Y35D01*
X1988Y35D01*
X1987Y35D01*
X1986Y35D01*
X1985Y35D01*
X1984Y35D01*
X1983Y35D01*
X1982Y35D01*
X1981Y35D01*
X1980Y35D01*
X1979Y35D01*
X1978Y35D01*
X1977Y35D01*
X1976Y35D01*
X1975Y35D01*
X1974Y35D01*
X1973Y35D01*
X1972Y35D01*
X1971Y35D01*
X1970Y35D01*
X1969Y35D01*
X1968Y35D01*
X1967Y35D01*
X1966Y35D01*
X1965Y35D01*
X1964Y35D01*
X1963Y35D01*
X1962Y35D01*
X1961Y35D01*
X1960Y35D01*
X1959Y35D01*
X1958Y35D01*
X1957Y35D01*
X1956Y35D01*
X1955Y35D01*
X1954Y35D01*
X1953Y35D01*
X1952Y35D01*
X1951Y35D01*
X1950Y35D01*
X1949Y35D01*
X1948Y35D01*
X1947Y35D01*
X1946Y35D01*
X1945Y35D01*
X1944Y35D01*
X1943Y35D01*
X1942Y35D01*
X1941Y35D01*
X1940Y35D01*
X1939Y35D01*
X1938Y35D01*
X1937Y35D01*
X1936Y35D01*
X1935Y35D01*
X1934Y35D01*
X1933Y35D01*
X1932Y35D01*
X1931Y35D01*
X1930Y35D01*
X1929Y35D01*
X1928Y35D01*
X1927Y35D01*
X1926Y35D01*
X1925Y35D01*
X1924Y35D01*
X1923Y35D01*
X1922Y35D01*
X1921Y35D01*
X1920Y35D01*
X1919Y35D01*
X1918Y35D01*
X1917Y35D01*
X1916Y35D01*
X1915Y35D01*
X1914Y35D01*
X1913Y35D01*
X1912Y35D01*
X1911Y35D01*
X1910Y35D01*
X1909Y35D01*
X1908Y35D01*
X1907Y35D01*
X1906Y35D01*
X1905Y35D01*
X1904Y35D01*
X1903Y35D01*
X1902Y35D01*
X1901Y35D01*
X1900Y35D01*
X1899Y35D01*
X1898Y35D01*
X1897Y35D01*
X1896Y35D01*
X1895Y35D01*
X1894Y35D01*
X1893Y35D01*
X1892Y35D01*
X1891Y35D01*
X1890Y35D01*
X1889Y35D01*
X1888Y35D01*
X1887Y35D01*
X1886Y35D01*
X1885Y35D01*
X1884Y35D01*
X1883Y35D01*
X1882Y35D01*
X1881Y35D01*
X1880Y35D01*
X1879Y35D01*
X1878Y35D01*
X1877Y35D01*
X1876Y35D01*
X1875Y35D01*
X1874Y35D01*
X1873Y35D01*
X1872Y35D01*
X1871Y35D01*
X1870Y35D01*
X1869Y35D01*
X1868Y35D01*
X1867Y35D01*
X1866Y35D01*
X1865Y35D01*
X1864Y35D01*
X1863Y35D01*
X1862Y35D01*
X1861Y35D01*
X1860Y35D01*
X1859Y35D01*
X1858Y35D01*
X1857Y35D01*
X1856Y35D01*
X1855Y35D01*
X1854Y35D01*
X1853Y35D01*
X1852Y35D01*
X1851Y35D01*
X1850Y35D01*
X1849Y35D01*
X1848Y35D01*
X1847Y35D01*
X1846Y35D01*
X1845Y35D01*
X1844Y35D01*
X1843Y35D01*
X1842Y35D01*
X1841Y35D01*
X1840Y35D01*
X1839Y35D01*
X1838Y35D01*
X1837Y35D01*
X1836Y35D01*
X1835Y35D01*
X1834Y35D01*
X1833Y35D01*
X1832Y35D01*
X1831Y35D01*
X1830Y35D01*
X1829Y35D01*
X1828Y35D01*
X1827Y35D01*
X1826Y35D01*
X1825Y35D01*
X1824Y35D01*
X1823Y35D01*
X1822Y35D01*
X1821Y35D01*
X1820Y35D01*
X1819Y35D01*
X1818Y35D01*
X1817Y35D01*
X1816Y35D01*
X1815Y35D01*
X1814Y35D01*
X1813Y35D01*
X1812Y35D01*
X1811Y35D01*
X1810Y35D01*
X1809Y35D01*
X1808Y35D01*
X1807Y35D01*
X1806Y35D01*
X1805Y35D01*
X1804Y35D01*
X1803Y35D01*
X1802Y35D01*
X1801Y35D01*
X1800Y35D01*
X1799Y35D01*
X1798Y35D01*
X1797Y35D01*
X1796Y35D01*
X1795Y35D01*
X1794Y35D01*
X1793Y35D01*
X1792Y35D01*
X1791Y35D01*
X1790Y35D01*
X1789Y35D01*
X1788Y35D01*
X1787Y35D01*
X1786Y35D01*
X1785Y35D01*
X1784Y35D01*
X1783Y35D01*
X1782Y35D01*
X1781Y35D01*
X1780Y35D01*
X1779Y35D01*
X1778Y35D01*
X1777Y35D01*
X1776Y35D01*
X1775Y35D01*
X1774Y35D01*
X1773Y35D01*
X1772Y35D01*
X1771Y35D01*
X1770Y35D01*
X1769Y35D01*
X1768Y35D01*
X1767Y35D01*
X1766Y35D01*
X1765Y35D01*
X1764Y35D01*
X1763Y35D01*
X1762Y35D01*
X1761Y35D01*
X1760Y35D01*
X1759Y35D01*
X1758Y35D01*
X1757Y35D01*
X1756Y35D01*
X1755Y35D01*
X1754Y35D01*
X1753Y35D01*
X1752Y35D01*
X1751Y35D01*
X1750Y35D01*
X1749Y35D01*
X1748Y35D01*
X1747Y35D01*
X1746Y35D01*
X1745Y35D01*
X1744Y35D01*
X1743Y35D01*
X1742Y35D01*
X1741Y35D01*
X1740Y35D01*
X1739Y35D01*
X1738Y35D01*
X1737Y35D01*
X1736Y35D01*
X1735Y35D01*
X1734Y35D01*
X1733Y35D01*
X1732Y35D01*
X1731Y35D01*
X1730Y35D01*
X1729Y35D01*
X1728Y35D01*
X1727Y35D01*
X1726Y35D01*
X1725Y35D01*
X1724Y35D01*
X1723Y35D01*
X1722Y35D01*
X1721Y35D01*
X1720Y35D01*
X1719Y35D01*
X1718Y35D01*
X1717Y35D01*
X1716Y35D01*
X1715Y35D01*
X1714Y35D01*
X1713Y35D01*
X1712Y35D01*
X1711Y35D01*
X1710Y35D01*
X1709Y35D01*
X1708Y35D01*
X1707Y35D01*
X1706Y35D01*
X1705Y35D01*
X1704Y35D01*
X1703Y35D01*
X1702Y35D01*
X1701Y35D01*
X1700Y35D01*
X1699Y35D01*
X1698Y35D01*
X1697Y35D01*
X1696Y35D01*
X1695Y35D01*
X1694Y35D01*
X1693Y35D01*
X1692Y35D01*
X1691Y35D01*
X1690Y35D01*
X1689Y35D01*
X1688Y35D01*
X1687Y35D01*
X1686Y35D01*
X1685Y35D01*
X1684Y35D01*
X1683Y35D01*
X1682Y35D01*
X1681Y35D01*
X1680Y35D01*
X1679Y35D01*
X1678Y35D01*
X1677Y35D01*
X1676Y35D01*
X1675Y35D01*
X1674Y35D01*
X1673Y35D01*
X1672Y35D01*
X1671Y35D01*
X1670Y35D01*
X1669Y35D01*
X1668Y35D01*
X1667Y35D01*
X1666Y35D01*
X1665Y35D01*
X1664Y35D01*
X1663Y35D01*
X1662Y35D01*
X1661Y35D01*
X1660Y35D01*
X1659Y35D01*
X1658Y35D01*
X1657Y35D01*
X1656Y35D01*
X1655Y35D01*
X1654Y35D01*
X1653Y35D01*
X1652Y35D01*
X1651Y35D01*
X1650Y35D01*
X1649Y35D01*
X1648Y35D01*
X1647Y35D01*
X1646Y35D01*
X1645Y35D01*
X1644Y35D01*
X1643Y35D01*
X1642Y35D01*
X1641Y35D01*
X1640Y35D01*
X1639Y35D01*
X1638Y35D01*
X1637Y35D01*
X1636Y35D01*
X1635Y35D01*
X1634Y35D01*
X1633Y35D01*
X1632Y35D01*
X1631Y35D01*
X1630Y35D01*
X1629Y35D01*
X1628Y35D01*
X1627Y35D01*
X1626Y35D01*
X1625Y35D01*
X1624Y35D01*
X1623Y35D01*
X1622Y35D01*
X1621Y35D01*
X1620Y35D01*
X1619Y35D01*
X1618Y35D01*
X1617Y35D01*
X1616Y35D01*
X1615Y35D01*
X1614Y35D01*
X1613Y35D01*
X1612Y35D01*
X1611Y35D01*
X1610Y35D01*
X1609Y35D01*
X1608Y35D01*
X1607Y35D01*
X1606Y35D01*
X1605Y35D01*
X1604Y35D01*
X1603Y35D01*
X1602Y35D01*
X1601Y35D01*
X1600Y35D01*
X1599Y35D01*
X1598Y35D01*
X1597Y35D01*
X1596Y35D01*
X1595Y35D01*
X1594Y35D01*
X1593Y35D01*
X1592Y35D01*
X1591Y35D01*
X1590Y35D01*
X1589Y35D01*
X1588Y35D01*
X1587Y35D01*
X1586Y35D01*
X1585Y35D01*
X1584Y35D01*
X1583Y35D01*
X1582Y35D01*
X1581Y35D01*
X1580Y35D01*
X1579Y35D01*
X1578Y35D01*
X1577Y35D01*
X1576Y35D01*
X1575Y35D01*
X1574Y35D01*
X1573Y35D01*
X1572Y35D01*
X1571Y35D01*
X1570Y35D01*
X1569Y35D01*
X1568Y35D01*
X1567Y35D01*
X1566Y35D01*
X1565Y35D01*
X1564Y35D01*
X1563Y35D01*
X1562Y35D01*
X1561Y35D01*
X1560Y35D01*
X1559Y35D01*
X1558Y35D01*
X1557Y35D01*
X1556Y35D01*
X1555Y35D01*
X1554Y35D01*
X1553Y35D01*
X1552Y35D01*
X1551Y35D01*
X1550Y35D01*
X1549Y35D01*
X1548Y35D01*
X1547Y35D01*
X1546Y35D01*
X1545Y35D01*
X1544Y35D01*
X1543Y35D01*
X1542Y35D01*
X1541Y35D01*
X1540Y35D01*
X1539Y35D01*
X1538Y35D01*
X1537Y35D01*
X1536Y35D01*
X1535Y35D01*
X1534Y35D01*
X1533Y35D01*
X1532Y35D01*
X1531Y35D01*
X1530Y35D01*
X1529Y35D01*
X1528Y35D01*
X1527Y35D01*
X1526Y35D01*
X1525Y35D01*
X1524Y35D01*
X1523Y35D01*
X1522Y35D01*
X1521Y35D01*
X1520Y35D01*
X1519Y35D01*
X1518Y35D01*
X1517Y35D01*
X1516Y35D01*
X1515Y35D01*
X1514Y35D01*
X1513Y35D01*
X1512Y35D01*
X1511Y35D01*
X1510Y35D01*
X1509Y35D01*
X1508Y35D01*
X1507Y35D01*
X1506Y35D01*
X1505Y35D01*
X1504Y35D01*
X1503Y35D01*
X1502Y35D01*
X1501Y35D01*
X1500Y35D01*
X1499Y35D01*
X1498Y35D01*
X1497Y35D01*
X1496Y35D01*
X1495Y35D01*
X1494Y35D01*
X1493Y35D01*
X1492Y35D01*
X1491Y35D01*
X1490Y35D01*
X1489Y35D01*
X1488Y35D01*
X1487Y35D01*
X1486Y35D01*
X1485Y35D01*
X1484Y35D01*
X1483Y35D01*
X1482Y35D01*
X1481Y35D01*
X1480Y35D01*
X1479Y35D01*
X1478Y35D01*
X1477Y35D01*
X1476Y35D01*
X1475Y35D01*
X1474Y35D01*
X1473Y35D01*
X1472Y35D01*
X1471Y35D01*
X1470Y35D01*
X1469Y35D01*
X1468Y35D01*
X1467Y35D01*
X1466Y35D01*
X1465Y35D01*
X1464Y35D01*
X1463Y35D01*
X1462Y35D01*
X1461Y35D01*
X1460Y35D01*
X1459Y35D01*
X1458Y35D01*
X1457Y35D01*
X1456Y35D01*
X1455Y35D01*
X1454Y35D01*
X1453Y35D01*
X1452Y35D01*
X1451Y35D01*
X1450Y35D01*
X1449Y35D01*
X1448Y35D01*
X1447Y35D01*
X1446Y35D01*
X1445Y35D01*
X1444Y35D01*
X1443Y35D01*
X1442Y35D01*
X1441Y35D01*
X1440Y35D01*
X1439Y35D01*
X1438Y35D01*
X1437Y35D01*
X1436Y35D01*
X1435Y35D01*
X1434Y35D01*
X1433Y35D01*
X1432Y35D01*
X1431Y35D01*
X1430Y35D01*
X1429Y35D01*
X1428Y35D01*
X1427Y35D01*
X1426Y35D01*
X1425Y35D01*
X1424Y35D01*
X1423Y35D01*
X1422Y35D01*
X1421Y35D01*
X1420Y35D01*
X1419Y35D01*
X1418Y35D01*
X1417Y35D01*
X1416Y35D01*
X1415Y35D01*
X1414Y35D01*
X1413Y35D01*
X1412Y35D01*
X1411Y35D01*
X1410Y35D01*
X1409Y35D01*
X1408Y35D01*
X1407Y35D01*
X1406Y35D01*
X1405Y35D01*
X1404Y35D01*
X1403Y35D01*
X1402Y35D01*
X1401Y35D01*
X1400Y35D01*
X1399Y35D01*
X1398Y35D01*
X1397Y35D01*
X1396Y35D01*
X1395Y35D01*
X1394Y35D01*
X1393Y35D01*
X1392Y35D01*
X1391Y35D01*
X1390Y35D01*
X1389Y35D01*
X1388Y35D01*
X1387Y35D01*
X1386Y35D01*
X1385Y35D01*
X1384Y35D01*
X1383Y35D01*
X1382Y35D01*
X1381Y35D01*
X1380Y35D01*
X1379Y35D01*
X1378Y35D01*
X1377Y35D01*
X1376Y35D01*
X1375Y35D01*
X1374Y35D01*
X1373Y35D01*
X1372Y35D01*
X1371Y35D01*
X1370Y35D01*
X1369Y35D01*
X1368Y35D01*
X1367Y35D01*
X1366Y35D01*
X1365Y35D01*
X1364Y35D01*
X1363Y35D01*
X1362Y35D01*
X1361Y35D01*
X1360Y35D01*
X1359Y35D01*
X1358Y35D01*
X1357Y35D01*
X1356Y35D01*
X1355Y35D01*
X1354Y35D01*
X1353Y35D01*
X1352Y35D01*
X1351Y35D01*
X1350Y35D01*
X1349Y35D01*
X1348Y35D01*
X1347Y35D01*
X1346Y35D01*
X1345Y35D01*
X1344Y35D01*
X1343Y35D01*
X1342Y35D01*
X1341Y35D01*
X1340Y35D01*
X1339Y35D01*
X1338Y35D01*
X1337Y35D01*
X1336Y35D01*
X1335Y35D01*
X1334Y35D01*
X1333Y35D01*
X1332Y35D01*
X1331Y35D01*
X1330Y35D01*
X1329Y35D01*
X1328Y35D01*
X1327Y35D01*
X1326Y35D01*
X1325Y35D01*
X1324Y35D01*
X1323Y35D01*
X1322Y35D01*
X1321Y35D01*
X1320Y35D01*
X1319Y35D01*
X1318Y35D01*
X1317Y35D01*
X1316Y35D01*
X1315Y35D01*
X1314Y35D01*
X1313Y35D01*
X1312Y35D01*
X1311Y35D01*
X1310Y35D01*
X1309Y35D01*
X1308Y35D01*
X1307Y35D01*
X1306Y35D01*
X1305Y35D01*
X1304Y35D01*
X1303Y35D01*
X1302Y35D01*
X1301Y35D01*
X1300Y35D01*
X1299Y35D01*
X1298Y35D01*
X1297Y35D01*
X1296Y35D01*
X1295Y35D01*
X1294Y35D01*
X1293Y35D01*
X1292Y35D01*
X1291Y35D01*
X1290Y35D01*
X1289Y35D01*
X1288Y35D01*
X1287Y35D01*
X1286Y35D01*
X1285Y35D01*
X1284Y35D01*
X1283Y35D01*
X1282Y35D01*
X1281Y35D01*
X1280Y35D01*
X1279Y35D01*
X1278Y35D01*
X1277Y35D01*
X1276Y35D01*
X1275Y35D01*
X1274Y35D01*
X1273Y35D01*
X1272Y35D01*
X1271Y35D01*
X1270Y35D01*
X1269Y35D01*
X1268Y35D01*
X1267Y35D01*
X1266Y35D01*
X1265Y35D01*
X1264Y35D01*
X1263Y35D01*
X1262Y35D01*
X1261Y35D01*
X1260Y35D01*
X1259Y35D01*
X1258Y35D01*
X1257Y35D01*
X1256Y35D01*
X1255Y35D01*
X1254Y35D01*
X1253Y35D01*
X1252Y35D01*
X1251Y35D01*
X1250Y35D01*
X1249Y35D01*
X1248Y35D01*
X1247Y35D01*
X1246Y35D01*
X1245Y35D01*
X1244Y35D01*
X1243Y35D01*
X1242Y35D01*
X1241Y35D01*
X1240Y35D01*
X1239Y35D01*
X1238Y35D01*
X1237Y35D01*
X1236Y35D01*
X1235Y35D01*
X1234Y35D01*
X1233Y35D01*
X1232Y35D01*
X1231Y35D01*
X1230Y35D01*
X1229Y35D01*
X1228Y35D01*
X1227Y35D01*
X1226Y35D01*
X1225Y35D01*
X1224Y35D01*
X1223Y35D01*
X1222Y35D01*
X1221Y35D01*
X1220Y35D01*
X1219Y35D01*
X1218Y35D01*
X1217Y35D01*
X1216Y35D01*
X1215Y35D01*
X1214Y35D01*
X1213Y35D01*
X1212Y35D01*
X1211Y35D01*
X1210Y35D01*
X1209Y35D01*
X1208Y35D01*
X1207Y35D01*
X1206Y35D01*
X1205Y35D01*
X1204Y35D01*
X1203Y35D01*
X1202Y35D01*
X1201Y35D01*
X1200Y35D01*
X1199Y35D01*
X1198Y35D01*
X1197Y35D01*
X1196Y35D01*
X1195Y35D01*
X1194Y35D01*
X1193Y35D01*
X1192Y35D01*
X1191Y35D01*
X1190Y35D01*
X1189Y35D01*
X1188Y35D01*
X1187Y35D01*
X1186Y35D01*
X1185Y35D01*
X1184Y35D01*
X1183Y35D01*
X1182Y35D01*
X1181Y35D01*
X1180Y35D01*
X1179Y35D01*
X1178Y35D01*
X1177Y35D01*
X1176Y35D01*
X1175Y35D01*
X1174Y35D01*
X1173Y35D01*
X1172Y35D01*
X1171Y35D01*
X1170Y35D01*
X1169Y35D01*
X1168Y35D01*
X1167Y35D01*
X1166Y35D01*
X1165Y35D01*
X1164Y35D01*
X1163Y35D01*
X1162Y35D01*
X1161Y35D01*
X1160Y35D01*
X1159Y35D01*
X1158Y35D01*
X1157Y35D01*
X1156Y35D01*
X1155Y35D01*
X1154Y35D01*
X1153Y35D01*
X1152Y35D01*
X1151Y35D01*
X1150Y35D01*
X1149Y35D01*
X1148Y35D01*
X1147Y35D01*
X1146Y35D01*
X1145Y35D01*
X1144Y35D01*
X1143Y35D01*
X1142Y35D01*
X1141Y35D01*
X1140Y35D01*
X1139Y35D01*
X1138Y35D01*
X1137Y35D01*
X1136Y35D01*
X1135Y35D01*
X1134Y35D01*
X1133Y35D01*
X1132Y35D01*
X1131Y35D01*
X1130Y35D01*
X1129Y35D01*
X1128Y35D01*
X1127Y35D01*
X1126Y35D01*
X1125Y35D01*
X1124Y35D01*
X1123Y35D01*
X1122Y35D01*
X1121Y35D01*
X1120Y35D01*
X1119Y35D01*
X1118Y35D01*
X1117Y35D01*
X1116Y35D01*
X1115Y35D01*
X1114Y35D01*
X1113Y35D01*
X1112Y35D01*
X1111Y35D01*
X1110Y35D01*
X1109Y35D01*
X1108Y35D01*
X1107Y35D01*
X1106Y35D01*
X1105Y35D01*
X1104Y35D01*
X1103Y35D01*
X1102Y35D01*
X1101Y35D01*
X1100Y35D01*
X1099Y35D01*
X1098Y35D01*
X1097Y35D01*
X1096Y35D01*
X1095Y35D01*
X1094Y35D01*
X1093Y35D01*
X1092Y35D01*
X1091Y35D01*
X1090Y35D01*
X1089Y35D01*
X1088Y35D01*
X1087Y35D01*
X1086Y35D01*
X1085Y35D01*
X1084Y35D01*
X1083Y35D01*
X1082Y35D01*
X1081Y35D01*
X1080Y35D01*
X1079Y35D01*
X1078Y35D01*
X1077Y35D01*
X1076Y35D01*
X1075Y35D01*
X1074Y35D01*
X1073Y35D01*
X1072Y35D01*
X1071Y35D01*
X1070Y35D01*
X1069Y35D01*
X1068Y35D01*
X1067Y35D01*
X1066Y35D01*
X1065Y35D01*
X1064Y35D01*
X1063Y35D01*
X1062Y35D01*
X1061Y35D01*
X1060Y35D01*
X1059Y35D01*
X1058Y35D01*
X1057Y35D01*
X1056Y35D01*
X1055Y35D01*
X1054Y35D01*
X1053Y35D01*
X1052Y35D01*
X1051Y35D01*
X1050Y35D01*
X1049Y35D01*
X1048Y35D01*
X1047Y35D01*
X1046Y35D01*
X1045Y35D01*
X1044Y35D01*
X1043Y35D01*
X1042Y35D01*
X1041Y35D01*
X1040Y35D01*
X1039Y35D01*
X1038Y35D01*
X1037Y35D01*
X1036Y35D01*
X1035Y35D01*
X1034Y35D01*
X1033Y35D01*
X1032Y35D01*
X1031Y35D01*
X1030Y35D01*
X1029Y35D01*
X1028Y35D01*
X1027Y35D01*
X1026Y35D01*
X1025Y35D01*
X1024Y35D01*
X1023Y35D01*
X1022Y35D01*
X1021Y35D01*
X1020Y35D01*
X1019Y35D01*
X1018Y35D01*
X1017Y35D01*
X1016Y35D01*
X1015Y35D01*
X1014Y35D01*
X1013Y35D01*
X1012Y35D01*
X1011Y35D01*
X1010Y35D01*
X1009Y35D01*
X1008Y35D01*
X1007Y35D01*
X1006Y35D01*
X1005Y35D01*
X1004Y35D01*
X1003Y35D01*
X1002Y35D01*
X1001Y35D01*
X1000Y35D01*
X999Y35D01*
X998Y35D01*
X997Y35D01*
X996Y35D01*
X995Y35D01*
X994Y35D01*
X993Y35D01*
X992Y35D01*
X991Y35D01*
X990Y35D01*
X989Y35D01*
X988Y35D01*
X987Y35D01*
X986Y35D01*
X985Y35D01*
X984Y35D01*
X983Y35D01*
X982Y35D01*
X981Y35D01*
X980Y35D01*
X979Y35D01*
X978Y35D01*
X977Y35D01*
X976Y35D01*
X975Y35D01*
X974Y35D01*
X973Y35D01*
X972Y35D01*
X971Y35D01*
X970Y35D01*
X969Y35D01*
X968Y35D01*
X967Y35D01*
X966Y35D01*
X965Y35D01*
X964Y35D01*
X963Y35D01*
X962Y35D01*
X961Y35D01*
X960Y35D01*
X959Y35D01*
X958Y35D01*
X957Y35D01*
X956Y35D01*
X955Y35D01*
X954Y35D01*
X953Y35D01*
X952Y35D01*
X951Y35D01*
X950Y35D01*
X949Y35D01*
X948Y35D01*
X947Y35D01*
X946Y35D01*
X945Y35D01*
X944Y35D01*
X943Y35D01*
X942Y35D01*
X941Y35D01*
X940Y35D01*
X939Y35D01*
X938Y35D01*
X937Y35D01*
X936Y35D01*
X935Y35D01*
X934Y35D01*
X933Y35D01*
X932Y35D01*
X931Y35D01*
X930Y35D01*
X929Y35D01*
X928Y35D01*
X927Y35D01*
X926Y35D01*
X925Y35D01*
X924Y35D01*
X923Y35D01*
X922Y35D01*
X921Y35D01*
X920Y35D01*
X919Y35D01*
X918Y35D01*
X917Y35D01*
X916Y35D01*
X915Y35D01*
X914Y35D01*
X913Y35D01*
X912Y35D01*
X911Y35D01*
X910Y35D01*
X909Y35D01*
X908Y35D01*
X907Y35D01*
X906Y35D01*
X905Y35D01*
X904Y35D01*
X903Y35D01*
X902Y35D01*
X901Y35D01*
X900Y35D01*
X899Y35D01*
X898Y35D01*
X897Y35D01*
X896Y35D01*
X895Y35D01*
X894Y35D01*
X893Y35D01*
X892Y35D01*
X891Y35D01*
X890Y35D01*
X889Y35D01*
X888Y35D01*
X887Y35D01*
X886Y35D01*
X885Y35D01*
X884Y35D01*
X883Y35D01*
X882Y35D01*
X881Y35D01*
X880Y35D01*
X879Y35D01*
X878Y35D01*
X877Y35D01*
X876Y35D01*
X875Y35D01*
X874Y35D01*
X873Y35D01*
X872Y35D01*
X871Y35D01*
X870Y35D01*
X869Y35D01*
X868Y35D01*
X867Y35D01*
X866Y35D01*
X865Y35D01*
X864Y35D01*
X863Y35D01*
X862Y35D01*
X861Y35D01*
X860Y35D01*
X859Y35D01*
X858Y35D01*
X857Y35D01*
X856Y35D01*
X855Y35D01*
X854Y35D01*
X853Y35D01*
X852Y35D01*
X851Y35D01*
X850Y35D01*
X849Y35D01*
X848Y35D01*
X847Y35D01*
X846Y35D01*
X845Y35D01*
X844Y35D01*
X843Y35D01*
X842Y35D01*
X841Y35D01*
X840Y35D01*
X839Y35D01*
X838Y35D01*
X837Y35D01*
X836Y35D01*
X835Y35D01*
X834Y35D01*
X833Y35D01*
X832Y35D01*
X831Y35D01*
X830Y35D01*
X829Y35D01*
X828Y35D01*
X827Y35D01*
X826Y35D01*
X825Y35D01*
X824Y35D01*
X823Y35D01*
X822Y35D01*
X821Y35D01*
X820Y35D01*
X819Y35D01*
X818Y35D01*
X817Y35D01*
X816Y35D01*
X815Y35D01*
X814Y35D01*
X813Y35D01*
X812Y35D01*
X811Y35D01*
X810Y35D01*
X809Y35D01*
X808Y35D01*
X807Y35D01*
X806Y35D01*
X805Y35D01*
X804Y35D01*
X803Y35D01*
X802Y35D01*
X801Y35D01*
X800Y35D01*
X799Y35D01*
X798Y35D01*
X797Y35D01*
X796Y35D01*
X795Y35D01*
X794Y35D01*
X793Y35D01*
X792Y35D01*
X791Y35D01*
X790Y35D01*
X789Y35D01*
X788Y35D01*
X787Y35D01*
X786Y35D01*
X785Y35D01*
X784Y35D01*
X783Y35D01*
X782Y35D01*
X781Y35D01*
X780Y35D01*
X779Y35D01*
X778Y35D01*
X777Y35D01*
X776Y35D01*
X775Y35D01*
X774Y35D01*
X773Y35D01*
X772Y35D01*
X771Y35D01*
X770Y35D01*
X769Y35D01*
X768Y35D01*
X767Y35D01*
X766Y35D01*
X765Y35D01*
X764Y35D01*
X763Y35D01*
X762Y35D01*
X761Y35D01*
X760Y35D01*
X759Y35D01*
X758Y35D01*
X757Y35D01*
X756Y35D01*
X755Y35D01*
X754Y35D01*
X753Y35D01*
X752Y35D01*
X751Y35D01*
X750Y35D01*
X749Y35D01*
X748Y35D01*
X747Y35D01*
X746Y35D01*
X745Y35D01*
X744Y35D01*
X743Y35D01*
X742Y35D01*
X741Y35D01*
X740Y35D01*
X739Y35D01*
X738Y35D01*
X737Y35D01*
X736Y35D01*
X735Y35D01*
X734Y35D01*
X733Y35D01*
X732Y35D01*
X731Y35D01*
X730Y35D01*
X729Y35D01*
X728Y35D01*
X727Y35D01*
X726Y35D01*
X725Y35D01*
X724Y35D01*
X723Y35D01*
X722Y35D01*
X721Y35D01*
X720Y35D01*
X719Y35D01*
X718Y35D01*
X717Y35D01*
X716Y35D01*
X715Y35D01*
X714Y35D01*
X713Y35D01*
X712Y35D01*
X711Y35D01*
X710Y35D01*
X709Y35D01*
X708Y35D01*
X707Y35D01*
X706Y35D01*
X705Y35D01*
X704Y35D01*
X703Y35D01*
X702Y35D01*
X701Y35D01*
X700Y35D01*
X699Y35D01*
X698Y35D01*
X697Y35D01*
X696Y35D01*
X695Y35D01*
X694Y35D01*
X693Y35D01*
X692Y35D01*
X691Y35D01*
X690Y35D01*
X689Y35D01*
X688Y35D01*
X687Y35D01*
X686Y35D01*
X685Y35D01*
X684Y35D01*
X683Y35D01*
X682Y35D01*
X681Y35D01*
X680Y35D01*
X679Y35D01*
X678Y35D01*
X677Y35D01*
X676Y35D01*
X675Y35D01*
X674Y35D01*
X673Y35D01*
X672Y35D01*
X671Y35D01*
X670Y35D01*
X669Y35D01*
X668Y35D01*
X667Y35D01*
X666Y35D01*
X665Y35D01*
X664Y35D01*
X663Y35D01*
X662Y35D01*
X661Y35D01*
X660Y35D01*
X659Y35D01*
X658Y35D01*
X657Y35D01*
X656Y35D01*
X655Y35D01*
X654Y35D01*
X653Y35D01*
X652Y35D01*
X651Y35D01*
X650Y35D01*
X649Y35D01*
X648Y35D01*
X647Y35D01*
X646Y35D01*
X645Y35D01*
X644Y35D01*
X643Y35D01*
X642Y35D01*
X641Y35D01*
X640Y35D01*
X639Y35D01*
X638Y35D01*
X637Y35D01*
X636Y35D01*
X635Y35D01*
X634Y35D01*
X633Y35D01*
X632Y35D01*
X631Y35D01*
X630Y35D01*
X629Y35D01*
X628Y35D01*
X627Y35D01*
X626Y35D01*
X625Y35D01*
X624Y35D01*
X623Y35D01*
X622Y35D01*
X621Y35D01*
X620Y35D01*
X619Y35D01*
X618Y35D01*
X617Y35D01*
X616Y35D01*
X615Y35D01*
X614Y35D01*
X613Y35D01*
X612Y35D01*
X611Y35D01*
X610Y35D01*
X609Y35D01*
X608Y35D01*
X607Y35D01*
X606Y35D01*
X605Y35D01*
X604Y35D01*
X603Y35D01*
X602Y35D01*
X601Y35D01*
X600Y35D01*
X599Y35D01*
X598Y35D01*
X597Y35D01*
X596Y35D01*
X595Y35D01*
X594Y35D01*
X593Y35D01*
X592Y35D01*
X591Y35D01*
X590Y35D01*
X589Y35D01*
X588Y35D01*
X587Y35D01*
X586Y35D01*
X585Y35D01*
X584Y35D01*
X583Y35D01*
X582Y35D01*
X581Y35D01*
X580Y35D01*
X579Y35D01*
X578Y35D01*
X577Y35D01*
X576Y35D01*
X575Y35D01*
X574Y35D01*
X573Y35D01*
X572Y35D01*
X571Y35D01*
X570Y35D01*
X569Y35D01*
X568Y35D01*
X567Y35D01*
X566Y35D01*
X565Y35D01*
X564Y35D01*
X563Y35D01*
X562Y35D01*
X561Y35D01*
X560Y35D01*
X559Y35D01*
X558Y35D01*
X557Y35D01*
X556Y35D01*
X555Y35D01*
X554Y35D01*
X553Y35D01*
X552Y35D01*
X551Y35D01*
X550Y35D01*
X549Y35D01*
X548Y35D01*
X547Y35D01*
X546Y35D01*
X545Y35D01*
X544Y35D01*
X543Y35D01*
X542Y35D01*
X541Y35D01*
X540Y35D01*
X539Y35D01*
X538Y35D01*
X537Y35D01*
X536Y35D01*
X535Y35D01*
X534Y35D01*
X533Y35D01*
X532Y35D01*
X531Y35D01*
X530Y35D01*
X529Y35D01*
X528Y35D01*
X527Y35D01*
X526Y35D01*
X525Y35D01*
X524Y35D01*
X523Y35D01*
X522Y35D01*
X521Y35D01*
X520Y35D01*
X519Y35D01*
X518Y35D01*
X517Y35D01*
X516Y35D01*
X515Y35D01*
X514Y35D01*
X513Y35D01*
X512Y35D01*
X511Y35D01*
X510Y35D01*
X509Y35D01*
X508Y35D01*
X507Y35D01*
X506Y35D01*
X505Y35D01*
X504Y35D01*
X503Y35D01*
X502Y35D01*
X501Y35D01*
X500Y35D01*
X499Y35D01*
X498Y35D01*
X497Y35D01*
X496Y35D01*
X495Y35D01*
X494Y35D01*
X493Y35D01*
X492Y35D01*
X491Y35D01*
X490Y35D01*
X489Y35D01*
X488Y35D01*
X487Y35D01*
X486Y35D01*
X485Y35D01*
X484Y35D01*
X483Y35D01*
X482Y35D01*
X481Y35D01*
X480Y35D01*
X479Y35D01*
X478Y35D01*
X477Y35D01*
X476Y35D01*
X475Y35D01*
X474Y35D01*
X473Y35D01*
X472Y35D01*
X471Y35D01*
X470Y35D01*
X469Y35D01*
X468Y35D01*
X467Y35D01*
X466Y35D01*
X465Y35D01*
X464Y35D01*
X463Y35D01*
X462Y35D01*
X461Y35D01*
X460Y35D01*
X459Y35D01*
X458Y35D01*
X457Y35D01*
X456Y35D01*
X455Y35D01*
X454Y35D01*
X453Y35D01*
X452Y35D01*
X451Y35D01*
X450Y35D01*
X449Y35D01*
X448Y35D01*
X447Y35D01*
X446Y35D01*
X445Y35D01*
X444Y35D01*
X443Y35D01*
X442Y35D01*
X441Y35D01*
X440Y35D01*
X439Y35D01*
X438Y35D01*
X437Y35D01*
X436Y35D01*
X435Y35D01*
X434Y35D01*
X433Y35D01*
X432Y35D01*
X431Y35D01*
X430Y35D01*
X429Y35D01*
X428Y35D01*
X427Y35D01*
X426Y35D01*
X425Y35D01*
X424Y35D01*
X423Y35D01*
X422Y35D01*
X421Y35D01*
X420Y35D01*
X419Y35D01*
X418Y35D01*
X417Y35D01*
X416Y35D01*
X415Y35D01*
X414Y35D01*
X413Y35D01*
X412Y35D01*
X411Y35D01*
X410Y35D01*
X409Y35D01*
X408Y35D01*
X407Y35D01*
X406Y35D01*
X405Y35D01*
X404Y35D01*
X403Y35D01*
X402Y35D01*
X401Y35D01*
X400Y35D01*
X399Y35D01*
X398Y35D01*
X397Y35D01*
X396Y35D01*
X395Y35D01*
X394Y35D01*
X393Y35D01*
X392Y35D01*
X391Y35D01*
X390Y35D01*
X389Y35D01*
X388Y35D01*
X387Y35D01*
X386Y35D01*
X385Y35D01*
X384Y35D01*
X383Y35D01*
X382Y35D01*
X381Y35D01*
X380Y35D01*
X379Y35D01*
X378Y35D01*
X377Y35D01*
X376Y35D01*
X375Y35D01*
X374Y35D01*
X373Y35D01*
X372Y35D01*
X371Y35D01*
X370Y35D01*
X369Y35D01*
X368Y35D01*
X367Y35D01*
X366Y35D01*
X365Y35D01*
X364Y35D01*
X363Y35D01*
X362Y35D01*
X361Y35D01*
X360Y35D01*
X359Y35D01*
X358Y35D01*
X357Y35D01*
X356Y35D01*
X355Y35D01*
X354Y35D01*
X353Y35D01*
X352Y35D01*
X351Y35D01*
X350Y35D01*
X349Y35D01*
X348Y35D01*
X347Y35D01*
X346Y35D01*
X345Y35D01*
X344Y35D01*
X343Y35D01*
X342Y35D01*
X341Y35D01*
X340Y35D01*
X339Y35D01*
X338Y35D01*
X337Y35D01*
X336Y35D01*
X335Y35D01*
X334Y35D01*
X333Y35D01*
X332Y35D01*
X331Y35D01*
X330Y35D01*
X329Y35D01*
X328Y35D01*
X327Y35D01*
X326Y35D01*
X325Y35D01*
X324Y35D01*
X323Y35D01*
X322Y35D01*
X321Y35D01*
X320Y35D01*
X319Y35D01*
X318Y35D01*
X317Y35D01*
X316Y35D01*
X315Y35D01*
X314Y35D01*
X313Y35D01*
X312Y35D01*
X311Y35D01*
X310Y35D01*
X309Y35D01*
X308Y35D01*
X307Y35D01*
X306Y35D01*
X305Y35D01*
X304Y35D01*
X303Y35D01*
X302Y35D01*
X301Y35D01*
X300Y35D01*
X299Y35D01*
X298Y35D01*
X297Y35D01*
X296Y35D01*
X295Y35D01*
X294Y35D01*
X293Y35D01*
X292Y35D01*
X291Y35D01*
X290Y35D01*
X289Y35D01*
X288Y35D01*
X287Y35D01*
X286Y35D01*
X285Y35D01*
X284Y35D01*
X283Y35D01*
X282Y35D01*
X281Y35D01*
X280Y35D01*
X279Y35D01*
X278Y35D01*
X277Y35D01*
X276Y35D01*
X275Y35D01*
X274Y35D01*
X273Y35D01*
X272Y35D01*
X271Y35D01*
X270Y35D01*
X269Y35D01*
X268Y35D01*
X267Y35D01*
X266Y35D01*
X265Y35D01*
X264Y35D01*
X263Y35D01*
X262Y35D01*
X261Y35D01*
X260Y35D01*
X259Y35D01*
X258Y35D01*
X257Y35D01*
X256Y35D01*
X255Y35D01*
X254Y35D01*
X253Y35D01*
X252Y35D01*
X251Y35D01*
X250Y35D01*
X249Y35D01*
X248Y35D01*
X247Y35D01*
X246Y35D01*
X245Y35D01*
X244Y35D01*
X243Y35D01*
X242Y35D01*
X241Y35D01*
X240Y35D01*
X239Y35D01*
X238Y35D01*
X237Y35D01*
X236Y35D01*
X235Y35D01*
X234Y35D01*
X233Y35D01*
X232Y35D01*
X231Y35D01*
X230Y35D01*
X229Y35D01*
X228Y35D01*
X227Y35D01*
X226Y35D01*
X225Y35D01*
X224Y35D01*
X223Y35D01*
X222Y35D01*
X221Y35D01*
X220Y35D01*
X219Y35D01*
X218Y35D01*
X217Y35D01*
X216Y35D01*
X215Y35D01*
X214Y35D01*
X213Y35D01*
X212Y35D01*
X211Y35D01*
X210Y35D01*
X209Y35D01*
X208Y35D01*
X207Y35D01*
X206Y35D01*
X205Y35D01*
X204Y35D01*
X203Y35D01*
X202Y35D01*
X201Y35D01*
X200Y35D01*
X199Y35D01*
X198Y35D01*
X197Y35D01*
X196Y35D01*
X195Y35D01*
X194Y35D01*
X193Y35D01*
X192Y35D01*
X191Y35D01*
X190Y35D01*
X189Y35D01*
X188Y35D01*
X187Y35D01*
X186Y35D01*
X185Y35D01*
X184Y35D01*
X183Y35D01*
X182Y35D01*
X181Y35D01*
X180Y35D01*
X179Y35D01*
X178Y35D01*
X177Y35D01*
X176Y35D01*
X175Y35D01*
X174Y35D01*
X173Y35D01*
X172Y35D01*
X171Y35D01*
X170Y35D01*
X169Y35D01*
X168Y35D01*
X167Y35D01*
X166Y35D01*
X165Y35D01*
X164Y35D01*
X163Y35D01*
X162Y35D01*
X161Y35D01*
X160Y35D01*
X159Y35D01*
X158Y35D01*
X157Y35D01*
X156Y35D01*
X155Y35D01*
X154Y35D01*
X153Y35D01*
X152Y35D01*
X151Y35D01*
X150Y35D01*
X149Y35D01*
X148Y35D01*
X147Y35D01*
X146Y35D01*
X145Y35D01*
X144Y35D01*
X143Y35D01*
X142Y35D01*
X141Y35D01*
X140Y35D01*
X139Y35D01*
X138Y35D01*
X137Y35D01*
X136Y35D01*
X135Y35D01*
X134Y35D01*
X133Y35D01*
X132Y35D01*
X131Y35D01*
X130Y35D01*
X129Y35D01*
X128Y35D01*
X127Y35D01*
X126Y35D01*
X125Y35D01*
X124Y35D01*
X123Y35D01*
X122Y35D01*
X121Y35D01*
X120Y35D01*
X119Y35D01*
X118Y35D01*
X117Y35D01*
X116Y35D01*
X115Y35D01*
X114Y35D01*
X113Y35D01*
X112Y35D01*
X111Y36D01*
X110Y36D01*
X109Y36D01*
X108Y36D01*
X107Y36D01*
X106Y36D01*
X105Y36D01*
X104Y36D01*
X103Y37D01*
X102Y37D01*
X101Y37D01*
X100Y37D01*
X99Y37D01*
X98Y37D01*
X97Y38D01*
X96Y38D01*
X95Y38D01*
X94Y38D01*
X93Y39D01*
X92Y39D01*
X91Y39D01*
X90Y39D01*
X89Y40D01*
X88Y40D01*
X87Y40D01*
X86Y41D01*
X85Y41D01*
X84Y41D01*
X83Y42D01*
X82Y42D01*
X81Y42D01*
X80Y43D01*
X79Y43D01*
X78Y44D01*
X77Y44D01*
X76Y44D01*
X75Y45D01*
X74Y45D01*
X73Y46D01*
X72Y46D01*
X71Y47D01*
X70Y47D01*
X69Y48D01*
X68Y48D01*
X67Y49D01*
X66Y49D01*
X65Y50D01*
X64Y50D01*
X63Y51D01*
X62Y52D01*
X61Y52D01*
X60Y53D01*
X59Y53D01*
X58Y54D01*
X57Y55D01*
X56Y55D01*
X55Y56D01*
X54Y57D01*
X53Y57D01*
X52Y58D01*
X51Y59D01*
X50Y60D01*
X49Y61D01*
X48Y61D01*
X47Y62D01*
X46Y63D01*
X45Y64D01*
X44Y65D01*
X43Y66D01*
X42Y67D01*
X41Y68D01*
X40Y68D01*
X39Y69D01*
X38Y70D01*
X38Y71D01*
X37Y72D01*
X36Y73D01*
X35Y74D01*
X34Y75D01*
X33Y76D01*
X32Y77D01*
X31Y78D01*
X31Y79D01*
X30Y80D01*
X29Y81D01*
X28Y82D01*
X28Y83D01*
X27Y84D01*
X26Y85D01*
X25Y86D01*
X25Y87D01*
X24Y88D01*
X24Y89D01*
X23Y90D01*
X22Y91D01*
X22Y92D01*
X21Y93D01*
X21Y94D01*
X20Y95D01*
X19Y96D01*
X19Y97D01*
X18Y98D01*
X18Y99D01*
X17Y100D01*
X17Y101D01*
X16Y102D01*
X16Y103D01*
X15Y104D01*
X15Y106D01*
X14Y107D01*
X14Y108D01*
X13Y109D01*
X13Y111D01*
X12Y112D01*
X12Y114D01*
X11Y115D01*
X11Y117D01*
X10Y118D01*
X10Y120D01*
X9Y121D01*
X9Y124D01*
X8Y125D01*
X8Y128D01*
X7Y129D01*
X7Y134D01*
X6Y135D01*
X6Y142D01*
X5Y143D01*
X5Y1107D01*
X6Y1108D01*
X6Y1115D01*
X7Y1116D01*
X7Y1121D01*
X8Y1122D01*
X8Y1125D01*
X9Y1126D01*
X9Y1129D01*
X10Y1130D01*
X10Y1132D01*
X11Y1133D01*
X11Y1135D01*
X12Y1136D01*
X12Y1138D01*
X13Y1139D01*
X13Y1140D01*
X14Y1141D01*
X14Y1143D01*
X15Y1144D01*
X15Y1145D01*
X16Y1146D01*
X16Y1147D01*
X17Y1148D01*
X17Y1149D01*
X18Y1150D01*
X18Y1151D01*
X19Y1152D01*
X19Y1153D01*
X20Y1154D01*
X20Y1155D01*
X21Y1156D01*
X21Y1157D01*
X22Y1158D01*
X23Y1159D01*
X23Y1160D01*
X24Y1161D01*
X24Y1162D01*
X25Y1163D01*
X26Y1164D01*
X26Y1165D01*
X27Y1166D01*
X28Y1167D01*
X29Y1168D01*
X29Y1169D01*
X30Y1170D01*
X31Y1171D01*
X32Y1172D01*
X33Y1173D01*
X33Y1174D01*
X34Y1175D01*
X35Y1176D01*
X36Y1177D01*
X37Y1178D01*
X38Y1179D01*
X39Y1180D01*
X40Y1181D01*
X41Y1182D01*
X42Y1183D01*
X43Y1184D01*
X44Y1185D01*
X45Y1186D01*
X46Y1187D01*
X47Y1187D01*
X48Y1188D01*
X49Y1189D01*
X50Y1190D01*
X51Y1191D01*
X52Y1191D01*
X53Y1192D01*
X54Y1193D01*
X55Y1194D01*
X56Y1194D01*
X57Y1195D01*
X58Y1196D01*
X59Y1196D01*
X60Y1197D01*
X61Y1198D01*
X62Y1198D01*
X63Y1199D01*
X64Y1199D01*
X65Y1200D01*
X66Y1201D01*
X67Y1201D01*
X68Y1202D01*
X69Y1202D01*
X70Y1203D01*
X71Y1203D01*
X72Y1204D01*
X73Y1204D01*
X74Y1205D01*
X75Y1205D01*
X76Y1205D01*
X77Y1206D01*
X78Y1206D01*
X79Y1207D01*
X80Y1207D01*
X81Y1207D01*
X82Y1208D01*
X83Y1208D01*
X84Y1209D01*
X85Y1209D01*
X86Y1209D01*
X87Y1210D01*
X88Y1210D01*
X89Y1210D01*
X90Y1210D01*
X91Y1211D01*
X92Y1211D01*
X93Y1211D01*
X94Y1212D01*
X95Y1212D01*
X96Y1212D01*
X97Y1212D01*
X98Y1212D01*
X99Y1213D01*
X100Y1213D01*
X101Y1213D01*
X102Y1213D01*
X103Y1213D01*
X104Y1214D01*
X105Y1214D01*
X106Y1214D01*
X107Y1214D01*
X108Y1214D01*
X109Y1214D01*
X110Y1214D01*
X111Y1214D01*
X112Y1215D01*
D02*
X123Y1216D02*
X123Y1216D02*
D02*
G04 End of contour*
M02*