; NON-PLATED HOLES START AT T1
; THROUGH (PLATED) HOLES START AT T100
M48
INCH
T1C0.108268
T2C0.125590
T100C0.031555
T101C0.039247
T102C0.040639
T103C0.015748
T104C0.062795
T105C0.031496
%
T1
X024264Y010792
X001414Y010802
X024264Y001702
X001424Y001702
T2
X004441Y003310
X004441Y007796
T100
X020695Y005952
T101
X002514Y003952
X002514Y008151
X006940Y004307
X006940Y005304
X006940Y007298
X007939Y003809
X006940Y006301
X007939Y006799
X007939Y004806
X007939Y005802
X002514Y002971
X002514Y007170
T102
X020338Y011302
X022338Y011302
X021338Y011302
X009338Y010302
X007338Y010302
X005338Y010302
X003338Y010302
X008338Y010302
X006338Y010302
X004338Y010302
X012338Y010302
X010338Y010302
X019338Y010302
X017338Y010302
X015338Y010302
X013338Y010302
X011338Y010302
X018338Y010302
X016338Y010302
X014338Y010302
X003338Y011302
X005338Y011302
X007338Y011302
X009338Y011302
X004338Y011302
X006338Y011302
X008338Y011302
X022338Y010302
X020338Y010302
X021338Y010302
X010338Y011302
X012338Y011302
X011338Y011302
X013338Y011302
X015338Y011302
X017338Y011302
X019338Y011302
X014338Y011302
X016338Y011302
X018338Y011302
T103
X006014Y005948
X010014Y007424
X022268Y008948
X014518Y004450
X000764Y004452
X013014Y008952
X015292Y006882
X009268Y002456
X012760Y006948
X013264Y007952
X013264Y005452
X000514Y006702
X011014Y007452
X014014Y003952
X008760Y003456
X009522Y003694
X008770Y007957
X013259Y002446
X007525Y002446
X022514Y007452
X015271Y008443
X003514Y005202
X012262Y004954
X009264Y009452
X009259Y008446
X011855Y002472
X006014Y007202
T104
X005623Y008544
X005623Y002578
T105
X018764Y005952
T00
M30
