G04 MADE WITH FRITZING*
G04 WWW.FRITZING.ORG*
G04 DOUBLE SIDED*
G04 HOLES PLATED*
G04 CONTOUR ON CENTER OF CONTOUR VECTOR*
%ASAXBY*%
%FSLAX23Y23*%
%MOIN*%
%OFA0B0*%
%SFA1.0B1.0*%
%ADD10C,0.085361*%
%ADD11C,0.049370*%
%ADD12C,0.080925*%
%ADD13C,0.080866*%
%ADD14C,0.033622*%
%ADD15C,0.083768*%
%ADD16C,0.059844*%
%ADD17C,0.095731*%
%ADD18C,0.135590*%
%ADD19C,0.118268*%
%ADD20R,0.072992X0.084803*%
%ADD21R,0.072992X0.080866*%
%ADD22R,0.065118X0.072992*%
%ADD23R,0.150000X0.090000*%
%ADD24R,0.057244X0.065118*%
%ADD25R,0.023701X0.065000*%
%ADD26R,0.001000X0.001000*%
%LNMASK1*%
G90*
G70*
G54D10*
X334Y1030D03*
X434Y1030D03*
X534Y1030D03*
X634Y1030D03*
X734Y1030D03*
X834Y1030D03*
X934Y1030D03*
X1034Y1030D03*
X1134Y1030D03*
X1234Y1030D03*
X1334Y1030D03*
X1434Y1030D03*
X1534Y1030D03*
X1634Y1030D03*
X1734Y1030D03*
X1834Y1030D03*
X1934Y1030D03*
X2034Y1030D03*
X2134Y1030D03*
X2234Y1030D03*
X2234Y1130D03*
X2134Y1130D03*
X2034Y1130D03*
X1934Y1130D03*
X1834Y1130D03*
X1734Y1130D03*
X1634Y1130D03*
X1534Y1130D03*
X1434Y1130D03*
X1334Y1130D03*
X1234Y1130D03*
X1134Y1130D03*
X1034Y1130D03*
X934Y1130D03*
X834Y1130D03*
X734Y1130D03*
X634Y1130D03*
X534Y1130D03*
X434Y1130D03*
X334Y1130D03*
G54D11*
X753Y245D03*
X952Y369D03*
X51Y670D03*
X76Y445D03*
X1529Y688D03*
X1326Y545D03*
X1101Y745D03*
X2251Y745D03*
X1452Y445D03*
X1226Y495D03*
X1186Y247D03*
X876Y346D03*
X926Y845D03*
X877Y796D03*
X1001Y742D03*
X1326Y245D03*
X1401Y395D03*
G54D12*
X2070Y595D03*
G54D13*
X1876Y595D03*
G54D11*
X1527Y844D03*
X1326Y795D03*
X1301Y895D03*
X2227Y895D03*
G54D14*
X351Y520D03*
G54D11*
X601Y595D03*
X601Y720D03*
X1276Y695D03*
X926Y945D03*
X927Y246D03*
G54D15*
X694Y730D03*
X794Y680D03*
X694Y630D03*
X794Y580D03*
X694Y530D03*
X794Y481D03*
X694Y431D03*
X794Y381D03*
G54D16*
X251Y815D03*
X251Y717D03*
X251Y395D03*
X251Y297D03*
G54D17*
X562Y854D03*
X562Y258D03*
G54D18*
X444Y780D03*
X444Y331D03*
G54D19*
X141Y1080D03*
X142Y170D03*
X2426Y1079D03*
X2426Y170D03*
G54D20*
X1001Y520D03*
X1124Y520D03*
X1651Y170D03*
X1774Y170D03*
X1001Y920D03*
X1124Y920D03*
X1001Y820D03*
X1124Y820D03*
G54D21*
X2126Y170D03*
X2237Y170D03*
X2051Y870D03*
X2162Y870D03*
X1851Y870D03*
X1962Y870D03*
G54D22*
X1616Y870D03*
X1726Y870D03*
G54D23*
X2376Y495D03*
X2376Y695D03*
G54D24*
X1901Y170D03*
X2020Y170D03*
G54D25*
X1557Y321D03*
X1531Y321D03*
X1505Y321D03*
X1480Y321D03*
X1454Y321D03*
X1429Y321D03*
X1403Y321D03*
X1352Y321D03*
X1377Y321D03*
X1326Y321D03*
X1301Y321D03*
X1275Y321D03*
X1249Y321D03*
X1224Y321D03*
X1557Y609D03*
X1531Y609D03*
X1505Y609D03*
X1480Y609D03*
X1454Y609D03*
X1429Y609D03*
X1403Y609D03*
X1377Y609D03*
X1352Y609D03*
X1326Y609D03*
X1301Y609D03*
X1275Y609D03*
X1249Y609D03*
X1224Y609D03*
G54D20*
X701Y170D03*
X824Y170D03*
X951Y170D03*
X1074Y170D03*
G54D21*
X576Y170D03*
X466Y170D03*
X251Y170D03*
X362Y170D03*
G54D20*
X376Y920D03*
X254Y920D03*
X826Y920D03*
X704Y920D03*
G54D26*
X652Y772D02*
X735Y772D01*
X652Y771D02*
X735Y771D01*
X652Y770D02*
X735Y770D01*
X652Y769D02*
X735Y769D01*
X652Y768D02*
X735Y768D01*
X652Y767D02*
X735Y767D01*
X652Y766D02*
X735Y766D01*
X652Y765D02*
X735Y765D01*
X652Y764D02*
X735Y764D01*
X652Y763D02*
X735Y763D01*
X652Y762D02*
X735Y762D01*
X652Y761D02*
X735Y761D01*
X652Y760D02*
X735Y760D01*
X652Y759D02*
X735Y759D01*
X652Y758D02*
X735Y758D01*
X652Y757D02*
X735Y757D01*
X652Y756D02*
X735Y756D01*
X652Y755D02*
X735Y755D01*
X652Y754D02*
X735Y754D01*
X652Y753D02*
X735Y753D01*
X652Y752D02*
X735Y752D01*
X652Y751D02*
X735Y751D01*
X652Y750D02*
X735Y750D01*
X652Y749D02*
X735Y749D01*
X652Y748D02*
X735Y748D01*
X652Y747D02*
X735Y747D01*
X652Y746D02*
X735Y746D01*
X652Y745D02*
X689Y745D01*
X698Y745D02*
X735Y745D01*
X652Y744D02*
X687Y744D01*
X700Y744D02*
X735Y744D01*
X652Y743D02*
X685Y743D01*
X702Y743D02*
X735Y743D01*
X652Y742D02*
X684Y742D01*
X703Y742D02*
X735Y742D01*
X652Y741D02*
X682Y741D01*
X704Y741D02*
X735Y741D01*
X652Y740D02*
X682Y740D01*
X705Y740D02*
X735Y740D01*
X652Y739D02*
X681Y739D01*
X706Y739D02*
X735Y739D01*
X652Y738D02*
X680Y738D01*
X707Y738D02*
X735Y738D01*
X652Y737D02*
X680Y737D01*
X707Y737D02*
X735Y737D01*
X652Y736D02*
X679Y736D01*
X708Y736D02*
X735Y736D01*
X652Y735D02*
X679Y735D01*
X708Y735D02*
X735Y735D01*
X652Y734D02*
X679Y734D01*
X708Y734D02*
X735Y734D01*
X652Y733D02*
X679Y733D01*
X708Y733D02*
X735Y733D01*
X652Y732D02*
X678Y732D01*
X709Y732D02*
X735Y732D01*
X652Y731D02*
X678Y731D01*
X709Y731D02*
X735Y731D01*
X652Y730D02*
X678Y730D01*
X709Y730D02*
X735Y730D01*
X652Y729D02*
X678Y729D01*
X709Y729D02*
X735Y729D01*
X652Y728D02*
X679Y728D01*
X708Y728D02*
X735Y728D01*
X652Y727D02*
X679Y727D01*
X708Y727D02*
X735Y727D01*
X652Y726D02*
X679Y726D01*
X708Y726D02*
X735Y726D01*
X652Y725D02*
X679Y725D01*
X708Y725D02*
X735Y725D01*
X652Y724D02*
X680Y724D01*
X707Y724D02*
X735Y724D01*
X652Y723D02*
X681Y723D01*
X706Y723D02*
X735Y723D01*
X652Y722D02*
X681Y722D01*
X706Y722D02*
X735Y722D01*
X652Y721D02*
X682Y721D01*
X705Y721D02*
X735Y721D01*
X652Y720D02*
X683Y720D01*
X704Y720D02*
X735Y720D01*
X652Y719D02*
X684Y719D01*
X703Y719D02*
X735Y719D01*
X652Y718D02*
X686Y718D01*
X701Y718D02*
X735Y718D01*
X652Y717D02*
X688Y717D01*
X699Y717D02*
X735Y717D01*
X652Y716D02*
X735Y716D01*
X652Y715D02*
X735Y715D01*
X652Y714D02*
X735Y714D01*
X652Y713D02*
X735Y713D01*
X652Y712D02*
X735Y712D01*
X652Y711D02*
X735Y711D01*
X652Y710D02*
X735Y710D01*
X652Y709D02*
X735Y709D01*
X652Y708D02*
X735Y708D01*
X652Y707D02*
X735Y707D01*
X652Y706D02*
X735Y706D01*
X652Y705D02*
X735Y705D01*
X652Y704D02*
X735Y704D01*
X652Y703D02*
X735Y703D01*
X652Y702D02*
X735Y702D01*
X652Y701D02*
X735Y701D01*
X652Y700D02*
X735Y700D01*
X652Y699D02*
X735Y699D01*
X652Y698D02*
X735Y698D01*
X652Y697D02*
X735Y697D01*
X652Y696D02*
X735Y696D01*
X652Y695D02*
X735Y695D01*
X652Y694D02*
X735Y694D01*
X652Y693D02*
X735Y693D01*
X652Y692D02*
X735Y692D01*
X652Y691D02*
X735Y691D01*
X652Y690D02*
X735Y690D01*
X652Y689D02*
X735Y689D01*
D02*
G04 End of Mask1*
M02*