G04 MADE WITH FRITZING*
G04 WWW.FRITZING.ORG*
G04 DOUBLE SIDED*
G04 HOLES PLATED*
G04 CONTOUR ON CENTER OF CONTOUR VECTOR*
%ASAXBY*%
%FSLAX23Y23*%
%MOIN*%
%OFA0B0*%
%SFA1.0B1.0*%
%ADD10C,0.125590*%
%ADD11R,0.062992X0.074803*%
%ADD12R,0.062992X0.070866*%
%ADD13R,0.055118X0.062992*%
%ADD14R,0.140000X0.080000*%
%ADD15R,0.047244X0.055118*%
%ADD16R,0.013701X0.055000*%
%LNPASTEMASK1*%
G90*
G70*
G54D10*
X444Y780D03*
X444Y331D03*
G54D11*
X1001Y520D03*
X1124Y520D03*
X1651Y170D03*
X1774Y170D03*
X1001Y920D03*
X1124Y920D03*
X1001Y820D03*
X1124Y820D03*
G54D12*
X2126Y170D03*
X2237Y170D03*
X2051Y870D03*
X2162Y870D03*
X1851Y870D03*
X1962Y870D03*
G54D13*
X1616Y870D03*
X1726Y870D03*
G54D14*
X2376Y495D03*
X2376Y695D03*
G54D15*
X1901Y170D03*
X2020Y170D03*
G54D16*
X1557Y321D03*
X1531Y321D03*
X1505Y321D03*
X1480Y321D03*
X1454Y321D03*
X1429Y321D03*
X1403Y321D03*
X1352Y321D03*
X1377Y321D03*
X1326Y321D03*
X1301Y321D03*
X1275Y321D03*
X1249Y321D03*
X1224Y321D03*
X1557Y609D03*
X1531Y609D03*
X1505Y609D03*
X1480Y609D03*
X1454Y609D03*
X1429Y609D03*
X1403Y609D03*
X1377Y609D03*
X1352Y609D03*
X1326Y609D03*
X1301Y609D03*
X1275Y609D03*
X1249Y609D03*
X1224Y609D03*
G54D11*
X701Y170D03*
X824Y170D03*
X951Y170D03*
X1074Y170D03*
G54D12*
X576Y170D03*
X466Y170D03*
X251Y170D03*
X362Y170D03*
G54D11*
X376Y920D03*
X254Y920D03*
X826Y920D03*
X704Y920D03*
G04 End of PasteMask1*
M02*