G04 MADE WITH FRITZING*
G04 WWW.FRITZING.ORG*
G04 DOUBLE SIDED*
G04 HOLES PLATED*
G04 CONTOUR ON CENTER OF CONTOUR VECTOR*
%ASAXBY*%
%FSLAX23Y23*%
%MOIN*%
%OFA0B0*%
%SFA1.0B1.0*%
%ADD10R,0.001000X0.001000*%
%LNSILK0*%
G90*
G70*
G54D10*
X112Y1220D02*
X2455Y1220D01*
X104Y1219D02*
X2463Y1219D01*
X99Y1218D02*
X2469Y1218D01*
X94Y1217D02*
X2473Y1217D01*
X90Y1216D02*
X2477Y1216D01*
X87Y1215D02*
X2480Y1215D01*
X84Y1214D02*
X2483Y1214D01*
X81Y1213D02*
X2486Y1213D01*
X78Y1212D02*
X2489Y1212D01*
X76Y1211D02*
X2491Y1211D01*
X74Y1210D02*
X111Y1210D01*
X2456Y1210D02*
X2494Y1210D01*
X71Y1209D02*
X104Y1209D01*
X2464Y1209D02*
X2496Y1209D01*
X69Y1208D02*
X98Y1208D01*
X2469Y1208D02*
X2498Y1208D01*
X67Y1207D02*
X94Y1207D01*
X2473Y1207D02*
X2500Y1207D01*
X65Y1206D02*
X90Y1206D01*
X2477Y1206D02*
X2502Y1206D01*
X64Y1205D02*
X87Y1205D01*
X2480Y1205D02*
X2504Y1205D01*
X62Y1204D02*
X84Y1204D01*
X2483Y1204D02*
X2506Y1204D01*
X60Y1203D02*
X81Y1203D01*
X2486Y1203D02*
X2507Y1203D01*
X58Y1202D02*
X79Y1202D01*
X2489Y1202D02*
X2509Y1202D01*
X57Y1201D02*
X77Y1201D01*
X2491Y1201D02*
X2511Y1201D01*
X55Y1200D02*
X74Y1200D01*
X2493Y1200D02*
X2512Y1200D01*
X54Y1199D02*
X72Y1199D01*
X2495Y1199D02*
X2514Y1199D01*
X52Y1198D02*
X70Y1198D01*
X2497Y1198D02*
X2515Y1198D01*
X51Y1197D02*
X68Y1197D01*
X2499Y1197D02*
X2516Y1197D01*
X50Y1196D02*
X67Y1196D01*
X2501Y1196D02*
X2518Y1196D01*
X48Y1195D02*
X65Y1195D01*
X2503Y1195D02*
X2519Y1195D01*
X47Y1194D02*
X63Y1194D01*
X2504Y1194D02*
X2520Y1194D01*
X46Y1193D02*
X62Y1193D01*
X2506Y1193D02*
X2522Y1193D01*
X45Y1192D02*
X60Y1192D01*
X2507Y1192D02*
X2523Y1192D01*
X43Y1191D02*
X59Y1191D01*
X2509Y1191D02*
X2524Y1191D01*
X42Y1190D02*
X57Y1190D01*
X2510Y1190D02*
X2525Y1190D01*
X41Y1189D02*
X56Y1189D01*
X2512Y1189D02*
X2526Y1189D01*
X40Y1188D02*
X55Y1188D01*
X2513Y1188D02*
X2527Y1188D01*
X39Y1187D02*
X53Y1187D01*
X2514Y1187D02*
X2528Y1187D01*
X38Y1186D02*
X52Y1186D01*
X2515Y1186D02*
X2530Y1186D01*
X37Y1185D02*
X51Y1185D01*
X2517Y1185D02*
X2531Y1185D01*
X36Y1184D02*
X50Y1184D01*
X2518Y1184D02*
X2532Y1184D01*
X35Y1183D02*
X48Y1183D01*
X2519Y1183D02*
X2533Y1183D01*
X34Y1182D02*
X47Y1182D01*
X2520Y1182D02*
X2533Y1182D01*
X33Y1181D02*
X46Y1181D01*
X2521Y1181D02*
X2534Y1181D01*
X32Y1180D02*
X45Y1180D01*
X2522Y1180D02*
X2535Y1180D01*
X31Y1179D02*
X44Y1179D01*
X2523Y1179D02*
X2536Y1179D01*
X30Y1178D02*
X43Y1178D01*
X2524Y1178D02*
X2537Y1178D01*
X29Y1177D02*
X42Y1177D01*
X2525Y1177D02*
X2538Y1177D01*
X29Y1176D02*
X41Y1176D01*
X2526Y1176D02*
X2539Y1176D01*
X28Y1175D02*
X40Y1175D01*
X2527Y1175D02*
X2540Y1175D01*
X27Y1174D02*
X39Y1174D01*
X2528Y1174D02*
X2540Y1174D01*
X26Y1173D02*
X38Y1173D01*
X2529Y1173D02*
X2541Y1173D01*
X25Y1172D02*
X37Y1172D01*
X2530Y1172D02*
X2542Y1172D01*
X25Y1171D02*
X36Y1171D01*
X2531Y1171D02*
X2543Y1171D01*
X24Y1170D02*
X36Y1170D01*
X2532Y1170D02*
X2543Y1170D01*
X23Y1169D02*
X35Y1169D01*
X2533Y1169D02*
X2544Y1169D01*
X23Y1168D02*
X34Y1168D01*
X2533Y1168D02*
X2545Y1168D01*
X22Y1167D02*
X33Y1167D01*
X2534Y1167D02*
X2545Y1167D01*
X21Y1166D02*
X32Y1166D01*
X2535Y1166D02*
X2546Y1166D01*
X20Y1165D02*
X32Y1165D01*
X2536Y1165D02*
X2547Y1165D01*
X20Y1164D02*
X31Y1164D01*
X2536Y1164D02*
X2547Y1164D01*
X19Y1163D02*
X30Y1163D01*
X2537Y1163D02*
X2548Y1163D01*
X19Y1162D02*
X29Y1162D01*
X2538Y1162D02*
X2549Y1162D01*
X18Y1161D02*
X29Y1161D01*
X2539Y1161D02*
X2549Y1161D01*
X17Y1160D02*
X28Y1160D01*
X2539Y1160D02*
X2550Y1160D01*
X17Y1159D02*
X27Y1159D01*
X2540Y1159D02*
X2550Y1159D01*
X16Y1158D02*
X27Y1158D01*
X2541Y1158D02*
X2551Y1158D01*
X16Y1157D02*
X26Y1157D01*
X2541Y1157D02*
X2552Y1157D01*
X15Y1156D02*
X25Y1156D01*
X2542Y1156D02*
X2552Y1156D01*
X15Y1155D02*
X25Y1155D01*
X2542Y1155D02*
X2553Y1155D01*
X14Y1154D02*
X24Y1154D01*
X2543Y1154D02*
X2553Y1154D01*
X14Y1153D02*
X24Y1153D01*
X2543Y1153D02*
X2554Y1153D01*
X13Y1152D02*
X23Y1152D01*
X2544Y1152D02*
X2554Y1152D01*
X13Y1151D02*
X23Y1151D01*
X2545Y1151D02*
X2555Y1151D01*
X12Y1150D02*
X22Y1150D01*
X2545Y1150D02*
X2555Y1150D01*
X12Y1149D02*
X22Y1149D01*
X2546Y1149D02*
X2556Y1149D01*
X11Y1148D02*
X21Y1148D01*
X2546Y1148D02*
X2556Y1148D01*
X11Y1147D02*
X21Y1147D01*
X2547Y1147D02*
X2556Y1147D01*
X10Y1146D02*
X20Y1146D01*
X2547Y1146D02*
X2557Y1146D01*
X10Y1145D02*
X20Y1145D01*
X2548Y1145D02*
X2557Y1145D01*
X9Y1144D02*
X19Y1144D01*
X2548Y1144D02*
X2558Y1144D01*
X9Y1143D02*
X19Y1143D01*
X2548Y1143D02*
X2558Y1143D01*
X9Y1142D02*
X18Y1142D01*
X2549Y1142D02*
X2558Y1142D01*
X8Y1141D02*
X18Y1141D01*
X2549Y1141D02*
X2559Y1141D01*
X8Y1140D02*
X17Y1140D01*
X2550Y1140D02*
X2559Y1140D01*
X7Y1139D02*
X17Y1139D01*
X2550Y1139D02*
X2560Y1139D01*
X7Y1138D02*
X17Y1138D01*
X2551Y1138D02*
X2560Y1138D01*
X7Y1137D02*
X16Y1137D01*
X2551Y1137D02*
X2560Y1137D01*
X6Y1136D02*
X16Y1136D01*
X2551Y1136D02*
X2561Y1136D01*
X6Y1135D02*
X15Y1135D01*
X2552Y1135D02*
X2561Y1135D01*
X6Y1134D02*
X15Y1134D01*
X2552Y1134D02*
X2561Y1134D01*
X5Y1133D02*
X15Y1133D01*
X2552Y1133D02*
X2562Y1133D01*
X5Y1132D02*
X14Y1132D01*
X2553Y1132D02*
X2562Y1132D01*
X5Y1131D02*
X14Y1131D01*
X2553Y1131D02*
X2562Y1131D01*
X5Y1130D02*
X14Y1130D01*
X2553Y1130D02*
X2562Y1130D01*
X4Y1129D02*
X14Y1129D01*
X2554Y1129D02*
X2563Y1129D01*
X4Y1128D02*
X13Y1128D01*
X2554Y1128D02*
X2563Y1128D01*
X4Y1127D02*
X13Y1127D01*
X2554Y1127D02*
X2563Y1127D01*
X4Y1126D02*
X13Y1126D01*
X2554Y1126D02*
X2563Y1126D01*
X3Y1125D02*
X12Y1125D01*
X2555Y1125D02*
X2564Y1125D01*
X3Y1124D02*
X12Y1124D01*
X2555Y1124D02*
X2564Y1124D01*
X3Y1123D02*
X12Y1123D01*
X2555Y1123D02*
X2564Y1123D01*
X3Y1122D02*
X12Y1122D01*
X2555Y1122D02*
X2564Y1122D01*
X2Y1121D02*
X12Y1121D01*
X2555Y1121D02*
X2565Y1121D01*
X2Y1120D02*
X11Y1120D01*
X2556Y1120D02*
X2565Y1120D01*
X2Y1119D02*
X11Y1119D01*
X2556Y1119D02*
X2565Y1119D01*
X2Y1118D02*
X11Y1118D01*
X2556Y1118D02*
X2565Y1118D01*
X2Y1117D02*
X11Y1117D01*
X2556Y1117D02*
X2565Y1117D01*
X2Y1116D02*
X11Y1116D01*
X2556Y1116D02*
X2565Y1116D01*
X1Y1115D02*
X10Y1115D01*
X2557Y1115D02*
X2566Y1115D01*
X1Y1114D02*
X10Y1114D01*
X2557Y1114D02*
X2566Y1114D01*
X1Y1113D02*
X10Y1113D01*
X2557Y1113D02*
X2566Y1113D01*
X1Y1112D02*
X10Y1112D01*
X2557Y1112D02*
X2566Y1112D01*
X1Y1111D02*
X10Y1111D01*
X2557Y1111D02*
X2566Y1111D01*
X1Y1110D02*
X10Y1110D01*
X2557Y1110D02*
X2566Y1110D01*
X1Y1109D02*
X10Y1109D01*
X2557Y1109D02*
X2566Y1109D01*
X1Y1108D02*
X10Y1108D01*
X2557Y1108D02*
X2566Y1108D01*
X0Y1107D02*
X9Y1107D01*
X2558Y1107D02*
X2567Y1107D01*
X0Y1106D02*
X9Y1106D01*
X2558Y1106D02*
X2567Y1106D01*
X0Y1105D02*
X9Y1105D01*
X2558Y1105D02*
X2567Y1105D01*
X0Y1104D02*
X9Y1104D01*
X2558Y1104D02*
X2567Y1104D01*
X0Y1103D02*
X9Y1103D01*
X2558Y1103D02*
X2567Y1103D01*
X0Y1102D02*
X9Y1102D01*
X2558Y1102D02*
X2567Y1102D01*
X0Y1101D02*
X9Y1101D01*
X2558Y1101D02*
X2567Y1101D01*
X0Y1100D02*
X9Y1100D01*
X2558Y1100D02*
X2567Y1100D01*
X0Y1099D02*
X9Y1099D01*
X2558Y1099D02*
X2567Y1099D01*
X0Y1098D02*
X9Y1098D01*
X2558Y1098D02*
X2567Y1098D01*
X0Y1097D02*
X9Y1097D01*
X2558Y1097D02*
X2567Y1097D01*
X0Y1096D02*
X9Y1096D01*
X2558Y1096D02*
X2567Y1096D01*
X0Y1095D02*
X9Y1095D01*
X2558Y1095D02*
X2567Y1095D01*
X0Y1094D02*
X9Y1094D01*
X2558Y1094D02*
X2567Y1094D01*
X0Y1093D02*
X9Y1093D01*
X2558Y1093D02*
X2567Y1093D01*
X0Y1092D02*
X9Y1092D01*
X2558Y1092D02*
X2567Y1092D01*
X0Y1091D02*
X9Y1091D01*
X2558Y1091D02*
X2567Y1091D01*
X0Y1090D02*
X9Y1090D01*
X2558Y1090D02*
X2567Y1090D01*
X0Y1089D02*
X9Y1089D01*
X2558Y1089D02*
X2567Y1089D01*
X0Y1088D02*
X9Y1088D01*
X2558Y1088D02*
X2567Y1088D01*
X0Y1087D02*
X9Y1087D01*
X2558Y1087D02*
X2567Y1087D01*
X0Y1086D02*
X9Y1086D01*
X2558Y1086D02*
X2567Y1086D01*
X0Y1085D02*
X9Y1085D01*
X2558Y1085D02*
X2567Y1085D01*
X0Y1084D02*
X9Y1084D01*
X2558Y1084D02*
X2567Y1084D01*
X0Y1083D02*
X9Y1083D01*
X2558Y1083D02*
X2567Y1083D01*
X0Y1082D02*
X9Y1082D01*
X2558Y1082D02*
X2567Y1082D01*
X0Y1081D02*
X9Y1081D01*
X2558Y1081D02*
X2567Y1081D01*
X0Y1080D02*
X9Y1080D01*
X2558Y1080D02*
X2567Y1080D01*
X0Y1079D02*
X9Y1079D01*
X2558Y1079D02*
X2567Y1079D01*
X0Y1078D02*
X9Y1078D01*
X2558Y1078D02*
X2567Y1078D01*
X0Y1077D02*
X9Y1077D01*
X2558Y1077D02*
X2567Y1077D01*
X0Y1076D02*
X9Y1076D01*
X2558Y1076D02*
X2567Y1076D01*
X0Y1075D02*
X9Y1075D01*
X2558Y1075D02*
X2567Y1075D01*
X0Y1074D02*
X9Y1074D01*
X2558Y1074D02*
X2567Y1074D01*
X0Y1073D02*
X9Y1073D01*
X2558Y1073D02*
X2567Y1073D01*
X0Y1072D02*
X9Y1072D01*
X2558Y1072D02*
X2567Y1072D01*
X0Y1071D02*
X9Y1071D01*
X2558Y1071D02*
X2567Y1071D01*
X0Y1070D02*
X9Y1070D01*
X2558Y1070D02*
X2567Y1070D01*
X0Y1069D02*
X9Y1069D01*
X2558Y1069D02*
X2567Y1069D01*
X0Y1068D02*
X9Y1068D01*
X2558Y1068D02*
X2567Y1068D01*
X0Y1067D02*
X9Y1067D01*
X2558Y1067D02*
X2567Y1067D01*
X0Y1066D02*
X9Y1066D01*
X2558Y1066D02*
X2567Y1066D01*
X0Y1065D02*
X9Y1065D01*
X2558Y1065D02*
X2567Y1065D01*
X0Y1064D02*
X9Y1064D01*
X2558Y1064D02*
X2567Y1064D01*
X0Y1063D02*
X9Y1063D01*
X2558Y1063D02*
X2567Y1063D01*
X0Y1062D02*
X9Y1062D01*
X2558Y1062D02*
X2567Y1062D01*
X0Y1061D02*
X9Y1061D01*
X2558Y1061D02*
X2567Y1061D01*
X0Y1060D02*
X9Y1060D01*
X2558Y1060D02*
X2567Y1060D01*
X0Y1059D02*
X9Y1059D01*
X2558Y1059D02*
X2567Y1059D01*
X0Y1058D02*
X9Y1058D01*
X2558Y1058D02*
X2567Y1058D01*
X0Y1057D02*
X9Y1057D01*
X2558Y1057D02*
X2567Y1057D01*
X0Y1056D02*
X9Y1056D01*
X2558Y1056D02*
X2567Y1056D01*
X0Y1055D02*
X9Y1055D01*
X2558Y1055D02*
X2567Y1055D01*
X0Y1054D02*
X9Y1054D01*
X2558Y1054D02*
X2567Y1054D01*
X0Y1053D02*
X9Y1053D01*
X2558Y1053D02*
X2567Y1053D01*
X0Y1052D02*
X9Y1052D01*
X2558Y1052D02*
X2567Y1052D01*
X0Y1051D02*
X9Y1051D01*
X2558Y1051D02*
X2567Y1051D01*
X0Y1050D02*
X9Y1050D01*
X2558Y1050D02*
X2567Y1050D01*
X0Y1049D02*
X9Y1049D01*
X2558Y1049D02*
X2567Y1049D01*
X0Y1048D02*
X9Y1048D01*
X2558Y1048D02*
X2567Y1048D01*
X0Y1047D02*
X9Y1047D01*
X2558Y1047D02*
X2567Y1047D01*
X0Y1046D02*
X9Y1046D01*
X2558Y1046D02*
X2567Y1046D01*
X0Y1045D02*
X9Y1045D01*
X2558Y1045D02*
X2567Y1045D01*
X0Y1044D02*
X9Y1044D01*
X2558Y1044D02*
X2567Y1044D01*
X0Y1043D02*
X9Y1043D01*
X2558Y1043D02*
X2567Y1043D01*
X0Y1042D02*
X9Y1042D01*
X2558Y1042D02*
X2567Y1042D01*
X0Y1041D02*
X9Y1041D01*
X2558Y1041D02*
X2567Y1041D01*
X0Y1040D02*
X9Y1040D01*
X2558Y1040D02*
X2567Y1040D01*
X0Y1039D02*
X9Y1039D01*
X2558Y1039D02*
X2567Y1039D01*
X0Y1038D02*
X9Y1038D01*
X2558Y1038D02*
X2567Y1038D01*
X0Y1037D02*
X9Y1037D01*
X2558Y1037D02*
X2567Y1037D01*
X0Y1036D02*
X9Y1036D01*
X2558Y1036D02*
X2567Y1036D01*
X0Y1035D02*
X9Y1035D01*
X2558Y1035D02*
X2567Y1035D01*
X0Y1034D02*
X9Y1034D01*
X2558Y1034D02*
X2567Y1034D01*
X0Y1033D02*
X9Y1033D01*
X2558Y1033D02*
X2567Y1033D01*
X0Y1032D02*
X9Y1032D01*
X2558Y1032D02*
X2567Y1032D01*
X0Y1031D02*
X9Y1031D01*
X2558Y1031D02*
X2567Y1031D01*
X0Y1030D02*
X9Y1030D01*
X2558Y1030D02*
X2567Y1030D01*
X0Y1029D02*
X9Y1029D01*
X2558Y1029D02*
X2567Y1029D01*
X0Y1028D02*
X9Y1028D01*
X2558Y1028D02*
X2567Y1028D01*
X0Y1027D02*
X9Y1027D01*
X2558Y1027D02*
X2567Y1027D01*
X0Y1026D02*
X9Y1026D01*
X2558Y1026D02*
X2567Y1026D01*
X0Y1025D02*
X9Y1025D01*
X2558Y1025D02*
X2567Y1025D01*
X0Y1024D02*
X9Y1024D01*
X2558Y1024D02*
X2567Y1024D01*
X0Y1023D02*
X9Y1023D01*
X2558Y1023D02*
X2567Y1023D01*
X0Y1022D02*
X9Y1022D01*
X2558Y1022D02*
X2567Y1022D01*
X0Y1021D02*
X9Y1021D01*
X2558Y1021D02*
X2567Y1021D01*
X0Y1020D02*
X9Y1020D01*
X2558Y1020D02*
X2567Y1020D01*
X0Y1019D02*
X9Y1019D01*
X2558Y1019D02*
X2567Y1019D01*
X0Y1018D02*
X9Y1018D01*
X2558Y1018D02*
X2567Y1018D01*
X0Y1017D02*
X9Y1017D01*
X2558Y1017D02*
X2567Y1017D01*
X0Y1016D02*
X9Y1016D01*
X2558Y1016D02*
X2567Y1016D01*
X0Y1015D02*
X9Y1015D01*
X2558Y1015D02*
X2567Y1015D01*
X0Y1014D02*
X9Y1014D01*
X2558Y1014D02*
X2567Y1014D01*
X0Y1013D02*
X9Y1013D01*
X2558Y1013D02*
X2567Y1013D01*
X0Y1012D02*
X9Y1012D01*
X2558Y1012D02*
X2567Y1012D01*
X0Y1011D02*
X9Y1011D01*
X2558Y1011D02*
X2567Y1011D01*
X0Y1010D02*
X9Y1010D01*
X2558Y1010D02*
X2567Y1010D01*
X0Y1009D02*
X9Y1009D01*
X2558Y1009D02*
X2567Y1009D01*
X0Y1008D02*
X9Y1008D01*
X2558Y1008D02*
X2567Y1008D01*
X0Y1007D02*
X9Y1007D01*
X2558Y1007D02*
X2567Y1007D01*
X0Y1006D02*
X9Y1006D01*
X2558Y1006D02*
X2567Y1006D01*
X0Y1005D02*
X9Y1005D01*
X2558Y1005D02*
X2567Y1005D01*
X0Y1004D02*
X9Y1004D01*
X2558Y1004D02*
X2567Y1004D01*
X0Y1003D02*
X9Y1003D01*
X2558Y1003D02*
X2567Y1003D01*
X0Y1002D02*
X9Y1002D01*
X2558Y1002D02*
X2567Y1002D01*
X0Y1001D02*
X9Y1001D01*
X2558Y1001D02*
X2567Y1001D01*
X0Y1000D02*
X9Y1000D01*
X2558Y1000D02*
X2567Y1000D01*
X0Y999D02*
X9Y999D01*
X2558Y999D02*
X2567Y999D01*
X0Y998D02*
X9Y998D01*
X2558Y998D02*
X2567Y998D01*
X0Y997D02*
X9Y997D01*
X2558Y997D02*
X2567Y997D01*
X0Y996D02*
X9Y996D01*
X2558Y996D02*
X2567Y996D01*
X0Y995D02*
X9Y995D01*
X2558Y995D02*
X2567Y995D01*
X0Y994D02*
X9Y994D01*
X2558Y994D02*
X2567Y994D01*
X0Y993D02*
X9Y993D01*
X2558Y993D02*
X2567Y993D01*
X0Y992D02*
X9Y992D01*
X2558Y992D02*
X2567Y992D01*
X0Y991D02*
X9Y991D01*
X2558Y991D02*
X2567Y991D01*
X0Y990D02*
X9Y990D01*
X2558Y990D02*
X2567Y990D01*
X0Y989D02*
X9Y989D01*
X2558Y989D02*
X2567Y989D01*
X0Y988D02*
X9Y988D01*
X2558Y988D02*
X2567Y988D01*
X0Y987D02*
X9Y987D01*
X2558Y987D02*
X2567Y987D01*
X0Y986D02*
X9Y986D01*
X2558Y986D02*
X2567Y986D01*
X0Y985D02*
X9Y985D01*
X2558Y985D02*
X2567Y985D01*
X0Y984D02*
X9Y984D01*
X2558Y984D02*
X2567Y984D01*
X0Y983D02*
X9Y983D01*
X2558Y983D02*
X2567Y983D01*
X0Y982D02*
X9Y982D01*
X2558Y982D02*
X2567Y982D01*
X0Y981D02*
X9Y981D01*
X2558Y981D02*
X2567Y981D01*
X0Y980D02*
X9Y980D01*
X2558Y980D02*
X2567Y980D01*
X0Y979D02*
X9Y979D01*
X2558Y979D02*
X2567Y979D01*
X0Y978D02*
X9Y978D01*
X2558Y978D02*
X2567Y978D01*
X0Y977D02*
X9Y977D01*
X2558Y977D02*
X2567Y977D01*
X0Y976D02*
X9Y976D01*
X2558Y976D02*
X2567Y976D01*
X0Y975D02*
X9Y975D01*
X2558Y975D02*
X2567Y975D01*
X0Y974D02*
X9Y974D01*
X2558Y974D02*
X2567Y974D01*
X0Y973D02*
X9Y973D01*
X2558Y973D02*
X2567Y973D01*
X0Y972D02*
X9Y972D01*
X2558Y972D02*
X2567Y972D01*
X0Y971D02*
X9Y971D01*
X2558Y971D02*
X2567Y971D01*
X0Y970D02*
X9Y970D01*
X2558Y970D02*
X2567Y970D01*
X0Y969D02*
X9Y969D01*
X2558Y969D02*
X2567Y969D01*
X0Y968D02*
X9Y968D01*
X2558Y968D02*
X2567Y968D01*
X0Y967D02*
X9Y967D01*
X2558Y967D02*
X2567Y967D01*
X0Y966D02*
X9Y966D01*
X2558Y966D02*
X2567Y966D01*
X0Y965D02*
X9Y965D01*
X2558Y965D02*
X2567Y965D01*
X0Y964D02*
X9Y964D01*
X2558Y964D02*
X2567Y964D01*
X0Y963D02*
X9Y963D01*
X2558Y963D02*
X2567Y963D01*
X0Y962D02*
X9Y962D01*
X2558Y962D02*
X2567Y962D01*
X0Y961D02*
X9Y961D01*
X2558Y961D02*
X2567Y961D01*
X0Y960D02*
X9Y960D01*
X2558Y960D02*
X2567Y960D01*
X0Y959D02*
X9Y959D01*
X2558Y959D02*
X2567Y959D01*
X0Y958D02*
X9Y958D01*
X2558Y958D02*
X2567Y958D01*
X0Y957D02*
X9Y957D01*
X2558Y957D02*
X2567Y957D01*
X0Y956D02*
X9Y956D01*
X2558Y956D02*
X2567Y956D01*
X0Y955D02*
X9Y955D01*
X2558Y955D02*
X2567Y955D01*
X0Y954D02*
X9Y954D01*
X2558Y954D02*
X2567Y954D01*
X0Y953D02*
X9Y953D01*
X2558Y953D02*
X2567Y953D01*
X0Y952D02*
X9Y952D01*
X2558Y952D02*
X2567Y952D01*
X0Y951D02*
X9Y951D01*
X2558Y951D02*
X2567Y951D01*
X0Y950D02*
X9Y950D01*
X2558Y950D02*
X2567Y950D01*
X0Y949D02*
X9Y949D01*
X2558Y949D02*
X2567Y949D01*
X0Y948D02*
X9Y948D01*
X2558Y948D02*
X2567Y948D01*
X0Y947D02*
X9Y947D01*
X2558Y947D02*
X2567Y947D01*
X0Y946D02*
X9Y946D01*
X2558Y946D02*
X2567Y946D01*
X0Y945D02*
X9Y945D01*
X2558Y945D02*
X2567Y945D01*
X0Y944D02*
X9Y944D01*
X2558Y944D02*
X2567Y944D01*
X0Y943D02*
X9Y943D01*
X2558Y943D02*
X2567Y943D01*
X0Y942D02*
X9Y942D01*
X2558Y942D02*
X2567Y942D01*
X0Y941D02*
X9Y941D01*
X2558Y941D02*
X2567Y941D01*
X0Y940D02*
X9Y940D01*
X2558Y940D02*
X2567Y940D01*
X0Y939D02*
X9Y939D01*
X2558Y939D02*
X2567Y939D01*
X0Y938D02*
X9Y938D01*
X2558Y938D02*
X2567Y938D01*
X0Y937D02*
X9Y937D01*
X2558Y937D02*
X2567Y937D01*
X0Y936D02*
X9Y936D01*
X2558Y936D02*
X2567Y936D01*
X0Y935D02*
X9Y935D01*
X2558Y935D02*
X2567Y935D01*
X0Y934D02*
X9Y934D01*
X2558Y934D02*
X2567Y934D01*
X0Y933D02*
X9Y933D01*
X2558Y933D02*
X2567Y933D01*
X0Y932D02*
X9Y932D01*
X2558Y932D02*
X2567Y932D01*
X0Y931D02*
X9Y931D01*
X2558Y931D02*
X2567Y931D01*
X0Y930D02*
X9Y930D01*
X2558Y930D02*
X2567Y930D01*
X0Y929D02*
X9Y929D01*
X2558Y929D02*
X2567Y929D01*
X0Y928D02*
X9Y928D01*
X2558Y928D02*
X2567Y928D01*
X0Y927D02*
X9Y927D01*
X2558Y927D02*
X2567Y927D01*
X0Y926D02*
X9Y926D01*
X2558Y926D02*
X2567Y926D01*
X0Y925D02*
X9Y925D01*
X2558Y925D02*
X2567Y925D01*
X0Y924D02*
X9Y924D01*
X2558Y924D02*
X2567Y924D01*
X0Y923D02*
X9Y923D01*
X2558Y923D02*
X2567Y923D01*
X0Y922D02*
X9Y922D01*
X2558Y922D02*
X2567Y922D01*
X0Y921D02*
X9Y921D01*
X2558Y921D02*
X2567Y921D01*
X0Y920D02*
X9Y920D01*
X2558Y920D02*
X2567Y920D01*
X0Y919D02*
X9Y919D01*
X2558Y919D02*
X2567Y919D01*
X0Y918D02*
X9Y918D01*
X2558Y918D02*
X2567Y918D01*
X0Y917D02*
X9Y917D01*
X2558Y917D02*
X2567Y917D01*
X0Y916D02*
X9Y916D01*
X2558Y916D02*
X2567Y916D01*
X0Y915D02*
X9Y915D01*
X2558Y915D02*
X2567Y915D01*
X0Y914D02*
X9Y914D01*
X2558Y914D02*
X2567Y914D01*
X0Y913D02*
X9Y913D01*
X2558Y913D02*
X2567Y913D01*
X0Y912D02*
X9Y912D01*
X2558Y912D02*
X2567Y912D01*
X0Y911D02*
X9Y911D01*
X2558Y911D02*
X2567Y911D01*
X0Y910D02*
X9Y910D01*
X2558Y910D02*
X2567Y910D01*
X0Y909D02*
X9Y909D01*
X2558Y909D02*
X2567Y909D01*
X0Y908D02*
X9Y908D01*
X2558Y908D02*
X2567Y908D01*
X0Y907D02*
X9Y907D01*
X2558Y907D02*
X2567Y907D01*
X0Y906D02*
X9Y906D01*
X2558Y906D02*
X2567Y906D01*
X0Y905D02*
X9Y905D01*
X2558Y905D02*
X2567Y905D01*
X0Y904D02*
X9Y904D01*
X2558Y904D02*
X2567Y904D01*
X0Y903D02*
X9Y903D01*
X2558Y903D02*
X2567Y903D01*
X0Y902D02*
X9Y902D01*
X2558Y902D02*
X2567Y902D01*
X0Y901D02*
X9Y901D01*
X2558Y901D02*
X2567Y901D01*
X0Y900D02*
X9Y900D01*
X2558Y900D02*
X2567Y900D01*
X0Y899D02*
X9Y899D01*
X2558Y899D02*
X2567Y899D01*
X0Y898D02*
X9Y898D01*
X2558Y898D02*
X2567Y898D01*
X0Y897D02*
X9Y897D01*
X2558Y897D02*
X2567Y897D01*
X0Y896D02*
X9Y896D01*
X2558Y896D02*
X2567Y896D01*
X0Y895D02*
X9Y895D01*
X2558Y895D02*
X2567Y895D01*
X0Y894D02*
X9Y894D01*
X2558Y894D02*
X2567Y894D01*
X0Y893D02*
X9Y893D01*
X2558Y893D02*
X2567Y893D01*
X0Y892D02*
X9Y892D01*
X2558Y892D02*
X2567Y892D01*
X0Y891D02*
X9Y891D01*
X2558Y891D02*
X2567Y891D01*
X0Y890D02*
X9Y890D01*
X2558Y890D02*
X2567Y890D01*
X0Y889D02*
X9Y889D01*
X2558Y889D02*
X2567Y889D01*
X0Y888D02*
X9Y888D01*
X2558Y888D02*
X2567Y888D01*
X0Y887D02*
X9Y887D01*
X2558Y887D02*
X2567Y887D01*
X0Y886D02*
X9Y886D01*
X2558Y886D02*
X2567Y886D01*
X0Y885D02*
X9Y885D01*
X2558Y885D02*
X2567Y885D01*
X0Y884D02*
X9Y884D01*
X2558Y884D02*
X2567Y884D01*
X0Y883D02*
X9Y883D01*
X2558Y883D02*
X2567Y883D01*
X0Y882D02*
X9Y882D01*
X2558Y882D02*
X2567Y882D01*
X0Y881D02*
X9Y881D01*
X2558Y881D02*
X2567Y881D01*
X0Y880D02*
X9Y880D01*
X2558Y880D02*
X2567Y880D01*
X0Y879D02*
X9Y879D01*
X2558Y879D02*
X2567Y879D01*
X0Y878D02*
X9Y878D01*
X2558Y878D02*
X2567Y878D01*
X0Y877D02*
X9Y877D01*
X2558Y877D02*
X2567Y877D01*
X0Y876D02*
X9Y876D01*
X2558Y876D02*
X2567Y876D01*
X0Y875D02*
X9Y875D01*
X2558Y875D02*
X2567Y875D01*
X0Y874D02*
X9Y874D01*
X2558Y874D02*
X2567Y874D01*
X0Y873D02*
X9Y873D01*
X2558Y873D02*
X2567Y873D01*
X0Y872D02*
X9Y872D01*
X2558Y872D02*
X2567Y872D01*
X0Y871D02*
X9Y871D01*
X2558Y871D02*
X2567Y871D01*
X0Y870D02*
X9Y870D01*
X2558Y870D02*
X2567Y870D01*
X0Y869D02*
X9Y869D01*
X2558Y869D02*
X2567Y869D01*
X0Y868D02*
X9Y868D01*
X2558Y868D02*
X2567Y868D01*
X0Y867D02*
X9Y867D01*
X2558Y867D02*
X2567Y867D01*
X0Y866D02*
X9Y866D01*
X2558Y866D02*
X2567Y866D01*
X0Y865D02*
X9Y865D01*
X2558Y865D02*
X2567Y865D01*
X0Y864D02*
X9Y864D01*
X2558Y864D02*
X2567Y864D01*
X0Y863D02*
X9Y863D01*
X2558Y863D02*
X2567Y863D01*
X0Y862D02*
X9Y862D01*
X2558Y862D02*
X2567Y862D01*
X0Y861D02*
X9Y861D01*
X2558Y861D02*
X2567Y861D01*
X0Y860D02*
X9Y860D01*
X2558Y860D02*
X2567Y860D01*
X0Y859D02*
X9Y859D01*
X2558Y859D02*
X2567Y859D01*
X0Y858D02*
X9Y858D01*
X2558Y858D02*
X2567Y858D01*
X0Y857D02*
X9Y857D01*
X2558Y857D02*
X2567Y857D01*
X0Y856D02*
X9Y856D01*
X2558Y856D02*
X2567Y856D01*
X0Y855D02*
X9Y855D01*
X2558Y855D02*
X2567Y855D01*
X0Y854D02*
X9Y854D01*
X2558Y854D02*
X2567Y854D01*
X0Y853D02*
X9Y853D01*
X2558Y853D02*
X2567Y853D01*
X0Y852D02*
X9Y852D01*
X2558Y852D02*
X2567Y852D01*
X0Y851D02*
X9Y851D01*
X2558Y851D02*
X2567Y851D01*
X0Y850D02*
X9Y850D01*
X2558Y850D02*
X2567Y850D01*
X0Y849D02*
X9Y849D01*
X2558Y849D02*
X2567Y849D01*
X0Y848D02*
X9Y848D01*
X2558Y848D02*
X2567Y848D01*
X0Y847D02*
X9Y847D01*
X2558Y847D02*
X2567Y847D01*
X0Y846D02*
X9Y846D01*
X2558Y846D02*
X2567Y846D01*
X0Y845D02*
X9Y845D01*
X2558Y845D02*
X2567Y845D01*
X0Y844D02*
X9Y844D01*
X2558Y844D02*
X2567Y844D01*
X0Y843D02*
X9Y843D01*
X2558Y843D02*
X2567Y843D01*
X0Y842D02*
X9Y842D01*
X2558Y842D02*
X2567Y842D01*
X0Y841D02*
X9Y841D01*
X2558Y841D02*
X2567Y841D01*
X0Y840D02*
X9Y840D01*
X2558Y840D02*
X2567Y840D01*
X0Y839D02*
X9Y839D01*
X2558Y839D02*
X2567Y839D01*
X0Y838D02*
X9Y838D01*
X2558Y838D02*
X2567Y838D01*
X0Y837D02*
X9Y837D01*
X2558Y837D02*
X2567Y837D01*
X0Y836D02*
X9Y836D01*
X2558Y836D02*
X2567Y836D01*
X0Y835D02*
X9Y835D01*
X2558Y835D02*
X2567Y835D01*
X0Y834D02*
X9Y834D01*
X2558Y834D02*
X2567Y834D01*
X0Y833D02*
X9Y833D01*
X2558Y833D02*
X2567Y833D01*
X0Y832D02*
X9Y832D01*
X106Y832D02*
X196Y832D01*
X2558Y832D02*
X2567Y832D01*
X0Y831D02*
X9Y831D01*
X106Y831D02*
X196Y831D01*
X2558Y831D02*
X2567Y831D01*
X0Y830D02*
X9Y830D01*
X106Y830D02*
X196Y830D01*
X2558Y830D02*
X2567Y830D01*
X0Y829D02*
X9Y829D01*
X106Y829D02*
X108Y829D01*
X194Y829D02*
X196Y829D01*
X2558Y829D02*
X2567Y829D01*
X0Y828D02*
X9Y828D01*
X106Y828D02*
X108Y828D01*
X194Y828D02*
X196Y828D01*
X2558Y828D02*
X2567Y828D01*
X0Y827D02*
X9Y827D01*
X106Y827D02*
X108Y827D01*
X194Y827D02*
X196Y827D01*
X2558Y827D02*
X2567Y827D01*
X0Y826D02*
X9Y826D01*
X106Y826D02*
X108Y826D01*
X194Y826D02*
X196Y826D01*
X2558Y826D02*
X2567Y826D01*
X0Y825D02*
X9Y825D01*
X106Y825D02*
X108Y825D01*
X194Y825D02*
X196Y825D01*
X2558Y825D02*
X2567Y825D01*
X0Y824D02*
X9Y824D01*
X106Y824D02*
X108Y824D01*
X194Y824D02*
X196Y824D01*
X2558Y824D02*
X2567Y824D01*
X0Y823D02*
X9Y823D01*
X106Y823D02*
X108Y823D01*
X194Y823D02*
X196Y823D01*
X2558Y823D02*
X2567Y823D01*
X0Y822D02*
X9Y822D01*
X106Y822D02*
X108Y822D01*
X194Y822D02*
X196Y822D01*
X2558Y822D02*
X2567Y822D01*
X0Y821D02*
X9Y821D01*
X106Y821D02*
X108Y821D01*
X194Y821D02*
X196Y821D01*
X2558Y821D02*
X2567Y821D01*
X0Y820D02*
X9Y820D01*
X106Y820D02*
X108Y820D01*
X194Y820D02*
X196Y820D01*
X2558Y820D02*
X2567Y820D01*
X0Y819D02*
X9Y819D01*
X106Y819D02*
X108Y819D01*
X194Y819D02*
X196Y819D01*
X2558Y819D02*
X2567Y819D01*
X0Y818D02*
X9Y818D01*
X106Y818D02*
X108Y818D01*
X194Y818D02*
X196Y818D01*
X2558Y818D02*
X2567Y818D01*
X0Y817D02*
X9Y817D01*
X106Y817D02*
X108Y817D01*
X194Y817D02*
X196Y817D01*
X2558Y817D02*
X2567Y817D01*
X0Y816D02*
X9Y816D01*
X106Y816D02*
X108Y816D01*
X194Y816D02*
X196Y816D01*
X2558Y816D02*
X2567Y816D01*
X0Y815D02*
X9Y815D01*
X106Y815D02*
X108Y815D01*
X194Y815D02*
X196Y815D01*
X2558Y815D02*
X2567Y815D01*
X0Y814D02*
X9Y814D01*
X106Y814D02*
X108Y814D01*
X194Y814D02*
X196Y814D01*
X2558Y814D02*
X2567Y814D01*
X0Y813D02*
X9Y813D01*
X106Y813D02*
X108Y813D01*
X194Y813D02*
X196Y813D01*
X2558Y813D02*
X2567Y813D01*
X0Y812D02*
X9Y812D01*
X106Y812D02*
X108Y812D01*
X194Y812D02*
X196Y812D01*
X2558Y812D02*
X2567Y812D01*
X0Y811D02*
X9Y811D01*
X106Y811D02*
X108Y811D01*
X194Y811D02*
X196Y811D01*
X2558Y811D02*
X2567Y811D01*
X0Y810D02*
X9Y810D01*
X106Y810D02*
X108Y810D01*
X194Y810D02*
X196Y810D01*
X2558Y810D02*
X2567Y810D01*
X0Y809D02*
X9Y809D01*
X106Y809D02*
X108Y809D01*
X194Y809D02*
X196Y809D01*
X2558Y809D02*
X2567Y809D01*
X0Y808D02*
X9Y808D01*
X106Y808D02*
X108Y808D01*
X194Y808D02*
X196Y808D01*
X2558Y808D02*
X2567Y808D01*
X0Y807D02*
X9Y807D01*
X106Y807D02*
X108Y807D01*
X194Y807D02*
X196Y807D01*
X2558Y807D02*
X2567Y807D01*
X0Y806D02*
X9Y806D01*
X106Y806D02*
X108Y806D01*
X194Y806D02*
X196Y806D01*
X2558Y806D02*
X2567Y806D01*
X0Y805D02*
X9Y805D01*
X106Y805D02*
X108Y805D01*
X194Y805D02*
X196Y805D01*
X2558Y805D02*
X2567Y805D01*
X0Y804D02*
X9Y804D01*
X106Y804D02*
X108Y804D01*
X194Y804D02*
X196Y804D01*
X2558Y804D02*
X2567Y804D01*
X0Y803D02*
X9Y803D01*
X106Y803D02*
X108Y803D01*
X194Y803D02*
X196Y803D01*
X2558Y803D02*
X2567Y803D01*
X0Y802D02*
X9Y802D01*
X106Y802D02*
X108Y802D01*
X194Y802D02*
X196Y802D01*
X2558Y802D02*
X2567Y802D01*
X0Y801D02*
X9Y801D01*
X106Y801D02*
X108Y801D01*
X194Y801D02*
X196Y801D01*
X2558Y801D02*
X2567Y801D01*
X0Y800D02*
X9Y800D01*
X106Y800D02*
X108Y800D01*
X194Y800D02*
X196Y800D01*
X2558Y800D02*
X2567Y800D01*
X0Y799D02*
X9Y799D01*
X106Y799D02*
X108Y799D01*
X194Y799D02*
X196Y799D01*
X2558Y799D02*
X2567Y799D01*
X0Y798D02*
X9Y798D01*
X106Y798D02*
X108Y798D01*
X194Y798D02*
X196Y798D01*
X2558Y798D02*
X2567Y798D01*
X0Y797D02*
X9Y797D01*
X106Y797D02*
X108Y797D01*
X194Y797D02*
X196Y797D01*
X2558Y797D02*
X2567Y797D01*
X0Y796D02*
X9Y796D01*
X106Y796D02*
X108Y796D01*
X194Y796D02*
X196Y796D01*
X2558Y796D02*
X2567Y796D01*
X0Y795D02*
X9Y795D01*
X106Y795D02*
X108Y795D01*
X194Y795D02*
X196Y795D01*
X2558Y795D02*
X2567Y795D01*
X0Y794D02*
X9Y794D01*
X106Y794D02*
X108Y794D01*
X194Y794D02*
X196Y794D01*
X2558Y794D02*
X2567Y794D01*
X0Y793D02*
X9Y793D01*
X106Y793D02*
X108Y793D01*
X194Y793D02*
X196Y793D01*
X2558Y793D02*
X2567Y793D01*
X0Y792D02*
X9Y792D01*
X106Y792D02*
X108Y792D01*
X194Y792D02*
X196Y792D01*
X2558Y792D02*
X2567Y792D01*
X0Y791D02*
X9Y791D01*
X106Y791D02*
X108Y791D01*
X194Y791D02*
X196Y791D01*
X2558Y791D02*
X2567Y791D01*
X0Y790D02*
X9Y790D01*
X106Y790D02*
X108Y790D01*
X194Y790D02*
X196Y790D01*
X2558Y790D02*
X2567Y790D01*
X0Y789D02*
X9Y789D01*
X106Y789D02*
X108Y789D01*
X194Y789D02*
X196Y789D01*
X2558Y789D02*
X2567Y789D01*
X0Y788D02*
X9Y788D01*
X106Y788D02*
X108Y788D01*
X194Y788D02*
X196Y788D01*
X2558Y788D02*
X2567Y788D01*
X0Y787D02*
X9Y787D01*
X106Y787D02*
X108Y787D01*
X194Y787D02*
X196Y787D01*
X2558Y787D02*
X2567Y787D01*
X0Y786D02*
X9Y786D01*
X106Y786D02*
X108Y786D01*
X194Y786D02*
X196Y786D01*
X2558Y786D02*
X2567Y786D01*
X0Y785D02*
X9Y785D01*
X106Y785D02*
X108Y785D01*
X194Y785D02*
X196Y785D01*
X2558Y785D02*
X2567Y785D01*
X0Y784D02*
X9Y784D01*
X106Y784D02*
X108Y784D01*
X194Y784D02*
X196Y784D01*
X2558Y784D02*
X2567Y784D01*
X0Y783D02*
X9Y783D01*
X106Y783D02*
X108Y783D01*
X194Y783D02*
X196Y783D01*
X2558Y783D02*
X2567Y783D01*
X0Y782D02*
X9Y782D01*
X106Y782D02*
X108Y782D01*
X194Y782D02*
X196Y782D01*
X2558Y782D02*
X2567Y782D01*
X0Y781D02*
X9Y781D01*
X106Y781D02*
X108Y781D01*
X194Y781D02*
X196Y781D01*
X2558Y781D02*
X2567Y781D01*
X0Y780D02*
X9Y780D01*
X106Y780D02*
X108Y780D01*
X194Y780D02*
X196Y780D01*
X2558Y780D02*
X2567Y780D01*
X0Y779D02*
X9Y779D01*
X39Y779D02*
X89Y779D01*
X106Y779D02*
X108Y779D01*
X194Y779D02*
X196Y779D01*
X2558Y779D02*
X2567Y779D01*
X0Y778D02*
X9Y778D01*
X39Y778D02*
X91Y778D01*
X106Y778D02*
X108Y778D01*
X194Y778D02*
X196Y778D01*
X2558Y778D02*
X2567Y778D01*
X0Y777D02*
X9Y777D01*
X39Y777D02*
X92Y777D01*
X106Y777D02*
X108Y777D01*
X194Y777D02*
X196Y777D01*
X2558Y777D02*
X2567Y777D01*
X0Y776D02*
X9Y776D01*
X39Y776D02*
X92Y776D01*
X106Y776D02*
X108Y776D01*
X194Y776D02*
X196Y776D01*
X2558Y776D02*
X2567Y776D01*
X0Y775D02*
X9Y775D01*
X39Y775D02*
X92Y775D01*
X106Y775D02*
X108Y775D01*
X194Y775D02*
X196Y775D01*
X2558Y775D02*
X2567Y775D01*
X0Y774D02*
X9Y774D01*
X39Y774D02*
X91Y774D01*
X106Y774D02*
X108Y774D01*
X194Y774D02*
X196Y774D01*
X2558Y774D02*
X2567Y774D01*
X0Y773D02*
X9Y773D01*
X39Y773D02*
X91Y773D01*
X106Y773D02*
X108Y773D01*
X194Y773D02*
X196Y773D01*
X2558Y773D02*
X2567Y773D01*
X0Y772D02*
X9Y772D01*
X39Y772D02*
X45Y772D01*
X56Y772D02*
X63Y772D01*
X106Y772D02*
X108Y772D01*
X194Y772D02*
X196Y772D01*
X2558Y772D02*
X2567Y772D01*
X0Y771D02*
X9Y771D01*
X39Y771D02*
X45Y771D01*
X56Y771D02*
X62Y771D01*
X106Y771D02*
X108Y771D01*
X194Y771D02*
X196Y771D01*
X2558Y771D02*
X2567Y771D01*
X0Y770D02*
X9Y770D01*
X39Y770D02*
X45Y770D01*
X56Y770D02*
X62Y770D01*
X106Y770D02*
X108Y770D01*
X194Y770D02*
X196Y770D01*
X2558Y770D02*
X2567Y770D01*
X0Y769D02*
X9Y769D01*
X39Y769D02*
X45Y769D01*
X56Y769D02*
X62Y769D01*
X106Y769D02*
X108Y769D01*
X194Y769D02*
X196Y769D01*
X2558Y769D02*
X2567Y769D01*
X0Y768D02*
X9Y768D01*
X39Y768D02*
X45Y768D01*
X56Y768D02*
X62Y768D01*
X106Y768D02*
X108Y768D01*
X194Y768D02*
X196Y768D01*
X2558Y768D02*
X2567Y768D01*
X0Y767D02*
X9Y767D01*
X39Y767D02*
X45Y767D01*
X56Y767D02*
X63Y767D01*
X106Y767D02*
X108Y767D01*
X194Y767D02*
X196Y767D01*
X2558Y767D02*
X2567Y767D01*
X0Y766D02*
X9Y766D01*
X39Y766D02*
X45Y766D01*
X56Y766D02*
X65Y766D01*
X106Y766D02*
X108Y766D01*
X194Y766D02*
X196Y766D01*
X2558Y766D02*
X2567Y766D01*
X0Y765D02*
X9Y765D01*
X39Y765D02*
X45Y765D01*
X56Y765D02*
X66Y765D01*
X106Y765D02*
X108Y765D01*
X194Y765D02*
X196Y765D01*
X2558Y765D02*
X2567Y765D01*
X0Y764D02*
X9Y764D01*
X39Y764D02*
X45Y764D01*
X56Y764D02*
X68Y764D01*
X106Y764D02*
X108Y764D01*
X194Y764D02*
X196Y764D01*
X2558Y764D02*
X2567Y764D01*
X0Y763D02*
X9Y763D01*
X39Y763D02*
X45Y763D01*
X56Y763D02*
X70Y763D01*
X106Y763D02*
X108Y763D01*
X194Y763D02*
X196Y763D01*
X2558Y763D02*
X2567Y763D01*
X0Y762D02*
X9Y762D01*
X39Y762D02*
X45Y762D01*
X56Y762D02*
X72Y762D01*
X106Y762D02*
X108Y762D01*
X194Y762D02*
X196Y762D01*
X2558Y762D02*
X2567Y762D01*
X0Y761D02*
X9Y761D01*
X39Y761D02*
X45Y761D01*
X56Y761D02*
X73Y761D01*
X106Y761D02*
X108Y761D01*
X194Y761D02*
X196Y761D01*
X2558Y761D02*
X2567Y761D01*
X0Y760D02*
X9Y760D01*
X39Y760D02*
X45Y760D01*
X56Y760D02*
X75Y760D01*
X106Y760D02*
X108Y760D01*
X194Y760D02*
X196Y760D01*
X2558Y760D02*
X2567Y760D01*
X0Y759D02*
X9Y759D01*
X39Y759D02*
X45Y759D01*
X56Y759D02*
X77Y759D01*
X106Y759D02*
X108Y759D01*
X194Y759D02*
X196Y759D01*
X2558Y759D02*
X2567Y759D01*
X0Y758D02*
X9Y758D01*
X39Y758D02*
X45Y758D01*
X56Y758D02*
X62Y758D01*
X65Y758D02*
X78Y758D01*
X106Y758D02*
X108Y758D01*
X194Y758D02*
X196Y758D01*
X2558Y758D02*
X2567Y758D01*
X0Y757D02*
X9Y757D01*
X39Y757D02*
X45Y757D01*
X56Y757D02*
X62Y757D01*
X67Y757D02*
X80Y757D01*
X106Y757D02*
X108Y757D01*
X194Y757D02*
X196Y757D01*
X2558Y757D02*
X2567Y757D01*
X0Y756D02*
X9Y756D01*
X39Y756D02*
X45Y756D01*
X56Y756D02*
X62Y756D01*
X69Y756D02*
X82Y756D01*
X106Y756D02*
X109Y756D01*
X193Y756D02*
X196Y756D01*
X2558Y756D02*
X2567Y756D01*
X0Y755D02*
X9Y755D01*
X39Y755D02*
X45Y755D01*
X56Y755D02*
X62Y755D01*
X70Y755D02*
X84Y755D01*
X106Y755D02*
X109Y755D01*
X193Y755D02*
X196Y755D01*
X2558Y755D02*
X2567Y755D01*
X0Y754D02*
X9Y754D01*
X39Y754D02*
X45Y754D01*
X56Y754D02*
X62Y754D01*
X72Y754D02*
X85Y754D01*
X106Y754D02*
X109Y754D01*
X193Y754D02*
X196Y754D01*
X2558Y754D02*
X2567Y754D01*
X0Y753D02*
X9Y753D01*
X39Y753D02*
X45Y753D01*
X56Y753D02*
X62Y753D01*
X74Y753D02*
X87Y753D01*
X106Y753D02*
X109Y753D01*
X193Y753D02*
X196Y753D01*
X2558Y753D02*
X2567Y753D01*
X0Y752D02*
X9Y752D01*
X39Y752D02*
X47Y752D01*
X54Y752D02*
X62Y752D01*
X76Y752D02*
X89Y752D01*
X106Y752D02*
X109Y752D01*
X193Y752D02*
X196Y752D01*
X2558Y752D02*
X2567Y752D01*
X0Y751D02*
X9Y751D01*
X40Y751D02*
X61Y751D01*
X77Y751D02*
X90Y751D01*
X106Y751D02*
X109Y751D01*
X193Y751D02*
X196Y751D01*
X2558Y751D02*
X2567Y751D01*
X0Y750D02*
X9Y750D01*
X40Y750D02*
X61Y750D01*
X79Y750D02*
X91Y750D01*
X106Y750D02*
X109Y750D01*
X193Y750D02*
X196Y750D01*
X2558Y750D02*
X2567Y750D01*
X0Y749D02*
X9Y749D01*
X41Y749D02*
X60Y749D01*
X81Y749D02*
X92Y749D01*
X106Y749D02*
X109Y749D01*
X193Y749D02*
X196Y749D01*
X2558Y749D02*
X2567Y749D01*
X0Y748D02*
X9Y748D01*
X42Y748D02*
X59Y748D01*
X82Y748D02*
X92Y748D01*
X106Y748D02*
X109Y748D01*
X193Y748D02*
X196Y748D01*
X2558Y748D02*
X2567Y748D01*
X0Y747D02*
X9Y747D01*
X43Y747D02*
X58Y747D01*
X84Y747D02*
X92Y747D01*
X106Y747D02*
X109Y747D01*
X193Y747D02*
X196Y747D01*
X2558Y747D02*
X2567Y747D01*
X0Y746D02*
X9Y746D01*
X44Y746D02*
X57Y746D01*
X86Y746D02*
X91Y746D01*
X106Y746D02*
X109Y746D01*
X193Y746D02*
X196Y746D01*
X2558Y746D02*
X2567Y746D01*
X0Y745D02*
X9Y745D01*
X46Y745D02*
X55Y745D01*
X88Y745D02*
X90Y745D01*
X106Y745D02*
X109Y745D01*
X193Y745D02*
X196Y745D01*
X2558Y745D02*
X2567Y745D01*
X0Y744D02*
X9Y744D01*
X106Y744D02*
X109Y744D01*
X193Y744D02*
X196Y744D01*
X2558Y744D02*
X2567Y744D01*
X0Y743D02*
X9Y743D01*
X106Y743D02*
X109Y743D01*
X193Y743D02*
X196Y743D01*
X2558Y743D02*
X2567Y743D01*
X0Y742D02*
X9Y742D01*
X106Y742D02*
X109Y742D01*
X193Y742D02*
X196Y742D01*
X2558Y742D02*
X2567Y742D01*
X0Y741D02*
X9Y741D01*
X106Y741D02*
X109Y741D01*
X193Y741D02*
X196Y741D01*
X2558Y741D02*
X2567Y741D01*
X0Y740D02*
X9Y740D01*
X106Y740D02*
X109Y740D01*
X193Y740D02*
X196Y740D01*
X2558Y740D02*
X2567Y740D01*
X0Y739D02*
X9Y739D01*
X106Y739D02*
X109Y739D01*
X193Y739D02*
X196Y739D01*
X2558Y739D02*
X2567Y739D01*
X0Y738D02*
X9Y738D01*
X106Y738D02*
X109Y738D01*
X193Y738D02*
X196Y738D01*
X2558Y738D02*
X2567Y738D01*
X0Y737D02*
X9Y737D01*
X106Y737D02*
X109Y737D01*
X193Y737D02*
X196Y737D01*
X2558Y737D02*
X2567Y737D01*
X0Y736D02*
X9Y736D01*
X106Y736D02*
X109Y736D01*
X193Y736D02*
X196Y736D01*
X2558Y736D02*
X2567Y736D01*
X0Y735D02*
X9Y735D01*
X106Y735D02*
X109Y735D01*
X193Y735D02*
X196Y735D01*
X2558Y735D02*
X2567Y735D01*
X0Y734D02*
X9Y734D01*
X106Y734D02*
X109Y734D01*
X193Y734D02*
X196Y734D01*
X2558Y734D02*
X2567Y734D01*
X0Y733D02*
X9Y733D01*
X106Y733D02*
X109Y733D01*
X193Y733D02*
X196Y733D01*
X2558Y733D02*
X2567Y733D01*
X0Y732D02*
X9Y732D01*
X106Y732D02*
X109Y732D01*
X193Y732D02*
X196Y732D01*
X2558Y732D02*
X2567Y732D01*
X0Y731D02*
X9Y731D01*
X106Y731D02*
X109Y731D01*
X193Y731D02*
X196Y731D01*
X2558Y731D02*
X2567Y731D01*
X0Y730D02*
X9Y730D01*
X106Y730D02*
X109Y730D01*
X193Y730D02*
X196Y730D01*
X2558Y730D02*
X2567Y730D01*
X0Y729D02*
X9Y729D01*
X106Y729D02*
X109Y729D01*
X193Y729D02*
X196Y729D01*
X2558Y729D02*
X2567Y729D01*
X0Y728D02*
X9Y728D01*
X40Y728D02*
X43Y728D01*
X87Y728D02*
X91Y728D01*
X106Y728D02*
X109Y728D01*
X193Y728D02*
X196Y728D01*
X2558Y728D02*
X2567Y728D01*
X0Y727D02*
X9Y727D01*
X39Y727D02*
X44Y727D01*
X86Y727D02*
X91Y727D01*
X106Y727D02*
X109Y727D01*
X193Y727D02*
X196Y727D01*
X2558Y727D02*
X2567Y727D01*
X0Y726D02*
X9Y726D01*
X39Y726D02*
X45Y726D01*
X86Y726D02*
X92Y726D01*
X106Y726D02*
X109Y726D01*
X193Y726D02*
X196Y726D01*
X2558Y726D02*
X2567Y726D01*
X0Y725D02*
X9Y725D01*
X39Y725D02*
X45Y725D01*
X86Y725D02*
X92Y725D01*
X106Y725D02*
X109Y725D01*
X193Y725D02*
X196Y725D01*
X2558Y725D02*
X2567Y725D01*
X0Y724D02*
X9Y724D01*
X39Y724D02*
X45Y724D01*
X86Y724D02*
X92Y724D01*
X106Y724D02*
X109Y724D01*
X193Y724D02*
X196Y724D01*
X2558Y724D02*
X2567Y724D01*
X0Y723D02*
X9Y723D01*
X39Y723D02*
X45Y723D01*
X86Y723D02*
X92Y723D01*
X106Y723D02*
X109Y723D01*
X193Y723D02*
X196Y723D01*
X2558Y723D02*
X2567Y723D01*
X0Y722D02*
X9Y722D01*
X39Y722D02*
X45Y722D01*
X65Y722D02*
X65Y722D01*
X86Y722D02*
X92Y722D01*
X106Y722D02*
X109Y722D01*
X193Y722D02*
X196Y722D01*
X2558Y722D02*
X2567Y722D01*
X0Y721D02*
X9Y721D01*
X39Y721D02*
X45Y721D01*
X63Y721D02*
X67Y721D01*
X86Y721D02*
X92Y721D01*
X106Y721D02*
X109Y721D01*
X193Y721D02*
X196Y721D01*
X2558Y721D02*
X2567Y721D01*
X0Y720D02*
X9Y720D01*
X39Y720D02*
X45Y720D01*
X63Y720D02*
X68Y720D01*
X86Y720D02*
X92Y720D01*
X106Y720D02*
X109Y720D01*
X193Y720D02*
X196Y720D01*
X2558Y720D02*
X2567Y720D01*
X0Y719D02*
X9Y719D01*
X39Y719D02*
X45Y719D01*
X62Y719D02*
X68Y719D01*
X86Y719D02*
X92Y719D01*
X106Y719D02*
X109Y719D01*
X193Y719D02*
X196Y719D01*
X2558Y719D02*
X2567Y719D01*
X0Y718D02*
X9Y718D01*
X39Y718D02*
X45Y718D01*
X62Y718D02*
X68Y718D01*
X86Y718D02*
X92Y718D01*
X106Y718D02*
X109Y718D01*
X193Y718D02*
X196Y718D01*
X2558Y718D02*
X2567Y718D01*
X0Y717D02*
X9Y717D01*
X39Y717D02*
X45Y717D01*
X62Y717D02*
X68Y717D01*
X86Y717D02*
X92Y717D01*
X106Y717D02*
X109Y717D01*
X193Y717D02*
X196Y717D01*
X2558Y717D02*
X2567Y717D01*
X0Y716D02*
X9Y716D01*
X39Y716D02*
X45Y716D01*
X62Y716D02*
X68Y716D01*
X86Y716D02*
X92Y716D01*
X106Y716D02*
X109Y716D01*
X193Y716D02*
X196Y716D01*
X2558Y716D02*
X2567Y716D01*
X0Y715D02*
X9Y715D01*
X39Y715D02*
X45Y715D01*
X62Y715D02*
X68Y715D01*
X86Y715D02*
X92Y715D01*
X106Y715D02*
X109Y715D01*
X193Y715D02*
X196Y715D01*
X2558Y715D02*
X2567Y715D01*
X0Y714D02*
X9Y714D01*
X39Y714D02*
X45Y714D01*
X62Y714D02*
X68Y714D01*
X86Y714D02*
X92Y714D01*
X106Y714D02*
X109Y714D01*
X193Y714D02*
X196Y714D01*
X2558Y714D02*
X2567Y714D01*
X0Y713D02*
X9Y713D01*
X39Y713D02*
X45Y713D01*
X62Y713D02*
X68Y713D01*
X86Y713D02*
X92Y713D01*
X106Y713D02*
X109Y713D01*
X193Y713D02*
X196Y713D01*
X2558Y713D02*
X2567Y713D01*
X0Y712D02*
X9Y712D01*
X39Y712D02*
X45Y712D01*
X62Y712D02*
X68Y712D01*
X86Y712D02*
X92Y712D01*
X106Y712D02*
X109Y712D01*
X193Y712D02*
X196Y712D01*
X2558Y712D02*
X2567Y712D01*
X0Y711D02*
X9Y711D01*
X39Y711D02*
X45Y711D01*
X62Y711D02*
X68Y711D01*
X86Y711D02*
X92Y711D01*
X106Y711D02*
X109Y711D01*
X193Y711D02*
X196Y711D01*
X2558Y711D02*
X2567Y711D01*
X0Y710D02*
X9Y710D01*
X39Y710D02*
X45Y710D01*
X62Y710D02*
X68Y710D01*
X86Y710D02*
X92Y710D01*
X106Y710D02*
X109Y710D01*
X193Y710D02*
X196Y710D01*
X2558Y710D02*
X2567Y710D01*
X0Y709D02*
X9Y709D01*
X39Y709D02*
X45Y709D01*
X62Y709D02*
X68Y709D01*
X86Y709D02*
X92Y709D01*
X106Y709D02*
X109Y709D01*
X193Y709D02*
X196Y709D01*
X2558Y709D02*
X2567Y709D01*
X0Y708D02*
X9Y708D01*
X39Y708D02*
X45Y708D01*
X62Y708D02*
X68Y708D01*
X86Y708D02*
X92Y708D01*
X106Y708D02*
X109Y708D01*
X193Y708D02*
X196Y708D01*
X2558Y708D02*
X2567Y708D01*
X0Y707D02*
X9Y707D01*
X39Y707D02*
X45Y707D01*
X62Y707D02*
X68Y707D01*
X86Y707D02*
X92Y707D01*
X106Y707D02*
X108Y707D01*
X194Y707D02*
X196Y707D01*
X2558Y707D02*
X2567Y707D01*
X0Y706D02*
X9Y706D01*
X39Y706D02*
X45Y706D01*
X62Y706D02*
X68Y706D01*
X86Y706D02*
X92Y706D01*
X106Y706D02*
X108Y706D01*
X194Y706D02*
X196Y706D01*
X2558Y706D02*
X2567Y706D01*
X0Y705D02*
X9Y705D01*
X39Y705D02*
X45Y705D01*
X62Y705D02*
X68Y705D01*
X86Y705D02*
X92Y705D01*
X106Y705D02*
X108Y705D01*
X194Y705D02*
X196Y705D01*
X2558Y705D02*
X2567Y705D01*
X0Y704D02*
X9Y704D01*
X39Y704D02*
X45Y704D01*
X62Y704D02*
X68Y704D01*
X86Y704D02*
X92Y704D01*
X106Y704D02*
X108Y704D01*
X194Y704D02*
X196Y704D01*
X2558Y704D02*
X2567Y704D01*
X0Y703D02*
X9Y703D01*
X39Y703D02*
X45Y703D01*
X62Y703D02*
X69Y703D01*
X86Y703D02*
X92Y703D01*
X106Y703D02*
X108Y703D01*
X194Y703D02*
X196Y703D01*
X2558Y703D02*
X2567Y703D01*
X0Y702D02*
X9Y702D01*
X39Y702D02*
X45Y702D01*
X61Y702D02*
X70Y702D01*
X86Y702D02*
X92Y702D01*
X106Y702D02*
X108Y702D01*
X194Y702D02*
X196Y702D01*
X2558Y702D02*
X2567Y702D01*
X0Y701D02*
X9Y701D01*
X39Y701D02*
X92Y701D01*
X106Y701D02*
X108Y701D01*
X194Y701D02*
X196Y701D01*
X2558Y701D02*
X2567Y701D01*
X0Y700D02*
X9Y700D01*
X39Y700D02*
X92Y700D01*
X106Y700D02*
X108Y700D01*
X194Y700D02*
X196Y700D01*
X2558Y700D02*
X2567Y700D01*
X0Y699D02*
X9Y699D01*
X39Y699D02*
X91Y699D01*
X106Y699D02*
X108Y699D01*
X194Y699D02*
X196Y699D01*
X2558Y699D02*
X2567Y699D01*
X0Y698D02*
X9Y698D01*
X40Y698D02*
X91Y698D01*
X106Y698D02*
X108Y698D01*
X194Y698D02*
X196Y698D01*
X2558Y698D02*
X2567Y698D01*
X0Y697D02*
X9Y697D01*
X40Y697D02*
X90Y697D01*
X106Y697D02*
X108Y697D01*
X194Y697D02*
X196Y697D01*
X2558Y697D02*
X2567Y697D01*
X0Y696D02*
X9Y696D01*
X41Y696D02*
X63Y696D01*
X67Y696D02*
X89Y696D01*
X106Y696D02*
X108Y696D01*
X194Y696D02*
X196Y696D01*
X2558Y696D02*
X2567Y696D01*
X0Y695D02*
X9Y695D01*
X43Y695D02*
X44Y695D01*
X57Y695D02*
X61Y695D01*
X69Y695D02*
X88Y695D01*
X106Y695D02*
X108Y695D01*
X194Y695D02*
X196Y695D01*
X2558Y695D02*
X2567Y695D01*
X0Y694D02*
X9Y694D01*
X106Y694D02*
X108Y694D01*
X194Y694D02*
X196Y694D01*
X2558Y694D02*
X2567Y694D01*
X0Y693D02*
X9Y693D01*
X106Y693D02*
X108Y693D01*
X194Y693D02*
X196Y693D01*
X2558Y693D02*
X2567Y693D01*
X0Y692D02*
X9Y692D01*
X106Y692D02*
X108Y692D01*
X194Y692D02*
X196Y692D01*
X2558Y692D02*
X2567Y692D01*
X0Y691D02*
X9Y691D01*
X106Y691D02*
X108Y691D01*
X194Y691D02*
X196Y691D01*
X2558Y691D02*
X2567Y691D01*
X0Y690D02*
X9Y690D01*
X106Y690D02*
X108Y690D01*
X194Y690D02*
X196Y690D01*
X2558Y690D02*
X2567Y690D01*
X0Y689D02*
X9Y689D01*
X106Y689D02*
X108Y689D01*
X194Y689D02*
X196Y689D01*
X2558Y689D02*
X2567Y689D01*
X0Y688D02*
X9Y688D01*
X106Y688D02*
X108Y688D01*
X194Y688D02*
X196Y688D01*
X2558Y688D02*
X2567Y688D01*
X0Y687D02*
X9Y687D01*
X106Y687D02*
X108Y687D01*
X194Y687D02*
X196Y687D01*
X2558Y687D02*
X2567Y687D01*
X0Y686D02*
X9Y686D01*
X106Y686D02*
X108Y686D01*
X194Y686D02*
X196Y686D01*
X2558Y686D02*
X2567Y686D01*
X0Y685D02*
X9Y685D01*
X106Y685D02*
X108Y685D01*
X194Y685D02*
X196Y685D01*
X2558Y685D02*
X2567Y685D01*
X0Y684D02*
X9Y684D01*
X106Y684D02*
X108Y684D01*
X194Y684D02*
X196Y684D01*
X2558Y684D02*
X2567Y684D01*
X0Y683D02*
X9Y683D01*
X106Y683D02*
X108Y683D01*
X194Y683D02*
X196Y683D01*
X2558Y683D02*
X2567Y683D01*
X0Y682D02*
X9Y682D01*
X106Y682D02*
X108Y682D01*
X194Y682D02*
X196Y682D01*
X2558Y682D02*
X2567Y682D01*
X0Y681D02*
X9Y681D01*
X106Y681D02*
X108Y681D01*
X194Y681D02*
X196Y681D01*
X2558Y681D02*
X2567Y681D01*
X0Y680D02*
X9Y680D01*
X106Y680D02*
X108Y680D01*
X194Y680D02*
X196Y680D01*
X2558Y680D02*
X2567Y680D01*
X0Y679D02*
X9Y679D01*
X106Y679D02*
X108Y679D01*
X194Y679D02*
X196Y679D01*
X2558Y679D02*
X2567Y679D01*
X0Y678D02*
X9Y678D01*
X106Y678D02*
X108Y678D01*
X194Y678D02*
X196Y678D01*
X2558Y678D02*
X2567Y678D01*
X0Y677D02*
X9Y677D01*
X106Y677D02*
X108Y677D01*
X194Y677D02*
X196Y677D01*
X2558Y677D02*
X2567Y677D01*
X0Y676D02*
X9Y676D01*
X106Y676D02*
X108Y676D01*
X194Y676D02*
X196Y676D01*
X2558Y676D02*
X2567Y676D01*
X0Y675D02*
X9Y675D01*
X106Y675D02*
X108Y675D01*
X194Y675D02*
X196Y675D01*
X2558Y675D02*
X2567Y675D01*
X0Y674D02*
X9Y674D01*
X106Y674D02*
X108Y674D01*
X194Y674D02*
X196Y674D01*
X2558Y674D02*
X2567Y674D01*
X0Y673D02*
X9Y673D01*
X106Y673D02*
X108Y673D01*
X194Y673D02*
X196Y673D01*
X2558Y673D02*
X2567Y673D01*
X0Y672D02*
X9Y672D01*
X106Y672D02*
X108Y672D01*
X194Y672D02*
X196Y672D01*
X2558Y672D02*
X2567Y672D01*
X0Y671D02*
X9Y671D01*
X106Y671D02*
X108Y671D01*
X194Y671D02*
X196Y671D01*
X2558Y671D02*
X2567Y671D01*
X0Y670D02*
X9Y670D01*
X106Y670D02*
X108Y670D01*
X194Y670D02*
X196Y670D01*
X2558Y670D02*
X2567Y670D01*
X0Y669D02*
X9Y669D01*
X106Y669D02*
X108Y669D01*
X194Y669D02*
X196Y669D01*
X2558Y669D02*
X2567Y669D01*
X0Y668D02*
X9Y668D01*
X106Y668D02*
X108Y668D01*
X194Y668D02*
X196Y668D01*
X2558Y668D02*
X2567Y668D01*
X0Y667D02*
X9Y667D01*
X106Y667D02*
X108Y667D01*
X194Y667D02*
X196Y667D01*
X2558Y667D02*
X2567Y667D01*
X0Y666D02*
X9Y666D01*
X106Y666D02*
X108Y666D01*
X194Y666D02*
X196Y666D01*
X2558Y666D02*
X2567Y666D01*
X0Y665D02*
X9Y665D01*
X106Y665D02*
X108Y665D01*
X194Y665D02*
X196Y665D01*
X2558Y665D02*
X2567Y665D01*
X0Y664D02*
X9Y664D01*
X106Y664D02*
X108Y664D01*
X194Y664D02*
X196Y664D01*
X2558Y664D02*
X2567Y664D01*
X0Y663D02*
X9Y663D01*
X106Y663D02*
X108Y663D01*
X194Y663D02*
X196Y663D01*
X2558Y663D02*
X2567Y663D01*
X0Y662D02*
X9Y662D01*
X106Y662D02*
X108Y662D01*
X194Y662D02*
X196Y662D01*
X2558Y662D02*
X2567Y662D01*
X0Y661D02*
X9Y661D01*
X106Y661D02*
X108Y661D01*
X194Y661D02*
X196Y661D01*
X2558Y661D02*
X2567Y661D01*
X0Y660D02*
X9Y660D01*
X106Y660D02*
X108Y660D01*
X194Y660D02*
X196Y660D01*
X2558Y660D02*
X2567Y660D01*
X0Y659D02*
X9Y659D01*
X106Y659D02*
X108Y659D01*
X194Y659D02*
X196Y659D01*
X2558Y659D02*
X2567Y659D01*
X0Y658D02*
X9Y658D01*
X106Y658D02*
X108Y658D01*
X194Y658D02*
X196Y658D01*
X2558Y658D02*
X2567Y658D01*
X0Y657D02*
X9Y657D01*
X106Y657D02*
X108Y657D01*
X194Y657D02*
X196Y657D01*
X2558Y657D02*
X2567Y657D01*
X0Y656D02*
X9Y656D01*
X106Y656D02*
X108Y656D01*
X194Y656D02*
X196Y656D01*
X2558Y656D02*
X2567Y656D01*
X0Y655D02*
X9Y655D01*
X106Y655D02*
X108Y655D01*
X194Y655D02*
X196Y655D01*
X2558Y655D02*
X2567Y655D01*
X0Y654D02*
X9Y654D01*
X106Y654D02*
X108Y654D01*
X194Y654D02*
X196Y654D01*
X2558Y654D02*
X2567Y654D01*
X0Y653D02*
X9Y653D01*
X106Y653D02*
X108Y653D01*
X194Y653D02*
X196Y653D01*
X2558Y653D02*
X2567Y653D01*
X0Y652D02*
X9Y652D01*
X106Y652D02*
X108Y652D01*
X194Y652D02*
X196Y652D01*
X2558Y652D02*
X2567Y652D01*
X0Y651D02*
X9Y651D01*
X106Y651D02*
X108Y651D01*
X194Y651D02*
X196Y651D01*
X2558Y651D02*
X2567Y651D01*
X0Y650D02*
X9Y650D01*
X106Y650D02*
X108Y650D01*
X194Y650D02*
X196Y650D01*
X2558Y650D02*
X2567Y650D01*
X0Y649D02*
X9Y649D01*
X106Y649D02*
X108Y649D01*
X194Y649D02*
X196Y649D01*
X2558Y649D02*
X2567Y649D01*
X0Y648D02*
X9Y648D01*
X106Y648D02*
X108Y648D01*
X194Y648D02*
X196Y648D01*
X2558Y648D02*
X2567Y648D01*
X0Y647D02*
X9Y647D01*
X106Y647D02*
X108Y647D01*
X194Y647D02*
X196Y647D01*
X2558Y647D02*
X2567Y647D01*
X0Y646D02*
X9Y646D01*
X106Y646D02*
X108Y646D01*
X194Y646D02*
X196Y646D01*
X2558Y646D02*
X2567Y646D01*
X0Y645D02*
X9Y645D01*
X106Y645D02*
X108Y645D01*
X194Y645D02*
X196Y645D01*
X2558Y645D02*
X2567Y645D01*
X0Y644D02*
X9Y644D01*
X106Y644D02*
X108Y644D01*
X194Y644D02*
X196Y644D01*
X2558Y644D02*
X2567Y644D01*
X0Y643D02*
X9Y643D01*
X106Y643D02*
X108Y643D01*
X194Y643D02*
X196Y643D01*
X2558Y643D02*
X2567Y643D01*
X0Y642D02*
X9Y642D01*
X106Y642D02*
X108Y642D01*
X194Y642D02*
X196Y642D01*
X2558Y642D02*
X2567Y642D01*
X0Y641D02*
X9Y641D01*
X106Y641D02*
X108Y641D01*
X194Y641D02*
X196Y641D01*
X2558Y641D02*
X2567Y641D01*
X0Y640D02*
X9Y640D01*
X106Y640D02*
X108Y640D01*
X194Y640D02*
X196Y640D01*
X2558Y640D02*
X2567Y640D01*
X0Y639D02*
X9Y639D01*
X106Y639D02*
X108Y639D01*
X194Y639D02*
X196Y639D01*
X2558Y639D02*
X2567Y639D01*
X0Y638D02*
X9Y638D01*
X106Y638D02*
X108Y638D01*
X194Y638D02*
X196Y638D01*
X2558Y638D02*
X2567Y638D01*
X0Y637D02*
X9Y637D01*
X106Y637D02*
X108Y637D01*
X194Y637D02*
X196Y637D01*
X2558Y637D02*
X2567Y637D01*
X0Y636D02*
X9Y636D01*
X106Y636D02*
X108Y636D01*
X194Y636D02*
X196Y636D01*
X2558Y636D02*
X2567Y636D01*
X0Y635D02*
X9Y635D01*
X106Y635D02*
X108Y635D01*
X194Y635D02*
X196Y635D01*
X2558Y635D02*
X2567Y635D01*
X0Y634D02*
X9Y634D01*
X106Y634D02*
X196Y634D01*
X2558Y634D02*
X2567Y634D01*
X0Y633D02*
X9Y633D01*
X106Y633D02*
X196Y633D01*
X2558Y633D02*
X2567Y633D01*
X0Y632D02*
X9Y632D01*
X107Y632D02*
X195Y632D01*
X2558Y632D02*
X2567Y632D01*
X0Y631D02*
X9Y631D01*
X2558Y631D02*
X2567Y631D01*
X0Y630D02*
X9Y630D01*
X2558Y630D02*
X2567Y630D01*
X0Y629D02*
X9Y629D01*
X2558Y629D02*
X2567Y629D01*
X0Y628D02*
X9Y628D01*
X2558Y628D02*
X2567Y628D01*
X0Y627D02*
X9Y627D01*
X2558Y627D02*
X2567Y627D01*
X0Y626D02*
X9Y626D01*
X2558Y626D02*
X2567Y626D01*
X0Y625D02*
X9Y625D01*
X2558Y625D02*
X2567Y625D01*
X0Y624D02*
X9Y624D01*
X2558Y624D02*
X2567Y624D01*
X0Y623D02*
X9Y623D01*
X2558Y623D02*
X2567Y623D01*
X0Y622D02*
X9Y622D01*
X2558Y622D02*
X2567Y622D01*
X0Y621D02*
X9Y621D01*
X2558Y621D02*
X2567Y621D01*
X0Y620D02*
X9Y620D01*
X2558Y620D02*
X2567Y620D01*
X0Y619D02*
X9Y619D01*
X2558Y619D02*
X2567Y619D01*
X0Y618D02*
X9Y618D01*
X2558Y618D02*
X2567Y618D01*
X0Y617D02*
X9Y617D01*
X2558Y617D02*
X2567Y617D01*
X0Y616D02*
X9Y616D01*
X2558Y616D02*
X2567Y616D01*
X0Y615D02*
X9Y615D01*
X2558Y615D02*
X2567Y615D01*
X0Y614D02*
X9Y614D01*
X2558Y614D02*
X2567Y614D01*
X0Y613D02*
X9Y613D01*
X2558Y613D02*
X2567Y613D01*
X0Y612D02*
X9Y612D01*
X2558Y612D02*
X2567Y612D01*
X0Y611D02*
X9Y611D01*
X2558Y611D02*
X2567Y611D01*
X0Y610D02*
X9Y610D01*
X2558Y610D02*
X2567Y610D01*
X0Y609D02*
X9Y609D01*
X2558Y609D02*
X2567Y609D01*
X0Y608D02*
X9Y608D01*
X2558Y608D02*
X2567Y608D01*
X0Y607D02*
X9Y607D01*
X2558Y607D02*
X2567Y607D01*
X0Y606D02*
X9Y606D01*
X2558Y606D02*
X2567Y606D01*
X0Y605D02*
X9Y605D01*
X2558Y605D02*
X2567Y605D01*
X0Y604D02*
X9Y604D01*
X2558Y604D02*
X2567Y604D01*
X0Y603D02*
X9Y603D01*
X2558Y603D02*
X2567Y603D01*
X0Y602D02*
X9Y602D01*
X2558Y602D02*
X2567Y602D01*
X0Y601D02*
X9Y601D01*
X2558Y601D02*
X2567Y601D01*
X0Y600D02*
X9Y600D01*
X2558Y600D02*
X2567Y600D01*
X0Y599D02*
X9Y599D01*
X2558Y599D02*
X2567Y599D01*
X0Y598D02*
X9Y598D01*
X2558Y598D02*
X2567Y598D01*
X0Y597D02*
X9Y597D01*
X2558Y597D02*
X2567Y597D01*
X0Y596D02*
X9Y596D01*
X2558Y596D02*
X2567Y596D01*
X0Y595D02*
X9Y595D01*
X2558Y595D02*
X2567Y595D01*
X0Y594D02*
X9Y594D01*
X2558Y594D02*
X2567Y594D01*
X0Y593D02*
X9Y593D01*
X2558Y593D02*
X2567Y593D01*
X0Y592D02*
X9Y592D01*
X2558Y592D02*
X2567Y592D01*
X0Y591D02*
X9Y591D01*
X2558Y591D02*
X2567Y591D01*
X0Y590D02*
X9Y590D01*
X2558Y590D02*
X2567Y590D01*
X0Y589D02*
X9Y589D01*
X2558Y589D02*
X2567Y589D01*
X0Y588D02*
X9Y588D01*
X2558Y588D02*
X2567Y588D01*
X0Y587D02*
X9Y587D01*
X2558Y587D02*
X2567Y587D01*
X0Y586D02*
X9Y586D01*
X2558Y586D02*
X2567Y586D01*
X0Y585D02*
X9Y585D01*
X2558Y585D02*
X2567Y585D01*
X0Y584D02*
X9Y584D01*
X2558Y584D02*
X2567Y584D01*
X0Y583D02*
X9Y583D01*
X2558Y583D02*
X2567Y583D01*
X0Y582D02*
X9Y582D01*
X2558Y582D02*
X2567Y582D01*
X0Y581D02*
X9Y581D01*
X2558Y581D02*
X2567Y581D01*
X0Y580D02*
X9Y580D01*
X2558Y580D02*
X2567Y580D01*
X0Y579D02*
X9Y579D01*
X2558Y579D02*
X2567Y579D01*
X0Y578D02*
X9Y578D01*
X2558Y578D02*
X2567Y578D01*
X0Y577D02*
X9Y577D01*
X2558Y577D02*
X2567Y577D01*
X0Y576D02*
X9Y576D01*
X2558Y576D02*
X2567Y576D01*
X0Y575D02*
X9Y575D01*
X2558Y575D02*
X2567Y575D01*
X0Y574D02*
X9Y574D01*
X2558Y574D02*
X2567Y574D01*
X0Y573D02*
X9Y573D01*
X2558Y573D02*
X2567Y573D01*
X0Y572D02*
X9Y572D01*
X2558Y572D02*
X2567Y572D01*
X0Y571D02*
X9Y571D01*
X2558Y571D02*
X2567Y571D01*
X0Y570D02*
X9Y570D01*
X2558Y570D02*
X2567Y570D01*
X0Y569D02*
X9Y569D01*
X2558Y569D02*
X2567Y569D01*
X0Y568D02*
X9Y568D01*
X2558Y568D02*
X2567Y568D01*
X0Y567D02*
X9Y567D01*
X2558Y567D02*
X2567Y567D01*
X0Y566D02*
X9Y566D01*
X2558Y566D02*
X2567Y566D01*
X0Y565D02*
X9Y565D01*
X2558Y565D02*
X2567Y565D01*
X0Y564D02*
X9Y564D01*
X2558Y564D02*
X2567Y564D01*
X0Y563D02*
X9Y563D01*
X2558Y563D02*
X2567Y563D01*
X0Y562D02*
X9Y562D01*
X2558Y562D02*
X2567Y562D01*
X0Y561D02*
X9Y561D01*
X2558Y561D02*
X2567Y561D01*
X0Y560D02*
X9Y560D01*
X2558Y560D02*
X2567Y560D01*
X0Y559D02*
X9Y559D01*
X2558Y559D02*
X2567Y559D01*
X0Y558D02*
X9Y558D01*
X2558Y558D02*
X2567Y558D01*
X0Y557D02*
X9Y557D01*
X2558Y557D02*
X2567Y557D01*
X0Y556D02*
X9Y556D01*
X2558Y556D02*
X2567Y556D01*
X0Y555D02*
X9Y555D01*
X2558Y555D02*
X2567Y555D01*
X0Y554D02*
X9Y554D01*
X2558Y554D02*
X2567Y554D01*
X0Y553D02*
X9Y553D01*
X2558Y553D02*
X2567Y553D01*
X0Y552D02*
X9Y552D01*
X2558Y552D02*
X2567Y552D01*
X0Y551D02*
X9Y551D01*
X2558Y551D02*
X2567Y551D01*
X0Y550D02*
X9Y550D01*
X2558Y550D02*
X2567Y550D01*
X0Y549D02*
X9Y549D01*
X2558Y549D02*
X2567Y549D01*
X0Y548D02*
X9Y548D01*
X2558Y548D02*
X2567Y548D01*
X0Y547D02*
X9Y547D01*
X2558Y547D02*
X2567Y547D01*
X0Y546D02*
X9Y546D01*
X2558Y546D02*
X2567Y546D01*
X0Y545D02*
X9Y545D01*
X2558Y545D02*
X2567Y545D01*
X0Y544D02*
X9Y544D01*
X2558Y544D02*
X2567Y544D01*
X0Y543D02*
X9Y543D01*
X2558Y543D02*
X2567Y543D01*
X0Y542D02*
X9Y542D01*
X2558Y542D02*
X2567Y542D01*
X0Y541D02*
X9Y541D01*
X2558Y541D02*
X2567Y541D01*
X0Y540D02*
X9Y540D01*
X2558Y540D02*
X2567Y540D01*
X0Y539D02*
X9Y539D01*
X2558Y539D02*
X2567Y539D01*
X0Y538D02*
X9Y538D01*
X2558Y538D02*
X2567Y538D01*
X0Y537D02*
X9Y537D01*
X2558Y537D02*
X2567Y537D01*
X0Y536D02*
X9Y536D01*
X2558Y536D02*
X2567Y536D01*
X0Y535D02*
X9Y535D01*
X2558Y535D02*
X2567Y535D01*
X0Y534D02*
X9Y534D01*
X2558Y534D02*
X2567Y534D01*
X0Y533D02*
X9Y533D01*
X2558Y533D02*
X2567Y533D01*
X0Y532D02*
X9Y532D01*
X2558Y532D02*
X2567Y532D01*
X0Y531D02*
X9Y531D01*
X2558Y531D02*
X2567Y531D01*
X0Y530D02*
X9Y530D01*
X2558Y530D02*
X2567Y530D01*
X0Y529D02*
X9Y529D01*
X2558Y529D02*
X2567Y529D01*
X0Y528D02*
X9Y528D01*
X2558Y528D02*
X2567Y528D01*
X0Y527D02*
X9Y527D01*
X2558Y527D02*
X2567Y527D01*
X0Y526D02*
X9Y526D01*
X2558Y526D02*
X2567Y526D01*
X0Y525D02*
X9Y525D01*
X2558Y525D02*
X2567Y525D01*
X0Y524D02*
X9Y524D01*
X2558Y524D02*
X2567Y524D01*
X0Y523D02*
X9Y523D01*
X2558Y523D02*
X2567Y523D01*
X0Y522D02*
X9Y522D01*
X2558Y522D02*
X2567Y522D01*
X0Y521D02*
X9Y521D01*
X2558Y521D02*
X2567Y521D01*
X0Y520D02*
X9Y520D01*
X2558Y520D02*
X2567Y520D01*
X0Y519D02*
X9Y519D01*
X2558Y519D02*
X2567Y519D01*
X0Y518D02*
X9Y518D01*
X2558Y518D02*
X2567Y518D01*
X0Y517D02*
X9Y517D01*
X2558Y517D02*
X2567Y517D01*
X0Y516D02*
X9Y516D01*
X2558Y516D02*
X2567Y516D01*
X0Y515D02*
X9Y515D01*
X2558Y515D02*
X2567Y515D01*
X0Y514D02*
X9Y514D01*
X2558Y514D02*
X2567Y514D01*
X0Y513D02*
X9Y513D01*
X2558Y513D02*
X2567Y513D01*
X0Y512D02*
X9Y512D01*
X2558Y512D02*
X2567Y512D01*
X0Y511D02*
X9Y511D01*
X2558Y511D02*
X2567Y511D01*
X0Y510D02*
X9Y510D01*
X2558Y510D02*
X2567Y510D01*
X0Y509D02*
X9Y509D01*
X2558Y509D02*
X2567Y509D01*
X0Y508D02*
X9Y508D01*
X2558Y508D02*
X2567Y508D01*
X0Y507D02*
X9Y507D01*
X2558Y507D02*
X2567Y507D01*
X0Y506D02*
X9Y506D01*
X2558Y506D02*
X2567Y506D01*
X0Y505D02*
X9Y505D01*
X2558Y505D02*
X2567Y505D01*
X0Y504D02*
X9Y504D01*
X2558Y504D02*
X2567Y504D01*
X0Y503D02*
X9Y503D01*
X2558Y503D02*
X2567Y503D01*
X0Y502D02*
X9Y502D01*
X2558Y502D02*
X2567Y502D01*
X0Y501D02*
X9Y501D01*
X2558Y501D02*
X2567Y501D01*
X0Y500D02*
X9Y500D01*
X2558Y500D02*
X2567Y500D01*
X0Y499D02*
X9Y499D01*
X2558Y499D02*
X2567Y499D01*
X0Y498D02*
X9Y498D01*
X2558Y498D02*
X2567Y498D01*
X0Y497D02*
X9Y497D01*
X2558Y497D02*
X2567Y497D01*
X0Y496D02*
X9Y496D01*
X2558Y496D02*
X2567Y496D01*
X0Y495D02*
X9Y495D01*
X2558Y495D02*
X2567Y495D01*
X0Y494D02*
X9Y494D01*
X2558Y494D02*
X2567Y494D01*
X0Y493D02*
X9Y493D01*
X2558Y493D02*
X2567Y493D01*
X0Y492D02*
X9Y492D01*
X2558Y492D02*
X2567Y492D01*
X0Y491D02*
X9Y491D01*
X2558Y491D02*
X2567Y491D01*
X0Y490D02*
X9Y490D01*
X2558Y490D02*
X2567Y490D01*
X0Y489D02*
X9Y489D01*
X2558Y489D02*
X2567Y489D01*
X0Y488D02*
X9Y488D01*
X2558Y488D02*
X2567Y488D01*
X0Y487D02*
X9Y487D01*
X2558Y487D02*
X2567Y487D01*
X0Y486D02*
X9Y486D01*
X2558Y486D02*
X2567Y486D01*
X0Y485D02*
X9Y485D01*
X106Y485D02*
X196Y485D01*
X2558Y485D02*
X2567Y485D01*
X0Y484D02*
X9Y484D01*
X106Y484D02*
X196Y484D01*
X2558Y484D02*
X2567Y484D01*
X0Y483D02*
X9Y483D01*
X106Y483D02*
X196Y483D01*
X2558Y483D02*
X2567Y483D01*
X0Y482D02*
X9Y482D01*
X106Y482D02*
X108Y482D01*
X194Y482D02*
X196Y482D01*
X2558Y482D02*
X2567Y482D01*
X0Y481D02*
X9Y481D01*
X106Y481D02*
X108Y481D01*
X194Y481D02*
X196Y481D01*
X2558Y481D02*
X2567Y481D01*
X0Y480D02*
X9Y480D01*
X106Y480D02*
X108Y480D01*
X194Y480D02*
X196Y480D01*
X2558Y480D02*
X2567Y480D01*
X0Y479D02*
X9Y479D01*
X106Y479D02*
X108Y479D01*
X194Y479D02*
X196Y479D01*
X2558Y479D02*
X2567Y479D01*
X0Y478D02*
X9Y478D01*
X106Y478D02*
X108Y478D01*
X194Y478D02*
X196Y478D01*
X2558Y478D02*
X2567Y478D01*
X0Y477D02*
X9Y477D01*
X106Y477D02*
X108Y477D01*
X194Y477D02*
X196Y477D01*
X2558Y477D02*
X2567Y477D01*
X0Y476D02*
X9Y476D01*
X106Y476D02*
X108Y476D01*
X194Y476D02*
X196Y476D01*
X2558Y476D02*
X2567Y476D01*
X0Y475D02*
X9Y475D01*
X106Y475D02*
X108Y475D01*
X194Y475D02*
X196Y475D01*
X2558Y475D02*
X2567Y475D01*
X0Y474D02*
X9Y474D01*
X106Y474D02*
X108Y474D01*
X194Y474D02*
X196Y474D01*
X2558Y474D02*
X2567Y474D01*
X0Y473D02*
X9Y473D01*
X106Y473D02*
X108Y473D01*
X194Y473D02*
X196Y473D01*
X2558Y473D02*
X2567Y473D01*
X0Y472D02*
X9Y472D01*
X106Y472D02*
X108Y472D01*
X194Y472D02*
X196Y472D01*
X2558Y472D02*
X2567Y472D01*
X0Y471D02*
X9Y471D01*
X106Y471D02*
X108Y471D01*
X194Y471D02*
X196Y471D01*
X2558Y471D02*
X2567Y471D01*
X0Y470D02*
X9Y470D01*
X106Y470D02*
X108Y470D01*
X194Y470D02*
X196Y470D01*
X2558Y470D02*
X2567Y470D01*
X0Y469D02*
X9Y469D01*
X106Y469D02*
X108Y469D01*
X194Y469D02*
X196Y469D01*
X2558Y469D02*
X2567Y469D01*
X0Y468D02*
X9Y468D01*
X106Y468D02*
X108Y468D01*
X194Y468D02*
X196Y468D01*
X2558Y468D02*
X2567Y468D01*
X0Y467D02*
X9Y467D01*
X106Y467D02*
X108Y467D01*
X194Y467D02*
X196Y467D01*
X2558Y467D02*
X2567Y467D01*
X0Y466D02*
X9Y466D01*
X106Y466D02*
X108Y466D01*
X194Y466D02*
X196Y466D01*
X2558Y466D02*
X2567Y466D01*
X0Y465D02*
X9Y465D01*
X106Y465D02*
X108Y465D01*
X194Y465D02*
X196Y465D01*
X2558Y465D02*
X2567Y465D01*
X0Y464D02*
X9Y464D01*
X106Y464D02*
X108Y464D01*
X194Y464D02*
X196Y464D01*
X2558Y464D02*
X2567Y464D01*
X0Y463D02*
X9Y463D01*
X106Y463D02*
X108Y463D01*
X194Y463D02*
X196Y463D01*
X2558Y463D02*
X2567Y463D01*
X0Y462D02*
X9Y462D01*
X106Y462D02*
X108Y462D01*
X194Y462D02*
X196Y462D01*
X2558Y462D02*
X2567Y462D01*
X0Y461D02*
X9Y461D01*
X106Y461D02*
X108Y461D01*
X194Y461D02*
X196Y461D01*
X2558Y461D02*
X2567Y461D01*
X0Y460D02*
X9Y460D01*
X106Y460D02*
X108Y460D01*
X194Y460D02*
X196Y460D01*
X2558Y460D02*
X2567Y460D01*
X0Y459D02*
X9Y459D01*
X106Y459D02*
X108Y459D01*
X194Y459D02*
X196Y459D01*
X2558Y459D02*
X2567Y459D01*
X0Y458D02*
X9Y458D01*
X106Y458D02*
X108Y458D01*
X194Y458D02*
X196Y458D01*
X2558Y458D02*
X2567Y458D01*
X0Y457D02*
X9Y457D01*
X106Y457D02*
X108Y457D01*
X194Y457D02*
X196Y457D01*
X2558Y457D02*
X2567Y457D01*
X0Y456D02*
X9Y456D01*
X106Y456D02*
X108Y456D01*
X194Y456D02*
X196Y456D01*
X2558Y456D02*
X2567Y456D01*
X0Y455D02*
X9Y455D01*
X106Y455D02*
X108Y455D01*
X194Y455D02*
X196Y455D01*
X2558Y455D02*
X2567Y455D01*
X0Y454D02*
X9Y454D01*
X106Y454D02*
X108Y454D01*
X194Y454D02*
X196Y454D01*
X2558Y454D02*
X2567Y454D01*
X0Y453D02*
X9Y453D01*
X106Y453D02*
X108Y453D01*
X194Y453D02*
X196Y453D01*
X2558Y453D02*
X2567Y453D01*
X0Y452D02*
X9Y452D01*
X106Y452D02*
X108Y452D01*
X194Y452D02*
X196Y452D01*
X2558Y452D02*
X2567Y452D01*
X0Y451D02*
X9Y451D01*
X106Y451D02*
X108Y451D01*
X194Y451D02*
X196Y451D01*
X2558Y451D02*
X2567Y451D01*
X0Y450D02*
X9Y450D01*
X106Y450D02*
X108Y450D01*
X194Y450D02*
X196Y450D01*
X2558Y450D02*
X2567Y450D01*
X0Y449D02*
X9Y449D01*
X106Y449D02*
X108Y449D01*
X194Y449D02*
X196Y449D01*
X2558Y449D02*
X2567Y449D01*
X0Y448D02*
X9Y448D01*
X106Y448D02*
X108Y448D01*
X194Y448D02*
X196Y448D01*
X2558Y448D02*
X2567Y448D01*
X0Y447D02*
X9Y447D01*
X106Y447D02*
X108Y447D01*
X194Y447D02*
X196Y447D01*
X2558Y447D02*
X2567Y447D01*
X0Y446D02*
X9Y446D01*
X106Y446D02*
X108Y446D01*
X194Y446D02*
X196Y446D01*
X2558Y446D02*
X2567Y446D01*
X0Y445D02*
X9Y445D01*
X106Y445D02*
X108Y445D01*
X194Y445D02*
X196Y445D01*
X2558Y445D02*
X2567Y445D01*
X0Y444D02*
X9Y444D01*
X106Y444D02*
X108Y444D01*
X194Y444D02*
X196Y444D01*
X2558Y444D02*
X2567Y444D01*
X0Y443D02*
X9Y443D01*
X106Y443D02*
X108Y443D01*
X194Y443D02*
X196Y443D01*
X2558Y443D02*
X2567Y443D01*
X0Y442D02*
X9Y442D01*
X106Y442D02*
X108Y442D01*
X194Y442D02*
X196Y442D01*
X2558Y442D02*
X2567Y442D01*
X0Y441D02*
X9Y441D01*
X106Y441D02*
X108Y441D01*
X194Y441D02*
X196Y441D01*
X2558Y441D02*
X2567Y441D01*
X0Y440D02*
X9Y440D01*
X106Y440D02*
X108Y440D01*
X194Y440D02*
X196Y440D01*
X2558Y440D02*
X2567Y440D01*
X0Y439D02*
X9Y439D01*
X106Y439D02*
X108Y439D01*
X194Y439D02*
X196Y439D01*
X2558Y439D02*
X2567Y439D01*
X0Y438D02*
X9Y438D01*
X106Y438D02*
X108Y438D01*
X194Y438D02*
X196Y438D01*
X2558Y438D02*
X2567Y438D01*
X0Y437D02*
X9Y437D01*
X106Y437D02*
X108Y437D01*
X194Y437D02*
X196Y437D01*
X2558Y437D02*
X2567Y437D01*
X0Y436D02*
X9Y436D01*
X106Y436D02*
X108Y436D01*
X194Y436D02*
X196Y436D01*
X2558Y436D02*
X2567Y436D01*
X0Y435D02*
X9Y435D01*
X106Y435D02*
X108Y435D01*
X194Y435D02*
X196Y435D01*
X2558Y435D02*
X2567Y435D01*
X0Y434D02*
X9Y434D01*
X106Y434D02*
X108Y434D01*
X194Y434D02*
X196Y434D01*
X2558Y434D02*
X2567Y434D01*
X0Y433D02*
X9Y433D01*
X106Y433D02*
X108Y433D01*
X194Y433D02*
X196Y433D01*
X2558Y433D02*
X2567Y433D01*
X0Y432D02*
X9Y432D01*
X106Y432D02*
X108Y432D01*
X194Y432D02*
X196Y432D01*
X2558Y432D02*
X2567Y432D01*
X0Y431D02*
X9Y431D01*
X106Y431D02*
X108Y431D01*
X194Y431D02*
X196Y431D01*
X2558Y431D02*
X2567Y431D01*
X0Y430D02*
X9Y430D01*
X106Y430D02*
X108Y430D01*
X194Y430D02*
X196Y430D01*
X2558Y430D02*
X2567Y430D01*
X0Y429D02*
X9Y429D01*
X106Y429D02*
X108Y429D01*
X194Y429D02*
X196Y429D01*
X2558Y429D02*
X2567Y429D01*
X0Y428D02*
X9Y428D01*
X106Y428D02*
X108Y428D01*
X194Y428D02*
X196Y428D01*
X2558Y428D02*
X2567Y428D01*
X0Y427D02*
X9Y427D01*
X106Y427D02*
X108Y427D01*
X194Y427D02*
X196Y427D01*
X2558Y427D02*
X2567Y427D01*
X0Y426D02*
X9Y426D01*
X35Y426D02*
X62Y426D01*
X106Y426D02*
X108Y426D01*
X194Y426D02*
X196Y426D01*
X2558Y426D02*
X2567Y426D01*
X0Y425D02*
X9Y425D01*
X35Y425D02*
X64Y425D01*
X88Y425D02*
X88Y425D01*
X106Y425D02*
X108Y425D01*
X194Y425D02*
X196Y425D01*
X2558Y425D02*
X2567Y425D01*
X0Y424D02*
X9Y424D01*
X35Y424D02*
X66Y424D01*
X86Y424D02*
X88Y424D01*
X106Y424D02*
X108Y424D01*
X194Y424D02*
X196Y424D01*
X2558Y424D02*
X2567Y424D01*
X0Y423D02*
X9Y423D01*
X35Y423D02*
X69Y423D01*
X83Y423D02*
X88Y423D01*
X106Y423D02*
X108Y423D01*
X194Y423D02*
X196Y423D01*
X2558Y423D02*
X2567Y423D01*
X0Y422D02*
X9Y422D01*
X35Y422D02*
X73Y422D01*
X79Y422D02*
X88Y422D01*
X106Y422D02*
X108Y422D01*
X194Y422D02*
X196Y422D01*
X2558Y422D02*
X2567Y422D01*
X0Y421D02*
X9Y421D01*
X35Y421D02*
X87Y421D01*
X106Y421D02*
X108Y421D01*
X194Y421D02*
X196Y421D01*
X2558Y421D02*
X2567Y421D01*
X0Y420D02*
X9Y420D01*
X35Y420D02*
X86Y420D01*
X106Y420D02*
X108Y420D01*
X194Y420D02*
X196Y420D01*
X2558Y420D02*
X2567Y420D01*
X0Y419D02*
X9Y419D01*
X35Y419D02*
X41Y419D01*
X53Y419D02*
X59Y419D01*
X106Y419D02*
X108Y419D01*
X194Y419D02*
X196Y419D01*
X2558Y419D02*
X2567Y419D01*
X0Y418D02*
X9Y418D01*
X35Y418D02*
X41Y418D01*
X53Y418D02*
X59Y418D01*
X106Y418D02*
X108Y418D01*
X194Y418D02*
X196Y418D01*
X2558Y418D02*
X2567Y418D01*
X0Y417D02*
X9Y417D01*
X35Y417D02*
X41Y417D01*
X53Y417D02*
X59Y417D01*
X106Y417D02*
X108Y417D01*
X194Y417D02*
X196Y417D01*
X2558Y417D02*
X2567Y417D01*
X0Y416D02*
X9Y416D01*
X35Y416D02*
X41Y416D01*
X53Y416D02*
X59Y416D01*
X106Y416D02*
X108Y416D01*
X194Y416D02*
X196Y416D01*
X2558Y416D02*
X2567Y416D01*
X0Y415D02*
X9Y415D01*
X35Y415D02*
X41Y415D01*
X53Y415D02*
X59Y415D01*
X106Y415D02*
X108Y415D01*
X194Y415D02*
X196Y415D01*
X2558Y415D02*
X2567Y415D01*
X0Y414D02*
X9Y414D01*
X35Y414D02*
X41Y414D01*
X53Y414D02*
X60Y414D01*
X106Y414D02*
X108Y414D01*
X194Y414D02*
X196Y414D01*
X2558Y414D02*
X2567Y414D01*
X0Y413D02*
X9Y413D01*
X35Y413D02*
X41Y413D01*
X53Y413D02*
X62Y413D01*
X106Y413D02*
X108Y413D01*
X194Y413D02*
X196Y413D01*
X2558Y413D02*
X2567Y413D01*
X0Y412D02*
X9Y412D01*
X35Y412D02*
X41Y412D01*
X53Y412D02*
X64Y412D01*
X106Y412D02*
X108Y412D01*
X194Y412D02*
X196Y412D01*
X2558Y412D02*
X2567Y412D01*
X0Y411D02*
X9Y411D01*
X35Y411D02*
X41Y411D01*
X53Y411D02*
X65Y411D01*
X106Y411D02*
X108Y411D01*
X194Y411D02*
X196Y411D01*
X2558Y411D02*
X2567Y411D01*
X0Y410D02*
X9Y410D01*
X35Y410D02*
X41Y410D01*
X53Y410D02*
X67Y410D01*
X106Y410D02*
X108Y410D01*
X193Y410D02*
X196Y410D01*
X2558Y410D02*
X2567Y410D01*
X0Y409D02*
X9Y409D01*
X35Y409D02*
X41Y409D01*
X53Y409D02*
X69Y409D01*
X106Y409D02*
X109Y409D01*
X193Y409D02*
X196Y409D01*
X2558Y409D02*
X2567Y409D01*
X0Y408D02*
X9Y408D01*
X35Y408D02*
X41Y408D01*
X53Y408D02*
X71Y408D01*
X106Y408D02*
X109Y408D01*
X193Y408D02*
X196Y408D01*
X2558Y408D02*
X2567Y408D01*
X0Y407D02*
X9Y407D01*
X35Y407D02*
X41Y407D01*
X53Y407D02*
X72Y407D01*
X106Y407D02*
X109Y407D01*
X193Y407D02*
X196Y407D01*
X2558Y407D02*
X2567Y407D01*
X0Y406D02*
X9Y406D01*
X35Y406D02*
X41Y406D01*
X53Y406D02*
X59Y406D01*
X61Y406D02*
X74Y406D01*
X106Y406D02*
X109Y406D01*
X193Y406D02*
X196Y406D01*
X2558Y406D02*
X2567Y406D01*
X0Y405D02*
X9Y405D01*
X35Y405D02*
X41Y405D01*
X53Y405D02*
X59Y405D01*
X63Y405D02*
X76Y405D01*
X106Y405D02*
X109Y405D01*
X193Y405D02*
X196Y405D01*
X2558Y405D02*
X2567Y405D01*
X0Y404D02*
X9Y404D01*
X35Y404D02*
X41Y404D01*
X53Y404D02*
X59Y404D01*
X64Y404D02*
X77Y404D01*
X106Y404D02*
X109Y404D01*
X193Y404D02*
X196Y404D01*
X2558Y404D02*
X2567Y404D01*
X0Y403D02*
X9Y403D01*
X35Y403D02*
X41Y403D01*
X53Y403D02*
X59Y403D01*
X66Y403D02*
X79Y403D01*
X106Y403D02*
X109Y403D01*
X193Y403D02*
X196Y403D01*
X2558Y403D02*
X2567Y403D01*
X0Y402D02*
X9Y402D01*
X35Y402D02*
X41Y402D01*
X53Y402D02*
X59Y402D01*
X68Y402D02*
X81Y402D01*
X106Y402D02*
X109Y402D01*
X193Y402D02*
X196Y402D01*
X2558Y402D02*
X2567Y402D01*
X0Y401D02*
X9Y401D01*
X35Y401D02*
X42Y401D01*
X52Y401D02*
X59Y401D01*
X70Y401D02*
X83Y401D01*
X106Y401D02*
X109Y401D01*
X193Y401D02*
X196Y401D01*
X2558Y401D02*
X2567Y401D01*
X0Y400D02*
X9Y400D01*
X35Y400D02*
X42Y400D01*
X51Y400D02*
X58Y400D01*
X71Y400D02*
X84Y400D01*
X106Y400D02*
X109Y400D01*
X193Y400D02*
X196Y400D01*
X2558Y400D02*
X2567Y400D01*
X0Y399D02*
X9Y399D01*
X36Y399D02*
X58Y399D01*
X73Y399D02*
X86Y399D01*
X106Y399D02*
X109Y399D01*
X193Y399D02*
X196Y399D01*
X2558Y399D02*
X2567Y399D01*
X0Y398D02*
X9Y398D01*
X36Y398D02*
X57Y398D01*
X75Y398D02*
X87Y398D01*
X106Y398D02*
X109Y398D01*
X193Y398D02*
X196Y398D01*
X2558Y398D02*
X2567Y398D01*
X0Y397D02*
X9Y397D01*
X37Y397D02*
X57Y397D01*
X76Y397D02*
X88Y397D01*
X106Y397D02*
X109Y397D01*
X193Y397D02*
X196Y397D01*
X2558Y397D02*
X2567Y397D01*
X0Y396D02*
X9Y396D01*
X37Y396D02*
X56Y396D01*
X78Y396D02*
X88Y396D01*
X106Y396D02*
X109Y396D01*
X193Y396D02*
X196Y396D01*
X2558Y396D02*
X2567Y396D01*
X0Y395D02*
X9Y395D01*
X38Y395D02*
X55Y395D01*
X80Y395D02*
X88Y395D01*
X106Y395D02*
X109Y395D01*
X193Y395D02*
X196Y395D01*
X2558Y395D02*
X2567Y395D01*
X0Y394D02*
X9Y394D01*
X40Y394D02*
X54Y394D01*
X82Y394D02*
X88Y394D01*
X106Y394D02*
X109Y394D01*
X193Y394D02*
X196Y394D01*
X2558Y394D02*
X2567Y394D01*
X0Y393D02*
X9Y393D01*
X42Y393D02*
X52Y393D01*
X83Y393D02*
X87Y393D01*
X106Y393D02*
X109Y393D01*
X193Y393D02*
X196Y393D01*
X2558Y393D02*
X2567Y393D01*
X0Y392D02*
X9Y392D01*
X106Y392D02*
X109Y392D01*
X193Y392D02*
X196Y392D01*
X2558Y392D02*
X2567Y392D01*
X0Y391D02*
X9Y391D01*
X106Y391D02*
X109Y391D01*
X193Y391D02*
X196Y391D01*
X2558Y391D02*
X2567Y391D01*
X0Y390D02*
X9Y390D01*
X106Y390D02*
X109Y390D01*
X193Y390D02*
X196Y390D01*
X2558Y390D02*
X2567Y390D01*
X0Y389D02*
X9Y389D01*
X106Y389D02*
X109Y389D01*
X193Y389D02*
X196Y389D01*
X2558Y389D02*
X2567Y389D01*
X0Y388D02*
X9Y388D01*
X106Y388D02*
X109Y388D01*
X193Y388D02*
X196Y388D01*
X2558Y388D02*
X2567Y388D01*
X0Y387D02*
X9Y387D01*
X106Y387D02*
X109Y387D01*
X193Y387D02*
X196Y387D01*
X2558Y387D02*
X2567Y387D01*
X0Y386D02*
X9Y386D01*
X106Y386D02*
X109Y386D01*
X193Y386D02*
X196Y386D01*
X2558Y386D02*
X2567Y386D01*
X0Y385D02*
X9Y385D01*
X106Y385D02*
X109Y385D01*
X193Y385D02*
X196Y385D01*
X2558Y385D02*
X2567Y385D01*
X0Y384D02*
X9Y384D01*
X106Y384D02*
X109Y384D01*
X193Y384D02*
X196Y384D01*
X2558Y384D02*
X2567Y384D01*
X0Y383D02*
X9Y383D01*
X106Y383D02*
X109Y383D01*
X193Y383D02*
X196Y383D01*
X2558Y383D02*
X2567Y383D01*
X0Y382D02*
X9Y382D01*
X106Y382D02*
X109Y382D01*
X193Y382D02*
X196Y382D01*
X2558Y382D02*
X2567Y382D01*
X0Y381D02*
X9Y381D01*
X106Y381D02*
X109Y381D01*
X193Y381D02*
X196Y381D01*
X2558Y381D02*
X2567Y381D01*
X0Y380D02*
X9Y380D01*
X106Y380D02*
X109Y380D01*
X193Y380D02*
X196Y380D01*
X2558Y380D02*
X2567Y380D01*
X0Y379D02*
X9Y379D01*
X106Y379D02*
X109Y379D01*
X193Y379D02*
X196Y379D01*
X2558Y379D02*
X2567Y379D01*
X0Y378D02*
X9Y378D01*
X106Y378D02*
X109Y378D01*
X193Y378D02*
X196Y378D01*
X2558Y378D02*
X2567Y378D01*
X0Y377D02*
X9Y377D01*
X106Y377D02*
X109Y377D01*
X193Y377D02*
X196Y377D01*
X2558Y377D02*
X2567Y377D01*
X0Y376D02*
X9Y376D01*
X106Y376D02*
X109Y376D01*
X193Y376D02*
X196Y376D01*
X2558Y376D02*
X2567Y376D01*
X0Y375D02*
X9Y375D01*
X106Y375D02*
X109Y375D01*
X193Y375D02*
X196Y375D01*
X2558Y375D02*
X2567Y375D01*
X0Y374D02*
X9Y374D01*
X36Y374D02*
X70Y374D01*
X106Y374D02*
X109Y374D01*
X193Y374D02*
X196Y374D01*
X2558Y374D02*
X2567Y374D01*
X0Y373D02*
X9Y373D01*
X35Y373D02*
X70Y373D01*
X106Y373D02*
X109Y373D01*
X193Y373D02*
X196Y373D01*
X2558Y373D02*
X2567Y373D01*
X0Y372D02*
X9Y372D01*
X35Y372D02*
X70Y372D01*
X106Y372D02*
X109Y372D01*
X193Y372D02*
X196Y372D01*
X2558Y372D02*
X2567Y372D01*
X0Y371D02*
X9Y371D01*
X35Y371D02*
X70Y371D01*
X106Y371D02*
X109Y371D01*
X193Y371D02*
X196Y371D01*
X2558Y371D02*
X2567Y371D01*
X0Y370D02*
X9Y370D01*
X35Y370D02*
X70Y370D01*
X106Y370D02*
X109Y370D01*
X193Y370D02*
X196Y370D01*
X2558Y370D02*
X2567Y370D01*
X0Y369D02*
X9Y369D01*
X36Y369D02*
X70Y369D01*
X106Y369D02*
X109Y369D01*
X193Y369D02*
X196Y369D01*
X2558Y369D02*
X2567Y369D01*
X0Y368D02*
X9Y368D01*
X38Y368D02*
X70Y368D01*
X106Y368D02*
X109Y368D01*
X193Y368D02*
X196Y368D01*
X2558Y368D02*
X2567Y368D01*
X0Y367D02*
X9Y367D01*
X64Y367D02*
X70Y367D01*
X106Y367D02*
X109Y367D01*
X193Y367D02*
X196Y367D01*
X2558Y367D02*
X2567Y367D01*
X0Y366D02*
X9Y366D01*
X64Y366D02*
X70Y366D01*
X106Y366D02*
X109Y366D01*
X193Y366D02*
X196Y366D01*
X2558Y366D02*
X2567Y366D01*
X0Y365D02*
X9Y365D01*
X64Y365D02*
X70Y365D01*
X106Y365D02*
X109Y365D01*
X193Y365D02*
X196Y365D01*
X2558Y365D02*
X2567Y365D01*
X0Y364D02*
X9Y364D01*
X64Y364D02*
X70Y364D01*
X106Y364D02*
X109Y364D01*
X193Y364D02*
X196Y364D01*
X2558Y364D02*
X2567Y364D01*
X0Y363D02*
X9Y363D01*
X64Y363D02*
X70Y363D01*
X106Y363D02*
X109Y363D01*
X193Y363D02*
X196Y363D01*
X2558Y363D02*
X2567Y363D01*
X0Y362D02*
X9Y362D01*
X64Y362D02*
X70Y362D01*
X106Y362D02*
X109Y362D01*
X193Y362D02*
X196Y362D01*
X2558Y362D02*
X2567Y362D01*
X0Y361D02*
X9Y361D01*
X64Y361D02*
X70Y361D01*
X106Y361D02*
X109Y361D01*
X193Y361D02*
X196Y361D01*
X2558Y361D02*
X2567Y361D01*
X0Y360D02*
X9Y360D01*
X64Y360D02*
X70Y360D01*
X106Y360D02*
X108Y360D01*
X194Y360D02*
X196Y360D01*
X2558Y360D02*
X2567Y360D01*
X0Y359D02*
X9Y359D01*
X64Y359D02*
X70Y359D01*
X106Y359D02*
X108Y359D01*
X194Y359D02*
X196Y359D01*
X2558Y359D02*
X2567Y359D01*
X0Y358D02*
X9Y358D01*
X64Y358D02*
X70Y358D01*
X106Y358D02*
X108Y358D01*
X194Y358D02*
X196Y358D01*
X2558Y358D02*
X2567Y358D01*
X0Y357D02*
X9Y357D01*
X64Y357D02*
X70Y357D01*
X106Y357D02*
X108Y357D01*
X194Y357D02*
X196Y357D01*
X2558Y357D02*
X2567Y357D01*
X0Y356D02*
X9Y356D01*
X64Y356D02*
X70Y356D01*
X106Y356D02*
X108Y356D01*
X194Y356D02*
X196Y356D01*
X2558Y356D02*
X2567Y356D01*
X0Y355D02*
X9Y355D01*
X64Y355D02*
X70Y355D01*
X106Y355D02*
X108Y355D01*
X194Y355D02*
X196Y355D01*
X2558Y355D02*
X2567Y355D01*
X0Y354D02*
X9Y354D01*
X43Y354D02*
X86Y354D01*
X106Y354D02*
X108Y354D01*
X194Y354D02*
X196Y354D01*
X2558Y354D02*
X2567Y354D01*
X0Y353D02*
X9Y353D01*
X42Y353D02*
X87Y353D01*
X106Y353D02*
X108Y353D01*
X194Y353D02*
X196Y353D01*
X2558Y353D02*
X2567Y353D01*
X0Y352D02*
X9Y352D01*
X41Y352D02*
X88Y352D01*
X106Y352D02*
X108Y352D01*
X194Y352D02*
X196Y352D01*
X2558Y352D02*
X2567Y352D01*
X0Y351D02*
X9Y351D01*
X41Y351D02*
X88Y351D01*
X106Y351D02*
X108Y351D01*
X194Y351D02*
X196Y351D01*
X2558Y351D02*
X2567Y351D01*
X0Y350D02*
X9Y350D01*
X41Y350D02*
X88Y350D01*
X106Y350D02*
X108Y350D01*
X194Y350D02*
X196Y350D01*
X2558Y350D02*
X2567Y350D01*
X0Y349D02*
X9Y349D01*
X41Y349D02*
X88Y349D01*
X106Y349D02*
X108Y349D01*
X194Y349D02*
X196Y349D01*
X2558Y349D02*
X2567Y349D01*
X0Y348D02*
X9Y348D01*
X42Y348D02*
X87Y348D01*
X106Y348D02*
X108Y348D01*
X194Y348D02*
X196Y348D01*
X2558Y348D02*
X2567Y348D01*
X0Y347D02*
X9Y347D01*
X64Y347D02*
X71Y347D01*
X106Y347D02*
X108Y347D01*
X194Y347D02*
X196Y347D01*
X2558Y347D02*
X2567Y347D01*
X0Y346D02*
X9Y346D01*
X65Y346D02*
X70Y346D01*
X106Y346D02*
X108Y346D01*
X194Y346D02*
X196Y346D01*
X2558Y346D02*
X2567Y346D01*
X0Y345D02*
X9Y345D01*
X65Y345D02*
X70Y345D01*
X106Y345D02*
X108Y345D01*
X194Y345D02*
X196Y345D01*
X2558Y345D02*
X2567Y345D01*
X0Y344D02*
X9Y344D01*
X67Y344D02*
X68Y344D01*
X106Y344D02*
X108Y344D01*
X194Y344D02*
X196Y344D01*
X2558Y344D02*
X2567Y344D01*
X0Y343D02*
X9Y343D01*
X106Y343D02*
X108Y343D01*
X194Y343D02*
X196Y343D01*
X2558Y343D02*
X2567Y343D01*
X0Y342D02*
X9Y342D01*
X106Y342D02*
X108Y342D01*
X194Y342D02*
X196Y342D01*
X2558Y342D02*
X2567Y342D01*
X0Y341D02*
X9Y341D01*
X106Y341D02*
X108Y341D01*
X194Y341D02*
X196Y341D01*
X2558Y341D02*
X2567Y341D01*
X0Y340D02*
X9Y340D01*
X106Y340D02*
X108Y340D01*
X194Y340D02*
X196Y340D01*
X2558Y340D02*
X2567Y340D01*
X0Y339D02*
X9Y339D01*
X106Y339D02*
X108Y339D01*
X194Y339D02*
X196Y339D01*
X2558Y339D02*
X2567Y339D01*
X0Y338D02*
X9Y338D01*
X106Y338D02*
X108Y338D01*
X194Y338D02*
X196Y338D01*
X2558Y338D02*
X2567Y338D01*
X0Y337D02*
X9Y337D01*
X106Y337D02*
X108Y337D01*
X194Y337D02*
X196Y337D01*
X2558Y337D02*
X2567Y337D01*
X0Y336D02*
X9Y336D01*
X106Y336D02*
X108Y336D01*
X194Y336D02*
X196Y336D01*
X2558Y336D02*
X2567Y336D01*
X0Y335D02*
X9Y335D01*
X106Y335D02*
X108Y335D01*
X194Y335D02*
X196Y335D01*
X2558Y335D02*
X2567Y335D01*
X0Y334D02*
X9Y334D01*
X106Y334D02*
X108Y334D01*
X194Y334D02*
X196Y334D01*
X2558Y334D02*
X2567Y334D01*
X0Y333D02*
X9Y333D01*
X106Y333D02*
X108Y333D01*
X194Y333D02*
X196Y333D01*
X2558Y333D02*
X2567Y333D01*
X0Y332D02*
X9Y332D01*
X106Y332D02*
X108Y332D01*
X194Y332D02*
X196Y332D01*
X2558Y332D02*
X2567Y332D01*
X0Y331D02*
X9Y331D01*
X106Y331D02*
X108Y331D01*
X194Y331D02*
X196Y331D01*
X2558Y331D02*
X2567Y331D01*
X0Y330D02*
X9Y330D01*
X106Y330D02*
X108Y330D01*
X194Y330D02*
X196Y330D01*
X2558Y330D02*
X2567Y330D01*
X0Y329D02*
X9Y329D01*
X106Y329D02*
X108Y329D01*
X194Y329D02*
X196Y329D01*
X2558Y329D02*
X2567Y329D01*
X0Y328D02*
X9Y328D01*
X106Y328D02*
X108Y328D01*
X194Y328D02*
X196Y328D01*
X2558Y328D02*
X2567Y328D01*
X0Y327D02*
X9Y327D01*
X106Y327D02*
X108Y327D01*
X194Y327D02*
X196Y327D01*
X2558Y327D02*
X2567Y327D01*
X0Y326D02*
X9Y326D01*
X106Y326D02*
X108Y326D01*
X194Y326D02*
X196Y326D01*
X2558Y326D02*
X2567Y326D01*
X0Y325D02*
X9Y325D01*
X106Y325D02*
X108Y325D01*
X194Y325D02*
X196Y325D01*
X2558Y325D02*
X2567Y325D01*
X0Y324D02*
X9Y324D01*
X106Y324D02*
X108Y324D01*
X194Y324D02*
X196Y324D01*
X2558Y324D02*
X2567Y324D01*
X0Y323D02*
X9Y323D01*
X106Y323D02*
X108Y323D01*
X194Y323D02*
X196Y323D01*
X2558Y323D02*
X2567Y323D01*
X0Y322D02*
X9Y322D01*
X106Y322D02*
X108Y322D01*
X194Y322D02*
X196Y322D01*
X2558Y322D02*
X2567Y322D01*
X0Y321D02*
X9Y321D01*
X106Y321D02*
X108Y321D01*
X194Y321D02*
X196Y321D01*
X2558Y321D02*
X2567Y321D01*
X0Y320D02*
X9Y320D01*
X106Y320D02*
X108Y320D01*
X194Y320D02*
X196Y320D01*
X2558Y320D02*
X2567Y320D01*
X0Y319D02*
X9Y319D01*
X106Y319D02*
X108Y319D01*
X194Y319D02*
X196Y319D01*
X2558Y319D02*
X2567Y319D01*
X0Y318D02*
X9Y318D01*
X106Y318D02*
X108Y318D01*
X194Y318D02*
X196Y318D01*
X2558Y318D02*
X2567Y318D01*
X0Y317D02*
X9Y317D01*
X106Y317D02*
X108Y317D01*
X194Y317D02*
X196Y317D01*
X2558Y317D02*
X2567Y317D01*
X0Y316D02*
X9Y316D01*
X106Y316D02*
X108Y316D01*
X194Y316D02*
X196Y316D01*
X2558Y316D02*
X2567Y316D01*
X0Y315D02*
X9Y315D01*
X106Y315D02*
X108Y315D01*
X194Y315D02*
X196Y315D01*
X2558Y315D02*
X2567Y315D01*
X0Y314D02*
X9Y314D01*
X106Y314D02*
X108Y314D01*
X194Y314D02*
X196Y314D01*
X2558Y314D02*
X2567Y314D01*
X0Y313D02*
X9Y313D01*
X106Y313D02*
X108Y313D01*
X194Y313D02*
X196Y313D01*
X2558Y313D02*
X2567Y313D01*
X0Y312D02*
X9Y312D01*
X106Y312D02*
X108Y312D01*
X194Y312D02*
X196Y312D01*
X2558Y312D02*
X2567Y312D01*
X0Y311D02*
X9Y311D01*
X106Y311D02*
X108Y311D01*
X194Y311D02*
X196Y311D01*
X2558Y311D02*
X2567Y311D01*
X0Y310D02*
X9Y310D01*
X106Y310D02*
X108Y310D01*
X194Y310D02*
X196Y310D01*
X2558Y310D02*
X2567Y310D01*
X0Y309D02*
X9Y309D01*
X106Y309D02*
X108Y309D01*
X194Y309D02*
X196Y309D01*
X2558Y309D02*
X2567Y309D01*
X0Y308D02*
X9Y308D01*
X106Y308D02*
X108Y308D01*
X194Y308D02*
X196Y308D01*
X2558Y308D02*
X2567Y308D01*
X0Y307D02*
X9Y307D01*
X106Y307D02*
X108Y307D01*
X194Y307D02*
X196Y307D01*
X2558Y307D02*
X2567Y307D01*
X0Y306D02*
X9Y306D01*
X106Y306D02*
X108Y306D01*
X194Y306D02*
X196Y306D01*
X2558Y306D02*
X2567Y306D01*
X0Y305D02*
X9Y305D01*
X106Y305D02*
X108Y305D01*
X194Y305D02*
X196Y305D01*
X2558Y305D02*
X2567Y305D01*
X0Y304D02*
X9Y304D01*
X106Y304D02*
X108Y304D01*
X194Y304D02*
X196Y304D01*
X2558Y304D02*
X2567Y304D01*
X0Y303D02*
X9Y303D01*
X106Y303D02*
X108Y303D01*
X194Y303D02*
X196Y303D01*
X2558Y303D02*
X2567Y303D01*
X0Y302D02*
X9Y302D01*
X106Y302D02*
X108Y302D01*
X194Y302D02*
X196Y302D01*
X2558Y302D02*
X2567Y302D01*
X0Y301D02*
X9Y301D01*
X106Y301D02*
X108Y301D01*
X194Y301D02*
X196Y301D01*
X2558Y301D02*
X2567Y301D01*
X0Y300D02*
X9Y300D01*
X106Y300D02*
X108Y300D01*
X194Y300D02*
X196Y300D01*
X2558Y300D02*
X2567Y300D01*
X0Y299D02*
X9Y299D01*
X106Y299D02*
X108Y299D01*
X194Y299D02*
X196Y299D01*
X2558Y299D02*
X2567Y299D01*
X0Y298D02*
X9Y298D01*
X106Y298D02*
X108Y298D01*
X194Y298D02*
X196Y298D01*
X2558Y298D02*
X2567Y298D01*
X0Y297D02*
X9Y297D01*
X106Y297D02*
X108Y297D01*
X194Y297D02*
X196Y297D01*
X2558Y297D02*
X2567Y297D01*
X0Y296D02*
X9Y296D01*
X106Y296D02*
X108Y296D01*
X194Y296D02*
X196Y296D01*
X2558Y296D02*
X2567Y296D01*
X0Y295D02*
X9Y295D01*
X106Y295D02*
X108Y295D01*
X194Y295D02*
X196Y295D01*
X2558Y295D02*
X2567Y295D01*
X0Y294D02*
X9Y294D01*
X106Y294D02*
X108Y294D01*
X194Y294D02*
X196Y294D01*
X2558Y294D02*
X2567Y294D01*
X0Y293D02*
X9Y293D01*
X106Y293D02*
X108Y293D01*
X194Y293D02*
X196Y293D01*
X2558Y293D02*
X2567Y293D01*
X0Y292D02*
X9Y292D01*
X106Y292D02*
X108Y292D01*
X194Y292D02*
X196Y292D01*
X2558Y292D02*
X2567Y292D01*
X0Y291D02*
X9Y291D01*
X106Y291D02*
X108Y291D01*
X194Y291D02*
X196Y291D01*
X2558Y291D02*
X2567Y291D01*
X0Y290D02*
X9Y290D01*
X106Y290D02*
X108Y290D01*
X194Y290D02*
X196Y290D01*
X2558Y290D02*
X2567Y290D01*
X0Y289D02*
X9Y289D01*
X106Y289D02*
X108Y289D01*
X194Y289D02*
X196Y289D01*
X2558Y289D02*
X2567Y289D01*
X0Y288D02*
X9Y288D01*
X106Y288D02*
X109Y288D01*
X193Y288D02*
X196Y288D01*
X2558Y288D02*
X2567Y288D01*
X0Y287D02*
X9Y287D01*
X106Y287D02*
X196Y287D01*
X2558Y287D02*
X2567Y287D01*
X0Y286D02*
X9Y286D01*
X106Y286D02*
X196Y286D01*
X2558Y286D02*
X2567Y286D01*
X0Y285D02*
X9Y285D01*
X2558Y285D02*
X2567Y285D01*
X0Y284D02*
X9Y284D01*
X2558Y284D02*
X2567Y284D01*
X0Y283D02*
X9Y283D01*
X2558Y283D02*
X2567Y283D01*
X0Y282D02*
X9Y282D01*
X2558Y282D02*
X2567Y282D01*
X0Y281D02*
X9Y281D01*
X2558Y281D02*
X2567Y281D01*
X0Y280D02*
X9Y280D01*
X2558Y280D02*
X2567Y280D01*
X0Y279D02*
X9Y279D01*
X2558Y279D02*
X2567Y279D01*
X0Y278D02*
X9Y278D01*
X2558Y278D02*
X2567Y278D01*
X0Y277D02*
X9Y277D01*
X2558Y277D02*
X2567Y277D01*
X0Y276D02*
X9Y276D01*
X2558Y276D02*
X2567Y276D01*
X0Y275D02*
X9Y275D01*
X2558Y275D02*
X2567Y275D01*
X0Y274D02*
X9Y274D01*
X2558Y274D02*
X2567Y274D01*
X0Y273D02*
X9Y273D01*
X2558Y273D02*
X2567Y273D01*
X0Y272D02*
X9Y272D01*
X2558Y272D02*
X2567Y272D01*
X0Y271D02*
X9Y271D01*
X2558Y271D02*
X2567Y271D01*
X0Y270D02*
X9Y270D01*
X2558Y270D02*
X2567Y270D01*
X0Y269D02*
X9Y269D01*
X2558Y269D02*
X2567Y269D01*
X0Y268D02*
X9Y268D01*
X2558Y268D02*
X2567Y268D01*
X0Y267D02*
X9Y267D01*
X2558Y267D02*
X2567Y267D01*
X0Y266D02*
X9Y266D01*
X2558Y266D02*
X2567Y266D01*
X0Y265D02*
X9Y265D01*
X2558Y265D02*
X2567Y265D01*
X0Y264D02*
X9Y264D01*
X2558Y264D02*
X2567Y264D01*
X0Y263D02*
X9Y263D01*
X2558Y263D02*
X2567Y263D01*
X0Y262D02*
X9Y262D01*
X2558Y262D02*
X2567Y262D01*
X0Y261D02*
X9Y261D01*
X2558Y261D02*
X2567Y261D01*
X0Y260D02*
X9Y260D01*
X2558Y260D02*
X2567Y260D01*
X0Y259D02*
X9Y259D01*
X2558Y259D02*
X2567Y259D01*
X0Y258D02*
X9Y258D01*
X2558Y258D02*
X2567Y258D01*
X0Y257D02*
X9Y257D01*
X2558Y257D02*
X2567Y257D01*
X0Y256D02*
X9Y256D01*
X2558Y256D02*
X2567Y256D01*
X0Y255D02*
X9Y255D01*
X2558Y255D02*
X2567Y255D01*
X0Y254D02*
X9Y254D01*
X2558Y254D02*
X2567Y254D01*
X0Y253D02*
X9Y253D01*
X2558Y253D02*
X2567Y253D01*
X0Y252D02*
X9Y252D01*
X2558Y252D02*
X2567Y252D01*
X0Y251D02*
X9Y251D01*
X2558Y251D02*
X2567Y251D01*
X0Y250D02*
X9Y250D01*
X2558Y250D02*
X2567Y250D01*
X0Y249D02*
X9Y249D01*
X2558Y249D02*
X2567Y249D01*
X0Y248D02*
X9Y248D01*
X2558Y248D02*
X2567Y248D01*
X0Y247D02*
X9Y247D01*
X2558Y247D02*
X2567Y247D01*
X0Y246D02*
X9Y246D01*
X2558Y246D02*
X2567Y246D01*
X0Y245D02*
X9Y245D01*
X2558Y245D02*
X2567Y245D01*
X0Y244D02*
X9Y244D01*
X2558Y244D02*
X2567Y244D01*
X0Y243D02*
X9Y243D01*
X2558Y243D02*
X2567Y243D01*
X0Y242D02*
X9Y242D01*
X2558Y242D02*
X2567Y242D01*
X0Y241D02*
X9Y241D01*
X2558Y241D02*
X2567Y241D01*
X0Y240D02*
X9Y240D01*
X2558Y240D02*
X2567Y240D01*
X0Y239D02*
X9Y239D01*
X2558Y239D02*
X2567Y239D01*
X0Y238D02*
X9Y238D01*
X2558Y238D02*
X2567Y238D01*
X0Y237D02*
X9Y237D01*
X2558Y237D02*
X2567Y237D01*
X0Y236D02*
X9Y236D01*
X2558Y236D02*
X2567Y236D01*
X0Y235D02*
X9Y235D01*
X2558Y235D02*
X2567Y235D01*
X0Y234D02*
X9Y234D01*
X2558Y234D02*
X2567Y234D01*
X0Y233D02*
X9Y233D01*
X2558Y233D02*
X2567Y233D01*
X0Y232D02*
X9Y232D01*
X2558Y232D02*
X2567Y232D01*
X0Y231D02*
X9Y231D01*
X2558Y231D02*
X2567Y231D01*
X0Y230D02*
X9Y230D01*
X2558Y230D02*
X2567Y230D01*
X0Y229D02*
X9Y229D01*
X2558Y229D02*
X2567Y229D01*
X0Y228D02*
X9Y228D01*
X2558Y228D02*
X2567Y228D01*
X0Y227D02*
X9Y227D01*
X2558Y227D02*
X2567Y227D01*
X0Y226D02*
X9Y226D01*
X2558Y226D02*
X2567Y226D01*
X0Y225D02*
X9Y225D01*
X2558Y225D02*
X2567Y225D01*
X0Y224D02*
X9Y224D01*
X2558Y224D02*
X2567Y224D01*
X0Y223D02*
X9Y223D01*
X2558Y223D02*
X2567Y223D01*
X0Y222D02*
X9Y222D01*
X2558Y222D02*
X2567Y222D01*
X0Y221D02*
X9Y221D01*
X2558Y221D02*
X2567Y221D01*
X0Y220D02*
X9Y220D01*
X2558Y220D02*
X2567Y220D01*
X0Y219D02*
X9Y219D01*
X2558Y219D02*
X2567Y219D01*
X0Y218D02*
X9Y218D01*
X2558Y218D02*
X2567Y218D01*
X0Y217D02*
X9Y217D01*
X2558Y217D02*
X2567Y217D01*
X0Y216D02*
X9Y216D01*
X2558Y216D02*
X2567Y216D01*
X0Y215D02*
X9Y215D01*
X2558Y215D02*
X2567Y215D01*
X0Y214D02*
X9Y214D01*
X2558Y214D02*
X2567Y214D01*
X0Y213D02*
X9Y213D01*
X2558Y213D02*
X2567Y213D01*
X0Y212D02*
X9Y212D01*
X2558Y212D02*
X2567Y212D01*
X0Y211D02*
X9Y211D01*
X2558Y211D02*
X2567Y211D01*
X0Y210D02*
X9Y210D01*
X2558Y210D02*
X2567Y210D01*
X0Y209D02*
X9Y209D01*
X2558Y209D02*
X2567Y209D01*
X0Y208D02*
X9Y208D01*
X2558Y208D02*
X2567Y208D01*
X0Y207D02*
X9Y207D01*
X2558Y207D02*
X2567Y207D01*
X0Y206D02*
X9Y206D01*
X2558Y206D02*
X2567Y206D01*
X0Y205D02*
X9Y205D01*
X2558Y205D02*
X2567Y205D01*
X0Y204D02*
X9Y204D01*
X2558Y204D02*
X2567Y204D01*
X0Y203D02*
X9Y203D01*
X2558Y203D02*
X2567Y203D01*
X0Y202D02*
X9Y202D01*
X2558Y202D02*
X2567Y202D01*
X0Y201D02*
X9Y201D01*
X2558Y201D02*
X2567Y201D01*
X0Y200D02*
X9Y200D01*
X2558Y200D02*
X2567Y200D01*
X0Y199D02*
X9Y199D01*
X2558Y199D02*
X2567Y199D01*
X0Y198D02*
X9Y198D01*
X2558Y198D02*
X2567Y198D01*
X0Y197D02*
X9Y197D01*
X2558Y197D02*
X2567Y197D01*
X0Y196D02*
X9Y196D01*
X2558Y196D02*
X2567Y196D01*
X0Y195D02*
X9Y195D01*
X2558Y195D02*
X2567Y195D01*
X0Y194D02*
X9Y194D01*
X2558Y194D02*
X2567Y194D01*
X0Y193D02*
X9Y193D01*
X2558Y193D02*
X2567Y193D01*
X0Y192D02*
X9Y192D01*
X2558Y192D02*
X2567Y192D01*
X0Y191D02*
X9Y191D01*
X2558Y191D02*
X2567Y191D01*
X0Y190D02*
X9Y190D01*
X2558Y190D02*
X2567Y190D01*
X0Y189D02*
X9Y189D01*
X2558Y189D02*
X2567Y189D01*
X0Y188D02*
X9Y188D01*
X2558Y188D02*
X2567Y188D01*
X0Y187D02*
X9Y187D01*
X2558Y187D02*
X2567Y187D01*
X0Y186D02*
X9Y186D01*
X2558Y186D02*
X2567Y186D01*
X0Y185D02*
X9Y185D01*
X2558Y185D02*
X2567Y185D01*
X0Y184D02*
X9Y184D01*
X2558Y184D02*
X2567Y184D01*
X0Y183D02*
X9Y183D01*
X2558Y183D02*
X2567Y183D01*
X0Y182D02*
X9Y182D01*
X2558Y182D02*
X2567Y182D01*
X0Y181D02*
X9Y181D01*
X2558Y181D02*
X2567Y181D01*
X0Y180D02*
X9Y180D01*
X2558Y180D02*
X2567Y180D01*
X0Y179D02*
X9Y179D01*
X2558Y179D02*
X2567Y179D01*
X0Y178D02*
X9Y178D01*
X2558Y178D02*
X2567Y178D01*
X0Y177D02*
X9Y177D01*
X2558Y177D02*
X2567Y177D01*
X0Y176D02*
X9Y176D01*
X2558Y176D02*
X2567Y176D01*
X0Y175D02*
X9Y175D01*
X2558Y175D02*
X2567Y175D01*
X0Y174D02*
X9Y174D01*
X2558Y174D02*
X2567Y174D01*
X0Y173D02*
X9Y173D01*
X2558Y173D02*
X2567Y173D01*
X0Y172D02*
X9Y172D01*
X2558Y172D02*
X2567Y172D01*
X0Y171D02*
X9Y171D01*
X2558Y171D02*
X2567Y171D01*
X0Y170D02*
X9Y170D01*
X2558Y170D02*
X2567Y170D01*
X0Y169D02*
X9Y169D01*
X2558Y169D02*
X2567Y169D01*
X0Y168D02*
X9Y168D01*
X2558Y168D02*
X2567Y168D01*
X0Y167D02*
X9Y167D01*
X2558Y167D02*
X2567Y167D01*
X0Y166D02*
X9Y166D01*
X2558Y166D02*
X2567Y166D01*
X0Y165D02*
X9Y165D01*
X2558Y165D02*
X2567Y165D01*
X0Y164D02*
X9Y164D01*
X2558Y164D02*
X2567Y164D01*
X0Y163D02*
X9Y163D01*
X2558Y163D02*
X2567Y163D01*
X0Y162D02*
X9Y162D01*
X2558Y162D02*
X2567Y162D01*
X0Y161D02*
X9Y161D01*
X2558Y161D02*
X2567Y161D01*
X0Y160D02*
X9Y160D01*
X2558Y160D02*
X2567Y160D01*
X0Y159D02*
X9Y159D01*
X2558Y159D02*
X2567Y159D01*
X0Y158D02*
X9Y158D01*
X2558Y158D02*
X2567Y158D01*
X0Y157D02*
X9Y157D01*
X2558Y157D02*
X2567Y157D01*
X0Y156D02*
X9Y156D01*
X2558Y156D02*
X2567Y156D01*
X0Y155D02*
X9Y155D01*
X2558Y155D02*
X2567Y155D01*
X0Y154D02*
X9Y154D01*
X2558Y154D02*
X2567Y154D01*
X0Y153D02*
X9Y153D01*
X2558Y153D02*
X2567Y153D01*
X0Y152D02*
X9Y152D01*
X2558Y152D02*
X2567Y152D01*
X0Y151D02*
X9Y151D01*
X2558Y151D02*
X2567Y151D01*
X0Y150D02*
X9Y150D01*
X2558Y150D02*
X2567Y150D01*
X0Y149D02*
X9Y149D01*
X2558Y149D02*
X2567Y149D01*
X0Y148D02*
X9Y148D01*
X2558Y148D02*
X2567Y148D01*
X0Y147D02*
X9Y147D01*
X2558Y147D02*
X2567Y147D01*
X0Y146D02*
X9Y146D01*
X2558Y146D02*
X2567Y146D01*
X0Y145D02*
X9Y145D01*
X2558Y145D02*
X2567Y145D01*
X0Y144D02*
X9Y144D01*
X2558Y144D02*
X2567Y144D01*
X0Y143D02*
X9Y143D01*
X2558Y143D02*
X2567Y143D01*
X1Y142D02*
X10Y142D01*
X2557Y142D02*
X2566Y142D01*
X1Y141D02*
X10Y141D01*
X2557Y141D02*
X2566Y141D01*
X1Y140D02*
X10Y140D01*
X2557Y140D02*
X2566Y140D01*
X1Y139D02*
X10Y139D01*
X2557Y139D02*
X2566Y139D01*
X1Y138D02*
X10Y138D01*
X2557Y138D02*
X2566Y138D01*
X1Y137D02*
X10Y137D01*
X2557Y137D02*
X2566Y137D01*
X1Y136D02*
X10Y136D01*
X2557Y136D02*
X2566Y136D01*
X1Y135D02*
X10Y135D01*
X2557Y135D02*
X2566Y135D01*
X2Y134D02*
X11Y134D01*
X2556Y134D02*
X2565Y134D01*
X2Y133D02*
X11Y133D01*
X2556Y133D02*
X2565Y133D01*
X2Y132D02*
X11Y132D01*
X2556Y132D02*
X2565Y132D01*
X2Y131D02*
X11Y131D01*
X2556Y131D02*
X2565Y131D01*
X2Y130D02*
X11Y130D01*
X2556Y130D02*
X2565Y130D01*
X2Y129D02*
X12Y129D01*
X2555Y129D02*
X2565Y129D01*
X3Y128D02*
X12Y128D01*
X2555Y128D02*
X2564Y128D01*
X3Y127D02*
X12Y127D01*
X2555Y127D02*
X2564Y127D01*
X3Y126D02*
X12Y126D01*
X2555Y126D02*
X2564Y126D01*
X3Y125D02*
X12Y125D01*
X2555Y125D02*
X2564Y125D01*
X3Y124D02*
X13Y124D01*
X2554Y124D02*
X2563Y124D01*
X4Y123D02*
X13Y123D01*
X2554Y123D02*
X2563Y123D01*
X4Y122D02*
X13Y122D01*
X2554Y122D02*
X2563Y122D01*
X4Y121D02*
X13Y121D01*
X2553Y121D02*
X2563Y121D01*
X5Y120D02*
X14Y120D01*
X2553Y120D02*
X2562Y120D01*
X5Y119D02*
X14Y119D01*
X2553Y119D02*
X2562Y119D01*
X5Y118D02*
X14Y118D01*
X2553Y118D02*
X2562Y118D01*
X5Y117D02*
X15Y117D01*
X2552Y117D02*
X2562Y117D01*
X6Y116D02*
X15Y116D01*
X2552Y116D02*
X2561Y116D01*
X6Y115D02*
X15Y115D01*
X2552Y115D02*
X2561Y115D01*
X6Y114D02*
X16Y114D01*
X2551Y114D02*
X2561Y114D01*
X7Y113D02*
X16Y113D01*
X2551Y113D02*
X2560Y113D01*
X7Y112D02*
X16Y112D01*
X2550Y112D02*
X2560Y112D01*
X7Y111D02*
X17Y111D01*
X2550Y111D02*
X2560Y111D01*
X8Y110D02*
X17Y110D01*
X2550Y110D02*
X2559Y110D01*
X8Y109D02*
X18Y109D01*
X2549Y109D02*
X2559Y109D01*
X8Y108D02*
X18Y108D01*
X2549Y108D02*
X2558Y108D01*
X9Y107D02*
X19Y107D01*
X2548Y107D02*
X2558Y107D01*
X9Y106D02*
X19Y106D01*
X2548Y106D02*
X2558Y106D01*
X10Y105D02*
X19Y105D01*
X2547Y105D02*
X2557Y105D01*
X10Y104D02*
X20Y104D01*
X2547Y104D02*
X2557Y104D01*
X11Y103D02*
X20Y103D01*
X2546Y103D02*
X2556Y103D01*
X11Y102D02*
X21Y102D01*
X2546Y102D02*
X2556Y102D01*
X11Y101D02*
X21Y101D01*
X2545Y101D02*
X2555Y101D01*
X12Y100D02*
X22Y100D01*
X2545Y100D02*
X2555Y100D01*
X12Y99D02*
X22Y99D01*
X2544Y99D02*
X2554Y99D01*
X13Y98D02*
X23Y98D01*
X2544Y98D02*
X2554Y98D01*
X13Y97D02*
X23Y97D01*
X2543Y97D02*
X2553Y97D01*
X14Y96D02*
X24Y96D01*
X2543Y96D02*
X2553Y96D01*
X14Y95D02*
X25Y95D01*
X2542Y95D02*
X2552Y95D01*
X15Y94D02*
X25Y94D01*
X2542Y94D02*
X2552Y94D01*
X15Y93D02*
X26Y93D01*
X2541Y93D02*
X2551Y93D01*
X16Y92D02*
X26Y92D01*
X2540Y92D02*
X2551Y92D01*
X17Y91D02*
X27Y91D01*
X2540Y91D02*
X2550Y91D01*
X17Y90D02*
X28Y90D01*
X2539Y90D02*
X2550Y90D01*
X18Y89D02*
X28Y89D01*
X2538Y89D02*
X2549Y89D01*
X18Y88D02*
X29Y88D01*
X2538Y88D02*
X2548Y88D01*
X19Y87D02*
X30Y87D01*
X2537Y87D02*
X2548Y87D01*
X20Y86D02*
X31Y86D01*
X2536Y86D02*
X2547Y86D01*
X20Y85D02*
X31Y85D01*
X2535Y85D02*
X2547Y85D01*
X21Y84D02*
X32Y84D01*
X2535Y84D02*
X2546Y84D01*
X22Y83D02*
X33Y83D01*
X2534Y83D02*
X2545Y83D01*
X22Y82D02*
X34Y82D01*
X2533Y82D02*
X2544Y82D01*
X23Y81D02*
X34Y81D01*
X2532Y81D02*
X2544Y81D01*
X24Y80D02*
X35Y80D01*
X2531Y80D02*
X2543Y80D01*
X24Y79D02*
X36Y79D01*
X2531Y79D02*
X2542Y79D01*
X25Y78D02*
X37Y78D01*
X2530Y78D02*
X2542Y78D01*
X26Y77D02*
X38Y77D01*
X2529Y77D02*
X2541Y77D01*
X27Y76D02*
X39Y76D01*
X2528Y76D02*
X2540Y76D01*
X27Y75D02*
X40Y75D01*
X2527Y75D02*
X2539Y75D01*
X28Y74D02*
X41Y74D01*
X2526Y74D02*
X2538Y74D01*
X29Y73D02*
X42Y73D01*
X2525Y73D02*
X2538Y73D01*
X30Y72D02*
X43Y72D01*
X2524Y72D02*
X2537Y72D01*
X31Y71D02*
X44Y71D01*
X2523Y71D02*
X2536Y71D01*
X32Y70D02*
X45Y70D01*
X2522Y70D02*
X2535Y70D01*
X33Y69D02*
X46Y69D01*
X2521Y69D02*
X2534Y69D01*
X34Y68D02*
X47Y68D01*
X2520Y68D02*
X2533Y68D01*
X34Y67D02*
X48Y67D01*
X2519Y67D02*
X2532Y67D01*
X35Y66D02*
X49Y66D01*
X2517Y66D02*
X2531Y66D01*
X36Y65D02*
X50Y65D01*
X2516Y65D02*
X2530Y65D01*
X37Y64D02*
X51Y64D01*
X2515Y64D02*
X2529Y64D01*
X38Y63D02*
X53Y63D01*
X2514Y63D02*
X2528Y63D01*
X40Y62D02*
X54Y62D01*
X2512Y62D02*
X2527Y62D01*
X41Y61D02*
X55Y61D01*
X2511Y61D02*
X2526Y61D01*
X42Y60D02*
X57Y60D01*
X2510Y60D02*
X2525Y60D01*
X43Y59D02*
X58Y59D01*
X2508Y59D02*
X2524Y59D01*
X44Y58D02*
X60Y58D01*
X2507Y58D02*
X2523Y58D01*
X45Y57D02*
X61Y57D01*
X2505Y57D02*
X2521Y57D01*
X47Y56D02*
X63Y56D01*
X2504Y56D02*
X2520Y56D01*
X48Y55D02*
X64Y55D01*
X2502Y55D02*
X2519Y55D01*
X49Y54D02*
X66Y54D01*
X2500Y54D02*
X2517Y54D01*
X51Y53D02*
X68Y53D01*
X2499Y53D02*
X2516Y53D01*
X52Y52D02*
X70Y52D01*
X2497Y52D02*
X2515Y52D01*
X53Y51D02*
X72Y51D01*
X2495Y51D02*
X2513Y51D01*
X55Y50D02*
X74Y50D01*
X2493Y50D02*
X2512Y50D01*
X56Y49D02*
X76Y49D01*
X2490Y49D02*
X2510Y49D01*
X58Y48D02*
X78Y48D01*
X2488Y48D02*
X2509Y48D01*
X60Y47D02*
X81Y47D01*
X2486Y47D02*
X2507Y47D01*
X61Y46D02*
X84Y46D01*
X2483Y46D02*
X2505Y46D01*
X63Y45D02*
X87Y45D01*
X2480Y45D02*
X2503Y45D01*
X65Y44D02*
X90Y44D01*
X2477Y44D02*
X2502Y44D01*
X67Y43D02*
X93Y43D01*
X2473Y43D02*
X2500Y43D01*
X69Y42D02*
X98Y42D01*
X2469Y42D02*
X2498Y42D01*
X71Y41D02*
X103Y41D01*
X2464Y41D02*
X2496Y41D01*
X73Y40D02*
X111Y40D01*
X2456Y40D02*
X2493Y40D01*
X75Y39D02*
X2491Y39D01*
X78Y38D02*
X2489Y38D01*
X81Y37D02*
X2486Y37D01*
X83Y36D02*
X2483Y36D01*
X86Y35D02*
X2480Y35D01*
X90Y34D02*
X2477Y34D01*
X94Y33D02*
X2473Y33D01*
X98Y32D02*
X2469Y32D01*
X104Y31D02*
X2463Y31D01*
X112Y30D02*
X2455Y30D01*
D02*
G04 End of Silk0*
M02*