G04 MADE WITH FRITZING*
G04 WWW.FRITZING.ORG*
G04 DOUBLE SIDED*
G04 HOLES PLATED*
G04 CONTOUR ON CENTER OF CONTOUR VECTOR*
%ASAXBY*%
%FSLAX23Y23*%
%MOIN*%
%OFA0B0*%
%SFA1.0B1.0*%
%ADD10C,0.075361*%
%ADD11C,0.039370*%
%ADD12C,0.070925*%
%ADD13C,0.070866*%
%ADD14C,0.023622*%
%ADD15C,0.073768*%
%ADD16C,0.049844*%
%ADD17C,0.085731*%
%ADD18R,0.074803X0.062992*%
%ADD19C,0.008000*%
%ADD20R,0.001000X0.001000*%
%LNCOPPER0*%
G90*
G70*
G54D10*
X334Y1030D03*
X434Y1030D03*
X534Y1030D03*
X634Y1030D03*
X734Y1030D03*
X834Y1030D03*
X934Y1030D03*
X1034Y1030D03*
X1134Y1030D03*
X1234Y1030D03*
X1334Y1030D03*
X1434Y1030D03*
X1534Y1030D03*
X1634Y1030D03*
X1734Y1030D03*
X1834Y1030D03*
X1934Y1030D03*
X2034Y1030D03*
X2134Y1030D03*
X2234Y1030D03*
X2234Y1130D03*
X2134Y1130D03*
X2034Y1130D03*
X1934Y1130D03*
X1834Y1130D03*
X1734Y1130D03*
X1634Y1130D03*
X1534Y1130D03*
X1434Y1130D03*
X1334Y1130D03*
X1234Y1130D03*
X1134Y1130D03*
X1034Y1130D03*
X934Y1130D03*
X834Y1130D03*
X734Y1130D03*
X634Y1130D03*
X534Y1130D03*
X434Y1130D03*
X334Y1130D03*
G54D11*
X753Y245D03*
X952Y369D03*
X51Y670D03*
X76Y445D03*
X1529Y688D03*
X1326Y545D03*
X1101Y745D03*
X2251Y745D03*
X1452Y445D03*
X1226Y495D03*
X1186Y247D03*
X876Y346D03*
X926Y845D03*
X877Y796D03*
X1001Y742D03*
X1326Y245D03*
X1401Y395D03*
G54D12*
X2070Y595D03*
G54D13*
X1876Y595D03*
G54D11*
X1527Y844D03*
X1326Y795D03*
X1301Y895D03*
X2227Y895D03*
G54D14*
X351Y520D03*
G54D11*
X601Y595D03*
X601Y720D03*
X1276Y695D03*
X926Y945D03*
X927Y246D03*
G54D15*
X694Y730D03*
X794Y680D03*
X694Y630D03*
X794Y580D03*
X694Y530D03*
X794Y481D03*
X694Y431D03*
X794Y381D03*
G54D16*
X251Y815D03*
X251Y717D03*
X251Y395D03*
X251Y297D03*
G54D17*
X562Y854D03*
X562Y258D03*
G54D18*
X151Y445D03*
X151Y323D03*
X151Y670D03*
X151Y792D03*
G54D19*
X183Y315D02*
X227Y303D01*
D02*
X120Y445D02*
X90Y445D01*
D02*
X65Y670D02*
X120Y670D01*
D02*
X227Y810D02*
X183Y800D01*
D02*
X1526Y545D02*
X1529Y675D01*
D02*
X1340Y545D02*
X1526Y545D01*
D02*
X1326Y258D02*
X1326Y532D01*
D02*
X1115Y745D02*
X2238Y745D01*
D02*
X1312Y245D02*
X1199Y247D01*
D02*
X2001Y446D02*
X2076Y520D01*
D02*
X1465Y445D02*
X2001Y446D01*
D02*
X1176Y595D02*
X1220Y507D01*
D02*
X1076Y595D02*
X1176Y595D01*
D02*
X1008Y730D02*
X1076Y595D01*
D02*
X877Y782D02*
X876Y359D01*
D02*
X926Y445D02*
X948Y382D01*
D02*
X926Y831D02*
X926Y445D01*
D02*
X1876Y520D02*
X1876Y574D01*
D02*
X1401Y520D02*
X1876Y520D01*
D02*
X1401Y409D02*
X1401Y520D01*
D02*
X1527Y846D02*
X1530Y858D01*
D02*
X1533Y1004D02*
X1527Y846D01*
D02*
X1441Y1155D02*
X1451Y1195D01*
D02*
X2326Y1195D02*
X2327Y795D01*
D02*
X1451Y1195D02*
X2326Y1195D01*
D02*
X2327Y795D02*
X1340Y795D01*
D02*
X1416Y1012D02*
X1311Y905D01*
D02*
X2228Y908D02*
X2233Y1004D01*
D02*
X595Y275D02*
X772Y369D01*
D02*
X365Y521D02*
X669Y530D01*
D02*
X588Y881D02*
X716Y1012D01*
D02*
X591Y712D02*
X362Y529D01*
D02*
X1276Y695D02*
X1267Y704D01*
D02*
X940Y945D02*
X1052Y946D01*
D02*
X1051Y746D02*
X1076Y695D01*
D02*
X1052Y946D02*
X1051Y746D01*
D02*
X1076Y695D02*
X1276Y695D01*
D02*
X766Y245D02*
X913Y246D01*
D02*
X2076Y520D02*
X2071Y574D01*
G54D20*
X657Y767D02*
X730Y767D01*
X657Y766D02*
X730Y766D01*
X657Y765D02*
X730Y765D01*
X657Y764D02*
X730Y764D01*
X657Y763D02*
X730Y763D01*
X657Y762D02*
X730Y762D01*
X657Y761D02*
X730Y761D01*
X657Y760D02*
X730Y760D01*
X657Y759D02*
X730Y759D01*
X657Y758D02*
X730Y758D01*
X657Y757D02*
X730Y757D01*
X657Y756D02*
X730Y756D01*
X657Y755D02*
X730Y755D01*
X657Y754D02*
X730Y754D01*
X657Y753D02*
X730Y753D01*
X657Y752D02*
X730Y752D01*
X657Y751D02*
X730Y751D01*
X657Y750D02*
X689Y750D01*
X698Y750D02*
X730Y750D01*
X657Y749D02*
X686Y749D01*
X701Y749D02*
X730Y749D01*
X657Y748D02*
X684Y748D01*
X703Y748D02*
X730Y748D01*
X657Y747D02*
X682Y747D01*
X705Y747D02*
X730Y747D01*
X657Y746D02*
X681Y746D01*
X706Y746D02*
X730Y746D01*
X657Y745D02*
X679Y745D01*
X708Y745D02*
X730Y745D01*
X657Y744D02*
X678Y744D01*
X708Y744D02*
X730Y744D01*
X657Y743D02*
X678Y743D01*
X709Y743D02*
X730Y743D01*
X657Y742D02*
X677Y742D01*
X710Y742D02*
X730Y742D01*
X657Y741D02*
X676Y741D01*
X711Y741D02*
X730Y741D01*
X657Y740D02*
X676Y740D01*
X711Y740D02*
X730Y740D01*
X657Y739D02*
X675Y739D01*
X712Y739D02*
X730Y739D01*
X657Y738D02*
X675Y738D01*
X712Y738D02*
X730Y738D01*
X657Y737D02*
X674Y737D01*
X713Y737D02*
X730Y737D01*
X657Y736D02*
X674Y736D01*
X713Y736D02*
X730Y736D01*
X657Y735D02*
X674Y735D01*
X713Y735D02*
X730Y735D01*
X657Y734D02*
X674Y734D01*
X713Y734D02*
X730Y734D01*
X657Y733D02*
X674Y733D01*
X713Y733D02*
X730Y733D01*
X657Y732D02*
X673Y732D01*
X714Y732D02*
X730Y732D01*
X657Y731D02*
X673Y731D01*
X714Y731D02*
X730Y731D01*
X657Y730D02*
X673Y730D01*
X714Y730D02*
X730Y730D01*
X657Y729D02*
X673Y729D01*
X713Y729D02*
X730Y729D01*
X657Y728D02*
X674Y728D01*
X713Y728D02*
X730Y728D01*
X657Y727D02*
X674Y727D01*
X713Y727D02*
X730Y727D01*
X657Y726D02*
X674Y726D01*
X713Y726D02*
X730Y726D01*
X657Y725D02*
X674Y725D01*
X713Y725D02*
X730Y725D01*
X657Y724D02*
X675Y724D01*
X712Y724D02*
X730Y724D01*
X657Y723D02*
X675Y723D01*
X712Y723D02*
X730Y723D01*
X657Y722D02*
X676Y722D01*
X711Y722D02*
X730Y722D01*
X657Y721D02*
X676Y721D01*
X711Y721D02*
X730Y721D01*
X657Y720D02*
X677Y720D01*
X710Y720D02*
X730Y720D01*
X657Y719D02*
X677Y719D01*
X710Y719D02*
X730Y719D01*
X657Y718D02*
X678Y718D01*
X709Y718D02*
X730Y718D01*
X657Y717D02*
X679Y717D01*
X708Y717D02*
X730Y717D01*
X657Y716D02*
X680Y716D01*
X707Y716D02*
X730Y716D01*
X657Y715D02*
X681Y715D01*
X705Y715D02*
X730Y715D01*
X657Y714D02*
X683Y714D01*
X704Y714D02*
X730Y714D01*
X657Y713D02*
X685Y713D01*
X702Y713D02*
X730Y713D01*
X657Y712D02*
X688Y712D01*
X699Y712D02*
X730Y712D01*
X657Y711D02*
X730Y711D01*
X657Y710D02*
X730Y710D01*
X657Y709D02*
X730Y709D01*
X657Y708D02*
X730Y708D01*
X657Y707D02*
X730Y707D01*
X657Y706D02*
X730Y706D01*
X657Y705D02*
X730Y705D01*
X657Y704D02*
X730Y704D01*
X657Y703D02*
X730Y703D01*
X657Y702D02*
X730Y702D01*
X657Y701D02*
X730Y701D01*
X657Y700D02*
X730Y700D01*
X657Y699D02*
X730Y699D01*
X657Y698D02*
X730Y698D01*
X657Y697D02*
X730Y697D01*
X657Y696D02*
X730Y696D01*
X657Y695D02*
X730Y695D01*
X657Y694D02*
X730Y694D01*
D02*
G04 End of Copper0*
M02*