G04 MADE WITH FRITZING*
G04 WWW.FRITZING.ORG*
G04 DOUBLE SIDED*
G04 HOLES PLATED*
G04 CONTOUR ON CENTER OF CONTOUR VECTOR*
%ASAXBY*%
%FSLAX23Y23*%
%MOIN*%
%OFA0B0*%
%SFA1.0B1.0*%
%ADD10C,0.075361*%
%ADD11C,0.039370*%
%ADD12C,0.070925*%
%ADD13C,0.070866*%
%ADD14C,0.023622*%
%ADD15C,0.073768*%
%ADD16C,0.049844*%
%ADD17C,0.085731*%
%ADD18R,0.062992X0.074803*%
%ADD19R,0.062992X0.070866*%
%ADD20R,0.055118X0.062992*%
%ADD21R,0.140000X0.080000*%
%ADD22R,0.047244X0.055118*%
%ADD23R,0.013701X0.055000*%
%ADD24C,0.008000*%
%ADD25R,0.001000X0.001000*%
%LNCOPPER1*%
G90*
G70*
G54D10*
X334Y1030D03*
X434Y1030D03*
X534Y1030D03*
X634Y1030D03*
X734Y1030D03*
X834Y1030D03*
X934Y1030D03*
X1034Y1030D03*
X1134Y1030D03*
X1234Y1030D03*
X1334Y1030D03*
X1434Y1030D03*
X1534Y1030D03*
X1634Y1030D03*
X1734Y1030D03*
X1834Y1030D03*
X1934Y1030D03*
X2034Y1030D03*
X2134Y1030D03*
X2234Y1030D03*
X2234Y1130D03*
X2134Y1130D03*
X2034Y1130D03*
X1934Y1130D03*
X1834Y1130D03*
X1734Y1130D03*
X1634Y1130D03*
X1534Y1130D03*
X1434Y1130D03*
X1334Y1130D03*
X1234Y1130D03*
X1134Y1130D03*
X1034Y1130D03*
X934Y1130D03*
X834Y1130D03*
X734Y1130D03*
X634Y1130D03*
X534Y1130D03*
X434Y1130D03*
X334Y1130D03*
G54D11*
X753Y245D03*
X952Y369D03*
X51Y670D03*
X76Y445D03*
X1529Y688D03*
X1326Y545D03*
X1101Y745D03*
X2251Y745D03*
X1452Y445D03*
X1226Y495D03*
X1186Y247D03*
X876Y346D03*
X926Y845D03*
X877Y796D03*
X1001Y742D03*
X1326Y245D03*
X1401Y395D03*
G54D12*
X2070Y595D03*
G54D13*
X1876Y595D03*
G54D11*
X1527Y844D03*
X1326Y795D03*
X1301Y895D03*
X2227Y895D03*
G54D14*
X351Y520D03*
G54D11*
X601Y595D03*
X601Y720D03*
X1276Y695D03*
X926Y945D03*
X927Y246D03*
G54D15*
X694Y730D03*
X794Y680D03*
X694Y630D03*
X794Y580D03*
X694Y530D03*
X794Y481D03*
X694Y431D03*
X794Y381D03*
G54D16*
X251Y815D03*
X251Y717D03*
X251Y395D03*
X251Y297D03*
G54D17*
X562Y854D03*
X562Y258D03*
G54D18*
X1001Y520D03*
X1124Y520D03*
X1651Y170D03*
X1774Y170D03*
X1001Y920D03*
X1124Y920D03*
X1001Y820D03*
X1124Y820D03*
G54D19*
X2126Y170D03*
X2237Y170D03*
X2051Y870D03*
X2162Y870D03*
X1851Y870D03*
X1962Y870D03*
G54D20*
X1616Y870D03*
X1726Y870D03*
G54D21*
X2376Y495D03*
X2376Y695D03*
G54D22*
X1901Y170D03*
X2020Y170D03*
G54D23*
X1557Y321D03*
X1531Y321D03*
X1505Y321D03*
X1480Y321D03*
X1454Y321D03*
X1429Y321D03*
X1403Y321D03*
X1352Y321D03*
X1377Y321D03*
X1326Y321D03*
X1301Y321D03*
X1275Y321D03*
X1249Y321D03*
X1224Y321D03*
X1557Y609D03*
X1531Y609D03*
X1505Y609D03*
X1480Y609D03*
X1454Y609D03*
X1429Y609D03*
X1403Y609D03*
X1377Y609D03*
X1352Y609D03*
X1326Y609D03*
X1301Y609D03*
X1275Y609D03*
X1249Y609D03*
X1224Y609D03*
G54D18*
X701Y170D03*
X824Y170D03*
X951Y170D03*
X1074Y170D03*
G54D19*
X576Y170D03*
X466Y170D03*
X251Y170D03*
X362Y170D03*
G54D18*
X376Y920D03*
X254Y920D03*
X826Y920D03*
X704Y920D03*
G54D24*
X63Y445D02*
X52Y446D01*
D02*
X76Y120D02*
X127Y95D01*
D02*
X52Y446D02*
X52Y169D01*
D02*
X52Y169D02*
X76Y120D01*
D02*
X127Y95D02*
X1501Y94D01*
D02*
X1527Y69D02*
X1531Y299D01*
D02*
X1501Y94D02*
X1505Y299D01*
D02*
X1530Y675D02*
X1531Y630D01*
D02*
X42Y661D02*
X27Y646D01*
D02*
X52Y95D02*
X101Y69D01*
D02*
X27Y646D02*
X27Y146D01*
D02*
X27Y146D02*
X52Y95D01*
D02*
X101Y69D02*
X1527Y69D01*
D02*
X876Y645D02*
X1089Y740D01*
D02*
X814Y596D02*
X876Y645D01*
D02*
X2264Y740D02*
X2312Y721D01*
D02*
X1301Y587D02*
X1301Y545D01*
D02*
X1301Y545D02*
X1313Y545D01*
D02*
X1527Y831D02*
X1529Y702D01*
D02*
X1301Y270D02*
X1301Y299D01*
D02*
X1317Y254D02*
X1301Y270D01*
D02*
X1001Y470D02*
X1001Y488D01*
D02*
X1177Y258D02*
X1001Y470D01*
D02*
X1377Y270D02*
X1377Y299D01*
D02*
X1338Y251D02*
X1377Y270D01*
D02*
X1401Y245D02*
X1403Y299D01*
D02*
X1339Y245D02*
X1401Y245D01*
D02*
X1454Y343D02*
X1452Y432D01*
D02*
X1426Y371D02*
X1411Y386D01*
D02*
X1428Y343D02*
X1426Y371D01*
D02*
X1126Y570D02*
X1223Y608D01*
D02*
X1125Y552D02*
X1126Y570D01*
D02*
X901Y596D02*
X1101Y696D01*
D02*
X1101Y696D02*
X1263Y695D01*
D02*
X1276Y681D02*
X1275Y630D01*
D02*
X811Y499D02*
X901Y596D01*
D02*
X1113Y1015D02*
X1053Y969D01*
D02*
X1053Y969D02*
X1027Y945D01*
D02*
X1001Y370D02*
X1176Y146D01*
D02*
X1176Y146D02*
X1276Y146D01*
D02*
X966Y370D02*
X1001Y370D01*
D02*
X1276Y146D02*
X1275Y299D01*
D02*
X705Y752D02*
X753Y845D01*
D02*
X753Y845D02*
X912Y845D01*
D02*
X1252Y195D02*
X1250Y299D01*
D02*
X853Y796D02*
X864Y796D01*
D02*
X951Y420D02*
X1001Y420D01*
D02*
X1001Y420D02*
X1076Y320D01*
D02*
X886Y355D02*
X951Y420D01*
D02*
X1076Y320D02*
X1176Y195D01*
D02*
X1176Y195D02*
X1252Y195D01*
D02*
X805Y702D02*
X853Y796D01*
D02*
X1001Y756D02*
X1001Y788D01*
D02*
X1326Y495D02*
X1240Y495D01*
D02*
X1326Y343D02*
X1326Y495D01*
D02*
X1226Y482D02*
X1224Y343D01*
D02*
X1352Y496D02*
X1352Y343D01*
D02*
X1326Y343D02*
X1326Y496D01*
D02*
X1326Y496D02*
X1352Y496D01*
D02*
X1501Y496D02*
X1351Y496D01*
D02*
X1476Y370D02*
X1501Y496D01*
D02*
X1479Y340D02*
X1476Y370D01*
D02*
X1351Y496D02*
X1352Y343D01*
D02*
X1476Y370D02*
X1479Y340D01*
D02*
X1501Y496D02*
X1476Y370D01*
D02*
X1556Y343D02*
X1552Y496D01*
D02*
X1552Y496D02*
X1501Y496D01*
D02*
X1253Y820D02*
X1326Y745D01*
D02*
X1149Y820D02*
X1253Y820D01*
D02*
X1326Y745D02*
X1326Y630D01*
D02*
X1149Y920D02*
X1201Y920D01*
D02*
X1201Y920D02*
X1317Y805D01*
D02*
X1577Y871D02*
X1539Y851D01*
D02*
X1726Y620D02*
X1558Y609D01*
D02*
X1594Y871D02*
X1577Y871D01*
D02*
X1726Y844D02*
X1726Y796D01*
D02*
X1726Y796D02*
X1726Y620D01*
D02*
X2059Y840D02*
X2076Y769D01*
D02*
X2076Y769D02*
X2070Y617D01*
D02*
X1876Y769D02*
X1876Y617D01*
D02*
X1859Y840D02*
X1876Y769D01*
D02*
X2126Y920D02*
X2140Y900D01*
D02*
X1985Y900D02*
X2001Y920D01*
D02*
X2001Y920D02*
X2126Y920D01*
D02*
X1001Y888D02*
X1001Y852D01*
D02*
X1252Y1012D02*
X1401Y869D01*
D02*
X1401Y869D02*
X1403Y630D01*
D02*
X1552Y946D02*
X2327Y944D01*
D02*
X1451Y895D02*
X1552Y946D01*
D02*
X1352Y1195D02*
X1341Y1155D01*
D02*
X1476Y645D02*
X1451Y670D01*
D02*
X1451Y670D02*
X1451Y895D01*
D02*
X1479Y623D02*
X1476Y645D01*
D02*
X2326Y1195D02*
X1352Y1195D01*
D02*
X2327Y944D02*
X2326Y1195D01*
D02*
X1426Y745D02*
X1428Y630D01*
D02*
X1353Y1013D02*
X1426Y945D01*
D02*
X1426Y945D02*
X1426Y745D01*
D02*
X1376Y820D02*
X1377Y630D01*
D02*
X1351Y769D02*
X1352Y630D01*
D02*
X1336Y785D02*
X1351Y769D01*
D02*
X1311Y886D02*
X1376Y820D01*
D02*
X2227Y320D02*
X1662Y320D01*
D02*
X1662Y320D02*
X1558Y321D01*
D02*
X2347Y461D02*
X2227Y320D01*
D02*
X1552Y220D02*
X1556Y299D01*
D02*
X1626Y183D02*
X1552Y220D01*
D02*
X1883Y170D02*
X1799Y170D01*
D02*
X2038Y170D02*
X2101Y170D01*
D02*
X2188Y880D02*
X2214Y890D01*
D02*
X2501Y895D02*
X2240Y895D01*
D02*
X2263Y197D02*
X2501Y446D01*
D02*
X2501Y446D02*
X2501Y895D01*
D02*
X959Y358D02*
X1054Y202D01*
D02*
X931Y233D02*
X941Y202D01*
D02*
X723Y202D02*
X745Y234D01*
D02*
X876Y295D02*
X837Y202D01*
D02*
X876Y332D02*
X876Y295D01*
D02*
X676Y170D02*
X602Y170D01*
D02*
X427Y120D02*
X443Y140D01*
D02*
X301Y120D02*
X427Y120D01*
D02*
X277Y144D02*
X301Y120D01*
D02*
X492Y194D02*
X535Y233D01*
D02*
X327Y371D02*
X327Y295D01*
D02*
X327Y295D02*
X270Y200D01*
D02*
X275Y388D02*
X327Y371D01*
D02*
X251Y420D02*
X251Y692D01*
D02*
X361Y200D02*
X352Y507D01*
D02*
X326Y870D02*
X280Y902D01*
D02*
X350Y534D02*
X326Y870D01*
D02*
X614Y600D02*
X670Y621D01*
D02*
X376Y595D02*
X588Y595D01*
D02*
X362Y888D02*
X353Y869D01*
D02*
X353Y869D02*
X376Y595D01*
D02*
X801Y296D02*
X651Y296D01*
D02*
X601Y395D02*
X601Y581D01*
D02*
X901Y545D02*
X901Y446D01*
D02*
X901Y446D02*
X801Y296D01*
D02*
X1250Y630D02*
X1252Y671D01*
D02*
X651Y296D02*
X601Y395D01*
D02*
X1126Y669D02*
X901Y545D01*
D02*
X1252Y671D02*
X1126Y669D01*
D02*
X688Y888D02*
X608Y732D01*
D02*
X852Y927D02*
X913Y942D01*
G54D25*
X657Y767D02*
X730Y767D01*
X657Y766D02*
X730Y766D01*
X657Y765D02*
X730Y765D01*
X657Y764D02*
X730Y764D01*
X657Y763D02*
X730Y763D01*
X657Y762D02*
X730Y762D01*
X657Y761D02*
X730Y761D01*
X657Y760D02*
X730Y760D01*
X657Y759D02*
X730Y759D01*
X657Y758D02*
X730Y758D01*
X657Y757D02*
X730Y757D01*
X657Y756D02*
X730Y756D01*
X657Y755D02*
X730Y755D01*
X657Y754D02*
X730Y754D01*
X657Y753D02*
X730Y753D01*
X657Y752D02*
X730Y752D01*
X657Y751D02*
X730Y751D01*
X657Y750D02*
X689Y750D01*
X698Y750D02*
X730Y750D01*
X657Y749D02*
X686Y749D01*
X701Y749D02*
X730Y749D01*
X657Y748D02*
X684Y748D01*
X703Y748D02*
X730Y748D01*
X657Y747D02*
X682Y747D01*
X705Y747D02*
X730Y747D01*
X657Y746D02*
X681Y746D01*
X706Y746D02*
X730Y746D01*
X657Y745D02*
X679Y745D01*
X708Y745D02*
X730Y745D01*
X657Y744D02*
X678Y744D01*
X708Y744D02*
X730Y744D01*
X657Y743D02*
X678Y743D01*
X709Y743D02*
X730Y743D01*
X657Y742D02*
X677Y742D01*
X710Y742D02*
X730Y742D01*
X657Y741D02*
X676Y741D01*
X711Y741D02*
X730Y741D01*
X657Y740D02*
X676Y740D01*
X711Y740D02*
X730Y740D01*
X657Y739D02*
X675Y739D01*
X712Y739D02*
X730Y739D01*
X657Y738D02*
X675Y738D01*
X712Y738D02*
X730Y738D01*
X657Y737D02*
X674Y737D01*
X713Y737D02*
X730Y737D01*
X657Y736D02*
X674Y736D01*
X713Y736D02*
X730Y736D01*
X657Y735D02*
X674Y735D01*
X713Y735D02*
X730Y735D01*
X657Y734D02*
X674Y734D01*
X713Y734D02*
X730Y734D01*
X657Y733D02*
X674Y733D01*
X713Y733D02*
X730Y733D01*
X657Y732D02*
X673Y732D01*
X714Y732D02*
X730Y732D01*
X657Y731D02*
X673Y731D01*
X714Y731D02*
X730Y731D01*
X657Y730D02*
X673Y730D01*
X714Y730D02*
X730Y730D01*
X657Y729D02*
X673Y729D01*
X713Y729D02*
X730Y729D01*
X657Y728D02*
X674Y728D01*
X713Y728D02*
X730Y728D01*
X657Y727D02*
X674Y727D01*
X713Y727D02*
X730Y727D01*
X657Y726D02*
X674Y726D01*
X713Y726D02*
X730Y726D01*
X657Y725D02*
X674Y725D01*
X713Y725D02*
X730Y725D01*
X657Y724D02*
X675Y724D01*
X712Y724D02*
X730Y724D01*
X657Y723D02*
X675Y723D01*
X712Y723D02*
X730Y723D01*
X657Y722D02*
X676Y722D01*
X711Y722D02*
X730Y722D01*
X657Y721D02*
X676Y721D01*
X711Y721D02*
X730Y721D01*
X657Y720D02*
X677Y720D01*
X710Y720D02*
X730Y720D01*
X657Y719D02*
X677Y719D01*
X710Y719D02*
X730Y719D01*
X657Y718D02*
X678Y718D01*
X709Y718D02*
X730Y718D01*
X657Y717D02*
X679Y717D01*
X708Y717D02*
X730Y717D01*
X657Y716D02*
X680Y716D01*
X707Y716D02*
X730Y716D01*
X657Y715D02*
X681Y715D01*
X705Y715D02*
X730Y715D01*
X657Y714D02*
X683Y714D01*
X704Y714D02*
X730Y714D01*
X657Y713D02*
X685Y713D01*
X702Y713D02*
X730Y713D01*
X657Y712D02*
X688Y712D01*
X699Y712D02*
X730Y712D01*
X657Y711D02*
X730Y711D01*
X657Y710D02*
X730Y710D01*
X657Y709D02*
X730Y709D01*
X657Y708D02*
X730Y708D01*
X657Y707D02*
X730Y707D01*
X657Y706D02*
X730Y706D01*
X657Y705D02*
X730Y705D01*
X657Y704D02*
X730Y704D01*
X657Y703D02*
X730Y703D01*
X657Y702D02*
X730Y702D01*
X657Y701D02*
X730Y701D01*
X657Y700D02*
X730Y700D01*
X657Y699D02*
X730Y699D01*
X657Y698D02*
X730Y698D01*
X657Y697D02*
X730Y697D01*
X657Y696D02*
X730Y696D01*
X657Y695D02*
X730Y695D01*
X657Y694D02*
X730Y694D01*
D02*
G04 End of Copper1*
M02*