G04 MADE WITH FRITZING*
G04 WWW.FRITZING.ORG*
G04 DOUBLE SIDED*
G04 HOLES PLATED*
G04 CONTOUR ON CENTER OF CONTOUR VECTOR*
%ASAXBY*%
%FSLAX23Y23*%
%MOIN*%
%OFA0B0*%
%SFA1.0B1.0*%
%ADD10C,0.093307*%
%ADD11C,0.084000*%
%ADD12C,0.116614*%
%ADD13C,0.053307*%
%ADD14C,0.084472*%
%ADD15C,0.085000*%
%ADD16R,0.093307X0.093307*%
%ADD17R,0.084108X0.084472*%
%LNMASK0*%
G90*
G70*
G54D10*
X158Y108D03*
X158Y304D03*
X158Y501D03*
G54D11*
X1035Y440D03*
X1035Y347D03*
X1035Y258D03*
X1035Y165D03*
G54D12*
X1130Y74D03*
X1130Y531D03*
G54D13*
X1134Y391D03*
X1134Y214D03*
G54D11*
X1035Y440D03*
X1035Y347D03*
X1035Y258D03*
X1035Y165D03*
G54D12*
X1130Y74D03*
X1130Y531D03*
G54D13*
X1134Y391D03*
X1134Y214D03*
G54D11*
X1035Y440D03*
X1035Y347D03*
X1035Y258D03*
X1035Y165D03*
G54D12*
X1130Y74D03*
X1130Y531D03*
G54D13*
X1134Y391D03*
X1134Y214D03*
G54D14*
X523Y459D03*
X423Y459D03*
X523Y359D03*
X423Y359D03*
X523Y258D03*
X423Y258D03*
X523Y158D03*
X423Y158D03*
G54D15*
X795Y106D03*
X795Y506D03*
G54D16*
X158Y108D03*
G54D17*
X523Y459D03*
X523Y158D03*
G04 End of Mask0*
M02*