; NON-PLATED HOLES START AT T1
; THROUGH (PLATED) HOLES START AT T100
M48
INCH
T1C0.043307
T100C0.036000
T101C0.086614
T102C0.040255
T103C0.035000
T104C0.043307
%
T1
X011337Y003912
X011337Y002140
T100
X010353Y002582
X010353Y003470
X010353Y001648
X010353Y004404
T101
X011298Y005310
X011298Y000743
T102
X004232Y002581
X005232Y002581
X004232Y001575
X005232Y001575
X004232Y004594
X005232Y004594
X004232Y003587
X005232Y003587
T103
X007954Y005058
X007954Y001058
T104
X001575Y003044
X001575Y005012
X001575Y001075
T00
M30
