G04 MADE WITH FRITZING*
G04 WWW.FRITZING.ORG*
G04 DOUBLE SIDED*
G04 HOLES PLATED*
G04 CONTOUR ON CENTER OF CONTOUR VECTOR*
%ASAXBY*%
%FSLAX23Y23*%
%MOIN*%
%OFA0B0*%
%SFA1.0B1.0*%
%ADD10R,1.252870X0.606642X1.236870X0.590642*%
%ADD11C,0.008000*%
%ADD12R,0.001000X0.001000*%
%LNSILK0*%
G90*
G70*
G54D11*
X4Y603D02*
X1249Y603D01*
X1249Y4D01*
X4Y4D01*
X4Y603D01*
D02*
X1248Y539D02*
X1248Y66D01*
D02*
X1248Y539D02*
X1209Y539D01*
D02*
X1248Y66D02*
X1209Y66D01*
D02*
X1090Y145D02*
X1090Y460D01*
G54D12*
X398Y575D02*
X398Y575D01*
X415Y575D02*
X444Y575D01*
X372Y574D02*
X375Y574D01*
X396Y574D02*
X399Y574D01*
X415Y574D02*
X444Y574D01*
X371Y573D02*
X376Y573D01*
X395Y573D02*
X400Y573D01*
X415Y573D02*
X444Y573D01*
X371Y572D02*
X377Y572D01*
X395Y572D02*
X400Y572D01*
X415Y572D02*
X444Y572D01*
X371Y571D02*
X377Y571D01*
X394Y571D02*
X400Y571D01*
X415Y571D02*
X444Y571D01*
X372Y570D02*
X378Y570D01*
X393Y570D02*
X400Y570D01*
X415Y570D02*
X444Y570D01*
X372Y569D02*
X378Y569D01*
X393Y569D02*
X399Y569D01*
X415Y569D02*
X444Y569D01*
X519Y569D02*
X532Y569D01*
X551Y569D02*
X552Y569D01*
X571Y569D02*
X578Y569D01*
X595Y569D02*
X606Y569D01*
X373Y568D02*
X379Y568D01*
X392Y568D02*
X398Y568D01*
X415Y568D02*
X420Y568D01*
X427Y568D02*
X432Y568D01*
X439Y568D02*
X444Y568D01*
X517Y568D02*
X534Y568D01*
X550Y568D02*
X553Y568D01*
X571Y568D02*
X578Y568D01*
X593Y568D02*
X608Y568D01*
X374Y567D02*
X380Y567D01*
X392Y567D02*
X398Y567D01*
X415Y567D02*
X420Y567D01*
X427Y567D02*
X432Y567D01*
X439Y567D02*
X444Y567D01*
X515Y567D02*
X534Y567D01*
X549Y567D02*
X554Y567D01*
X570Y567D02*
X578Y567D01*
X593Y567D02*
X610Y567D01*
X374Y566D02*
X380Y566D01*
X391Y566D02*
X397Y566D01*
X415Y566D02*
X420Y566D01*
X427Y566D02*
X432Y566D01*
X439Y566D02*
X444Y566D01*
X514Y566D02*
X534Y566D01*
X549Y566D02*
X554Y566D01*
X570Y566D02*
X578Y566D01*
X593Y566D02*
X611Y566D01*
X375Y565D02*
X381Y565D01*
X390Y565D02*
X397Y565D01*
X416Y565D02*
X419Y565D01*
X427Y565D02*
X432Y565D01*
X440Y565D02*
X443Y565D01*
X514Y565D02*
X534Y565D01*
X549Y565D02*
X554Y565D01*
X569Y565D02*
X578Y565D01*
X593Y565D02*
X612Y565D01*
X375Y564D02*
X381Y564D01*
X390Y564D02*
X396Y564D01*
X417Y564D02*
X418Y564D01*
X427Y564D02*
X432Y564D01*
X441Y564D02*
X442Y564D01*
X513Y564D02*
X533Y564D01*
X549Y564D02*
X554Y564D01*
X569Y564D02*
X578Y564D01*
X594Y564D02*
X612Y564D01*
X376Y563D02*
X382Y563D01*
X389Y563D02*
X395Y563D01*
X427Y563D02*
X432Y563D01*
X512Y563D02*
X519Y563D01*
X523Y563D02*
X529Y563D01*
X549Y563D02*
X554Y563D01*
X568Y563D02*
X578Y563D01*
X605Y563D02*
X613Y563D01*
X376Y562D02*
X383Y562D01*
X389Y562D02*
X395Y562D01*
X427Y562D02*
X432Y562D01*
X512Y562D02*
X518Y562D01*
X523Y562D02*
X528Y562D01*
X549Y562D02*
X554Y562D01*
X568Y562D02*
X578Y562D01*
X607Y562D02*
X614Y562D01*
X377Y561D02*
X383Y561D01*
X388Y561D02*
X394Y561D01*
X427Y561D02*
X432Y561D01*
X511Y561D02*
X517Y561D01*
X523Y561D02*
X528Y561D01*
X549Y561D02*
X554Y561D01*
X567Y561D02*
X578Y561D01*
X608Y561D02*
X615Y561D01*
X378Y560D02*
X384Y560D01*
X388Y560D02*
X394Y560D01*
X427Y560D02*
X432Y560D01*
X511Y560D02*
X517Y560D01*
X523Y560D02*
X528Y560D01*
X549Y560D02*
X554Y560D01*
X567Y560D02*
X578Y560D01*
X609Y560D02*
X616Y560D01*
X378Y559D02*
X384Y559D01*
X387Y559D02*
X393Y559D01*
X427Y559D02*
X432Y559D01*
X510Y559D02*
X516Y559D01*
X523Y559D02*
X528Y559D01*
X549Y559D02*
X554Y559D01*
X567Y559D02*
X578Y559D01*
X610Y559D02*
X616Y559D01*
X379Y558D02*
X393Y558D01*
X427Y558D02*
X432Y558D01*
X510Y558D02*
X516Y558D01*
X523Y558D02*
X528Y558D01*
X549Y558D02*
X554Y558D01*
X566Y558D02*
X578Y558D01*
X610Y558D02*
X617Y558D01*
X379Y557D02*
X392Y557D01*
X427Y557D02*
X432Y557D01*
X509Y557D02*
X515Y557D01*
X523Y557D02*
X528Y557D01*
X549Y557D02*
X554Y557D01*
X566Y557D02*
X571Y557D01*
X573Y557D02*
X578Y557D01*
X611Y557D02*
X618Y557D01*
X380Y556D02*
X391Y556D01*
X427Y556D02*
X432Y556D01*
X509Y556D02*
X515Y556D01*
X523Y556D02*
X528Y556D01*
X549Y556D02*
X554Y556D01*
X565Y556D02*
X571Y556D01*
X573Y556D02*
X578Y556D01*
X612Y556D02*
X619Y556D01*
X381Y555D02*
X391Y555D01*
X427Y555D02*
X432Y555D01*
X508Y555D02*
X514Y555D01*
X523Y555D02*
X528Y555D01*
X549Y555D02*
X554Y555D01*
X565Y555D02*
X571Y555D01*
X573Y555D02*
X578Y555D01*
X613Y555D02*
X619Y555D01*
X381Y554D02*
X390Y554D01*
X427Y554D02*
X432Y554D01*
X508Y554D02*
X514Y554D01*
X523Y554D02*
X528Y554D01*
X549Y554D02*
X554Y554D01*
X564Y554D02*
X570Y554D01*
X573Y554D02*
X578Y554D01*
X613Y554D02*
X620Y554D01*
X382Y553D02*
X390Y553D01*
X427Y553D02*
X432Y553D01*
X507Y553D02*
X513Y553D01*
X523Y553D02*
X528Y553D01*
X549Y553D02*
X554Y553D01*
X564Y553D02*
X570Y553D01*
X573Y553D02*
X578Y553D01*
X614Y553D02*
X621Y553D01*
X382Y552D02*
X389Y552D01*
X427Y552D02*
X432Y552D01*
X507Y552D02*
X513Y552D01*
X523Y552D02*
X528Y552D01*
X549Y552D02*
X554Y552D01*
X564Y552D02*
X569Y552D01*
X573Y552D02*
X578Y552D01*
X615Y552D02*
X621Y552D01*
X382Y551D02*
X389Y551D01*
X427Y551D02*
X432Y551D01*
X506Y551D02*
X512Y551D01*
X523Y551D02*
X528Y551D01*
X549Y551D02*
X554Y551D01*
X563Y551D02*
X569Y551D01*
X573Y551D02*
X578Y551D01*
X616Y551D02*
X621Y551D01*
X382Y550D02*
X390Y550D01*
X427Y550D02*
X432Y550D01*
X506Y550D02*
X512Y550D01*
X523Y550D02*
X528Y550D01*
X549Y550D02*
X554Y550D01*
X563Y550D02*
X568Y550D01*
X573Y550D02*
X578Y550D01*
X616Y550D02*
X622Y550D01*
X381Y549D02*
X390Y549D01*
X427Y549D02*
X432Y549D01*
X506Y549D02*
X511Y549D01*
X523Y549D02*
X528Y549D01*
X549Y549D02*
X554Y549D01*
X562Y549D02*
X568Y549D01*
X573Y549D02*
X578Y549D01*
X617Y549D02*
X622Y549D01*
X381Y548D02*
X391Y548D01*
X427Y548D02*
X432Y548D01*
X506Y548D02*
X511Y548D01*
X523Y548D02*
X528Y548D01*
X549Y548D02*
X554Y548D01*
X562Y548D02*
X567Y548D01*
X573Y548D02*
X578Y548D01*
X617Y548D02*
X622Y548D01*
X380Y547D02*
X391Y547D01*
X427Y547D02*
X432Y547D01*
X505Y547D02*
X511Y547D01*
X523Y547D02*
X528Y547D01*
X549Y547D02*
X554Y547D01*
X561Y547D02*
X567Y547D01*
X573Y547D02*
X578Y547D01*
X617Y547D02*
X622Y547D01*
X379Y546D02*
X392Y546D01*
X427Y546D02*
X432Y546D01*
X505Y546D02*
X510Y546D01*
X523Y546D02*
X528Y546D01*
X549Y546D02*
X554Y546D01*
X561Y546D02*
X567Y546D01*
X573Y546D02*
X578Y546D01*
X617Y546D02*
X622Y546D01*
X379Y545D02*
X392Y545D01*
X427Y545D02*
X432Y545D01*
X505Y545D02*
X510Y545D01*
X523Y545D02*
X528Y545D01*
X549Y545D02*
X554Y545D01*
X560Y545D02*
X566Y545D01*
X573Y545D02*
X578Y545D01*
X617Y545D02*
X622Y545D01*
X378Y544D02*
X384Y544D01*
X387Y544D02*
X393Y544D01*
X427Y544D02*
X432Y544D01*
X505Y544D02*
X511Y544D01*
X523Y544D02*
X528Y544D01*
X549Y544D02*
X554Y544D01*
X560Y544D02*
X566Y544D01*
X573Y544D02*
X578Y544D01*
X617Y544D02*
X622Y544D01*
X378Y543D02*
X384Y543D01*
X388Y543D02*
X394Y543D01*
X427Y543D02*
X432Y543D01*
X506Y543D02*
X511Y543D01*
X523Y543D02*
X528Y543D01*
X549Y543D02*
X554Y543D01*
X560Y543D02*
X565Y543D01*
X573Y543D02*
X578Y543D01*
X593Y543D02*
X606Y543D01*
X617Y543D02*
X622Y543D01*
X377Y542D02*
X383Y542D01*
X388Y542D02*
X394Y542D01*
X427Y542D02*
X432Y542D01*
X506Y542D02*
X511Y542D01*
X523Y542D02*
X528Y542D01*
X549Y542D02*
X554Y542D01*
X559Y542D02*
X565Y542D01*
X573Y542D02*
X578Y542D01*
X593Y542D02*
X606Y542D01*
X617Y542D02*
X622Y542D01*
X376Y541D02*
X383Y541D01*
X389Y541D02*
X395Y541D01*
X427Y541D02*
X432Y541D01*
X506Y541D02*
X512Y541D01*
X523Y541D02*
X528Y541D01*
X549Y541D02*
X554Y541D01*
X559Y541D02*
X564Y541D01*
X573Y541D02*
X578Y541D01*
X593Y541D02*
X607Y541D01*
X617Y541D02*
X622Y541D01*
X376Y540D02*
X382Y540D01*
X389Y540D02*
X395Y540D01*
X427Y540D02*
X432Y540D01*
X507Y540D02*
X512Y540D01*
X523Y540D02*
X528Y540D01*
X549Y540D02*
X554Y540D01*
X558Y540D02*
X564Y540D01*
X573Y540D02*
X578Y540D01*
X593Y540D02*
X607Y540D01*
X617Y540D02*
X622Y540D01*
X375Y539D02*
X381Y539D01*
X390Y539D02*
X396Y539D01*
X427Y539D02*
X432Y539D01*
X507Y539D02*
X513Y539D01*
X523Y539D02*
X528Y539D01*
X549Y539D02*
X554Y539D01*
X558Y539D02*
X564Y539D01*
X573Y539D02*
X578Y539D01*
X593Y539D02*
X606Y539D01*
X617Y539D02*
X622Y539D01*
X375Y538D02*
X381Y538D01*
X390Y538D02*
X397Y538D01*
X427Y538D02*
X432Y538D01*
X507Y538D02*
X513Y538D01*
X523Y538D02*
X528Y538D01*
X549Y538D02*
X554Y538D01*
X557Y538D02*
X563Y538D01*
X573Y538D02*
X578Y538D01*
X593Y538D02*
X606Y538D01*
X617Y538D02*
X622Y538D01*
X374Y537D02*
X380Y537D01*
X391Y537D02*
X397Y537D01*
X427Y537D02*
X432Y537D01*
X508Y537D02*
X514Y537D01*
X523Y537D02*
X528Y537D01*
X549Y537D02*
X554Y537D01*
X557Y537D02*
X563Y537D01*
X573Y537D02*
X578Y537D01*
X593Y537D02*
X598Y537D01*
X617Y537D02*
X622Y537D01*
X374Y536D02*
X380Y536D01*
X392Y536D02*
X398Y536D01*
X427Y536D02*
X432Y536D01*
X508Y536D02*
X514Y536D01*
X523Y536D02*
X528Y536D01*
X549Y536D02*
X554Y536D01*
X557Y536D02*
X562Y536D01*
X573Y536D02*
X578Y536D01*
X593Y536D02*
X598Y536D01*
X617Y536D02*
X622Y536D01*
X373Y535D02*
X379Y535D01*
X392Y535D02*
X398Y535D01*
X427Y535D02*
X432Y535D01*
X509Y535D02*
X515Y535D01*
X523Y535D02*
X528Y535D01*
X549Y535D02*
X554Y535D01*
X556Y535D02*
X562Y535D01*
X573Y535D02*
X578Y535D01*
X593Y535D02*
X598Y535D01*
X617Y535D02*
X622Y535D01*
X372Y534D02*
X378Y534D01*
X393Y534D02*
X399Y534D01*
X427Y534D02*
X432Y534D01*
X509Y534D02*
X515Y534D01*
X523Y534D02*
X528Y534D01*
X549Y534D02*
X554Y534D01*
X556Y534D02*
X561Y534D01*
X573Y534D02*
X578Y534D01*
X593Y534D02*
X598Y534D01*
X617Y534D02*
X622Y534D01*
X985Y534D02*
X985Y534D01*
X1009Y534D02*
X1009Y534D01*
X1029Y534D02*
X1049Y534D01*
X372Y533D02*
X378Y533D01*
X393Y533D02*
X400Y533D01*
X427Y533D02*
X432Y533D01*
X510Y533D02*
X516Y533D01*
X523Y533D02*
X528Y533D01*
X549Y533D02*
X561Y533D01*
X573Y533D02*
X578Y533D01*
X593Y533D02*
X598Y533D01*
X617Y533D02*
X622Y533D01*
X983Y533D02*
X987Y533D01*
X1007Y533D02*
X1011Y533D01*
X1027Y533D02*
X1049Y533D01*
X371Y532D02*
X377Y532D01*
X394Y532D02*
X400Y532D01*
X427Y532D02*
X432Y532D01*
X510Y532D02*
X516Y532D01*
X523Y532D02*
X528Y532D01*
X549Y532D02*
X560Y532D01*
X573Y532D02*
X578Y532D01*
X593Y532D02*
X598Y532D01*
X617Y532D02*
X622Y532D01*
X983Y532D02*
X988Y532D01*
X1007Y532D02*
X1012Y532D01*
X1027Y532D02*
X1049Y532D01*
X371Y531D02*
X377Y531D01*
X395Y531D02*
X400Y531D01*
X427Y531D02*
X432Y531D01*
X511Y531D02*
X517Y531D01*
X523Y531D02*
X528Y531D01*
X549Y531D02*
X560Y531D01*
X573Y531D02*
X578Y531D01*
X593Y531D02*
X598Y531D01*
X617Y531D02*
X622Y531D01*
X983Y531D02*
X988Y531D01*
X1007Y531D02*
X1012Y531D01*
X1026Y531D02*
X1049Y531D01*
X371Y530D02*
X376Y530D01*
X395Y530D02*
X400Y530D01*
X427Y530D02*
X432Y530D01*
X511Y530D02*
X517Y530D01*
X523Y530D02*
X528Y530D01*
X549Y530D02*
X560Y530D01*
X573Y530D02*
X578Y530D01*
X593Y530D02*
X598Y530D01*
X616Y530D02*
X622Y530D01*
X983Y530D02*
X988Y530D01*
X1007Y530D02*
X1012Y530D01*
X1027Y530D02*
X1049Y530D01*
X372Y529D02*
X375Y529D01*
X396Y529D02*
X399Y529D01*
X428Y529D02*
X431Y529D01*
X512Y529D02*
X518Y529D01*
X523Y529D02*
X528Y529D01*
X549Y529D02*
X559Y529D01*
X573Y529D02*
X578Y529D01*
X593Y529D02*
X599Y529D01*
X616Y529D02*
X622Y529D01*
X983Y529D02*
X988Y529D01*
X1007Y529D02*
X1012Y529D01*
X1027Y529D02*
X1049Y529D01*
X374Y528D02*
X374Y528D01*
X398Y528D02*
X398Y528D01*
X429Y528D02*
X429Y528D01*
X512Y528D02*
X532Y528D01*
X549Y528D02*
X559Y528D01*
X573Y528D02*
X578Y528D01*
X593Y528D02*
X621Y528D01*
X983Y528D02*
X988Y528D01*
X1007Y528D02*
X1012Y528D01*
X1044Y528D02*
X1049Y528D01*
X513Y527D02*
X534Y527D01*
X549Y527D02*
X558Y527D01*
X573Y527D02*
X578Y527D01*
X594Y527D02*
X621Y527D01*
X983Y527D02*
X988Y527D01*
X1007Y527D02*
X1012Y527D01*
X1044Y527D02*
X1049Y527D01*
X514Y526D02*
X534Y526D01*
X549Y526D02*
X558Y526D01*
X573Y526D02*
X578Y526D01*
X594Y526D02*
X620Y526D01*
X983Y526D02*
X988Y526D01*
X1007Y526D02*
X1012Y526D01*
X1044Y526D02*
X1049Y526D01*
X514Y525D02*
X534Y525D01*
X549Y525D02*
X557Y525D01*
X573Y525D02*
X578Y525D01*
X595Y525D02*
X619Y525D01*
X983Y525D02*
X988Y525D01*
X1007Y525D02*
X1012Y525D01*
X1044Y525D02*
X1049Y525D01*
X515Y524D02*
X534Y524D01*
X549Y524D02*
X557Y524D01*
X573Y524D02*
X578Y524D01*
X596Y524D02*
X618Y524D01*
X983Y524D02*
X988Y524D01*
X1007Y524D02*
X1012Y524D01*
X1044Y524D02*
X1049Y524D01*
X517Y523D02*
X533Y523D01*
X549Y523D02*
X557Y523D01*
X574Y523D02*
X577Y523D01*
X598Y523D02*
X617Y523D01*
X983Y523D02*
X988Y523D01*
X1007Y523D02*
X1012Y523D01*
X1044Y523D02*
X1049Y523D01*
X983Y522D02*
X988Y522D01*
X1007Y522D02*
X1012Y522D01*
X1044Y522D02*
X1049Y522D01*
X230Y521D02*
X245Y521D01*
X274Y521D02*
X289Y521D01*
X306Y521D02*
X308Y521D01*
X330Y521D02*
X332Y521D01*
X983Y521D02*
X988Y521D01*
X1006Y521D02*
X1012Y521D01*
X1044Y521D02*
X1049Y521D01*
X228Y520D02*
X246Y520D01*
X272Y520D02*
X289Y520D01*
X305Y520D02*
X309Y520D01*
X329Y520D02*
X333Y520D01*
X983Y520D02*
X988Y520D01*
X1006Y520D02*
X1012Y520D01*
X1044Y520D02*
X1049Y520D01*
X227Y519D02*
X246Y519D01*
X271Y519D02*
X290Y519D01*
X305Y519D02*
X310Y519D01*
X329Y519D02*
X334Y519D01*
X983Y519D02*
X989Y519D01*
X1006Y519D02*
X1011Y519D01*
X1044Y519D02*
X1049Y519D01*
X226Y518D02*
X246Y518D01*
X270Y518D02*
X290Y518D01*
X305Y518D02*
X310Y518D01*
X329Y518D02*
X334Y518D01*
X983Y518D02*
X989Y518D01*
X1005Y518D02*
X1011Y518D01*
X1044Y518D02*
X1049Y518D01*
X225Y517D02*
X246Y517D01*
X269Y517D02*
X290Y517D01*
X305Y517D02*
X310Y517D01*
X329Y517D02*
X334Y517D01*
X984Y517D02*
X989Y517D01*
X1005Y517D02*
X1010Y517D01*
X1044Y517D02*
X1049Y517D01*
X225Y516D02*
X245Y516D01*
X268Y516D02*
X289Y516D01*
X305Y516D02*
X310Y516D01*
X329Y516D02*
X334Y516D01*
X984Y516D02*
X990Y516D01*
X1004Y516D02*
X1010Y516D01*
X1044Y516D02*
X1049Y516D01*
X224Y515D02*
X230Y515D01*
X235Y515D02*
X240Y515D01*
X268Y515D02*
X274Y515D01*
X279Y515D02*
X284Y515D01*
X305Y515D02*
X310Y515D01*
X329Y515D02*
X334Y515D01*
X985Y515D02*
X990Y515D01*
X1004Y515D02*
X1010Y515D01*
X1044Y515D02*
X1049Y515D01*
X224Y514D02*
X230Y514D01*
X235Y514D02*
X240Y514D01*
X267Y514D02*
X273Y514D01*
X279Y514D02*
X284Y514D01*
X305Y514D02*
X310Y514D01*
X329Y514D02*
X334Y514D01*
X985Y514D02*
X991Y514D01*
X1004Y514D02*
X1009Y514D01*
X1044Y514D02*
X1049Y514D01*
X223Y513D02*
X229Y513D01*
X235Y513D02*
X240Y513D01*
X267Y513D02*
X273Y513D01*
X279Y513D02*
X284Y513D01*
X305Y513D02*
X310Y513D01*
X329Y513D02*
X334Y513D01*
X985Y513D02*
X991Y513D01*
X1003Y513D02*
X1009Y513D01*
X1030Y513D02*
X1049Y513D01*
X223Y512D02*
X228Y512D01*
X235Y512D02*
X240Y512D01*
X266Y512D02*
X272Y512D01*
X279Y512D02*
X284Y512D01*
X305Y512D02*
X310Y512D01*
X329Y512D02*
X334Y512D01*
X986Y512D02*
X991Y512D01*
X1003Y512D02*
X1009Y512D01*
X1029Y512D02*
X1049Y512D01*
X222Y511D02*
X228Y511D01*
X235Y511D02*
X240Y511D01*
X266Y511D02*
X272Y511D01*
X279Y511D02*
X284Y511D01*
X305Y511D02*
X310Y511D01*
X329Y511D02*
X334Y511D01*
X986Y511D02*
X992Y511D01*
X1003Y511D02*
X1008Y511D01*
X1028Y511D02*
X1049Y511D01*
X222Y510D02*
X227Y510D01*
X235Y510D02*
X240Y510D01*
X265Y510D02*
X271Y510D01*
X279Y510D02*
X284Y510D01*
X305Y510D02*
X310Y510D01*
X329Y510D02*
X334Y510D01*
X987Y510D02*
X992Y510D01*
X1002Y510D02*
X1008Y510D01*
X1027Y510D02*
X1049Y510D01*
X221Y509D02*
X227Y509D01*
X235Y509D02*
X240Y509D01*
X265Y509D02*
X271Y509D01*
X279Y509D02*
X284Y509D01*
X305Y509D02*
X310Y509D01*
X329Y509D02*
X334Y509D01*
X987Y509D02*
X993Y509D01*
X1002Y509D02*
X1007Y509D01*
X1027Y509D02*
X1049Y509D01*
X221Y508D02*
X226Y508D01*
X235Y508D02*
X240Y508D01*
X264Y508D02*
X270Y508D01*
X279Y508D02*
X284Y508D01*
X305Y508D02*
X310Y508D01*
X328Y508D02*
X334Y508D01*
X987Y508D02*
X993Y508D01*
X1001Y508D02*
X1007Y508D01*
X1026Y508D02*
X1049Y508D01*
X220Y507D02*
X226Y507D01*
X235Y507D02*
X240Y507D01*
X264Y507D02*
X270Y507D01*
X279Y507D02*
X284Y507D01*
X305Y507D02*
X310Y507D01*
X328Y507D02*
X334Y507D01*
X988Y507D02*
X993Y507D01*
X1001Y507D02*
X1007Y507D01*
X1026Y507D02*
X1031Y507D01*
X220Y506D02*
X225Y506D01*
X235Y506D02*
X240Y506D01*
X263Y506D02*
X269Y506D01*
X279Y506D02*
X284Y506D01*
X305Y506D02*
X311Y506D01*
X328Y506D02*
X333Y506D01*
X988Y506D02*
X994Y506D01*
X1001Y506D02*
X1006Y506D01*
X1026Y506D02*
X1031Y506D01*
X219Y505D02*
X225Y505D01*
X235Y505D02*
X240Y505D01*
X263Y505D02*
X269Y505D01*
X279Y505D02*
X284Y505D01*
X306Y505D02*
X311Y505D01*
X327Y505D02*
X333Y505D01*
X989Y505D02*
X994Y505D01*
X1000Y505D02*
X1006Y505D01*
X1026Y505D02*
X1031Y505D01*
X219Y504D02*
X224Y504D01*
X235Y504D02*
X240Y504D01*
X262Y504D02*
X268Y504D01*
X279Y504D02*
X284Y504D01*
X306Y504D02*
X312Y504D01*
X327Y504D02*
X332Y504D01*
X989Y504D02*
X994Y504D01*
X1000Y504D02*
X1005Y504D01*
X1026Y504D02*
X1031Y504D01*
X218Y503D02*
X224Y503D01*
X235Y503D02*
X240Y503D01*
X262Y503D02*
X268Y503D01*
X279Y503D02*
X284Y503D01*
X306Y503D02*
X312Y503D01*
X326Y503D02*
X332Y503D01*
X989Y503D02*
X995Y503D01*
X999Y503D02*
X1005Y503D01*
X1026Y503D02*
X1031Y503D01*
X218Y502D02*
X223Y502D01*
X235Y502D02*
X240Y502D01*
X262Y502D02*
X267Y502D01*
X279Y502D02*
X284Y502D01*
X307Y502D02*
X312Y502D01*
X326Y502D02*
X332Y502D01*
X990Y502D02*
X995Y502D01*
X999Y502D02*
X1005Y502D01*
X1026Y502D02*
X1031Y502D01*
X217Y501D02*
X223Y501D01*
X235Y501D02*
X240Y501D01*
X261Y501D02*
X267Y501D01*
X279Y501D02*
X284Y501D01*
X307Y501D02*
X313Y501D01*
X326Y501D02*
X331Y501D01*
X990Y501D02*
X996Y501D01*
X999Y501D02*
X1004Y501D01*
X1026Y501D02*
X1031Y501D01*
X217Y500D02*
X223Y500D01*
X235Y500D02*
X240Y500D01*
X261Y500D02*
X266Y500D01*
X279Y500D02*
X284Y500D01*
X308Y500D02*
X313Y500D01*
X325Y500D02*
X331Y500D01*
X990Y500D02*
X996Y500D01*
X998Y500D02*
X1004Y500D01*
X1026Y500D02*
X1031Y500D01*
X217Y499D02*
X222Y499D01*
X235Y499D02*
X240Y499D01*
X261Y499D02*
X266Y499D01*
X279Y499D02*
X284Y499D01*
X308Y499D02*
X314Y499D01*
X325Y499D02*
X330Y499D01*
X991Y499D02*
X1003Y499D01*
X1026Y499D02*
X1031Y499D01*
X217Y498D02*
X222Y498D01*
X235Y498D02*
X240Y498D01*
X261Y498D02*
X266Y498D01*
X279Y498D02*
X284Y498D01*
X308Y498D02*
X314Y498D01*
X324Y498D02*
X330Y498D01*
X991Y498D02*
X1003Y498D01*
X1026Y498D02*
X1031Y498D01*
X217Y497D02*
X222Y497D01*
X235Y497D02*
X240Y497D01*
X261Y497D02*
X266Y497D01*
X279Y497D02*
X284Y497D01*
X309Y497D02*
X314Y497D01*
X324Y497D02*
X330Y497D01*
X992Y497D02*
X1003Y497D01*
X1026Y497D02*
X1031Y497D01*
X217Y496D02*
X222Y496D01*
X235Y496D02*
X240Y496D01*
X261Y496D02*
X266Y496D01*
X279Y496D02*
X284Y496D01*
X309Y496D02*
X315Y496D01*
X324Y496D02*
X329Y496D01*
X992Y496D02*
X1002Y496D01*
X1026Y496D02*
X1031Y496D01*
X217Y495D02*
X223Y495D01*
X235Y495D02*
X240Y495D01*
X261Y495D02*
X267Y495D01*
X279Y495D02*
X284Y495D01*
X309Y495D02*
X315Y495D01*
X323Y495D02*
X329Y495D01*
X992Y495D02*
X1002Y495D01*
X1026Y495D02*
X1031Y495D01*
X1051Y495D02*
X1054Y495D01*
X218Y494D02*
X223Y494D01*
X235Y494D02*
X240Y494D01*
X261Y494D02*
X267Y494D01*
X279Y494D02*
X284Y494D01*
X310Y494D02*
X315Y494D01*
X323Y494D02*
X328Y494D01*
X993Y494D02*
X1002Y494D01*
X1026Y494D02*
X1031Y494D01*
X1049Y494D02*
X1055Y494D01*
X218Y493D02*
X224Y493D01*
X235Y493D02*
X240Y493D01*
X262Y493D02*
X267Y493D01*
X279Y493D02*
X284Y493D01*
X310Y493D02*
X316Y493D01*
X322Y493D02*
X328Y493D01*
X993Y493D02*
X1001Y493D01*
X1026Y493D02*
X1055Y493D01*
X218Y492D02*
X224Y492D01*
X235Y492D02*
X240Y492D01*
X262Y492D02*
X268Y492D01*
X279Y492D02*
X284Y492D01*
X311Y492D02*
X316Y492D01*
X322Y492D02*
X328Y492D01*
X994Y492D02*
X1001Y492D01*
X1026Y492D02*
X1055Y492D01*
X219Y491D02*
X225Y491D01*
X235Y491D02*
X240Y491D01*
X263Y491D02*
X269Y491D01*
X279Y491D02*
X284Y491D01*
X311Y491D02*
X317Y491D01*
X322Y491D02*
X327Y491D01*
X994Y491D02*
X1000Y491D01*
X1027Y491D02*
X1055Y491D01*
X219Y490D02*
X225Y490D01*
X235Y490D02*
X240Y490D01*
X263Y490D02*
X269Y490D01*
X279Y490D02*
X284Y490D01*
X311Y490D02*
X317Y490D01*
X321Y490D02*
X327Y490D01*
X994Y490D02*
X1000Y490D01*
X1027Y490D02*
X1054Y490D01*
X220Y489D02*
X226Y489D01*
X235Y489D02*
X240Y489D01*
X264Y489D02*
X270Y489D01*
X279Y489D02*
X284Y489D01*
X312Y489D02*
X317Y489D01*
X321Y489D02*
X327Y489D01*
X995Y489D02*
X1000Y489D01*
X1028Y489D02*
X1052Y489D01*
X220Y488D02*
X226Y488D01*
X235Y488D02*
X240Y488D01*
X264Y488D02*
X270Y488D01*
X279Y488D02*
X284Y488D01*
X312Y488D02*
X318Y488D01*
X320Y488D02*
X326Y488D01*
X995Y488D02*
X999Y488D01*
X1029Y488D02*
X1050Y488D01*
X221Y487D02*
X227Y487D01*
X235Y487D02*
X240Y487D01*
X265Y487D02*
X271Y487D01*
X279Y487D02*
X284Y487D01*
X313Y487D02*
X318Y487D01*
X320Y487D02*
X326Y487D01*
X997Y487D02*
X997Y487D01*
X1032Y487D02*
X1046Y487D01*
X221Y486D02*
X227Y486D01*
X235Y486D02*
X240Y486D01*
X265Y486D02*
X271Y486D01*
X279Y486D02*
X284Y486D01*
X313Y486D02*
X325Y486D01*
X222Y485D02*
X228Y485D01*
X235Y485D02*
X240Y485D01*
X266Y485D02*
X272Y485D01*
X279Y485D02*
X284Y485D01*
X313Y485D02*
X325Y485D01*
X222Y484D02*
X228Y484D01*
X235Y484D02*
X240Y484D01*
X266Y484D02*
X272Y484D01*
X279Y484D02*
X284Y484D01*
X314Y484D02*
X325Y484D01*
X223Y483D02*
X229Y483D01*
X235Y483D02*
X240Y483D01*
X267Y483D02*
X273Y483D01*
X279Y483D02*
X284Y483D01*
X314Y483D02*
X324Y483D01*
X223Y482D02*
X229Y482D01*
X235Y482D02*
X240Y482D01*
X267Y482D02*
X273Y482D01*
X279Y482D02*
X284Y482D01*
X315Y482D02*
X324Y482D01*
X224Y481D02*
X230Y481D01*
X235Y481D02*
X240Y481D01*
X268Y481D02*
X274Y481D01*
X279Y481D02*
X284Y481D01*
X315Y481D02*
X323Y481D01*
X224Y480D02*
X245Y480D01*
X268Y480D02*
X288Y480D01*
X315Y480D02*
X323Y480D01*
X225Y479D02*
X246Y479D01*
X269Y479D02*
X289Y479D01*
X316Y479D02*
X323Y479D01*
X226Y478D02*
X246Y478D01*
X269Y478D02*
X290Y478D01*
X316Y478D02*
X322Y478D01*
X226Y477D02*
X246Y477D01*
X270Y477D02*
X290Y477D01*
X317Y477D02*
X322Y477D01*
X228Y476D02*
X246Y476D01*
X271Y476D02*
X290Y476D01*
X317Y476D02*
X321Y476D01*
X230Y475D02*
X245Y475D01*
X273Y475D02*
X289Y475D01*
X318Y475D02*
X321Y475D01*
X217Y327D02*
X220Y327D01*
X248Y327D02*
X277Y327D01*
X305Y327D02*
X307Y327D01*
X348Y327D02*
X363Y327D01*
X216Y326D02*
X221Y326D01*
X248Y326D02*
X277Y326D01*
X304Y326D02*
X308Y326D01*
X346Y326D02*
X364Y326D01*
X216Y325D02*
X221Y325D01*
X248Y325D02*
X277Y325D01*
X303Y325D02*
X309Y325D01*
X345Y325D02*
X364Y325D01*
X216Y324D02*
X221Y324D01*
X248Y324D02*
X277Y324D01*
X303Y324D02*
X309Y324D01*
X344Y324D02*
X364Y324D01*
X215Y323D02*
X222Y323D01*
X248Y323D02*
X277Y323D01*
X303Y323D02*
X309Y323D01*
X343Y323D02*
X364Y323D01*
X215Y322D02*
X222Y322D01*
X248Y322D02*
X277Y322D01*
X303Y322D02*
X309Y322D01*
X343Y322D02*
X363Y322D01*
X215Y321D02*
X222Y321D01*
X248Y321D02*
X253Y321D01*
X260Y321D02*
X265Y321D01*
X272Y321D02*
X277Y321D01*
X302Y321D02*
X310Y321D01*
X342Y321D02*
X348Y321D01*
X353Y321D02*
X358Y321D01*
X214Y320D02*
X222Y320D01*
X248Y320D02*
X253Y320D01*
X260Y320D02*
X265Y320D01*
X272Y320D02*
X277Y320D01*
X302Y320D02*
X310Y320D01*
X342Y320D02*
X347Y320D01*
X353Y320D02*
X358Y320D01*
X214Y319D02*
X223Y319D01*
X248Y319D02*
X253Y319D01*
X260Y319D02*
X265Y319D01*
X272Y319D02*
X277Y319D01*
X302Y319D02*
X310Y319D01*
X341Y319D02*
X347Y319D01*
X353Y319D02*
X358Y319D01*
X214Y318D02*
X223Y318D01*
X248Y318D02*
X252Y318D01*
X260Y318D02*
X265Y318D01*
X272Y318D02*
X276Y318D01*
X301Y318D02*
X311Y318D01*
X341Y318D02*
X346Y318D01*
X353Y318D02*
X358Y318D01*
X214Y317D02*
X223Y317D01*
X249Y317D02*
X251Y317D01*
X260Y317D02*
X265Y317D01*
X273Y317D02*
X275Y317D01*
X301Y317D02*
X311Y317D01*
X340Y317D02*
X346Y317D01*
X353Y317D02*
X358Y317D01*
X213Y316D02*
X224Y316D01*
X260Y316D02*
X265Y316D01*
X301Y316D02*
X311Y316D01*
X340Y316D02*
X345Y316D01*
X353Y316D02*
X358Y316D01*
X213Y315D02*
X224Y315D01*
X260Y315D02*
X265Y315D01*
X300Y315D02*
X311Y315D01*
X339Y315D02*
X345Y315D01*
X353Y315D02*
X358Y315D01*
X213Y314D02*
X224Y314D01*
X260Y314D02*
X265Y314D01*
X300Y314D02*
X312Y314D01*
X339Y314D02*
X344Y314D01*
X353Y314D02*
X358Y314D01*
X212Y313D02*
X225Y313D01*
X260Y313D02*
X265Y313D01*
X300Y313D02*
X312Y313D01*
X338Y313D02*
X344Y313D01*
X353Y313D02*
X358Y313D01*
X212Y312D02*
X217Y312D01*
X219Y312D02*
X225Y312D01*
X260Y312D02*
X265Y312D01*
X300Y312D02*
X305Y312D01*
X307Y312D02*
X312Y312D01*
X338Y312D02*
X343Y312D01*
X353Y312D02*
X358Y312D01*
X212Y311D02*
X217Y311D01*
X220Y311D02*
X225Y311D01*
X260Y311D02*
X265Y311D01*
X299Y311D02*
X305Y311D01*
X307Y311D02*
X313Y311D01*
X337Y311D02*
X343Y311D01*
X353Y311D02*
X358Y311D01*
X212Y310D02*
X217Y310D01*
X220Y310D02*
X225Y310D01*
X260Y310D02*
X265Y310D01*
X299Y310D02*
X304Y310D01*
X308Y310D02*
X313Y310D01*
X337Y310D02*
X342Y310D01*
X353Y310D02*
X358Y310D01*
X211Y309D02*
X217Y309D01*
X220Y309D02*
X226Y309D01*
X260Y309D02*
X265Y309D01*
X299Y309D02*
X304Y309D01*
X308Y309D02*
X313Y309D01*
X336Y309D02*
X342Y309D01*
X353Y309D02*
X358Y309D01*
X211Y308D02*
X216Y308D01*
X221Y308D02*
X226Y308D01*
X260Y308D02*
X265Y308D01*
X298Y308D02*
X304Y308D01*
X308Y308D02*
X314Y308D01*
X336Y308D02*
X341Y308D01*
X353Y308D02*
X358Y308D01*
X211Y307D02*
X216Y307D01*
X221Y307D02*
X226Y307D01*
X260Y307D02*
X265Y307D01*
X298Y307D02*
X304Y307D01*
X308Y307D02*
X314Y307D01*
X336Y307D02*
X341Y307D01*
X353Y307D02*
X358Y307D01*
X210Y306D02*
X216Y306D01*
X221Y306D02*
X227Y306D01*
X260Y306D02*
X265Y306D01*
X298Y306D02*
X303Y306D01*
X309Y306D02*
X314Y306D01*
X335Y306D02*
X341Y306D01*
X353Y306D02*
X358Y306D01*
X210Y305D02*
X215Y305D01*
X222Y305D02*
X227Y305D01*
X260Y305D02*
X265Y305D01*
X298Y305D02*
X303Y305D01*
X309Y305D02*
X314Y305D01*
X335Y305D02*
X340Y305D01*
X353Y305D02*
X358Y305D01*
X210Y304D02*
X215Y304D01*
X222Y304D02*
X227Y304D01*
X260Y304D02*
X265Y304D01*
X297Y304D02*
X303Y304D01*
X309Y304D02*
X315Y304D01*
X335Y304D02*
X340Y304D01*
X353Y304D02*
X358Y304D01*
X209Y303D02*
X215Y303D01*
X222Y303D02*
X227Y303D01*
X260Y303D02*
X265Y303D01*
X297Y303D02*
X302Y303D01*
X310Y303D02*
X315Y303D01*
X335Y303D02*
X340Y303D01*
X353Y303D02*
X358Y303D01*
X209Y302D02*
X215Y302D01*
X222Y302D02*
X228Y302D01*
X260Y302D02*
X265Y302D01*
X297Y302D02*
X302Y302D01*
X310Y302D02*
X315Y302D01*
X335Y302D02*
X341Y302D01*
X353Y302D02*
X358Y302D01*
X209Y301D02*
X214Y301D01*
X223Y301D02*
X228Y301D01*
X260Y301D02*
X265Y301D01*
X296Y301D02*
X302Y301D01*
X310Y301D02*
X316Y301D01*
X336Y301D02*
X341Y301D01*
X353Y301D02*
X358Y301D01*
X209Y300D02*
X214Y300D01*
X223Y300D02*
X228Y300D01*
X260Y300D02*
X265Y300D01*
X296Y300D02*
X301Y300D01*
X310Y300D02*
X316Y300D01*
X336Y300D02*
X341Y300D01*
X353Y300D02*
X358Y300D01*
X208Y299D02*
X214Y299D01*
X223Y299D02*
X229Y299D01*
X260Y299D02*
X265Y299D01*
X296Y299D02*
X301Y299D01*
X311Y299D02*
X316Y299D01*
X336Y299D02*
X342Y299D01*
X353Y299D02*
X358Y299D01*
X208Y298D02*
X213Y298D01*
X224Y298D02*
X229Y298D01*
X260Y298D02*
X265Y298D01*
X296Y298D02*
X301Y298D01*
X311Y298D02*
X316Y298D01*
X337Y298D02*
X342Y298D01*
X353Y298D02*
X358Y298D01*
X208Y297D02*
X213Y297D01*
X224Y297D02*
X229Y297D01*
X260Y297D02*
X265Y297D01*
X295Y297D02*
X301Y297D01*
X311Y297D02*
X317Y297D01*
X337Y297D02*
X343Y297D01*
X353Y297D02*
X358Y297D01*
X207Y296D02*
X230Y296D01*
X260Y296D02*
X265Y296D01*
X295Y296D02*
X317Y296D01*
X338Y296D02*
X343Y296D01*
X353Y296D02*
X358Y296D01*
X207Y295D02*
X230Y295D01*
X260Y295D02*
X265Y295D01*
X295Y295D02*
X317Y295D01*
X338Y295D02*
X344Y295D01*
X353Y295D02*
X358Y295D01*
X207Y294D02*
X230Y294D01*
X260Y294D02*
X265Y294D01*
X294Y294D02*
X318Y294D01*
X339Y294D02*
X344Y294D01*
X353Y294D02*
X358Y294D01*
X207Y293D02*
X230Y293D01*
X260Y293D02*
X265Y293D01*
X294Y293D02*
X318Y293D01*
X339Y293D02*
X345Y293D01*
X353Y293D02*
X358Y293D01*
X206Y292D02*
X231Y292D01*
X260Y292D02*
X265Y292D01*
X294Y292D02*
X318Y292D01*
X340Y292D02*
X345Y292D01*
X353Y292D02*
X358Y292D01*
X206Y291D02*
X231Y291D01*
X260Y291D02*
X265Y291D01*
X293Y291D02*
X319Y291D01*
X340Y291D02*
X346Y291D01*
X353Y291D02*
X358Y291D01*
X206Y290D02*
X211Y290D01*
X226Y290D02*
X231Y290D01*
X260Y290D02*
X265Y290D01*
X293Y290D02*
X299Y290D01*
X313Y290D02*
X319Y290D01*
X341Y290D02*
X346Y290D01*
X353Y290D02*
X358Y290D01*
X205Y289D02*
X211Y289D01*
X226Y289D02*
X232Y289D01*
X260Y289D02*
X265Y289D01*
X293Y289D02*
X298Y289D01*
X314Y289D02*
X319Y289D01*
X341Y289D02*
X347Y289D01*
X353Y289D02*
X358Y289D01*
X205Y288D02*
X210Y288D01*
X226Y288D02*
X232Y288D01*
X260Y288D02*
X265Y288D01*
X293Y288D02*
X298Y288D01*
X314Y288D02*
X319Y288D01*
X341Y288D02*
X348Y288D01*
X353Y288D02*
X358Y288D01*
X573Y288D02*
X594Y288D01*
X625Y288D02*
X629Y288D01*
X658Y288D02*
X684Y288D01*
X707Y288D02*
X729Y288D01*
X745Y288D02*
X758Y288D01*
X205Y287D02*
X210Y287D01*
X227Y287D02*
X232Y287D01*
X260Y287D02*
X265Y287D01*
X292Y287D02*
X298Y287D01*
X314Y287D02*
X320Y287D01*
X342Y287D02*
X348Y287D01*
X353Y287D02*
X358Y287D01*
X571Y287D02*
X596Y287D01*
X623Y287D02*
X631Y287D01*
X657Y287D02*
X685Y287D01*
X704Y287D02*
X729Y287D01*
X744Y287D02*
X760Y287D01*
X205Y286D02*
X210Y286D01*
X227Y286D02*
X232Y286D01*
X260Y286D02*
X265Y286D01*
X292Y286D02*
X297Y286D01*
X315Y286D02*
X320Y286D01*
X342Y286D02*
X363Y286D01*
X570Y286D02*
X597Y286D01*
X622Y286D02*
X632Y286D01*
X656Y286D02*
X685Y286D01*
X703Y286D02*
X729Y286D01*
X744Y286D02*
X761Y286D01*
X204Y285D02*
X210Y285D01*
X227Y285D02*
X233Y285D01*
X260Y285D02*
X265Y285D01*
X292Y285D02*
X297Y285D01*
X315Y285D02*
X320Y285D01*
X343Y285D02*
X364Y285D01*
X570Y285D02*
X597Y285D01*
X621Y285D02*
X633Y285D01*
X656Y285D02*
X685Y285D01*
X702Y285D02*
X729Y285D01*
X744Y285D02*
X762Y285D01*
X204Y284D02*
X209Y284D01*
X228Y284D02*
X233Y284D01*
X260Y284D02*
X265Y284D01*
X291Y284D02*
X297Y284D01*
X315Y284D02*
X321Y284D01*
X344Y284D02*
X364Y284D01*
X569Y284D02*
X598Y284D01*
X621Y284D02*
X634Y284D01*
X657Y284D02*
X685Y284D01*
X701Y284D02*
X729Y284D01*
X744Y284D02*
X763Y284D01*
X204Y283D02*
X209Y283D01*
X228Y283D02*
X233Y283D01*
X260Y283D02*
X265Y283D01*
X291Y283D02*
X296Y283D01*
X315Y283D02*
X321Y283D01*
X345Y283D02*
X364Y283D01*
X569Y283D02*
X598Y283D01*
X620Y283D02*
X634Y283D01*
X658Y283D02*
X684Y283D01*
X701Y283D02*
X729Y283D01*
X745Y283D02*
X764Y283D01*
X204Y282D02*
X209Y282D01*
X228Y282D02*
X233Y282D01*
X260Y282D02*
X264Y282D01*
X292Y282D02*
X296Y282D01*
X316Y282D02*
X320Y282D01*
X346Y282D02*
X364Y282D01*
X569Y282D02*
X574Y282D01*
X593Y282D02*
X598Y282D01*
X620Y282D02*
X626Y282D01*
X629Y282D02*
X635Y282D01*
X668Y282D02*
X674Y282D01*
X701Y282D02*
X707Y282D01*
X724Y282D02*
X729Y282D01*
X757Y282D02*
X765Y282D01*
X205Y281D02*
X208Y281D01*
X229Y281D02*
X232Y281D01*
X261Y281D02*
X263Y281D01*
X293Y281D02*
X295Y281D01*
X317Y281D02*
X319Y281D01*
X348Y281D02*
X363Y281D01*
X569Y281D02*
X574Y281D01*
X593Y281D02*
X598Y281D01*
X619Y281D02*
X625Y281D01*
X629Y281D02*
X635Y281D01*
X668Y281D02*
X674Y281D01*
X700Y281D02*
X706Y281D01*
X724Y281D02*
X729Y281D01*
X758Y281D02*
X765Y281D01*
X569Y280D02*
X574Y280D01*
X593Y280D02*
X598Y280D01*
X619Y280D02*
X624Y280D01*
X630Y280D02*
X636Y280D01*
X668Y280D02*
X674Y280D01*
X700Y280D02*
X705Y280D01*
X724Y280D02*
X729Y280D01*
X759Y280D02*
X766Y280D01*
X569Y279D02*
X574Y279D01*
X593Y279D02*
X598Y279D01*
X618Y279D02*
X624Y279D01*
X630Y279D02*
X636Y279D01*
X668Y279D02*
X674Y279D01*
X700Y279D02*
X705Y279D01*
X724Y279D02*
X729Y279D01*
X760Y279D02*
X767Y279D01*
X569Y278D02*
X574Y278D01*
X593Y278D02*
X598Y278D01*
X618Y278D02*
X623Y278D01*
X631Y278D02*
X637Y278D01*
X668Y278D02*
X674Y278D01*
X700Y278D02*
X705Y278D01*
X724Y278D02*
X729Y278D01*
X761Y278D02*
X768Y278D01*
X569Y277D02*
X574Y277D01*
X593Y277D02*
X598Y277D01*
X617Y277D02*
X623Y277D01*
X631Y277D02*
X637Y277D01*
X668Y277D02*
X674Y277D01*
X700Y277D02*
X705Y277D01*
X724Y277D02*
X729Y277D01*
X762Y277D02*
X768Y277D01*
X569Y276D02*
X574Y276D01*
X593Y276D02*
X598Y276D01*
X617Y276D02*
X622Y276D01*
X632Y276D02*
X638Y276D01*
X668Y276D02*
X674Y276D01*
X700Y276D02*
X705Y276D01*
X724Y276D02*
X729Y276D01*
X762Y276D02*
X769Y276D01*
X569Y275D02*
X574Y275D01*
X593Y275D02*
X598Y275D01*
X616Y275D02*
X622Y275D01*
X632Y275D02*
X638Y275D01*
X668Y275D02*
X674Y275D01*
X700Y275D02*
X705Y275D01*
X724Y275D02*
X729Y275D01*
X763Y275D02*
X770Y275D01*
X569Y274D02*
X574Y274D01*
X593Y274D02*
X598Y274D01*
X616Y274D02*
X621Y274D01*
X633Y274D02*
X639Y274D01*
X668Y274D02*
X674Y274D01*
X700Y274D02*
X705Y274D01*
X724Y274D02*
X729Y274D01*
X764Y274D02*
X771Y274D01*
X569Y273D02*
X574Y273D01*
X593Y273D02*
X598Y273D01*
X615Y273D02*
X621Y273D01*
X633Y273D02*
X639Y273D01*
X668Y273D02*
X674Y273D01*
X700Y273D02*
X705Y273D01*
X724Y273D02*
X729Y273D01*
X765Y273D02*
X771Y273D01*
X569Y272D02*
X574Y272D01*
X593Y272D02*
X598Y272D01*
X615Y272D02*
X620Y272D01*
X634Y272D02*
X640Y272D01*
X668Y272D02*
X674Y272D01*
X700Y272D02*
X705Y272D01*
X724Y272D02*
X729Y272D01*
X766Y272D02*
X772Y272D01*
X569Y271D02*
X574Y271D01*
X593Y271D02*
X598Y271D01*
X614Y271D02*
X620Y271D01*
X634Y271D02*
X640Y271D01*
X668Y271D02*
X674Y271D01*
X700Y271D02*
X705Y271D01*
X724Y271D02*
X729Y271D01*
X766Y271D02*
X772Y271D01*
X569Y270D02*
X574Y270D01*
X593Y270D02*
X598Y270D01*
X614Y270D02*
X619Y270D01*
X635Y270D02*
X641Y270D01*
X668Y270D02*
X674Y270D01*
X700Y270D02*
X705Y270D01*
X724Y270D02*
X729Y270D01*
X767Y270D02*
X773Y270D01*
X569Y269D02*
X574Y269D01*
X593Y269D02*
X598Y269D01*
X613Y269D02*
X619Y269D01*
X636Y269D02*
X641Y269D01*
X668Y269D02*
X674Y269D01*
X700Y269D02*
X705Y269D01*
X724Y269D02*
X729Y269D01*
X767Y269D02*
X773Y269D01*
X569Y268D02*
X574Y268D01*
X593Y268D02*
X598Y268D01*
X613Y268D02*
X618Y268D01*
X636Y268D02*
X641Y268D01*
X668Y268D02*
X674Y268D01*
X700Y268D02*
X705Y268D01*
X724Y268D02*
X729Y268D01*
X768Y268D02*
X773Y268D01*
X569Y267D02*
X574Y267D01*
X593Y267D02*
X598Y267D01*
X613Y267D02*
X618Y267D01*
X636Y267D02*
X641Y267D01*
X668Y267D02*
X674Y267D01*
X700Y267D02*
X706Y267D01*
X724Y267D02*
X729Y267D01*
X768Y267D02*
X773Y267D01*
X569Y266D02*
X574Y266D01*
X593Y266D02*
X598Y266D01*
X613Y266D02*
X618Y266D01*
X637Y266D02*
X642Y266D01*
X668Y266D02*
X674Y266D01*
X700Y266D02*
X707Y266D01*
X724Y266D02*
X729Y266D01*
X768Y266D02*
X773Y266D01*
X569Y265D02*
X574Y265D01*
X593Y265D02*
X598Y265D01*
X613Y265D02*
X618Y265D01*
X637Y265D02*
X642Y265D01*
X668Y265D02*
X674Y265D01*
X701Y265D02*
X729Y265D01*
X768Y265D02*
X773Y265D01*
X569Y264D02*
X574Y264D01*
X593Y264D02*
X598Y264D01*
X613Y264D02*
X618Y264D01*
X637Y264D02*
X642Y264D01*
X668Y264D02*
X674Y264D01*
X701Y264D02*
X729Y264D01*
X768Y264D02*
X773Y264D01*
X569Y263D02*
X574Y263D01*
X593Y263D02*
X598Y263D01*
X613Y263D02*
X618Y263D01*
X636Y263D02*
X642Y263D01*
X668Y263D02*
X674Y263D01*
X702Y263D02*
X729Y263D01*
X768Y263D02*
X773Y263D01*
X569Y262D02*
X574Y262D01*
X593Y262D02*
X598Y262D01*
X613Y262D02*
X618Y262D01*
X636Y262D02*
X641Y262D01*
X668Y262D02*
X674Y262D01*
X703Y262D02*
X729Y262D01*
X744Y262D02*
X757Y262D01*
X768Y262D02*
X773Y262D01*
X569Y261D02*
X574Y261D01*
X593Y261D02*
X598Y261D01*
X613Y261D02*
X619Y261D01*
X636Y261D02*
X641Y261D01*
X668Y261D02*
X674Y261D01*
X704Y261D02*
X729Y261D01*
X744Y261D02*
X758Y261D01*
X768Y261D02*
X773Y261D01*
X569Y260D02*
X574Y260D01*
X593Y260D02*
X598Y260D01*
X614Y260D02*
X619Y260D01*
X635Y260D02*
X641Y260D01*
X668Y260D02*
X674Y260D01*
X706Y260D02*
X729Y260D01*
X744Y260D02*
X758Y260D01*
X768Y260D02*
X773Y260D01*
X569Y259D02*
X574Y259D01*
X593Y259D02*
X598Y259D01*
X614Y259D02*
X620Y259D01*
X635Y259D02*
X640Y259D01*
X668Y259D02*
X674Y259D01*
X724Y259D02*
X729Y259D01*
X744Y259D02*
X758Y259D01*
X768Y259D02*
X773Y259D01*
X569Y258D02*
X574Y258D01*
X593Y258D02*
X598Y258D01*
X614Y258D02*
X620Y258D01*
X634Y258D02*
X640Y258D01*
X668Y258D02*
X674Y258D01*
X724Y258D02*
X729Y258D01*
X744Y258D02*
X757Y258D01*
X768Y258D02*
X773Y258D01*
X569Y257D02*
X574Y257D01*
X593Y257D02*
X598Y257D01*
X615Y257D02*
X621Y257D01*
X634Y257D02*
X639Y257D01*
X668Y257D02*
X674Y257D01*
X724Y257D02*
X729Y257D01*
X744Y257D02*
X756Y257D01*
X768Y257D02*
X773Y257D01*
X569Y256D02*
X574Y256D01*
X593Y256D02*
X598Y256D01*
X615Y256D02*
X621Y256D01*
X633Y256D02*
X639Y256D01*
X668Y256D02*
X674Y256D01*
X724Y256D02*
X729Y256D01*
X744Y256D02*
X749Y256D01*
X768Y256D02*
X773Y256D01*
X569Y255D02*
X574Y255D01*
X593Y255D02*
X598Y255D01*
X616Y255D02*
X622Y255D01*
X633Y255D02*
X638Y255D01*
X668Y255D02*
X674Y255D01*
X724Y255D02*
X729Y255D01*
X744Y255D02*
X749Y255D01*
X768Y255D02*
X773Y255D01*
X569Y254D02*
X574Y254D01*
X593Y254D02*
X598Y254D01*
X616Y254D02*
X622Y254D01*
X632Y254D02*
X638Y254D01*
X668Y254D02*
X674Y254D01*
X724Y254D02*
X729Y254D01*
X744Y254D02*
X749Y254D01*
X768Y254D02*
X773Y254D01*
X569Y253D02*
X574Y253D01*
X593Y253D02*
X598Y253D01*
X617Y253D02*
X623Y253D01*
X632Y253D02*
X637Y253D01*
X668Y253D02*
X674Y253D01*
X724Y253D02*
X729Y253D01*
X744Y253D02*
X749Y253D01*
X768Y253D02*
X773Y253D01*
X569Y252D02*
X574Y252D01*
X593Y252D02*
X598Y252D01*
X617Y252D02*
X623Y252D01*
X631Y252D02*
X637Y252D01*
X668Y252D02*
X674Y252D01*
X724Y252D02*
X729Y252D01*
X744Y252D02*
X749Y252D01*
X768Y252D02*
X773Y252D01*
X569Y251D02*
X574Y251D01*
X593Y251D02*
X598Y251D01*
X618Y251D02*
X624Y251D01*
X631Y251D02*
X636Y251D01*
X668Y251D02*
X674Y251D01*
X724Y251D02*
X729Y251D01*
X744Y251D02*
X749Y251D01*
X768Y251D02*
X773Y251D01*
X569Y250D02*
X574Y250D01*
X593Y250D02*
X598Y250D01*
X618Y250D02*
X624Y250D01*
X630Y250D02*
X636Y250D01*
X668Y250D02*
X674Y250D01*
X724Y250D02*
X729Y250D01*
X744Y250D02*
X749Y250D01*
X768Y250D02*
X773Y250D01*
X569Y249D02*
X574Y249D01*
X593Y249D02*
X598Y249D01*
X619Y249D02*
X625Y249D01*
X630Y249D02*
X635Y249D01*
X668Y249D02*
X674Y249D01*
X724Y249D02*
X729Y249D01*
X744Y249D02*
X749Y249D01*
X767Y249D02*
X773Y249D01*
X569Y248D02*
X574Y248D01*
X593Y248D02*
X598Y248D01*
X619Y248D02*
X625Y248D01*
X629Y248D02*
X635Y248D01*
X668Y248D02*
X674Y248D01*
X724Y248D02*
X729Y248D01*
X744Y248D02*
X750Y248D01*
X767Y248D02*
X773Y248D01*
X569Y247D02*
X598Y247D01*
X620Y247D02*
X635Y247D01*
X658Y247D02*
X684Y247D01*
X724Y247D02*
X729Y247D01*
X745Y247D02*
X772Y247D01*
X569Y246D02*
X598Y246D01*
X620Y246D02*
X634Y246D01*
X657Y246D02*
X685Y246D01*
X724Y246D02*
X729Y246D01*
X745Y246D02*
X772Y246D01*
X569Y245D02*
X597Y245D01*
X621Y245D02*
X633Y245D01*
X656Y245D02*
X685Y245D01*
X724Y245D02*
X729Y245D01*
X746Y245D02*
X771Y245D01*
X570Y244D02*
X597Y244D01*
X622Y244D02*
X633Y244D01*
X656Y244D02*
X685Y244D01*
X724Y244D02*
X729Y244D01*
X747Y244D02*
X770Y244D01*
X571Y243D02*
X596Y243D01*
X623Y243D02*
X632Y243D01*
X657Y243D02*
X685Y243D01*
X725Y243D02*
X729Y243D01*
X748Y243D02*
X769Y243D01*
X572Y242D02*
X595Y242D01*
X625Y242D02*
X630Y242D01*
X658Y242D02*
X684Y242D01*
X725Y242D02*
X728Y242D01*
X750Y242D02*
X768Y242D01*
X225Y129D02*
X241Y129D01*
X257Y129D02*
X261Y129D01*
X278Y129D02*
X286Y129D01*
X301Y129D02*
X316Y129D01*
X223Y128D02*
X242Y128D01*
X257Y128D02*
X261Y128D01*
X278Y128D02*
X286Y128D01*
X301Y128D02*
X317Y128D01*
X222Y127D02*
X242Y127D01*
X257Y127D02*
X262Y127D01*
X277Y127D02*
X286Y127D01*
X300Y127D02*
X318Y127D01*
X221Y126D02*
X242Y126D01*
X257Y126D02*
X262Y126D01*
X277Y126D02*
X286Y126D01*
X300Y126D02*
X319Y126D01*
X221Y125D02*
X241Y125D01*
X257Y125D02*
X262Y125D01*
X276Y125D02*
X286Y125D01*
X301Y125D02*
X320Y125D01*
X220Y124D02*
X240Y124D01*
X257Y124D02*
X262Y124D01*
X276Y124D02*
X286Y124D01*
X303Y124D02*
X321Y124D01*
X219Y123D02*
X226Y123D01*
X231Y123D02*
X236Y123D01*
X257Y123D02*
X262Y123D01*
X276Y123D02*
X286Y123D01*
X314Y123D02*
X321Y123D01*
X219Y122D02*
X225Y122D01*
X231Y122D02*
X236Y122D01*
X257Y122D02*
X262Y122D01*
X275Y122D02*
X286Y122D01*
X315Y122D02*
X322Y122D01*
X218Y121D02*
X224Y121D01*
X231Y121D02*
X236Y121D01*
X257Y121D02*
X262Y121D01*
X275Y121D02*
X286Y121D01*
X316Y121D02*
X323Y121D01*
X218Y120D02*
X224Y120D01*
X231Y120D02*
X236Y120D01*
X257Y120D02*
X262Y120D01*
X274Y120D02*
X286Y120D01*
X317Y120D02*
X324Y120D01*
X217Y119D02*
X223Y119D01*
X231Y119D02*
X236Y119D01*
X257Y119D02*
X262Y119D01*
X274Y119D02*
X286Y119D01*
X318Y119D02*
X324Y119D01*
X217Y118D02*
X223Y118D01*
X231Y118D02*
X236Y118D01*
X257Y118D02*
X262Y118D01*
X273Y118D02*
X286Y118D01*
X318Y118D02*
X325Y118D01*
X216Y117D02*
X222Y117D01*
X231Y117D02*
X236Y117D01*
X257Y117D02*
X262Y117D01*
X273Y117D02*
X279Y117D01*
X281Y117D02*
X286Y117D01*
X319Y117D02*
X326Y117D01*
X216Y116D02*
X222Y116D01*
X231Y116D02*
X236Y116D01*
X257Y116D02*
X262Y116D01*
X272Y116D02*
X278Y116D01*
X281Y116D02*
X286Y116D01*
X320Y116D02*
X327Y116D01*
X215Y115D02*
X221Y115D01*
X231Y115D02*
X236Y115D01*
X257Y115D02*
X262Y115D01*
X272Y115D02*
X278Y115D01*
X281Y115D02*
X286Y115D01*
X321Y115D02*
X327Y115D01*
X215Y114D02*
X221Y114D01*
X231Y114D02*
X236Y114D01*
X257Y114D02*
X262Y114D01*
X272Y114D02*
X277Y114D01*
X281Y114D02*
X286Y114D01*
X322Y114D02*
X328Y114D01*
X214Y113D02*
X220Y113D01*
X231Y113D02*
X236Y113D01*
X257Y113D02*
X262Y113D01*
X271Y113D02*
X277Y113D01*
X281Y113D02*
X286Y113D01*
X322Y113D02*
X329Y113D01*
X214Y112D02*
X220Y112D01*
X231Y112D02*
X236Y112D01*
X257Y112D02*
X262Y112D01*
X271Y112D02*
X276Y112D01*
X281Y112D02*
X286Y112D01*
X323Y112D02*
X329Y112D01*
X214Y111D02*
X219Y111D01*
X231Y111D02*
X236Y111D01*
X257Y111D02*
X262Y111D01*
X270Y111D02*
X276Y111D01*
X281Y111D02*
X286Y111D01*
X324Y111D02*
X329Y111D01*
X213Y110D02*
X219Y110D01*
X231Y110D02*
X236Y110D01*
X257Y110D02*
X262Y110D01*
X270Y110D02*
X276Y110D01*
X281Y110D02*
X286Y110D01*
X324Y110D02*
X329Y110D01*
X213Y109D02*
X218Y109D01*
X231Y109D02*
X236Y109D01*
X257Y109D02*
X262Y109D01*
X269Y109D02*
X275Y109D01*
X281Y109D02*
X286Y109D01*
X324Y109D02*
X329Y109D01*
X213Y108D02*
X218Y108D01*
X231Y108D02*
X236Y108D01*
X257Y108D02*
X262Y108D01*
X269Y108D02*
X275Y108D01*
X281Y108D02*
X286Y108D01*
X324Y108D02*
X329Y108D01*
X213Y107D02*
X218Y107D01*
X231Y107D02*
X236Y107D01*
X257Y107D02*
X262Y107D01*
X269Y107D02*
X274Y107D01*
X281Y107D02*
X286Y107D01*
X324Y107D02*
X329Y107D01*
X956Y107D02*
X968Y107D01*
X988Y107D02*
X988Y107D01*
X1007Y107D02*
X1014Y107D01*
X1031Y107D02*
X1041Y107D01*
X213Y106D02*
X218Y106D01*
X231Y106D02*
X236Y106D01*
X257Y106D02*
X262Y106D01*
X268Y106D02*
X274Y106D01*
X281Y106D02*
X286Y106D01*
X324Y106D02*
X329Y106D01*
X953Y106D02*
X970Y106D01*
X986Y106D02*
X989Y106D01*
X1007Y106D02*
X1014Y106D01*
X1030Y106D02*
X1044Y106D01*
X213Y105D02*
X218Y105D01*
X231Y105D02*
X236Y105D01*
X257Y105D02*
X262Y105D01*
X268Y105D02*
X273Y105D01*
X281Y105D02*
X286Y105D01*
X324Y105D02*
X329Y105D01*
X951Y105D02*
X970Y105D01*
X985Y105D02*
X990Y105D01*
X1006Y105D02*
X1014Y105D01*
X1029Y105D02*
X1046Y105D01*
X213Y104D02*
X218Y104D01*
X231Y104D02*
X236Y104D01*
X257Y104D02*
X262Y104D01*
X267Y104D02*
X273Y104D01*
X281Y104D02*
X286Y104D01*
X300Y104D02*
X313Y104D01*
X324Y104D02*
X329Y104D01*
X950Y104D02*
X970Y104D01*
X985Y104D02*
X990Y104D01*
X1006Y104D02*
X1014Y104D01*
X1029Y104D02*
X1047Y104D01*
X213Y103D02*
X219Y103D01*
X231Y103D02*
X236Y103D01*
X257Y103D02*
X262Y103D01*
X267Y103D02*
X273Y103D01*
X281Y103D02*
X286Y103D01*
X300Y103D02*
X314Y103D01*
X324Y103D02*
X329Y103D01*
X950Y103D02*
X970Y103D01*
X985Y103D02*
X990Y103D01*
X1005Y103D02*
X1014Y103D01*
X1029Y103D02*
X1048Y103D01*
X214Y102D02*
X219Y102D01*
X231Y102D02*
X236Y102D01*
X257Y102D02*
X262Y102D01*
X266Y102D02*
X272Y102D01*
X281Y102D02*
X286Y102D01*
X300Y102D02*
X314Y102D01*
X324Y102D02*
X329Y102D01*
X949Y102D02*
X969Y102D01*
X985Y102D02*
X990Y102D01*
X1005Y102D02*
X1014Y102D01*
X1030Y102D02*
X1048Y102D01*
X214Y101D02*
X220Y101D01*
X231Y101D02*
X236Y101D01*
X257Y101D02*
X262Y101D01*
X266Y101D02*
X272Y101D01*
X281Y101D02*
X286Y101D01*
X300Y101D02*
X314Y101D01*
X324Y101D02*
X329Y101D01*
X948Y101D02*
X967Y101D01*
X985Y101D02*
X990Y101D01*
X1004Y101D02*
X1014Y101D01*
X1032Y101D02*
X1049Y101D01*
X214Y100D02*
X220Y100D01*
X231Y100D02*
X236Y100D01*
X257Y100D02*
X262Y100D01*
X265Y100D02*
X271Y100D01*
X281Y100D02*
X286Y100D01*
X300Y100D02*
X314Y100D01*
X324Y100D02*
X329Y100D01*
X948Y100D02*
X954Y100D01*
X959Y100D02*
X964Y100D01*
X985Y100D02*
X990Y100D01*
X1004Y100D02*
X1014Y100D01*
X1043Y100D02*
X1050Y100D01*
X215Y99D02*
X221Y99D01*
X231Y99D02*
X236Y99D01*
X257Y99D02*
X262Y99D01*
X265Y99D02*
X271Y99D01*
X281Y99D02*
X286Y99D01*
X300Y99D02*
X313Y99D01*
X324Y99D02*
X329Y99D01*
X947Y99D02*
X953Y99D01*
X959Y99D02*
X964Y99D01*
X985Y99D02*
X990Y99D01*
X1004Y99D02*
X1014Y99D01*
X1044Y99D02*
X1051Y99D01*
X215Y98D02*
X221Y98D01*
X231Y98D02*
X236Y98D01*
X257Y98D02*
X262Y98D01*
X265Y98D02*
X270Y98D01*
X281Y98D02*
X286Y98D01*
X300Y98D02*
X306Y98D01*
X324Y98D02*
X329Y98D01*
X947Y98D02*
X953Y98D01*
X959Y98D02*
X964Y98D01*
X985Y98D02*
X990Y98D01*
X1003Y98D02*
X1014Y98D01*
X1045Y98D02*
X1051Y98D01*
X216Y97D02*
X222Y97D01*
X231Y97D02*
X236Y97D01*
X257Y97D02*
X262Y97D01*
X264Y97D02*
X270Y97D01*
X281Y97D02*
X286Y97D01*
X300Y97D02*
X305Y97D01*
X324Y97D02*
X329Y97D01*
X946Y97D02*
X952Y97D01*
X959Y97D02*
X964Y97D01*
X985Y97D02*
X990Y97D01*
X1003Y97D02*
X1014Y97D01*
X1045Y97D02*
X1052Y97D01*
X216Y96D02*
X222Y96D01*
X231Y96D02*
X236Y96D01*
X257Y96D02*
X262Y96D01*
X264Y96D02*
X269Y96D01*
X281Y96D02*
X286Y96D01*
X300Y96D02*
X305Y96D01*
X324Y96D02*
X329Y96D01*
X946Y96D02*
X952Y96D01*
X959Y96D02*
X964Y96D01*
X985Y96D02*
X990Y96D01*
X1002Y96D02*
X1014Y96D01*
X1046Y96D02*
X1053Y96D01*
X217Y95D02*
X223Y95D01*
X231Y95D02*
X236Y95D01*
X257Y95D02*
X269Y95D01*
X281Y95D02*
X286Y95D01*
X300Y95D02*
X305Y95D01*
X324Y95D02*
X329Y95D01*
X945Y95D02*
X951Y95D01*
X959Y95D02*
X964Y95D01*
X985Y95D02*
X990Y95D01*
X1002Y95D02*
X1007Y95D01*
X1009Y95D02*
X1014Y95D01*
X1047Y95D02*
X1054Y95D01*
X217Y94D02*
X223Y94D01*
X231Y94D02*
X236Y94D01*
X257Y94D02*
X269Y94D01*
X281Y94D02*
X286Y94D01*
X300Y94D02*
X305Y94D01*
X324Y94D02*
X329Y94D01*
X945Y94D02*
X951Y94D01*
X959Y94D02*
X964Y94D01*
X985Y94D02*
X990Y94D01*
X1001Y94D02*
X1007Y94D01*
X1009Y94D02*
X1014Y94D01*
X1048Y94D02*
X1055Y94D01*
X218Y93D02*
X224Y93D01*
X231Y93D02*
X236Y93D01*
X257Y93D02*
X268Y93D01*
X281Y93D02*
X286Y93D01*
X300Y93D02*
X305Y93D01*
X324Y93D02*
X329Y93D01*
X944Y93D02*
X950Y93D01*
X959Y93D02*
X964Y93D01*
X985Y93D02*
X990Y93D01*
X1001Y93D02*
X1007Y93D01*
X1009Y93D02*
X1014Y93D01*
X1049Y93D02*
X1055Y93D01*
X218Y92D02*
X224Y92D01*
X231Y92D02*
X236Y92D01*
X257Y92D02*
X268Y92D01*
X281Y92D02*
X286Y92D01*
X300Y92D02*
X305Y92D01*
X324Y92D02*
X329Y92D01*
X944Y92D02*
X950Y92D01*
X959Y92D02*
X964Y92D01*
X985Y92D02*
X990Y92D01*
X1000Y92D02*
X1006Y92D01*
X1009Y92D02*
X1014Y92D01*
X1049Y92D02*
X1056Y92D01*
X219Y91D02*
X225Y91D01*
X231Y91D02*
X236Y91D01*
X257Y91D02*
X267Y91D01*
X281Y91D02*
X286Y91D01*
X300Y91D02*
X306Y91D01*
X324Y91D02*
X329Y91D01*
X943Y91D02*
X949Y91D01*
X959Y91D02*
X964Y91D01*
X985Y91D02*
X990Y91D01*
X1000Y91D02*
X1006Y91D01*
X1009Y91D02*
X1014Y91D01*
X1050Y91D02*
X1057Y91D01*
X219Y90D02*
X225Y90D01*
X231Y90D02*
X236Y90D01*
X257Y90D02*
X267Y90D01*
X281Y90D02*
X286Y90D01*
X301Y90D02*
X306Y90D01*
X323Y90D02*
X329Y90D01*
X943Y90D02*
X949Y90D01*
X959Y90D02*
X964Y90D01*
X985Y90D02*
X990Y90D01*
X1000Y90D02*
X1005Y90D01*
X1009Y90D02*
X1014Y90D01*
X1051Y90D02*
X1057Y90D01*
X220Y89D02*
X227Y89D01*
X230Y89D02*
X236Y89D01*
X257Y89D02*
X266Y89D01*
X281Y89D02*
X286Y89D01*
X301Y89D02*
X308Y89D01*
X322Y89D02*
X329Y89D01*
X942Y89D02*
X948Y89D01*
X959Y89D02*
X964Y89D01*
X985Y89D02*
X990Y89D01*
X999Y89D02*
X1005Y89D01*
X1009Y89D02*
X1014Y89D01*
X1052Y89D02*
X1057Y89D01*
X220Y88D02*
X241Y88D01*
X257Y88D02*
X266Y88D01*
X281Y88D02*
X286Y88D01*
X301Y88D02*
X329Y88D01*
X942Y88D02*
X948Y88D01*
X959Y88D02*
X964Y88D01*
X985Y88D02*
X990Y88D01*
X999Y88D02*
X1004Y88D01*
X1009Y88D02*
X1014Y88D01*
X1052Y88D02*
X1058Y88D01*
X221Y87D02*
X242Y87D01*
X257Y87D02*
X265Y87D01*
X281Y87D02*
X286Y87D01*
X302Y87D02*
X328Y87D01*
X942Y87D02*
X947Y87D01*
X959Y87D02*
X964Y87D01*
X985Y87D02*
X990Y87D01*
X998Y87D02*
X1004Y87D01*
X1009Y87D02*
X1014Y87D01*
X1053Y87D02*
X1058Y87D01*
X222Y86D02*
X242Y86D01*
X257Y86D02*
X265Y86D01*
X281Y86D02*
X286Y86D01*
X303Y86D02*
X327Y86D01*
X511Y86D02*
X513Y86D01*
X535Y86D02*
X537Y86D01*
X559Y86D02*
X582Y86D01*
X942Y86D02*
X947Y86D01*
X959Y86D02*
X964Y86D01*
X985Y86D02*
X990Y86D01*
X998Y86D02*
X1004Y86D01*
X1009Y86D02*
X1014Y86D01*
X1053Y86D02*
X1058Y86D01*
X223Y85D02*
X242Y85D01*
X257Y85D02*
X265Y85D01*
X281Y85D02*
X285Y85D01*
X304Y85D02*
X326Y85D01*
X510Y85D02*
X514Y85D01*
X534Y85D02*
X538Y85D01*
X557Y85D02*
X582Y85D01*
X941Y85D02*
X947Y85D01*
X959Y85D02*
X964Y85D01*
X985Y85D02*
X990Y85D01*
X997Y85D02*
X1003Y85D01*
X1009Y85D02*
X1014Y85D01*
X1053Y85D02*
X1058Y85D01*
X224Y84D02*
X241Y84D01*
X257Y84D02*
X264Y84D01*
X281Y84D02*
X285Y84D01*
X305Y84D02*
X325Y84D01*
X510Y84D02*
X515Y84D01*
X533Y84D02*
X539Y84D01*
X556Y84D02*
X582Y84D01*
X941Y84D02*
X946Y84D01*
X959Y84D02*
X964Y84D01*
X985Y84D02*
X990Y84D01*
X997Y84D02*
X1003Y84D01*
X1009Y84D02*
X1014Y84D01*
X1053Y84D02*
X1058Y84D01*
X227Y83D02*
X240Y83D01*
X257Y83D02*
X264Y83D01*
X283Y83D02*
X284Y83D01*
X308Y83D02*
X322Y83D01*
X385Y83D02*
X388Y83D01*
X409Y83D02*
X412Y83D01*
X431Y83D02*
X456Y83D01*
X510Y83D02*
X516Y83D01*
X533Y83D02*
X539Y83D01*
X555Y83D02*
X582Y83D01*
X941Y83D02*
X946Y83D01*
X959Y83D02*
X964Y83D01*
X985Y83D02*
X990Y83D01*
X996Y83D02*
X1002Y83D01*
X1009Y83D02*
X1014Y83D01*
X1053Y83D02*
X1058Y83D01*
X385Y82D02*
X389Y82D01*
X409Y82D02*
X413Y82D01*
X430Y82D02*
X457Y82D01*
X510Y82D02*
X516Y82D01*
X532Y82D02*
X538Y82D01*
X555Y82D02*
X582Y82D01*
X941Y82D02*
X947Y82D01*
X959Y82D02*
X964Y82D01*
X985Y82D02*
X990Y82D01*
X996Y82D02*
X1002Y82D01*
X1009Y82D02*
X1014Y82D01*
X1053Y82D02*
X1058Y82D01*
X384Y81D02*
X389Y81D01*
X408Y81D02*
X413Y81D01*
X429Y81D02*
X457Y81D01*
X511Y81D02*
X517Y81D01*
X532Y81D02*
X538Y81D01*
X554Y81D02*
X582Y81D01*
X942Y81D02*
X947Y81D01*
X959Y81D02*
X964Y81D01*
X985Y81D02*
X990Y81D01*
X996Y81D02*
X1001Y81D01*
X1009Y81D02*
X1014Y81D01*
X1029Y81D02*
X1041Y81D01*
X1053Y81D02*
X1058Y81D01*
X384Y80D02*
X389Y80D01*
X408Y80D02*
X413Y80D01*
X429Y80D02*
X457Y80D01*
X511Y80D02*
X517Y80D01*
X531Y80D02*
X537Y80D01*
X554Y80D02*
X560Y80D01*
X577Y80D02*
X582Y80D01*
X942Y80D02*
X947Y80D01*
X959Y80D02*
X964Y80D01*
X985Y80D02*
X990Y80D01*
X995Y80D02*
X1001Y80D01*
X1009Y80D02*
X1014Y80D01*
X1029Y80D02*
X1042Y80D01*
X1053Y80D02*
X1058Y80D01*
X384Y79D02*
X389Y79D01*
X408Y79D02*
X413Y79D01*
X428Y79D02*
X457Y79D01*
X512Y79D02*
X518Y79D01*
X530Y79D02*
X537Y79D01*
X553Y79D02*
X559Y79D01*
X577Y79D02*
X582Y79D01*
X942Y79D02*
X948Y79D01*
X959Y79D02*
X964Y79D01*
X985Y79D02*
X990Y79D01*
X995Y79D02*
X1000Y79D01*
X1009Y79D02*
X1014Y79D01*
X1029Y79D02*
X1043Y79D01*
X1053Y79D02*
X1058Y79D01*
X384Y78D02*
X389Y78D01*
X408Y78D02*
X413Y78D01*
X428Y78D02*
X455Y78D01*
X512Y78D02*
X518Y78D01*
X530Y78D02*
X536Y78D01*
X553Y78D02*
X559Y78D01*
X577Y78D02*
X582Y78D01*
X942Y78D02*
X948Y78D01*
X959Y78D02*
X964Y78D01*
X985Y78D02*
X990Y78D01*
X994Y78D02*
X1000Y78D01*
X1009Y78D02*
X1014Y78D01*
X1029Y78D02*
X1043Y78D01*
X1053Y78D02*
X1058Y78D01*
X384Y77D02*
X389Y77D01*
X408Y77D02*
X413Y77D01*
X428Y77D02*
X433Y77D01*
X513Y77D02*
X519Y77D01*
X529Y77D02*
X535Y77D01*
X553Y77D02*
X558Y77D01*
X577Y77D02*
X582Y77D01*
X943Y77D02*
X949Y77D01*
X959Y77D02*
X964Y77D01*
X985Y77D02*
X990Y77D01*
X994Y77D02*
X1000Y77D01*
X1009Y77D02*
X1014Y77D01*
X1029Y77D02*
X1042Y77D01*
X1053Y77D02*
X1058Y77D01*
X384Y76D02*
X389Y76D01*
X408Y76D02*
X413Y76D01*
X428Y76D02*
X433Y76D01*
X514Y76D02*
X520Y76D01*
X529Y76D02*
X535Y76D01*
X553Y76D02*
X558Y76D01*
X577Y76D02*
X582Y76D01*
X943Y76D02*
X949Y76D01*
X959Y76D02*
X964Y76D01*
X985Y76D02*
X990Y76D01*
X993Y76D02*
X999Y76D01*
X1009Y76D02*
X1014Y76D01*
X1029Y76D02*
X1042Y76D01*
X1053Y76D02*
X1058Y76D01*
X384Y75D02*
X389Y75D01*
X408Y75D02*
X413Y75D01*
X428Y75D02*
X433Y75D01*
X514Y75D02*
X520Y75D01*
X528Y75D02*
X534Y75D01*
X553Y75D02*
X558Y75D01*
X577Y75D02*
X582Y75D01*
X944Y75D02*
X950Y75D01*
X959Y75D02*
X964Y75D01*
X985Y75D02*
X990Y75D01*
X993Y75D02*
X999Y75D01*
X1009Y75D02*
X1014Y75D01*
X1029Y75D02*
X1034Y75D01*
X1053Y75D02*
X1058Y75D01*
X384Y74D02*
X389Y74D01*
X408Y74D02*
X413Y74D01*
X428Y74D02*
X433Y74D01*
X515Y74D02*
X521Y74D01*
X527Y74D02*
X534Y74D01*
X553Y74D02*
X559Y74D01*
X577Y74D02*
X582Y74D01*
X944Y74D02*
X950Y74D01*
X959Y74D02*
X964Y74D01*
X985Y74D02*
X990Y74D01*
X993Y74D02*
X998Y74D01*
X1009Y74D02*
X1014Y74D01*
X1029Y74D02*
X1034Y74D01*
X1053Y74D02*
X1058Y74D01*
X384Y73D02*
X389Y73D01*
X408Y73D02*
X413Y73D01*
X428Y73D02*
X433Y73D01*
X515Y73D02*
X521Y73D01*
X527Y73D02*
X533Y73D01*
X553Y73D02*
X559Y73D01*
X577Y73D02*
X582Y73D01*
X945Y73D02*
X951Y73D01*
X959Y73D02*
X964Y73D01*
X985Y73D02*
X990Y73D01*
X992Y73D02*
X998Y73D01*
X1009Y73D02*
X1014Y73D01*
X1029Y73D02*
X1034Y73D01*
X1053Y73D02*
X1058Y73D01*
X384Y72D02*
X389Y72D01*
X408Y72D02*
X413Y72D01*
X428Y72D02*
X433Y72D01*
X516Y72D02*
X522Y72D01*
X526Y72D02*
X532Y72D01*
X554Y72D02*
X560Y72D01*
X577Y72D02*
X582Y72D01*
X945Y72D02*
X951Y72D01*
X959Y72D02*
X964Y72D01*
X985Y72D02*
X990Y72D01*
X992Y72D02*
X997Y72D01*
X1009Y72D02*
X1014Y72D01*
X1029Y72D02*
X1034Y72D01*
X1053Y72D02*
X1058Y72D01*
X384Y71D02*
X389Y71D01*
X408Y71D02*
X413Y71D01*
X428Y71D02*
X433Y71D01*
X516Y71D02*
X523Y71D01*
X526Y71D02*
X532Y71D01*
X554Y71D02*
X582Y71D01*
X946Y71D02*
X952Y71D01*
X959Y71D02*
X964Y71D01*
X985Y71D02*
X997Y71D01*
X1009Y71D02*
X1014Y71D01*
X1029Y71D02*
X1034Y71D01*
X1053Y71D02*
X1058Y71D01*
X384Y70D02*
X390Y70D01*
X408Y70D02*
X413Y70D01*
X428Y70D02*
X433Y70D01*
X517Y70D02*
X523Y70D01*
X525Y70D02*
X531Y70D01*
X554Y70D02*
X582Y70D01*
X946Y70D02*
X952Y70D01*
X959Y70D02*
X964Y70D01*
X985Y70D02*
X997Y70D01*
X1009Y70D02*
X1014Y70D01*
X1029Y70D02*
X1034Y70D01*
X1053Y70D02*
X1058Y70D01*
X385Y69D02*
X390Y69D01*
X407Y69D02*
X413Y69D01*
X428Y69D02*
X433Y69D01*
X518Y69D02*
X531Y69D01*
X555Y69D02*
X582Y69D01*
X947Y69D02*
X953Y69D01*
X959Y69D02*
X964Y69D01*
X985Y69D02*
X996Y69D01*
X1009Y69D02*
X1014Y69D01*
X1029Y69D02*
X1034Y69D01*
X1053Y69D02*
X1058Y69D01*
X385Y68D02*
X390Y68D01*
X407Y68D02*
X413Y68D01*
X428Y68D02*
X433Y68D01*
X518Y68D02*
X530Y68D01*
X556Y68D02*
X582Y68D01*
X947Y68D02*
X953Y68D01*
X959Y68D02*
X964Y68D01*
X985Y68D02*
X996Y68D01*
X1009Y68D02*
X1014Y68D01*
X1029Y68D02*
X1034Y68D01*
X1053Y68D02*
X1058Y68D01*
X385Y67D02*
X391Y67D01*
X407Y67D02*
X412Y67D01*
X428Y67D02*
X433Y67D01*
X519Y67D02*
X530Y67D01*
X557Y67D02*
X582Y67D01*
X948Y67D02*
X954Y67D01*
X959Y67D02*
X964Y67D01*
X985Y67D02*
X995Y67D01*
X1009Y67D02*
X1014Y67D01*
X1029Y67D02*
X1035Y67D01*
X1052Y67D02*
X1058Y67D01*
X386Y66D02*
X391Y66D01*
X406Y66D02*
X412Y66D01*
X428Y66D02*
X433Y66D01*
X519Y66D02*
X529Y66D01*
X559Y66D02*
X582Y66D01*
X948Y66D02*
X967Y66D01*
X985Y66D02*
X995Y66D01*
X1009Y66D02*
X1014Y66D01*
X1029Y66D02*
X1057Y66D01*
X386Y65D02*
X392Y65D01*
X406Y65D02*
X412Y65D01*
X428Y65D02*
X433Y65D01*
X520Y65D02*
X528Y65D01*
X566Y65D02*
X572Y65D01*
X577Y65D02*
X582Y65D01*
X949Y65D02*
X969Y65D01*
X985Y65D02*
X994Y65D01*
X1009Y65D02*
X1014Y65D01*
X1030Y65D02*
X1057Y65D01*
X386Y64D02*
X392Y64D01*
X406Y64D02*
X411Y64D01*
X428Y64D02*
X434Y64D01*
X521Y64D02*
X528Y64D01*
X565Y64D02*
X572Y64D01*
X577Y64D02*
X582Y64D01*
X949Y64D02*
X970Y64D01*
X985Y64D02*
X994Y64D01*
X1009Y64D02*
X1014Y64D01*
X1030Y64D02*
X1056Y64D01*
X387Y63D02*
X392Y63D01*
X405Y63D02*
X411Y63D01*
X429Y63D02*
X449Y63D01*
X521Y63D02*
X527Y63D01*
X565Y63D02*
X571Y63D01*
X577Y63D02*
X582Y63D01*
X950Y63D02*
X970Y63D01*
X985Y63D02*
X993Y63D01*
X1009Y63D02*
X1014Y63D01*
X1031Y63D02*
X1056Y63D01*
X387Y62D02*
X393Y62D01*
X405Y62D02*
X410Y62D01*
X429Y62D02*
X450Y62D01*
X521Y62D02*
X528Y62D01*
X564Y62D02*
X570Y62D01*
X577Y62D02*
X582Y62D01*
X951Y62D02*
X970Y62D01*
X985Y62D02*
X993Y62D01*
X1009Y62D02*
X1014Y62D01*
X1032Y62D02*
X1055Y62D01*
X388Y61D02*
X393Y61D01*
X404Y61D02*
X410Y61D01*
X430Y61D02*
X451Y61D01*
X520Y61D02*
X528Y61D01*
X564Y61D02*
X570Y61D01*
X577Y61D02*
X582Y61D01*
X953Y61D02*
X970Y61D01*
X985Y61D02*
X993Y61D01*
X1010Y61D02*
X1013Y61D01*
X1034Y61D02*
X1053Y61D01*
X388Y60D02*
X394Y60D01*
X404Y60D02*
X410Y60D01*
X430Y60D02*
X451Y60D01*
X519Y60D02*
X529Y60D01*
X563Y60D02*
X569Y60D01*
X577Y60D02*
X582Y60D01*
X956Y60D02*
X968Y60D01*
X985Y60D02*
X992Y60D01*
X1012Y60D02*
X1012Y60D01*
X1037Y60D02*
X1050Y60D01*
X388Y59D02*
X394Y59D01*
X404Y59D02*
X409Y59D01*
X430Y59D02*
X451Y59D01*
X519Y59D02*
X530Y59D01*
X562Y59D02*
X569Y59D01*
X577Y59D02*
X582Y59D01*
X389Y58D02*
X394Y58D01*
X403Y58D02*
X409Y58D01*
X429Y58D02*
X450Y58D01*
X518Y58D02*
X530Y58D01*
X562Y58D02*
X568Y58D01*
X577Y58D02*
X582Y58D01*
X389Y57D02*
X395Y57D01*
X403Y57D02*
X408Y57D01*
X429Y57D02*
X436Y57D01*
X518Y57D02*
X531Y57D01*
X561Y57D02*
X567Y57D01*
X577Y57D02*
X582Y57D01*
X390Y56D02*
X395Y56D01*
X402Y56D02*
X408Y56D01*
X428Y56D02*
X434Y56D01*
X517Y56D02*
X523Y56D01*
X525Y56D02*
X531Y56D01*
X561Y56D02*
X567Y56D01*
X577Y56D02*
X582Y56D01*
X390Y55D02*
X396Y55D01*
X402Y55D02*
X408Y55D01*
X428Y55D02*
X433Y55D01*
X516Y55D02*
X523Y55D01*
X526Y55D02*
X532Y55D01*
X560Y55D02*
X566Y55D01*
X577Y55D02*
X582Y55D01*
X390Y54D02*
X396Y54D01*
X402Y54D02*
X407Y54D01*
X428Y54D02*
X433Y54D01*
X516Y54D02*
X522Y54D01*
X526Y54D02*
X533Y54D01*
X560Y54D02*
X566Y54D01*
X577Y54D02*
X582Y54D01*
X391Y53D02*
X396Y53D01*
X401Y53D02*
X407Y53D01*
X428Y53D02*
X433Y53D01*
X515Y53D02*
X521Y53D01*
X527Y53D02*
X533Y53D01*
X559Y53D02*
X565Y53D01*
X577Y53D02*
X582Y53D01*
X391Y52D02*
X397Y52D01*
X401Y52D02*
X406Y52D01*
X428Y52D02*
X433Y52D01*
X515Y52D02*
X521Y52D01*
X528Y52D02*
X534Y52D01*
X558Y52D02*
X565Y52D01*
X577Y52D02*
X582Y52D01*
X392Y51D02*
X397Y51D01*
X400Y51D02*
X406Y51D01*
X428Y51D02*
X433Y51D01*
X514Y51D02*
X520Y51D01*
X528Y51D02*
X534Y51D01*
X558Y51D02*
X564Y51D01*
X577Y51D02*
X582Y51D01*
X392Y50D02*
X398Y50D01*
X400Y50D02*
X406Y50D01*
X428Y50D02*
X433Y50D01*
X513Y50D02*
X520Y50D01*
X529Y50D02*
X535Y50D01*
X557Y50D02*
X563Y50D01*
X577Y50D02*
X582Y50D01*
X392Y49D02*
X398Y49D01*
X400Y49D02*
X405Y49D01*
X428Y49D02*
X433Y49D01*
X513Y49D02*
X519Y49D01*
X529Y49D02*
X535Y49D01*
X557Y49D02*
X563Y49D01*
X577Y49D02*
X582Y49D01*
X393Y48D02*
X405Y48D01*
X428Y48D02*
X433Y48D01*
X512Y48D02*
X518Y48D01*
X530Y48D02*
X536Y48D01*
X556Y48D02*
X562Y48D01*
X577Y48D02*
X582Y48D01*
X393Y47D02*
X405Y47D01*
X428Y47D02*
X433Y47D01*
X512Y47D02*
X518Y47D01*
X530Y47D02*
X537Y47D01*
X555Y47D02*
X562Y47D01*
X577Y47D02*
X582Y47D01*
X393Y46D02*
X404Y46D01*
X428Y46D02*
X433Y46D01*
X511Y46D02*
X517Y46D01*
X531Y46D02*
X537Y46D01*
X555Y46D02*
X561Y46D01*
X577Y46D02*
X582Y46D01*
X394Y45D02*
X404Y45D01*
X428Y45D02*
X433Y45D01*
X511Y45D02*
X517Y45D01*
X532Y45D02*
X538Y45D01*
X554Y45D02*
X560Y45D01*
X577Y45D02*
X582Y45D01*
X394Y44D02*
X403Y44D01*
X428Y44D02*
X433Y44D01*
X510Y44D02*
X516Y44D01*
X532Y44D02*
X538Y44D01*
X554Y44D02*
X560Y44D01*
X577Y44D02*
X582Y44D01*
X395Y43D02*
X403Y43D01*
X428Y43D02*
X433Y43D01*
X510Y43D02*
X516Y43D01*
X533Y43D02*
X539Y43D01*
X553Y43D02*
X559Y43D01*
X577Y43D02*
X582Y43D01*
X395Y42D02*
X403Y42D01*
X428Y42D02*
X456Y42D01*
X510Y42D02*
X515Y42D01*
X533Y42D02*
X539Y42D01*
X553Y42D02*
X559Y42D01*
X577Y42D02*
X582Y42D01*
X395Y41D02*
X402Y41D01*
X428Y41D02*
X457Y41D01*
X510Y41D02*
X514Y41D01*
X534Y41D02*
X538Y41D01*
X554Y41D02*
X558Y41D01*
X578Y41D02*
X582Y41D01*
X396Y40D02*
X402Y40D01*
X429Y40D02*
X457Y40D01*
X511Y40D02*
X513Y40D01*
X535Y40D02*
X537Y40D01*
X555Y40D02*
X557Y40D01*
X579Y40D02*
X581Y40D01*
X396Y39D02*
X401Y39D01*
X429Y39D02*
X457Y39D01*
X397Y38D02*
X401Y38D01*
X430Y38D02*
X457Y38D01*
X398Y37D02*
X400Y37D01*
X432Y37D02*
X456Y37D01*
D02*
G04 End of Silk0*
M02*