G04 MADE WITH FRITZING*
G04 WWW.FRITZING.ORG*
G04 DOUBLE SIDED*
G04 HOLES PLATED*
G04 CONTOUR ON CENTER OF CONTOUR VECTOR*
%ASAXBY*%
%FSLAX23Y23*%
%MOIN*%
%OFA0B0*%
%SFA1.0B1.0*%
%ADD10C,0.008000*%
%ADD11C,0.008051*%
%ADD12C,0.010000*%
%ADD13R,0.001000X0.001000*%
%LNSILK1*%
G90*
G70*
G54D10*
X734Y443D02*
X864Y443D01*
D02*
X864Y443D02*
X864Y185D01*
D02*
X864Y185D02*
X734Y185D01*
D02*
X734Y185D02*
X734Y443D01*
G54D11*
D02*
X398Y510D02*
X373Y485D01*
D02*
X373Y434D02*
X398Y409D01*
D02*
X398Y409D02*
X373Y384D01*
D02*
X373Y334D02*
X398Y308D01*
D02*
X398Y308D02*
X373Y283D01*
D02*
X373Y233D02*
X398Y208D01*
D02*
X398Y510D02*
X548Y510D01*
D02*
X573Y485D02*
X573Y434D01*
D02*
X548Y409D02*
X573Y384D01*
D02*
X573Y384D02*
X573Y334D01*
D02*
X573Y334D02*
X548Y308D01*
D02*
X548Y308D02*
X573Y283D01*
D02*
X573Y283D02*
X573Y233D01*
D02*
X573Y233D02*
X548Y208D01*
D02*
X373Y283D02*
X373Y233D01*
D02*
X373Y384D02*
X373Y334D01*
D02*
X373Y485D02*
X373Y434D01*
D02*
X373Y132D02*
X398Y107D01*
D02*
X573Y183D02*
X573Y132D01*
D02*
X548Y107D02*
X398Y107D01*
D02*
X373Y183D02*
X373Y132D01*
D02*
X398Y208D02*
X373Y183D01*
G54D12*
D02*
X762Y215D02*
X762Y415D01*
D02*
X762Y415D02*
X828Y415D01*
D02*
X828Y415D02*
X828Y215D01*
D02*
X828Y215D02*
X762Y215D01*
G54D13*
X0Y607D02*
X1251Y607D01*
X0Y606D02*
X1251Y606D01*
X0Y605D02*
X1251Y605D01*
X0Y604D02*
X1251Y604D01*
X0Y603D02*
X1251Y603D01*
X0Y602D02*
X1251Y602D01*
X0Y601D02*
X1251Y601D01*
X0Y600D02*
X1251Y600D01*
X0Y599D02*
X7Y599D01*
X332Y599D02*
X341Y599D01*
X1244Y599D02*
X1251Y599D01*
X0Y598D02*
X7Y598D01*
X332Y598D02*
X341Y598D01*
X1244Y598D02*
X1251Y598D01*
X0Y597D02*
X7Y597D01*
X332Y597D02*
X341Y597D01*
X1244Y597D02*
X1251Y597D01*
X0Y596D02*
X7Y596D01*
X332Y596D02*
X341Y596D01*
X1244Y596D02*
X1251Y596D01*
X0Y595D02*
X7Y595D01*
X332Y595D02*
X341Y595D01*
X1244Y595D02*
X1251Y595D01*
X0Y594D02*
X7Y594D01*
X332Y594D02*
X341Y594D01*
X1244Y594D02*
X1251Y594D01*
X0Y593D02*
X7Y593D01*
X332Y593D02*
X341Y593D01*
X1244Y593D02*
X1251Y593D01*
X0Y592D02*
X7Y592D01*
X332Y592D02*
X341Y592D01*
X1244Y592D02*
X1251Y592D01*
X0Y591D02*
X7Y591D01*
X332Y591D02*
X341Y591D01*
X1244Y591D02*
X1251Y591D01*
X0Y590D02*
X7Y590D01*
X332Y590D02*
X341Y590D01*
X1244Y590D02*
X1251Y590D01*
X0Y589D02*
X7Y589D01*
X332Y589D02*
X341Y589D01*
X1244Y589D02*
X1251Y589D01*
X0Y588D02*
X7Y588D01*
X332Y588D02*
X341Y588D01*
X1244Y588D02*
X1251Y588D01*
X0Y587D02*
X7Y587D01*
X332Y587D02*
X341Y587D01*
X1244Y587D02*
X1251Y587D01*
X0Y586D02*
X7Y586D01*
X332Y586D02*
X341Y586D01*
X1244Y586D02*
X1251Y586D01*
X0Y585D02*
X7Y585D01*
X332Y585D02*
X341Y585D01*
X1244Y585D02*
X1251Y585D01*
X0Y584D02*
X7Y584D01*
X332Y584D02*
X341Y584D01*
X1244Y584D02*
X1251Y584D01*
X0Y583D02*
X7Y583D01*
X332Y583D02*
X341Y583D01*
X1244Y583D02*
X1251Y583D01*
X0Y582D02*
X7Y582D01*
X332Y582D02*
X341Y582D01*
X1244Y582D02*
X1251Y582D01*
X0Y581D02*
X7Y581D01*
X332Y581D02*
X341Y581D01*
X1244Y581D02*
X1251Y581D01*
X0Y580D02*
X7Y580D01*
X332Y580D02*
X341Y580D01*
X1244Y580D02*
X1251Y580D01*
X0Y579D02*
X7Y579D01*
X332Y579D02*
X341Y579D01*
X1244Y579D02*
X1251Y579D01*
X0Y578D02*
X7Y578D01*
X332Y578D02*
X341Y578D01*
X1244Y578D02*
X1251Y578D01*
X0Y577D02*
X7Y577D01*
X332Y577D02*
X341Y577D01*
X1244Y577D02*
X1251Y577D01*
X0Y576D02*
X7Y576D01*
X332Y576D02*
X341Y576D01*
X1244Y576D02*
X1251Y576D01*
X0Y575D02*
X7Y575D01*
X332Y575D02*
X341Y575D01*
X1244Y575D02*
X1251Y575D01*
X0Y574D02*
X7Y574D01*
X332Y574D02*
X341Y574D01*
X1244Y574D02*
X1251Y574D01*
X0Y573D02*
X7Y573D01*
X332Y573D02*
X341Y573D01*
X1244Y573D02*
X1251Y573D01*
X0Y572D02*
X7Y572D01*
X332Y572D02*
X341Y572D01*
X366Y572D02*
X395Y572D01*
X412Y572D02*
X413Y572D01*
X436Y572D02*
X437Y572D01*
X524Y572D02*
X536Y572D01*
X552Y572D02*
X559Y572D01*
X578Y572D02*
X579Y572D01*
X598Y572D02*
X611Y572D01*
X1244Y572D02*
X1251Y572D01*
X0Y571D02*
X7Y571D01*
X332Y571D02*
X341Y571D01*
X366Y571D02*
X395Y571D01*
X410Y571D02*
X414Y571D01*
X434Y571D02*
X438Y571D01*
X522Y571D02*
X537Y571D01*
X552Y571D02*
X560Y571D01*
X577Y571D02*
X581Y571D01*
X596Y571D02*
X614Y571D01*
X1244Y571D02*
X1251Y571D01*
X0Y570D02*
X7Y570D01*
X203Y570D02*
X206Y570D01*
X227Y570D02*
X230Y570D01*
X247Y570D02*
X263Y570D01*
X291Y570D02*
X307Y570D01*
X332Y570D02*
X341Y570D01*
X366Y570D02*
X395Y570D01*
X410Y570D02*
X415Y570D01*
X434Y570D02*
X439Y570D01*
X520Y570D02*
X537Y570D01*
X552Y570D02*
X560Y570D01*
X576Y570D02*
X581Y570D01*
X596Y570D02*
X615Y570D01*
X1244Y570D02*
X1251Y570D01*
X0Y569D02*
X7Y569D01*
X203Y569D02*
X207Y569D01*
X227Y569D02*
X231Y569D01*
X246Y569D02*
X265Y569D01*
X290Y569D02*
X308Y569D01*
X332Y569D02*
X341Y569D01*
X366Y569D02*
X395Y569D01*
X410Y569D02*
X416Y569D01*
X433Y569D02*
X439Y569D01*
X519Y569D02*
X537Y569D01*
X552Y569D02*
X561Y569D01*
X576Y569D02*
X581Y569D01*
X596Y569D02*
X616Y569D01*
X1244Y569D02*
X1251Y569D01*
X0Y568D02*
X7Y568D01*
X202Y568D02*
X207Y568D01*
X226Y568D02*
X231Y568D01*
X246Y568D02*
X266Y568D01*
X290Y568D02*
X310Y568D01*
X332Y568D02*
X341Y568D01*
X366Y568D02*
X395Y568D01*
X410Y568D02*
X416Y568D01*
X433Y568D02*
X439Y568D01*
X518Y568D02*
X537Y568D01*
X552Y568D02*
X561Y568D01*
X576Y568D02*
X581Y568D01*
X596Y568D02*
X617Y568D01*
X1244Y568D02*
X1251Y568D01*
X0Y567D02*
X7Y567D01*
X202Y567D02*
X207Y567D01*
X226Y567D02*
X231Y567D01*
X246Y567D02*
X267Y567D01*
X290Y567D02*
X310Y567D01*
X332Y567D02*
X341Y567D01*
X366Y567D02*
X395Y567D01*
X411Y567D02*
X417Y567D01*
X432Y567D02*
X438Y567D01*
X518Y567D02*
X536Y567D01*
X552Y567D02*
X561Y567D01*
X576Y567D02*
X581Y567D01*
X597Y567D02*
X617Y567D01*
X1244Y567D02*
X1251Y567D01*
X0Y566D02*
X7Y566D01*
X202Y566D02*
X207Y566D01*
X226Y566D02*
X231Y566D01*
X247Y566D02*
X267Y566D01*
X290Y566D02*
X311Y566D01*
X332Y566D02*
X341Y566D01*
X366Y566D02*
X371Y566D01*
X378Y566D02*
X383Y566D01*
X390Y566D02*
X395Y566D01*
X411Y566D02*
X417Y566D01*
X431Y566D02*
X438Y566D01*
X517Y566D02*
X524Y566D01*
X552Y566D02*
X562Y566D01*
X576Y566D02*
X581Y566D01*
X602Y566D02*
X607Y566D01*
X611Y566D02*
X618Y566D01*
X1244Y566D02*
X1251Y566D01*
X0Y565D02*
X7Y565D01*
X202Y565D02*
X207Y565D01*
X226Y565D02*
X231Y565D01*
X248Y565D02*
X268Y565D01*
X292Y565D02*
X312Y565D01*
X332Y565D02*
X341Y565D01*
X366Y565D02*
X371Y565D01*
X378Y565D02*
X383Y565D01*
X390Y565D02*
X395Y565D01*
X412Y565D02*
X418Y565D01*
X431Y565D02*
X437Y565D01*
X516Y565D02*
X523Y565D01*
X552Y565D02*
X562Y565D01*
X576Y565D02*
X581Y565D01*
X602Y565D02*
X607Y565D01*
X612Y565D02*
X618Y565D01*
X1244Y565D02*
X1251Y565D01*
X0Y564D02*
X7Y564D01*
X202Y564D02*
X207Y564D01*
X226Y564D02*
X231Y564D01*
X252Y564D02*
X257Y564D01*
X262Y564D02*
X268Y564D01*
X296Y564D02*
X301Y564D01*
X306Y564D02*
X312Y564D01*
X332Y564D02*
X341Y564D01*
X366Y564D02*
X371Y564D01*
X378Y564D02*
X383Y564D01*
X390Y564D02*
X395Y564D01*
X412Y564D02*
X419Y564D01*
X430Y564D02*
X436Y564D01*
X515Y564D02*
X522Y564D01*
X552Y564D02*
X563Y564D01*
X576Y564D02*
X581Y564D01*
X602Y564D02*
X607Y564D01*
X613Y564D02*
X619Y564D01*
X1244Y564D02*
X1251Y564D01*
X0Y563D02*
X7Y563D01*
X202Y563D02*
X207Y563D01*
X226Y563D02*
X231Y563D01*
X252Y563D02*
X257Y563D01*
X263Y563D02*
X269Y563D01*
X296Y563D02*
X301Y563D01*
X307Y563D02*
X313Y563D01*
X332Y563D02*
X341Y563D01*
X366Y563D02*
X371Y563D01*
X378Y563D02*
X383Y563D01*
X390Y563D02*
X395Y563D01*
X413Y563D02*
X419Y563D01*
X430Y563D02*
X436Y563D01*
X515Y563D02*
X521Y563D01*
X552Y563D02*
X563Y563D01*
X576Y563D02*
X581Y563D01*
X602Y563D02*
X607Y563D01*
X614Y563D02*
X619Y563D01*
X1244Y563D02*
X1251Y563D01*
X0Y562D02*
X7Y562D01*
X202Y562D02*
X207Y562D01*
X226Y562D02*
X231Y562D01*
X252Y562D02*
X257Y562D01*
X264Y562D02*
X269Y562D01*
X296Y562D02*
X301Y562D01*
X307Y562D02*
X313Y562D01*
X332Y562D02*
X341Y562D01*
X367Y562D02*
X370Y562D01*
X378Y562D02*
X383Y562D01*
X391Y562D02*
X394Y562D01*
X414Y562D02*
X420Y562D01*
X429Y562D02*
X435Y562D01*
X514Y562D02*
X521Y562D01*
X552Y562D02*
X564Y562D01*
X576Y562D02*
X581Y562D01*
X602Y562D02*
X607Y562D01*
X614Y562D02*
X620Y562D01*
X1244Y562D02*
X1251Y562D01*
X0Y561D02*
X7Y561D01*
X202Y561D02*
X207Y561D01*
X226Y561D02*
X231Y561D01*
X252Y561D02*
X257Y561D01*
X264Y561D02*
X270Y561D01*
X296Y561D02*
X301Y561D01*
X308Y561D02*
X314Y561D01*
X332Y561D02*
X341Y561D01*
X378Y561D02*
X383Y561D01*
X414Y561D02*
X420Y561D01*
X429Y561D02*
X435Y561D01*
X513Y561D02*
X520Y561D01*
X552Y561D02*
X564Y561D01*
X576Y561D02*
X581Y561D01*
X602Y561D02*
X607Y561D01*
X615Y561D02*
X620Y561D01*
X1244Y561D02*
X1251Y561D01*
X0Y560D02*
X7Y560D01*
X202Y560D02*
X207Y560D01*
X226Y560D02*
X231Y560D01*
X252Y560D02*
X257Y560D01*
X265Y560D02*
X270Y560D01*
X296Y560D02*
X301Y560D01*
X308Y560D02*
X314Y560D01*
X332Y560D02*
X341Y560D01*
X378Y560D02*
X383Y560D01*
X415Y560D02*
X421Y560D01*
X428Y560D02*
X434Y560D01*
X512Y560D02*
X519Y560D01*
X552Y560D02*
X557Y560D01*
X559Y560D02*
X565Y560D01*
X576Y560D02*
X581Y560D01*
X602Y560D02*
X607Y560D01*
X615Y560D02*
X621Y560D01*
X1244Y560D02*
X1251Y560D01*
X0Y559D02*
X7Y559D01*
X202Y559D02*
X207Y559D01*
X226Y559D02*
X231Y559D01*
X252Y559D02*
X257Y559D01*
X265Y559D02*
X271Y559D01*
X296Y559D02*
X301Y559D01*
X309Y559D02*
X315Y559D01*
X332Y559D02*
X341Y559D01*
X378Y559D02*
X383Y559D01*
X415Y559D02*
X422Y559D01*
X427Y559D02*
X433Y559D01*
X511Y559D02*
X518Y559D01*
X552Y559D02*
X557Y559D01*
X559Y559D02*
X565Y559D01*
X576Y559D02*
X581Y559D01*
X602Y559D02*
X607Y559D01*
X616Y559D02*
X621Y559D01*
X1244Y559D02*
X1251Y559D01*
X0Y558D02*
X7Y558D01*
X202Y558D02*
X208Y558D01*
X226Y558D02*
X231Y558D01*
X252Y558D02*
X257Y558D01*
X266Y558D02*
X271Y558D01*
X296Y558D02*
X301Y558D01*
X309Y558D02*
X315Y558D01*
X332Y558D02*
X341Y558D01*
X378Y558D02*
X383Y558D01*
X416Y558D02*
X422Y558D01*
X427Y558D02*
X433Y558D01*
X511Y558D02*
X517Y558D01*
X552Y558D02*
X557Y558D01*
X560Y558D02*
X565Y558D01*
X576Y558D02*
X581Y558D01*
X602Y558D02*
X607Y558D01*
X616Y558D02*
X622Y558D01*
X1244Y558D02*
X1251Y558D01*
X0Y557D02*
X7Y557D01*
X202Y557D02*
X208Y557D01*
X226Y557D02*
X231Y557D01*
X252Y557D02*
X257Y557D01*
X266Y557D02*
X272Y557D01*
X296Y557D02*
X301Y557D01*
X310Y557D02*
X316Y557D01*
X332Y557D02*
X341Y557D01*
X378Y557D02*
X383Y557D01*
X417Y557D02*
X423Y557D01*
X426Y557D02*
X432Y557D01*
X510Y557D02*
X517Y557D01*
X552Y557D02*
X557Y557D01*
X560Y557D02*
X566Y557D01*
X576Y557D02*
X581Y557D01*
X602Y557D02*
X607Y557D01*
X617Y557D02*
X622Y557D01*
X1244Y557D02*
X1251Y557D01*
X0Y556D02*
X7Y556D01*
X203Y556D02*
X208Y556D01*
X226Y556D02*
X231Y556D01*
X252Y556D02*
X257Y556D01*
X267Y556D02*
X272Y556D01*
X296Y556D02*
X301Y556D01*
X310Y556D02*
X316Y556D01*
X332Y556D02*
X341Y556D01*
X378Y556D02*
X383Y556D01*
X417Y556D02*
X423Y556D01*
X426Y556D02*
X432Y556D01*
X510Y556D02*
X516Y556D01*
X552Y556D02*
X557Y556D01*
X561Y556D02*
X566Y556D01*
X576Y556D02*
X581Y556D01*
X602Y556D02*
X607Y556D01*
X617Y556D02*
X623Y556D01*
X1244Y556D02*
X1251Y556D01*
X0Y555D02*
X7Y555D01*
X203Y555D02*
X209Y555D01*
X225Y555D02*
X231Y555D01*
X252Y555D02*
X257Y555D01*
X267Y555D02*
X273Y555D01*
X296Y555D02*
X301Y555D01*
X311Y555D02*
X317Y555D01*
X332Y555D02*
X341Y555D01*
X378Y555D02*
X383Y555D01*
X418Y555D02*
X431Y555D01*
X509Y555D02*
X515Y555D01*
X552Y555D02*
X557Y555D01*
X561Y555D02*
X567Y555D01*
X576Y555D02*
X581Y555D01*
X602Y555D02*
X607Y555D01*
X618Y555D02*
X623Y555D01*
X1244Y555D02*
X1251Y555D01*
X0Y554D02*
X7Y554D01*
X203Y554D02*
X209Y554D01*
X225Y554D02*
X230Y554D01*
X252Y554D02*
X257Y554D01*
X268Y554D02*
X273Y554D01*
X296Y554D02*
X301Y554D01*
X311Y554D02*
X317Y554D01*
X332Y554D02*
X341Y554D01*
X378Y554D02*
X383Y554D01*
X418Y554D02*
X431Y554D01*
X509Y554D02*
X514Y554D01*
X552Y554D02*
X557Y554D01*
X561Y554D02*
X567Y554D01*
X576Y554D02*
X581Y554D01*
X602Y554D02*
X607Y554D01*
X618Y554D02*
X624Y554D01*
X1244Y554D02*
X1251Y554D01*
X0Y553D02*
X7Y553D01*
X204Y553D02*
X209Y553D01*
X224Y553D02*
X230Y553D01*
X252Y553D02*
X257Y553D01*
X268Y553D02*
X274Y553D01*
X296Y553D02*
X301Y553D01*
X312Y553D02*
X318Y553D01*
X332Y553D02*
X341Y553D01*
X378Y553D02*
X383Y553D01*
X419Y553D02*
X430Y553D01*
X509Y553D02*
X514Y553D01*
X552Y553D02*
X557Y553D01*
X562Y553D02*
X568Y553D01*
X576Y553D02*
X581Y553D01*
X602Y553D02*
X607Y553D01*
X619Y553D02*
X624Y553D01*
X1244Y553D02*
X1251Y553D01*
X0Y552D02*
X7Y552D01*
X204Y552D02*
X210Y552D01*
X224Y552D02*
X230Y552D01*
X252Y552D02*
X257Y552D01*
X269Y552D02*
X274Y552D01*
X296Y552D02*
X301Y552D01*
X312Y552D02*
X318Y552D01*
X332Y552D02*
X341Y552D01*
X378Y552D02*
X383Y552D01*
X419Y552D02*
X429Y552D01*
X508Y552D02*
X514Y552D01*
X552Y552D02*
X557Y552D01*
X562Y552D02*
X568Y552D01*
X576Y552D02*
X581Y552D01*
X602Y552D02*
X607Y552D01*
X619Y552D02*
X625Y552D01*
X1244Y552D02*
X1251Y552D01*
X0Y551D02*
X7Y551D01*
X205Y551D02*
X210Y551D01*
X224Y551D02*
X229Y551D01*
X252Y551D02*
X257Y551D01*
X269Y551D02*
X275Y551D01*
X296Y551D02*
X301Y551D01*
X313Y551D02*
X318Y551D01*
X332Y551D02*
X341Y551D01*
X378Y551D02*
X383Y551D01*
X420Y551D02*
X429Y551D01*
X508Y551D02*
X513Y551D01*
X552Y551D02*
X557Y551D01*
X563Y551D02*
X568Y551D01*
X576Y551D02*
X581Y551D01*
X602Y551D02*
X607Y551D01*
X619Y551D02*
X625Y551D01*
X1244Y551D02*
X1251Y551D01*
X0Y550D02*
X7Y550D01*
X205Y550D02*
X211Y550D01*
X223Y550D02*
X229Y550D01*
X252Y550D02*
X257Y550D01*
X270Y550D02*
X275Y550D01*
X296Y550D02*
X301Y550D01*
X313Y550D02*
X319Y550D01*
X332Y550D02*
X341Y550D01*
X378Y550D02*
X383Y550D01*
X421Y550D02*
X428Y550D01*
X508Y550D02*
X513Y550D01*
X552Y550D02*
X557Y550D01*
X563Y550D02*
X569Y550D01*
X576Y550D02*
X581Y550D01*
X602Y550D02*
X607Y550D01*
X620Y550D02*
X625Y550D01*
X1244Y550D02*
X1251Y550D01*
X0Y549D02*
X7Y549D01*
X205Y549D02*
X211Y549D01*
X223Y549D02*
X228Y549D01*
X252Y549D02*
X257Y549D01*
X270Y549D02*
X275Y549D01*
X296Y549D02*
X301Y549D01*
X314Y549D02*
X319Y549D01*
X332Y549D02*
X341Y549D01*
X378Y549D02*
X383Y549D01*
X421Y549D02*
X428Y549D01*
X508Y549D02*
X513Y549D01*
X552Y549D02*
X557Y549D01*
X564Y549D02*
X569Y549D01*
X576Y549D02*
X581Y549D01*
X602Y549D02*
X607Y549D01*
X620Y549D02*
X625Y549D01*
X1244Y549D02*
X1251Y549D01*
X0Y548D02*
X7Y548D01*
X206Y548D02*
X211Y548D01*
X222Y548D02*
X228Y548D01*
X252Y548D02*
X257Y548D01*
X270Y548D02*
X275Y548D01*
X296Y548D02*
X301Y548D01*
X314Y548D02*
X319Y548D01*
X332Y548D02*
X341Y548D01*
X378Y548D02*
X383Y548D01*
X421Y548D02*
X428Y548D01*
X508Y548D02*
X513Y548D01*
X552Y548D02*
X557Y548D01*
X564Y548D02*
X570Y548D01*
X576Y548D02*
X581Y548D01*
X602Y548D02*
X607Y548D01*
X620Y548D02*
X625Y548D01*
X1244Y548D02*
X1251Y548D01*
X0Y547D02*
X7Y547D01*
X206Y547D02*
X212Y547D01*
X222Y547D02*
X228Y547D01*
X252Y547D02*
X257Y547D01*
X270Y547D02*
X275Y547D01*
X296Y547D02*
X301Y547D01*
X314Y547D02*
X319Y547D01*
X332Y547D02*
X341Y547D01*
X378Y547D02*
X383Y547D01*
X420Y547D02*
X428Y547D01*
X508Y547D02*
X513Y547D01*
X552Y547D02*
X557Y547D01*
X564Y547D02*
X570Y547D01*
X576Y547D02*
X581Y547D01*
X602Y547D02*
X607Y547D01*
X620Y547D02*
X625Y547D01*
X1244Y547D02*
X1251Y547D01*
X0Y546D02*
X7Y546D01*
X207Y546D02*
X212Y546D01*
X222Y546D02*
X227Y546D01*
X252Y546D02*
X257Y546D01*
X270Y546D02*
X275Y546D01*
X296Y546D02*
X301Y546D01*
X314Y546D02*
X319Y546D01*
X332Y546D02*
X341Y546D01*
X378Y546D02*
X383Y546D01*
X420Y546D02*
X429Y546D01*
X508Y546D02*
X513Y546D01*
X525Y546D02*
X537Y546D01*
X552Y546D02*
X557Y546D01*
X565Y546D02*
X571Y546D01*
X576Y546D02*
X581Y546D01*
X602Y546D02*
X607Y546D01*
X619Y546D02*
X625Y546D01*
X1244Y546D02*
X1251Y546D01*
X0Y545D02*
X7Y545D01*
X207Y545D02*
X213Y545D01*
X221Y545D02*
X227Y545D01*
X252Y545D02*
X257Y545D01*
X270Y545D02*
X275Y545D01*
X296Y545D02*
X301Y545D01*
X313Y545D02*
X319Y545D01*
X332Y545D02*
X341Y545D01*
X378Y545D02*
X383Y545D01*
X419Y545D02*
X430Y545D01*
X508Y545D02*
X513Y545D01*
X524Y545D02*
X537Y545D01*
X552Y545D02*
X557Y545D01*
X565Y545D02*
X571Y545D01*
X576Y545D02*
X581Y545D01*
X602Y545D02*
X607Y545D01*
X619Y545D02*
X624Y545D01*
X1244Y545D02*
X1251Y545D01*
X0Y544D02*
X7Y544D01*
X207Y544D02*
X213Y544D01*
X221Y544D02*
X226Y544D01*
X252Y544D02*
X257Y544D01*
X269Y544D02*
X275Y544D01*
X296Y544D02*
X301Y544D01*
X313Y544D02*
X319Y544D01*
X332Y544D02*
X341Y544D01*
X378Y544D02*
X383Y544D01*
X419Y544D02*
X430Y544D01*
X508Y544D02*
X513Y544D01*
X523Y544D02*
X537Y544D01*
X552Y544D02*
X557Y544D01*
X566Y544D02*
X572Y544D01*
X576Y544D02*
X581Y544D01*
X602Y544D02*
X607Y544D01*
X618Y544D02*
X624Y544D01*
X1244Y544D02*
X1251Y544D01*
X0Y543D02*
X7Y543D01*
X208Y543D02*
X213Y543D01*
X220Y543D02*
X226Y543D01*
X252Y543D02*
X257Y543D01*
X269Y543D02*
X274Y543D01*
X296Y543D02*
X301Y543D01*
X313Y543D02*
X318Y543D01*
X332Y543D02*
X341Y543D01*
X378Y543D02*
X383Y543D01*
X418Y543D02*
X431Y543D01*
X508Y543D02*
X513Y543D01*
X523Y543D02*
X537Y543D01*
X552Y543D02*
X557Y543D01*
X566Y543D02*
X572Y543D01*
X576Y543D02*
X581Y543D01*
X602Y543D02*
X607Y543D01*
X618Y543D02*
X624Y543D01*
X1244Y543D02*
X1251Y543D01*
X0Y542D02*
X7Y542D01*
X208Y542D02*
X214Y542D01*
X220Y542D02*
X226Y542D01*
X252Y542D02*
X257Y542D01*
X268Y542D02*
X274Y542D01*
X296Y542D02*
X301Y542D01*
X312Y542D02*
X318Y542D01*
X332Y542D02*
X341Y542D01*
X378Y542D02*
X383Y542D01*
X417Y542D02*
X431Y542D01*
X508Y542D02*
X513Y542D01*
X524Y542D02*
X537Y542D01*
X552Y542D02*
X557Y542D01*
X567Y542D02*
X572Y542D01*
X576Y542D02*
X581Y542D01*
X602Y542D02*
X607Y542D01*
X617Y542D02*
X623Y542D01*
X1244Y542D02*
X1251Y542D01*
X0Y541D02*
X7Y541D01*
X208Y541D02*
X214Y541D01*
X220Y541D02*
X225Y541D01*
X252Y541D02*
X257Y541D01*
X268Y541D02*
X274Y541D01*
X296Y541D02*
X301Y541D01*
X312Y541D02*
X317Y541D01*
X332Y541D02*
X341Y541D01*
X378Y541D02*
X383Y541D01*
X417Y541D02*
X423Y541D01*
X426Y541D02*
X432Y541D01*
X508Y541D02*
X513Y541D01*
X525Y541D02*
X537Y541D01*
X552Y541D02*
X557Y541D01*
X567Y541D02*
X573Y541D01*
X576Y541D02*
X581Y541D01*
X602Y541D02*
X607Y541D01*
X617Y541D02*
X623Y541D01*
X1244Y541D02*
X1251Y541D01*
X0Y540D02*
X7Y540D01*
X209Y540D02*
X214Y540D01*
X219Y540D02*
X225Y540D01*
X252Y540D02*
X257Y540D01*
X267Y540D02*
X273Y540D01*
X296Y540D02*
X301Y540D01*
X311Y540D02*
X317Y540D01*
X332Y540D02*
X341Y540D01*
X378Y540D02*
X383Y540D01*
X416Y540D02*
X422Y540D01*
X426Y540D02*
X433Y540D01*
X508Y540D02*
X513Y540D01*
X532Y540D02*
X537Y540D01*
X552Y540D02*
X557Y540D01*
X568Y540D02*
X573Y540D01*
X576Y540D02*
X581Y540D01*
X602Y540D02*
X607Y540D01*
X616Y540D02*
X622Y540D01*
X1244Y540D02*
X1251Y540D01*
X0Y539D02*
X7Y539D01*
X209Y539D02*
X215Y539D01*
X219Y539D02*
X225Y539D01*
X252Y539D02*
X257Y539D01*
X267Y539D02*
X273Y539D01*
X296Y539D02*
X301Y539D01*
X311Y539D02*
X317Y539D01*
X332Y539D02*
X341Y539D01*
X378Y539D02*
X383Y539D01*
X416Y539D02*
X422Y539D01*
X427Y539D02*
X433Y539D01*
X508Y539D02*
X513Y539D01*
X532Y539D02*
X537Y539D01*
X552Y539D02*
X557Y539D01*
X568Y539D02*
X574Y539D01*
X576Y539D02*
X581Y539D01*
X602Y539D02*
X607Y539D01*
X616Y539D02*
X622Y539D01*
X1244Y539D02*
X1251Y539D01*
X0Y538D02*
X7Y538D01*
X210Y538D02*
X215Y538D01*
X219Y538D02*
X224Y538D01*
X252Y538D02*
X257Y538D01*
X266Y538D02*
X272Y538D01*
X296Y538D02*
X301Y538D01*
X310Y538D02*
X316Y538D01*
X332Y538D02*
X341Y538D01*
X378Y538D02*
X383Y538D01*
X415Y538D02*
X421Y538D01*
X428Y538D02*
X434Y538D01*
X508Y538D02*
X513Y538D01*
X532Y538D02*
X537Y538D01*
X552Y538D02*
X557Y538D01*
X568Y538D02*
X574Y538D01*
X576Y538D02*
X581Y538D01*
X602Y538D02*
X607Y538D01*
X615Y538D02*
X621Y538D01*
X1244Y538D02*
X1251Y538D01*
X0Y537D02*
X7Y537D01*
X210Y537D02*
X216Y537D01*
X218Y537D02*
X224Y537D01*
X252Y537D02*
X257Y537D01*
X266Y537D02*
X272Y537D01*
X296Y537D02*
X301Y537D01*
X310Y537D02*
X316Y537D01*
X332Y537D02*
X341Y537D01*
X378Y537D02*
X383Y537D01*
X414Y537D02*
X421Y537D01*
X428Y537D02*
X434Y537D01*
X508Y537D02*
X513Y537D01*
X532Y537D02*
X537Y537D01*
X552Y537D02*
X557Y537D01*
X569Y537D02*
X581Y537D01*
X602Y537D02*
X607Y537D01*
X615Y537D02*
X621Y537D01*
X985Y537D02*
X1006Y537D01*
X1023Y537D02*
X1026Y537D01*
X1047Y537D02*
X1050Y537D01*
X1244Y537D02*
X1251Y537D01*
X0Y536D02*
X7Y536D01*
X210Y536D02*
X216Y536D01*
X218Y536D02*
X223Y536D01*
X252Y536D02*
X257Y536D01*
X265Y536D02*
X271Y536D01*
X296Y536D02*
X301Y536D01*
X309Y536D02*
X315Y536D01*
X332Y536D02*
X341Y536D01*
X378Y536D02*
X383Y536D01*
X414Y536D02*
X420Y536D01*
X429Y536D02*
X435Y536D01*
X508Y536D02*
X513Y536D01*
X532Y536D02*
X537Y536D01*
X552Y536D02*
X557Y536D01*
X569Y536D02*
X581Y536D01*
X602Y536D02*
X607Y536D01*
X614Y536D02*
X620Y536D01*
X985Y536D02*
X1007Y536D01*
X1023Y536D02*
X1027Y536D01*
X1046Y536D02*
X1051Y536D01*
X1244Y536D02*
X1251Y536D01*
X0Y535D02*
X7Y535D01*
X211Y535D02*
X223Y535D01*
X252Y535D02*
X257Y535D01*
X265Y535D02*
X271Y535D01*
X296Y535D02*
X301Y535D01*
X309Y535D02*
X315Y535D01*
X332Y535D02*
X341Y535D01*
X378Y535D02*
X383Y535D01*
X413Y535D02*
X419Y535D01*
X429Y535D02*
X436Y535D01*
X508Y535D02*
X513Y535D01*
X532Y535D02*
X537Y535D01*
X552Y535D02*
X557Y535D01*
X570Y535D02*
X581Y535D01*
X602Y535D02*
X607Y535D01*
X614Y535D02*
X620Y535D01*
X985Y535D02*
X1008Y535D01*
X1022Y535D02*
X1027Y535D01*
X1046Y535D02*
X1051Y535D01*
X1244Y535D02*
X1251Y535D01*
X0Y534D02*
X7Y534D01*
X211Y534D02*
X223Y534D01*
X252Y534D02*
X257Y534D01*
X264Y534D02*
X270Y534D01*
X296Y534D02*
X301Y534D01*
X308Y534D02*
X314Y534D01*
X332Y534D02*
X341Y534D01*
X378Y534D02*
X383Y534D01*
X413Y534D02*
X419Y534D01*
X430Y534D02*
X436Y534D01*
X508Y534D02*
X513Y534D01*
X532Y534D02*
X537Y534D01*
X552Y534D02*
X557Y534D01*
X570Y534D02*
X581Y534D01*
X602Y534D02*
X607Y534D01*
X613Y534D02*
X619Y534D01*
X985Y534D02*
X1008Y534D01*
X1022Y534D02*
X1027Y534D01*
X1046Y534D02*
X1051Y534D01*
X1244Y534D02*
X1251Y534D01*
X0Y533D02*
X7Y533D01*
X212Y533D02*
X222Y533D01*
X252Y533D02*
X257Y533D01*
X264Y533D02*
X270Y533D01*
X296Y533D02*
X301Y533D01*
X308Y533D02*
X314Y533D01*
X332Y533D02*
X341Y533D01*
X378Y533D02*
X383Y533D01*
X412Y533D02*
X418Y533D01*
X431Y533D02*
X437Y533D01*
X508Y533D02*
X514Y533D01*
X532Y533D02*
X537Y533D01*
X552Y533D02*
X557Y533D01*
X571Y533D02*
X581Y533D01*
X602Y533D02*
X607Y533D01*
X613Y533D02*
X619Y533D01*
X985Y533D02*
X1007Y533D01*
X1022Y533D02*
X1027Y533D01*
X1046Y533D02*
X1051Y533D01*
X1244Y533D02*
X1251Y533D01*
X0Y532D02*
X7Y532D01*
X212Y532D02*
X222Y532D01*
X252Y532D02*
X257Y532D01*
X263Y532D02*
X269Y532D01*
X296Y532D02*
X301Y532D01*
X307Y532D02*
X313Y532D01*
X332Y532D02*
X341Y532D01*
X378Y532D02*
X383Y532D01*
X412Y532D02*
X418Y532D01*
X431Y532D02*
X437Y532D01*
X509Y532D02*
X515Y532D01*
X531Y532D02*
X537Y532D01*
X552Y532D02*
X557Y532D01*
X571Y532D02*
X581Y532D01*
X602Y532D02*
X607Y532D01*
X612Y532D02*
X618Y532D01*
X985Y532D02*
X1006Y532D01*
X1022Y532D02*
X1027Y532D01*
X1046Y532D02*
X1051Y532D01*
X1244Y532D02*
X1251Y532D01*
X0Y531D02*
X7Y531D01*
X212Y531D02*
X221Y531D01*
X252Y531D02*
X257Y531D01*
X263Y531D02*
X269Y531D01*
X296Y531D02*
X301Y531D01*
X306Y531D02*
X313Y531D01*
X332Y531D02*
X341Y531D01*
X378Y531D02*
X383Y531D01*
X411Y531D02*
X417Y531D01*
X432Y531D02*
X438Y531D01*
X509Y531D02*
X537Y531D01*
X552Y531D02*
X557Y531D01*
X572Y531D02*
X581Y531D01*
X598Y531D02*
X618Y531D01*
X985Y531D02*
X990Y531D01*
X1022Y531D02*
X1027Y531D01*
X1046Y531D02*
X1051Y531D01*
X1244Y531D02*
X1251Y531D01*
X0Y530D02*
X7Y530D01*
X213Y530D02*
X221Y530D01*
X252Y530D02*
X257Y530D01*
X262Y530D02*
X268Y530D01*
X296Y530D02*
X301Y530D01*
X305Y530D02*
X312Y530D01*
X332Y530D02*
X341Y530D01*
X378Y530D02*
X383Y530D01*
X410Y530D02*
X417Y530D01*
X432Y530D02*
X438Y530D01*
X509Y530D02*
X536Y530D01*
X552Y530D02*
X557Y530D01*
X572Y530D02*
X581Y530D01*
X596Y530D02*
X617Y530D01*
X985Y530D02*
X990Y530D01*
X1022Y530D02*
X1027Y530D01*
X1046Y530D02*
X1051Y530D01*
X1244Y530D02*
X1251Y530D01*
X0Y529D02*
X7Y529D01*
X213Y529D02*
X221Y529D01*
X247Y529D02*
X268Y529D01*
X291Y529D02*
X312Y529D01*
X332Y529D02*
X341Y529D01*
X378Y529D02*
X383Y529D01*
X410Y529D02*
X416Y529D01*
X433Y529D02*
X439Y529D01*
X510Y529D02*
X536Y529D01*
X552Y529D02*
X557Y529D01*
X572Y529D02*
X581Y529D01*
X596Y529D02*
X617Y529D01*
X985Y529D02*
X990Y529D01*
X1022Y529D02*
X1027Y529D01*
X1046Y529D02*
X1051Y529D01*
X1244Y529D02*
X1251Y529D01*
X0Y528D02*
X7Y528D01*
X214Y528D02*
X220Y528D01*
X246Y528D02*
X267Y528D01*
X290Y528D02*
X311Y528D01*
X332Y528D02*
X341Y528D01*
X378Y528D02*
X383Y528D01*
X410Y528D02*
X415Y528D01*
X433Y528D02*
X439Y528D01*
X511Y528D02*
X535Y528D01*
X552Y528D02*
X557Y528D01*
X573Y528D02*
X581Y528D01*
X596Y528D02*
X616Y528D01*
X985Y528D02*
X990Y528D01*
X1022Y528D02*
X1027Y528D01*
X1046Y528D02*
X1051Y528D01*
X1244Y528D02*
X1251Y528D01*
X0Y527D02*
X7Y527D01*
X214Y527D02*
X220Y527D01*
X246Y527D02*
X267Y527D01*
X290Y527D02*
X310Y527D01*
X332Y527D02*
X341Y527D01*
X378Y527D02*
X383Y527D01*
X410Y527D02*
X415Y527D01*
X434Y527D02*
X439Y527D01*
X512Y527D02*
X534Y527D01*
X552Y527D02*
X557Y527D01*
X573Y527D02*
X581Y527D01*
X596Y527D02*
X615Y527D01*
X985Y527D02*
X990Y527D01*
X1022Y527D02*
X1027Y527D01*
X1046Y527D02*
X1051Y527D01*
X1244Y527D02*
X1251Y527D01*
X0Y526D02*
X7Y526D01*
X214Y526D02*
X219Y526D01*
X246Y526D02*
X266Y526D01*
X290Y526D02*
X309Y526D01*
X332Y526D02*
X341Y526D01*
X379Y526D02*
X382Y526D01*
X411Y526D02*
X414Y526D01*
X435Y526D02*
X438Y526D01*
X514Y526D02*
X532Y526D01*
X553Y526D02*
X556Y526D01*
X574Y526D02*
X581Y526D01*
X597Y526D02*
X613Y526D01*
X985Y526D02*
X990Y526D01*
X1022Y526D02*
X1027Y526D01*
X1046Y526D02*
X1051Y526D01*
X1244Y526D02*
X1251Y526D01*
X0Y525D02*
X7Y525D01*
X215Y525D02*
X219Y525D01*
X247Y525D02*
X264Y525D01*
X290Y525D02*
X308Y525D01*
X332Y525D02*
X341Y525D01*
X985Y525D02*
X990Y525D01*
X1022Y525D02*
X1027Y525D01*
X1046Y525D02*
X1051Y525D01*
X1244Y525D02*
X1251Y525D01*
X0Y524D02*
X7Y524D01*
X216Y524D02*
X218Y524D01*
X248Y524D02*
X262Y524D01*
X291Y524D02*
X306Y524D01*
X332Y524D02*
X341Y524D01*
X985Y524D02*
X990Y524D01*
X1022Y524D02*
X1028Y524D01*
X1046Y524D02*
X1051Y524D01*
X1244Y524D02*
X1251Y524D01*
X0Y523D02*
X7Y523D01*
X332Y523D02*
X341Y523D01*
X985Y523D02*
X990Y523D01*
X1022Y523D02*
X1028Y523D01*
X1045Y523D02*
X1051Y523D01*
X1244Y523D02*
X1251Y523D01*
X0Y522D02*
X7Y522D01*
X332Y522D02*
X341Y522D01*
X985Y522D02*
X990Y522D01*
X1023Y522D02*
X1028Y522D01*
X1045Y522D02*
X1050Y522D01*
X1244Y522D02*
X1251Y522D01*
X0Y521D02*
X7Y521D01*
X332Y521D02*
X341Y521D01*
X985Y521D02*
X990Y521D01*
X1023Y521D02*
X1029Y521D01*
X1044Y521D02*
X1050Y521D01*
X1244Y521D02*
X1251Y521D01*
X0Y520D02*
X7Y520D01*
X332Y520D02*
X341Y520D01*
X985Y520D02*
X990Y520D01*
X1024Y520D02*
X1029Y520D01*
X1044Y520D02*
X1050Y520D01*
X1244Y520D02*
X1251Y520D01*
X0Y519D02*
X7Y519D01*
X332Y519D02*
X341Y519D01*
X985Y519D02*
X990Y519D01*
X1024Y519D02*
X1030Y519D01*
X1044Y519D02*
X1049Y519D01*
X1244Y519D02*
X1251Y519D01*
X0Y518D02*
X7Y518D01*
X332Y518D02*
X341Y518D01*
X985Y518D02*
X990Y518D01*
X1024Y518D02*
X1030Y518D01*
X1043Y518D02*
X1049Y518D01*
X1244Y518D02*
X1251Y518D01*
X0Y517D02*
X7Y517D01*
X332Y517D02*
X341Y517D01*
X985Y517D02*
X1003Y517D01*
X1025Y517D02*
X1030Y517D01*
X1043Y517D02*
X1048Y517D01*
X1244Y517D02*
X1251Y517D01*
X0Y516D02*
X7Y516D01*
X332Y516D02*
X341Y516D01*
X985Y516D02*
X1005Y516D01*
X1025Y516D02*
X1031Y516D01*
X1042Y516D02*
X1048Y516D01*
X1244Y516D02*
X1251Y516D01*
X0Y515D02*
X7Y515D01*
X332Y515D02*
X341Y515D01*
X985Y515D02*
X1006Y515D01*
X1026Y515D02*
X1031Y515D01*
X1042Y515D02*
X1048Y515D01*
X1244Y515D02*
X1251Y515D01*
X0Y514D02*
X7Y514D01*
X332Y514D02*
X341Y514D01*
X539Y514D02*
X576Y514D01*
X985Y514D02*
X1007Y514D01*
X1026Y514D02*
X1031Y514D01*
X1042Y514D02*
X1047Y514D01*
X1244Y514D02*
X1251Y514D01*
X0Y513D02*
X7Y513D01*
X332Y513D02*
X341Y513D01*
X540Y513D02*
X576Y513D01*
X985Y513D02*
X1007Y513D01*
X1026Y513D02*
X1032Y513D01*
X1041Y513D02*
X1047Y513D01*
X1244Y513D02*
X1251Y513D01*
X0Y512D02*
X7Y512D01*
X332Y512D02*
X341Y512D01*
X541Y512D02*
X576Y512D01*
X985Y512D02*
X1008Y512D01*
X1027Y512D02*
X1032Y512D01*
X1041Y512D02*
X1046Y512D01*
X1244Y512D02*
X1251Y512D01*
X0Y511D02*
X7Y511D01*
X332Y511D02*
X341Y511D01*
X542Y511D02*
X576Y511D01*
X1002Y511D02*
X1008Y511D01*
X1027Y511D02*
X1033Y511D01*
X1040Y511D02*
X1046Y511D01*
X1244Y511D02*
X1251Y511D01*
X0Y510D02*
X7Y510D01*
X332Y510D02*
X341Y510D01*
X543Y510D02*
X576Y510D01*
X1003Y510D02*
X1008Y510D01*
X1027Y510D02*
X1033Y510D01*
X1040Y510D02*
X1046Y510D01*
X1244Y510D02*
X1251Y510D01*
X0Y509D02*
X7Y509D01*
X332Y509D02*
X341Y509D01*
X544Y509D02*
X576Y509D01*
X1003Y509D02*
X1008Y509D01*
X1028Y509D02*
X1033Y509D01*
X1040Y509D02*
X1045Y509D01*
X1244Y509D02*
X1251Y509D01*
X0Y508D02*
X7Y508D01*
X332Y508D02*
X341Y508D01*
X545Y508D02*
X576Y508D01*
X1003Y508D02*
X1008Y508D01*
X1028Y508D02*
X1034Y508D01*
X1039Y508D02*
X1045Y508D01*
X1244Y508D02*
X1251Y508D01*
X0Y507D02*
X7Y507D01*
X332Y507D02*
X341Y507D01*
X546Y507D02*
X576Y507D01*
X1003Y507D02*
X1008Y507D01*
X1029Y507D02*
X1034Y507D01*
X1039Y507D02*
X1044Y507D01*
X1244Y507D02*
X1251Y507D01*
X0Y506D02*
X7Y506D01*
X332Y506D02*
X341Y506D01*
X547Y506D02*
X576Y506D01*
X1003Y506D02*
X1008Y506D01*
X1029Y506D02*
X1035Y506D01*
X1039Y506D02*
X1044Y506D01*
X1244Y506D02*
X1251Y506D01*
X0Y505D02*
X7Y505D01*
X332Y505D02*
X341Y505D01*
X548Y505D02*
X576Y505D01*
X1003Y505D02*
X1008Y505D01*
X1029Y505D02*
X1035Y505D01*
X1038Y505D02*
X1044Y505D01*
X1244Y505D02*
X1251Y505D01*
X0Y504D02*
X7Y504D01*
X332Y504D02*
X341Y504D01*
X549Y504D02*
X576Y504D01*
X1003Y504D02*
X1008Y504D01*
X1030Y504D02*
X1035Y504D01*
X1038Y504D02*
X1043Y504D01*
X1244Y504D02*
X1251Y504D01*
X0Y503D02*
X7Y503D01*
X332Y503D02*
X341Y503D01*
X550Y503D02*
X576Y503D01*
X1003Y503D02*
X1008Y503D01*
X1030Y503D02*
X1043Y503D01*
X1244Y503D02*
X1251Y503D01*
X0Y502D02*
X7Y502D01*
X332Y502D02*
X341Y502D01*
X565Y502D02*
X576Y502D01*
X1003Y502D02*
X1008Y502D01*
X1031Y502D02*
X1042Y502D01*
X1244Y502D02*
X1251Y502D01*
X0Y501D02*
X7Y501D01*
X332Y501D02*
X341Y501D01*
X565Y501D02*
X576Y501D01*
X1003Y501D02*
X1008Y501D01*
X1031Y501D02*
X1042Y501D01*
X1244Y501D02*
X1251Y501D01*
X0Y500D02*
X7Y500D01*
X332Y500D02*
X341Y500D01*
X565Y500D02*
X576Y500D01*
X1003Y500D02*
X1008Y500D01*
X1031Y500D02*
X1042Y500D01*
X1244Y500D02*
X1251Y500D01*
X0Y499D02*
X7Y499D01*
X332Y499D02*
X341Y499D01*
X565Y499D02*
X576Y499D01*
X980Y499D02*
X982Y499D01*
X1003Y499D02*
X1008Y499D01*
X1032Y499D02*
X1041Y499D01*
X1244Y499D02*
X1251Y499D01*
X0Y498D02*
X7Y498D01*
X332Y498D02*
X341Y498D01*
X565Y498D02*
X576Y498D01*
X979Y498D02*
X985Y498D01*
X1003Y498D02*
X1008Y498D01*
X1032Y498D02*
X1041Y498D01*
X1244Y498D02*
X1251Y498D01*
X0Y497D02*
X7Y497D01*
X332Y497D02*
X341Y497D01*
X565Y497D02*
X576Y497D01*
X979Y497D02*
X987Y497D01*
X1002Y497D02*
X1008Y497D01*
X1033Y497D02*
X1041Y497D01*
X1244Y497D02*
X1251Y497D01*
X0Y496D02*
X7Y496D01*
X332Y496D02*
X341Y496D01*
X565Y496D02*
X576Y496D01*
X979Y496D02*
X1008Y496D01*
X1033Y496D02*
X1040Y496D01*
X1244Y496D02*
X1251Y496D01*
X0Y495D02*
X7Y495D01*
X332Y495D02*
X341Y495D01*
X565Y495D02*
X576Y495D01*
X979Y495D02*
X1007Y495D01*
X1033Y495D02*
X1040Y495D01*
X1244Y495D02*
X1251Y495D01*
X0Y494D02*
X7Y494D01*
X332Y494D02*
X341Y494D01*
X565Y494D02*
X576Y494D01*
X980Y494D02*
X1007Y494D01*
X1034Y494D02*
X1039Y494D01*
X1244Y494D02*
X1251Y494D01*
X0Y493D02*
X7Y493D01*
X332Y493D02*
X341Y493D01*
X565Y493D02*
X576Y493D01*
X982Y493D02*
X1006Y493D01*
X1034Y493D02*
X1039Y493D01*
X1244Y493D02*
X1251Y493D01*
X0Y492D02*
X7Y492D01*
X332Y492D02*
X341Y492D01*
X565Y492D02*
X576Y492D01*
X984Y492D02*
X1005Y492D01*
X1035Y492D02*
X1038Y492D01*
X1244Y492D02*
X1251Y492D01*
X0Y491D02*
X7Y491D01*
X332Y491D02*
X341Y491D01*
X565Y491D02*
X576Y491D01*
X987Y491D02*
X1003Y491D01*
X1036Y491D02*
X1037Y491D01*
X1244Y491D02*
X1251Y491D01*
X0Y490D02*
X7Y490D01*
X332Y490D02*
X341Y490D01*
X565Y490D02*
X576Y490D01*
X1244Y490D02*
X1251Y490D01*
X0Y489D02*
X7Y489D01*
X332Y489D02*
X341Y489D01*
X565Y489D02*
X576Y489D01*
X1244Y489D02*
X1251Y489D01*
X0Y488D02*
X7Y488D01*
X332Y488D02*
X341Y488D01*
X565Y488D02*
X576Y488D01*
X1244Y488D02*
X1251Y488D01*
X0Y487D02*
X7Y487D01*
X332Y487D02*
X341Y487D01*
X566Y487D02*
X576Y487D01*
X1244Y487D02*
X1251Y487D01*
X0Y486D02*
X7Y486D01*
X332Y486D02*
X341Y486D01*
X567Y486D02*
X576Y486D01*
X1244Y486D02*
X1251Y486D01*
X0Y485D02*
X7Y485D01*
X332Y485D02*
X341Y485D01*
X568Y485D02*
X576Y485D01*
X1244Y485D02*
X1251Y485D01*
X0Y484D02*
X7Y484D01*
X332Y484D02*
X341Y484D01*
X569Y484D02*
X576Y484D01*
X1244Y484D02*
X1251Y484D01*
X0Y483D02*
X7Y483D01*
X332Y483D02*
X341Y483D01*
X570Y483D02*
X576Y483D01*
X1244Y483D02*
X1251Y483D01*
X0Y482D02*
X7Y482D01*
X332Y482D02*
X341Y482D01*
X571Y482D02*
X576Y482D01*
X1244Y482D02*
X1251Y482D01*
X0Y481D02*
X7Y481D01*
X332Y481D02*
X341Y481D01*
X572Y481D02*
X576Y481D01*
X1244Y481D02*
X1251Y481D01*
X0Y480D02*
X7Y480D01*
X332Y480D02*
X341Y480D01*
X573Y480D02*
X576Y480D01*
X1244Y480D02*
X1251Y480D01*
X0Y479D02*
X7Y479D01*
X332Y479D02*
X341Y479D01*
X574Y479D02*
X576Y479D01*
X1244Y479D02*
X1251Y479D01*
X0Y478D02*
X7Y478D01*
X332Y478D02*
X341Y478D01*
X575Y478D02*
X576Y478D01*
X1244Y478D02*
X1251Y478D01*
X0Y477D02*
X7Y477D01*
X332Y477D02*
X341Y477D01*
X576Y477D02*
X576Y477D01*
X1244Y477D02*
X1251Y477D01*
X0Y476D02*
X7Y476D01*
X332Y476D02*
X341Y476D01*
X1244Y476D02*
X1251Y476D01*
X0Y475D02*
X7Y475D01*
X332Y475D02*
X341Y475D01*
X1244Y475D02*
X1251Y475D01*
X0Y474D02*
X7Y474D01*
X332Y474D02*
X341Y474D01*
X1244Y474D02*
X1251Y474D01*
X0Y473D02*
X7Y473D01*
X332Y473D02*
X341Y473D01*
X1244Y473D02*
X1251Y473D01*
X0Y472D02*
X7Y472D01*
X332Y472D02*
X341Y472D01*
X1244Y472D02*
X1251Y472D01*
X0Y471D02*
X7Y471D01*
X332Y471D02*
X341Y471D01*
X1244Y471D02*
X1251Y471D01*
X0Y470D02*
X7Y470D01*
X332Y470D02*
X341Y470D01*
X1244Y470D02*
X1251Y470D01*
X0Y469D02*
X7Y469D01*
X332Y469D02*
X341Y469D01*
X1244Y469D02*
X1251Y469D01*
X0Y468D02*
X7Y468D01*
X332Y468D02*
X341Y468D01*
X1244Y468D02*
X1251Y468D01*
X0Y467D02*
X7Y467D01*
X332Y467D02*
X341Y467D01*
X1244Y467D02*
X1251Y467D01*
X0Y466D02*
X7Y466D01*
X332Y466D02*
X341Y466D01*
X1244Y466D02*
X1251Y466D01*
X0Y465D02*
X7Y465D01*
X332Y465D02*
X341Y465D01*
X1244Y465D02*
X1251Y465D01*
X0Y464D02*
X7Y464D01*
X332Y464D02*
X341Y464D01*
X790Y464D02*
X799Y464D01*
X1244Y464D02*
X1251Y464D01*
X0Y463D02*
X7Y463D01*
X332Y463D02*
X341Y463D01*
X790Y463D02*
X799Y463D01*
X1244Y463D02*
X1251Y463D01*
X0Y462D02*
X7Y462D01*
X332Y462D02*
X341Y462D01*
X790Y462D02*
X799Y462D01*
X1244Y462D02*
X1251Y462D01*
X0Y461D02*
X7Y461D01*
X332Y461D02*
X341Y461D01*
X790Y461D02*
X799Y461D01*
X1244Y461D02*
X1251Y461D01*
X0Y460D02*
X7Y460D01*
X332Y460D02*
X341Y460D01*
X790Y460D02*
X799Y460D01*
X1244Y460D02*
X1251Y460D01*
X0Y459D02*
X7Y459D01*
X332Y459D02*
X341Y459D01*
X790Y459D02*
X799Y459D01*
X1244Y459D02*
X1251Y459D01*
X0Y458D02*
X7Y458D01*
X332Y458D02*
X341Y458D01*
X790Y458D02*
X799Y458D01*
X1244Y458D02*
X1251Y458D01*
X0Y457D02*
X7Y457D01*
X332Y457D02*
X341Y457D01*
X790Y457D02*
X799Y457D01*
X1244Y457D02*
X1251Y457D01*
X0Y456D02*
X7Y456D01*
X332Y456D02*
X341Y456D01*
X790Y456D02*
X799Y456D01*
X1244Y456D02*
X1251Y456D01*
X0Y455D02*
X7Y455D01*
X332Y455D02*
X341Y455D01*
X790Y455D02*
X799Y455D01*
X1244Y455D02*
X1251Y455D01*
X0Y454D02*
X7Y454D01*
X332Y454D02*
X341Y454D01*
X790Y454D02*
X799Y454D01*
X1244Y454D02*
X1251Y454D01*
X0Y453D02*
X7Y453D01*
X332Y453D02*
X341Y453D01*
X790Y453D02*
X799Y453D01*
X1244Y453D02*
X1251Y453D01*
X0Y452D02*
X7Y452D01*
X332Y452D02*
X341Y452D01*
X790Y452D02*
X799Y452D01*
X1244Y452D02*
X1251Y452D01*
X0Y451D02*
X7Y451D01*
X332Y451D02*
X341Y451D01*
X790Y451D02*
X799Y451D01*
X1244Y451D02*
X1251Y451D01*
X0Y450D02*
X7Y450D01*
X332Y450D02*
X341Y450D01*
X790Y450D02*
X799Y450D01*
X1244Y450D02*
X1251Y450D01*
X0Y449D02*
X7Y449D01*
X332Y449D02*
X341Y449D01*
X790Y449D02*
X799Y449D01*
X1244Y449D02*
X1251Y449D01*
X0Y448D02*
X7Y448D01*
X332Y448D02*
X341Y448D01*
X790Y448D02*
X799Y448D01*
X1244Y448D02*
X1251Y448D01*
X0Y447D02*
X7Y447D01*
X332Y447D02*
X341Y447D01*
X790Y447D02*
X799Y447D01*
X1244Y447D02*
X1251Y447D01*
X0Y446D02*
X7Y446D01*
X332Y446D02*
X341Y446D01*
X790Y446D02*
X799Y446D01*
X1244Y446D02*
X1251Y446D01*
X0Y445D02*
X7Y445D01*
X332Y445D02*
X341Y445D01*
X790Y445D02*
X799Y445D01*
X1244Y445D02*
X1251Y445D01*
X0Y444D02*
X7Y444D01*
X332Y444D02*
X341Y444D01*
X790Y444D02*
X799Y444D01*
X1244Y444D02*
X1251Y444D01*
X0Y443D02*
X7Y443D01*
X332Y443D02*
X341Y443D01*
X790Y443D02*
X799Y443D01*
X1244Y443D02*
X1251Y443D01*
X0Y442D02*
X7Y442D01*
X332Y442D02*
X341Y442D01*
X790Y442D02*
X799Y442D01*
X1244Y442D02*
X1251Y442D01*
X0Y441D02*
X7Y441D01*
X332Y441D02*
X341Y441D01*
X790Y441D02*
X799Y441D01*
X1244Y441D02*
X1251Y441D01*
X0Y440D02*
X7Y440D01*
X332Y440D02*
X341Y440D01*
X790Y440D02*
X799Y440D01*
X1244Y440D02*
X1251Y440D01*
X0Y439D02*
X7Y439D01*
X332Y439D02*
X341Y439D01*
X571Y439D02*
X573Y439D01*
X790Y439D02*
X799Y439D01*
X1244Y439D02*
X1251Y439D01*
X0Y438D02*
X7Y438D01*
X332Y438D02*
X341Y438D01*
X570Y438D02*
X575Y438D01*
X790Y438D02*
X799Y438D01*
X1244Y438D02*
X1251Y438D01*
X0Y437D02*
X7Y437D01*
X332Y437D02*
X341Y437D01*
X569Y437D02*
X575Y437D01*
X790Y437D02*
X799Y437D01*
X1244Y437D02*
X1251Y437D01*
X0Y436D02*
X7Y436D01*
X332Y436D02*
X341Y436D01*
X568Y436D02*
X576Y436D01*
X790Y436D02*
X799Y436D01*
X1244Y436D02*
X1251Y436D01*
X0Y435D02*
X7Y435D01*
X332Y435D02*
X341Y435D01*
X567Y435D02*
X576Y435D01*
X790Y435D02*
X799Y435D01*
X1244Y435D02*
X1251Y435D01*
X0Y434D02*
X7Y434D01*
X332Y434D02*
X341Y434D01*
X566Y434D02*
X576Y434D01*
X790Y434D02*
X799Y434D01*
X1244Y434D02*
X1251Y434D01*
X0Y433D02*
X7Y433D01*
X332Y433D02*
X341Y433D01*
X565Y433D02*
X575Y433D01*
X790Y433D02*
X799Y433D01*
X1244Y433D02*
X1251Y433D01*
X0Y432D02*
X7Y432D01*
X332Y432D02*
X341Y432D01*
X565Y432D02*
X574Y432D01*
X790Y432D02*
X799Y432D01*
X1244Y432D02*
X1251Y432D01*
X0Y431D02*
X7Y431D01*
X332Y431D02*
X341Y431D01*
X565Y431D02*
X573Y431D01*
X790Y431D02*
X799Y431D01*
X1244Y431D02*
X1251Y431D01*
X0Y430D02*
X7Y430D01*
X332Y430D02*
X341Y430D01*
X565Y430D02*
X572Y430D01*
X790Y430D02*
X799Y430D01*
X1244Y430D02*
X1251Y430D01*
X0Y429D02*
X7Y429D01*
X332Y429D02*
X341Y429D01*
X565Y429D02*
X571Y429D01*
X790Y429D02*
X799Y429D01*
X1244Y429D02*
X1251Y429D01*
X0Y428D02*
X7Y428D01*
X332Y428D02*
X341Y428D01*
X565Y428D02*
X570Y428D01*
X790Y428D02*
X799Y428D01*
X1244Y428D02*
X1251Y428D01*
X0Y427D02*
X7Y427D01*
X332Y427D02*
X341Y427D01*
X565Y427D02*
X569Y427D01*
X790Y427D02*
X799Y427D01*
X1244Y427D02*
X1251Y427D01*
X0Y426D02*
X7Y426D01*
X332Y426D02*
X341Y426D01*
X565Y426D02*
X568Y426D01*
X790Y426D02*
X799Y426D01*
X1244Y426D02*
X1251Y426D01*
X0Y425D02*
X7Y425D01*
X332Y425D02*
X341Y425D01*
X565Y425D02*
X567Y425D01*
X790Y425D02*
X799Y425D01*
X1244Y425D02*
X1251Y425D01*
X0Y424D02*
X7Y424D01*
X332Y424D02*
X341Y424D01*
X565Y424D02*
X566Y424D01*
X790Y424D02*
X799Y424D01*
X1244Y424D02*
X1251Y424D01*
X0Y423D02*
X7Y423D01*
X332Y423D02*
X341Y423D01*
X565Y423D02*
X565Y423D01*
X790Y423D02*
X799Y423D01*
X1244Y423D02*
X1251Y423D01*
X0Y422D02*
X7Y422D01*
X332Y422D02*
X341Y422D01*
X790Y422D02*
X799Y422D01*
X1244Y422D02*
X1251Y422D01*
X0Y421D02*
X7Y421D01*
X332Y421D02*
X341Y421D01*
X790Y421D02*
X799Y421D01*
X1244Y421D02*
X1251Y421D01*
X0Y420D02*
X7Y420D01*
X332Y420D02*
X341Y420D01*
X790Y420D02*
X799Y420D01*
X1244Y420D02*
X1251Y420D01*
X0Y419D02*
X7Y419D01*
X332Y419D02*
X341Y419D01*
X790Y419D02*
X799Y419D01*
X1244Y419D02*
X1251Y419D01*
X0Y418D02*
X7Y418D01*
X332Y418D02*
X341Y418D01*
X550Y418D02*
X560Y418D01*
X790Y418D02*
X799Y418D01*
X1244Y418D02*
X1251Y418D01*
X0Y417D02*
X7Y417D01*
X332Y417D02*
X341Y417D01*
X549Y417D02*
X559Y417D01*
X790Y417D02*
X799Y417D01*
X1244Y417D02*
X1251Y417D01*
X0Y416D02*
X7Y416D01*
X332Y416D02*
X341Y416D01*
X548Y416D02*
X558Y416D01*
X1244Y416D02*
X1251Y416D01*
X0Y415D02*
X7Y415D01*
X332Y415D02*
X341Y415D01*
X547Y415D02*
X557Y415D01*
X1244Y415D02*
X1251Y415D01*
X0Y414D02*
X7Y414D01*
X332Y414D02*
X341Y414D01*
X546Y414D02*
X556Y414D01*
X1244Y414D02*
X1251Y414D01*
X0Y413D02*
X7Y413D01*
X332Y413D02*
X341Y413D01*
X545Y413D02*
X555Y413D01*
X1244Y413D02*
X1251Y413D01*
X0Y412D02*
X7Y412D01*
X332Y412D02*
X341Y412D01*
X544Y412D02*
X554Y412D01*
X1244Y412D02*
X1251Y412D01*
X0Y411D02*
X7Y411D01*
X332Y411D02*
X341Y411D01*
X544Y411D02*
X553Y411D01*
X1244Y411D02*
X1251Y411D01*
X0Y410D02*
X7Y410D01*
X332Y410D02*
X341Y410D01*
X544Y410D02*
X552Y410D01*
X1244Y410D02*
X1251Y410D01*
X0Y409D02*
X7Y409D01*
X332Y409D02*
X341Y409D01*
X544Y409D02*
X551Y409D01*
X1244Y409D02*
X1251Y409D01*
X0Y408D02*
X7Y408D01*
X332Y408D02*
X341Y408D01*
X545Y408D02*
X550Y408D01*
X1244Y408D02*
X1251Y408D01*
X0Y407D02*
X7Y407D01*
X332Y407D02*
X341Y407D01*
X545Y407D02*
X549Y407D01*
X1244Y407D02*
X1251Y407D01*
X0Y406D02*
X7Y406D01*
X332Y406D02*
X341Y406D01*
X1244Y406D02*
X1251Y406D01*
X0Y405D02*
X7Y405D01*
X332Y405D02*
X341Y405D01*
X1244Y405D02*
X1251Y405D01*
X0Y404D02*
X7Y404D01*
X332Y404D02*
X341Y404D01*
X1244Y404D02*
X1251Y404D01*
X0Y403D02*
X7Y403D01*
X332Y403D02*
X341Y403D01*
X1244Y403D02*
X1251Y403D01*
X0Y402D02*
X7Y402D01*
X332Y402D02*
X341Y402D01*
X1244Y402D02*
X1251Y402D01*
X0Y401D02*
X7Y401D01*
X332Y401D02*
X341Y401D01*
X1244Y401D02*
X1251Y401D01*
X0Y400D02*
X7Y400D01*
X332Y400D02*
X341Y400D01*
X1244Y400D02*
X1251Y400D01*
X0Y399D02*
X7Y399D01*
X332Y399D02*
X341Y399D01*
X1244Y399D02*
X1251Y399D01*
X0Y398D02*
X7Y398D01*
X332Y398D02*
X341Y398D01*
X1244Y398D02*
X1251Y398D01*
X0Y397D02*
X7Y397D01*
X332Y397D02*
X341Y397D01*
X1244Y397D02*
X1251Y397D01*
X0Y396D02*
X7Y396D01*
X332Y396D02*
X341Y396D01*
X1244Y396D02*
X1251Y396D01*
X0Y395D02*
X7Y395D01*
X332Y395D02*
X341Y395D01*
X1244Y395D02*
X1251Y395D01*
X0Y394D02*
X7Y394D01*
X332Y394D02*
X341Y394D01*
X1244Y394D02*
X1251Y394D01*
X0Y393D02*
X7Y393D01*
X332Y393D02*
X341Y393D01*
X1244Y393D02*
X1251Y393D01*
X0Y392D02*
X7Y392D01*
X332Y392D02*
X341Y392D01*
X1244Y392D02*
X1251Y392D01*
X0Y391D02*
X7Y391D01*
X332Y391D02*
X341Y391D01*
X1244Y391D02*
X1251Y391D01*
X0Y390D02*
X7Y390D01*
X332Y390D02*
X341Y390D01*
X1244Y390D02*
X1251Y390D01*
X0Y389D02*
X7Y389D01*
X332Y389D02*
X341Y389D01*
X1244Y389D02*
X1251Y389D01*
X0Y388D02*
X7Y388D01*
X332Y388D02*
X341Y388D01*
X1244Y388D02*
X1251Y388D01*
X0Y387D02*
X7Y387D01*
X332Y387D02*
X341Y387D01*
X1244Y387D02*
X1251Y387D01*
X0Y386D02*
X7Y386D01*
X332Y386D02*
X341Y386D01*
X1244Y386D02*
X1251Y386D01*
X0Y385D02*
X7Y385D01*
X332Y385D02*
X341Y385D01*
X1244Y385D02*
X1251Y385D01*
X0Y384D02*
X7Y384D01*
X332Y384D02*
X341Y384D01*
X1244Y384D02*
X1251Y384D01*
X0Y383D02*
X7Y383D01*
X332Y383D02*
X341Y383D01*
X1244Y383D02*
X1251Y383D01*
X0Y382D02*
X7Y382D01*
X332Y382D02*
X341Y382D01*
X1244Y382D02*
X1251Y382D01*
X0Y381D02*
X7Y381D01*
X332Y381D02*
X341Y381D01*
X1244Y381D02*
X1251Y381D01*
X0Y380D02*
X7Y380D01*
X332Y380D02*
X341Y380D01*
X1244Y380D02*
X1251Y380D01*
X0Y379D02*
X7Y379D01*
X332Y379D02*
X341Y379D01*
X1244Y379D02*
X1251Y379D01*
X0Y378D02*
X7Y378D01*
X332Y378D02*
X341Y378D01*
X1244Y378D02*
X1251Y378D01*
X0Y377D02*
X7Y377D01*
X332Y377D02*
X341Y377D01*
X1244Y377D02*
X1251Y377D01*
X0Y376D02*
X7Y376D01*
X332Y376D02*
X341Y376D01*
X1244Y376D02*
X1251Y376D01*
X0Y375D02*
X7Y375D01*
X332Y375D02*
X341Y375D01*
X1244Y375D02*
X1251Y375D01*
X0Y374D02*
X7Y374D01*
X332Y374D02*
X341Y374D01*
X1244Y374D02*
X1251Y374D01*
X0Y373D02*
X7Y373D01*
X332Y373D02*
X341Y373D01*
X1244Y373D02*
X1251Y373D01*
X0Y372D02*
X7Y372D01*
X332Y372D02*
X341Y372D01*
X1244Y372D02*
X1251Y372D01*
X0Y371D02*
X7Y371D01*
X332Y371D02*
X341Y371D01*
X1244Y371D02*
X1251Y371D01*
X0Y370D02*
X7Y370D01*
X332Y370D02*
X341Y370D01*
X1244Y370D02*
X1251Y370D01*
X0Y369D02*
X7Y369D01*
X332Y369D02*
X341Y369D01*
X1244Y369D02*
X1251Y369D01*
X0Y368D02*
X7Y368D01*
X332Y368D02*
X341Y368D01*
X1244Y368D02*
X1251Y368D01*
X0Y367D02*
X7Y367D01*
X332Y367D02*
X341Y367D01*
X1244Y367D02*
X1251Y367D01*
X0Y366D02*
X7Y366D01*
X332Y366D02*
X341Y366D01*
X1244Y366D02*
X1251Y366D01*
X0Y365D02*
X7Y365D01*
X332Y365D02*
X341Y365D01*
X1244Y365D02*
X1251Y365D01*
X0Y364D02*
X7Y364D01*
X332Y364D02*
X341Y364D01*
X1244Y364D02*
X1251Y364D01*
X0Y363D02*
X7Y363D01*
X332Y363D02*
X341Y363D01*
X1244Y363D02*
X1251Y363D01*
X0Y362D02*
X7Y362D01*
X332Y362D02*
X341Y362D01*
X1244Y362D02*
X1251Y362D01*
X0Y361D02*
X7Y361D01*
X332Y361D02*
X341Y361D01*
X1244Y361D02*
X1251Y361D01*
X0Y360D02*
X7Y360D01*
X332Y360D02*
X341Y360D01*
X1244Y360D02*
X1251Y360D01*
X0Y359D02*
X7Y359D01*
X332Y359D02*
X341Y359D01*
X1244Y359D02*
X1251Y359D01*
X0Y358D02*
X7Y358D01*
X332Y358D02*
X341Y358D01*
X1244Y358D02*
X1251Y358D01*
X0Y357D02*
X7Y357D01*
X332Y357D02*
X341Y357D01*
X1244Y357D02*
X1251Y357D01*
X0Y356D02*
X7Y356D01*
X332Y356D02*
X341Y356D01*
X1244Y356D02*
X1251Y356D01*
X0Y355D02*
X7Y355D01*
X332Y355D02*
X341Y355D01*
X1244Y355D02*
X1251Y355D01*
X0Y354D02*
X7Y354D01*
X332Y354D02*
X341Y354D01*
X1244Y354D02*
X1251Y354D01*
X0Y353D02*
X7Y353D01*
X332Y353D02*
X341Y353D01*
X1244Y353D02*
X1251Y353D01*
X0Y352D02*
X7Y352D01*
X332Y352D02*
X341Y352D01*
X1244Y352D02*
X1251Y352D01*
X0Y351D02*
X7Y351D01*
X332Y351D02*
X341Y351D01*
X1244Y351D02*
X1251Y351D01*
X0Y350D02*
X7Y350D01*
X332Y350D02*
X341Y350D01*
X1244Y350D02*
X1251Y350D01*
X0Y349D02*
X7Y349D01*
X332Y349D02*
X341Y349D01*
X1244Y349D02*
X1251Y349D01*
X0Y348D02*
X7Y348D01*
X332Y348D02*
X341Y348D01*
X1244Y348D02*
X1251Y348D01*
X0Y347D02*
X7Y347D01*
X332Y347D02*
X341Y347D01*
X1244Y347D02*
X1251Y347D01*
X0Y346D02*
X7Y346D01*
X332Y346D02*
X341Y346D01*
X1244Y346D02*
X1251Y346D01*
X0Y345D02*
X7Y345D01*
X332Y345D02*
X341Y345D01*
X1244Y345D02*
X1251Y345D01*
X0Y344D02*
X7Y344D01*
X332Y344D02*
X341Y344D01*
X1244Y344D02*
X1251Y344D01*
X0Y343D02*
X7Y343D01*
X332Y343D02*
X341Y343D01*
X1244Y343D02*
X1251Y343D01*
X0Y342D02*
X7Y342D01*
X332Y342D02*
X341Y342D01*
X1244Y342D02*
X1251Y342D01*
X0Y341D02*
X7Y341D01*
X332Y341D02*
X341Y341D01*
X1244Y341D02*
X1251Y341D01*
X0Y340D02*
X7Y340D01*
X332Y340D02*
X341Y340D01*
X1244Y340D02*
X1251Y340D01*
X0Y339D02*
X7Y339D01*
X332Y339D02*
X341Y339D01*
X1244Y339D02*
X1251Y339D01*
X0Y338D02*
X7Y338D01*
X332Y338D02*
X341Y338D01*
X1244Y338D02*
X1251Y338D01*
X0Y337D02*
X7Y337D01*
X332Y337D02*
X341Y337D01*
X1244Y337D02*
X1251Y337D01*
X0Y336D02*
X7Y336D01*
X332Y336D02*
X341Y336D01*
X1244Y336D02*
X1251Y336D01*
X0Y335D02*
X7Y335D01*
X332Y335D02*
X341Y335D01*
X1244Y335D02*
X1251Y335D01*
X0Y334D02*
X7Y334D01*
X332Y334D02*
X341Y334D01*
X1244Y334D02*
X1251Y334D01*
X0Y333D02*
X7Y333D01*
X332Y333D02*
X341Y333D01*
X1244Y333D02*
X1251Y333D01*
X0Y332D02*
X7Y332D01*
X332Y332D02*
X341Y332D01*
X1244Y332D02*
X1251Y332D01*
X0Y331D02*
X7Y331D01*
X332Y331D02*
X341Y331D01*
X1244Y331D02*
X1251Y331D01*
X0Y330D02*
X7Y330D01*
X332Y330D02*
X341Y330D01*
X1244Y330D02*
X1251Y330D01*
X0Y329D02*
X7Y329D01*
X332Y329D02*
X341Y329D01*
X1244Y329D02*
X1251Y329D01*
X0Y328D02*
X7Y328D01*
X332Y328D02*
X341Y328D01*
X1244Y328D02*
X1251Y328D01*
X0Y327D02*
X7Y327D01*
X332Y327D02*
X341Y327D01*
X1244Y327D02*
X1251Y327D01*
X0Y326D02*
X7Y326D01*
X332Y326D02*
X341Y326D01*
X1244Y326D02*
X1251Y326D01*
X0Y325D02*
X7Y325D01*
X332Y325D02*
X341Y325D01*
X1244Y325D02*
X1251Y325D01*
X0Y324D02*
X7Y324D01*
X332Y324D02*
X341Y324D01*
X1244Y324D02*
X1251Y324D01*
X0Y323D02*
X7Y323D01*
X332Y323D02*
X341Y323D01*
X1244Y323D02*
X1251Y323D01*
X0Y322D02*
X7Y322D01*
X332Y322D02*
X341Y322D01*
X1244Y322D02*
X1251Y322D01*
X0Y321D02*
X7Y321D01*
X332Y321D02*
X341Y321D01*
X1244Y321D02*
X1251Y321D01*
X0Y320D02*
X7Y320D01*
X332Y320D02*
X341Y320D01*
X1244Y320D02*
X1251Y320D01*
X0Y319D02*
X7Y319D01*
X332Y319D02*
X341Y319D01*
X1244Y319D02*
X1251Y319D01*
X0Y318D02*
X7Y318D01*
X332Y318D02*
X341Y318D01*
X1244Y318D02*
X1251Y318D01*
X0Y317D02*
X7Y317D01*
X332Y317D02*
X341Y317D01*
X1244Y317D02*
X1251Y317D01*
X0Y316D02*
X7Y316D01*
X332Y316D02*
X341Y316D01*
X1244Y316D02*
X1251Y316D01*
X0Y315D02*
X7Y315D01*
X332Y315D02*
X341Y315D01*
X1244Y315D02*
X1251Y315D01*
X0Y314D02*
X7Y314D01*
X332Y314D02*
X341Y314D01*
X1244Y314D02*
X1251Y314D01*
X0Y313D02*
X7Y313D01*
X332Y313D02*
X341Y313D01*
X1244Y313D02*
X1251Y313D01*
X0Y312D02*
X7Y312D01*
X332Y312D02*
X341Y312D01*
X1244Y312D02*
X1251Y312D01*
X0Y311D02*
X7Y311D01*
X332Y311D02*
X341Y311D01*
X1244Y311D02*
X1251Y311D01*
X0Y310D02*
X7Y310D01*
X332Y310D02*
X341Y310D01*
X1244Y310D02*
X1251Y310D01*
X0Y309D02*
X7Y309D01*
X332Y309D02*
X341Y309D01*
X1244Y309D02*
X1251Y309D01*
X0Y308D02*
X7Y308D01*
X332Y308D02*
X341Y308D01*
X1244Y308D02*
X1251Y308D01*
X0Y307D02*
X7Y307D01*
X332Y307D02*
X341Y307D01*
X1244Y307D02*
X1251Y307D01*
X0Y306D02*
X7Y306D01*
X332Y306D02*
X341Y306D01*
X1244Y306D02*
X1251Y306D01*
X0Y305D02*
X7Y305D01*
X332Y305D02*
X341Y305D01*
X1244Y305D02*
X1251Y305D01*
X0Y304D02*
X7Y304D01*
X332Y304D02*
X341Y304D01*
X1244Y304D02*
X1251Y304D01*
X0Y303D02*
X7Y303D01*
X332Y303D02*
X341Y303D01*
X1244Y303D02*
X1251Y303D01*
X0Y302D02*
X7Y302D01*
X332Y302D02*
X341Y302D01*
X1244Y302D02*
X1251Y302D01*
X0Y301D02*
X7Y301D01*
X332Y301D02*
X341Y301D01*
X1244Y301D02*
X1251Y301D01*
X0Y300D02*
X7Y300D01*
X332Y300D02*
X341Y300D01*
X1244Y300D02*
X1251Y300D01*
X0Y299D02*
X7Y299D01*
X332Y299D02*
X341Y299D01*
X1244Y299D02*
X1251Y299D01*
X0Y298D02*
X7Y298D01*
X332Y298D02*
X341Y298D01*
X1244Y298D02*
X1251Y298D01*
X0Y297D02*
X7Y297D01*
X332Y297D02*
X341Y297D01*
X1244Y297D02*
X1251Y297D01*
X0Y296D02*
X7Y296D01*
X332Y296D02*
X341Y296D01*
X1244Y296D02*
X1251Y296D01*
X0Y295D02*
X7Y295D01*
X332Y295D02*
X341Y295D01*
X1244Y295D02*
X1251Y295D01*
X0Y294D02*
X7Y294D01*
X332Y294D02*
X341Y294D01*
X1244Y294D02*
X1251Y294D01*
X0Y293D02*
X7Y293D01*
X332Y293D02*
X341Y293D01*
X1244Y293D02*
X1251Y293D01*
X0Y292D02*
X7Y292D01*
X332Y292D02*
X341Y292D01*
X1244Y292D02*
X1251Y292D01*
X0Y291D02*
X7Y291D01*
X332Y291D02*
X341Y291D01*
X1244Y291D02*
X1251Y291D01*
X0Y290D02*
X7Y290D01*
X332Y290D02*
X341Y290D01*
X1244Y290D02*
X1251Y290D01*
X0Y289D02*
X7Y289D01*
X332Y289D02*
X341Y289D01*
X1244Y289D02*
X1251Y289D01*
X0Y288D02*
X7Y288D01*
X332Y288D02*
X341Y288D01*
X1244Y288D02*
X1251Y288D01*
X0Y287D02*
X7Y287D01*
X332Y287D02*
X341Y287D01*
X1244Y287D02*
X1251Y287D01*
X0Y286D02*
X7Y286D01*
X332Y286D02*
X341Y286D01*
X1244Y286D02*
X1251Y286D01*
X0Y285D02*
X7Y285D01*
X332Y285D02*
X341Y285D01*
X1244Y285D02*
X1251Y285D01*
X0Y284D02*
X7Y284D01*
X332Y284D02*
X341Y284D01*
X1244Y284D02*
X1251Y284D01*
X0Y283D02*
X7Y283D01*
X332Y283D02*
X341Y283D01*
X1244Y283D02*
X1251Y283D01*
X0Y282D02*
X7Y282D01*
X332Y282D02*
X341Y282D01*
X1244Y282D02*
X1251Y282D01*
X0Y281D02*
X7Y281D01*
X332Y281D02*
X341Y281D01*
X1244Y281D02*
X1251Y281D01*
X0Y280D02*
X7Y280D01*
X332Y280D02*
X341Y280D01*
X1244Y280D02*
X1251Y280D01*
X0Y279D02*
X7Y279D01*
X332Y279D02*
X341Y279D01*
X1244Y279D02*
X1251Y279D01*
X0Y278D02*
X7Y278D01*
X332Y278D02*
X341Y278D01*
X1244Y278D02*
X1251Y278D01*
X0Y277D02*
X7Y277D01*
X332Y277D02*
X341Y277D01*
X1244Y277D02*
X1251Y277D01*
X0Y276D02*
X7Y276D01*
X332Y276D02*
X341Y276D01*
X1244Y276D02*
X1251Y276D01*
X0Y275D02*
X7Y275D01*
X332Y275D02*
X341Y275D01*
X1244Y275D02*
X1251Y275D01*
X0Y274D02*
X7Y274D01*
X332Y274D02*
X341Y274D01*
X1244Y274D02*
X1251Y274D01*
X0Y273D02*
X7Y273D01*
X332Y273D02*
X341Y273D01*
X1244Y273D02*
X1251Y273D01*
X0Y272D02*
X7Y272D01*
X332Y272D02*
X341Y272D01*
X1244Y272D02*
X1251Y272D01*
X0Y271D02*
X7Y271D01*
X332Y271D02*
X341Y271D01*
X1244Y271D02*
X1251Y271D01*
X0Y270D02*
X7Y270D01*
X332Y270D02*
X341Y270D01*
X1244Y270D02*
X1251Y270D01*
X0Y269D02*
X7Y269D01*
X332Y269D02*
X341Y269D01*
X1244Y269D02*
X1251Y269D01*
X0Y268D02*
X7Y268D01*
X332Y268D02*
X341Y268D01*
X1244Y268D02*
X1251Y268D01*
X0Y267D02*
X7Y267D01*
X332Y267D02*
X341Y267D01*
X1244Y267D02*
X1251Y267D01*
X0Y266D02*
X7Y266D01*
X332Y266D02*
X341Y266D01*
X1244Y266D02*
X1251Y266D01*
X0Y265D02*
X7Y265D01*
X332Y265D02*
X341Y265D01*
X1244Y265D02*
X1251Y265D01*
X0Y264D02*
X7Y264D01*
X332Y264D02*
X341Y264D01*
X1244Y264D02*
X1251Y264D01*
X0Y263D02*
X7Y263D01*
X332Y263D02*
X341Y263D01*
X1244Y263D02*
X1251Y263D01*
X0Y262D02*
X7Y262D01*
X332Y262D02*
X341Y262D01*
X1244Y262D02*
X1251Y262D01*
X0Y261D02*
X7Y261D01*
X332Y261D02*
X341Y261D01*
X1244Y261D02*
X1251Y261D01*
X0Y260D02*
X7Y260D01*
X332Y260D02*
X341Y260D01*
X1244Y260D02*
X1251Y260D01*
X0Y259D02*
X7Y259D01*
X332Y259D02*
X341Y259D01*
X1244Y259D02*
X1251Y259D01*
X0Y258D02*
X7Y258D01*
X332Y258D02*
X341Y258D01*
X1244Y258D02*
X1251Y258D01*
X0Y257D02*
X7Y257D01*
X332Y257D02*
X341Y257D01*
X1244Y257D02*
X1251Y257D01*
X0Y256D02*
X7Y256D01*
X332Y256D02*
X341Y256D01*
X1244Y256D02*
X1251Y256D01*
X0Y255D02*
X7Y255D01*
X332Y255D02*
X341Y255D01*
X1244Y255D02*
X1251Y255D01*
X0Y254D02*
X7Y254D01*
X332Y254D02*
X341Y254D01*
X1244Y254D02*
X1251Y254D01*
X0Y253D02*
X7Y253D01*
X332Y253D02*
X341Y253D01*
X1244Y253D02*
X1251Y253D01*
X0Y252D02*
X7Y252D01*
X332Y252D02*
X341Y252D01*
X1244Y252D02*
X1251Y252D01*
X0Y251D02*
X7Y251D01*
X332Y251D02*
X341Y251D01*
X1244Y251D02*
X1251Y251D01*
X0Y250D02*
X7Y250D01*
X332Y250D02*
X341Y250D01*
X1244Y250D02*
X1251Y250D01*
X0Y249D02*
X7Y249D01*
X332Y249D02*
X341Y249D01*
X1244Y249D02*
X1251Y249D01*
X0Y248D02*
X7Y248D01*
X332Y248D02*
X341Y248D01*
X1244Y248D02*
X1251Y248D01*
X0Y247D02*
X7Y247D01*
X332Y247D02*
X341Y247D01*
X1244Y247D02*
X1251Y247D01*
X0Y246D02*
X7Y246D01*
X332Y246D02*
X341Y246D01*
X1244Y246D02*
X1251Y246D01*
X0Y245D02*
X7Y245D01*
X332Y245D02*
X341Y245D01*
X1244Y245D02*
X1251Y245D01*
X0Y244D02*
X7Y244D01*
X332Y244D02*
X341Y244D01*
X1244Y244D02*
X1251Y244D01*
X0Y243D02*
X7Y243D01*
X332Y243D02*
X341Y243D01*
X1244Y243D02*
X1251Y243D01*
X0Y242D02*
X7Y242D01*
X332Y242D02*
X341Y242D01*
X1244Y242D02*
X1251Y242D01*
X0Y241D02*
X7Y241D01*
X332Y241D02*
X341Y241D01*
X1244Y241D02*
X1251Y241D01*
X0Y240D02*
X7Y240D01*
X332Y240D02*
X341Y240D01*
X1244Y240D02*
X1251Y240D01*
X0Y239D02*
X7Y239D01*
X332Y239D02*
X341Y239D01*
X1244Y239D02*
X1251Y239D01*
X0Y238D02*
X7Y238D01*
X332Y238D02*
X341Y238D01*
X1244Y238D02*
X1251Y238D01*
X0Y237D02*
X7Y237D01*
X332Y237D02*
X341Y237D01*
X1244Y237D02*
X1251Y237D01*
X0Y236D02*
X7Y236D01*
X332Y236D02*
X341Y236D01*
X1244Y236D02*
X1251Y236D01*
X0Y235D02*
X7Y235D01*
X332Y235D02*
X341Y235D01*
X1244Y235D02*
X1251Y235D01*
X0Y234D02*
X7Y234D01*
X332Y234D02*
X341Y234D01*
X1244Y234D02*
X1251Y234D01*
X0Y233D02*
X7Y233D01*
X332Y233D02*
X341Y233D01*
X1244Y233D02*
X1251Y233D01*
X0Y232D02*
X7Y232D01*
X332Y232D02*
X341Y232D01*
X1244Y232D02*
X1251Y232D01*
X0Y231D02*
X7Y231D01*
X332Y231D02*
X341Y231D01*
X1244Y231D02*
X1251Y231D01*
X0Y230D02*
X7Y230D01*
X332Y230D02*
X341Y230D01*
X1244Y230D02*
X1251Y230D01*
X0Y229D02*
X7Y229D01*
X332Y229D02*
X341Y229D01*
X1244Y229D02*
X1251Y229D01*
X0Y228D02*
X7Y228D01*
X332Y228D02*
X341Y228D01*
X1244Y228D02*
X1251Y228D01*
X0Y227D02*
X7Y227D01*
X332Y227D02*
X341Y227D01*
X1244Y227D02*
X1251Y227D01*
X0Y226D02*
X7Y226D01*
X332Y226D02*
X341Y226D01*
X1244Y226D02*
X1251Y226D01*
X0Y225D02*
X7Y225D01*
X332Y225D02*
X341Y225D01*
X1244Y225D02*
X1251Y225D01*
X0Y224D02*
X7Y224D01*
X332Y224D02*
X341Y224D01*
X1244Y224D02*
X1251Y224D01*
X0Y223D02*
X7Y223D01*
X332Y223D02*
X341Y223D01*
X1244Y223D02*
X1251Y223D01*
X0Y222D02*
X7Y222D01*
X332Y222D02*
X341Y222D01*
X1244Y222D02*
X1251Y222D01*
X0Y221D02*
X7Y221D01*
X332Y221D02*
X341Y221D01*
X1244Y221D02*
X1251Y221D01*
X0Y220D02*
X7Y220D01*
X332Y220D02*
X341Y220D01*
X1244Y220D02*
X1251Y220D01*
X0Y219D02*
X7Y219D01*
X332Y219D02*
X341Y219D01*
X1244Y219D02*
X1251Y219D01*
X0Y218D02*
X7Y218D01*
X332Y218D02*
X341Y218D01*
X1244Y218D02*
X1251Y218D01*
X0Y217D02*
X7Y217D01*
X332Y217D02*
X341Y217D01*
X1244Y217D02*
X1251Y217D01*
X0Y216D02*
X7Y216D01*
X332Y216D02*
X341Y216D01*
X790Y216D02*
X799Y216D01*
X1244Y216D02*
X1251Y216D01*
X0Y215D02*
X7Y215D01*
X332Y215D02*
X341Y215D01*
X790Y215D02*
X799Y215D01*
X1244Y215D02*
X1251Y215D01*
X0Y214D02*
X7Y214D01*
X332Y214D02*
X341Y214D01*
X790Y214D02*
X799Y214D01*
X1244Y214D02*
X1251Y214D01*
X0Y213D02*
X7Y213D01*
X332Y213D02*
X341Y213D01*
X547Y213D02*
X548Y213D01*
X790Y213D02*
X799Y213D01*
X1244Y213D02*
X1251Y213D01*
X0Y212D02*
X7Y212D01*
X332Y212D02*
X341Y212D01*
X545Y212D02*
X550Y212D01*
X790Y212D02*
X799Y212D01*
X1244Y212D02*
X1251Y212D01*
X0Y211D02*
X7Y211D01*
X332Y211D02*
X341Y211D01*
X544Y211D02*
X551Y211D01*
X790Y211D02*
X799Y211D01*
X1244Y211D02*
X1251Y211D01*
X0Y210D02*
X7Y210D01*
X332Y210D02*
X341Y210D01*
X544Y210D02*
X552Y210D01*
X790Y210D02*
X799Y210D01*
X1244Y210D02*
X1251Y210D01*
X0Y209D02*
X7Y209D01*
X332Y209D02*
X341Y209D01*
X544Y209D02*
X553Y209D01*
X790Y209D02*
X799Y209D01*
X1244Y209D02*
X1251Y209D01*
X0Y208D02*
X7Y208D01*
X332Y208D02*
X341Y208D01*
X544Y208D02*
X554Y208D01*
X790Y208D02*
X799Y208D01*
X1244Y208D02*
X1251Y208D01*
X0Y207D02*
X7Y207D01*
X332Y207D02*
X341Y207D01*
X545Y207D02*
X555Y207D01*
X790Y207D02*
X799Y207D01*
X1244Y207D02*
X1251Y207D01*
X0Y206D02*
X7Y206D01*
X332Y206D02*
X341Y206D01*
X545Y206D02*
X556Y206D01*
X790Y206D02*
X799Y206D01*
X1244Y206D02*
X1251Y206D01*
X0Y205D02*
X7Y205D01*
X332Y205D02*
X341Y205D01*
X546Y205D02*
X557Y205D01*
X790Y205D02*
X799Y205D01*
X1244Y205D02*
X1251Y205D01*
X0Y204D02*
X7Y204D01*
X332Y204D02*
X341Y204D01*
X547Y204D02*
X558Y204D01*
X790Y204D02*
X799Y204D01*
X1244Y204D02*
X1251Y204D01*
X0Y203D02*
X7Y203D01*
X332Y203D02*
X341Y203D01*
X548Y203D02*
X559Y203D01*
X790Y203D02*
X799Y203D01*
X1244Y203D02*
X1251Y203D01*
X0Y202D02*
X7Y202D01*
X332Y202D02*
X341Y202D01*
X549Y202D02*
X560Y202D01*
X790Y202D02*
X799Y202D01*
X1244Y202D02*
X1251Y202D01*
X0Y201D02*
X7Y201D01*
X332Y201D02*
X341Y201D01*
X790Y201D02*
X799Y201D01*
X1244Y201D02*
X1251Y201D01*
X0Y200D02*
X7Y200D01*
X332Y200D02*
X341Y200D01*
X790Y200D02*
X799Y200D01*
X1244Y200D02*
X1251Y200D01*
X0Y199D02*
X7Y199D01*
X332Y199D02*
X341Y199D01*
X790Y199D02*
X799Y199D01*
X1244Y199D02*
X1251Y199D01*
X0Y198D02*
X7Y198D01*
X332Y198D02*
X341Y198D01*
X790Y198D02*
X799Y198D01*
X1244Y198D02*
X1251Y198D01*
X0Y197D02*
X7Y197D01*
X332Y197D02*
X341Y197D01*
X565Y197D02*
X565Y197D01*
X790Y197D02*
X799Y197D01*
X1244Y197D02*
X1251Y197D01*
X0Y196D02*
X7Y196D01*
X332Y196D02*
X341Y196D01*
X565Y196D02*
X566Y196D01*
X790Y196D02*
X799Y196D01*
X1244Y196D02*
X1251Y196D01*
X0Y195D02*
X7Y195D01*
X332Y195D02*
X341Y195D01*
X565Y195D02*
X567Y195D01*
X790Y195D02*
X799Y195D01*
X1244Y195D02*
X1251Y195D01*
X0Y194D02*
X7Y194D01*
X332Y194D02*
X341Y194D01*
X565Y194D02*
X568Y194D01*
X790Y194D02*
X799Y194D01*
X1244Y194D02*
X1251Y194D01*
X0Y193D02*
X7Y193D01*
X332Y193D02*
X341Y193D01*
X565Y193D02*
X569Y193D01*
X790Y193D02*
X799Y193D01*
X1244Y193D02*
X1251Y193D01*
X0Y192D02*
X7Y192D01*
X332Y192D02*
X341Y192D01*
X565Y192D02*
X570Y192D01*
X790Y192D02*
X799Y192D01*
X1244Y192D02*
X1251Y192D01*
X0Y191D02*
X7Y191D01*
X332Y191D02*
X341Y191D01*
X565Y191D02*
X571Y191D01*
X790Y191D02*
X799Y191D01*
X1244Y191D02*
X1251Y191D01*
X0Y190D02*
X7Y190D01*
X332Y190D02*
X341Y190D01*
X565Y190D02*
X572Y190D01*
X790Y190D02*
X799Y190D01*
X1244Y190D02*
X1251Y190D01*
X0Y189D02*
X7Y189D01*
X332Y189D02*
X341Y189D01*
X565Y189D02*
X573Y189D01*
X790Y189D02*
X799Y189D01*
X1244Y189D02*
X1251Y189D01*
X0Y188D02*
X7Y188D01*
X332Y188D02*
X341Y188D01*
X565Y188D02*
X574Y188D01*
X790Y188D02*
X799Y188D01*
X1244Y188D02*
X1251Y188D01*
X0Y187D02*
X7Y187D01*
X332Y187D02*
X341Y187D01*
X565Y187D02*
X574Y187D01*
X790Y187D02*
X799Y187D01*
X1244Y187D02*
X1251Y187D01*
X0Y186D02*
X7Y186D01*
X332Y186D02*
X341Y186D01*
X565Y186D02*
X575Y186D01*
X790Y186D02*
X799Y186D01*
X1244Y186D02*
X1251Y186D01*
X0Y185D02*
X7Y185D01*
X332Y185D02*
X341Y185D01*
X566Y185D02*
X576Y185D01*
X790Y185D02*
X799Y185D01*
X1244Y185D02*
X1251Y185D01*
X0Y184D02*
X7Y184D01*
X332Y184D02*
X341Y184D01*
X567Y184D02*
X576Y184D01*
X790Y184D02*
X799Y184D01*
X1244Y184D02*
X1251Y184D01*
X0Y183D02*
X7Y183D01*
X332Y183D02*
X341Y183D01*
X568Y183D02*
X576Y183D01*
X790Y183D02*
X799Y183D01*
X1244Y183D02*
X1251Y183D01*
X0Y182D02*
X7Y182D01*
X332Y182D02*
X341Y182D01*
X569Y182D02*
X575Y182D01*
X790Y182D02*
X799Y182D01*
X1244Y182D02*
X1251Y182D01*
X0Y181D02*
X7Y181D01*
X332Y181D02*
X341Y181D01*
X570Y181D02*
X574Y181D01*
X790Y181D02*
X799Y181D01*
X1244Y181D02*
X1251Y181D01*
X0Y180D02*
X7Y180D01*
X332Y180D02*
X341Y180D01*
X790Y180D02*
X799Y180D01*
X1244Y180D02*
X1251Y180D01*
X0Y179D02*
X7Y179D01*
X332Y179D02*
X341Y179D01*
X790Y179D02*
X799Y179D01*
X1244Y179D02*
X1251Y179D01*
X0Y178D02*
X7Y178D01*
X332Y178D02*
X341Y178D01*
X790Y178D02*
X799Y178D01*
X1244Y178D02*
X1251Y178D01*
X0Y177D02*
X7Y177D01*
X332Y177D02*
X341Y177D01*
X790Y177D02*
X799Y177D01*
X1244Y177D02*
X1251Y177D01*
X0Y176D02*
X7Y176D01*
X332Y176D02*
X341Y176D01*
X790Y176D02*
X799Y176D01*
X1244Y176D02*
X1251Y176D01*
X0Y175D02*
X7Y175D01*
X332Y175D02*
X341Y175D01*
X790Y175D02*
X799Y175D01*
X1244Y175D02*
X1251Y175D01*
X0Y174D02*
X7Y174D01*
X332Y174D02*
X341Y174D01*
X790Y174D02*
X799Y174D01*
X1244Y174D02*
X1251Y174D01*
X0Y173D02*
X7Y173D01*
X332Y173D02*
X341Y173D01*
X790Y173D02*
X799Y173D01*
X1244Y173D02*
X1251Y173D01*
X0Y172D02*
X7Y172D01*
X332Y172D02*
X341Y172D01*
X790Y172D02*
X799Y172D01*
X1244Y172D02*
X1251Y172D01*
X0Y171D02*
X7Y171D01*
X332Y171D02*
X341Y171D01*
X790Y171D02*
X799Y171D01*
X1244Y171D02*
X1251Y171D01*
X0Y170D02*
X7Y170D01*
X332Y170D02*
X341Y170D01*
X790Y170D02*
X799Y170D01*
X1244Y170D02*
X1251Y170D01*
X0Y169D02*
X7Y169D01*
X332Y169D02*
X341Y169D01*
X790Y169D02*
X799Y169D01*
X1244Y169D02*
X1251Y169D01*
X0Y168D02*
X7Y168D01*
X332Y168D02*
X341Y168D01*
X790Y168D02*
X799Y168D01*
X1244Y168D02*
X1251Y168D01*
X0Y167D02*
X7Y167D01*
X332Y167D02*
X341Y167D01*
X790Y167D02*
X799Y167D01*
X1244Y167D02*
X1251Y167D01*
X0Y166D02*
X7Y166D01*
X332Y166D02*
X341Y166D01*
X790Y166D02*
X799Y166D01*
X1244Y166D02*
X1251Y166D01*
X0Y165D02*
X7Y165D01*
X332Y165D02*
X341Y165D01*
X790Y165D02*
X799Y165D01*
X1244Y165D02*
X1251Y165D01*
X0Y164D02*
X7Y164D01*
X332Y164D02*
X341Y164D01*
X790Y164D02*
X799Y164D01*
X1244Y164D02*
X1251Y164D01*
X0Y163D02*
X7Y163D01*
X332Y163D02*
X341Y163D01*
X790Y163D02*
X799Y163D01*
X1244Y163D02*
X1251Y163D01*
X0Y162D02*
X7Y162D01*
X332Y162D02*
X341Y162D01*
X790Y162D02*
X799Y162D01*
X1244Y162D02*
X1251Y162D01*
X0Y161D02*
X7Y161D01*
X332Y161D02*
X341Y161D01*
X790Y161D02*
X799Y161D01*
X1244Y161D02*
X1251Y161D01*
X0Y160D02*
X7Y160D01*
X332Y160D02*
X341Y160D01*
X790Y160D02*
X799Y160D01*
X1244Y160D02*
X1251Y160D01*
X0Y159D02*
X7Y159D01*
X332Y159D02*
X341Y159D01*
X790Y159D02*
X799Y159D01*
X1244Y159D02*
X1251Y159D01*
X0Y158D02*
X7Y158D01*
X332Y158D02*
X341Y158D01*
X790Y158D02*
X799Y158D01*
X1244Y158D02*
X1251Y158D01*
X0Y157D02*
X7Y157D01*
X332Y157D02*
X341Y157D01*
X790Y157D02*
X799Y157D01*
X1244Y157D02*
X1251Y157D01*
X0Y156D02*
X7Y156D01*
X332Y156D02*
X341Y156D01*
X790Y156D02*
X799Y156D01*
X1244Y156D02*
X1251Y156D01*
X0Y155D02*
X7Y155D01*
X332Y155D02*
X341Y155D01*
X790Y155D02*
X799Y155D01*
X1244Y155D02*
X1251Y155D01*
X0Y154D02*
X7Y154D01*
X332Y154D02*
X341Y154D01*
X790Y154D02*
X799Y154D01*
X1244Y154D02*
X1251Y154D01*
X0Y153D02*
X7Y153D01*
X332Y153D02*
X341Y153D01*
X790Y153D02*
X799Y153D01*
X1244Y153D02*
X1251Y153D01*
X0Y152D02*
X7Y152D01*
X332Y152D02*
X341Y152D01*
X790Y152D02*
X799Y152D01*
X1244Y152D02*
X1251Y152D01*
X0Y151D02*
X7Y151D01*
X332Y151D02*
X341Y151D01*
X790Y151D02*
X799Y151D01*
X1244Y151D02*
X1251Y151D01*
X0Y150D02*
X7Y150D01*
X332Y150D02*
X341Y150D01*
X790Y150D02*
X799Y150D01*
X1244Y150D02*
X1251Y150D01*
X0Y149D02*
X7Y149D01*
X332Y149D02*
X341Y149D01*
X1244Y149D02*
X1251Y149D01*
X0Y148D02*
X7Y148D01*
X332Y148D02*
X341Y148D01*
X1244Y148D02*
X1251Y148D01*
X0Y147D02*
X7Y147D01*
X332Y147D02*
X341Y147D01*
X1244Y147D02*
X1251Y147D01*
X0Y146D02*
X7Y146D01*
X332Y146D02*
X341Y146D01*
X1244Y146D02*
X1251Y146D01*
X0Y145D02*
X7Y145D01*
X332Y145D02*
X341Y145D01*
X1244Y145D02*
X1251Y145D01*
X0Y144D02*
X7Y144D01*
X332Y144D02*
X341Y144D01*
X1244Y144D02*
X1251Y144D01*
X0Y143D02*
X7Y143D01*
X332Y143D02*
X341Y143D01*
X1244Y143D02*
X1251Y143D01*
X0Y142D02*
X7Y142D01*
X332Y142D02*
X341Y142D01*
X1244Y142D02*
X1251Y142D01*
X0Y141D02*
X7Y141D01*
X332Y141D02*
X341Y141D01*
X1244Y141D02*
X1251Y141D01*
X0Y140D02*
X7Y140D01*
X332Y140D02*
X341Y140D01*
X1244Y140D02*
X1251Y140D01*
X0Y139D02*
X7Y139D01*
X332Y139D02*
X341Y139D01*
X1244Y139D02*
X1251Y139D01*
X0Y138D02*
X7Y138D01*
X332Y138D02*
X341Y138D01*
X1244Y138D02*
X1251Y138D01*
X0Y137D02*
X7Y137D01*
X332Y137D02*
X341Y137D01*
X571Y137D02*
X574Y137D01*
X1244Y137D02*
X1251Y137D01*
X0Y136D02*
X7Y136D01*
X332Y136D02*
X341Y136D01*
X569Y136D02*
X575Y136D01*
X1244Y136D02*
X1251Y136D01*
X0Y135D02*
X7Y135D01*
X332Y135D02*
X341Y135D01*
X568Y135D02*
X576Y135D01*
X1244Y135D02*
X1251Y135D01*
X0Y134D02*
X7Y134D01*
X332Y134D02*
X341Y134D01*
X567Y134D02*
X576Y134D01*
X1244Y134D02*
X1251Y134D01*
X0Y133D02*
X7Y133D01*
X332Y133D02*
X341Y133D01*
X566Y133D02*
X576Y133D01*
X1244Y133D02*
X1251Y133D01*
X0Y132D02*
X7Y132D01*
X332Y132D02*
X341Y132D01*
X565Y132D02*
X575Y132D01*
X1244Y132D02*
X1251Y132D01*
X0Y131D02*
X7Y131D01*
X332Y131D02*
X341Y131D01*
X565Y131D02*
X575Y131D01*
X1244Y131D02*
X1251Y131D01*
X0Y130D02*
X7Y130D01*
X332Y130D02*
X341Y130D01*
X565Y130D02*
X574Y130D01*
X1244Y130D02*
X1251Y130D01*
X0Y129D02*
X7Y129D01*
X332Y129D02*
X341Y129D01*
X565Y129D02*
X573Y129D01*
X1244Y129D02*
X1251Y129D01*
X0Y128D02*
X7Y128D01*
X332Y128D02*
X341Y128D01*
X565Y128D02*
X572Y128D01*
X1244Y128D02*
X1251Y128D01*
X0Y127D02*
X7Y127D01*
X332Y127D02*
X341Y127D01*
X565Y127D02*
X571Y127D01*
X1244Y127D02*
X1251Y127D01*
X0Y126D02*
X7Y126D01*
X332Y126D02*
X341Y126D01*
X565Y126D02*
X570Y126D01*
X1244Y126D02*
X1251Y126D01*
X0Y125D02*
X7Y125D01*
X332Y125D02*
X341Y125D01*
X565Y125D02*
X569Y125D01*
X1244Y125D02*
X1251Y125D01*
X0Y124D02*
X7Y124D01*
X332Y124D02*
X341Y124D01*
X565Y124D02*
X568Y124D01*
X1244Y124D02*
X1251Y124D01*
X0Y123D02*
X7Y123D01*
X332Y123D02*
X341Y123D01*
X565Y123D02*
X567Y123D01*
X1244Y123D02*
X1251Y123D01*
X0Y122D02*
X7Y122D01*
X332Y122D02*
X341Y122D01*
X565Y122D02*
X566Y122D01*
X1244Y122D02*
X1251Y122D01*
X0Y121D02*
X7Y121D01*
X332Y121D02*
X341Y121D01*
X565Y121D02*
X565Y121D01*
X1244Y121D02*
X1251Y121D01*
X0Y120D02*
X7Y120D01*
X332Y120D02*
X341Y120D01*
X1244Y120D02*
X1251Y120D01*
X0Y119D02*
X7Y119D01*
X332Y119D02*
X341Y119D01*
X1244Y119D02*
X1251Y119D01*
X0Y118D02*
X7Y118D01*
X332Y118D02*
X341Y118D01*
X1244Y118D02*
X1251Y118D01*
X0Y117D02*
X7Y117D01*
X332Y117D02*
X341Y117D01*
X1244Y117D02*
X1251Y117D01*
X0Y116D02*
X7Y116D01*
X332Y116D02*
X341Y116D01*
X550Y116D02*
X560Y116D01*
X1244Y116D02*
X1251Y116D01*
X0Y115D02*
X7Y115D01*
X332Y115D02*
X341Y115D01*
X549Y115D02*
X559Y115D01*
X1244Y115D02*
X1251Y115D01*
X0Y114D02*
X7Y114D01*
X332Y114D02*
X341Y114D01*
X548Y114D02*
X558Y114D01*
X1244Y114D02*
X1251Y114D01*
X0Y113D02*
X7Y113D01*
X332Y113D02*
X341Y113D01*
X547Y113D02*
X557Y113D01*
X1244Y113D02*
X1251Y113D01*
X0Y112D02*
X7Y112D01*
X332Y112D02*
X341Y112D01*
X546Y112D02*
X556Y112D01*
X1244Y112D02*
X1251Y112D01*
X0Y111D02*
X7Y111D01*
X332Y111D02*
X341Y111D01*
X545Y111D02*
X555Y111D01*
X1244Y111D02*
X1251Y111D01*
X0Y110D02*
X7Y110D01*
X332Y110D02*
X341Y110D01*
X544Y110D02*
X554Y110D01*
X1244Y110D02*
X1251Y110D01*
X0Y109D02*
X7Y109D01*
X332Y109D02*
X341Y109D01*
X544Y109D02*
X553Y109D01*
X1244Y109D02*
X1251Y109D01*
X0Y108D02*
X7Y108D01*
X332Y108D02*
X341Y108D01*
X544Y108D02*
X552Y108D01*
X1244Y108D02*
X1251Y108D01*
X0Y107D02*
X7Y107D01*
X332Y107D02*
X341Y107D01*
X544Y107D02*
X551Y107D01*
X1244Y107D02*
X1251Y107D01*
X0Y106D02*
X7Y106D01*
X332Y106D02*
X341Y106D01*
X545Y106D02*
X550Y106D01*
X1244Y106D02*
X1251Y106D01*
X0Y105D02*
X7Y105D01*
X332Y105D02*
X341Y105D01*
X546Y105D02*
X549Y105D01*
X1244Y105D02*
X1251Y105D01*
X0Y104D02*
X7Y104D01*
X332Y104D02*
X341Y104D01*
X952Y104D02*
X961Y104D01*
X978Y104D02*
X985Y104D01*
X1004Y104D02*
X1004Y104D01*
X1024Y104D02*
X1034Y104D01*
X1244Y104D02*
X1251Y104D01*
X0Y103D02*
X7Y103D01*
X332Y103D02*
X341Y103D01*
X948Y103D02*
X963Y103D01*
X978Y103D02*
X985Y103D01*
X1002Y103D02*
X1006Y103D01*
X1022Y103D02*
X1038Y103D01*
X1244Y103D02*
X1251Y103D01*
X0Y102D02*
X7Y102D01*
X332Y102D02*
X341Y102D01*
X947Y102D02*
X963Y102D01*
X978Y102D02*
X986Y102D01*
X1002Y102D02*
X1006Y102D01*
X1021Y102D02*
X1040Y102D01*
X1244Y102D02*
X1251Y102D01*
X0Y101D02*
X7Y101D01*
X332Y101D02*
X341Y101D01*
X946Y101D02*
X963Y101D01*
X978Y101D02*
X986Y101D01*
X1002Y101D02*
X1007Y101D01*
X1021Y101D02*
X1041Y101D01*
X1244Y101D02*
X1251Y101D01*
X0Y100D02*
X7Y100D01*
X332Y100D02*
X341Y100D01*
X945Y100D02*
X963Y100D01*
X978Y100D02*
X987Y100D01*
X1002Y100D02*
X1007Y100D01*
X1021Y100D02*
X1041Y100D01*
X1244Y100D02*
X1251Y100D01*
X0Y99D02*
X7Y99D01*
X332Y99D02*
X341Y99D01*
X944Y99D02*
X963Y99D01*
X978Y99D02*
X987Y99D01*
X1002Y99D02*
X1007Y99D01*
X1022Y99D02*
X1042Y99D01*
X1244Y99D02*
X1251Y99D01*
X0Y98D02*
X7Y98D01*
X332Y98D02*
X341Y98D01*
X943Y98D02*
X951Y98D01*
X978Y98D02*
X987Y98D01*
X1002Y98D02*
X1007Y98D01*
X1026Y98D02*
X1032Y98D01*
X1035Y98D02*
X1043Y98D01*
X1244Y98D02*
X1251Y98D01*
X0Y97D02*
X7Y97D01*
X332Y97D02*
X341Y97D01*
X943Y97D02*
X949Y97D01*
X978Y97D02*
X988Y97D01*
X1002Y97D02*
X1007Y97D01*
X1027Y97D02*
X1032Y97D01*
X1037Y97D02*
X1043Y97D01*
X1244Y97D02*
X1251Y97D01*
X0Y96D02*
X7Y96D01*
X332Y96D02*
X341Y96D01*
X942Y96D02*
X949Y96D01*
X978Y96D02*
X988Y96D01*
X1002Y96D02*
X1007Y96D01*
X1027Y96D02*
X1032Y96D01*
X1038Y96D02*
X1044Y96D01*
X1244Y96D02*
X1251Y96D01*
X0Y95D02*
X7Y95D01*
X332Y95D02*
X341Y95D01*
X941Y95D02*
X948Y95D01*
X978Y95D02*
X989Y95D01*
X1002Y95D02*
X1007Y95D01*
X1027Y95D02*
X1032Y95D01*
X1038Y95D02*
X1044Y95D01*
X1244Y95D02*
X1251Y95D01*
X0Y94D02*
X7Y94D01*
X332Y94D02*
X341Y94D01*
X940Y94D02*
X947Y94D01*
X978Y94D02*
X989Y94D01*
X1002Y94D02*
X1007Y94D01*
X1027Y94D02*
X1032Y94D01*
X1039Y94D02*
X1045Y94D01*
X1244Y94D02*
X1251Y94D01*
X0Y93D02*
X7Y93D01*
X332Y93D02*
X341Y93D01*
X940Y93D02*
X946Y93D01*
X978Y93D02*
X990Y93D01*
X1002Y93D02*
X1007Y93D01*
X1027Y93D02*
X1032Y93D01*
X1039Y93D02*
X1045Y93D01*
X1244Y93D02*
X1251Y93D01*
X0Y92D02*
X7Y92D01*
X332Y92D02*
X341Y92D01*
X939Y92D02*
X945Y92D01*
X978Y92D02*
X983Y92D01*
X985Y92D02*
X990Y92D01*
X1002Y92D02*
X1007Y92D01*
X1027Y92D02*
X1032Y92D01*
X1040Y92D02*
X1046Y92D01*
X1244Y92D02*
X1251Y92D01*
X0Y91D02*
X7Y91D01*
X332Y91D02*
X341Y91D01*
X938Y91D02*
X945Y91D01*
X978Y91D02*
X983Y91D01*
X985Y91D02*
X991Y91D01*
X1002Y91D02*
X1007Y91D01*
X1027Y91D02*
X1032Y91D01*
X1040Y91D02*
X1046Y91D01*
X1244Y91D02*
X1251Y91D01*
X0Y90D02*
X7Y90D01*
X332Y90D02*
X341Y90D01*
X937Y90D02*
X944Y90D01*
X978Y90D02*
X983Y90D01*
X985Y90D02*
X991Y90D01*
X1002Y90D02*
X1007Y90D01*
X1027Y90D02*
X1032Y90D01*
X1041Y90D02*
X1047Y90D01*
X1244Y90D02*
X1251Y90D01*
X0Y89D02*
X7Y89D01*
X332Y89D02*
X341Y89D01*
X937Y89D02*
X943Y89D01*
X978Y89D02*
X983Y89D01*
X986Y89D02*
X991Y89D01*
X1002Y89D02*
X1007Y89D01*
X1027Y89D02*
X1032Y89D01*
X1041Y89D02*
X1047Y89D01*
X1244Y89D02*
X1251Y89D01*
X0Y88D02*
X7Y88D01*
X332Y88D02*
X341Y88D01*
X936Y88D02*
X942Y88D01*
X978Y88D02*
X983Y88D01*
X986Y88D02*
X992Y88D01*
X1002Y88D02*
X1007Y88D01*
X1027Y88D02*
X1032Y88D01*
X1042Y88D02*
X1048Y88D01*
X1244Y88D02*
X1251Y88D01*
X0Y87D02*
X7Y87D01*
X332Y87D02*
X341Y87D01*
X936Y87D02*
X942Y87D01*
X978Y87D02*
X983Y87D01*
X987Y87D02*
X992Y87D01*
X1002Y87D02*
X1007Y87D01*
X1027Y87D02*
X1032Y87D01*
X1042Y87D02*
X1048Y87D01*
X1244Y87D02*
X1251Y87D01*
X0Y86D02*
X7Y86D01*
X332Y86D02*
X341Y86D01*
X935Y86D02*
X941Y86D01*
X978Y86D02*
X983Y86D01*
X987Y86D02*
X993Y86D01*
X1002Y86D02*
X1007Y86D01*
X1027Y86D02*
X1032Y86D01*
X1043Y86D02*
X1048Y86D01*
X1244Y86D02*
X1251Y86D01*
X0Y85D02*
X7Y85D01*
X216Y85D02*
X230Y85D01*
X245Y85D02*
X253Y85D01*
X270Y85D02*
X273Y85D01*
X290Y85D02*
X306Y85D01*
X332Y85D02*
X341Y85D01*
X510Y85D02*
X534Y85D01*
X555Y85D02*
X558Y85D01*
X579Y85D02*
X582Y85D01*
X935Y85D02*
X940Y85D01*
X978Y85D02*
X983Y85D01*
X988Y85D02*
X993Y85D01*
X1002Y85D02*
X1007Y85D01*
X1027Y85D02*
X1032Y85D01*
X1043Y85D02*
X1049Y85D01*
X1244Y85D02*
X1251Y85D01*
X0Y84D02*
X7Y84D01*
X214Y84D02*
X230Y84D01*
X245Y84D02*
X253Y84D01*
X270Y84D02*
X274Y84D01*
X289Y84D02*
X308Y84D01*
X332Y84D02*
X341Y84D01*
X379Y84D02*
X402Y84D01*
X423Y84D02*
X425Y84D01*
X447Y84D02*
X449Y84D01*
X510Y84D02*
X535Y84D01*
X554Y84D02*
X559Y84D01*
X578Y84D02*
X583Y84D01*
X935Y84D02*
X940Y84D01*
X978Y84D02*
X983Y84D01*
X988Y84D02*
X994Y84D01*
X1002Y84D02*
X1007Y84D01*
X1027Y84D02*
X1032Y84D01*
X1044Y84D02*
X1049Y84D01*
X1244Y84D02*
X1251Y84D01*
X0Y83D02*
X7Y83D01*
X213Y83D02*
X231Y83D01*
X245Y83D02*
X254Y83D01*
X269Y83D02*
X274Y83D01*
X289Y83D02*
X309Y83D01*
X332Y83D02*
X341Y83D01*
X378Y83D02*
X404Y83D01*
X422Y83D02*
X426Y83D01*
X446Y83D02*
X450Y83D01*
X510Y83D02*
X536Y83D01*
X554Y83D02*
X559Y83D01*
X577Y83D02*
X583Y83D01*
X935Y83D02*
X940Y83D01*
X978Y83D02*
X983Y83D01*
X988Y83D02*
X994Y83D01*
X1002Y83D02*
X1007Y83D01*
X1027Y83D02*
X1032Y83D01*
X1044Y83D02*
X1049Y83D01*
X1244Y83D02*
X1251Y83D01*
X0Y82D02*
X7Y82D01*
X212Y82D02*
X231Y82D01*
X245Y82D02*
X254Y82D01*
X269Y82D02*
X274Y82D01*
X289Y82D02*
X310Y82D01*
X332Y82D02*
X341Y82D01*
X378Y82D02*
X405Y82D01*
X421Y82D02*
X426Y82D01*
X446Y82D02*
X450Y82D01*
X510Y82D02*
X537Y82D01*
X554Y82D02*
X560Y82D01*
X577Y82D02*
X583Y82D01*
X935Y82D02*
X940Y82D01*
X978Y82D02*
X983Y82D01*
X989Y82D02*
X995Y82D01*
X1002Y82D02*
X1007Y82D01*
X1027Y82D02*
X1032Y82D01*
X1044Y82D02*
X1049Y82D01*
X1244Y82D02*
X1251Y82D01*
X0Y81D02*
X7Y81D01*
X211Y81D02*
X230Y81D01*
X245Y81D02*
X254Y81D01*
X269Y81D02*
X274Y81D01*
X290Y81D02*
X310Y81D01*
X332Y81D02*
X341Y81D01*
X378Y81D02*
X406Y81D01*
X421Y81D02*
X426Y81D01*
X445Y81D02*
X450Y81D01*
X510Y81D02*
X538Y81D01*
X554Y81D02*
X560Y81D01*
X576Y81D02*
X582Y81D01*
X935Y81D02*
X940Y81D01*
X978Y81D02*
X983Y81D01*
X989Y81D02*
X995Y81D01*
X1002Y81D02*
X1007Y81D01*
X1027Y81D02*
X1032Y81D01*
X1045Y81D02*
X1050Y81D01*
X1244Y81D02*
X1251Y81D01*
X0Y80D02*
X7Y80D01*
X211Y80D02*
X229Y80D01*
X245Y80D02*
X255Y80D01*
X269Y80D02*
X274Y80D01*
X291Y80D02*
X311Y80D01*
X332Y80D02*
X341Y80D01*
X378Y80D02*
X406Y80D01*
X421Y80D02*
X426Y80D01*
X445Y80D02*
X451Y80D01*
X510Y80D02*
X538Y80D01*
X555Y80D02*
X561Y80D01*
X576Y80D02*
X582Y80D01*
X935Y80D02*
X940Y80D01*
X978Y80D02*
X983Y80D01*
X990Y80D02*
X995Y80D01*
X1002Y80D02*
X1007Y80D01*
X1027Y80D02*
X1032Y80D01*
X1044Y80D02*
X1049Y80D01*
X1244Y80D02*
X1251Y80D01*
X0Y79D02*
X7Y79D01*
X210Y79D02*
X217Y79D01*
X245Y79D02*
X255Y79D01*
X269Y79D02*
X274Y79D01*
X295Y79D02*
X300Y79D01*
X305Y79D02*
X311Y79D01*
X332Y79D02*
X341Y79D01*
X379Y79D02*
X407Y79D01*
X421Y79D02*
X426Y79D01*
X445Y79D02*
X451Y79D01*
X510Y79D02*
X515Y79D01*
X533Y79D02*
X539Y79D01*
X555Y79D02*
X562Y79D01*
X575Y79D02*
X581Y79D01*
X935Y79D02*
X940Y79D01*
X978Y79D02*
X983Y79D01*
X990Y79D02*
X996Y79D01*
X1002Y79D02*
X1007Y79D01*
X1027Y79D02*
X1032Y79D01*
X1044Y79D02*
X1049Y79D01*
X1244Y79D02*
X1251Y79D01*
X0Y78D02*
X7Y78D01*
X209Y78D02*
X216Y78D01*
X245Y78D02*
X256Y78D01*
X269Y78D02*
X274Y78D01*
X295Y78D02*
X300Y78D01*
X306Y78D02*
X312Y78D01*
X332Y78D02*
X341Y78D01*
X401Y78D02*
X407Y78D01*
X421Y78D02*
X426Y78D01*
X445Y78D02*
X451Y78D01*
X510Y78D02*
X515Y78D01*
X534Y78D02*
X539Y78D01*
X556Y78D02*
X562Y78D01*
X574Y78D02*
X581Y78D01*
X935Y78D02*
X940Y78D01*
X951Y78D02*
X964Y78D01*
X978Y78D02*
X983Y78D01*
X991Y78D02*
X996Y78D01*
X1002Y78D02*
X1007Y78D01*
X1027Y78D02*
X1032Y78D01*
X1044Y78D02*
X1049Y78D01*
X1244Y78D02*
X1251Y78D01*
X0Y77D02*
X7Y77D01*
X208Y77D02*
X215Y77D01*
X245Y77D02*
X256Y77D01*
X269Y77D02*
X274Y77D01*
X295Y77D02*
X300Y77D01*
X307Y77D02*
X312Y77D01*
X332Y77D02*
X341Y77D01*
X402Y77D02*
X407Y77D01*
X421Y77D02*
X426Y77D01*
X445Y77D02*
X451Y77D01*
X510Y77D02*
X515Y77D01*
X534Y77D02*
X539Y77D01*
X557Y77D02*
X563Y77D01*
X574Y77D02*
X580Y77D01*
X935Y77D02*
X940Y77D01*
X950Y77D02*
X964Y77D01*
X978Y77D02*
X983Y77D01*
X991Y77D02*
X997Y77D01*
X1002Y77D02*
X1007Y77D01*
X1027Y77D02*
X1032Y77D01*
X1044Y77D02*
X1049Y77D01*
X1244Y77D02*
X1251Y77D01*
X0Y76D02*
X7Y76D01*
X207Y76D02*
X214Y76D01*
X245Y76D02*
X257Y76D01*
X269Y76D02*
X274Y76D01*
X295Y76D02*
X300Y76D01*
X307Y76D02*
X313Y76D01*
X332Y76D02*
X341Y76D01*
X402Y76D02*
X407Y76D01*
X421Y76D02*
X426Y76D01*
X445Y76D02*
X451Y76D01*
X510Y76D02*
X515Y76D01*
X534Y76D02*
X539Y76D01*
X557Y76D02*
X563Y76D01*
X573Y76D02*
X579Y76D01*
X935Y76D02*
X940Y76D01*
X950Y76D02*
X964Y76D01*
X978Y76D02*
X983Y76D01*
X992Y76D02*
X997Y76D01*
X1002Y76D02*
X1007Y76D01*
X1027Y76D02*
X1032Y76D01*
X1043Y76D02*
X1049Y76D01*
X1244Y76D02*
X1251Y76D01*
X0Y75D02*
X7Y75D01*
X207Y75D02*
X213Y75D01*
X245Y75D02*
X257Y75D01*
X269Y75D02*
X274Y75D01*
X295Y75D02*
X300Y75D01*
X308Y75D02*
X313Y75D01*
X332Y75D02*
X341Y75D01*
X402Y75D02*
X407Y75D01*
X421Y75D02*
X426Y75D01*
X445Y75D02*
X451Y75D01*
X510Y75D02*
X515Y75D01*
X534Y75D02*
X539Y75D01*
X558Y75D02*
X564Y75D01*
X573Y75D02*
X579Y75D01*
X935Y75D02*
X940Y75D01*
X950Y75D02*
X964Y75D01*
X978Y75D02*
X983Y75D01*
X992Y75D02*
X998Y75D01*
X1002Y75D02*
X1007Y75D01*
X1027Y75D02*
X1032Y75D01*
X1043Y75D02*
X1048Y75D01*
X1244Y75D02*
X1251Y75D01*
X0Y74D02*
X7Y74D01*
X206Y74D02*
X213Y74D01*
X245Y74D02*
X258Y74D01*
X269Y74D02*
X274Y74D01*
X295Y74D02*
X300Y74D01*
X308Y74D02*
X314Y74D01*
X332Y74D02*
X341Y74D01*
X402Y74D02*
X407Y74D01*
X421Y74D02*
X426Y74D01*
X445Y74D02*
X451Y74D01*
X510Y74D02*
X515Y74D01*
X534Y74D02*
X539Y74D01*
X558Y74D02*
X564Y74D01*
X572Y74D02*
X578Y74D01*
X935Y74D02*
X940Y74D01*
X950Y74D02*
X964Y74D01*
X978Y74D02*
X983Y74D01*
X992Y74D02*
X998Y74D01*
X1002Y74D02*
X1007Y74D01*
X1027Y74D02*
X1032Y74D01*
X1042Y74D02*
X1048Y74D01*
X1244Y74D02*
X1251Y74D01*
X0Y73D02*
X7Y73D01*
X205Y73D02*
X212Y73D01*
X245Y73D02*
X250Y73D01*
X252Y73D02*
X258Y73D01*
X269Y73D02*
X274Y73D01*
X295Y73D02*
X300Y73D01*
X309Y73D02*
X314Y73D01*
X332Y73D02*
X341Y73D01*
X402Y73D02*
X407Y73D01*
X421Y73D02*
X426Y73D01*
X445Y73D02*
X451Y73D01*
X510Y73D02*
X515Y73D01*
X534Y73D02*
X539Y73D01*
X559Y73D02*
X565Y73D01*
X572Y73D02*
X578Y73D01*
X935Y73D02*
X940Y73D01*
X952Y73D02*
X964Y73D01*
X978Y73D02*
X983Y73D01*
X993Y73D02*
X998Y73D01*
X1002Y73D02*
X1007Y73D01*
X1027Y73D02*
X1032Y73D01*
X1042Y73D02*
X1047Y73D01*
X1244Y73D02*
X1251Y73D01*
X0Y72D02*
X7Y72D01*
X204Y72D02*
X211Y72D01*
X245Y72D02*
X250Y72D01*
X253Y72D02*
X258Y72D01*
X269Y72D02*
X274Y72D01*
X295Y72D02*
X300Y72D01*
X309Y72D02*
X315Y72D01*
X332Y72D02*
X341Y72D01*
X402Y72D02*
X407Y72D01*
X421Y72D02*
X426Y72D01*
X445Y72D02*
X451Y72D01*
X510Y72D02*
X515Y72D01*
X534Y72D02*
X539Y72D01*
X559Y72D02*
X566Y72D01*
X571Y72D02*
X577Y72D01*
X935Y72D02*
X940Y72D01*
X959Y72D02*
X964Y72D01*
X978Y72D02*
X983Y72D01*
X993Y72D02*
X999Y72D01*
X1002Y72D02*
X1007Y72D01*
X1027Y72D02*
X1032Y72D01*
X1041Y72D02*
X1047Y72D01*
X1244Y72D02*
X1251Y72D01*
X0Y71D02*
X7Y71D01*
X204Y71D02*
X210Y71D01*
X245Y71D02*
X250Y71D01*
X253Y71D02*
X259Y71D01*
X269Y71D02*
X274Y71D01*
X295Y71D02*
X300Y71D01*
X310Y71D02*
X315Y71D01*
X332Y71D02*
X341Y71D01*
X402Y71D02*
X407Y71D01*
X421Y71D02*
X427Y71D01*
X445Y71D02*
X451Y71D01*
X510Y71D02*
X515Y71D01*
X533Y71D02*
X539Y71D01*
X560Y71D02*
X566Y71D01*
X570Y71D02*
X576Y71D01*
X935Y71D02*
X940Y71D01*
X959Y71D02*
X964Y71D01*
X978Y71D02*
X983Y71D01*
X994Y71D02*
X999Y71D01*
X1002Y71D02*
X1007Y71D01*
X1027Y71D02*
X1032Y71D01*
X1040Y71D02*
X1046Y71D01*
X1244Y71D02*
X1251Y71D01*
X0Y70D02*
X7Y70D01*
X204Y70D02*
X210Y70D01*
X245Y70D02*
X250Y70D01*
X254Y70D02*
X259Y70D01*
X269Y70D02*
X274Y70D01*
X295Y70D02*
X300Y70D01*
X310Y70D02*
X316Y70D01*
X332Y70D02*
X341Y70D01*
X402Y70D02*
X407Y70D01*
X421Y70D02*
X427Y70D01*
X445Y70D02*
X450Y70D01*
X510Y70D02*
X538Y70D01*
X561Y70D02*
X567Y70D01*
X570Y70D02*
X576Y70D01*
X935Y70D02*
X940Y70D01*
X959Y70D02*
X964Y70D01*
X978Y70D02*
X983Y70D01*
X994Y70D02*
X1000Y70D01*
X1002Y70D02*
X1007Y70D01*
X1027Y70D02*
X1032Y70D01*
X1040Y70D02*
X1046Y70D01*
X1244Y70D02*
X1251Y70D01*
X0Y69D02*
X7Y69D01*
X204Y69D02*
X209Y69D01*
X245Y69D02*
X250Y69D01*
X254Y69D02*
X260Y69D01*
X269Y69D02*
X274Y69D01*
X295Y69D02*
X300Y69D01*
X311Y69D02*
X316Y69D01*
X332Y69D02*
X341Y69D01*
X402Y69D02*
X407Y69D01*
X422Y69D02*
X427Y69D01*
X444Y69D02*
X450Y69D01*
X510Y69D02*
X538Y69D01*
X561Y69D02*
X567Y69D01*
X569Y69D02*
X575Y69D01*
X935Y69D02*
X940Y69D01*
X959Y69D02*
X964Y69D01*
X978Y69D02*
X983Y69D01*
X995Y69D02*
X1007Y69D01*
X1027Y69D02*
X1032Y69D01*
X1039Y69D02*
X1045Y69D01*
X1244Y69D02*
X1251Y69D01*
X0Y68D02*
X7Y68D01*
X204Y68D02*
X208Y68D01*
X245Y68D02*
X250Y68D01*
X254Y68D02*
X260Y68D01*
X269Y68D02*
X274Y68D01*
X295Y68D02*
X300Y68D01*
X311Y68D02*
X317Y68D01*
X332Y68D02*
X341Y68D01*
X402Y68D02*
X407Y68D01*
X422Y68D02*
X428Y68D01*
X444Y68D02*
X450Y68D01*
X510Y68D02*
X537Y68D01*
X562Y68D02*
X575Y68D01*
X935Y68D02*
X940Y68D01*
X959Y68D02*
X964Y68D01*
X978Y68D02*
X983Y68D01*
X995Y68D02*
X1007Y68D01*
X1027Y68D02*
X1032Y68D01*
X1039Y68D02*
X1045Y68D01*
X1244Y68D02*
X1251Y68D01*
X0Y67D02*
X7Y67D01*
X204Y67D02*
X207Y67D01*
X245Y67D02*
X250Y67D01*
X255Y67D02*
X261Y67D01*
X269Y67D02*
X274Y67D01*
X295Y67D02*
X300Y67D01*
X312Y67D02*
X317Y67D01*
X332Y67D02*
X341Y67D01*
X402Y67D02*
X407Y67D01*
X423Y67D02*
X428Y67D01*
X444Y67D02*
X449Y67D01*
X510Y67D02*
X536Y67D01*
X562Y67D02*
X574Y67D01*
X935Y67D02*
X940Y67D01*
X959Y67D02*
X964Y67D01*
X978Y67D02*
X983Y67D01*
X995Y67D02*
X1007Y67D01*
X1027Y67D02*
X1032Y67D01*
X1038Y67D02*
X1044Y67D01*
X1244Y67D02*
X1251Y67D01*
X0Y66D02*
X7Y66D01*
X204Y66D02*
X207Y66D01*
X245Y66D02*
X250Y66D01*
X255Y66D02*
X261Y66D01*
X269Y66D02*
X274Y66D01*
X295Y66D02*
X300Y66D01*
X312Y66D02*
X318Y66D01*
X332Y66D02*
X341Y66D01*
X401Y66D02*
X407Y66D01*
X423Y66D02*
X429Y66D01*
X443Y66D02*
X449Y66D01*
X510Y66D02*
X535Y66D01*
X563Y66D02*
X574Y66D01*
X935Y66D02*
X940Y66D01*
X958Y66D02*
X963Y66D01*
X978Y66D02*
X983Y66D01*
X996Y66D02*
X1007Y66D01*
X1027Y66D02*
X1032Y66D01*
X1038Y66D02*
X1044Y66D01*
X1244Y66D02*
X1251Y66D01*
X0Y65D02*
X7Y65D01*
X204Y65D02*
X207Y65D01*
X245Y65D02*
X250Y65D01*
X256Y65D02*
X262Y65D01*
X269Y65D02*
X274Y65D01*
X295Y65D02*
X300Y65D01*
X313Y65D02*
X318Y65D01*
X332Y65D02*
X341Y65D01*
X401Y65D02*
X407Y65D01*
X423Y65D02*
X429Y65D01*
X443Y65D02*
X448Y65D01*
X510Y65D02*
X533Y65D01*
X564Y65D02*
X573Y65D01*
X935Y65D02*
X940Y65D01*
X958Y65D02*
X963Y65D01*
X978Y65D02*
X983Y65D01*
X996Y65D02*
X1007Y65D01*
X1027Y65D02*
X1032Y65D01*
X1037Y65D02*
X1043Y65D01*
X1244Y65D02*
X1251Y65D01*
X0Y64D02*
X7Y64D01*
X204Y64D02*
X207Y64D01*
X245Y64D02*
X250Y64D01*
X256Y64D02*
X262Y64D01*
X269Y64D02*
X274Y64D01*
X295Y64D02*
X300Y64D01*
X313Y64D02*
X318Y64D01*
X332Y64D02*
X341Y64D01*
X400Y64D02*
X406Y64D01*
X424Y64D02*
X429Y64D01*
X442Y64D02*
X448Y64D01*
X510Y64D02*
X515Y64D01*
X520Y64D02*
X527Y64D01*
X564Y64D02*
X572Y64D01*
X935Y64D02*
X942Y64D01*
X957Y64D02*
X963Y64D01*
X978Y64D02*
X983Y64D01*
X997Y64D02*
X1007Y64D01*
X1027Y64D02*
X1032Y64D01*
X1036Y64D02*
X1043Y64D01*
X1244Y64D02*
X1251Y64D01*
X0Y63D02*
X7Y63D01*
X204Y63D02*
X207Y63D01*
X245Y63D02*
X250Y63D01*
X257Y63D02*
X262Y63D01*
X269Y63D02*
X274Y63D01*
X295Y63D02*
X300Y63D01*
X313Y63D02*
X318Y63D01*
X332Y63D02*
X341Y63D01*
X385Y63D02*
X406Y63D01*
X424Y63D02*
X430Y63D01*
X442Y63D02*
X448Y63D01*
X510Y63D02*
X515Y63D01*
X521Y63D02*
X527Y63D01*
X565Y63D02*
X572Y63D01*
X936Y63D02*
X963Y63D01*
X978Y63D02*
X983Y63D01*
X997Y63D02*
X1007Y63D01*
X1022Y63D02*
X1042Y63D01*
X1244Y63D02*
X1251Y63D01*
X0Y62D02*
X7Y62D01*
X202Y62D02*
X207Y62D01*
X245Y62D02*
X250Y62D01*
X257Y62D02*
X263Y62D01*
X269Y62D02*
X274Y62D01*
X295Y62D02*
X300Y62D01*
X313Y62D02*
X318Y62D01*
X332Y62D02*
X341Y62D01*
X384Y62D02*
X405Y62D01*
X425Y62D02*
X430Y62D01*
X442Y62D02*
X447Y62D01*
X510Y62D02*
X515Y62D01*
X522Y62D02*
X528Y62D01*
X565Y62D02*
X571Y62D01*
X936Y62D02*
X962Y62D01*
X978Y62D02*
X983Y62D01*
X998Y62D02*
X1007Y62D01*
X1021Y62D02*
X1042Y62D01*
X1244Y62D02*
X1251Y62D01*
X0Y61D02*
X7Y61D01*
X202Y61D02*
X207Y61D01*
X245Y61D02*
X250Y61D01*
X258Y61D02*
X263Y61D01*
X269Y61D02*
X274Y61D01*
X295Y61D02*
X300Y61D01*
X313Y61D02*
X318Y61D01*
X332Y61D02*
X341Y61D01*
X384Y61D02*
X405Y61D01*
X425Y61D02*
X431Y61D01*
X441Y61D02*
X447Y61D01*
X510Y61D02*
X515Y61D01*
X522Y61D02*
X528Y61D01*
X565Y61D02*
X572Y61D01*
X937Y61D02*
X961Y61D01*
X978Y61D02*
X983Y61D01*
X998Y61D02*
X1007Y61D01*
X1021Y61D02*
X1041Y61D01*
X1244Y61D02*
X1251Y61D01*
X0Y60D02*
X7Y60D01*
X202Y60D02*
X207Y60D01*
X219Y60D02*
X230Y60D01*
X245Y60D02*
X250Y60D01*
X258Y60D02*
X264Y60D01*
X269Y60D02*
X274Y60D01*
X295Y60D02*
X300Y60D01*
X313Y60D02*
X318Y60D01*
X332Y60D02*
X341Y60D01*
X384Y60D02*
X405Y60D01*
X425Y60D02*
X431Y60D01*
X441Y60D02*
X446Y60D01*
X510Y60D02*
X515Y60D01*
X523Y60D02*
X529Y60D01*
X564Y60D02*
X573Y60D01*
X938Y60D02*
X960Y60D01*
X978Y60D02*
X983Y60D01*
X999Y60D02*
X1007Y60D01*
X1021Y60D02*
X1040Y60D01*
X1244Y60D02*
X1251Y60D01*
X0Y59D02*
X7Y59D01*
X202Y59D02*
X207Y59D01*
X217Y59D02*
X231Y59D01*
X245Y59D02*
X250Y59D01*
X258Y59D02*
X264Y59D01*
X269Y59D02*
X274Y59D01*
X295Y59D02*
X300Y59D01*
X312Y59D02*
X318Y59D01*
X332Y59D02*
X341Y59D01*
X384Y59D02*
X406Y59D01*
X426Y59D02*
X431Y59D01*
X440Y59D02*
X446Y59D01*
X510Y59D02*
X515Y59D01*
X523Y59D02*
X529Y59D01*
X563Y59D02*
X573Y59D01*
X939Y59D02*
X959Y59D01*
X978Y59D02*
X982Y59D01*
X999Y59D02*
X1007Y59D01*
X1022Y59D02*
X1039Y59D01*
X1244Y59D02*
X1251Y59D01*
X0Y58D02*
X7Y58D01*
X202Y58D02*
X207Y58D01*
X217Y58D02*
X231Y58D01*
X245Y58D02*
X250Y58D01*
X259Y58D02*
X265Y58D01*
X269Y58D02*
X274Y58D01*
X295Y58D02*
X300Y58D01*
X312Y58D02*
X317Y58D01*
X332Y58D02*
X341Y58D01*
X385Y58D02*
X406Y58D01*
X426Y58D02*
X432Y58D01*
X440Y58D02*
X446Y58D01*
X510Y58D02*
X515Y58D01*
X524Y58D02*
X530Y58D01*
X563Y58D02*
X574Y58D01*
X941Y58D02*
X957Y58D01*
X980Y58D02*
X981Y58D01*
X999Y58D02*
X1006Y58D01*
X1023Y58D02*
X1036Y58D01*
X1244Y58D02*
X1251Y58D01*
X0Y57D02*
X7Y57D01*
X202Y57D02*
X207Y57D01*
X217Y57D02*
X231Y57D01*
X245Y57D02*
X250Y57D01*
X259Y57D02*
X265Y57D01*
X269Y57D02*
X274Y57D01*
X295Y57D02*
X300Y57D01*
X311Y57D02*
X317Y57D01*
X332Y57D02*
X341Y57D01*
X400Y57D02*
X406Y57D01*
X427Y57D02*
X432Y57D01*
X440Y57D02*
X445Y57D01*
X510Y57D02*
X515Y57D01*
X525Y57D02*
X531Y57D01*
X562Y57D02*
X574Y57D01*
X1244Y57D02*
X1251Y57D01*
X0Y56D02*
X7Y56D01*
X202Y56D02*
X207Y56D01*
X217Y56D02*
X231Y56D01*
X245Y56D02*
X250Y56D01*
X260Y56D02*
X265Y56D01*
X269Y56D02*
X274Y56D01*
X295Y56D02*
X300Y56D01*
X311Y56D02*
X317Y56D01*
X332Y56D02*
X341Y56D01*
X401Y56D02*
X407Y56D01*
X427Y56D02*
X433Y56D01*
X439Y56D02*
X445Y56D01*
X510Y56D02*
X515Y56D01*
X525Y56D02*
X531Y56D01*
X562Y56D02*
X575Y56D01*
X1244Y56D02*
X1251Y56D01*
X0Y55D02*
X7Y55D01*
X202Y55D02*
X207Y55D01*
X217Y55D02*
X231Y55D01*
X245Y55D02*
X250Y55D01*
X260Y55D02*
X266Y55D01*
X269Y55D02*
X274Y55D01*
X295Y55D02*
X300Y55D01*
X310Y55D02*
X316Y55D01*
X332Y55D02*
X341Y55D01*
X402Y55D02*
X407Y55D01*
X427Y55D02*
X433Y55D01*
X439Y55D02*
X445Y55D01*
X510Y55D02*
X515Y55D01*
X526Y55D02*
X532Y55D01*
X561Y55D02*
X567Y55D01*
X569Y55D02*
X576Y55D01*
X1244Y55D02*
X1251Y55D01*
X0Y54D02*
X7Y54D01*
X202Y54D02*
X207Y54D01*
X225Y54D02*
X231Y54D01*
X245Y54D02*
X250Y54D01*
X261Y54D02*
X266Y54D01*
X269Y54D02*
X274Y54D01*
X295Y54D02*
X300Y54D01*
X310Y54D02*
X316Y54D01*
X332Y54D02*
X341Y54D01*
X402Y54D02*
X407Y54D01*
X428Y54D02*
X433Y54D01*
X439Y54D02*
X444Y54D01*
X510Y54D02*
X515Y54D01*
X526Y54D02*
X532Y54D01*
X560Y54D02*
X567Y54D01*
X570Y54D02*
X576Y54D01*
X1244Y54D02*
X1251Y54D01*
X0Y53D02*
X7Y53D01*
X202Y53D02*
X207Y53D01*
X226Y53D02*
X231Y53D01*
X245Y53D02*
X250Y53D01*
X261Y53D02*
X267Y53D01*
X269Y53D02*
X274Y53D01*
X295Y53D02*
X300Y53D01*
X309Y53D02*
X315Y53D01*
X332Y53D02*
X341Y53D01*
X402Y53D02*
X407Y53D01*
X428Y53D02*
X434Y53D01*
X438Y53D02*
X444Y53D01*
X510Y53D02*
X515Y53D01*
X527Y53D02*
X533Y53D01*
X560Y53D02*
X566Y53D01*
X571Y53D02*
X577Y53D01*
X1244Y53D02*
X1251Y53D01*
X0Y52D02*
X7Y52D01*
X202Y52D02*
X207Y52D01*
X226Y52D02*
X231Y52D01*
X245Y52D02*
X250Y52D01*
X261Y52D02*
X267Y52D01*
X269Y52D02*
X274Y52D01*
X295Y52D02*
X300Y52D01*
X309Y52D02*
X315Y52D01*
X332Y52D02*
X341Y52D01*
X402Y52D02*
X407Y52D01*
X428Y52D02*
X434Y52D01*
X438Y52D02*
X443Y52D01*
X510Y52D02*
X515Y52D01*
X527Y52D02*
X534Y52D01*
X559Y52D02*
X565Y52D01*
X571Y52D02*
X577Y52D01*
X1244Y52D02*
X1251Y52D01*
X0Y51D02*
X7Y51D01*
X202Y51D02*
X207Y51D01*
X226Y51D02*
X231Y51D01*
X245Y51D02*
X250Y51D01*
X262Y51D02*
X274Y51D01*
X295Y51D02*
X300Y51D01*
X308Y51D02*
X314Y51D01*
X332Y51D02*
X341Y51D01*
X402Y51D02*
X407Y51D01*
X429Y51D02*
X434Y51D01*
X437Y51D02*
X443Y51D01*
X510Y51D02*
X515Y51D01*
X528Y51D02*
X534Y51D01*
X559Y51D02*
X565Y51D01*
X572Y51D02*
X578Y51D01*
X1244Y51D02*
X1251Y51D01*
X0Y50D02*
X7Y50D01*
X202Y50D02*
X207Y50D01*
X226Y50D02*
X231Y50D01*
X245Y50D02*
X250Y50D01*
X262Y50D02*
X274Y50D01*
X295Y50D02*
X300Y50D01*
X308Y50D02*
X314Y50D01*
X332Y50D02*
X341Y50D01*
X402Y50D02*
X407Y50D01*
X429Y50D02*
X435Y50D01*
X437Y50D02*
X443Y50D01*
X510Y50D02*
X515Y50D01*
X529Y50D02*
X535Y50D01*
X558Y50D02*
X564Y50D01*
X572Y50D02*
X578Y50D01*
X1244Y50D02*
X1251Y50D01*
X0Y49D02*
X7Y49D01*
X202Y49D02*
X207Y49D01*
X226Y49D02*
X231Y49D01*
X245Y49D02*
X250Y49D01*
X263Y49D02*
X274Y49D01*
X295Y49D02*
X300Y49D01*
X307Y49D02*
X313Y49D01*
X332Y49D02*
X341Y49D01*
X402Y49D02*
X407Y49D01*
X430Y49D02*
X442Y49D01*
X510Y49D02*
X515Y49D01*
X529Y49D02*
X535Y49D01*
X557Y49D02*
X564Y49D01*
X573Y49D02*
X579Y49D01*
X1244Y49D02*
X1251Y49D01*
X0Y48D02*
X7Y48D01*
X202Y48D02*
X207Y48D01*
X226Y48D02*
X231Y48D01*
X245Y48D02*
X250Y48D01*
X263Y48D02*
X274Y48D01*
X295Y48D02*
X300Y48D01*
X307Y48D02*
X313Y48D01*
X332Y48D02*
X341Y48D01*
X402Y48D02*
X407Y48D01*
X430Y48D02*
X442Y48D01*
X510Y48D02*
X515Y48D01*
X530Y48D02*
X536Y48D01*
X557Y48D02*
X563Y48D01*
X574Y48D02*
X580Y48D01*
X1244Y48D02*
X1251Y48D01*
X0Y47D02*
X7Y47D01*
X202Y47D02*
X207Y47D01*
X225Y47D02*
X231Y47D01*
X245Y47D02*
X250Y47D01*
X264Y47D02*
X274Y47D01*
X295Y47D02*
X300Y47D01*
X306Y47D02*
X312Y47D01*
X332Y47D02*
X341Y47D01*
X402Y47D02*
X407Y47D01*
X430Y47D02*
X441Y47D01*
X510Y47D02*
X515Y47D01*
X530Y47D02*
X536Y47D01*
X556Y47D02*
X562Y47D01*
X574Y47D02*
X580Y47D01*
X1244Y47D02*
X1251Y47D01*
X0Y46D02*
X7Y46D01*
X202Y46D02*
X207Y46D01*
X225Y46D02*
X231Y46D01*
X245Y46D02*
X250Y46D01*
X264Y46D02*
X274Y46D01*
X295Y46D02*
X300Y46D01*
X306Y46D02*
X312Y46D01*
X332Y46D02*
X341Y46D01*
X402Y46D02*
X407Y46D01*
X431Y46D02*
X441Y46D01*
X510Y46D02*
X515Y46D01*
X531Y46D02*
X537Y46D01*
X556Y46D02*
X562Y46D01*
X575Y46D02*
X581Y46D01*
X1244Y46D02*
X1251Y46D01*
X0Y45D02*
X7Y45D01*
X202Y45D02*
X209Y45D01*
X224Y45D02*
X230Y45D01*
X245Y45D02*
X250Y45D01*
X265Y45D02*
X274Y45D01*
X295Y45D02*
X300Y45D01*
X305Y45D02*
X311Y45D01*
X332Y45D02*
X341Y45D01*
X402Y45D02*
X407Y45D01*
X431Y45D02*
X441Y45D01*
X510Y45D02*
X515Y45D01*
X532Y45D02*
X538Y45D01*
X555Y45D02*
X561Y45D01*
X575Y45D02*
X581Y45D01*
X1244Y45D02*
X1251Y45D01*
X0Y44D02*
X7Y44D01*
X202Y44D02*
X230Y44D01*
X245Y44D02*
X250Y44D01*
X265Y44D02*
X274Y44D01*
X290Y44D02*
X311Y44D01*
X332Y44D02*
X341Y44D01*
X402Y44D02*
X407Y44D01*
X432Y44D02*
X440Y44D01*
X510Y44D02*
X515Y44D01*
X532Y44D02*
X538Y44D01*
X555Y44D02*
X561Y44D01*
X576Y44D02*
X582Y44D01*
X1244Y44D02*
X1251Y44D01*
X0Y43D02*
X7Y43D01*
X203Y43D02*
X229Y43D01*
X245Y43D02*
X250Y43D01*
X265Y43D02*
X274Y43D01*
X289Y43D02*
X310Y43D01*
X332Y43D02*
X341Y43D01*
X380Y43D02*
X407Y43D01*
X432Y43D02*
X440Y43D01*
X510Y43D02*
X515Y43D01*
X533Y43D02*
X539Y43D01*
X554Y43D02*
X560Y43D01*
X576Y43D02*
X583Y43D01*
X1244Y43D02*
X1251Y43D01*
X0Y42D02*
X7Y42D01*
X204Y42D02*
X229Y42D01*
X245Y42D02*
X250Y42D01*
X266Y42D02*
X274Y42D01*
X289Y42D02*
X310Y42D01*
X332Y42D02*
X341Y42D01*
X378Y42D02*
X407Y42D01*
X432Y42D02*
X439Y42D01*
X510Y42D02*
X515Y42D01*
X533Y42D02*
X539Y42D01*
X554Y42D02*
X560Y42D01*
X577Y42D02*
X583Y42D01*
X1244Y42D02*
X1251Y42D01*
X0Y41D02*
X7Y41D01*
X205Y41D02*
X228Y41D01*
X245Y41D02*
X250Y41D01*
X266Y41D02*
X274Y41D01*
X289Y41D02*
X309Y41D01*
X332Y41D02*
X341Y41D01*
X378Y41D02*
X406Y41D01*
X433Y41D02*
X439Y41D01*
X510Y41D02*
X515Y41D01*
X534Y41D02*
X539Y41D01*
X554Y41D02*
X559Y41D01*
X578Y41D02*
X583Y41D01*
X1244Y41D02*
X1251Y41D01*
X0Y40D02*
X7Y40D01*
X206Y40D02*
X226Y40D01*
X246Y40D02*
X250Y40D01*
X267Y40D02*
X274Y40D01*
X290Y40D02*
X307Y40D01*
X332Y40D02*
X341Y40D01*
X378Y40D02*
X406Y40D01*
X433Y40D02*
X439Y40D01*
X511Y40D02*
X515Y40D01*
X535Y40D02*
X539Y40D01*
X554Y40D02*
X558Y40D01*
X578Y40D02*
X582Y40D01*
X1244Y40D02*
X1251Y40D01*
X0Y39D02*
X7Y39D01*
X208Y39D02*
X224Y39D01*
X247Y39D02*
X249Y39D01*
X267Y39D02*
X274Y39D01*
X291Y39D02*
X305Y39D01*
X332Y39D02*
X341Y39D01*
X378Y39D02*
X405Y39D01*
X434Y39D02*
X438Y39D01*
X512Y39D02*
X513Y39D01*
X536Y39D02*
X537Y39D01*
X555Y39D02*
X557Y39D01*
X579Y39D02*
X581Y39D01*
X1244Y39D02*
X1251Y39D01*
X0Y38D02*
X7Y38D01*
X332Y38D02*
X341Y38D01*
X379Y38D02*
X404Y38D01*
X434Y38D02*
X438Y38D01*
X1244Y38D02*
X1251Y38D01*
X0Y37D02*
X7Y37D01*
X332Y37D02*
X341Y37D01*
X1244Y37D02*
X1251Y37D01*
X0Y36D02*
X7Y36D01*
X332Y36D02*
X341Y36D01*
X1244Y36D02*
X1251Y36D01*
X0Y35D02*
X7Y35D01*
X332Y35D02*
X341Y35D01*
X1244Y35D02*
X1251Y35D01*
X0Y34D02*
X7Y34D01*
X332Y34D02*
X341Y34D01*
X1244Y34D02*
X1251Y34D01*
X0Y33D02*
X7Y33D01*
X332Y33D02*
X341Y33D01*
X1244Y33D02*
X1251Y33D01*
X0Y32D02*
X7Y32D01*
X332Y32D02*
X341Y32D01*
X1244Y32D02*
X1251Y32D01*
X0Y31D02*
X7Y31D01*
X332Y31D02*
X341Y31D01*
X1244Y31D02*
X1251Y31D01*
X0Y30D02*
X7Y30D01*
X332Y30D02*
X341Y30D01*
X1244Y30D02*
X1251Y30D01*
X0Y29D02*
X7Y29D01*
X332Y29D02*
X341Y29D01*
X1244Y29D02*
X1251Y29D01*
X0Y28D02*
X7Y28D01*
X332Y28D02*
X341Y28D01*
X1244Y28D02*
X1251Y28D01*
X0Y27D02*
X7Y27D01*
X332Y27D02*
X341Y27D01*
X1244Y27D02*
X1251Y27D01*
X0Y26D02*
X7Y26D01*
X332Y26D02*
X341Y26D01*
X1244Y26D02*
X1251Y26D01*
X0Y25D02*
X7Y25D01*
X332Y25D02*
X341Y25D01*
X1244Y25D02*
X1251Y25D01*
X0Y24D02*
X7Y24D01*
X332Y24D02*
X341Y24D01*
X1244Y24D02*
X1251Y24D01*
X0Y23D02*
X7Y23D01*
X332Y23D02*
X341Y23D01*
X1244Y23D02*
X1251Y23D01*
X0Y22D02*
X7Y22D01*
X332Y22D02*
X341Y22D01*
X1244Y22D02*
X1251Y22D01*
X0Y21D02*
X7Y21D01*
X332Y21D02*
X341Y21D01*
X1244Y21D02*
X1251Y21D01*
X0Y20D02*
X7Y20D01*
X332Y20D02*
X341Y20D01*
X1244Y20D02*
X1251Y20D01*
X0Y19D02*
X7Y19D01*
X332Y19D02*
X341Y19D01*
X1244Y19D02*
X1251Y19D01*
X0Y18D02*
X7Y18D01*
X332Y18D02*
X341Y18D01*
X1244Y18D02*
X1251Y18D01*
X0Y17D02*
X7Y17D01*
X332Y17D02*
X341Y17D01*
X1244Y17D02*
X1251Y17D01*
X0Y16D02*
X7Y16D01*
X332Y16D02*
X341Y16D01*
X1244Y16D02*
X1251Y16D01*
X0Y15D02*
X7Y15D01*
X332Y15D02*
X341Y15D01*
X1244Y15D02*
X1251Y15D01*
X0Y14D02*
X7Y14D01*
X332Y14D02*
X341Y14D01*
X1244Y14D02*
X1251Y14D01*
X0Y13D02*
X7Y13D01*
X332Y13D02*
X341Y13D01*
X1244Y13D02*
X1251Y13D01*
X0Y12D02*
X7Y12D01*
X332Y12D02*
X341Y12D01*
X1244Y12D02*
X1251Y12D01*
X0Y11D02*
X7Y11D01*
X332Y11D02*
X341Y11D01*
X1244Y11D02*
X1251Y11D01*
X0Y10D02*
X341Y10D01*
X1244Y10D02*
X1251Y10D01*
X0Y9D02*
X1251Y9D01*
X0Y8D02*
X1251Y8D01*
X0Y7D02*
X1251Y7D01*
X0Y6D02*
X1251Y6D01*
X0Y5D02*
X1251Y5D01*
X0Y4D02*
X1251Y4D01*
X0Y3D02*
X1251Y3D01*
X0Y2D02*
X1251Y2D01*
X0Y1D02*
X336Y1D01*
D02*
G04 End of Silk1*
M02*