G04 MADE WITH FRITZING*
G04 WWW.FRITZING.ORG*
G04 DOUBLE SIDED*
G04 HOLES PLATED*
G04 CONTOUR ON CENTER OF CONTOUR VECTOR*
%ASAXBY*%
%FSLAX23Y23*%
%MOIN*%
%OFA0B0*%
%SFA1.0B1.0*%
%ADD10C,0.008000*%
%ADD11R,0.001000X0.001000*%
%LNSILK1*%
G90*
G70*
G54D10*
X254Y402D02*
X254Y532D01*
D02*
X254Y532D02*
X512Y532D01*
D02*
X512Y532D02*
X512Y402D01*
D02*
X512Y402D02*
X254Y402D01*
G54D11*
X0Y685D02*
X751Y685D01*
X0Y684D02*
X751Y684D01*
X0Y683D02*
X751Y683D01*
X0Y682D02*
X751Y682D01*
X0Y681D02*
X751Y681D01*
X0Y680D02*
X751Y680D01*
X0Y679D02*
X751Y679D01*
X0Y678D02*
X751Y678D01*
X0Y677D02*
X7Y677D01*
X744Y677D02*
X751Y677D01*
X0Y676D02*
X7Y676D01*
X744Y676D02*
X751Y676D01*
X0Y675D02*
X7Y675D01*
X744Y675D02*
X751Y675D01*
X0Y674D02*
X7Y674D01*
X744Y674D02*
X751Y674D01*
X0Y673D02*
X7Y673D01*
X744Y673D02*
X751Y673D01*
X0Y672D02*
X7Y672D01*
X744Y672D02*
X751Y672D01*
X0Y671D02*
X7Y671D01*
X744Y671D02*
X751Y671D01*
X0Y670D02*
X7Y670D01*
X744Y670D02*
X751Y670D01*
X0Y669D02*
X7Y669D01*
X744Y669D02*
X751Y669D01*
X0Y668D02*
X7Y668D01*
X744Y668D02*
X751Y668D01*
X0Y667D02*
X7Y667D01*
X744Y667D02*
X751Y667D01*
X0Y666D02*
X7Y666D01*
X744Y666D02*
X751Y666D01*
X0Y665D02*
X7Y665D01*
X744Y665D02*
X751Y665D01*
X0Y664D02*
X7Y664D01*
X744Y664D02*
X751Y664D01*
X0Y663D02*
X7Y663D01*
X744Y663D02*
X751Y663D01*
X0Y662D02*
X7Y662D01*
X744Y662D02*
X751Y662D01*
X0Y661D02*
X7Y661D01*
X744Y661D02*
X751Y661D01*
X0Y660D02*
X7Y660D01*
X744Y660D02*
X751Y660D01*
X0Y659D02*
X7Y659D01*
X744Y659D02*
X751Y659D01*
X0Y658D02*
X7Y658D01*
X744Y658D02*
X751Y658D01*
X0Y657D02*
X7Y657D01*
X744Y657D02*
X751Y657D01*
X0Y656D02*
X7Y656D01*
X744Y656D02*
X751Y656D01*
X0Y655D02*
X7Y655D01*
X744Y655D02*
X751Y655D01*
X0Y654D02*
X7Y654D01*
X744Y654D02*
X751Y654D01*
X0Y653D02*
X7Y653D01*
X744Y653D02*
X751Y653D01*
X0Y652D02*
X7Y652D01*
X744Y652D02*
X751Y652D01*
X0Y651D02*
X7Y651D01*
X744Y651D02*
X751Y651D01*
X0Y650D02*
X7Y650D01*
X744Y650D02*
X751Y650D01*
X0Y649D02*
X7Y649D01*
X744Y649D02*
X751Y649D01*
X0Y648D02*
X7Y648D01*
X744Y648D02*
X751Y648D01*
X0Y647D02*
X7Y647D01*
X744Y647D02*
X751Y647D01*
X0Y646D02*
X7Y646D01*
X744Y646D02*
X751Y646D01*
X0Y645D02*
X7Y645D01*
X744Y645D02*
X751Y645D01*
X0Y644D02*
X7Y644D01*
X744Y644D02*
X751Y644D01*
X0Y643D02*
X7Y643D01*
X744Y643D02*
X751Y643D01*
X0Y642D02*
X7Y642D01*
X744Y642D02*
X751Y642D01*
X0Y641D02*
X7Y641D01*
X744Y641D02*
X751Y641D01*
X0Y640D02*
X7Y640D01*
X744Y640D02*
X751Y640D01*
X0Y639D02*
X7Y639D01*
X744Y639D02*
X751Y639D01*
X0Y638D02*
X7Y638D01*
X744Y638D02*
X751Y638D01*
X0Y637D02*
X7Y637D01*
X744Y637D02*
X751Y637D01*
X0Y636D02*
X7Y636D01*
X744Y636D02*
X751Y636D01*
X0Y635D02*
X7Y635D01*
X744Y635D02*
X751Y635D01*
X0Y634D02*
X7Y634D01*
X744Y634D02*
X751Y634D01*
X0Y633D02*
X7Y633D01*
X744Y633D02*
X751Y633D01*
X0Y632D02*
X7Y632D01*
X744Y632D02*
X751Y632D01*
X0Y631D02*
X7Y631D01*
X744Y631D02*
X751Y631D01*
X0Y630D02*
X7Y630D01*
X744Y630D02*
X751Y630D01*
X0Y629D02*
X7Y629D01*
X744Y629D02*
X751Y629D01*
X0Y628D02*
X7Y628D01*
X744Y628D02*
X751Y628D01*
X0Y627D02*
X7Y627D01*
X744Y627D02*
X751Y627D01*
X0Y626D02*
X7Y626D01*
X744Y626D02*
X751Y626D01*
X0Y625D02*
X7Y625D01*
X744Y625D02*
X751Y625D01*
X0Y624D02*
X7Y624D01*
X744Y624D02*
X751Y624D01*
X0Y623D02*
X7Y623D01*
X744Y623D02*
X751Y623D01*
X0Y622D02*
X7Y622D01*
X744Y622D02*
X751Y622D01*
X0Y621D02*
X7Y621D01*
X744Y621D02*
X751Y621D01*
X0Y620D02*
X7Y620D01*
X744Y620D02*
X751Y620D01*
X0Y619D02*
X7Y619D01*
X744Y619D02*
X751Y619D01*
X0Y618D02*
X7Y618D01*
X744Y618D02*
X751Y618D01*
X0Y617D02*
X7Y617D01*
X744Y617D02*
X751Y617D01*
X0Y616D02*
X7Y616D01*
X744Y616D02*
X751Y616D01*
X0Y615D02*
X7Y615D01*
X744Y615D02*
X751Y615D01*
X0Y614D02*
X7Y614D01*
X744Y614D02*
X751Y614D01*
X0Y613D02*
X7Y613D01*
X744Y613D02*
X751Y613D01*
X0Y612D02*
X7Y612D01*
X744Y612D02*
X751Y612D01*
X0Y611D02*
X7Y611D01*
X744Y611D02*
X751Y611D01*
X0Y610D02*
X7Y610D01*
X744Y610D02*
X751Y610D01*
X0Y609D02*
X7Y609D01*
X744Y609D02*
X751Y609D01*
X0Y608D02*
X7Y608D01*
X744Y608D02*
X751Y608D01*
X0Y607D02*
X7Y607D01*
X744Y607D02*
X751Y607D01*
X0Y606D02*
X7Y606D01*
X744Y606D02*
X751Y606D01*
X0Y605D02*
X7Y605D01*
X744Y605D02*
X751Y605D01*
X0Y604D02*
X7Y604D01*
X744Y604D02*
X751Y604D01*
X0Y603D02*
X7Y603D01*
X744Y603D02*
X751Y603D01*
X0Y602D02*
X7Y602D01*
X744Y602D02*
X751Y602D01*
X0Y601D02*
X7Y601D01*
X744Y601D02*
X751Y601D01*
X0Y600D02*
X7Y600D01*
X744Y600D02*
X751Y600D01*
X0Y599D02*
X7Y599D01*
X744Y599D02*
X751Y599D01*
X0Y598D02*
X7Y598D01*
X744Y598D02*
X751Y598D01*
X0Y597D02*
X7Y597D01*
X744Y597D02*
X751Y597D01*
X0Y596D02*
X7Y596D01*
X744Y596D02*
X751Y596D01*
X0Y595D02*
X7Y595D01*
X744Y595D02*
X751Y595D01*
X0Y594D02*
X7Y594D01*
X744Y594D02*
X751Y594D01*
X0Y593D02*
X7Y593D01*
X744Y593D02*
X751Y593D01*
X0Y592D02*
X7Y592D01*
X744Y592D02*
X751Y592D01*
X0Y591D02*
X7Y591D01*
X744Y591D02*
X751Y591D01*
X0Y590D02*
X7Y590D01*
X744Y590D02*
X751Y590D01*
X0Y589D02*
X7Y589D01*
X744Y589D02*
X751Y589D01*
X0Y588D02*
X7Y588D01*
X744Y588D02*
X751Y588D01*
X0Y587D02*
X7Y587D01*
X744Y587D02*
X751Y587D01*
X0Y586D02*
X7Y586D01*
X744Y586D02*
X751Y586D01*
X0Y585D02*
X7Y585D01*
X744Y585D02*
X751Y585D01*
X0Y584D02*
X7Y584D01*
X744Y584D02*
X751Y584D01*
X0Y583D02*
X7Y583D01*
X744Y583D02*
X751Y583D01*
X0Y582D02*
X7Y582D01*
X744Y582D02*
X751Y582D01*
X0Y581D02*
X7Y581D01*
X744Y581D02*
X751Y581D01*
X0Y580D02*
X7Y580D01*
X744Y580D02*
X751Y580D01*
X0Y579D02*
X7Y579D01*
X744Y579D02*
X751Y579D01*
X0Y578D02*
X7Y578D01*
X744Y578D02*
X751Y578D01*
X0Y577D02*
X7Y577D01*
X744Y577D02*
X751Y577D01*
X0Y576D02*
X7Y576D01*
X744Y576D02*
X751Y576D01*
X0Y575D02*
X7Y575D01*
X744Y575D02*
X751Y575D01*
X0Y574D02*
X7Y574D01*
X744Y574D02*
X751Y574D01*
X0Y573D02*
X7Y573D01*
X744Y573D02*
X751Y573D01*
X0Y572D02*
X7Y572D01*
X744Y572D02*
X751Y572D01*
X0Y571D02*
X7Y571D01*
X744Y571D02*
X751Y571D01*
X0Y570D02*
X7Y570D01*
X744Y570D02*
X751Y570D01*
X0Y569D02*
X7Y569D01*
X744Y569D02*
X751Y569D01*
X0Y568D02*
X7Y568D01*
X744Y568D02*
X751Y568D01*
X0Y567D02*
X7Y567D01*
X744Y567D02*
X751Y567D01*
X0Y566D02*
X7Y566D01*
X744Y566D02*
X751Y566D01*
X0Y565D02*
X7Y565D01*
X744Y565D02*
X751Y565D01*
X0Y564D02*
X7Y564D01*
X744Y564D02*
X751Y564D01*
X0Y563D02*
X7Y563D01*
X744Y563D02*
X751Y563D01*
X0Y562D02*
X7Y562D01*
X744Y562D02*
X751Y562D01*
X0Y561D02*
X7Y561D01*
X744Y561D02*
X751Y561D01*
X0Y560D02*
X7Y560D01*
X744Y560D02*
X751Y560D01*
X0Y559D02*
X7Y559D01*
X744Y559D02*
X751Y559D01*
X0Y558D02*
X7Y558D01*
X744Y558D02*
X751Y558D01*
X0Y557D02*
X7Y557D01*
X744Y557D02*
X751Y557D01*
X0Y556D02*
X7Y556D01*
X744Y556D02*
X751Y556D01*
X0Y555D02*
X7Y555D01*
X744Y555D02*
X751Y555D01*
X0Y554D02*
X7Y554D01*
X744Y554D02*
X751Y554D01*
X0Y553D02*
X7Y553D01*
X744Y553D02*
X751Y553D01*
X0Y552D02*
X7Y552D01*
X744Y552D02*
X751Y552D01*
X0Y551D02*
X7Y551D01*
X744Y551D02*
X751Y551D01*
X0Y550D02*
X7Y550D01*
X744Y550D02*
X751Y550D01*
X0Y549D02*
X7Y549D01*
X744Y549D02*
X751Y549D01*
X0Y548D02*
X7Y548D01*
X744Y548D02*
X751Y548D01*
X0Y547D02*
X7Y547D01*
X744Y547D02*
X751Y547D01*
X0Y546D02*
X7Y546D01*
X744Y546D02*
X751Y546D01*
X0Y545D02*
X7Y545D01*
X744Y545D02*
X751Y545D01*
X0Y544D02*
X7Y544D01*
X744Y544D02*
X751Y544D01*
X0Y543D02*
X7Y543D01*
X744Y543D02*
X751Y543D01*
X0Y542D02*
X7Y542D01*
X744Y542D02*
X751Y542D01*
X0Y541D02*
X7Y541D01*
X744Y541D02*
X751Y541D01*
X0Y540D02*
X7Y540D01*
X744Y540D02*
X751Y540D01*
X0Y539D02*
X7Y539D01*
X744Y539D02*
X751Y539D01*
X0Y538D02*
X7Y538D01*
X744Y538D02*
X751Y538D01*
X0Y537D02*
X7Y537D01*
X744Y537D02*
X751Y537D01*
X0Y536D02*
X7Y536D01*
X744Y536D02*
X751Y536D01*
X0Y535D02*
X7Y535D01*
X744Y535D02*
X751Y535D01*
X0Y534D02*
X7Y534D01*
X744Y534D02*
X751Y534D01*
X0Y533D02*
X7Y533D01*
X744Y533D02*
X751Y533D01*
X0Y532D02*
X7Y532D01*
X744Y532D02*
X751Y532D01*
X0Y531D02*
X7Y531D01*
X744Y531D02*
X751Y531D01*
X0Y530D02*
X7Y530D01*
X744Y530D02*
X751Y530D01*
X0Y529D02*
X7Y529D01*
X744Y529D02*
X751Y529D01*
X0Y528D02*
X7Y528D01*
X744Y528D02*
X751Y528D01*
X0Y527D02*
X7Y527D01*
X744Y527D02*
X751Y527D01*
X0Y526D02*
X7Y526D01*
X744Y526D02*
X751Y526D01*
X0Y525D02*
X7Y525D01*
X744Y525D02*
X751Y525D01*
X0Y524D02*
X7Y524D01*
X744Y524D02*
X751Y524D01*
X0Y523D02*
X7Y523D01*
X744Y523D02*
X751Y523D01*
X0Y522D02*
X7Y522D01*
X744Y522D02*
X751Y522D01*
X0Y521D02*
X7Y521D01*
X744Y521D02*
X751Y521D01*
X0Y520D02*
X7Y520D01*
X744Y520D02*
X751Y520D01*
X0Y519D02*
X7Y519D01*
X744Y519D02*
X751Y519D01*
X0Y518D02*
X7Y518D01*
X744Y518D02*
X751Y518D01*
X0Y517D02*
X7Y517D01*
X744Y517D02*
X751Y517D01*
X0Y516D02*
X7Y516D01*
X744Y516D02*
X751Y516D01*
X0Y515D02*
X7Y515D01*
X571Y515D02*
X589Y515D01*
X616Y515D02*
X628Y515D01*
X659Y515D02*
X661Y515D01*
X692Y515D02*
X713Y515D01*
X744Y515D02*
X751Y515D01*
X0Y514D02*
X7Y514D01*
X567Y514D02*
X591Y514D01*
X616Y514D02*
X629Y514D01*
X657Y514D02*
X663Y514D01*
X690Y514D02*
X717Y514D01*
X744Y514D02*
X751Y514D01*
X0Y513D02*
X7Y513D01*
X565Y513D02*
X590Y513D01*
X616Y513D02*
X629Y513D01*
X656Y513D02*
X664Y513D01*
X689Y513D02*
X718Y513D01*
X744Y513D02*
X751Y513D01*
X0Y512D02*
X7Y512D01*
X564Y512D02*
X588Y512D01*
X616Y512D02*
X630Y512D01*
X656Y512D02*
X664Y512D01*
X688Y512D02*
X720Y512D01*
X744Y512D02*
X751Y512D01*
X0Y511D02*
X7Y511D01*
X35Y511D02*
X38Y511D01*
X75Y511D02*
X77Y511D01*
X127Y511D02*
X150Y511D01*
X199Y511D02*
X222Y511D01*
X563Y511D02*
X586Y511D01*
X616Y511D02*
X630Y511D01*
X656Y511D02*
X664Y511D01*
X688Y511D02*
X721Y511D01*
X744Y511D02*
X751Y511D01*
X0Y510D02*
X7Y510D01*
X34Y510D02*
X39Y510D01*
X73Y510D02*
X79Y510D01*
X124Y510D02*
X151Y510D01*
X196Y510D02*
X223Y510D01*
X562Y510D02*
X585Y510D01*
X616Y510D02*
X630Y510D01*
X655Y510D02*
X665Y510D01*
X688Y510D02*
X722Y510D01*
X744Y510D02*
X751Y510D01*
X0Y509D02*
X7Y509D01*
X33Y509D02*
X40Y509D01*
X72Y509D02*
X80Y509D01*
X122Y509D02*
X152Y509D01*
X194Y509D02*
X224Y509D01*
X561Y509D02*
X584Y509D01*
X616Y509D02*
X631Y509D01*
X655Y509D02*
X665Y509D01*
X688Y509D02*
X723Y509D01*
X744Y509D02*
X751Y509D01*
X0Y508D02*
X7Y508D01*
X32Y508D02*
X41Y508D01*
X72Y508D02*
X80Y508D01*
X121Y508D02*
X153Y508D01*
X193Y508D02*
X225Y508D01*
X560Y508D02*
X582Y508D01*
X616Y508D02*
X631Y508D01*
X655Y508D02*
X665Y508D01*
X689Y508D02*
X723Y508D01*
X744Y508D02*
X751Y508D01*
X0Y507D02*
X7Y507D01*
X32Y507D02*
X41Y507D01*
X72Y507D02*
X80Y507D01*
X119Y507D02*
X153Y507D01*
X192Y507D02*
X225Y507D01*
X559Y507D02*
X581Y507D01*
X616Y507D02*
X632Y507D01*
X655Y507D02*
X665Y507D01*
X689Y507D02*
X724Y507D01*
X744Y507D02*
X751Y507D01*
X0Y506D02*
X7Y506D01*
X32Y506D02*
X41Y506D01*
X72Y506D02*
X81Y506D01*
X118Y506D02*
X153Y506D01*
X191Y506D02*
X225Y506D01*
X559Y506D02*
X580Y506D01*
X617Y506D02*
X632Y506D01*
X655Y506D02*
X665Y506D01*
X690Y506D02*
X725Y506D01*
X744Y506D02*
X751Y506D01*
X0Y505D02*
X7Y505D01*
X32Y505D02*
X41Y505D01*
X72Y505D02*
X81Y505D01*
X118Y505D02*
X153Y505D01*
X190Y505D02*
X225Y505D01*
X558Y505D02*
X571Y505D01*
X618Y505D02*
X633Y505D01*
X655Y505D02*
X665Y505D01*
X698Y505D02*
X707Y505D01*
X713Y505D02*
X725Y505D01*
X744Y505D02*
X751Y505D01*
X0Y504D02*
X7Y504D01*
X32Y504D02*
X41Y504D01*
X72Y504D02*
X81Y504D01*
X117Y504D02*
X152Y504D01*
X189Y504D02*
X224Y504D01*
X557Y504D02*
X569Y504D01*
X619Y504D02*
X633Y504D01*
X655Y504D02*
X665Y504D01*
X698Y504D02*
X707Y504D01*
X715Y504D02*
X726Y504D01*
X744Y504D02*
X751Y504D01*
X0Y503D02*
X7Y503D01*
X32Y503D02*
X41Y503D01*
X72Y503D02*
X81Y503D01*
X117Y503D02*
X151Y503D01*
X189Y503D02*
X224Y503D01*
X556Y503D02*
X568Y503D01*
X619Y503D02*
X634Y503D01*
X655Y503D02*
X665Y503D01*
X698Y503D02*
X707Y503D01*
X716Y503D02*
X726Y503D01*
X744Y503D02*
X751Y503D01*
X0Y502D02*
X7Y502D01*
X32Y502D02*
X41Y502D01*
X72Y502D02*
X81Y502D01*
X116Y502D02*
X150Y502D01*
X188Y502D02*
X222Y502D01*
X556Y502D02*
X567Y502D01*
X620Y502D02*
X634Y502D01*
X655Y502D02*
X665Y502D01*
X698Y502D02*
X707Y502D01*
X716Y502D02*
X727Y502D01*
X744Y502D02*
X751Y502D01*
X0Y501D02*
X7Y501D01*
X32Y501D02*
X41Y501D01*
X72Y501D02*
X81Y501D01*
X116Y501D02*
X128Y501D01*
X188Y501D02*
X200Y501D01*
X555Y501D02*
X567Y501D01*
X621Y501D02*
X634Y501D01*
X655Y501D02*
X665Y501D01*
X698Y501D02*
X707Y501D01*
X717Y501D02*
X727Y501D01*
X744Y501D02*
X751Y501D01*
X0Y500D02*
X7Y500D01*
X32Y500D02*
X41Y500D01*
X72Y500D02*
X81Y500D01*
X115Y500D02*
X126Y500D01*
X187Y500D02*
X198Y500D01*
X554Y500D02*
X566Y500D01*
X621Y500D02*
X635Y500D01*
X655Y500D02*
X665Y500D01*
X698Y500D02*
X707Y500D01*
X717Y500D02*
X728Y500D01*
X744Y500D02*
X751Y500D01*
X0Y499D02*
X7Y499D01*
X32Y499D02*
X41Y499D01*
X72Y499D02*
X81Y499D01*
X115Y499D02*
X125Y499D01*
X187Y499D02*
X197Y499D01*
X553Y499D02*
X565Y499D01*
X622Y499D02*
X635Y499D01*
X655Y499D02*
X665Y499D01*
X698Y499D02*
X707Y499D01*
X718Y499D02*
X728Y499D01*
X744Y499D02*
X751Y499D01*
X0Y498D02*
X7Y498D01*
X32Y498D02*
X41Y498D01*
X72Y498D02*
X81Y498D01*
X114Y498D02*
X125Y498D01*
X186Y498D02*
X197Y498D01*
X553Y498D02*
X564Y498D01*
X622Y498D02*
X636Y498D01*
X655Y498D02*
X665Y498D01*
X698Y498D02*
X707Y498D01*
X718Y498D02*
X729Y498D01*
X744Y498D02*
X751Y498D01*
X0Y497D02*
X7Y497D01*
X32Y497D02*
X41Y497D01*
X72Y497D02*
X81Y497D01*
X114Y497D02*
X124Y497D01*
X186Y497D02*
X196Y497D01*
X552Y497D02*
X564Y497D01*
X623Y497D02*
X636Y497D01*
X655Y497D02*
X665Y497D01*
X698Y497D02*
X707Y497D01*
X719Y497D02*
X729Y497D01*
X744Y497D02*
X751Y497D01*
X0Y496D02*
X7Y496D01*
X32Y496D02*
X41Y496D01*
X72Y496D02*
X81Y496D01*
X113Y496D02*
X124Y496D01*
X185Y496D02*
X196Y496D01*
X551Y496D02*
X563Y496D01*
X623Y496D02*
X637Y496D01*
X655Y496D02*
X665Y496D01*
X698Y496D02*
X707Y496D01*
X719Y496D02*
X730Y496D01*
X744Y496D02*
X751Y496D01*
X0Y495D02*
X7Y495D01*
X32Y495D02*
X41Y495D01*
X72Y495D02*
X81Y495D01*
X113Y495D02*
X123Y495D01*
X185Y495D02*
X195Y495D01*
X550Y495D02*
X562Y495D01*
X623Y495D02*
X625Y495D01*
X627Y495D02*
X637Y495D01*
X655Y495D02*
X665Y495D01*
X698Y495D02*
X707Y495D01*
X720Y495D02*
X730Y495D01*
X744Y495D02*
X751Y495D01*
X0Y494D02*
X7Y494D01*
X32Y494D02*
X41Y494D01*
X72Y494D02*
X81Y494D01*
X112Y494D02*
X123Y494D01*
X184Y494D02*
X195Y494D01*
X549Y494D02*
X561Y494D01*
X623Y494D02*
X625Y494D01*
X627Y494D02*
X637Y494D01*
X655Y494D02*
X665Y494D01*
X698Y494D02*
X707Y494D01*
X720Y494D02*
X731Y494D01*
X744Y494D02*
X751Y494D01*
X0Y493D02*
X7Y493D01*
X32Y493D02*
X41Y493D01*
X72Y493D02*
X81Y493D01*
X112Y493D02*
X122Y493D01*
X184Y493D02*
X194Y493D01*
X549Y493D02*
X560Y493D01*
X624Y493D02*
X625Y493D01*
X628Y493D02*
X638Y493D01*
X655Y493D02*
X665Y493D01*
X698Y493D02*
X707Y493D01*
X721Y493D02*
X731Y493D01*
X744Y493D02*
X751Y493D01*
X0Y492D02*
X7Y492D01*
X32Y492D02*
X41Y492D01*
X72Y492D02*
X81Y492D01*
X111Y492D02*
X121Y492D01*
X183Y492D02*
X194Y492D01*
X548Y492D02*
X560Y492D01*
X624Y492D02*
X625Y492D01*
X628Y492D02*
X638Y492D01*
X655Y492D02*
X665Y492D01*
X698Y492D02*
X707Y492D01*
X721Y492D02*
X732Y492D01*
X744Y492D02*
X751Y492D01*
X0Y491D02*
X7Y491D01*
X32Y491D02*
X41Y491D01*
X72Y491D02*
X81Y491D01*
X111Y491D02*
X121Y491D01*
X183Y491D02*
X193Y491D01*
X547Y491D02*
X559Y491D01*
X624Y491D02*
X625Y491D01*
X629Y491D02*
X639Y491D01*
X655Y491D02*
X665Y491D01*
X698Y491D02*
X707Y491D01*
X722Y491D02*
X732Y491D01*
X744Y491D02*
X751Y491D01*
X0Y490D02*
X7Y490D01*
X32Y490D02*
X41Y490D01*
X71Y490D02*
X81Y490D01*
X110Y490D02*
X120Y490D01*
X182Y490D02*
X193Y490D01*
X547Y490D02*
X558Y490D01*
X624Y490D02*
X625Y490D01*
X629Y490D02*
X639Y490D01*
X655Y490D02*
X665Y490D01*
X698Y490D02*
X707Y490D01*
X722Y490D02*
X733Y490D01*
X744Y490D02*
X751Y490D01*
X0Y489D02*
X7Y489D01*
X32Y489D02*
X41Y489D01*
X71Y489D02*
X81Y489D01*
X110Y489D02*
X120Y489D01*
X182Y489D02*
X192Y489D01*
X546Y489D02*
X557Y489D01*
X624Y489D02*
X625Y489D01*
X630Y489D02*
X640Y489D01*
X655Y489D02*
X665Y489D01*
X698Y489D02*
X707Y489D01*
X723Y489D02*
X733Y489D01*
X744Y489D02*
X751Y489D01*
X0Y488D02*
X7Y488D01*
X32Y488D02*
X42Y488D01*
X71Y488D02*
X80Y488D01*
X109Y488D02*
X119Y488D01*
X181Y488D02*
X192Y488D01*
X546Y488D02*
X557Y488D01*
X624Y488D02*
X625Y488D01*
X630Y488D02*
X640Y488D01*
X655Y488D02*
X665Y488D01*
X698Y488D02*
X707Y488D01*
X723Y488D02*
X734Y488D01*
X744Y488D02*
X751Y488D01*
X0Y487D02*
X7Y487D01*
X32Y487D02*
X42Y487D01*
X70Y487D02*
X80Y487D01*
X109Y487D02*
X119Y487D01*
X181Y487D02*
X191Y487D01*
X545Y487D02*
X556Y487D01*
X624Y487D02*
X625Y487D01*
X630Y487D02*
X641Y487D01*
X655Y487D02*
X665Y487D01*
X698Y487D02*
X707Y487D01*
X724Y487D02*
X734Y487D01*
X744Y487D02*
X751Y487D01*
X0Y486D02*
X7Y486D01*
X33Y486D02*
X43Y486D01*
X70Y486D02*
X80Y486D01*
X108Y486D02*
X118Y486D01*
X180Y486D02*
X191Y486D01*
X545Y486D02*
X555Y486D01*
X623Y486D02*
X625Y486D01*
X631Y486D02*
X641Y486D01*
X655Y486D02*
X665Y486D01*
X698Y486D02*
X707Y486D01*
X724Y486D02*
X735Y486D01*
X744Y486D02*
X751Y486D01*
X0Y485D02*
X7Y485D01*
X33Y485D02*
X43Y485D01*
X69Y485D02*
X79Y485D01*
X108Y485D02*
X118Y485D01*
X180Y485D02*
X190Y485D01*
X544Y485D02*
X554Y485D01*
X623Y485D02*
X625Y485D01*
X631Y485D02*
X641Y485D01*
X655Y485D02*
X665Y485D01*
X698Y485D02*
X707Y485D01*
X725Y485D02*
X735Y485D01*
X744Y485D02*
X751Y485D01*
X0Y484D02*
X7Y484D01*
X34Y484D02*
X43Y484D01*
X69Y484D02*
X79Y484D01*
X107Y484D02*
X117Y484D01*
X179Y484D02*
X190Y484D01*
X544Y484D02*
X554Y484D01*
X623Y484D02*
X625Y484D01*
X632Y484D02*
X642Y484D01*
X655Y484D02*
X665Y484D01*
X698Y484D02*
X707Y484D01*
X725Y484D02*
X735Y484D01*
X744Y484D02*
X751Y484D01*
X0Y483D02*
X7Y483D01*
X34Y483D02*
X44Y483D01*
X69Y483D02*
X79Y483D01*
X107Y483D02*
X117Y483D01*
X179Y483D02*
X189Y483D01*
X544Y483D02*
X553Y483D01*
X622Y483D02*
X625Y483D01*
X632Y483D02*
X642Y483D01*
X655Y483D02*
X665Y483D01*
X698Y483D02*
X707Y483D01*
X726Y483D02*
X736Y483D01*
X744Y483D02*
X751Y483D01*
X0Y482D02*
X7Y482D01*
X34Y482D02*
X44Y482D01*
X68Y482D02*
X78Y482D01*
X106Y482D02*
X116Y482D01*
X178Y482D02*
X189Y482D01*
X544Y482D02*
X553Y482D01*
X622Y482D02*
X625Y482D01*
X633Y482D02*
X643Y482D01*
X655Y482D02*
X665Y482D01*
X698Y482D02*
X707Y482D01*
X726Y482D02*
X736Y482D01*
X744Y482D02*
X751Y482D01*
X0Y481D02*
X7Y481D01*
X35Y481D02*
X45Y481D01*
X68Y481D02*
X78Y481D01*
X106Y481D02*
X116Y481D01*
X178Y481D02*
X188Y481D01*
X544Y481D02*
X553Y481D01*
X622Y481D02*
X625Y481D01*
X633Y481D02*
X643Y481D01*
X655Y481D02*
X665Y481D01*
X698Y481D02*
X707Y481D01*
X727Y481D02*
X736Y481D01*
X744Y481D02*
X751Y481D01*
X0Y480D02*
X7Y480D01*
X35Y480D02*
X45Y480D01*
X68Y480D02*
X77Y480D01*
X105Y480D02*
X115Y480D01*
X178Y480D02*
X188Y480D01*
X544Y480D02*
X553Y480D01*
X621Y480D02*
X625Y480D01*
X633Y480D02*
X644Y480D01*
X655Y480D02*
X665Y480D01*
X698Y480D02*
X707Y480D01*
X727Y480D02*
X736Y480D01*
X744Y480D02*
X751Y480D01*
X0Y479D02*
X7Y479D01*
X35Y479D02*
X45Y479D01*
X67Y479D02*
X77Y479D01*
X105Y479D02*
X115Y479D01*
X177Y479D02*
X187Y479D01*
X544Y479D02*
X553Y479D01*
X620Y479D02*
X625Y479D01*
X634Y479D02*
X644Y479D01*
X655Y479D02*
X665Y479D01*
X698Y479D02*
X707Y479D01*
X727Y479D02*
X737Y479D01*
X744Y479D02*
X751Y479D01*
X0Y478D02*
X7Y478D01*
X36Y478D02*
X46Y478D01*
X67Y478D02*
X77Y478D01*
X105Y478D02*
X114Y478D01*
X177Y478D02*
X187Y478D01*
X544Y478D02*
X553Y478D01*
X620Y478D02*
X625Y478D01*
X634Y478D02*
X644Y478D01*
X655Y478D02*
X665Y478D01*
X698Y478D02*
X707Y478D01*
X727Y478D02*
X737Y478D01*
X744Y478D02*
X751Y478D01*
X0Y477D02*
X7Y477D01*
X36Y477D02*
X46Y477D01*
X66Y477D02*
X76Y477D01*
X105Y477D02*
X114Y477D01*
X177Y477D02*
X186Y477D01*
X544Y477D02*
X553Y477D01*
X619Y477D02*
X625Y477D01*
X635Y477D02*
X645Y477D01*
X655Y477D02*
X665Y477D01*
X698Y477D02*
X707Y477D01*
X728Y477D02*
X737Y477D01*
X744Y477D02*
X751Y477D01*
X0Y476D02*
X7Y476D01*
X37Y476D02*
X47Y476D01*
X66Y476D02*
X76Y476D01*
X104Y476D02*
X114Y476D01*
X177Y476D02*
X186Y476D01*
X544Y476D02*
X553Y476D01*
X618Y476D02*
X625Y476D01*
X635Y476D02*
X645Y476D01*
X655Y476D02*
X665Y476D01*
X698Y476D02*
X707Y476D01*
X728Y476D02*
X737Y476D01*
X744Y476D02*
X751Y476D01*
X0Y475D02*
X7Y475D01*
X37Y475D02*
X47Y475D01*
X66Y475D02*
X75Y475D01*
X104Y475D02*
X113Y475D01*
X176Y475D02*
X186Y475D01*
X544Y475D02*
X553Y475D01*
X618Y475D02*
X625Y475D01*
X636Y475D02*
X646Y475D01*
X655Y475D02*
X665Y475D01*
X698Y475D02*
X707Y475D01*
X728Y475D02*
X737Y475D01*
X744Y475D02*
X751Y475D01*
X0Y474D02*
X7Y474D01*
X37Y474D02*
X47Y474D01*
X65Y474D02*
X75Y474D01*
X104Y474D02*
X113Y474D01*
X176Y474D02*
X186Y474D01*
X544Y474D02*
X553Y474D01*
X617Y474D02*
X625Y474D01*
X636Y474D02*
X646Y474D01*
X655Y474D02*
X665Y474D01*
X698Y474D02*
X707Y474D01*
X727Y474D02*
X737Y474D01*
X744Y474D02*
X751Y474D01*
X0Y473D02*
X7Y473D01*
X38Y473D02*
X48Y473D01*
X65Y473D02*
X75Y473D01*
X104Y473D02*
X113Y473D01*
X176Y473D02*
X185Y473D01*
X544Y473D02*
X553Y473D01*
X616Y473D02*
X625Y473D01*
X637Y473D02*
X647Y473D01*
X655Y473D02*
X665Y473D01*
X698Y473D02*
X707Y473D01*
X727Y473D02*
X736Y473D01*
X744Y473D02*
X751Y473D01*
X0Y472D02*
X7Y472D01*
X38Y472D02*
X48Y472D01*
X64Y472D02*
X74Y472D01*
X104Y472D02*
X113Y472D01*
X176Y472D02*
X185Y472D01*
X544Y472D02*
X553Y472D01*
X571Y472D02*
X583Y472D01*
X616Y472D02*
X625Y472D01*
X637Y472D02*
X647Y472D01*
X655Y472D02*
X665Y472D01*
X698Y472D02*
X707Y472D01*
X727Y472D02*
X736Y472D01*
X744Y472D02*
X751Y472D01*
X0Y471D02*
X7Y471D01*
X39Y471D02*
X49Y471D01*
X64Y471D02*
X74Y471D01*
X104Y471D02*
X113Y471D01*
X176Y471D02*
X186Y471D01*
X544Y471D02*
X553Y471D01*
X570Y471D02*
X584Y471D01*
X616Y471D02*
X625Y471D01*
X637Y471D02*
X648Y471D01*
X655Y471D02*
X665Y471D01*
X698Y471D02*
X707Y471D01*
X726Y471D02*
X736Y471D01*
X744Y471D02*
X751Y471D01*
X0Y470D02*
X7Y470D01*
X39Y470D02*
X49Y470D01*
X64Y470D02*
X73Y470D01*
X104Y470D02*
X113Y470D01*
X176Y470D02*
X186Y470D01*
X544Y470D02*
X553Y470D01*
X569Y470D02*
X585Y470D01*
X616Y470D02*
X625Y470D01*
X638Y470D02*
X648Y470D01*
X655Y470D02*
X665Y470D01*
X698Y470D02*
X707Y470D01*
X726Y470D02*
X736Y470D01*
X744Y470D02*
X751Y470D01*
X0Y469D02*
X7Y469D01*
X39Y469D02*
X49Y469D01*
X63Y469D02*
X73Y469D01*
X104Y469D02*
X114Y469D01*
X177Y469D02*
X186Y469D01*
X544Y469D02*
X553Y469D01*
X569Y469D02*
X587Y469D01*
X616Y469D02*
X625Y469D01*
X638Y469D02*
X648Y469D01*
X655Y469D02*
X665Y469D01*
X698Y469D02*
X707Y469D01*
X726Y469D02*
X736Y469D01*
X744Y469D02*
X751Y469D01*
X0Y468D02*
X7Y468D01*
X40Y468D02*
X50Y468D01*
X63Y468D02*
X73Y468D01*
X105Y468D02*
X114Y468D01*
X177Y468D02*
X186Y468D01*
X544Y468D02*
X553Y468D01*
X568Y468D02*
X589Y468D01*
X616Y468D02*
X625Y468D01*
X639Y468D02*
X649Y468D01*
X655Y468D02*
X665Y468D01*
X698Y468D02*
X707Y468D01*
X725Y468D02*
X735Y468D01*
X744Y468D02*
X751Y468D01*
X0Y467D02*
X7Y467D01*
X40Y467D02*
X50Y467D01*
X62Y467D02*
X72Y467D01*
X105Y467D02*
X114Y467D01*
X177Y467D02*
X187Y467D01*
X544Y467D02*
X553Y467D01*
X569Y467D02*
X591Y467D01*
X616Y467D02*
X625Y467D01*
X639Y467D02*
X649Y467D01*
X655Y467D02*
X665Y467D01*
X698Y467D02*
X707Y467D01*
X725Y467D02*
X735Y467D01*
X744Y467D02*
X751Y467D01*
X0Y466D02*
X7Y466D01*
X41Y466D02*
X50Y466D01*
X62Y466D02*
X72Y466D01*
X105Y466D02*
X115Y466D01*
X177Y466D02*
X187Y466D01*
X544Y466D02*
X553Y466D01*
X569Y466D02*
X592Y466D01*
X616Y466D02*
X625Y466D01*
X640Y466D02*
X650Y466D01*
X655Y466D02*
X665Y466D01*
X698Y466D02*
X707Y466D01*
X724Y466D02*
X734Y466D01*
X744Y466D02*
X751Y466D01*
X0Y465D02*
X7Y465D01*
X41Y465D02*
X51Y465D01*
X62Y465D02*
X72Y465D01*
X105Y465D02*
X115Y465D01*
X178Y465D02*
X187Y465D01*
X544Y465D02*
X553Y465D01*
X569Y465D02*
X592Y465D01*
X616Y465D02*
X625Y465D01*
X640Y465D02*
X650Y465D01*
X655Y465D02*
X665Y465D01*
X698Y465D02*
X707Y465D01*
X724Y465D02*
X734Y465D01*
X744Y465D02*
X751Y465D01*
X0Y464D02*
X7Y464D01*
X41Y464D02*
X51Y464D01*
X61Y464D02*
X71Y464D01*
X106Y464D02*
X116Y464D01*
X178Y464D02*
X188Y464D01*
X544Y464D02*
X553Y464D01*
X570Y464D02*
X592Y464D01*
X616Y464D02*
X625Y464D01*
X640Y464D02*
X651Y464D01*
X655Y464D02*
X665Y464D01*
X698Y464D02*
X707Y464D01*
X723Y464D02*
X733Y464D01*
X744Y464D02*
X751Y464D01*
X0Y463D02*
X7Y463D01*
X42Y463D02*
X52Y463D01*
X61Y463D02*
X71Y463D01*
X106Y463D02*
X116Y463D01*
X178Y463D02*
X188Y463D01*
X544Y463D02*
X553Y463D01*
X572Y463D02*
X592Y463D01*
X616Y463D02*
X625Y463D01*
X641Y463D02*
X651Y463D01*
X655Y463D02*
X665Y463D01*
X698Y463D02*
X707Y463D01*
X723Y463D02*
X733Y463D01*
X744Y463D02*
X751Y463D01*
X0Y462D02*
X7Y462D01*
X42Y462D02*
X52Y462D01*
X60Y462D02*
X70Y462D01*
X107Y462D02*
X117Y462D01*
X179Y462D02*
X189Y462D01*
X544Y462D02*
X553Y462D01*
X583Y462D02*
X592Y462D01*
X616Y462D02*
X625Y462D01*
X641Y462D02*
X651Y462D01*
X655Y462D02*
X665Y462D01*
X698Y462D02*
X707Y462D01*
X722Y462D02*
X732Y462D01*
X744Y462D02*
X751Y462D01*
X0Y461D02*
X7Y461D01*
X42Y461D02*
X52Y461D01*
X60Y461D02*
X70Y461D01*
X107Y461D02*
X117Y461D01*
X179Y461D02*
X190Y461D01*
X544Y461D02*
X553Y461D01*
X583Y461D02*
X592Y461D01*
X616Y461D02*
X625Y461D01*
X642Y461D02*
X652Y461D01*
X655Y461D02*
X665Y461D01*
X698Y461D02*
X707Y461D01*
X721Y461D02*
X732Y461D01*
X744Y461D02*
X751Y461D01*
X0Y460D02*
X7Y460D01*
X43Y460D02*
X53Y460D01*
X60Y460D02*
X70Y460D01*
X107Y460D02*
X118Y460D01*
X180Y460D02*
X190Y460D01*
X544Y460D02*
X553Y460D01*
X583Y460D02*
X592Y460D01*
X616Y460D02*
X625Y460D01*
X642Y460D02*
X652Y460D01*
X655Y460D02*
X665Y460D01*
X698Y460D02*
X707Y460D01*
X721Y460D02*
X731Y460D01*
X744Y460D02*
X751Y460D01*
X0Y459D02*
X7Y459D01*
X43Y459D02*
X53Y459D01*
X59Y459D02*
X69Y459D01*
X108Y459D02*
X118Y459D01*
X180Y459D02*
X191Y459D01*
X544Y459D02*
X553Y459D01*
X583Y459D02*
X592Y459D01*
X616Y459D02*
X625Y459D01*
X643Y459D02*
X653Y459D01*
X655Y459D02*
X665Y459D01*
X698Y459D02*
X707Y459D01*
X720Y459D02*
X731Y459D01*
X744Y459D02*
X751Y459D01*
X0Y458D02*
X7Y458D01*
X44Y458D02*
X54Y458D01*
X59Y458D02*
X69Y458D01*
X108Y458D02*
X119Y458D01*
X181Y458D02*
X191Y458D01*
X544Y458D02*
X553Y458D01*
X583Y458D02*
X592Y458D01*
X616Y458D02*
X625Y458D01*
X643Y458D02*
X653Y458D01*
X655Y458D02*
X665Y458D01*
X698Y458D02*
X707Y458D01*
X720Y458D02*
X730Y458D01*
X744Y458D02*
X751Y458D01*
X0Y457D02*
X7Y457D01*
X44Y457D02*
X54Y457D01*
X59Y457D02*
X68Y457D01*
X109Y457D02*
X119Y457D01*
X181Y457D02*
X192Y457D01*
X544Y457D02*
X553Y457D01*
X583Y457D02*
X592Y457D01*
X616Y457D02*
X625Y457D01*
X644Y457D02*
X665Y457D01*
X698Y457D02*
X707Y457D01*
X719Y457D02*
X730Y457D01*
X744Y457D02*
X751Y457D01*
X0Y456D02*
X7Y456D01*
X44Y456D02*
X54Y456D01*
X58Y456D02*
X68Y456D01*
X109Y456D02*
X120Y456D01*
X182Y456D02*
X192Y456D01*
X544Y456D02*
X553Y456D01*
X583Y456D02*
X592Y456D01*
X616Y456D02*
X625Y456D01*
X644Y456D02*
X665Y456D01*
X698Y456D02*
X707Y456D01*
X719Y456D02*
X729Y456D01*
X744Y456D02*
X751Y456D01*
X0Y455D02*
X7Y455D01*
X45Y455D02*
X55Y455D01*
X58Y455D02*
X68Y455D01*
X110Y455D02*
X120Y455D01*
X182Y455D02*
X193Y455D01*
X544Y455D02*
X553Y455D01*
X583Y455D02*
X592Y455D01*
X616Y455D02*
X625Y455D01*
X644Y455D02*
X665Y455D01*
X698Y455D02*
X707Y455D01*
X718Y455D02*
X729Y455D01*
X744Y455D02*
X751Y455D01*
X0Y454D02*
X7Y454D01*
X45Y454D02*
X55Y454D01*
X57Y454D02*
X67Y454D01*
X110Y454D02*
X121Y454D01*
X183Y454D02*
X193Y454D01*
X544Y454D02*
X553Y454D01*
X583Y454D02*
X592Y454D01*
X616Y454D02*
X625Y454D01*
X645Y454D02*
X665Y454D01*
X698Y454D02*
X707Y454D01*
X718Y454D02*
X728Y454D01*
X744Y454D02*
X751Y454D01*
X0Y453D02*
X7Y453D01*
X46Y453D02*
X67Y453D01*
X111Y453D02*
X121Y453D01*
X183Y453D02*
X194Y453D01*
X544Y453D02*
X553Y453D01*
X583Y453D02*
X592Y453D01*
X616Y453D02*
X625Y453D01*
X645Y453D02*
X665Y453D01*
X698Y453D02*
X707Y453D01*
X717Y453D02*
X728Y453D01*
X744Y453D02*
X751Y453D01*
X0Y452D02*
X7Y452D01*
X46Y452D02*
X66Y452D01*
X111Y452D02*
X122Y452D01*
X184Y452D02*
X194Y452D01*
X544Y452D02*
X553Y452D01*
X583Y452D02*
X592Y452D01*
X616Y452D02*
X625Y452D01*
X646Y452D02*
X665Y452D01*
X698Y452D02*
X707Y452D01*
X717Y452D02*
X727Y452D01*
X744Y452D02*
X751Y452D01*
X0Y451D02*
X7Y451D01*
X46Y451D02*
X66Y451D01*
X112Y451D02*
X122Y451D01*
X184Y451D02*
X195Y451D01*
X544Y451D02*
X553Y451D01*
X583Y451D02*
X592Y451D01*
X616Y451D02*
X625Y451D01*
X646Y451D02*
X665Y451D01*
X698Y451D02*
X707Y451D01*
X716Y451D02*
X727Y451D01*
X744Y451D02*
X751Y451D01*
X0Y450D02*
X7Y450D01*
X47Y450D02*
X66Y450D01*
X112Y450D02*
X123Y450D01*
X185Y450D02*
X195Y450D01*
X544Y450D02*
X553Y450D01*
X583Y450D02*
X592Y450D01*
X616Y450D02*
X625Y450D01*
X647Y450D02*
X665Y450D01*
X698Y450D02*
X707Y450D01*
X716Y450D02*
X726Y450D01*
X744Y450D02*
X751Y450D01*
X0Y449D02*
X7Y449D01*
X47Y449D02*
X65Y449D01*
X113Y449D02*
X123Y449D01*
X185Y449D02*
X196Y449D01*
X544Y449D02*
X554Y449D01*
X582Y449D02*
X592Y449D01*
X616Y449D02*
X625Y449D01*
X647Y449D02*
X665Y449D01*
X698Y449D02*
X707Y449D01*
X715Y449D02*
X726Y449D01*
X744Y449D02*
X751Y449D01*
X0Y448D02*
X7Y448D01*
X48Y448D02*
X65Y448D01*
X113Y448D02*
X124Y448D01*
X186Y448D02*
X196Y448D01*
X544Y448D02*
X556Y448D01*
X580Y448D02*
X592Y448D01*
X616Y448D02*
X625Y448D01*
X647Y448D02*
X665Y448D01*
X698Y448D02*
X707Y448D01*
X714Y448D02*
X725Y448D01*
X744Y448D02*
X751Y448D01*
X0Y447D02*
X7Y447D01*
X48Y447D02*
X65Y447D01*
X114Y447D02*
X124Y447D01*
X186Y447D02*
X197Y447D01*
X545Y447D02*
X591Y447D01*
X616Y447D02*
X625Y447D01*
X648Y447D02*
X665Y447D01*
X691Y447D02*
X725Y447D01*
X744Y447D02*
X751Y447D01*
X0Y446D02*
X7Y446D01*
X48Y446D02*
X64Y446D01*
X115Y446D02*
X125Y446D01*
X187Y446D02*
X197Y446D01*
X545Y446D02*
X591Y446D01*
X616Y446D02*
X625Y446D01*
X648Y446D02*
X665Y446D01*
X690Y446D02*
X724Y446D01*
X744Y446D02*
X751Y446D01*
X0Y445D02*
X7Y445D01*
X49Y445D02*
X64Y445D01*
X115Y445D02*
X126Y445D01*
X187Y445D02*
X198Y445D01*
X546Y445D02*
X590Y445D01*
X616Y445D02*
X625Y445D01*
X649Y445D02*
X665Y445D01*
X689Y445D02*
X724Y445D01*
X744Y445D02*
X751Y445D01*
X0Y444D02*
X7Y444D01*
X49Y444D02*
X63Y444D01*
X116Y444D02*
X127Y444D01*
X188Y444D02*
X199Y444D01*
X546Y444D02*
X590Y444D01*
X616Y444D02*
X625Y444D01*
X649Y444D02*
X665Y444D01*
X688Y444D02*
X723Y444D01*
X744Y444D02*
X751Y444D01*
X0Y443D02*
X7Y443D01*
X49Y443D02*
X63Y443D01*
X116Y443D02*
X150Y443D01*
X188Y443D02*
X222Y443D01*
X547Y443D02*
X589Y443D01*
X616Y443D02*
X625Y443D01*
X650Y443D02*
X665Y443D01*
X688Y443D02*
X723Y443D01*
X744Y443D02*
X751Y443D01*
X0Y442D02*
X7Y442D01*
X50Y442D02*
X63Y442D01*
X117Y442D02*
X151Y442D01*
X189Y442D02*
X223Y442D01*
X548Y442D02*
X588Y442D01*
X616Y442D02*
X625Y442D01*
X650Y442D02*
X665Y442D01*
X688Y442D02*
X722Y442D01*
X744Y442D02*
X751Y442D01*
X0Y441D02*
X7Y441D01*
X50Y441D02*
X62Y441D01*
X117Y441D02*
X152Y441D01*
X189Y441D02*
X224Y441D01*
X549Y441D02*
X587Y441D01*
X616Y441D02*
X625Y441D01*
X651Y441D02*
X665Y441D01*
X688Y441D02*
X721Y441D01*
X744Y441D02*
X751Y441D01*
X0Y440D02*
X7Y440D01*
X51Y440D02*
X62Y440D01*
X118Y440D02*
X153Y440D01*
X190Y440D02*
X225Y440D01*
X550Y440D02*
X586Y440D01*
X616Y440D02*
X624Y440D01*
X651Y440D02*
X665Y440D01*
X689Y440D02*
X719Y440D01*
X744Y440D02*
X751Y440D01*
X0Y439D02*
X7Y439D01*
X51Y439D02*
X61Y439D01*
X119Y439D02*
X153Y439D01*
X191Y439D02*
X225Y439D01*
X552Y439D02*
X584Y439D01*
X617Y439D02*
X624Y439D01*
X651Y439D02*
X665Y439D01*
X689Y439D02*
X718Y439D01*
X744Y439D02*
X751Y439D01*
X0Y438D02*
X7Y438D01*
X51Y438D02*
X61Y438D01*
X119Y438D02*
X153Y438D01*
X192Y438D02*
X225Y438D01*
X554Y438D02*
X582Y438D01*
X618Y438D02*
X622Y438D01*
X652Y438D02*
X665Y438D01*
X691Y438D02*
X715Y438D01*
X744Y438D02*
X751Y438D01*
X0Y437D02*
X7Y437D01*
X52Y437D02*
X61Y437D01*
X121Y437D02*
X153Y437D01*
X193Y437D02*
X225Y437D01*
X744Y437D02*
X751Y437D01*
X0Y436D02*
X7Y436D01*
X52Y436D02*
X60Y436D01*
X122Y436D02*
X152Y436D01*
X194Y436D02*
X224Y436D01*
X744Y436D02*
X751Y436D01*
X0Y435D02*
X7Y435D01*
X53Y435D02*
X59Y435D01*
X124Y435D02*
X151Y435D01*
X196Y435D02*
X224Y435D01*
X744Y435D02*
X751Y435D01*
X0Y434D02*
X7Y434D01*
X54Y434D02*
X58Y434D01*
X126Y434D02*
X150Y434D01*
X198Y434D02*
X222Y434D01*
X744Y434D02*
X751Y434D01*
X0Y433D02*
X7Y433D01*
X744Y433D02*
X751Y433D01*
X0Y432D02*
X7Y432D01*
X744Y432D02*
X751Y432D01*
X0Y431D02*
X7Y431D01*
X744Y431D02*
X751Y431D01*
X0Y430D02*
X7Y430D01*
X744Y430D02*
X751Y430D01*
X0Y429D02*
X7Y429D01*
X744Y429D02*
X751Y429D01*
X0Y428D02*
X7Y428D01*
X744Y428D02*
X751Y428D01*
X0Y427D02*
X7Y427D01*
X744Y427D02*
X751Y427D01*
X0Y426D02*
X7Y426D01*
X744Y426D02*
X751Y426D01*
X0Y425D02*
X7Y425D01*
X744Y425D02*
X751Y425D01*
X0Y424D02*
X7Y424D01*
X744Y424D02*
X751Y424D01*
X0Y423D02*
X7Y423D01*
X744Y423D02*
X751Y423D01*
X0Y422D02*
X7Y422D01*
X744Y422D02*
X751Y422D01*
X0Y421D02*
X7Y421D01*
X744Y421D02*
X751Y421D01*
X0Y420D02*
X7Y420D01*
X744Y420D02*
X751Y420D01*
X0Y419D02*
X7Y419D01*
X744Y419D02*
X751Y419D01*
X0Y418D02*
X7Y418D01*
X744Y418D02*
X751Y418D01*
X0Y417D02*
X7Y417D01*
X744Y417D02*
X751Y417D01*
X0Y416D02*
X7Y416D01*
X744Y416D02*
X751Y416D01*
X0Y415D02*
X7Y415D01*
X744Y415D02*
X751Y415D01*
X0Y414D02*
X7Y414D01*
X744Y414D02*
X751Y414D01*
X0Y413D02*
X7Y413D01*
X744Y413D02*
X751Y413D01*
X0Y412D02*
X7Y412D01*
X744Y412D02*
X751Y412D01*
X0Y411D02*
X7Y411D01*
X744Y411D02*
X751Y411D01*
X0Y410D02*
X7Y410D01*
X744Y410D02*
X751Y410D01*
X0Y409D02*
X7Y409D01*
X744Y409D02*
X751Y409D01*
X0Y408D02*
X7Y408D01*
X744Y408D02*
X751Y408D01*
X0Y407D02*
X7Y407D01*
X744Y407D02*
X751Y407D01*
X0Y406D02*
X7Y406D01*
X744Y406D02*
X751Y406D01*
X0Y405D02*
X7Y405D01*
X744Y405D02*
X751Y405D01*
X0Y404D02*
X7Y404D01*
X744Y404D02*
X751Y404D01*
X0Y403D02*
X7Y403D01*
X744Y403D02*
X751Y403D01*
X0Y402D02*
X7Y402D01*
X744Y402D02*
X751Y402D01*
X0Y401D02*
X7Y401D01*
X744Y401D02*
X751Y401D01*
X0Y400D02*
X7Y400D01*
X744Y400D02*
X751Y400D01*
X0Y399D02*
X7Y399D01*
X744Y399D02*
X751Y399D01*
X0Y398D02*
X7Y398D01*
X744Y398D02*
X751Y398D01*
X0Y397D02*
X7Y397D01*
X744Y397D02*
X751Y397D01*
X0Y396D02*
X7Y396D01*
X744Y396D02*
X751Y396D01*
X0Y395D02*
X7Y395D01*
X744Y395D02*
X751Y395D01*
X0Y394D02*
X7Y394D01*
X744Y394D02*
X751Y394D01*
X0Y393D02*
X7Y393D01*
X744Y393D02*
X751Y393D01*
X0Y392D02*
X7Y392D01*
X744Y392D02*
X751Y392D01*
X0Y391D02*
X7Y391D01*
X744Y391D02*
X751Y391D01*
X0Y390D02*
X7Y390D01*
X744Y390D02*
X751Y390D01*
X0Y389D02*
X7Y389D01*
X744Y389D02*
X751Y389D01*
X0Y388D02*
X7Y388D01*
X744Y388D02*
X751Y388D01*
X0Y387D02*
X7Y387D01*
X744Y387D02*
X751Y387D01*
X0Y386D02*
X7Y386D01*
X744Y386D02*
X751Y386D01*
X0Y385D02*
X7Y385D01*
X744Y385D02*
X751Y385D01*
X0Y384D02*
X7Y384D01*
X744Y384D02*
X751Y384D01*
X0Y383D02*
X7Y383D01*
X744Y383D02*
X751Y383D01*
X0Y382D02*
X7Y382D01*
X744Y382D02*
X751Y382D01*
X0Y381D02*
X7Y381D01*
X744Y381D02*
X751Y381D01*
X0Y380D02*
X7Y380D01*
X744Y380D02*
X751Y380D01*
X0Y379D02*
X7Y379D01*
X744Y379D02*
X751Y379D01*
X0Y378D02*
X7Y378D01*
X744Y378D02*
X751Y378D01*
X0Y377D02*
X7Y377D01*
X744Y377D02*
X751Y377D01*
X0Y376D02*
X7Y376D01*
X744Y376D02*
X751Y376D01*
X0Y375D02*
X7Y375D01*
X744Y375D02*
X751Y375D01*
X0Y374D02*
X7Y374D01*
X744Y374D02*
X751Y374D01*
X0Y373D02*
X7Y373D01*
X744Y373D02*
X751Y373D01*
X0Y372D02*
X7Y372D01*
X744Y372D02*
X751Y372D01*
X0Y371D02*
X7Y371D01*
X744Y371D02*
X751Y371D01*
X0Y370D02*
X7Y370D01*
X744Y370D02*
X751Y370D01*
X0Y369D02*
X7Y369D01*
X744Y369D02*
X751Y369D01*
X0Y368D02*
X7Y368D01*
X744Y368D02*
X751Y368D01*
X0Y367D02*
X7Y367D01*
X744Y367D02*
X751Y367D01*
X0Y366D02*
X7Y366D01*
X744Y366D02*
X751Y366D01*
X0Y365D02*
X7Y365D01*
X744Y365D02*
X751Y365D01*
X0Y364D02*
X7Y364D01*
X744Y364D02*
X751Y364D01*
X0Y363D02*
X7Y363D01*
X744Y363D02*
X751Y363D01*
X0Y362D02*
X7Y362D01*
X744Y362D02*
X751Y362D01*
X0Y361D02*
X7Y361D01*
X744Y361D02*
X751Y361D01*
X0Y360D02*
X7Y360D01*
X744Y360D02*
X751Y360D01*
X0Y359D02*
X7Y359D01*
X744Y359D02*
X751Y359D01*
X0Y358D02*
X7Y358D01*
X744Y358D02*
X751Y358D01*
X0Y357D02*
X7Y357D01*
X744Y357D02*
X751Y357D01*
X0Y356D02*
X7Y356D01*
X744Y356D02*
X751Y356D01*
X0Y355D02*
X7Y355D01*
X744Y355D02*
X751Y355D01*
X0Y354D02*
X7Y354D01*
X744Y354D02*
X751Y354D01*
X0Y353D02*
X7Y353D01*
X744Y353D02*
X751Y353D01*
X0Y352D02*
X7Y352D01*
X744Y352D02*
X751Y352D01*
X0Y351D02*
X7Y351D01*
X744Y351D02*
X751Y351D01*
X0Y350D02*
X7Y350D01*
X744Y350D02*
X751Y350D01*
X0Y349D02*
X7Y349D01*
X744Y349D02*
X751Y349D01*
X0Y348D02*
X7Y348D01*
X744Y348D02*
X751Y348D01*
X0Y347D02*
X7Y347D01*
X744Y347D02*
X751Y347D01*
X0Y346D02*
X7Y346D01*
X744Y346D02*
X751Y346D01*
X0Y345D02*
X7Y345D01*
X744Y345D02*
X751Y345D01*
X0Y344D02*
X7Y344D01*
X744Y344D02*
X751Y344D01*
X0Y343D02*
X7Y343D01*
X744Y343D02*
X751Y343D01*
X0Y342D02*
X7Y342D01*
X744Y342D02*
X751Y342D01*
X0Y341D02*
X7Y341D01*
X744Y341D02*
X751Y341D01*
X0Y340D02*
X7Y340D01*
X744Y340D02*
X751Y340D01*
X0Y339D02*
X7Y339D01*
X744Y339D02*
X751Y339D01*
X0Y338D02*
X7Y338D01*
X744Y338D02*
X751Y338D01*
X0Y337D02*
X7Y337D01*
X744Y337D02*
X751Y337D01*
X0Y336D02*
X7Y336D01*
X744Y336D02*
X751Y336D01*
X0Y335D02*
X7Y335D01*
X744Y335D02*
X751Y335D01*
X0Y334D02*
X7Y334D01*
X744Y334D02*
X751Y334D01*
X0Y333D02*
X7Y333D01*
X744Y333D02*
X751Y333D01*
X0Y332D02*
X7Y332D01*
X744Y332D02*
X751Y332D01*
X0Y331D02*
X7Y331D01*
X744Y331D02*
X751Y331D01*
X0Y330D02*
X7Y330D01*
X744Y330D02*
X751Y330D01*
X0Y329D02*
X7Y329D01*
X744Y329D02*
X751Y329D01*
X0Y328D02*
X7Y328D01*
X744Y328D02*
X751Y328D01*
X0Y327D02*
X7Y327D01*
X744Y327D02*
X751Y327D01*
X0Y326D02*
X7Y326D01*
X744Y326D02*
X751Y326D01*
X0Y325D02*
X7Y325D01*
X744Y325D02*
X751Y325D01*
X0Y324D02*
X7Y324D01*
X744Y324D02*
X751Y324D01*
X0Y323D02*
X7Y323D01*
X744Y323D02*
X751Y323D01*
X0Y322D02*
X7Y322D01*
X744Y322D02*
X751Y322D01*
X0Y321D02*
X7Y321D01*
X744Y321D02*
X751Y321D01*
X0Y320D02*
X7Y320D01*
X744Y320D02*
X751Y320D01*
X0Y319D02*
X7Y319D01*
X744Y319D02*
X751Y319D01*
X0Y318D02*
X7Y318D01*
X744Y318D02*
X751Y318D01*
X0Y317D02*
X7Y317D01*
X744Y317D02*
X751Y317D01*
X0Y316D02*
X7Y316D01*
X744Y316D02*
X751Y316D01*
X0Y315D02*
X7Y315D01*
X744Y315D02*
X751Y315D01*
X0Y314D02*
X7Y314D01*
X744Y314D02*
X751Y314D01*
X0Y313D02*
X7Y313D01*
X744Y313D02*
X751Y313D01*
X0Y312D02*
X7Y312D01*
X744Y312D02*
X751Y312D01*
X0Y311D02*
X7Y311D01*
X744Y311D02*
X751Y311D01*
X0Y310D02*
X7Y310D01*
X744Y310D02*
X751Y310D01*
X0Y309D02*
X7Y309D01*
X744Y309D02*
X751Y309D01*
X0Y308D02*
X7Y308D01*
X744Y308D02*
X751Y308D01*
X0Y307D02*
X7Y307D01*
X744Y307D02*
X751Y307D01*
X0Y306D02*
X7Y306D01*
X744Y306D02*
X751Y306D01*
X0Y305D02*
X7Y305D01*
X744Y305D02*
X751Y305D01*
X0Y304D02*
X7Y304D01*
X744Y304D02*
X751Y304D01*
X0Y303D02*
X7Y303D01*
X744Y303D02*
X751Y303D01*
X0Y302D02*
X7Y302D01*
X744Y302D02*
X751Y302D01*
X0Y301D02*
X7Y301D01*
X744Y301D02*
X751Y301D01*
X0Y300D02*
X7Y300D01*
X744Y300D02*
X751Y300D01*
X0Y299D02*
X7Y299D01*
X744Y299D02*
X751Y299D01*
X0Y298D02*
X7Y298D01*
X744Y298D02*
X751Y298D01*
X0Y297D02*
X7Y297D01*
X744Y297D02*
X751Y297D01*
X0Y296D02*
X7Y296D01*
X744Y296D02*
X751Y296D01*
X0Y295D02*
X7Y295D01*
X744Y295D02*
X751Y295D01*
X0Y294D02*
X7Y294D01*
X744Y294D02*
X751Y294D01*
X0Y293D02*
X7Y293D01*
X744Y293D02*
X751Y293D01*
X0Y292D02*
X7Y292D01*
X744Y292D02*
X751Y292D01*
X0Y291D02*
X7Y291D01*
X744Y291D02*
X751Y291D01*
X0Y290D02*
X7Y290D01*
X744Y290D02*
X751Y290D01*
X0Y289D02*
X7Y289D01*
X744Y289D02*
X751Y289D01*
X0Y288D02*
X7Y288D01*
X744Y288D02*
X751Y288D01*
X0Y287D02*
X7Y287D01*
X744Y287D02*
X751Y287D01*
X0Y286D02*
X7Y286D01*
X744Y286D02*
X751Y286D01*
X0Y285D02*
X7Y285D01*
X744Y285D02*
X751Y285D01*
X0Y284D02*
X7Y284D01*
X744Y284D02*
X751Y284D01*
X0Y283D02*
X7Y283D01*
X744Y283D02*
X751Y283D01*
X0Y282D02*
X7Y282D01*
X744Y282D02*
X751Y282D01*
X0Y281D02*
X7Y281D01*
X744Y281D02*
X751Y281D01*
X0Y280D02*
X7Y280D01*
X744Y280D02*
X751Y280D01*
X0Y279D02*
X7Y279D01*
X744Y279D02*
X751Y279D01*
X0Y278D02*
X7Y278D01*
X744Y278D02*
X751Y278D01*
X0Y277D02*
X7Y277D01*
X744Y277D02*
X751Y277D01*
X0Y276D02*
X7Y276D01*
X744Y276D02*
X751Y276D01*
X0Y275D02*
X7Y275D01*
X744Y275D02*
X751Y275D01*
X0Y274D02*
X7Y274D01*
X744Y274D02*
X751Y274D01*
X0Y273D02*
X7Y273D01*
X744Y273D02*
X751Y273D01*
X0Y272D02*
X7Y272D01*
X744Y272D02*
X751Y272D01*
X0Y271D02*
X7Y271D01*
X744Y271D02*
X751Y271D01*
X0Y270D02*
X7Y270D01*
X744Y270D02*
X751Y270D01*
X0Y269D02*
X7Y269D01*
X744Y269D02*
X751Y269D01*
X0Y268D02*
X7Y268D01*
X280Y268D02*
X479Y268D01*
X744Y268D02*
X751Y268D01*
X0Y267D02*
X7Y267D01*
X280Y267D02*
X479Y267D01*
X744Y267D02*
X751Y267D01*
X0Y266D02*
X7Y266D01*
X280Y266D02*
X479Y266D01*
X744Y266D02*
X751Y266D01*
X0Y265D02*
X7Y265D01*
X280Y265D02*
X282Y265D01*
X355Y265D02*
X403Y265D01*
X477Y265D02*
X479Y265D01*
X744Y265D02*
X751Y265D01*
X0Y264D02*
X7Y264D01*
X280Y264D02*
X282Y264D01*
X477Y264D02*
X479Y264D01*
X744Y264D02*
X751Y264D01*
X0Y263D02*
X7Y263D01*
X280Y263D02*
X282Y263D01*
X477Y263D02*
X479Y263D01*
X744Y263D02*
X751Y263D01*
X0Y262D02*
X7Y262D01*
X280Y262D02*
X282Y262D01*
X477Y262D02*
X479Y262D01*
X744Y262D02*
X751Y262D01*
X0Y261D02*
X7Y261D01*
X280Y261D02*
X282Y261D01*
X477Y261D02*
X479Y261D01*
X744Y261D02*
X751Y261D01*
X0Y260D02*
X7Y260D01*
X280Y260D02*
X282Y260D01*
X477Y260D02*
X479Y260D01*
X744Y260D02*
X751Y260D01*
X0Y259D02*
X7Y259D01*
X280Y259D02*
X282Y259D01*
X477Y259D02*
X479Y259D01*
X744Y259D02*
X751Y259D01*
X0Y258D02*
X7Y258D01*
X280Y258D02*
X282Y258D01*
X477Y258D02*
X479Y258D01*
X744Y258D02*
X751Y258D01*
X0Y257D02*
X7Y257D01*
X280Y257D02*
X282Y257D01*
X477Y257D02*
X479Y257D01*
X744Y257D02*
X751Y257D01*
X0Y256D02*
X7Y256D01*
X280Y256D02*
X282Y256D01*
X477Y256D02*
X479Y256D01*
X744Y256D02*
X751Y256D01*
X0Y255D02*
X7Y255D01*
X280Y255D02*
X282Y255D01*
X477Y255D02*
X479Y255D01*
X744Y255D02*
X751Y255D01*
X0Y254D02*
X7Y254D01*
X280Y254D02*
X282Y254D01*
X477Y254D02*
X479Y254D01*
X744Y254D02*
X751Y254D01*
X0Y253D02*
X7Y253D01*
X280Y253D02*
X282Y253D01*
X477Y253D02*
X479Y253D01*
X744Y253D02*
X751Y253D01*
X0Y252D02*
X7Y252D01*
X41Y252D02*
X81Y252D01*
X186Y252D02*
X226Y252D01*
X280Y252D02*
X282Y252D01*
X477Y252D02*
X479Y252D01*
X744Y252D02*
X751Y252D01*
X0Y251D02*
X7Y251D01*
X40Y251D02*
X83Y251D01*
X184Y251D02*
X227Y251D01*
X280Y251D02*
X282Y251D01*
X477Y251D02*
X479Y251D01*
X744Y251D02*
X751Y251D01*
X0Y250D02*
X7Y250D01*
X39Y250D02*
X84Y250D01*
X184Y250D02*
X229Y250D01*
X280Y250D02*
X282Y250D01*
X477Y250D02*
X479Y250D01*
X744Y250D02*
X751Y250D01*
X0Y249D02*
X7Y249D01*
X39Y249D02*
X85Y249D01*
X183Y249D02*
X230Y249D01*
X280Y249D02*
X282Y249D01*
X477Y249D02*
X479Y249D01*
X744Y249D02*
X751Y249D01*
X0Y248D02*
X7Y248D01*
X39Y248D02*
X86Y248D01*
X183Y248D02*
X230Y248D01*
X280Y248D02*
X282Y248D01*
X477Y248D02*
X479Y248D01*
X572Y248D02*
X594Y248D01*
X620Y248D02*
X632Y248D01*
X662Y248D02*
X666Y248D01*
X694Y248D02*
X719Y248D01*
X744Y248D02*
X751Y248D01*
X0Y247D02*
X7Y247D01*
X39Y247D02*
X87Y247D01*
X183Y247D02*
X231Y247D01*
X280Y247D02*
X282Y247D01*
X477Y247D02*
X479Y247D01*
X570Y247D02*
X595Y247D01*
X620Y247D02*
X633Y247D01*
X661Y247D02*
X667Y247D01*
X693Y247D02*
X722Y247D01*
X744Y247D02*
X751Y247D01*
X0Y246D02*
X7Y246D01*
X39Y246D02*
X87Y246D01*
X184Y246D02*
X231Y246D01*
X280Y246D02*
X282Y246D01*
X477Y246D02*
X479Y246D01*
X568Y246D02*
X596Y246D01*
X620Y246D02*
X633Y246D01*
X660Y246D02*
X668Y246D01*
X692Y246D02*
X723Y246D01*
X744Y246D02*
X751Y246D01*
X0Y245D02*
X7Y245D01*
X40Y245D02*
X87Y245D01*
X184Y245D02*
X232Y245D01*
X280Y245D02*
X282Y245D01*
X477Y245D02*
X479Y245D01*
X567Y245D02*
X596Y245D01*
X620Y245D02*
X634Y245D01*
X660Y245D02*
X668Y245D01*
X692Y245D02*
X724Y245D01*
X744Y245D02*
X751Y245D01*
X0Y244D02*
X7Y244D01*
X41Y244D02*
X87Y244D01*
X185Y244D02*
X232Y244D01*
X280Y244D02*
X282Y244D01*
X477Y244D02*
X479Y244D01*
X566Y244D02*
X596Y244D01*
X620Y244D02*
X634Y244D01*
X659Y244D02*
X668Y244D01*
X692Y244D02*
X725Y244D01*
X744Y244D02*
X751Y244D01*
X0Y243D02*
X7Y243D01*
X42Y243D02*
X87Y243D01*
X187Y243D02*
X232Y243D01*
X280Y243D02*
X282Y243D01*
X477Y243D02*
X479Y243D01*
X565Y243D02*
X596Y243D01*
X620Y243D02*
X635Y243D01*
X659Y243D02*
X669Y243D01*
X692Y243D02*
X726Y243D01*
X744Y243D02*
X751Y243D01*
X0Y242D02*
X7Y242D01*
X78Y242D02*
X88Y242D01*
X223Y242D02*
X232Y242D01*
X280Y242D02*
X282Y242D01*
X477Y242D02*
X479Y242D01*
X564Y242D02*
X596Y242D01*
X620Y242D02*
X635Y242D01*
X659Y242D02*
X669Y242D01*
X692Y242D02*
X727Y242D01*
X744Y242D02*
X751Y242D01*
X0Y241D02*
X7Y241D01*
X78Y241D02*
X88Y241D01*
X223Y241D02*
X232Y241D01*
X280Y241D02*
X282Y241D01*
X477Y241D02*
X479Y241D01*
X564Y241D02*
X595Y241D01*
X620Y241D02*
X636Y241D01*
X659Y241D02*
X669Y241D01*
X693Y241D02*
X728Y241D01*
X744Y241D02*
X751Y241D01*
X0Y240D02*
X7Y240D01*
X78Y240D02*
X88Y240D01*
X223Y240D02*
X232Y240D01*
X280Y240D02*
X282Y240D01*
X477Y240D02*
X479Y240D01*
X563Y240D02*
X594Y240D01*
X620Y240D02*
X636Y240D01*
X659Y240D02*
X669Y240D01*
X694Y240D02*
X728Y240D01*
X744Y240D02*
X751Y240D01*
X0Y239D02*
X7Y239D01*
X78Y239D02*
X88Y239D01*
X223Y239D02*
X232Y239D01*
X280Y239D02*
X282Y239D01*
X477Y239D02*
X479Y239D01*
X562Y239D02*
X592Y239D01*
X620Y239D02*
X636Y239D01*
X659Y239D02*
X669Y239D01*
X696Y239D02*
X729Y239D01*
X744Y239D02*
X751Y239D01*
X0Y238D02*
X7Y238D01*
X78Y238D02*
X88Y238D01*
X223Y238D02*
X232Y238D01*
X280Y238D02*
X282Y238D01*
X477Y238D02*
X479Y238D01*
X561Y238D02*
X574Y238D01*
X620Y238D02*
X637Y238D01*
X659Y238D02*
X669Y238D01*
X702Y238D02*
X711Y238D01*
X718Y238D02*
X729Y238D01*
X744Y238D02*
X751Y238D01*
X0Y237D02*
X7Y237D01*
X78Y237D02*
X88Y237D01*
X223Y237D02*
X232Y237D01*
X280Y237D02*
X282Y237D01*
X477Y237D02*
X479Y237D01*
X561Y237D02*
X573Y237D01*
X620Y237D02*
X637Y237D01*
X659Y237D02*
X669Y237D01*
X702Y237D02*
X711Y237D01*
X719Y237D02*
X730Y237D01*
X744Y237D02*
X751Y237D01*
X0Y236D02*
X7Y236D01*
X78Y236D02*
X88Y236D01*
X223Y236D02*
X232Y236D01*
X280Y236D02*
X282Y236D01*
X477Y236D02*
X479Y236D01*
X560Y236D02*
X572Y236D01*
X620Y236D02*
X638Y236D01*
X659Y236D02*
X669Y236D01*
X702Y236D02*
X711Y236D01*
X720Y236D02*
X730Y236D01*
X744Y236D02*
X751Y236D01*
X0Y235D02*
X7Y235D01*
X78Y235D02*
X88Y235D01*
X223Y235D02*
X232Y235D01*
X280Y235D02*
X282Y235D01*
X477Y235D02*
X479Y235D01*
X559Y235D02*
X571Y235D01*
X620Y235D02*
X638Y235D01*
X659Y235D02*
X669Y235D01*
X702Y235D02*
X711Y235D01*
X720Y235D02*
X731Y235D01*
X744Y235D02*
X751Y235D01*
X0Y234D02*
X7Y234D01*
X78Y234D02*
X88Y234D01*
X223Y234D02*
X232Y234D01*
X280Y234D02*
X282Y234D01*
X477Y234D02*
X479Y234D01*
X558Y234D02*
X570Y234D01*
X620Y234D02*
X639Y234D01*
X659Y234D02*
X669Y234D01*
X702Y234D02*
X711Y234D01*
X721Y234D02*
X731Y234D01*
X744Y234D02*
X751Y234D01*
X0Y233D02*
X7Y233D01*
X78Y233D02*
X88Y233D01*
X223Y233D02*
X232Y233D01*
X280Y233D02*
X282Y233D01*
X477Y233D02*
X479Y233D01*
X558Y233D02*
X569Y233D01*
X620Y233D02*
X639Y233D01*
X659Y233D02*
X669Y233D01*
X702Y233D02*
X711Y233D01*
X721Y233D02*
X732Y233D01*
X744Y233D02*
X751Y233D01*
X0Y232D02*
X7Y232D01*
X78Y232D02*
X88Y232D01*
X223Y232D02*
X232Y232D01*
X280Y232D02*
X282Y232D01*
X477Y232D02*
X479Y232D01*
X557Y232D02*
X569Y232D01*
X620Y232D02*
X639Y232D01*
X659Y232D02*
X669Y232D01*
X702Y232D02*
X711Y232D01*
X722Y232D02*
X732Y232D01*
X744Y232D02*
X751Y232D01*
X0Y231D02*
X7Y231D01*
X78Y231D02*
X88Y231D01*
X223Y231D02*
X232Y231D01*
X280Y231D02*
X282Y231D01*
X477Y231D02*
X479Y231D01*
X556Y231D02*
X568Y231D01*
X620Y231D02*
X640Y231D01*
X659Y231D02*
X669Y231D01*
X702Y231D02*
X711Y231D01*
X722Y231D02*
X733Y231D01*
X744Y231D02*
X751Y231D01*
X0Y230D02*
X7Y230D01*
X78Y230D02*
X88Y230D01*
X223Y230D02*
X232Y230D01*
X280Y230D02*
X282Y230D01*
X477Y230D02*
X479Y230D01*
X555Y230D02*
X567Y230D01*
X620Y230D02*
X640Y230D01*
X659Y230D02*
X669Y230D01*
X702Y230D02*
X711Y230D01*
X723Y230D02*
X733Y230D01*
X744Y230D02*
X751Y230D01*
X0Y229D02*
X7Y229D01*
X78Y229D02*
X88Y229D01*
X223Y229D02*
X232Y229D01*
X280Y229D02*
X282Y229D01*
X477Y229D02*
X479Y229D01*
X554Y229D02*
X566Y229D01*
X620Y229D02*
X629Y229D01*
X631Y229D02*
X641Y229D01*
X659Y229D02*
X669Y229D01*
X702Y229D02*
X711Y229D01*
X723Y229D02*
X734Y229D01*
X744Y229D02*
X751Y229D01*
X0Y228D02*
X7Y228D01*
X78Y228D02*
X88Y228D01*
X223Y228D02*
X232Y228D01*
X280Y228D02*
X282Y228D01*
X477Y228D02*
X479Y228D01*
X554Y228D02*
X565Y228D01*
X620Y228D02*
X629Y228D01*
X631Y228D02*
X641Y228D01*
X659Y228D02*
X669Y228D01*
X702Y228D02*
X711Y228D01*
X724Y228D02*
X734Y228D01*
X744Y228D02*
X751Y228D01*
X0Y227D02*
X7Y227D01*
X78Y227D02*
X88Y227D01*
X223Y227D02*
X232Y227D01*
X280Y227D02*
X282Y227D01*
X477Y227D02*
X479Y227D01*
X553Y227D02*
X565Y227D01*
X620Y227D02*
X629Y227D01*
X632Y227D02*
X642Y227D01*
X659Y227D02*
X669Y227D01*
X702Y227D02*
X711Y227D01*
X724Y227D02*
X735Y227D01*
X744Y227D02*
X751Y227D01*
X0Y226D02*
X7Y226D01*
X78Y226D02*
X88Y226D01*
X223Y226D02*
X232Y226D01*
X280Y226D02*
X282Y226D01*
X477Y226D02*
X479Y226D01*
X552Y226D02*
X564Y226D01*
X620Y226D02*
X629Y226D01*
X632Y226D02*
X642Y226D01*
X659Y226D02*
X669Y226D01*
X702Y226D02*
X711Y226D01*
X725Y226D02*
X735Y226D01*
X744Y226D02*
X751Y226D01*
X0Y225D02*
X7Y225D01*
X78Y225D02*
X88Y225D01*
X223Y225D02*
X232Y225D01*
X280Y225D02*
X282Y225D01*
X477Y225D02*
X479Y225D01*
X551Y225D02*
X563Y225D01*
X620Y225D02*
X629Y225D01*
X632Y225D02*
X643Y225D01*
X659Y225D02*
X669Y225D01*
X702Y225D02*
X711Y225D01*
X725Y225D02*
X736Y225D01*
X744Y225D02*
X751Y225D01*
X0Y224D02*
X7Y224D01*
X78Y224D02*
X88Y224D01*
X223Y224D02*
X232Y224D01*
X280Y224D02*
X282Y224D01*
X477Y224D02*
X479Y224D01*
X551Y224D02*
X562Y224D01*
X620Y224D02*
X629Y224D01*
X633Y224D02*
X643Y224D01*
X659Y224D02*
X669Y224D01*
X702Y224D02*
X711Y224D01*
X726Y224D02*
X736Y224D01*
X744Y224D02*
X751Y224D01*
X0Y223D02*
X7Y223D01*
X78Y223D02*
X87Y223D01*
X223Y223D02*
X232Y223D01*
X280Y223D02*
X282Y223D01*
X477Y223D02*
X479Y223D01*
X550Y223D02*
X562Y223D01*
X620Y223D02*
X629Y223D01*
X633Y223D02*
X643Y223D01*
X659Y223D02*
X669Y223D01*
X702Y223D02*
X711Y223D01*
X727Y223D02*
X737Y223D01*
X744Y223D02*
X751Y223D01*
X0Y222D02*
X7Y222D01*
X78Y222D02*
X87Y222D01*
X222Y222D02*
X232Y222D01*
X280Y222D02*
X282Y222D01*
X477Y222D02*
X479Y222D01*
X550Y222D02*
X561Y222D01*
X620Y222D02*
X629Y222D01*
X634Y222D02*
X644Y222D01*
X659Y222D02*
X669Y222D01*
X702Y222D02*
X711Y222D01*
X727Y222D02*
X737Y222D01*
X744Y222D02*
X751Y222D01*
X0Y221D02*
X7Y221D01*
X77Y221D02*
X87Y221D01*
X222Y221D02*
X232Y221D01*
X280Y221D02*
X282Y221D01*
X477Y221D02*
X479Y221D01*
X549Y221D02*
X560Y221D01*
X620Y221D02*
X629Y221D01*
X634Y221D02*
X644Y221D01*
X659Y221D02*
X669Y221D01*
X702Y221D02*
X711Y221D01*
X728Y221D02*
X738Y221D01*
X744Y221D02*
X751Y221D01*
X0Y220D02*
X7Y220D01*
X76Y220D02*
X87Y220D01*
X221Y220D02*
X231Y220D01*
X280Y220D02*
X282Y220D01*
X477Y220D02*
X479Y220D01*
X549Y220D02*
X559Y220D01*
X620Y220D02*
X629Y220D01*
X635Y220D02*
X645Y220D01*
X659Y220D02*
X669Y220D01*
X702Y220D02*
X711Y220D01*
X728Y220D02*
X738Y220D01*
X744Y220D02*
X751Y220D01*
X0Y219D02*
X7Y219D01*
X74Y219D02*
X87Y219D01*
X218Y219D02*
X231Y219D01*
X280Y219D02*
X282Y219D01*
X477Y219D02*
X479Y219D01*
X548Y219D02*
X558Y219D01*
X620Y219D02*
X629Y219D01*
X635Y219D02*
X645Y219D01*
X659Y219D02*
X669Y219D01*
X702Y219D02*
X711Y219D01*
X729Y219D02*
X739Y219D01*
X744Y219D02*
X751Y219D01*
X0Y218D02*
X7Y218D01*
X51Y218D02*
X86Y218D01*
X195Y218D02*
X231Y218D01*
X280Y218D02*
X282Y218D01*
X477Y218D02*
X479Y218D01*
X548Y218D02*
X558Y218D01*
X620Y218D02*
X629Y218D01*
X635Y218D02*
X646Y218D01*
X659Y218D02*
X669Y218D01*
X702Y218D02*
X711Y218D01*
X729Y218D02*
X739Y218D01*
X744Y218D02*
X751Y218D01*
X0Y217D02*
X7Y217D01*
X50Y217D02*
X86Y217D01*
X194Y217D02*
X230Y217D01*
X280Y217D02*
X282Y217D01*
X477Y217D02*
X479Y217D01*
X548Y217D02*
X557Y217D01*
X620Y217D02*
X629Y217D01*
X636Y217D02*
X646Y217D01*
X659Y217D02*
X669Y217D01*
X702Y217D02*
X711Y217D01*
X730Y217D02*
X739Y217D01*
X744Y217D02*
X751Y217D01*
X0Y216D02*
X7Y216D01*
X49Y216D02*
X85Y216D01*
X194Y216D02*
X230Y216D01*
X280Y216D02*
X282Y216D01*
X477Y216D02*
X479Y216D01*
X548Y216D02*
X557Y216D01*
X620Y216D02*
X629Y216D01*
X636Y216D02*
X646Y216D01*
X659Y216D02*
X669Y216D01*
X702Y216D02*
X711Y216D01*
X730Y216D02*
X740Y216D01*
X744Y216D02*
X751Y216D01*
X0Y215D02*
X7Y215D01*
X49Y215D02*
X84Y215D01*
X193Y215D02*
X229Y215D01*
X280Y215D02*
X282Y215D01*
X477Y215D02*
X479Y215D01*
X548Y215D02*
X557Y215D01*
X620Y215D02*
X629Y215D01*
X637Y215D02*
X647Y215D01*
X659Y215D02*
X669Y215D01*
X702Y215D02*
X711Y215D01*
X730Y215D02*
X740Y215D01*
X744Y215D02*
X751Y215D01*
X0Y214D02*
X7Y214D01*
X49Y214D02*
X84Y214D01*
X193Y214D02*
X228Y214D01*
X280Y214D02*
X282Y214D01*
X477Y214D02*
X479Y214D01*
X548Y214D02*
X557Y214D01*
X620Y214D02*
X629Y214D01*
X637Y214D02*
X647Y214D01*
X659Y214D02*
X669Y214D01*
X702Y214D02*
X711Y214D01*
X731Y214D02*
X740Y214D01*
X744Y214D02*
X751Y214D01*
X0Y213D02*
X7Y213D01*
X49Y213D02*
X84Y213D01*
X193Y213D02*
X229Y213D01*
X280Y213D02*
X282Y213D01*
X477Y213D02*
X479Y213D01*
X548Y213D02*
X557Y213D01*
X620Y213D02*
X629Y213D01*
X638Y213D02*
X648Y213D01*
X659Y213D02*
X669Y213D01*
X702Y213D02*
X711Y213D01*
X731Y213D02*
X740Y213D01*
X744Y213D02*
X751Y213D01*
X0Y212D02*
X7Y212D01*
X49Y212D02*
X85Y212D01*
X193Y212D02*
X229Y212D01*
X280Y212D02*
X282Y212D01*
X477Y212D02*
X479Y212D01*
X548Y212D02*
X557Y212D01*
X620Y212D02*
X629Y212D01*
X638Y212D02*
X648Y212D01*
X659Y212D02*
X669Y212D01*
X702Y212D02*
X711Y212D01*
X731Y212D02*
X741Y212D01*
X744Y212D02*
X751Y212D01*
X0Y211D02*
X7Y211D01*
X50Y211D02*
X86Y211D01*
X194Y211D02*
X230Y211D01*
X280Y211D02*
X282Y211D01*
X477Y211D02*
X479Y211D01*
X548Y211D02*
X557Y211D01*
X620Y211D02*
X629Y211D01*
X639Y211D02*
X649Y211D01*
X659Y211D02*
X669Y211D01*
X702Y211D02*
X711Y211D01*
X731Y211D02*
X741Y211D01*
X744Y211D02*
X751Y211D01*
X0Y210D02*
X7Y210D01*
X51Y210D02*
X86Y210D01*
X195Y210D02*
X230Y210D01*
X280Y210D02*
X282Y210D01*
X477Y210D02*
X479Y210D01*
X548Y210D02*
X557Y210D01*
X620Y210D02*
X629Y210D01*
X639Y210D02*
X649Y210D01*
X659Y210D02*
X669Y210D01*
X702Y210D02*
X711Y210D01*
X732Y210D02*
X741Y210D01*
X744Y210D02*
X751Y210D01*
X0Y209D02*
X7Y209D01*
X53Y209D02*
X87Y209D01*
X197Y209D02*
X231Y209D01*
X280Y209D02*
X282Y209D01*
X477Y209D02*
X479Y209D01*
X548Y209D02*
X557Y209D01*
X620Y209D02*
X629Y209D01*
X639Y209D02*
X650Y209D01*
X659Y209D02*
X669Y209D01*
X702Y209D02*
X711Y209D01*
X731Y209D02*
X741Y209D01*
X744Y209D02*
X751Y209D01*
X0Y208D02*
X7Y208D01*
X76Y208D02*
X87Y208D01*
X220Y208D02*
X231Y208D01*
X280Y208D02*
X282Y208D01*
X477Y208D02*
X479Y208D01*
X548Y208D02*
X557Y208D01*
X620Y208D02*
X629Y208D01*
X640Y208D02*
X650Y208D01*
X659Y208D02*
X669Y208D01*
X702Y208D02*
X711Y208D01*
X731Y208D02*
X741Y208D01*
X744Y208D02*
X751Y208D01*
X0Y207D02*
X7Y207D01*
X77Y207D02*
X87Y207D01*
X221Y207D02*
X232Y207D01*
X280Y207D02*
X282Y207D01*
X477Y207D02*
X479Y207D01*
X548Y207D02*
X557Y207D01*
X620Y207D02*
X629Y207D01*
X640Y207D02*
X650Y207D01*
X659Y207D02*
X669Y207D01*
X702Y207D02*
X711Y207D01*
X731Y207D02*
X740Y207D01*
X744Y207D02*
X751Y207D01*
X0Y206D02*
X7Y206D01*
X78Y206D02*
X87Y206D01*
X130Y206D02*
X140Y206D01*
X222Y206D02*
X232Y206D01*
X280Y206D02*
X282Y206D01*
X477Y206D02*
X479Y206D01*
X548Y206D02*
X557Y206D01*
X575Y206D02*
X596Y206D01*
X620Y206D02*
X629Y206D01*
X641Y206D02*
X651Y206D01*
X659Y206D02*
X669Y206D01*
X702Y206D02*
X711Y206D01*
X731Y206D02*
X740Y206D01*
X744Y206D02*
X751Y206D01*
X0Y205D02*
X7Y205D01*
X78Y205D02*
X87Y205D01*
X128Y205D02*
X143Y205D01*
X223Y205D02*
X232Y205D01*
X280Y205D02*
X282Y205D01*
X477Y205D02*
X479Y205D01*
X548Y205D02*
X557Y205D01*
X574Y205D02*
X596Y205D01*
X620Y205D02*
X629Y205D01*
X641Y205D02*
X651Y205D01*
X659Y205D02*
X669Y205D01*
X702Y205D02*
X711Y205D01*
X731Y205D02*
X740Y205D01*
X744Y205D02*
X751Y205D01*
X0Y204D02*
X7Y204D01*
X78Y204D02*
X87Y204D01*
X127Y204D02*
X144Y204D01*
X223Y204D02*
X232Y204D01*
X280Y204D02*
X282Y204D01*
X477Y204D02*
X479Y204D01*
X548Y204D02*
X557Y204D01*
X573Y204D02*
X596Y204D01*
X620Y204D02*
X629Y204D01*
X642Y204D02*
X652Y204D01*
X659Y204D02*
X669Y204D01*
X702Y204D02*
X711Y204D01*
X730Y204D02*
X740Y204D01*
X744Y204D02*
X751Y204D01*
X0Y203D02*
X7Y203D01*
X78Y203D02*
X88Y203D01*
X126Y203D02*
X144Y203D01*
X223Y203D02*
X232Y203D01*
X280Y203D02*
X282Y203D01*
X477Y203D02*
X479Y203D01*
X548Y203D02*
X557Y203D01*
X573Y203D02*
X596Y203D01*
X620Y203D02*
X629Y203D01*
X642Y203D02*
X652Y203D01*
X659Y203D02*
X669Y203D01*
X702Y203D02*
X711Y203D01*
X730Y203D02*
X740Y203D01*
X744Y203D02*
X751Y203D01*
X0Y202D02*
X7Y202D01*
X78Y202D02*
X88Y202D01*
X126Y202D02*
X145Y202D01*
X223Y202D02*
X232Y202D01*
X280Y202D02*
X282Y202D01*
X477Y202D02*
X479Y202D01*
X548Y202D02*
X557Y202D01*
X572Y202D02*
X596Y202D01*
X620Y202D02*
X629Y202D01*
X642Y202D02*
X653Y202D01*
X659Y202D02*
X669Y202D01*
X702Y202D02*
X711Y202D01*
X729Y202D02*
X739Y202D01*
X744Y202D02*
X751Y202D01*
X0Y201D02*
X7Y201D01*
X78Y201D02*
X88Y201D01*
X126Y201D02*
X145Y201D01*
X223Y201D02*
X232Y201D01*
X280Y201D02*
X282Y201D01*
X477Y201D02*
X479Y201D01*
X548Y201D02*
X557Y201D01*
X572Y201D02*
X596Y201D01*
X620Y201D02*
X629Y201D01*
X643Y201D02*
X653Y201D01*
X659Y201D02*
X669Y201D01*
X702Y201D02*
X711Y201D01*
X729Y201D02*
X739Y201D01*
X744Y201D02*
X751Y201D01*
X0Y200D02*
X7Y200D01*
X78Y200D02*
X88Y200D01*
X126Y200D02*
X145Y200D01*
X223Y200D02*
X232Y200D01*
X280Y200D02*
X282Y200D01*
X477Y200D02*
X479Y200D01*
X548Y200D02*
X557Y200D01*
X573Y200D02*
X596Y200D01*
X620Y200D02*
X629Y200D01*
X643Y200D02*
X653Y200D01*
X659Y200D02*
X669Y200D01*
X702Y200D02*
X711Y200D01*
X728Y200D02*
X738Y200D01*
X744Y200D02*
X751Y200D01*
X0Y199D02*
X7Y199D01*
X78Y199D02*
X88Y199D01*
X126Y199D02*
X145Y199D01*
X223Y199D02*
X232Y199D01*
X280Y199D02*
X282Y199D01*
X477Y199D02*
X479Y199D01*
X548Y199D02*
X557Y199D01*
X573Y199D02*
X596Y199D01*
X620Y199D02*
X629Y199D01*
X644Y199D02*
X654Y199D01*
X659Y199D02*
X669Y199D01*
X702Y199D02*
X711Y199D01*
X728Y199D02*
X738Y199D01*
X744Y199D02*
X751Y199D01*
X0Y198D02*
X7Y198D01*
X78Y198D02*
X88Y198D01*
X126Y198D02*
X145Y198D01*
X223Y198D02*
X232Y198D01*
X280Y198D02*
X282Y198D01*
X477Y198D02*
X479Y198D01*
X548Y198D02*
X557Y198D01*
X574Y198D02*
X596Y198D01*
X620Y198D02*
X629Y198D01*
X644Y198D02*
X654Y198D01*
X659Y198D02*
X669Y198D01*
X702Y198D02*
X711Y198D01*
X727Y198D02*
X737Y198D01*
X744Y198D02*
X751Y198D01*
X0Y197D02*
X7Y197D01*
X78Y197D02*
X88Y197D01*
X126Y197D02*
X145Y197D01*
X223Y197D02*
X232Y197D01*
X280Y197D02*
X282Y197D01*
X477Y197D02*
X479Y197D01*
X548Y197D02*
X557Y197D01*
X575Y197D02*
X596Y197D01*
X620Y197D02*
X629Y197D01*
X645Y197D02*
X655Y197D01*
X659Y197D02*
X669Y197D01*
X702Y197D02*
X711Y197D01*
X727Y197D02*
X737Y197D01*
X744Y197D02*
X751Y197D01*
X0Y196D02*
X7Y196D01*
X78Y196D02*
X88Y196D01*
X126Y196D02*
X145Y196D01*
X223Y196D02*
X232Y196D01*
X280Y196D02*
X282Y196D01*
X477Y196D02*
X479Y196D01*
X548Y196D02*
X557Y196D01*
X587Y196D02*
X596Y196D01*
X620Y196D02*
X629Y196D01*
X645Y196D02*
X655Y196D01*
X659Y196D02*
X669Y196D01*
X702Y196D02*
X711Y196D01*
X726Y196D02*
X736Y196D01*
X744Y196D02*
X751Y196D01*
X0Y195D02*
X7Y195D01*
X78Y195D02*
X88Y195D01*
X126Y195D02*
X145Y195D01*
X223Y195D02*
X232Y195D01*
X280Y195D02*
X282Y195D01*
X477Y195D02*
X479Y195D01*
X548Y195D02*
X557Y195D01*
X587Y195D02*
X596Y195D01*
X620Y195D02*
X629Y195D01*
X646Y195D02*
X656Y195D01*
X659Y195D02*
X669Y195D01*
X702Y195D02*
X711Y195D01*
X726Y195D02*
X736Y195D01*
X744Y195D02*
X751Y195D01*
X0Y194D02*
X7Y194D01*
X78Y194D02*
X88Y194D01*
X126Y194D02*
X145Y194D01*
X223Y194D02*
X232Y194D01*
X280Y194D02*
X282Y194D01*
X477Y194D02*
X479Y194D01*
X548Y194D02*
X557Y194D01*
X587Y194D02*
X596Y194D01*
X620Y194D02*
X629Y194D01*
X646Y194D02*
X656Y194D01*
X659Y194D02*
X669Y194D01*
X702Y194D02*
X711Y194D01*
X725Y194D02*
X735Y194D01*
X744Y194D02*
X751Y194D01*
X0Y193D02*
X7Y193D01*
X78Y193D02*
X88Y193D01*
X126Y193D02*
X145Y193D01*
X223Y193D02*
X232Y193D01*
X280Y193D02*
X282Y193D01*
X477Y193D02*
X479Y193D01*
X548Y193D02*
X557Y193D01*
X587Y193D02*
X596Y193D01*
X620Y193D02*
X629Y193D01*
X646Y193D02*
X657Y193D01*
X659Y193D02*
X669Y193D01*
X702Y193D02*
X711Y193D01*
X725Y193D02*
X735Y193D01*
X744Y193D02*
X751Y193D01*
X0Y192D02*
X7Y192D01*
X78Y192D02*
X88Y192D01*
X126Y192D02*
X145Y192D01*
X223Y192D02*
X232Y192D01*
X280Y192D02*
X282Y192D01*
X477Y192D02*
X479Y192D01*
X548Y192D02*
X557Y192D01*
X587Y192D02*
X596Y192D01*
X620Y192D02*
X629Y192D01*
X647Y192D02*
X657Y192D01*
X659Y192D02*
X669Y192D01*
X702Y192D02*
X711Y192D01*
X724Y192D02*
X734Y192D01*
X744Y192D02*
X751Y192D01*
X0Y191D02*
X7Y191D01*
X78Y191D02*
X88Y191D01*
X126Y191D02*
X145Y191D01*
X223Y191D02*
X232Y191D01*
X280Y191D02*
X282Y191D01*
X477Y191D02*
X479Y191D01*
X548Y191D02*
X557Y191D01*
X587Y191D02*
X596Y191D01*
X620Y191D02*
X629Y191D01*
X647Y191D02*
X657Y191D01*
X659Y191D02*
X669Y191D01*
X702Y191D02*
X711Y191D01*
X724Y191D02*
X734Y191D01*
X744Y191D02*
X751Y191D01*
X0Y190D02*
X7Y190D01*
X78Y190D02*
X88Y190D01*
X127Y190D02*
X144Y190D01*
X223Y190D02*
X232Y190D01*
X280Y190D02*
X282Y190D01*
X477Y190D02*
X479Y190D01*
X548Y190D02*
X557Y190D01*
X587Y190D02*
X596Y190D01*
X620Y190D02*
X629Y190D01*
X648Y190D02*
X669Y190D01*
X702Y190D02*
X711Y190D01*
X723Y190D02*
X733Y190D01*
X744Y190D02*
X751Y190D01*
X0Y189D02*
X7Y189D01*
X78Y189D02*
X88Y189D01*
X127Y189D02*
X143Y189D01*
X223Y189D02*
X232Y189D01*
X280Y189D02*
X282Y189D01*
X477Y189D02*
X479Y189D01*
X548Y189D02*
X557Y189D01*
X587Y189D02*
X596Y189D01*
X620Y189D02*
X629Y189D01*
X648Y189D02*
X669Y189D01*
X702Y189D02*
X711Y189D01*
X723Y189D02*
X733Y189D01*
X744Y189D02*
X751Y189D01*
X0Y188D02*
X7Y188D01*
X78Y188D02*
X88Y188D01*
X129Y188D02*
X142Y188D01*
X223Y188D02*
X232Y188D01*
X280Y188D02*
X282Y188D01*
X477Y188D02*
X479Y188D01*
X548Y188D02*
X557Y188D01*
X587Y188D02*
X596Y188D01*
X620Y188D02*
X629Y188D01*
X649Y188D02*
X669Y188D01*
X702Y188D02*
X711Y188D01*
X722Y188D02*
X732Y188D01*
X744Y188D02*
X751Y188D01*
X0Y187D02*
X7Y187D01*
X78Y187D02*
X88Y187D01*
X223Y187D02*
X232Y187D01*
X280Y187D02*
X282Y187D01*
X477Y187D02*
X479Y187D01*
X548Y187D02*
X557Y187D01*
X587Y187D02*
X596Y187D01*
X620Y187D02*
X629Y187D01*
X649Y187D02*
X669Y187D01*
X702Y187D02*
X711Y187D01*
X722Y187D02*
X732Y187D01*
X744Y187D02*
X751Y187D01*
X0Y186D02*
X7Y186D01*
X78Y186D02*
X88Y186D01*
X223Y186D02*
X232Y186D01*
X280Y186D02*
X282Y186D01*
X477Y186D02*
X479Y186D01*
X548Y186D02*
X557Y186D01*
X587Y186D02*
X596Y186D01*
X620Y186D02*
X629Y186D01*
X649Y186D02*
X669Y186D01*
X702Y186D02*
X711Y186D01*
X721Y186D02*
X731Y186D01*
X744Y186D02*
X751Y186D01*
X0Y185D02*
X7Y185D01*
X78Y185D02*
X88Y185D01*
X222Y185D02*
X232Y185D01*
X280Y185D02*
X282Y185D01*
X477Y185D02*
X479Y185D01*
X548Y185D02*
X557Y185D01*
X587Y185D02*
X596Y185D01*
X620Y185D02*
X629Y185D01*
X650Y185D02*
X669Y185D01*
X702Y185D02*
X711Y185D01*
X721Y185D02*
X731Y185D01*
X744Y185D02*
X751Y185D01*
X0Y184D02*
X7Y184D01*
X41Y184D02*
X87Y184D01*
X203Y184D02*
X232Y184D01*
X280Y184D02*
X282Y184D01*
X477Y184D02*
X479Y184D01*
X548Y184D02*
X557Y184D01*
X587Y184D02*
X596Y184D01*
X620Y184D02*
X629Y184D01*
X650Y184D02*
X669Y184D01*
X702Y184D02*
X711Y184D01*
X720Y184D02*
X730Y184D01*
X744Y184D02*
X751Y184D01*
X0Y183D02*
X7Y183D01*
X40Y183D02*
X87Y183D01*
X204Y183D02*
X232Y183D01*
X280Y183D02*
X282Y183D01*
X477Y183D02*
X479Y183D01*
X548Y183D02*
X558Y183D01*
X586Y183D02*
X596Y183D01*
X620Y183D02*
X629Y183D01*
X651Y183D02*
X669Y183D01*
X702Y183D02*
X711Y183D01*
X719Y183D02*
X730Y183D01*
X744Y183D02*
X751Y183D01*
X0Y182D02*
X7Y182D01*
X39Y182D02*
X87Y182D01*
X205Y182D02*
X231Y182D01*
X280Y182D02*
X282Y182D01*
X477Y182D02*
X479Y182D01*
X548Y182D02*
X559Y182D01*
X585Y182D02*
X596Y182D01*
X620Y182D02*
X629Y182D01*
X651Y182D02*
X669Y182D01*
X702Y182D02*
X711Y182D01*
X719Y182D02*
X730Y182D01*
X744Y182D02*
X751Y182D01*
X0Y181D02*
X7Y181D01*
X39Y181D02*
X87Y181D01*
X205Y181D02*
X231Y181D01*
X280Y181D02*
X282Y181D01*
X355Y181D02*
X404Y181D01*
X477Y181D02*
X479Y181D01*
X548Y181D02*
X595Y181D01*
X620Y181D02*
X629Y181D01*
X652Y181D02*
X669Y181D01*
X697Y181D02*
X729Y181D01*
X744Y181D02*
X751Y181D01*
X0Y180D02*
X7Y180D01*
X39Y180D02*
X86Y180D01*
X206Y180D02*
X231Y180D01*
X280Y180D02*
X479Y180D01*
X549Y180D02*
X595Y180D01*
X620Y180D02*
X629Y180D01*
X652Y180D02*
X669Y180D01*
X694Y180D02*
X729Y180D01*
X744Y180D02*
X751Y180D01*
X0Y179D02*
X7Y179D01*
X39Y179D02*
X85Y179D01*
X206Y179D02*
X230Y179D01*
X280Y179D02*
X479Y179D01*
X549Y179D02*
X594Y179D01*
X620Y179D02*
X629Y179D01*
X653Y179D02*
X669Y179D01*
X693Y179D02*
X728Y179D01*
X744Y179D02*
X751Y179D01*
X0Y178D02*
X7Y178D01*
X39Y178D02*
X85Y178D01*
X207Y178D02*
X229Y178D01*
X550Y178D02*
X594Y178D01*
X620Y178D02*
X629Y178D01*
X653Y178D02*
X669Y178D01*
X692Y178D02*
X727Y178D01*
X744Y178D02*
X751Y178D01*
X0Y177D02*
X7Y177D01*
X40Y177D02*
X83Y177D01*
X207Y177D02*
X228Y177D01*
X551Y177D02*
X593Y177D01*
X620Y177D02*
X629Y177D01*
X653Y177D02*
X669Y177D01*
X692Y177D02*
X727Y177D01*
X744Y177D02*
X751Y177D01*
X0Y176D02*
X7Y176D01*
X41Y176D02*
X82Y176D01*
X207Y176D02*
X226Y176D01*
X551Y176D02*
X592Y176D01*
X620Y176D02*
X629Y176D01*
X654Y176D02*
X669Y176D01*
X692Y176D02*
X726Y176D01*
X744Y176D02*
X751Y176D01*
X0Y175D02*
X7Y175D01*
X43Y175D02*
X79Y175D01*
X208Y175D02*
X224Y175D01*
X552Y175D02*
X591Y175D01*
X620Y175D02*
X629Y175D01*
X654Y175D02*
X669Y175D01*
X692Y175D02*
X725Y175D01*
X744Y175D02*
X751Y175D01*
X0Y174D02*
X7Y174D01*
X554Y174D02*
X590Y174D01*
X620Y174D02*
X628Y174D01*
X655Y174D02*
X669Y174D01*
X692Y174D02*
X724Y174D01*
X744Y174D02*
X751Y174D01*
X0Y173D02*
X7Y173D01*
X555Y173D02*
X589Y173D01*
X621Y173D02*
X628Y173D01*
X655Y173D02*
X669Y173D01*
X693Y173D02*
X722Y173D01*
X744Y173D02*
X751Y173D01*
X0Y172D02*
X7Y172D01*
X557Y172D02*
X587Y172D01*
X622Y172D02*
X627Y172D01*
X656Y172D02*
X669Y172D01*
X694Y172D02*
X720Y172D01*
X744Y172D02*
X751Y172D01*
X0Y171D02*
X7Y171D01*
X562Y171D02*
X582Y171D01*
X624Y171D02*
X624Y171D01*
X656Y171D02*
X668Y171D01*
X696Y171D02*
X716Y171D01*
X744Y171D02*
X751Y171D01*
X0Y170D02*
X7Y170D01*
X744Y170D02*
X751Y170D01*
X0Y169D02*
X7Y169D01*
X744Y169D02*
X751Y169D01*
X0Y168D02*
X7Y168D01*
X744Y168D02*
X751Y168D01*
X0Y167D02*
X7Y167D01*
X744Y167D02*
X751Y167D01*
X0Y166D02*
X7Y166D01*
X744Y166D02*
X751Y166D01*
X0Y165D02*
X7Y165D01*
X744Y165D02*
X751Y165D01*
X0Y164D02*
X7Y164D01*
X744Y164D02*
X751Y164D01*
X0Y163D02*
X7Y163D01*
X744Y163D02*
X751Y163D01*
X0Y162D02*
X7Y162D01*
X744Y162D02*
X751Y162D01*
X0Y161D02*
X7Y161D01*
X744Y161D02*
X751Y161D01*
X0Y160D02*
X7Y160D01*
X744Y160D02*
X751Y160D01*
X0Y159D02*
X7Y159D01*
X744Y159D02*
X751Y159D01*
X0Y158D02*
X7Y158D01*
X744Y158D02*
X751Y158D01*
X0Y157D02*
X7Y157D01*
X744Y157D02*
X751Y157D01*
X0Y156D02*
X7Y156D01*
X744Y156D02*
X751Y156D01*
X0Y155D02*
X7Y155D01*
X744Y155D02*
X751Y155D01*
X0Y154D02*
X7Y154D01*
X744Y154D02*
X751Y154D01*
X0Y153D02*
X7Y153D01*
X744Y153D02*
X751Y153D01*
X0Y152D02*
X7Y152D01*
X744Y152D02*
X751Y152D01*
X0Y151D02*
X7Y151D01*
X744Y151D02*
X751Y151D01*
X0Y150D02*
X7Y150D01*
X744Y150D02*
X751Y150D01*
X0Y149D02*
X7Y149D01*
X744Y149D02*
X751Y149D01*
X0Y148D02*
X7Y148D01*
X744Y148D02*
X751Y148D01*
X0Y147D02*
X7Y147D01*
X744Y147D02*
X751Y147D01*
X0Y146D02*
X7Y146D01*
X744Y146D02*
X751Y146D01*
X0Y145D02*
X7Y145D01*
X744Y145D02*
X751Y145D01*
X0Y144D02*
X7Y144D01*
X744Y144D02*
X751Y144D01*
X0Y143D02*
X7Y143D01*
X744Y143D02*
X751Y143D01*
X0Y142D02*
X7Y142D01*
X744Y142D02*
X751Y142D01*
X0Y141D02*
X7Y141D01*
X744Y141D02*
X751Y141D01*
X0Y140D02*
X7Y140D01*
X744Y140D02*
X751Y140D01*
X0Y139D02*
X7Y139D01*
X744Y139D02*
X751Y139D01*
X0Y138D02*
X7Y138D01*
X744Y138D02*
X751Y138D01*
X0Y137D02*
X7Y137D01*
X744Y137D02*
X751Y137D01*
X0Y136D02*
X7Y136D01*
X744Y136D02*
X751Y136D01*
X0Y135D02*
X7Y135D01*
X744Y135D02*
X751Y135D01*
X0Y134D02*
X7Y134D01*
X744Y134D02*
X751Y134D01*
X0Y133D02*
X7Y133D01*
X744Y133D02*
X751Y133D01*
X0Y132D02*
X7Y132D01*
X744Y132D02*
X751Y132D01*
X0Y131D02*
X7Y131D01*
X744Y131D02*
X751Y131D01*
X0Y130D02*
X7Y130D01*
X744Y130D02*
X751Y130D01*
X0Y129D02*
X7Y129D01*
X744Y129D02*
X751Y129D01*
X0Y128D02*
X7Y128D01*
X744Y128D02*
X751Y128D01*
X0Y127D02*
X7Y127D01*
X744Y127D02*
X751Y127D01*
X0Y126D02*
X7Y126D01*
X744Y126D02*
X751Y126D01*
X0Y125D02*
X7Y125D01*
X744Y125D02*
X751Y125D01*
X0Y124D02*
X7Y124D01*
X744Y124D02*
X751Y124D01*
X0Y123D02*
X7Y123D01*
X744Y123D02*
X751Y123D01*
X0Y122D02*
X7Y122D01*
X744Y122D02*
X751Y122D01*
X0Y121D02*
X7Y121D01*
X744Y121D02*
X751Y121D01*
X0Y120D02*
X7Y120D01*
X744Y120D02*
X751Y120D01*
X0Y119D02*
X7Y119D01*
X744Y119D02*
X751Y119D01*
X0Y118D02*
X7Y118D01*
X744Y118D02*
X751Y118D01*
X0Y117D02*
X7Y117D01*
X744Y117D02*
X751Y117D01*
X0Y116D02*
X7Y116D01*
X744Y116D02*
X751Y116D01*
X0Y115D02*
X7Y115D01*
X744Y115D02*
X751Y115D01*
X0Y114D02*
X7Y114D01*
X744Y114D02*
X751Y114D01*
X0Y113D02*
X7Y113D01*
X744Y113D02*
X751Y113D01*
X0Y112D02*
X7Y112D01*
X744Y112D02*
X751Y112D01*
X0Y111D02*
X7Y111D01*
X744Y111D02*
X751Y111D01*
X0Y110D02*
X7Y110D01*
X744Y110D02*
X751Y110D01*
X0Y109D02*
X7Y109D01*
X744Y109D02*
X751Y109D01*
X0Y108D02*
X7Y108D01*
X744Y108D02*
X751Y108D01*
X0Y107D02*
X7Y107D01*
X744Y107D02*
X751Y107D01*
X0Y106D02*
X7Y106D01*
X744Y106D02*
X751Y106D01*
X0Y105D02*
X7Y105D01*
X744Y105D02*
X751Y105D01*
X0Y104D02*
X7Y104D01*
X744Y104D02*
X751Y104D01*
X0Y103D02*
X7Y103D01*
X744Y103D02*
X751Y103D01*
X0Y102D02*
X7Y102D01*
X744Y102D02*
X751Y102D01*
X0Y101D02*
X7Y101D01*
X744Y101D02*
X751Y101D01*
X0Y100D02*
X7Y100D01*
X744Y100D02*
X751Y100D01*
X0Y99D02*
X7Y99D01*
X744Y99D02*
X751Y99D01*
X0Y98D02*
X7Y98D01*
X744Y98D02*
X751Y98D01*
X0Y97D02*
X7Y97D01*
X744Y97D02*
X751Y97D01*
X0Y96D02*
X7Y96D01*
X744Y96D02*
X751Y96D01*
X0Y95D02*
X7Y95D01*
X744Y95D02*
X751Y95D01*
X0Y94D02*
X7Y94D01*
X744Y94D02*
X751Y94D01*
X0Y93D02*
X7Y93D01*
X744Y93D02*
X751Y93D01*
X0Y92D02*
X7Y92D01*
X744Y92D02*
X751Y92D01*
X0Y91D02*
X7Y91D01*
X744Y91D02*
X751Y91D01*
X0Y90D02*
X7Y90D01*
X744Y90D02*
X751Y90D01*
X0Y89D02*
X7Y89D01*
X744Y89D02*
X751Y89D01*
X0Y88D02*
X7Y88D01*
X744Y88D02*
X751Y88D01*
X0Y87D02*
X7Y87D01*
X744Y87D02*
X751Y87D01*
X0Y86D02*
X7Y86D01*
X744Y86D02*
X751Y86D01*
X0Y85D02*
X7Y85D01*
X744Y85D02*
X751Y85D01*
X0Y84D02*
X7Y84D01*
X744Y84D02*
X751Y84D01*
X0Y83D02*
X7Y83D01*
X744Y83D02*
X751Y83D01*
X0Y82D02*
X7Y82D01*
X744Y82D02*
X751Y82D01*
X0Y81D02*
X7Y81D01*
X744Y81D02*
X751Y81D01*
X0Y80D02*
X7Y80D01*
X744Y80D02*
X751Y80D01*
X0Y79D02*
X7Y79D01*
X744Y79D02*
X751Y79D01*
X0Y78D02*
X7Y78D01*
X744Y78D02*
X751Y78D01*
X0Y77D02*
X7Y77D01*
X744Y77D02*
X751Y77D01*
X0Y76D02*
X7Y76D01*
X744Y76D02*
X751Y76D01*
X0Y75D02*
X7Y75D01*
X744Y75D02*
X751Y75D01*
X0Y74D02*
X7Y74D01*
X744Y74D02*
X751Y74D01*
X0Y73D02*
X7Y73D01*
X744Y73D02*
X751Y73D01*
X0Y72D02*
X7Y72D01*
X744Y72D02*
X751Y72D01*
X0Y71D02*
X7Y71D01*
X744Y71D02*
X751Y71D01*
X0Y70D02*
X7Y70D01*
X744Y70D02*
X751Y70D01*
X0Y69D02*
X7Y69D01*
X744Y69D02*
X751Y69D01*
X0Y68D02*
X7Y68D01*
X744Y68D02*
X751Y68D01*
X0Y67D02*
X7Y67D01*
X744Y67D02*
X751Y67D01*
X0Y66D02*
X7Y66D01*
X744Y66D02*
X751Y66D01*
X0Y65D02*
X7Y65D01*
X744Y65D02*
X751Y65D01*
X0Y64D02*
X7Y64D01*
X744Y64D02*
X751Y64D01*
X0Y63D02*
X7Y63D01*
X744Y63D02*
X751Y63D01*
X0Y62D02*
X7Y62D01*
X744Y62D02*
X751Y62D01*
X0Y61D02*
X7Y61D01*
X744Y61D02*
X751Y61D01*
X0Y60D02*
X7Y60D01*
X744Y60D02*
X751Y60D01*
X0Y59D02*
X7Y59D01*
X744Y59D02*
X751Y59D01*
X0Y58D02*
X7Y58D01*
X744Y58D02*
X751Y58D01*
X0Y57D02*
X7Y57D01*
X744Y57D02*
X751Y57D01*
X0Y56D02*
X7Y56D01*
X744Y56D02*
X751Y56D01*
X0Y55D02*
X7Y55D01*
X744Y55D02*
X751Y55D01*
X0Y54D02*
X7Y54D01*
X744Y54D02*
X751Y54D01*
X0Y53D02*
X7Y53D01*
X744Y53D02*
X751Y53D01*
X0Y52D02*
X7Y52D01*
X744Y52D02*
X751Y52D01*
X0Y51D02*
X7Y51D01*
X744Y51D02*
X751Y51D01*
X0Y50D02*
X7Y50D01*
X744Y50D02*
X751Y50D01*
X0Y49D02*
X7Y49D01*
X744Y49D02*
X751Y49D01*
X0Y48D02*
X7Y48D01*
X744Y48D02*
X751Y48D01*
X0Y47D02*
X7Y47D01*
X744Y47D02*
X751Y47D01*
X0Y46D02*
X7Y46D01*
X744Y46D02*
X751Y46D01*
X0Y45D02*
X7Y45D01*
X744Y45D02*
X751Y45D01*
X0Y44D02*
X7Y44D01*
X744Y44D02*
X751Y44D01*
X0Y43D02*
X7Y43D01*
X744Y43D02*
X751Y43D01*
X0Y42D02*
X7Y42D01*
X744Y42D02*
X751Y42D01*
X0Y41D02*
X7Y41D01*
X744Y41D02*
X751Y41D01*
X0Y40D02*
X7Y40D01*
X744Y40D02*
X751Y40D01*
X0Y39D02*
X7Y39D01*
X744Y39D02*
X751Y39D01*
X0Y38D02*
X7Y38D01*
X744Y38D02*
X751Y38D01*
X0Y37D02*
X7Y37D01*
X744Y37D02*
X751Y37D01*
X0Y36D02*
X7Y36D01*
X744Y36D02*
X751Y36D01*
X0Y35D02*
X7Y35D01*
X744Y35D02*
X751Y35D01*
X0Y34D02*
X7Y34D01*
X744Y34D02*
X751Y34D01*
X0Y33D02*
X7Y33D01*
X744Y33D02*
X751Y33D01*
X0Y32D02*
X7Y32D01*
X744Y32D02*
X751Y32D01*
X0Y31D02*
X7Y31D01*
X744Y31D02*
X751Y31D01*
X0Y30D02*
X7Y30D01*
X744Y30D02*
X751Y30D01*
X0Y29D02*
X7Y29D01*
X744Y29D02*
X751Y29D01*
X0Y28D02*
X7Y28D01*
X744Y28D02*
X751Y28D01*
X0Y27D02*
X7Y27D01*
X744Y27D02*
X751Y27D01*
X0Y26D02*
X7Y26D01*
X744Y26D02*
X751Y26D01*
X0Y25D02*
X7Y25D01*
X744Y25D02*
X751Y25D01*
X0Y24D02*
X7Y24D01*
X744Y24D02*
X751Y24D01*
X0Y23D02*
X7Y23D01*
X744Y23D02*
X751Y23D01*
X0Y22D02*
X7Y22D01*
X744Y22D02*
X751Y22D01*
X0Y21D02*
X7Y21D01*
X744Y21D02*
X751Y21D01*
X0Y20D02*
X7Y20D01*
X744Y20D02*
X751Y20D01*
X0Y19D02*
X7Y19D01*
X744Y19D02*
X751Y19D01*
X0Y18D02*
X7Y18D01*
X744Y18D02*
X751Y18D01*
X0Y17D02*
X7Y17D01*
X744Y17D02*
X751Y17D01*
X0Y16D02*
X7Y16D01*
X744Y16D02*
X751Y16D01*
X0Y15D02*
X7Y15D01*
X744Y15D02*
X751Y15D01*
X0Y14D02*
X7Y14D01*
X744Y14D02*
X751Y14D01*
X0Y13D02*
X7Y13D01*
X744Y13D02*
X751Y13D01*
X0Y12D02*
X7Y12D01*
X744Y12D02*
X751Y12D01*
X0Y11D02*
X7Y11D01*
X744Y11D02*
X751Y11D01*
X0Y10D02*
X7Y10D01*
X744Y10D02*
X751Y10D01*
X0Y9D02*
X7Y9D01*
X744Y9D02*
X751Y9D01*
X0Y8D02*
X751Y8D01*
X0Y7D02*
X751Y7D01*
X0Y6D02*
X751Y6D01*
X0Y5D02*
X751Y5D01*
X0Y4D02*
X751Y4D01*
X0Y3D02*
X751Y3D01*
X0Y2D02*
X751Y2D01*
X0Y1D02*
X751Y1D01*
D02*
G04 End of Silk1*
M02*