G04 MADE WITH FRITZING*
G04 WWW.FRITZING.ORG*
G04 DOUBLE SIDED*
G04 HOLES PLATED*
G04 CONTOUR ON CENTER OF CONTOUR VECTOR*
%ASAXBY*%
%FSLAX23Y23*%
%MOIN*%
%OFA0B0*%
%SFA1.0B1.0*%
%ADD10C,0.010000*%
%ADD11R,0.001000X0.001000*%
%LNSILK1*%
G90*
G70*
G54D10*
X16Y904D02*
X16Y804D01*
D02*
X16Y804D02*
X116Y804D01*
D02*
X116Y804D02*
X116Y904D01*
D02*
X116Y904D02*
X16Y904D01*
D02*
X316Y904D02*
X316Y804D01*
D02*
X316Y804D02*
X416Y804D01*
D02*
X416Y804D02*
X416Y904D01*
D02*
X416Y904D02*
X316Y904D01*
D02*
X16Y654D02*
X16Y254D01*
D02*
X16Y254D02*
X416Y254D01*
D02*
X416Y254D02*
X416Y654D01*
D02*
X16Y654D02*
X166Y654D01*
D02*
X266Y654D02*
X416Y654D01*
D02*
X416Y779D02*
X116Y779D01*
D02*
X116Y779D02*
X116Y679D01*
D02*
X116Y679D02*
X416Y679D01*
D02*
X416Y679D02*
X416Y779D01*
G54D11*
X0Y919D02*
X429Y919D01*
X0Y918D02*
X429Y918D01*
X0Y917D02*
X429Y917D01*
X0Y916D02*
X429Y916D01*
X0Y915D02*
X429Y915D01*
X0Y914D02*
X429Y914D01*
X0Y913D02*
X429Y913D01*
X0Y912D02*
X429Y912D01*
X0Y911D02*
X7Y911D01*
X422Y911D02*
X429Y911D01*
X0Y910D02*
X7Y910D01*
X422Y910D02*
X429Y910D01*
X0Y909D02*
X7Y909D01*
X422Y909D02*
X429Y909D01*
X0Y908D02*
X7Y908D01*
X422Y908D02*
X429Y908D01*
X0Y907D02*
X7Y907D01*
X422Y907D02*
X429Y907D01*
X0Y906D02*
X7Y906D01*
X422Y906D02*
X429Y906D01*
X0Y905D02*
X7Y905D01*
X48Y905D02*
X49Y905D01*
X348Y905D02*
X349Y905D01*
X422Y905D02*
X429Y905D01*
X0Y904D02*
X7Y904D01*
X47Y904D02*
X50Y904D01*
X347Y904D02*
X350Y904D01*
X422Y904D02*
X429Y904D01*
X0Y903D02*
X7Y903D01*
X46Y903D02*
X51Y903D01*
X346Y903D02*
X351Y903D01*
X422Y903D02*
X429Y903D01*
X0Y902D02*
X7Y902D01*
X45Y902D02*
X51Y902D01*
X345Y902D02*
X351Y902D01*
X422Y902D02*
X429Y902D01*
X0Y901D02*
X7Y901D01*
X44Y901D02*
X50Y901D01*
X344Y901D02*
X350Y901D01*
X422Y901D02*
X429Y901D01*
X0Y900D02*
X7Y900D01*
X43Y900D02*
X49Y900D01*
X343Y900D02*
X349Y900D01*
X422Y900D02*
X429Y900D01*
X0Y899D02*
X7Y899D01*
X42Y899D02*
X48Y899D01*
X342Y899D02*
X348Y899D01*
X422Y899D02*
X429Y899D01*
X0Y898D02*
X7Y898D01*
X41Y898D02*
X47Y898D01*
X341Y898D02*
X347Y898D01*
X422Y898D02*
X429Y898D01*
X0Y897D02*
X7Y897D01*
X40Y897D02*
X46Y897D01*
X340Y897D02*
X346Y897D01*
X422Y897D02*
X429Y897D01*
X0Y896D02*
X7Y896D01*
X39Y896D02*
X45Y896D01*
X339Y896D02*
X345Y896D01*
X422Y896D02*
X429Y896D01*
X0Y895D02*
X7Y895D01*
X38Y895D02*
X44Y895D01*
X338Y895D02*
X344Y895D01*
X422Y895D02*
X429Y895D01*
X0Y894D02*
X7Y894D01*
X37Y894D02*
X43Y894D01*
X337Y894D02*
X343Y894D01*
X422Y894D02*
X429Y894D01*
X0Y893D02*
X7Y893D01*
X36Y893D02*
X42Y893D01*
X336Y893D02*
X342Y893D01*
X422Y893D02*
X429Y893D01*
X0Y892D02*
X7Y892D01*
X35Y892D02*
X41Y892D01*
X335Y892D02*
X341Y892D01*
X422Y892D02*
X429Y892D01*
X0Y891D02*
X7Y891D01*
X34Y891D02*
X40Y891D01*
X334Y891D02*
X340Y891D01*
X422Y891D02*
X429Y891D01*
X0Y890D02*
X7Y890D01*
X33Y890D02*
X39Y890D01*
X333Y890D02*
X339Y890D01*
X422Y890D02*
X429Y890D01*
X0Y889D02*
X7Y889D01*
X32Y889D02*
X38Y889D01*
X332Y889D02*
X337Y889D01*
X422Y889D02*
X429Y889D01*
X0Y888D02*
X7Y888D01*
X31Y888D02*
X36Y888D01*
X331Y888D02*
X336Y888D01*
X422Y888D02*
X429Y888D01*
X0Y887D02*
X7Y887D01*
X30Y887D02*
X35Y887D01*
X330Y887D02*
X335Y887D01*
X422Y887D02*
X429Y887D01*
X0Y886D02*
X7Y886D01*
X29Y886D02*
X34Y886D01*
X329Y886D02*
X334Y886D01*
X422Y886D02*
X429Y886D01*
X0Y885D02*
X7Y885D01*
X28Y885D02*
X33Y885D01*
X328Y885D02*
X333Y885D01*
X422Y885D02*
X429Y885D01*
X0Y884D02*
X7Y884D01*
X27Y884D02*
X32Y884D01*
X327Y884D02*
X332Y884D01*
X422Y884D02*
X429Y884D01*
X0Y883D02*
X7Y883D01*
X26Y883D02*
X31Y883D01*
X326Y883D02*
X331Y883D01*
X422Y883D02*
X429Y883D01*
X0Y882D02*
X7Y882D01*
X25Y882D02*
X31Y882D01*
X325Y882D02*
X330Y882D01*
X422Y882D02*
X429Y882D01*
X0Y881D02*
X7Y881D01*
X24Y881D02*
X30Y881D01*
X324Y881D02*
X330Y881D01*
X422Y881D02*
X429Y881D01*
X0Y880D02*
X7Y880D01*
X23Y880D02*
X29Y880D01*
X323Y880D02*
X329Y880D01*
X422Y880D02*
X429Y880D01*
X0Y879D02*
X7Y879D01*
X22Y879D02*
X28Y879D01*
X322Y879D02*
X328Y879D01*
X422Y879D02*
X429Y879D01*
X0Y878D02*
X7Y878D01*
X21Y878D02*
X27Y878D01*
X321Y878D02*
X327Y878D01*
X422Y878D02*
X429Y878D01*
X0Y877D02*
X7Y877D01*
X20Y877D02*
X26Y877D01*
X273Y877D02*
X275Y877D01*
X320Y877D02*
X326Y877D01*
X422Y877D02*
X429Y877D01*
X0Y876D02*
X7Y876D01*
X19Y876D02*
X25Y876D01*
X272Y876D02*
X276Y876D01*
X319Y876D02*
X325Y876D01*
X422Y876D02*
X429Y876D01*
X0Y875D02*
X7Y875D01*
X18Y875D02*
X24Y875D01*
X272Y875D02*
X277Y875D01*
X318Y875D02*
X324Y875D01*
X422Y875D02*
X429Y875D01*
X0Y874D02*
X7Y874D01*
X17Y874D02*
X23Y874D01*
X272Y874D02*
X277Y874D01*
X317Y874D02*
X323Y874D01*
X422Y874D02*
X429Y874D01*
X0Y873D02*
X7Y873D01*
X16Y873D02*
X22Y873D01*
X272Y873D02*
X277Y873D01*
X316Y873D02*
X322Y873D01*
X422Y873D02*
X429Y873D01*
X0Y872D02*
X7Y872D01*
X15Y872D02*
X21Y872D01*
X272Y872D02*
X277Y872D01*
X315Y872D02*
X321Y872D01*
X422Y872D02*
X429Y872D01*
X0Y871D02*
X7Y871D01*
X14Y871D02*
X20Y871D01*
X272Y871D02*
X277Y871D01*
X314Y871D02*
X320Y871D01*
X422Y871D02*
X429Y871D01*
X0Y870D02*
X7Y870D01*
X15Y870D02*
X19Y870D01*
X272Y870D02*
X277Y870D01*
X315Y870D02*
X319Y870D01*
X422Y870D02*
X429Y870D01*
X0Y869D02*
X7Y869D01*
X16Y869D02*
X18Y869D01*
X272Y869D02*
X277Y869D01*
X316Y869D02*
X318Y869D01*
X422Y869D02*
X429Y869D01*
X0Y868D02*
X7Y868D01*
X17Y868D02*
X17Y868D01*
X272Y868D02*
X277Y868D01*
X317Y868D02*
X317Y868D01*
X422Y868D02*
X429Y868D01*
X0Y867D02*
X7Y867D01*
X272Y867D02*
X277Y867D01*
X422Y867D02*
X429Y867D01*
X0Y866D02*
X7Y866D01*
X272Y866D02*
X277Y866D01*
X422Y866D02*
X429Y866D01*
X0Y865D02*
X7Y865D01*
X261Y865D02*
X288Y865D01*
X422Y865D02*
X429Y865D01*
X0Y864D02*
X7Y864D01*
X141Y864D02*
X167Y864D01*
X260Y864D02*
X288Y864D01*
X422Y864D02*
X429Y864D01*
X0Y863D02*
X7Y863D01*
X140Y863D02*
X168Y863D01*
X260Y863D02*
X289Y863D01*
X422Y863D02*
X429Y863D01*
X0Y862D02*
X7Y862D01*
X140Y862D02*
X169Y862D01*
X260Y862D02*
X289Y862D01*
X422Y862D02*
X429Y862D01*
X0Y861D02*
X7Y861D01*
X140Y861D02*
X169Y861D01*
X260Y861D02*
X289Y861D01*
X422Y861D02*
X429Y861D01*
X0Y860D02*
X7Y860D01*
X140Y860D02*
X169Y860D01*
X261Y860D02*
X288Y860D01*
X422Y860D02*
X429Y860D01*
X0Y859D02*
X7Y859D01*
X140Y859D02*
X169Y859D01*
X272Y859D02*
X277Y859D01*
X422Y859D02*
X429Y859D01*
X0Y858D02*
X7Y858D01*
X140Y858D02*
X168Y858D01*
X272Y858D02*
X277Y858D01*
X422Y858D02*
X429Y858D01*
X0Y857D02*
X7Y857D01*
X140Y857D02*
X168Y857D01*
X272Y857D02*
X277Y857D01*
X422Y857D02*
X429Y857D01*
X0Y856D02*
X7Y856D01*
X142Y856D02*
X166Y856D01*
X272Y856D02*
X277Y856D01*
X422Y856D02*
X429Y856D01*
X0Y855D02*
X7Y855D01*
X272Y855D02*
X277Y855D01*
X422Y855D02*
X429Y855D01*
X0Y854D02*
X7Y854D01*
X272Y854D02*
X277Y854D01*
X422Y854D02*
X429Y854D01*
X0Y853D02*
X7Y853D01*
X272Y853D02*
X277Y853D01*
X422Y853D02*
X429Y853D01*
X0Y852D02*
X7Y852D01*
X272Y852D02*
X277Y852D01*
X422Y852D02*
X429Y852D01*
X0Y851D02*
X7Y851D01*
X272Y851D02*
X277Y851D01*
X422Y851D02*
X429Y851D01*
X0Y850D02*
X7Y850D01*
X272Y850D02*
X277Y850D01*
X422Y850D02*
X429Y850D01*
X0Y849D02*
X7Y849D01*
X272Y849D02*
X276Y849D01*
X422Y849D02*
X429Y849D01*
X0Y848D02*
X7Y848D01*
X273Y848D02*
X276Y848D01*
X422Y848D02*
X429Y848D01*
X0Y847D02*
X7Y847D01*
X422Y847D02*
X429Y847D01*
X0Y846D02*
X7Y846D01*
X422Y846D02*
X429Y846D01*
X0Y845D02*
X7Y845D01*
X422Y845D02*
X429Y845D01*
X0Y844D02*
X7Y844D01*
X422Y844D02*
X429Y844D01*
X0Y843D02*
X7Y843D01*
X422Y843D02*
X429Y843D01*
X0Y842D02*
X7Y842D01*
X422Y842D02*
X429Y842D01*
X0Y841D02*
X7Y841D01*
X422Y841D02*
X429Y841D01*
X0Y840D02*
X7Y840D01*
X422Y840D02*
X429Y840D01*
X0Y839D02*
X7Y839D01*
X422Y839D02*
X429Y839D01*
X0Y838D02*
X7Y838D01*
X422Y838D02*
X429Y838D01*
X0Y837D02*
X7Y837D01*
X422Y837D02*
X429Y837D01*
X0Y836D02*
X7Y836D01*
X422Y836D02*
X429Y836D01*
X0Y835D02*
X7Y835D01*
X422Y835D02*
X429Y835D01*
X0Y834D02*
X7Y834D01*
X422Y834D02*
X429Y834D01*
X0Y833D02*
X7Y833D01*
X422Y833D02*
X429Y833D01*
X0Y832D02*
X7Y832D01*
X422Y832D02*
X429Y832D01*
X0Y831D02*
X7Y831D01*
X422Y831D02*
X429Y831D01*
X0Y830D02*
X7Y830D01*
X422Y830D02*
X429Y830D01*
X0Y829D02*
X7Y829D01*
X422Y829D02*
X429Y829D01*
X0Y828D02*
X7Y828D01*
X422Y828D02*
X429Y828D01*
X0Y827D02*
X7Y827D01*
X422Y827D02*
X429Y827D01*
X0Y826D02*
X7Y826D01*
X422Y826D02*
X429Y826D01*
X0Y825D02*
X7Y825D01*
X422Y825D02*
X429Y825D01*
X0Y824D02*
X7Y824D01*
X422Y824D02*
X429Y824D01*
X0Y823D02*
X7Y823D01*
X422Y823D02*
X429Y823D01*
X0Y822D02*
X7Y822D01*
X422Y822D02*
X429Y822D01*
X0Y821D02*
X7Y821D01*
X422Y821D02*
X429Y821D01*
X0Y820D02*
X7Y820D01*
X422Y820D02*
X429Y820D01*
X0Y819D02*
X7Y819D01*
X422Y819D02*
X429Y819D01*
X0Y818D02*
X7Y818D01*
X422Y818D02*
X429Y818D01*
X0Y817D02*
X7Y817D01*
X422Y817D02*
X429Y817D01*
X0Y816D02*
X7Y816D01*
X422Y816D02*
X429Y816D01*
X0Y815D02*
X7Y815D01*
X422Y815D02*
X429Y815D01*
X0Y814D02*
X7Y814D01*
X422Y814D02*
X429Y814D01*
X0Y813D02*
X7Y813D01*
X422Y813D02*
X429Y813D01*
X0Y812D02*
X7Y812D01*
X422Y812D02*
X429Y812D01*
X0Y811D02*
X7Y811D01*
X422Y811D02*
X429Y811D01*
X0Y810D02*
X7Y810D01*
X422Y810D02*
X429Y810D01*
X0Y809D02*
X7Y809D01*
X422Y809D02*
X429Y809D01*
X0Y808D02*
X7Y808D01*
X422Y808D02*
X429Y808D01*
X0Y807D02*
X7Y807D01*
X422Y807D02*
X429Y807D01*
X0Y806D02*
X7Y806D01*
X422Y806D02*
X429Y806D01*
X0Y805D02*
X7Y805D01*
X422Y805D02*
X429Y805D01*
X0Y804D02*
X7Y804D01*
X422Y804D02*
X429Y804D01*
X0Y803D02*
X7Y803D01*
X422Y803D02*
X429Y803D01*
X0Y802D02*
X7Y802D01*
X422Y802D02*
X429Y802D01*
X0Y801D02*
X7Y801D01*
X422Y801D02*
X429Y801D01*
X0Y800D02*
X7Y800D01*
X422Y800D02*
X429Y800D01*
X0Y799D02*
X7Y799D01*
X422Y799D02*
X429Y799D01*
X0Y798D02*
X7Y798D01*
X422Y798D02*
X429Y798D01*
X0Y797D02*
X7Y797D01*
X422Y797D02*
X429Y797D01*
X0Y796D02*
X7Y796D01*
X422Y796D02*
X429Y796D01*
X0Y795D02*
X7Y795D01*
X422Y795D02*
X429Y795D01*
X0Y794D02*
X7Y794D01*
X422Y794D02*
X429Y794D01*
X0Y793D02*
X7Y793D01*
X422Y793D02*
X429Y793D01*
X0Y792D02*
X7Y792D01*
X422Y792D02*
X429Y792D01*
X0Y791D02*
X7Y791D01*
X422Y791D02*
X429Y791D01*
X0Y790D02*
X7Y790D01*
X422Y790D02*
X429Y790D01*
X0Y789D02*
X7Y789D01*
X422Y789D02*
X429Y789D01*
X0Y788D02*
X7Y788D01*
X422Y788D02*
X429Y788D01*
X0Y787D02*
X7Y787D01*
X422Y787D02*
X429Y787D01*
X0Y786D02*
X7Y786D01*
X422Y786D02*
X429Y786D01*
X0Y785D02*
X7Y785D01*
X422Y785D02*
X429Y785D01*
X0Y784D02*
X7Y784D01*
X422Y784D02*
X429Y784D01*
X0Y783D02*
X7Y783D01*
X422Y783D02*
X429Y783D01*
X0Y782D02*
X7Y782D01*
X422Y782D02*
X429Y782D01*
X0Y781D02*
X7Y781D01*
X422Y781D02*
X429Y781D01*
X0Y780D02*
X7Y780D01*
X381Y780D02*
X382Y780D01*
X422Y780D02*
X429Y780D01*
X0Y779D02*
X7Y779D01*
X380Y779D02*
X383Y779D01*
X422Y779D02*
X429Y779D01*
X0Y778D02*
X7Y778D01*
X379Y778D02*
X384Y778D01*
X422Y778D02*
X429Y778D01*
X0Y777D02*
X7Y777D01*
X379Y777D02*
X385Y777D01*
X422Y777D02*
X429Y777D01*
X0Y776D02*
X7Y776D01*
X380Y776D02*
X386Y776D01*
X422Y776D02*
X429Y776D01*
X0Y775D02*
X7Y775D01*
X381Y775D02*
X387Y775D01*
X422Y775D02*
X429Y775D01*
X0Y774D02*
X7Y774D01*
X382Y774D02*
X388Y774D01*
X422Y774D02*
X429Y774D01*
X0Y773D02*
X7Y773D01*
X422Y773D02*
X429Y773D01*
X0Y772D02*
X7Y772D01*
X422Y772D02*
X429Y772D01*
X0Y771D02*
X7Y771D01*
X422Y771D02*
X429Y771D01*
X0Y770D02*
X7Y770D01*
X422Y770D02*
X429Y770D01*
X0Y769D02*
X7Y769D01*
X422Y769D02*
X429Y769D01*
X0Y768D02*
X7Y768D01*
X422Y768D02*
X429Y768D01*
X0Y767D02*
X7Y767D01*
X422Y767D02*
X429Y767D01*
X0Y766D02*
X7Y766D01*
X422Y766D02*
X429Y766D01*
X0Y765D02*
X7Y765D01*
X422Y765D02*
X429Y765D01*
X0Y764D02*
X7Y764D01*
X422Y764D02*
X429Y764D01*
X0Y763D02*
X7Y763D01*
X422Y763D02*
X429Y763D01*
X0Y762D02*
X7Y762D01*
X422Y762D02*
X429Y762D01*
X0Y761D02*
X7Y761D01*
X422Y761D02*
X429Y761D01*
X0Y760D02*
X7Y760D01*
X422Y760D02*
X429Y760D01*
X0Y759D02*
X7Y759D01*
X422Y759D02*
X429Y759D01*
X0Y758D02*
X7Y758D01*
X422Y758D02*
X429Y758D01*
X0Y757D02*
X7Y757D01*
X422Y757D02*
X429Y757D01*
X0Y756D02*
X7Y756D01*
X422Y756D02*
X429Y756D01*
X0Y755D02*
X7Y755D01*
X422Y755D02*
X429Y755D01*
X0Y754D02*
X7Y754D01*
X422Y754D02*
X429Y754D01*
X0Y753D02*
X7Y753D01*
X409Y753D02*
X409Y753D01*
X422Y753D02*
X429Y753D01*
X0Y752D02*
X7Y752D01*
X409Y752D02*
X410Y752D01*
X422Y752D02*
X429Y752D01*
X0Y751D02*
X7Y751D01*
X409Y751D02*
X411Y751D01*
X422Y751D02*
X429Y751D01*
X0Y750D02*
X7Y750D01*
X409Y750D02*
X412Y750D01*
X422Y750D02*
X429Y750D01*
X0Y749D02*
X7Y749D01*
X409Y749D02*
X413Y749D01*
X422Y749D02*
X429Y749D01*
X0Y748D02*
X7Y748D01*
X409Y748D02*
X414Y748D01*
X422Y748D02*
X429Y748D01*
X0Y747D02*
X7Y747D01*
X409Y747D02*
X415Y747D01*
X422Y747D02*
X429Y747D01*
X0Y746D02*
X7Y746D01*
X410Y746D02*
X416Y746D01*
X422Y746D02*
X429Y746D01*
X0Y745D02*
X7Y745D01*
X411Y745D02*
X415Y745D01*
X422Y745D02*
X429Y745D01*
X0Y744D02*
X7Y744D01*
X412Y744D02*
X414Y744D01*
X422Y744D02*
X429Y744D01*
X0Y743D02*
X7Y743D01*
X413Y743D02*
X413Y743D01*
X422Y743D02*
X429Y743D01*
X0Y742D02*
X7Y742D01*
X422Y742D02*
X429Y742D01*
X0Y741D02*
X7Y741D01*
X422Y741D02*
X429Y741D01*
X0Y740D02*
X7Y740D01*
X422Y740D02*
X429Y740D01*
X0Y739D02*
X7Y739D01*
X422Y739D02*
X429Y739D01*
X0Y738D02*
X7Y738D01*
X422Y738D02*
X429Y738D01*
X0Y737D02*
X7Y737D01*
X422Y737D02*
X429Y737D01*
X0Y736D02*
X7Y736D01*
X422Y736D02*
X429Y736D01*
X0Y735D02*
X7Y735D01*
X422Y735D02*
X429Y735D01*
X0Y734D02*
X7Y734D01*
X422Y734D02*
X429Y734D01*
X0Y733D02*
X7Y733D01*
X422Y733D02*
X429Y733D01*
X0Y732D02*
X7Y732D01*
X422Y732D02*
X429Y732D01*
X0Y731D02*
X7Y731D01*
X422Y731D02*
X429Y731D01*
X0Y730D02*
X7Y730D01*
X422Y730D02*
X429Y730D01*
X0Y729D02*
X7Y729D01*
X422Y729D02*
X429Y729D01*
X0Y728D02*
X7Y728D01*
X422Y728D02*
X429Y728D01*
X0Y727D02*
X7Y727D01*
X422Y727D02*
X429Y727D01*
X0Y726D02*
X7Y726D01*
X422Y726D02*
X429Y726D01*
X0Y725D02*
X7Y725D01*
X422Y725D02*
X429Y725D01*
X0Y724D02*
X7Y724D01*
X422Y724D02*
X429Y724D01*
X0Y723D02*
X7Y723D01*
X422Y723D02*
X429Y723D01*
X0Y722D02*
X7Y722D01*
X422Y722D02*
X429Y722D01*
X0Y721D02*
X7Y721D01*
X422Y721D02*
X429Y721D01*
X0Y720D02*
X7Y720D01*
X422Y720D02*
X429Y720D01*
X0Y719D02*
X7Y719D01*
X422Y719D02*
X429Y719D01*
X0Y718D02*
X7Y718D01*
X422Y718D02*
X429Y718D01*
X0Y717D02*
X7Y717D01*
X422Y717D02*
X429Y717D01*
X0Y716D02*
X7Y716D01*
X422Y716D02*
X429Y716D01*
X0Y715D02*
X7Y715D01*
X422Y715D02*
X429Y715D01*
X0Y714D02*
X7Y714D01*
X422Y714D02*
X429Y714D01*
X0Y713D02*
X7Y713D01*
X422Y713D02*
X429Y713D01*
X0Y712D02*
X7Y712D01*
X422Y712D02*
X429Y712D01*
X0Y711D02*
X7Y711D01*
X422Y711D02*
X429Y711D01*
X0Y710D02*
X7Y710D01*
X422Y710D02*
X429Y710D01*
X0Y709D02*
X7Y709D01*
X422Y709D02*
X429Y709D01*
X0Y708D02*
X7Y708D01*
X422Y708D02*
X429Y708D01*
X0Y707D02*
X7Y707D01*
X422Y707D02*
X429Y707D01*
X0Y706D02*
X7Y706D01*
X422Y706D02*
X429Y706D01*
X0Y705D02*
X7Y705D01*
X422Y705D02*
X429Y705D01*
X0Y704D02*
X7Y704D01*
X422Y704D02*
X429Y704D01*
X0Y703D02*
X7Y703D01*
X422Y703D02*
X429Y703D01*
X0Y702D02*
X7Y702D01*
X422Y702D02*
X429Y702D01*
X0Y701D02*
X7Y701D01*
X422Y701D02*
X429Y701D01*
X0Y700D02*
X7Y700D01*
X422Y700D02*
X429Y700D01*
X0Y699D02*
X7Y699D01*
X422Y699D02*
X429Y699D01*
X0Y698D02*
X7Y698D01*
X422Y698D02*
X429Y698D01*
X0Y697D02*
X7Y697D01*
X422Y697D02*
X429Y697D01*
X0Y696D02*
X7Y696D01*
X422Y696D02*
X429Y696D01*
X0Y695D02*
X7Y695D01*
X422Y695D02*
X429Y695D01*
X0Y694D02*
X7Y694D01*
X422Y694D02*
X429Y694D01*
X0Y693D02*
X7Y693D01*
X422Y693D02*
X429Y693D01*
X0Y692D02*
X7Y692D01*
X422Y692D02*
X429Y692D01*
X0Y691D02*
X7Y691D01*
X422Y691D02*
X429Y691D01*
X0Y690D02*
X7Y690D01*
X422Y690D02*
X429Y690D01*
X0Y689D02*
X7Y689D01*
X422Y689D02*
X429Y689D01*
X0Y688D02*
X7Y688D01*
X422Y688D02*
X429Y688D01*
X0Y687D02*
X7Y687D01*
X422Y687D02*
X429Y687D01*
X0Y686D02*
X7Y686D01*
X422Y686D02*
X429Y686D01*
X0Y685D02*
X7Y685D01*
X422Y685D02*
X429Y685D01*
X0Y684D02*
X7Y684D01*
X422Y684D02*
X429Y684D01*
X0Y683D02*
X7Y683D01*
X422Y683D02*
X429Y683D01*
X0Y682D02*
X7Y682D01*
X422Y682D02*
X429Y682D01*
X0Y681D02*
X7Y681D01*
X422Y681D02*
X429Y681D01*
X0Y680D02*
X7Y680D01*
X422Y680D02*
X429Y680D01*
X0Y679D02*
X7Y679D01*
X422Y679D02*
X429Y679D01*
X0Y678D02*
X7Y678D01*
X422Y678D02*
X429Y678D01*
X0Y677D02*
X7Y677D01*
X422Y677D02*
X429Y677D01*
X0Y676D02*
X7Y676D01*
X422Y676D02*
X429Y676D01*
X0Y675D02*
X7Y675D01*
X422Y675D02*
X429Y675D01*
X0Y674D02*
X7Y674D01*
X422Y674D02*
X429Y674D01*
X0Y673D02*
X7Y673D01*
X422Y673D02*
X429Y673D01*
X0Y672D02*
X7Y672D01*
X422Y672D02*
X429Y672D01*
X0Y671D02*
X7Y671D01*
X422Y671D02*
X429Y671D01*
X0Y670D02*
X7Y670D01*
X422Y670D02*
X429Y670D01*
X0Y669D02*
X7Y669D01*
X422Y669D02*
X429Y669D01*
X0Y668D02*
X7Y668D01*
X422Y668D02*
X429Y668D01*
X0Y667D02*
X7Y667D01*
X422Y667D02*
X429Y667D01*
X0Y666D02*
X7Y666D01*
X422Y666D02*
X429Y666D01*
X0Y665D02*
X7Y665D01*
X422Y665D02*
X429Y665D01*
X0Y664D02*
X7Y664D01*
X422Y664D02*
X429Y664D01*
X0Y663D02*
X7Y663D01*
X422Y663D02*
X429Y663D01*
X0Y662D02*
X7Y662D01*
X422Y662D02*
X429Y662D01*
X0Y661D02*
X7Y661D01*
X422Y661D02*
X429Y661D01*
X0Y660D02*
X7Y660D01*
X422Y660D02*
X429Y660D01*
X0Y659D02*
X7Y659D01*
X422Y659D02*
X429Y659D01*
X0Y658D02*
X7Y658D01*
X422Y658D02*
X429Y658D01*
X0Y657D02*
X7Y657D01*
X422Y657D02*
X429Y657D01*
X0Y656D02*
X7Y656D01*
X422Y656D02*
X429Y656D01*
X0Y655D02*
X7Y655D01*
X422Y655D02*
X429Y655D01*
X0Y654D02*
X7Y654D01*
X422Y654D02*
X429Y654D01*
X0Y653D02*
X7Y653D01*
X422Y653D02*
X429Y653D01*
X0Y652D02*
X7Y652D01*
X422Y652D02*
X429Y652D01*
X0Y651D02*
X7Y651D01*
X422Y651D02*
X429Y651D01*
X0Y650D02*
X7Y650D01*
X422Y650D02*
X429Y650D01*
X0Y649D02*
X7Y649D01*
X422Y649D02*
X429Y649D01*
X0Y648D02*
X7Y648D01*
X422Y648D02*
X429Y648D01*
X0Y647D02*
X7Y647D01*
X422Y647D02*
X429Y647D01*
X0Y646D02*
X7Y646D01*
X422Y646D02*
X429Y646D01*
X0Y645D02*
X7Y645D01*
X422Y645D02*
X429Y645D01*
X0Y644D02*
X7Y644D01*
X422Y644D02*
X429Y644D01*
X0Y643D02*
X7Y643D01*
X422Y643D02*
X429Y643D01*
X0Y642D02*
X7Y642D01*
X422Y642D02*
X429Y642D01*
X0Y641D02*
X7Y641D01*
X422Y641D02*
X429Y641D01*
X0Y640D02*
X7Y640D01*
X422Y640D02*
X429Y640D01*
X0Y639D02*
X7Y639D01*
X422Y639D02*
X429Y639D01*
X0Y638D02*
X7Y638D01*
X422Y638D02*
X429Y638D01*
X0Y637D02*
X7Y637D01*
X422Y637D02*
X429Y637D01*
X0Y636D02*
X7Y636D01*
X422Y636D02*
X429Y636D01*
X0Y635D02*
X7Y635D01*
X422Y635D02*
X429Y635D01*
X0Y634D02*
X7Y634D01*
X422Y634D02*
X429Y634D01*
X0Y633D02*
X7Y633D01*
X422Y633D02*
X429Y633D01*
X0Y632D02*
X7Y632D01*
X422Y632D02*
X429Y632D01*
X0Y631D02*
X7Y631D01*
X422Y631D02*
X429Y631D01*
X0Y630D02*
X7Y630D01*
X422Y630D02*
X429Y630D01*
X0Y629D02*
X7Y629D01*
X422Y629D02*
X429Y629D01*
X0Y628D02*
X7Y628D01*
X422Y628D02*
X429Y628D01*
X0Y627D02*
X7Y627D01*
X422Y627D02*
X429Y627D01*
X0Y626D02*
X7Y626D01*
X422Y626D02*
X429Y626D01*
X0Y625D02*
X7Y625D01*
X422Y625D02*
X429Y625D01*
X0Y624D02*
X7Y624D01*
X422Y624D02*
X429Y624D01*
X0Y623D02*
X7Y623D01*
X422Y623D02*
X429Y623D01*
X0Y622D02*
X7Y622D01*
X422Y622D02*
X429Y622D01*
X0Y621D02*
X7Y621D01*
X422Y621D02*
X429Y621D01*
X0Y620D02*
X7Y620D01*
X422Y620D02*
X429Y620D01*
X0Y619D02*
X7Y619D01*
X422Y619D02*
X429Y619D01*
X0Y618D02*
X7Y618D01*
X422Y618D02*
X429Y618D01*
X0Y617D02*
X7Y617D01*
X422Y617D02*
X429Y617D01*
X0Y616D02*
X7Y616D01*
X422Y616D02*
X429Y616D01*
X0Y615D02*
X7Y615D01*
X422Y615D02*
X429Y615D01*
X0Y614D02*
X7Y614D01*
X422Y614D02*
X429Y614D01*
X0Y613D02*
X7Y613D01*
X422Y613D02*
X429Y613D01*
X0Y612D02*
X7Y612D01*
X422Y612D02*
X429Y612D01*
X0Y611D02*
X7Y611D01*
X422Y611D02*
X429Y611D01*
X0Y610D02*
X7Y610D01*
X422Y610D02*
X429Y610D01*
X0Y609D02*
X7Y609D01*
X422Y609D02*
X429Y609D01*
X0Y608D02*
X7Y608D01*
X422Y608D02*
X429Y608D01*
X0Y607D02*
X7Y607D01*
X422Y607D02*
X429Y607D01*
X0Y606D02*
X7Y606D01*
X422Y606D02*
X429Y606D01*
X0Y605D02*
X7Y605D01*
X422Y605D02*
X429Y605D01*
X0Y604D02*
X7Y604D01*
X422Y604D02*
X429Y604D01*
X0Y603D02*
X7Y603D01*
X422Y603D02*
X429Y603D01*
X0Y602D02*
X7Y602D01*
X422Y602D02*
X429Y602D01*
X0Y601D02*
X7Y601D01*
X422Y601D02*
X429Y601D01*
X0Y600D02*
X7Y600D01*
X422Y600D02*
X429Y600D01*
X0Y599D02*
X7Y599D01*
X422Y599D02*
X429Y599D01*
X0Y598D02*
X7Y598D01*
X422Y598D02*
X429Y598D01*
X0Y597D02*
X7Y597D01*
X422Y597D02*
X429Y597D01*
X0Y596D02*
X7Y596D01*
X422Y596D02*
X429Y596D01*
X0Y595D02*
X7Y595D01*
X422Y595D02*
X429Y595D01*
X0Y594D02*
X7Y594D01*
X422Y594D02*
X429Y594D01*
X0Y593D02*
X7Y593D01*
X422Y593D02*
X429Y593D01*
X0Y592D02*
X7Y592D01*
X422Y592D02*
X429Y592D01*
X0Y591D02*
X7Y591D01*
X422Y591D02*
X429Y591D01*
X0Y590D02*
X7Y590D01*
X422Y590D02*
X429Y590D01*
X0Y589D02*
X7Y589D01*
X422Y589D02*
X429Y589D01*
X0Y588D02*
X7Y588D01*
X422Y588D02*
X429Y588D01*
X0Y587D02*
X7Y587D01*
X422Y587D02*
X429Y587D01*
X0Y586D02*
X7Y586D01*
X422Y586D02*
X429Y586D01*
X0Y585D02*
X7Y585D01*
X422Y585D02*
X429Y585D01*
X0Y584D02*
X7Y584D01*
X207Y584D02*
X211Y584D01*
X422Y584D02*
X429Y584D01*
X0Y583D02*
X7Y583D01*
X206Y583D02*
X214Y583D01*
X422Y583D02*
X429Y583D01*
X0Y582D02*
X7Y582D01*
X206Y582D02*
X217Y582D01*
X422Y582D02*
X429Y582D01*
X0Y581D02*
X7Y581D01*
X207Y581D02*
X221Y581D01*
X422Y581D02*
X429Y581D01*
X0Y580D02*
X7Y580D01*
X209Y580D02*
X224Y580D01*
X422Y580D02*
X429Y580D01*
X0Y579D02*
X7Y579D01*
X213Y579D02*
X228Y579D01*
X422Y579D02*
X429Y579D01*
X0Y578D02*
X7Y578D01*
X214Y578D02*
X231Y578D01*
X422Y578D02*
X429Y578D01*
X0Y577D02*
X7Y577D01*
X214Y577D02*
X234Y577D01*
X422Y577D02*
X429Y577D01*
X0Y576D02*
X7Y576D01*
X214Y576D02*
X217Y576D01*
X223Y576D02*
X238Y576D01*
X422Y576D02*
X429Y576D01*
X0Y575D02*
X7Y575D01*
X214Y575D02*
X217Y575D01*
X226Y575D02*
X240Y575D01*
X422Y575D02*
X429Y575D01*
X0Y574D02*
X7Y574D01*
X214Y574D02*
X217Y574D01*
X230Y574D02*
X240Y574D01*
X422Y574D02*
X429Y574D01*
X0Y573D02*
X7Y573D01*
X214Y573D02*
X217Y573D01*
X229Y573D02*
X240Y573D01*
X422Y573D02*
X429Y573D01*
X0Y572D02*
X7Y572D01*
X214Y572D02*
X217Y572D01*
X225Y572D02*
X240Y572D01*
X422Y572D02*
X429Y572D01*
X0Y571D02*
X7Y571D01*
X214Y571D02*
X217Y571D01*
X222Y571D02*
X237Y571D01*
X422Y571D02*
X429Y571D01*
X0Y570D02*
X7Y570D01*
X214Y570D02*
X234Y570D01*
X422Y570D02*
X429Y570D01*
X0Y569D02*
X7Y569D01*
X214Y569D02*
X230Y569D01*
X422Y569D02*
X429Y569D01*
X0Y568D02*
X7Y568D01*
X212Y568D02*
X227Y568D01*
X422Y568D02*
X429Y568D01*
X0Y567D02*
X7Y567D01*
X208Y567D02*
X223Y567D01*
X422Y567D02*
X429Y567D01*
X0Y566D02*
X7Y566D01*
X207Y566D02*
X220Y566D01*
X422Y566D02*
X429Y566D01*
X0Y565D02*
X7Y565D01*
X206Y565D02*
X217Y565D01*
X422Y565D02*
X429Y565D01*
X0Y564D02*
X7Y564D01*
X206Y564D02*
X213Y564D01*
X422Y564D02*
X429Y564D01*
X0Y563D02*
X7Y563D01*
X207Y563D02*
X210Y563D01*
X422Y563D02*
X429Y563D01*
X0Y562D02*
X7Y562D01*
X422Y562D02*
X429Y562D01*
X0Y561D02*
X7Y561D01*
X422Y561D02*
X429Y561D01*
X0Y560D02*
X7Y560D01*
X422Y560D02*
X429Y560D01*
X0Y559D02*
X7Y559D01*
X422Y559D02*
X429Y559D01*
X0Y558D02*
X7Y558D01*
X422Y558D02*
X429Y558D01*
X0Y557D02*
X7Y557D01*
X422Y557D02*
X429Y557D01*
X0Y556D02*
X7Y556D01*
X422Y556D02*
X429Y556D01*
X0Y555D02*
X7Y555D01*
X422Y555D02*
X429Y555D01*
X0Y554D02*
X7Y554D01*
X422Y554D02*
X429Y554D01*
X0Y553D02*
X7Y553D01*
X422Y553D02*
X429Y553D01*
X0Y552D02*
X7Y552D01*
X234Y552D02*
X240Y552D01*
X422Y552D02*
X429Y552D01*
X0Y551D02*
X7Y551D01*
X233Y551D02*
X240Y551D01*
X422Y551D02*
X429Y551D01*
X0Y550D02*
X7Y550D01*
X233Y550D02*
X240Y550D01*
X422Y550D02*
X429Y550D01*
X0Y549D02*
X7Y549D01*
X233Y549D02*
X240Y549D01*
X422Y549D02*
X429Y549D01*
X0Y548D02*
X7Y548D01*
X234Y548D02*
X240Y548D01*
X422Y548D02*
X429Y548D01*
X0Y547D02*
X7Y547D01*
X237Y547D02*
X240Y547D01*
X422Y547D02*
X429Y547D01*
X0Y546D02*
X7Y546D01*
X237Y546D02*
X240Y546D01*
X422Y546D02*
X429Y546D01*
X0Y545D02*
X7Y545D01*
X237Y545D02*
X240Y545D01*
X422Y545D02*
X429Y545D01*
X0Y544D02*
X7Y544D01*
X237Y544D02*
X240Y544D01*
X422Y544D02*
X429Y544D01*
X0Y543D02*
X7Y543D01*
X207Y543D02*
X240Y543D01*
X422Y543D02*
X429Y543D01*
X0Y542D02*
X7Y542D01*
X206Y542D02*
X240Y542D01*
X422Y542D02*
X429Y542D01*
X0Y541D02*
X7Y541D01*
X206Y541D02*
X240Y541D01*
X422Y541D02*
X429Y541D01*
X0Y540D02*
X7Y540D01*
X207Y540D02*
X240Y540D01*
X422Y540D02*
X429Y540D01*
X0Y539D02*
X7Y539D01*
X208Y539D02*
X240Y539D01*
X422Y539D02*
X429Y539D01*
X0Y538D02*
X7Y538D01*
X237Y538D02*
X240Y538D01*
X422Y538D02*
X429Y538D01*
X0Y537D02*
X7Y537D01*
X237Y537D02*
X240Y537D01*
X422Y537D02*
X429Y537D01*
X0Y536D02*
X7Y536D01*
X237Y536D02*
X240Y536D01*
X422Y536D02*
X429Y536D01*
X0Y535D02*
X7Y535D01*
X237Y535D02*
X240Y535D01*
X422Y535D02*
X429Y535D01*
X0Y534D02*
X7Y534D01*
X234Y534D02*
X240Y534D01*
X422Y534D02*
X429Y534D01*
X0Y533D02*
X7Y533D01*
X233Y533D02*
X240Y533D01*
X422Y533D02*
X429Y533D01*
X0Y532D02*
X7Y532D01*
X233Y532D02*
X240Y532D01*
X422Y532D02*
X429Y532D01*
X0Y531D02*
X7Y531D01*
X233Y531D02*
X240Y531D01*
X422Y531D02*
X429Y531D01*
X0Y530D02*
X7Y530D01*
X235Y530D02*
X240Y530D01*
X422Y530D02*
X429Y530D01*
X0Y529D02*
X7Y529D01*
X422Y529D02*
X429Y529D01*
X0Y528D02*
X7Y528D01*
X422Y528D02*
X429Y528D01*
X0Y527D02*
X7Y527D01*
X422Y527D02*
X429Y527D01*
X0Y526D02*
X7Y526D01*
X422Y526D02*
X429Y526D01*
X0Y525D02*
X7Y525D01*
X422Y525D02*
X429Y525D01*
X0Y524D02*
X7Y524D01*
X422Y524D02*
X429Y524D01*
X0Y523D02*
X7Y523D01*
X422Y523D02*
X429Y523D01*
X0Y522D02*
X7Y522D01*
X422Y522D02*
X429Y522D01*
X0Y521D02*
X7Y521D01*
X422Y521D02*
X429Y521D01*
X0Y520D02*
X7Y520D01*
X422Y520D02*
X429Y520D01*
X0Y519D02*
X7Y519D01*
X233Y519D02*
X240Y519D01*
X422Y519D02*
X429Y519D01*
X0Y518D02*
X7Y518D01*
X233Y518D02*
X240Y518D01*
X422Y518D02*
X429Y518D01*
X0Y517D02*
X7Y517D01*
X233Y517D02*
X240Y517D01*
X422Y517D02*
X429Y517D01*
X0Y516D02*
X7Y516D01*
X234Y516D02*
X240Y516D01*
X422Y516D02*
X429Y516D01*
X0Y515D02*
X7Y515D01*
X237Y515D02*
X240Y515D01*
X422Y515D02*
X429Y515D01*
X0Y514D02*
X7Y514D01*
X237Y514D02*
X240Y514D01*
X422Y514D02*
X429Y514D01*
X0Y513D02*
X7Y513D01*
X237Y513D02*
X240Y513D01*
X422Y513D02*
X429Y513D01*
X0Y512D02*
X7Y512D01*
X237Y512D02*
X240Y512D01*
X422Y512D02*
X429Y512D01*
X0Y511D02*
X7Y511D01*
X236Y511D02*
X240Y511D01*
X422Y511D02*
X429Y511D01*
X0Y510D02*
X7Y510D01*
X207Y510D02*
X240Y510D01*
X422Y510D02*
X429Y510D01*
X0Y509D02*
X7Y509D01*
X206Y509D02*
X240Y509D01*
X422Y509D02*
X429Y509D01*
X0Y508D02*
X7Y508D01*
X206Y508D02*
X240Y508D01*
X422Y508D02*
X429Y508D01*
X0Y507D02*
X7Y507D01*
X207Y507D02*
X240Y507D01*
X422Y507D02*
X429Y507D01*
X0Y506D02*
X7Y506D01*
X237Y506D02*
X240Y506D01*
X422Y506D02*
X429Y506D01*
X0Y505D02*
X7Y505D01*
X237Y505D02*
X240Y505D01*
X422Y505D02*
X429Y505D01*
X0Y504D02*
X7Y504D01*
X237Y504D02*
X240Y504D01*
X422Y504D02*
X429Y504D01*
X0Y503D02*
X7Y503D01*
X237Y503D02*
X240Y503D01*
X422Y503D02*
X429Y503D01*
X0Y502D02*
X7Y502D01*
X236Y502D02*
X240Y502D01*
X422Y502D02*
X429Y502D01*
X0Y501D02*
X7Y501D01*
X233Y501D02*
X240Y501D01*
X422Y501D02*
X429Y501D01*
X0Y500D02*
X7Y500D01*
X233Y500D02*
X240Y500D01*
X422Y500D02*
X429Y500D01*
X0Y499D02*
X7Y499D01*
X233Y499D02*
X240Y499D01*
X422Y499D02*
X429Y499D01*
X0Y498D02*
X7Y498D01*
X234Y498D02*
X240Y498D01*
X422Y498D02*
X429Y498D01*
X0Y497D02*
X7Y497D01*
X422Y497D02*
X429Y497D01*
X0Y496D02*
X7Y496D01*
X422Y496D02*
X429Y496D01*
X0Y495D02*
X7Y495D01*
X422Y495D02*
X429Y495D01*
X0Y494D02*
X7Y494D01*
X422Y494D02*
X429Y494D01*
X0Y493D02*
X7Y493D01*
X422Y493D02*
X429Y493D01*
X0Y492D02*
X7Y492D01*
X422Y492D02*
X429Y492D01*
X0Y491D02*
X7Y491D01*
X422Y491D02*
X429Y491D01*
X0Y490D02*
X7Y490D01*
X422Y490D02*
X429Y490D01*
X0Y489D02*
X7Y489D01*
X422Y489D02*
X429Y489D01*
X0Y488D02*
X7Y488D01*
X422Y488D02*
X429Y488D01*
X0Y487D02*
X7Y487D01*
X207Y487D02*
X209Y487D01*
X238Y487D02*
X239Y487D01*
X422Y487D02*
X429Y487D01*
X0Y486D02*
X7Y486D01*
X206Y486D02*
X209Y486D01*
X237Y486D02*
X240Y486D01*
X422Y486D02*
X429Y486D01*
X0Y485D02*
X7Y485D01*
X206Y485D02*
X210Y485D01*
X237Y485D02*
X240Y485D01*
X422Y485D02*
X429Y485D01*
X0Y484D02*
X7Y484D01*
X206Y484D02*
X210Y484D01*
X237Y484D02*
X240Y484D01*
X422Y484D02*
X429Y484D01*
X0Y483D02*
X7Y483D01*
X206Y483D02*
X210Y483D01*
X237Y483D02*
X240Y483D01*
X422Y483D02*
X429Y483D01*
X0Y482D02*
X7Y482D01*
X206Y482D02*
X210Y482D01*
X237Y482D02*
X240Y482D01*
X422Y482D02*
X429Y482D01*
X0Y481D02*
X7Y481D01*
X206Y481D02*
X210Y481D01*
X237Y481D02*
X240Y481D01*
X422Y481D02*
X429Y481D01*
X0Y480D02*
X7Y480D01*
X206Y480D02*
X210Y480D01*
X237Y480D02*
X240Y480D01*
X422Y480D02*
X429Y480D01*
X0Y479D02*
X7Y479D01*
X206Y479D02*
X210Y479D01*
X237Y479D02*
X240Y479D01*
X422Y479D02*
X429Y479D01*
X0Y478D02*
X7Y478D01*
X206Y478D02*
X240Y478D01*
X422Y478D02*
X429Y478D01*
X0Y477D02*
X7Y477D01*
X206Y477D02*
X240Y477D01*
X422Y477D02*
X429Y477D01*
X0Y476D02*
X7Y476D01*
X206Y476D02*
X240Y476D01*
X422Y476D02*
X429Y476D01*
X0Y475D02*
X7Y475D01*
X206Y475D02*
X240Y475D01*
X422Y475D02*
X429Y475D01*
X0Y474D02*
X7Y474D01*
X206Y474D02*
X240Y474D01*
X422Y474D02*
X429Y474D01*
X0Y473D02*
X7Y473D01*
X206Y473D02*
X210Y473D01*
X237Y473D02*
X240Y473D01*
X422Y473D02*
X429Y473D01*
X0Y472D02*
X7Y472D01*
X206Y472D02*
X210Y472D01*
X237Y472D02*
X240Y472D01*
X422Y472D02*
X429Y472D01*
X0Y471D02*
X7Y471D01*
X206Y471D02*
X210Y471D01*
X237Y471D02*
X240Y471D01*
X422Y471D02*
X429Y471D01*
X0Y470D02*
X7Y470D01*
X206Y470D02*
X210Y470D01*
X237Y470D02*
X240Y470D01*
X422Y470D02*
X429Y470D01*
X0Y469D02*
X7Y469D01*
X206Y469D02*
X210Y469D01*
X237Y469D02*
X240Y469D01*
X422Y469D02*
X429Y469D01*
X0Y468D02*
X7Y468D01*
X206Y468D02*
X210Y468D01*
X237Y468D02*
X240Y468D01*
X422Y468D02*
X429Y468D01*
X0Y467D02*
X7Y467D01*
X206Y467D02*
X210Y467D01*
X237Y467D02*
X240Y467D01*
X422Y467D02*
X429Y467D01*
X0Y466D02*
X7Y466D01*
X207Y466D02*
X209Y466D01*
X237Y466D02*
X240Y466D01*
X422Y466D02*
X429Y466D01*
X0Y465D02*
X7Y465D01*
X208Y465D02*
X208Y465D01*
X422Y465D02*
X429Y465D01*
X0Y464D02*
X7Y464D01*
X422Y464D02*
X429Y464D01*
X0Y463D02*
X7Y463D01*
X422Y463D02*
X429Y463D01*
X0Y462D02*
X7Y462D01*
X422Y462D02*
X429Y462D01*
X0Y461D02*
X7Y461D01*
X422Y461D02*
X429Y461D01*
X0Y460D02*
X7Y460D01*
X422Y460D02*
X429Y460D01*
X0Y459D02*
X7Y459D01*
X422Y459D02*
X429Y459D01*
X0Y458D02*
X7Y458D01*
X422Y458D02*
X429Y458D01*
X0Y457D02*
X7Y457D01*
X422Y457D02*
X429Y457D01*
X0Y456D02*
X7Y456D01*
X422Y456D02*
X429Y456D01*
X0Y455D02*
X7Y455D01*
X422Y455D02*
X429Y455D01*
X0Y454D02*
X7Y454D01*
X207Y454D02*
X240Y454D01*
X422Y454D02*
X429Y454D01*
X0Y453D02*
X7Y453D01*
X206Y453D02*
X240Y453D01*
X422Y453D02*
X429Y453D01*
X0Y452D02*
X7Y452D01*
X206Y452D02*
X240Y452D01*
X422Y452D02*
X429Y452D01*
X0Y451D02*
X7Y451D01*
X207Y451D02*
X240Y451D01*
X422Y451D02*
X429Y451D01*
X0Y450D02*
X7Y450D01*
X232Y450D02*
X240Y450D01*
X422Y450D02*
X429Y450D01*
X0Y449D02*
X7Y449D01*
X230Y449D02*
X240Y449D01*
X422Y449D02*
X429Y449D01*
X0Y448D02*
X7Y448D01*
X228Y448D02*
X238Y448D01*
X422Y448D02*
X429Y448D01*
X0Y447D02*
X7Y447D01*
X226Y447D02*
X236Y447D01*
X422Y447D02*
X429Y447D01*
X0Y446D02*
X7Y446D01*
X223Y446D02*
X234Y446D01*
X422Y446D02*
X429Y446D01*
X0Y445D02*
X7Y445D01*
X221Y445D02*
X232Y445D01*
X422Y445D02*
X429Y445D01*
X0Y444D02*
X7Y444D01*
X219Y444D02*
X229Y444D01*
X422Y444D02*
X429Y444D01*
X0Y443D02*
X7Y443D01*
X217Y443D02*
X227Y443D01*
X422Y443D02*
X429Y443D01*
X0Y442D02*
X7Y442D01*
X214Y442D02*
X225Y442D01*
X422Y442D02*
X429Y442D01*
X0Y441D02*
X7Y441D01*
X212Y441D02*
X222Y441D01*
X422Y441D02*
X429Y441D01*
X0Y440D02*
X7Y440D01*
X210Y440D02*
X220Y440D01*
X422Y440D02*
X429Y440D01*
X0Y439D02*
X7Y439D01*
X207Y439D02*
X218Y439D01*
X422Y439D02*
X429Y439D01*
X0Y438D02*
X7Y438D01*
X206Y438D02*
X216Y438D01*
X422Y438D02*
X429Y438D01*
X0Y437D02*
X7Y437D01*
X206Y437D02*
X215Y437D01*
X422Y437D02*
X429Y437D01*
X0Y436D02*
X7Y436D01*
X206Y436D02*
X240Y436D01*
X422Y436D02*
X429Y436D01*
X0Y435D02*
X7Y435D01*
X206Y435D02*
X240Y435D01*
X422Y435D02*
X429Y435D01*
X0Y434D02*
X7Y434D01*
X206Y434D02*
X240Y434D01*
X422Y434D02*
X429Y434D01*
X0Y433D02*
X7Y433D01*
X206Y433D02*
X239Y433D01*
X422Y433D02*
X429Y433D01*
X0Y432D02*
X7Y432D01*
X422Y432D02*
X429Y432D01*
X0Y431D02*
X7Y431D01*
X422Y431D02*
X429Y431D01*
X0Y430D02*
X7Y430D01*
X422Y430D02*
X429Y430D01*
X0Y429D02*
X7Y429D01*
X422Y429D02*
X429Y429D01*
X0Y428D02*
X7Y428D01*
X422Y428D02*
X429Y428D01*
X0Y427D02*
X7Y427D01*
X422Y427D02*
X429Y427D01*
X0Y426D02*
X7Y426D01*
X422Y426D02*
X429Y426D01*
X0Y425D02*
X7Y425D01*
X422Y425D02*
X429Y425D01*
X0Y424D02*
X7Y424D01*
X422Y424D02*
X429Y424D01*
X0Y423D02*
X7Y423D01*
X422Y423D02*
X429Y423D01*
X0Y422D02*
X7Y422D01*
X234Y422D02*
X239Y422D01*
X422Y422D02*
X429Y422D01*
X0Y421D02*
X7Y421D01*
X234Y421D02*
X240Y421D01*
X422Y421D02*
X429Y421D01*
X0Y420D02*
X7Y420D01*
X234Y420D02*
X240Y420D01*
X422Y420D02*
X429Y420D01*
X0Y419D02*
X7Y419D01*
X235Y419D02*
X240Y419D01*
X422Y419D02*
X429Y419D01*
X0Y418D02*
X7Y418D01*
X236Y418D02*
X239Y418D01*
X422Y418D02*
X429Y418D01*
X0Y417D02*
X7Y417D01*
X422Y417D02*
X429Y417D01*
X0Y416D02*
X7Y416D01*
X422Y416D02*
X429Y416D01*
X0Y415D02*
X7Y415D01*
X422Y415D02*
X429Y415D01*
X0Y414D02*
X7Y414D01*
X422Y414D02*
X429Y414D01*
X0Y413D02*
X7Y413D01*
X422Y413D02*
X429Y413D01*
X0Y412D02*
X7Y412D01*
X422Y412D02*
X429Y412D01*
X0Y411D02*
X7Y411D01*
X422Y411D02*
X429Y411D01*
X0Y410D02*
X7Y410D01*
X422Y410D02*
X429Y410D01*
X0Y409D02*
X7Y409D01*
X422Y409D02*
X429Y409D01*
X0Y408D02*
X7Y408D01*
X422Y408D02*
X429Y408D01*
X0Y407D02*
X7Y407D01*
X422Y407D02*
X429Y407D01*
X0Y406D02*
X7Y406D01*
X422Y406D02*
X429Y406D01*
X0Y405D02*
X7Y405D01*
X422Y405D02*
X429Y405D01*
X0Y404D02*
X7Y404D01*
X422Y404D02*
X429Y404D01*
X0Y403D02*
X7Y403D01*
X240Y403D02*
X240Y403D01*
X422Y403D02*
X429Y403D01*
X0Y402D02*
X7Y402D01*
X240Y402D02*
X240Y402D01*
X422Y402D02*
X429Y402D01*
X0Y401D02*
X7Y401D01*
X240Y401D02*
X240Y401D01*
X422Y401D02*
X429Y401D01*
X0Y400D02*
X7Y400D01*
X422Y400D02*
X429Y400D01*
X0Y399D02*
X7Y399D01*
X422Y399D02*
X429Y399D01*
X0Y398D02*
X7Y398D01*
X422Y398D02*
X429Y398D01*
X0Y397D02*
X7Y397D01*
X422Y397D02*
X429Y397D01*
X0Y396D02*
X7Y396D01*
X422Y396D02*
X429Y396D01*
X0Y395D02*
X7Y395D01*
X422Y395D02*
X429Y395D01*
X0Y394D02*
X7Y394D01*
X422Y394D02*
X429Y394D01*
X0Y393D02*
X7Y393D01*
X422Y393D02*
X429Y393D01*
X0Y392D02*
X7Y392D01*
X422Y392D02*
X429Y392D01*
X0Y391D02*
X7Y391D01*
X422Y391D02*
X429Y391D01*
X0Y390D02*
X7Y390D01*
X422Y390D02*
X429Y390D01*
X0Y389D02*
X7Y389D01*
X422Y389D02*
X429Y389D01*
X0Y388D02*
X7Y388D01*
X422Y388D02*
X429Y388D01*
X0Y387D02*
X7Y387D01*
X422Y387D02*
X429Y387D01*
X0Y386D02*
X7Y386D01*
X422Y386D02*
X429Y386D01*
X0Y385D02*
X7Y385D01*
X231Y385D02*
X239Y385D01*
X422Y385D02*
X429Y385D01*
X0Y384D02*
X7Y384D01*
X230Y384D02*
X240Y384D01*
X422Y384D02*
X429Y384D01*
X0Y383D02*
X7Y383D01*
X228Y383D02*
X240Y383D01*
X422Y383D02*
X429Y383D01*
X0Y382D02*
X7Y382D01*
X226Y382D02*
X240Y382D01*
X422Y382D02*
X429Y382D01*
X0Y381D02*
X7Y381D01*
X206Y381D02*
X207Y381D01*
X223Y381D02*
X240Y381D01*
X422Y381D02*
X429Y381D01*
X0Y380D02*
X7Y380D01*
X206Y380D02*
X210Y380D01*
X221Y380D02*
X225Y380D01*
X237Y380D02*
X240Y380D01*
X422Y380D02*
X429Y380D01*
X0Y379D02*
X7Y379D01*
X206Y379D02*
X210Y379D01*
X221Y379D02*
X225Y379D01*
X237Y379D02*
X240Y379D01*
X422Y379D02*
X429Y379D01*
X0Y378D02*
X7Y378D01*
X206Y378D02*
X210Y378D01*
X221Y378D02*
X225Y378D01*
X237Y378D02*
X240Y378D01*
X422Y378D02*
X429Y378D01*
X0Y377D02*
X7Y377D01*
X206Y377D02*
X210Y377D01*
X221Y377D02*
X225Y377D01*
X237Y377D02*
X240Y377D01*
X422Y377D02*
X429Y377D01*
X0Y376D02*
X7Y376D01*
X206Y376D02*
X210Y376D01*
X221Y376D02*
X240Y376D01*
X422Y376D02*
X429Y376D01*
X0Y375D02*
X7Y375D01*
X206Y375D02*
X210Y375D01*
X221Y375D02*
X240Y375D01*
X422Y375D02*
X429Y375D01*
X0Y374D02*
X7Y374D01*
X206Y374D02*
X210Y374D01*
X221Y374D02*
X240Y374D01*
X422Y374D02*
X429Y374D01*
X0Y373D02*
X7Y373D01*
X206Y373D02*
X210Y373D01*
X221Y373D02*
X240Y373D01*
X422Y373D02*
X429Y373D01*
X0Y372D02*
X7Y372D01*
X206Y372D02*
X210Y372D01*
X221Y372D02*
X238Y372D01*
X422Y372D02*
X429Y372D01*
X0Y371D02*
X7Y371D01*
X206Y371D02*
X225Y371D01*
X422Y371D02*
X429Y371D01*
X0Y370D02*
X7Y370D01*
X207Y370D02*
X224Y370D01*
X422Y370D02*
X429Y370D01*
X0Y369D02*
X7Y369D01*
X207Y369D02*
X224Y369D01*
X422Y369D02*
X429Y369D01*
X0Y368D02*
X7Y368D01*
X209Y368D02*
X222Y368D01*
X422Y368D02*
X429Y368D01*
X0Y367D02*
X7Y367D01*
X422Y367D02*
X429Y367D01*
X0Y366D02*
X7Y366D01*
X422Y366D02*
X429Y366D01*
X0Y365D02*
X7Y365D01*
X422Y365D02*
X429Y365D01*
X0Y364D02*
X7Y364D01*
X422Y364D02*
X429Y364D01*
X0Y363D02*
X7Y363D01*
X422Y363D02*
X429Y363D01*
X0Y362D02*
X7Y362D01*
X422Y362D02*
X429Y362D01*
X0Y361D02*
X7Y361D01*
X422Y361D02*
X429Y361D01*
X0Y360D02*
X7Y360D01*
X422Y360D02*
X429Y360D01*
X0Y359D02*
X7Y359D01*
X422Y359D02*
X429Y359D01*
X0Y358D02*
X7Y358D01*
X422Y358D02*
X429Y358D01*
X0Y357D02*
X7Y357D01*
X209Y357D02*
X210Y357D01*
X422Y357D02*
X429Y357D01*
X0Y356D02*
X7Y356D01*
X208Y356D02*
X211Y356D01*
X422Y356D02*
X429Y356D01*
X0Y355D02*
X7Y355D01*
X208Y355D02*
X212Y355D01*
X422Y355D02*
X429Y355D01*
X0Y354D02*
X7Y354D01*
X207Y354D02*
X211Y354D01*
X422Y354D02*
X429Y354D01*
X0Y353D02*
X7Y353D01*
X207Y353D02*
X211Y353D01*
X422Y353D02*
X429Y353D01*
X0Y352D02*
X7Y352D01*
X207Y352D02*
X211Y352D01*
X221Y352D02*
X240Y352D01*
X422Y352D02*
X429Y352D01*
X0Y351D02*
X7Y351D01*
X206Y351D02*
X210Y351D01*
X221Y351D02*
X240Y351D01*
X422Y351D02*
X429Y351D01*
X0Y350D02*
X7Y350D01*
X206Y350D02*
X210Y350D01*
X221Y350D02*
X240Y350D01*
X422Y350D02*
X429Y350D01*
X0Y349D02*
X7Y349D01*
X206Y349D02*
X210Y349D01*
X221Y349D02*
X240Y349D01*
X422Y349D02*
X429Y349D01*
X0Y348D02*
X7Y348D01*
X206Y348D02*
X210Y348D01*
X221Y348D02*
X225Y348D01*
X237Y348D02*
X240Y348D01*
X422Y348D02*
X429Y348D01*
X0Y347D02*
X7Y347D01*
X206Y347D02*
X210Y347D01*
X221Y347D02*
X225Y347D01*
X237Y347D02*
X240Y347D01*
X422Y347D02*
X429Y347D01*
X0Y346D02*
X7Y346D01*
X206Y346D02*
X210Y346D01*
X221Y346D02*
X225Y346D01*
X237Y346D02*
X240Y346D01*
X422Y346D02*
X429Y346D01*
X0Y345D02*
X7Y345D01*
X206Y345D02*
X210Y345D01*
X221Y345D02*
X225Y345D01*
X237Y345D02*
X240Y345D01*
X422Y345D02*
X429Y345D01*
X0Y344D02*
X7Y344D01*
X206Y344D02*
X210Y344D01*
X221Y344D02*
X225Y344D01*
X237Y344D02*
X240Y344D01*
X422Y344D02*
X429Y344D01*
X0Y343D02*
X7Y343D01*
X206Y343D02*
X210Y343D01*
X221Y343D02*
X225Y343D01*
X237Y343D02*
X240Y343D01*
X422Y343D02*
X429Y343D01*
X0Y342D02*
X7Y342D01*
X206Y342D02*
X210Y342D01*
X221Y342D02*
X225Y342D01*
X237Y342D02*
X240Y342D01*
X422Y342D02*
X429Y342D01*
X0Y341D02*
X7Y341D01*
X206Y341D02*
X210Y341D01*
X221Y341D02*
X225Y341D01*
X237Y341D02*
X240Y341D01*
X422Y341D02*
X429Y341D01*
X0Y340D02*
X7Y340D01*
X206Y340D02*
X210Y340D01*
X221Y340D02*
X225Y340D01*
X237Y340D02*
X240Y340D01*
X422Y340D02*
X429Y340D01*
X0Y339D02*
X7Y339D01*
X206Y339D02*
X225Y339D01*
X237Y339D02*
X240Y339D01*
X422Y339D02*
X429Y339D01*
X0Y338D02*
X7Y338D01*
X207Y338D02*
X225Y338D01*
X237Y338D02*
X240Y338D01*
X422Y338D02*
X429Y338D01*
X0Y337D02*
X7Y337D01*
X207Y337D02*
X224Y337D01*
X237Y337D02*
X240Y337D01*
X422Y337D02*
X429Y337D01*
X0Y336D02*
X7Y336D01*
X208Y336D02*
X223Y336D01*
X237Y336D02*
X240Y336D01*
X422Y336D02*
X429Y336D01*
X0Y335D02*
X7Y335D01*
X211Y335D02*
X221Y335D01*
X422Y335D02*
X429Y335D01*
X0Y334D02*
X7Y334D01*
X422Y334D02*
X429Y334D01*
X0Y333D02*
X7Y333D01*
X422Y333D02*
X429Y333D01*
X0Y332D02*
X7Y332D01*
X422Y332D02*
X429Y332D01*
X0Y331D02*
X7Y331D01*
X422Y331D02*
X429Y331D01*
X0Y330D02*
X7Y330D01*
X422Y330D02*
X429Y330D01*
X0Y329D02*
X7Y329D01*
X422Y329D02*
X429Y329D01*
X0Y328D02*
X7Y328D01*
X422Y328D02*
X429Y328D01*
X0Y327D02*
X7Y327D01*
X422Y327D02*
X429Y327D01*
X0Y326D02*
X7Y326D01*
X422Y326D02*
X429Y326D01*
X0Y325D02*
X7Y325D01*
X422Y325D02*
X429Y325D01*
X0Y324D02*
X7Y324D01*
X422Y324D02*
X429Y324D01*
X0Y323D02*
X7Y323D01*
X422Y323D02*
X429Y323D01*
X0Y322D02*
X7Y322D01*
X422Y322D02*
X429Y322D01*
X0Y321D02*
X7Y321D01*
X422Y321D02*
X429Y321D01*
X0Y320D02*
X7Y320D01*
X422Y320D02*
X429Y320D01*
X0Y319D02*
X7Y319D01*
X422Y319D02*
X429Y319D01*
X0Y318D02*
X7Y318D01*
X422Y318D02*
X429Y318D01*
X0Y317D02*
X7Y317D01*
X422Y317D02*
X429Y317D01*
X0Y316D02*
X7Y316D01*
X422Y316D02*
X429Y316D01*
X0Y315D02*
X7Y315D01*
X422Y315D02*
X429Y315D01*
X0Y314D02*
X7Y314D01*
X422Y314D02*
X429Y314D01*
X0Y313D02*
X7Y313D01*
X422Y313D02*
X429Y313D01*
X0Y312D02*
X7Y312D01*
X422Y312D02*
X429Y312D01*
X0Y311D02*
X7Y311D01*
X422Y311D02*
X429Y311D01*
X0Y310D02*
X7Y310D01*
X422Y310D02*
X429Y310D01*
X0Y309D02*
X7Y309D01*
X422Y309D02*
X429Y309D01*
X0Y308D02*
X7Y308D01*
X422Y308D02*
X429Y308D01*
X0Y307D02*
X7Y307D01*
X422Y307D02*
X429Y307D01*
X0Y306D02*
X7Y306D01*
X422Y306D02*
X429Y306D01*
X0Y305D02*
X7Y305D01*
X422Y305D02*
X429Y305D01*
X0Y304D02*
X7Y304D01*
X422Y304D02*
X429Y304D01*
X0Y303D02*
X7Y303D01*
X422Y303D02*
X429Y303D01*
X0Y302D02*
X7Y302D01*
X422Y302D02*
X429Y302D01*
X0Y301D02*
X7Y301D01*
X422Y301D02*
X429Y301D01*
X0Y300D02*
X7Y300D01*
X422Y300D02*
X429Y300D01*
X0Y299D02*
X7Y299D01*
X422Y299D02*
X429Y299D01*
X0Y298D02*
X7Y298D01*
X422Y298D02*
X429Y298D01*
X0Y297D02*
X7Y297D01*
X422Y297D02*
X429Y297D01*
X0Y296D02*
X7Y296D01*
X422Y296D02*
X429Y296D01*
X0Y295D02*
X7Y295D01*
X422Y295D02*
X429Y295D01*
X0Y294D02*
X7Y294D01*
X422Y294D02*
X429Y294D01*
X0Y293D02*
X7Y293D01*
X422Y293D02*
X429Y293D01*
X0Y292D02*
X7Y292D01*
X422Y292D02*
X429Y292D01*
X0Y291D02*
X7Y291D01*
X422Y291D02*
X429Y291D01*
X0Y290D02*
X7Y290D01*
X422Y290D02*
X429Y290D01*
X0Y289D02*
X7Y289D01*
X422Y289D02*
X429Y289D01*
X0Y288D02*
X7Y288D01*
X422Y288D02*
X429Y288D01*
X0Y287D02*
X7Y287D01*
X422Y287D02*
X429Y287D01*
X0Y286D02*
X7Y286D01*
X422Y286D02*
X429Y286D01*
X0Y285D02*
X7Y285D01*
X422Y285D02*
X429Y285D01*
X0Y284D02*
X7Y284D01*
X422Y284D02*
X429Y284D01*
X0Y283D02*
X7Y283D01*
X422Y283D02*
X429Y283D01*
X0Y282D02*
X7Y282D01*
X422Y282D02*
X429Y282D01*
X0Y281D02*
X7Y281D01*
X422Y281D02*
X429Y281D01*
X0Y280D02*
X7Y280D01*
X422Y280D02*
X429Y280D01*
X0Y279D02*
X7Y279D01*
X422Y279D02*
X429Y279D01*
X0Y278D02*
X7Y278D01*
X422Y278D02*
X429Y278D01*
X0Y277D02*
X7Y277D01*
X422Y277D02*
X429Y277D01*
X0Y276D02*
X7Y276D01*
X422Y276D02*
X429Y276D01*
X0Y275D02*
X7Y275D01*
X422Y275D02*
X429Y275D01*
X0Y274D02*
X7Y274D01*
X422Y274D02*
X429Y274D01*
X0Y273D02*
X7Y273D01*
X422Y273D02*
X429Y273D01*
X0Y272D02*
X7Y272D01*
X422Y272D02*
X429Y272D01*
X0Y271D02*
X7Y271D01*
X422Y271D02*
X429Y271D01*
X0Y270D02*
X7Y270D01*
X422Y270D02*
X429Y270D01*
X0Y269D02*
X7Y269D01*
X422Y269D02*
X429Y269D01*
X0Y268D02*
X7Y268D01*
X422Y268D02*
X429Y268D01*
X0Y267D02*
X7Y267D01*
X422Y267D02*
X429Y267D01*
X0Y266D02*
X7Y266D01*
X422Y266D02*
X429Y266D01*
X0Y265D02*
X7Y265D01*
X422Y265D02*
X429Y265D01*
X0Y264D02*
X7Y264D01*
X422Y264D02*
X429Y264D01*
X0Y263D02*
X7Y263D01*
X422Y263D02*
X429Y263D01*
X0Y262D02*
X7Y262D01*
X422Y262D02*
X429Y262D01*
X0Y261D02*
X7Y261D01*
X422Y261D02*
X429Y261D01*
X0Y260D02*
X7Y260D01*
X422Y260D02*
X429Y260D01*
X0Y259D02*
X7Y259D01*
X422Y259D02*
X429Y259D01*
X0Y258D02*
X7Y258D01*
X422Y258D02*
X429Y258D01*
X0Y257D02*
X7Y257D01*
X422Y257D02*
X429Y257D01*
X0Y256D02*
X7Y256D01*
X422Y256D02*
X429Y256D01*
X0Y255D02*
X7Y255D01*
X422Y255D02*
X429Y255D01*
X0Y254D02*
X7Y254D01*
X422Y254D02*
X429Y254D01*
X0Y253D02*
X7Y253D01*
X422Y253D02*
X429Y253D01*
X0Y252D02*
X7Y252D01*
X422Y252D02*
X429Y252D01*
X0Y251D02*
X7Y251D01*
X422Y251D02*
X429Y251D01*
X0Y250D02*
X7Y250D01*
X422Y250D02*
X429Y250D01*
X0Y249D02*
X7Y249D01*
X422Y249D02*
X429Y249D01*
X0Y248D02*
X7Y248D01*
X422Y248D02*
X429Y248D01*
X0Y247D02*
X7Y247D01*
X422Y247D02*
X429Y247D01*
X0Y246D02*
X7Y246D01*
X422Y246D02*
X429Y246D01*
X0Y245D02*
X7Y245D01*
X422Y245D02*
X429Y245D01*
X0Y244D02*
X7Y244D01*
X422Y244D02*
X429Y244D01*
X0Y243D02*
X7Y243D01*
X422Y243D02*
X429Y243D01*
X0Y242D02*
X7Y242D01*
X422Y242D02*
X429Y242D01*
X0Y241D02*
X7Y241D01*
X422Y241D02*
X429Y241D01*
X0Y240D02*
X7Y240D01*
X422Y240D02*
X429Y240D01*
X0Y239D02*
X7Y239D01*
X422Y239D02*
X429Y239D01*
X0Y238D02*
X7Y238D01*
X422Y238D02*
X429Y238D01*
X0Y237D02*
X7Y237D01*
X422Y237D02*
X429Y237D01*
X0Y236D02*
X7Y236D01*
X422Y236D02*
X429Y236D01*
X0Y235D02*
X7Y235D01*
X422Y235D02*
X429Y235D01*
X0Y234D02*
X7Y234D01*
X422Y234D02*
X429Y234D01*
X0Y233D02*
X7Y233D01*
X422Y233D02*
X429Y233D01*
X0Y232D02*
X7Y232D01*
X422Y232D02*
X429Y232D01*
X0Y231D02*
X7Y231D01*
X422Y231D02*
X429Y231D01*
X0Y230D02*
X7Y230D01*
X422Y230D02*
X429Y230D01*
X0Y229D02*
X7Y229D01*
X422Y229D02*
X429Y229D01*
X0Y228D02*
X7Y228D01*
X422Y228D02*
X429Y228D01*
X0Y227D02*
X7Y227D01*
X422Y227D02*
X429Y227D01*
X0Y226D02*
X7Y226D01*
X422Y226D02*
X429Y226D01*
X0Y225D02*
X204Y225D01*
X227Y225D02*
X429Y225D01*
X0Y224D02*
X204Y224D01*
X226Y224D02*
X429Y224D01*
X0Y223D02*
X204Y223D01*
X226Y223D02*
X429Y223D01*
X0Y222D02*
X7Y222D01*
X80Y222D02*
X128Y222D01*
X202Y222D02*
X204Y222D01*
X226Y222D02*
X228Y222D01*
X302Y222D02*
X350Y222D01*
X424Y222D02*
X429Y222D01*
X0Y221D02*
X6Y221D01*
X202Y221D02*
X204Y221D01*
X226Y221D02*
X228Y221D01*
X424Y221D02*
X429Y221D01*
X0Y220D02*
X6Y220D01*
X202Y220D02*
X204Y220D01*
X226Y220D02*
X228Y220D01*
X424Y220D02*
X429Y220D01*
X0Y219D02*
X6Y219D01*
X202Y219D02*
X204Y219D01*
X226Y219D02*
X228Y219D01*
X424Y219D02*
X429Y219D01*
X0Y218D02*
X6Y218D01*
X202Y218D02*
X204Y218D01*
X226Y218D02*
X228Y218D01*
X424Y218D02*
X429Y218D01*
X0Y217D02*
X6Y217D01*
X80Y217D02*
X82Y217D01*
X202Y217D02*
X204Y217D01*
X226Y217D02*
X228Y217D01*
X424Y217D02*
X429Y217D01*
X0Y216D02*
X6Y216D01*
X80Y216D02*
X82Y216D01*
X202Y216D02*
X204Y216D01*
X226Y216D02*
X228Y216D01*
X424Y216D02*
X429Y216D01*
X0Y215D02*
X6Y215D01*
X80Y215D02*
X82Y215D01*
X202Y215D02*
X204Y215D01*
X226Y215D02*
X228Y215D01*
X424Y215D02*
X429Y215D01*
X0Y214D02*
X6Y214D01*
X80Y214D02*
X82Y214D01*
X202Y214D02*
X204Y214D01*
X226Y214D02*
X228Y214D01*
X424Y214D02*
X429Y214D01*
X0Y213D02*
X6Y213D01*
X80Y213D02*
X82Y213D01*
X202Y213D02*
X204Y213D01*
X226Y213D02*
X228Y213D01*
X424Y213D02*
X429Y213D01*
X0Y212D02*
X6Y212D01*
X80Y212D02*
X82Y212D01*
X202Y212D02*
X204Y212D01*
X226Y212D02*
X228Y212D01*
X424Y212D02*
X429Y212D01*
X0Y211D02*
X6Y211D01*
X80Y211D02*
X82Y211D01*
X202Y211D02*
X204Y211D01*
X226Y211D02*
X228Y211D01*
X424Y211D02*
X429Y211D01*
X0Y210D02*
X6Y210D01*
X80Y210D02*
X82Y210D01*
X202Y210D02*
X204Y210D01*
X226Y210D02*
X228Y210D01*
X424Y210D02*
X429Y210D01*
X0Y209D02*
X6Y209D01*
X80Y209D02*
X82Y209D01*
X202Y209D02*
X204Y209D01*
X226Y209D02*
X228Y209D01*
X424Y209D02*
X429Y209D01*
X0Y208D02*
X6Y208D01*
X80Y208D02*
X82Y208D01*
X202Y208D02*
X204Y208D01*
X226Y208D02*
X228Y208D01*
X424Y208D02*
X429Y208D01*
X0Y207D02*
X6Y207D01*
X80Y207D02*
X82Y207D01*
X202Y207D02*
X204Y207D01*
X226Y207D02*
X228Y207D01*
X424Y207D02*
X429Y207D01*
X0Y206D02*
X6Y206D01*
X80Y206D02*
X82Y206D01*
X202Y206D02*
X204Y206D01*
X226Y206D02*
X228Y206D01*
X424Y206D02*
X429Y206D01*
X0Y205D02*
X6Y205D01*
X80Y205D02*
X82Y205D01*
X202Y205D02*
X204Y205D01*
X226Y205D02*
X228Y205D01*
X424Y205D02*
X429Y205D01*
X0Y204D02*
X6Y204D01*
X80Y204D02*
X82Y204D01*
X202Y204D02*
X204Y204D01*
X226Y204D02*
X228Y204D01*
X424Y204D02*
X429Y204D01*
X0Y203D02*
X6Y203D01*
X80Y203D02*
X82Y203D01*
X202Y203D02*
X204Y203D01*
X226Y203D02*
X228Y203D01*
X424Y203D02*
X429Y203D01*
X0Y202D02*
X6Y202D01*
X80Y202D02*
X82Y202D01*
X202Y202D02*
X204Y202D01*
X226Y202D02*
X228Y202D01*
X424Y202D02*
X429Y202D01*
X0Y201D02*
X6Y201D01*
X80Y201D02*
X82Y201D01*
X202Y201D02*
X204Y201D01*
X226Y201D02*
X228Y201D01*
X424Y201D02*
X429Y201D01*
X0Y200D02*
X6Y200D01*
X80Y200D02*
X82Y200D01*
X202Y200D02*
X204Y200D01*
X226Y200D02*
X228Y200D01*
X424Y200D02*
X429Y200D01*
X0Y199D02*
X6Y199D01*
X80Y199D02*
X82Y199D01*
X202Y199D02*
X204Y199D01*
X226Y199D02*
X228Y199D01*
X424Y199D02*
X429Y199D01*
X0Y198D02*
X6Y198D01*
X80Y198D02*
X82Y198D01*
X202Y198D02*
X204Y198D01*
X226Y198D02*
X228Y198D01*
X424Y198D02*
X429Y198D01*
X0Y197D02*
X6Y197D01*
X80Y197D02*
X82Y197D01*
X202Y197D02*
X204Y197D01*
X226Y197D02*
X228Y197D01*
X424Y197D02*
X429Y197D01*
X0Y196D02*
X6Y196D01*
X80Y196D02*
X82Y196D01*
X202Y196D02*
X204Y196D01*
X226Y196D02*
X228Y196D01*
X424Y196D02*
X429Y196D01*
X0Y195D02*
X6Y195D01*
X80Y195D02*
X82Y195D01*
X202Y195D02*
X204Y195D01*
X226Y195D02*
X228Y195D01*
X424Y195D02*
X429Y195D01*
X0Y194D02*
X6Y194D01*
X80Y194D02*
X82Y194D01*
X202Y194D02*
X204Y194D01*
X226Y194D02*
X228Y194D01*
X424Y194D02*
X429Y194D01*
X0Y193D02*
X6Y193D01*
X80Y193D02*
X82Y193D01*
X202Y193D02*
X204Y193D01*
X226Y193D02*
X228Y193D01*
X424Y193D02*
X429Y193D01*
X0Y192D02*
X6Y192D01*
X80Y192D02*
X82Y192D01*
X202Y192D02*
X204Y192D01*
X226Y192D02*
X228Y192D01*
X424Y192D02*
X429Y192D01*
X0Y191D02*
X6Y191D01*
X80Y191D02*
X82Y191D01*
X202Y191D02*
X204Y191D01*
X226Y191D02*
X228Y191D01*
X424Y191D02*
X429Y191D01*
X0Y190D02*
X6Y190D01*
X80Y190D02*
X82Y190D01*
X202Y190D02*
X204Y190D01*
X226Y190D02*
X228Y190D01*
X424Y190D02*
X429Y190D01*
X0Y189D02*
X6Y189D01*
X80Y189D02*
X82Y189D01*
X202Y189D02*
X204Y189D01*
X226Y189D02*
X228Y189D01*
X424Y189D02*
X429Y189D01*
X0Y188D02*
X6Y188D01*
X80Y188D02*
X82Y188D01*
X202Y188D02*
X204Y188D01*
X226Y188D02*
X228Y188D01*
X424Y188D02*
X429Y188D01*
X0Y187D02*
X6Y187D01*
X80Y187D02*
X82Y187D01*
X202Y187D02*
X204Y187D01*
X226Y187D02*
X228Y187D01*
X424Y187D02*
X429Y187D01*
X0Y186D02*
X6Y186D01*
X80Y186D02*
X82Y186D01*
X202Y186D02*
X204Y186D01*
X226Y186D02*
X228Y186D01*
X424Y186D02*
X429Y186D01*
X0Y185D02*
X6Y185D01*
X80Y185D02*
X82Y185D01*
X202Y185D02*
X204Y185D01*
X226Y185D02*
X228Y185D01*
X424Y185D02*
X429Y185D01*
X0Y184D02*
X6Y184D01*
X80Y184D02*
X82Y184D01*
X202Y184D02*
X204Y184D01*
X226Y184D02*
X228Y184D01*
X424Y184D02*
X429Y184D01*
X0Y183D02*
X6Y183D01*
X80Y183D02*
X82Y183D01*
X202Y183D02*
X204Y183D01*
X226Y183D02*
X228Y183D01*
X424Y183D02*
X429Y183D01*
X0Y182D02*
X6Y182D01*
X80Y182D02*
X82Y182D01*
X202Y182D02*
X204Y182D01*
X226Y182D02*
X228Y182D01*
X424Y182D02*
X429Y182D01*
X0Y181D02*
X6Y181D01*
X80Y181D02*
X82Y181D01*
X202Y181D02*
X204Y181D01*
X226Y181D02*
X228Y181D01*
X424Y181D02*
X429Y181D01*
X0Y180D02*
X6Y180D01*
X80Y180D02*
X82Y180D01*
X202Y180D02*
X204Y180D01*
X226Y180D02*
X228Y180D01*
X424Y180D02*
X429Y180D01*
X0Y179D02*
X6Y179D01*
X80Y179D02*
X82Y179D01*
X202Y179D02*
X204Y179D01*
X226Y179D02*
X228Y179D01*
X424Y179D02*
X429Y179D01*
X0Y178D02*
X6Y178D01*
X80Y178D02*
X82Y178D01*
X202Y178D02*
X204Y178D01*
X226Y178D02*
X228Y178D01*
X424Y178D02*
X429Y178D01*
X0Y177D02*
X6Y177D01*
X80Y177D02*
X82Y177D01*
X202Y177D02*
X204Y177D01*
X226Y177D02*
X228Y177D01*
X424Y177D02*
X429Y177D01*
X0Y176D02*
X6Y176D01*
X80Y176D02*
X82Y176D01*
X202Y176D02*
X204Y176D01*
X226Y176D02*
X228Y176D01*
X424Y176D02*
X429Y176D01*
X0Y175D02*
X6Y175D01*
X80Y175D02*
X82Y175D01*
X202Y175D02*
X204Y175D01*
X226Y175D02*
X228Y175D01*
X424Y175D02*
X429Y175D01*
X0Y174D02*
X6Y174D01*
X80Y174D02*
X82Y174D01*
X202Y174D02*
X204Y174D01*
X226Y174D02*
X228Y174D01*
X424Y174D02*
X429Y174D01*
X0Y173D02*
X6Y173D01*
X80Y173D02*
X82Y173D01*
X202Y173D02*
X204Y173D01*
X226Y173D02*
X228Y173D01*
X424Y173D02*
X429Y173D01*
X0Y172D02*
X6Y172D01*
X80Y172D02*
X82Y172D01*
X202Y172D02*
X204Y172D01*
X226Y172D02*
X228Y172D01*
X424Y172D02*
X429Y172D01*
X0Y171D02*
X6Y171D01*
X80Y171D02*
X82Y171D01*
X202Y171D02*
X204Y171D01*
X226Y171D02*
X228Y171D01*
X424Y171D02*
X429Y171D01*
X0Y170D02*
X6Y170D01*
X80Y170D02*
X82Y170D01*
X202Y170D02*
X204Y170D01*
X226Y170D02*
X228Y170D01*
X424Y170D02*
X429Y170D01*
X0Y169D02*
X6Y169D01*
X80Y169D02*
X82Y169D01*
X202Y169D02*
X204Y169D01*
X226Y169D02*
X228Y169D01*
X424Y169D02*
X429Y169D01*
X0Y168D02*
X6Y168D01*
X80Y168D02*
X82Y168D01*
X202Y168D02*
X204Y168D01*
X226Y168D02*
X228Y168D01*
X424Y168D02*
X429Y168D01*
X0Y167D02*
X6Y167D01*
X80Y167D02*
X82Y167D01*
X202Y167D02*
X204Y167D01*
X226Y167D02*
X228Y167D01*
X424Y167D02*
X429Y167D01*
X0Y166D02*
X6Y166D01*
X80Y166D02*
X82Y166D01*
X202Y166D02*
X204Y166D01*
X226Y166D02*
X228Y166D01*
X424Y166D02*
X429Y166D01*
X0Y165D02*
X6Y165D01*
X80Y165D02*
X82Y165D01*
X202Y165D02*
X204Y165D01*
X226Y165D02*
X228Y165D01*
X424Y165D02*
X429Y165D01*
X0Y164D02*
X6Y164D01*
X80Y164D02*
X82Y164D01*
X202Y164D02*
X204Y164D01*
X226Y164D02*
X228Y164D01*
X424Y164D02*
X429Y164D01*
X0Y163D02*
X6Y163D01*
X80Y163D02*
X82Y163D01*
X202Y163D02*
X204Y163D01*
X226Y163D02*
X228Y163D01*
X424Y163D02*
X429Y163D01*
X0Y162D02*
X6Y162D01*
X80Y162D02*
X82Y162D01*
X202Y162D02*
X204Y162D01*
X226Y162D02*
X228Y162D01*
X424Y162D02*
X429Y162D01*
X0Y161D02*
X6Y161D01*
X80Y161D02*
X82Y161D01*
X202Y161D02*
X204Y161D01*
X226Y161D02*
X228Y161D01*
X424Y161D02*
X429Y161D01*
X0Y160D02*
X6Y160D01*
X80Y160D02*
X82Y160D01*
X202Y160D02*
X204Y160D01*
X226Y160D02*
X228Y160D01*
X424Y160D02*
X429Y160D01*
X0Y159D02*
X6Y159D01*
X80Y159D02*
X82Y159D01*
X202Y159D02*
X204Y159D01*
X226Y159D02*
X228Y159D01*
X424Y159D02*
X429Y159D01*
X0Y158D02*
X6Y158D01*
X80Y158D02*
X82Y158D01*
X202Y158D02*
X204Y158D01*
X226Y158D02*
X228Y158D01*
X424Y158D02*
X429Y158D01*
X0Y157D02*
X6Y157D01*
X80Y157D02*
X82Y157D01*
X202Y157D02*
X204Y157D01*
X226Y157D02*
X228Y157D01*
X424Y157D02*
X429Y157D01*
X0Y156D02*
X6Y156D01*
X80Y156D02*
X82Y156D01*
X202Y156D02*
X204Y156D01*
X226Y156D02*
X228Y156D01*
X424Y156D02*
X429Y156D01*
X0Y155D02*
X6Y155D01*
X80Y155D02*
X82Y155D01*
X202Y155D02*
X204Y155D01*
X226Y155D02*
X228Y155D01*
X424Y155D02*
X429Y155D01*
X0Y154D02*
X6Y154D01*
X80Y154D02*
X82Y154D01*
X202Y154D02*
X204Y154D01*
X226Y154D02*
X228Y154D01*
X424Y154D02*
X429Y154D01*
X0Y153D02*
X6Y153D01*
X80Y153D02*
X82Y153D01*
X202Y153D02*
X204Y153D01*
X226Y153D02*
X228Y153D01*
X424Y153D02*
X429Y153D01*
X0Y152D02*
X6Y152D01*
X80Y152D02*
X82Y152D01*
X202Y152D02*
X204Y152D01*
X226Y152D02*
X228Y152D01*
X424Y152D02*
X429Y152D01*
X0Y151D02*
X6Y151D01*
X80Y151D02*
X82Y151D01*
X202Y151D02*
X204Y151D01*
X226Y151D02*
X228Y151D01*
X424Y151D02*
X429Y151D01*
X0Y150D02*
X6Y150D01*
X80Y150D02*
X82Y150D01*
X202Y150D02*
X204Y150D01*
X226Y150D02*
X228Y150D01*
X424Y150D02*
X429Y150D01*
X0Y149D02*
X6Y149D01*
X80Y149D02*
X82Y149D01*
X202Y149D02*
X204Y149D01*
X226Y149D02*
X228Y149D01*
X424Y149D02*
X429Y149D01*
X0Y148D02*
X6Y148D01*
X80Y148D02*
X82Y148D01*
X202Y148D02*
X204Y148D01*
X226Y148D02*
X228Y148D01*
X424Y148D02*
X429Y148D01*
X0Y147D02*
X6Y147D01*
X80Y147D02*
X82Y147D01*
X202Y147D02*
X204Y147D01*
X226Y147D02*
X228Y147D01*
X424Y147D02*
X429Y147D01*
X0Y146D02*
X6Y146D01*
X80Y146D02*
X82Y146D01*
X202Y146D02*
X204Y146D01*
X226Y146D02*
X228Y146D01*
X424Y146D02*
X429Y146D01*
X0Y145D02*
X6Y145D01*
X80Y145D02*
X82Y145D01*
X202Y145D02*
X204Y145D01*
X226Y145D02*
X228Y145D01*
X424Y145D02*
X429Y145D01*
X0Y144D02*
X6Y144D01*
X80Y144D02*
X82Y144D01*
X202Y144D02*
X204Y144D01*
X226Y144D02*
X228Y144D01*
X424Y144D02*
X429Y144D01*
X0Y143D02*
X6Y143D01*
X80Y143D02*
X82Y143D01*
X202Y143D02*
X204Y143D01*
X226Y143D02*
X228Y143D01*
X424Y143D02*
X429Y143D01*
X0Y142D02*
X6Y142D01*
X202Y142D02*
X204Y142D01*
X226Y142D02*
X228Y142D01*
X424Y142D02*
X429Y142D01*
X0Y141D02*
X6Y141D01*
X202Y141D02*
X204Y141D01*
X226Y141D02*
X228Y141D01*
X424Y141D02*
X429Y141D01*
X0Y140D02*
X6Y140D01*
X202Y140D02*
X204Y140D01*
X226Y140D02*
X228Y140D01*
X424Y140D02*
X429Y140D01*
X0Y139D02*
X6Y139D01*
X202Y139D02*
X204Y139D01*
X226Y139D02*
X228Y139D01*
X424Y139D02*
X429Y139D01*
X0Y138D02*
X6Y138D01*
X80Y138D02*
X128Y138D01*
X202Y138D02*
X204Y138D01*
X226Y138D02*
X228Y138D01*
X302Y138D02*
X350Y138D01*
X424Y138D02*
X429Y138D01*
X0Y137D02*
X204Y137D01*
X226Y137D02*
X429Y137D01*
X0Y136D02*
X204Y136D01*
X226Y136D02*
X429Y136D01*
X0Y135D02*
X204Y135D01*
X226Y135D02*
X429Y135D01*
X0Y134D02*
X7Y134D01*
X422Y134D02*
X429Y134D01*
X0Y133D02*
X7Y133D01*
X422Y133D02*
X429Y133D01*
X0Y132D02*
X7Y132D01*
X205Y132D02*
X224Y132D01*
X422Y132D02*
X429Y132D01*
X0Y131D02*
X7Y131D01*
X199Y131D02*
X230Y131D01*
X422Y131D02*
X429Y131D01*
X0Y130D02*
X7Y130D01*
X195Y130D02*
X235Y130D01*
X422Y130D02*
X429Y130D01*
X0Y129D02*
X7Y129D01*
X62Y129D02*
X63Y129D01*
X93Y129D02*
X113Y129D01*
X126Y129D02*
X137Y129D01*
X192Y129D02*
X238Y129D01*
X279Y129D02*
X280Y129D01*
X343Y129D02*
X363Y129D01*
X375Y129D02*
X377Y129D01*
X422Y129D02*
X429Y129D01*
X0Y128D02*
X7Y128D01*
X61Y128D02*
X64Y128D01*
X93Y128D02*
X114Y128D01*
X126Y128D02*
X139Y128D01*
X189Y128D02*
X241Y128D01*
X278Y128D02*
X281Y128D01*
X342Y128D02*
X363Y128D01*
X374Y128D02*
X378Y128D01*
X422Y128D02*
X429Y128D01*
X0Y127D02*
X7Y127D01*
X60Y127D02*
X64Y127D01*
X93Y127D02*
X114Y127D01*
X125Y127D02*
X140Y127D01*
X186Y127D02*
X244Y127D01*
X278Y127D02*
X281Y127D01*
X342Y127D02*
X363Y127D01*
X374Y127D02*
X378Y127D01*
X422Y127D02*
X429Y127D01*
X0Y126D02*
X7Y126D01*
X60Y126D02*
X64Y126D01*
X93Y126D02*
X114Y126D01*
X126Y126D02*
X141Y126D01*
X184Y126D02*
X204Y126D01*
X227Y126D02*
X246Y126D01*
X278Y126D02*
X281Y126D01*
X342Y126D02*
X363Y126D01*
X374Y126D02*
X378Y126D01*
X422Y126D02*
X429Y126D01*
X0Y125D02*
X7Y125D01*
X60Y125D02*
X64Y125D01*
X93Y125D02*
X113Y125D01*
X127Y125D02*
X141Y125D01*
X182Y125D02*
X198Y125D01*
X232Y125D02*
X248Y125D01*
X278Y125D02*
X281Y125D01*
X292Y125D02*
X294Y125D01*
X342Y125D02*
X363Y125D01*
X374Y125D02*
X378Y125D01*
X422Y125D02*
X429Y125D01*
X0Y124D02*
X7Y124D01*
X60Y124D02*
X64Y124D01*
X93Y124D02*
X96Y124D01*
X130Y124D02*
X133Y124D01*
X138Y124D02*
X142Y124D01*
X180Y124D02*
X195Y124D01*
X235Y124D02*
X250Y124D01*
X278Y124D02*
X281Y124D01*
X291Y124D02*
X295Y124D01*
X342Y124D02*
X345Y124D01*
X360Y124D02*
X363Y124D01*
X374Y124D02*
X378Y124D01*
X422Y124D02*
X429Y124D01*
X0Y123D02*
X7Y123D01*
X60Y123D02*
X64Y123D01*
X93Y123D02*
X96Y123D01*
X130Y123D02*
X133Y123D01*
X138Y123D02*
X142Y123D01*
X178Y123D02*
X191Y123D01*
X239Y123D02*
X252Y123D01*
X278Y123D02*
X281Y123D01*
X291Y123D02*
X295Y123D01*
X360Y123D02*
X363Y123D01*
X374Y123D02*
X378Y123D01*
X422Y123D02*
X429Y123D01*
X0Y122D02*
X7Y122D01*
X60Y122D02*
X64Y122D01*
X93Y122D02*
X96Y122D01*
X130Y122D02*
X133Y122D01*
X139Y122D02*
X143Y122D01*
X176Y122D02*
X189Y122D01*
X241Y122D02*
X254Y122D01*
X278Y122D02*
X281Y122D01*
X291Y122D02*
X295Y122D01*
X360Y122D02*
X363Y122D01*
X374Y122D02*
X378Y122D01*
X422Y122D02*
X429Y122D01*
X0Y121D02*
X7Y121D01*
X60Y121D02*
X64Y121D01*
X93Y121D02*
X96Y121D01*
X130Y121D02*
X133Y121D01*
X139Y121D02*
X143Y121D01*
X174Y121D02*
X186Y121D01*
X244Y121D02*
X256Y121D01*
X278Y121D02*
X281Y121D01*
X291Y121D02*
X295Y121D01*
X360Y121D02*
X363Y121D01*
X374Y121D02*
X378Y121D01*
X422Y121D02*
X429Y121D01*
X0Y120D02*
X7Y120D01*
X60Y120D02*
X64Y120D01*
X93Y120D02*
X96Y120D01*
X130Y120D02*
X133Y120D01*
X140Y120D02*
X144Y120D01*
X173Y120D02*
X184Y120D01*
X246Y120D02*
X257Y120D01*
X278Y120D02*
X281Y120D01*
X291Y120D02*
X295Y120D01*
X360Y120D02*
X363Y120D01*
X374Y120D02*
X378Y120D01*
X422Y120D02*
X429Y120D01*
X0Y119D02*
X7Y119D01*
X60Y119D02*
X64Y119D01*
X93Y119D02*
X96Y119D01*
X130Y119D02*
X133Y119D01*
X140Y119D02*
X144Y119D01*
X171Y119D02*
X182Y119D01*
X248Y119D02*
X259Y119D01*
X278Y119D02*
X281Y119D01*
X291Y119D02*
X295Y119D01*
X360Y119D02*
X363Y119D01*
X374Y119D02*
X378Y119D01*
X390Y119D02*
X393Y119D01*
X422Y119D02*
X429Y119D01*
X0Y118D02*
X7Y118D01*
X60Y118D02*
X64Y118D01*
X93Y118D02*
X96Y118D01*
X130Y118D02*
X133Y118D01*
X141Y118D02*
X145Y118D01*
X170Y118D02*
X180Y118D01*
X250Y118D02*
X260Y118D01*
X278Y118D02*
X281Y118D01*
X291Y118D02*
X295Y118D01*
X360Y118D02*
X363Y118D01*
X374Y118D02*
X378Y118D01*
X389Y118D02*
X393Y118D01*
X422Y118D02*
X429Y118D01*
X0Y117D02*
X7Y117D01*
X60Y117D02*
X64Y117D01*
X93Y117D02*
X96Y117D01*
X130Y117D02*
X133Y117D01*
X141Y117D02*
X145Y117D01*
X168Y117D02*
X178Y117D01*
X252Y117D02*
X262Y117D01*
X278Y117D02*
X281Y117D01*
X291Y117D02*
X295Y117D01*
X360Y117D02*
X363Y117D01*
X374Y117D02*
X378Y117D01*
X388Y117D02*
X393Y117D01*
X422Y117D02*
X429Y117D01*
X0Y116D02*
X7Y116D01*
X60Y116D02*
X64Y116D01*
X93Y116D02*
X96Y116D01*
X130Y116D02*
X133Y116D01*
X142Y116D02*
X146Y116D01*
X167Y116D02*
X177Y116D01*
X253Y116D02*
X263Y116D01*
X278Y116D02*
X281Y116D01*
X291Y116D02*
X295Y116D01*
X359Y116D02*
X363Y116D01*
X374Y116D02*
X378Y116D01*
X387Y116D02*
X393Y116D01*
X422Y116D02*
X429Y116D01*
X0Y115D02*
X7Y115D01*
X60Y115D02*
X64Y115D01*
X93Y115D02*
X96Y115D01*
X130Y115D02*
X133Y115D01*
X142Y115D02*
X146Y115D01*
X166Y115D02*
X175Y115D01*
X255Y115D02*
X264Y115D01*
X278Y115D02*
X281Y115D01*
X291Y115D02*
X295Y115D01*
X358Y115D02*
X363Y115D01*
X374Y115D02*
X378Y115D01*
X386Y115D02*
X392Y115D01*
X422Y115D02*
X429Y115D01*
X0Y114D02*
X7Y114D01*
X60Y114D02*
X64Y114D01*
X93Y114D02*
X104Y114D01*
X130Y114D02*
X133Y114D01*
X143Y114D02*
X147Y114D01*
X165Y114D02*
X174Y114D01*
X256Y114D02*
X265Y114D01*
X278Y114D02*
X281Y114D01*
X291Y114D02*
X295Y114D01*
X356Y114D02*
X362Y114D01*
X374Y114D02*
X378Y114D01*
X384Y114D02*
X390Y114D01*
X422Y114D02*
X429Y114D01*
X0Y113D02*
X7Y113D01*
X60Y113D02*
X64Y113D01*
X93Y113D02*
X105Y113D01*
X130Y113D02*
X133Y113D01*
X143Y113D02*
X147Y113D01*
X163Y113D02*
X172Y113D01*
X258Y113D02*
X267Y113D01*
X278Y113D02*
X281Y113D01*
X291Y113D02*
X295Y113D01*
X355Y113D02*
X361Y113D01*
X374Y113D02*
X378Y113D01*
X383Y113D02*
X389Y113D01*
X422Y113D02*
X429Y113D01*
X0Y112D02*
X7Y112D01*
X60Y112D02*
X64Y112D01*
X93Y112D02*
X105Y112D01*
X130Y112D02*
X133Y112D01*
X143Y112D02*
X147Y112D01*
X162Y112D02*
X171Y112D01*
X259Y112D02*
X268Y112D01*
X278Y112D02*
X281Y112D01*
X291Y112D02*
X295Y112D01*
X354Y112D02*
X360Y112D01*
X374Y112D02*
X378Y112D01*
X382Y112D02*
X388Y112D01*
X422Y112D02*
X429Y112D01*
X0Y111D02*
X7Y111D01*
X60Y111D02*
X64Y111D01*
X93Y111D02*
X105Y111D01*
X130Y111D02*
X133Y111D01*
X143Y111D02*
X147Y111D01*
X161Y111D02*
X170Y111D01*
X260Y111D02*
X269Y111D01*
X278Y111D02*
X281Y111D01*
X291Y111D02*
X295Y111D01*
X353Y111D02*
X359Y111D01*
X374Y111D02*
X378Y111D01*
X381Y111D02*
X387Y111D01*
X422Y111D02*
X429Y111D01*
X0Y110D02*
X7Y110D01*
X60Y110D02*
X64Y110D01*
X93Y110D02*
X104Y110D01*
X130Y110D02*
X133Y110D01*
X143Y110D02*
X147Y110D01*
X160Y110D02*
X169Y110D01*
X261Y110D02*
X270Y110D01*
X278Y110D02*
X296Y110D01*
X352Y110D02*
X358Y110D01*
X374Y110D02*
X378Y110D01*
X380Y110D02*
X386Y110D01*
X422Y110D02*
X429Y110D01*
X0Y109D02*
X7Y109D01*
X60Y109D02*
X64Y109D01*
X93Y109D02*
X96Y109D01*
X130Y109D02*
X133Y109D01*
X142Y109D02*
X146Y109D01*
X159Y109D02*
X167Y109D01*
X263Y109D02*
X271Y109D01*
X278Y109D02*
X297Y109D01*
X351Y109D02*
X357Y109D01*
X374Y109D02*
X385Y109D01*
X422Y109D02*
X429Y109D01*
X0Y108D02*
X7Y108D01*
X60Y108D02*
X64Y108D01*
X93Y108D02*
X96Y108D01*
X130Y108D02*
X133Y108D01*
X142Y108D02*
X146Y108D01*
X158Y108D02*
X166Y108D01*
X264Y108D02*
X272Y108D01*
X278Y108D02*
X297Y108D01*
X317Y108D02*
X323Y108D01*
X351Y108D02*
X355Y108D01*
X374Y108D02*
X384Y108D01*
X422Y108D02*
X429Y108D01*
X0Y107D02*
X7Y107D01*
X60Y107D02*
X64Y107D01*
X93Y107D02*
X96Y107D01*
X130Y107D02*
X133Y107D01*
X141Y107D02*
X146Y107D01*
X158Y107D02*
X165Y107D01*
X265Y107D02*
X273Y107D01*
X278Y107D02*
X297Y107D01*
X316Y107D02*
X324Y107D01*
X351Y107D02*
X354Y107D01*
X374Y107D02*
X385Y107D01*
X422Y107D02*
X429Y107D01*
X0Y106D02*
X7Y106D01*
X60Y106D02*
X64Y106D01*
X93Y106D02*
X96Y106D01*
X130Y106D02*
X133Y106D01*
X141Y106D02*
X145Y106D01*
X157Y106D02*
X164Y106D01*
X266Y106D02*
X273Y106D01*
X278Y106D02*
X296Y106D01*
X316Y106D02*
X324Y106D01*
X351Y106D02*
X354Y106D01*
X374Y106D02*
X386Y106D01*
X422Y106D02*
X429Y106D01*
X0Y105D02*
X7Y105D01*
X60Y105D02*
X64Y105D01*
X93Y105D02*
X96Y105D01*
X130Y105D02*
X133Y105D01*
X140Y105D02*
X145Y105D01*
X156Y105D02*
X163Y105D01*
X267Y105D02*
X274Y105D01*
X291Y105D02*
X295Y105D01*
X316Y105D02*
X324Y105D01*
X351Y105D02*
X354Y105D01*
X374Y105D02*
X387Y105D01*
X422Y105D02*
X429Y105D01*
X0Y104D02*
X7Y104D01*
X60Y104D02*
X64Y104D01*
X93Y104D02*
X96Y104D01*
X130Y104D02*
X133Y104D01*
X140Y104D02*
X144Y104D01*
X155Y104D02*
X162Y104D01*
X268Y104D02*
X275Y104D01*
X291Y104D02*
X295Y104D01*
X316Y104D02*
X324Y104D01*
X351Y104D02*
X354Y104D01*
X374Y104D02*
X379Y104D01*
X382Y104D02*
X388Y104D01*
X422Y104D02*
X429Y104D01*
X0Y103D02*
X7Y103D01*
X60Y103D02*
X64Y103D01*
X93Y103D02*
X96Y103D01*
X130Y103D02*
X133Y103D01*
X139Y103D02*
X144Y103D01*
X154Y103D02*
X161Y103D01*
X269Y103D02*
X276Y103D01*
X291Y103D02*
X295Y103D01*
X316Y103D02*
X324Y103D01*
X351Y103D02*
X354Y103D01*
X374Y103D02*
X378Y103D01*
X383Y103D02*
X389Y103D01*
X422Y103D02*
X429Y103D01*
X0Y102D02*
X7Y102D01*
X60Y102D02*
X64Y102D01*
X93Y102D02*
X96Y102D01*
X130Y102D02*
X133Y102D01*
X139Y102D02*
X143Y102D01*
X153Y102D02*
X160Y102D01*
X270Y102D02*
X277Y102D01*
X291Y102D02*
X295Y102D01*
X316Y102D02*
X324Y102D01*
X351Y102D02*
X354Y102D01*
X374Y102D02*
X378Y102D01*
X385Y102D02*
X391Y102D01*
X422Y102D02*
X429Y102D01*
X0Y101D02*
X7Y101D01*
X60Y101D02*
X64Y101D01*
X93Y101D02*
X96Y101D01*
X130Y101D02*
X133Y101D01*
X138Y101D02*
X143Y101D01*
X153Y101D02*
X160Y101D01*
X270Y101D02*
X277Y101D01*
X291Y101D02*
X295Y101D01*
X317Y101D02*
X323Y101D01*
X351Y101D02*
X354Y101D01*
X374Y101D02*
X378Y101D01*
X386Y101D02*
X392Y101D01*
X422Y101D02*
X429Y101D01*
X0Y100D02*
X7Y100D01*
X60Y100D02*
X64Y100D01*
X93Y100D02*
X96Y100D01*
X130Y100D02*
X133Y100D01*
X138Y100D02*
X142Y100D01*
X152Y100D02*
X159Y100D01*
X271Y100D02*
X278Y100D01*
X291Y100D02*
X295Y100D01*
X351Y100D02*
X354Y100D01*
X374Y100D02*
X378Y100D01*
X387Y100D02*
X393Y100D01*
X422Y100D02*
X429Y100D01*
X0Y99D02*
X7Y99D01*
X60Y99D02*
X64Y99D01*
X93Y99D02*
X97Y99D01*
X130Y99D02*
X134Y99D01*
X136Y99D02*
X142Y99D01*
X151Y99D02*
X158Y99D01*
X272Y99D02*
X279Y99D01*
X291Y99D02*
X295Y99D01*
X351Y99D02*
X354Y99D01*
X374Y99D02*
X378Y99D01*
X388Y99D02*
X394Y99D01*
X422Y99D02*
X429Y99D01*
X0Y98D02*
X7Y98D01*
X60Y98D02*
X81Y98D01*
X93Y98D02*
X114Y98D01*
X126Y98D02*
X141Y98D01*
X151Y98D02*
X157Y98D01*
X273Y98D02*
X279Y98D01*
X291Y98D02*
X295Y98D01*
X351Y98D02*
X354Y98D01*
X374Y98D02*
X378Y98D01*
X389Y98D02*
X395Y98D01*
X422Y98D02*
X429Y98D01*
X0Y97D02*
X7Y97D01*
X60Y97D02*
X82Y97D01*
X93Y97D02*
X114Y97D01*
X125Y97D02*
X140Y97D01*
X150Y97D02*
X156Y97D01*
X274Y97D02*
X280Y97D01*
X291Y97D02*
X295Y97D01*
X351Y97D02*
X354Y97D01*
X374Y97D02*
X378Y97D01*
X390Y97D02*
X396Y97D01*
X422Y97D02*
X429Y97D01*
X0Y96D02*
X7Y96D01*
X60Y96D02*
X82Y96D01*
X93Y96D02*
X114Y96D01*
X126Y96D02*
X139Y96D01*
X149Y96D02*
X156Y96D01*
X274Y96D02*
X281Y96D01*
X291Y96D02*
X295Y96D01*
X351Y96D02*
X354Y96D01*
X374Y96D02*
X378Y96D01*
X392Y96D02*
X396Y96D01*
X422Y96D02*
X429Y96D01*
X0Y95D02*
X7Y95D01*
X60Y95D02*
X81Y95D01*
X93Y95D02*
X114Y95D01*
X126Y95D02*
X138Y95D01*
X149Y95D02*
X155Y95D01*
X275Y95D02*
X281Y95D01*
X292Y95D02*
X294Y95D01*
X352Y95D02*
X353Y95D01*
X375Y95D02*
X377Y95D01*
X393Y95D02*
X395Y95D01*
X422Y95D02*
X429Y95D01*
X0Y94D02*
X7Y94D01*
X148Y94D02*
X154Y94D01*
X276Y94D02*
X282Y94D01*
X422Y94D02*
X429Y94D01*
X0Y93D02*
X7Y93D01*
X148Y93D02*
X154Y93D01*
X276Y93D02*
X282Y93D01*
X422Y93D02*
X429Y93D01*
X0Y92D02*
X7Y92D01*
X147Y92D02*
X153Y92D01*
X277Y92D02*
X283Y92D01*
X422Y92D02*
X429Y92D01*
X0Y91D02*
X7Y91D01*
X147Y91D02*
X152Y91D01*
X278Y91D02*
X284Y91D01*
X422Y91D02*
X429Y91D01*
X0Y90D02*
X7Y90D01*
X146Y90D02*
X152Y90D01*
X278Y90D02*
X284Y90D01*
X422Y90D02*
X429Y90D01*
X0Y89D02*
X7Y89D01*
X146Y89D02*
X151Y89D01*
X279Y89D02*
X285Y89D01*
X422Y89D02*
X429Y89D01*
X0Y88D02*
X7Y88D01*
X145Y88D02*
X151Y88D01*
X279Y88D02*
X285Y88D01*
X422Y88D02*
X429Y88D01*
X0Y87D02*
X7Y87D01*
X145Y87D02*
X150Y87D01*
X280Y87D02*
X285Y87D01*
X422Y87D02*
X429Y87D01*
X0Y86D02*
X7Y86D01*
X144Y86D02*
X150Y86D01*
X280Y86D02*
X286Y86D01*
X422Y86D02*
X429Y86D01*
X0Y85D02*
X7Y85D01*
X144Y85D02*
X149Y85D01*
X281Y85D02*
X286Y85D01*
X422Y85D02*
X429Y85D01*
X0Y84D02*
X7Y84D01*
X143Y84D02*
X149Y84D01*
X281Y84D02*
X287Y84D01*
X422Y84D02*
X429Y84D01*
X0Y83D02*
X7Y83D01*
X144Y83D02*
X148Y83D01*
X282Y83D02*
X286Y83D01*
X422Y83D02*
X429Y83D01*
X0Y82D02*
X7Y82D01*
X145Y82D02*
X148Y82D01*
X282Y82D02*
X286Y82D01*
X422Y82D02*
X429Y82D01*
X0Y81D02*
X7Y81D01*
X145Y81D02*
X148Y81D01*
X282Y81D02*
X285Y81D01*
X422Y81D02*
X429Y81D01*
X0Y80D02*
X7Y80D01*
X146Y80D02*
X147Y80D01*
X283Y80D02*
X284Y80D01*
X422Y80D02*
X429Y80D01*
X0Y79D02*
X7Y79D01*
X147Y79D02*
X147Y79D01*
X283Y79D02*
X283Y79D01*
X422Y79D02*
X429Y79D01*
X0Y78D02*
X7Y78D01*
X422Y78D02*
X429Y78D01*
X0Y77D02*
X7Y77D01*
X422Y77D02*
X429Y77D01*
X0Y76D02*
X7Y76D01*
X422Y76D02*
X429Y76D01*
X0Y75D02*
X7Y75D01*
X422Y75D02*
X429Y75D01*
X0Y74D02*
X7Y74D01*
X422Y74D02*
X429Y74D01*
X0Y73D02*
X7Y73D01*
X422Y73D02*
X429Y73D01*
X0Y72D02*
X7Y72D01*
X422Y72D02*
X429Y72D01*
X0Y71D02*
X7Y71D01*
X422Y71D02*
X429Y71D01*
X0Y70D02*
X7Y70D01*
X422Y70D02*
X429Y70D01*
X0Y69D02*
X7Y69D01*
X422Y69D02*
X429Y69D01*
X0Y68D02*
X7Y68D01*
X387Y68D02*
X389Y68D01*
X422Y68D02*
X429Y68D01*
X0Y67D02*
X7Y67D01*
X386Y67D02*
X390Y67D01*
X422Y67D02*
X429Y67D01*
X0Y66D02*
X7Y66D01*
X385Y66D02*
X390Y66D01*
X422Y66D02*
X429Y66D01*
X0Y65D02*
X7Y65D01*
X385Y65D02*
X390Y65D01*
X422Y65D02*
X429Y65D01*
X0Y64D02*
X7Y64D01*
X385Y64D02*
X390Y64D01*
X422Y64D02*
X429Y64D01*
X0Y63D02*
X7Y63D01*
X385Y63D02*
X390Y63D01*
X422Y63D02*
X429Y63D01*
X0Y62D02*
X7Y62D01*
X385Y62D02*
X390Y62D01*
X422Y62D02*
X429Y62D01*
X0Y61D02*
X7Y61D01*
X29Y61D02*
X54Y61D01*
X385Y61D02*
X390Y61D01*
X422Y61D02*
X429Y61D01*
X0Y60D02*
X7Y60D01*
X28Y60D02*
X55Y60D01*
X385Y60D02*
X390Y60D01*
X422Y60D02*
X429Y60D01*
X0Y59D02*
X7Y59D01*
X27Y59D02*
X56Y59D01*
X385Y59D02*
X390Y59D01*
X422Y59D02*
X429Y59D01*
X0Y58D02*
X7Y58D01*
X27Y58D02*
X56Y58D01*
X385Y58D02*
X390Y58D01*
X422Y58D02*
X429Y58D01*
X0Y57D02*
X7Y57D01*
X27Y57D02*
X56Y57D01*
X385Y57D02*
X390Y57D01*
X422Y57D02*
X429Y57D01*
X0Y56D02*
X7Y56D01*
X27Y56D02*
X56Y56D01*
X375Y56D02*
X401Y56D01*
X422Y56D02*
X429Y56D01*
X0Y55D02*
X7Y55D01*
X27Y55D02*
X56Y55D01*
X374Y55D02*
X402Y55D01*
X422Y55D02*
X429Y55D01*
X0Y54D02*
X7Y54D01*
X27Y54D02*
X56Y54D01*
X373Y54D02*
X402Y54D01*
X422Y54D02*
X429Y54D01*
X0Y53D02*
X7Y53D01*
X28Y53D02*
X55Y53D01*
X373Y53D02*
X402Y53D01*
X422Y53D02*
X429Y53D01*
X0Y52D02*
X7Y52D01*
X374Y52D02*
X402Y52D01*
X422Y52D02*
X429Y52D01*
X0Y51D02*
X7Y51D01*
X374Y51D02*
X401Y51D01*
X422Y51D02*
X429Y51D01*
X0Y50D02*
X7Y50D01*
X385Y50D02*
X390Y50D01*
X422Y50D02*
X429Y50D01*
X0Y49D02*
X7Y49D01*
X385Y49D02*
X390Y49D01*
X422Y49D02*
X429Y49D01*
X0Y48D02*
X7Y48D01*
X385Y48D02*
X390Y48D01*
X422Y48D02*
X429Y48D01*
X0Y47D02*
X7Y47D01*
X385Y47D02*
X390Y47D01*
X422Y47D02*
X429Y47D01*
X0Y46D02*
X7Y46D01*
X385Y46D02*
X390Y46D01*
X422Y46D02*
X429Y46D01*
X0Y45D02*
X7Y45D01*
X385Y45D02*
X390Y45D01*
X422Y45D02*
X429Y45D01*
X0Y44D02*
X7Y44D01*
X385Y44D02*
X390Y44D01*
X422Y44D02*
X429Y44D01*
X0Y43D02*
X7Y43D01*
X385Y43D02*
X390Y43D01*
X422Y43D02*
X429Y43D01*
X0Y42D02*
X7Y42D01*
X385Y42D02*
X390Y42D01*
X422Y42D02*
X429Y42D01*
X0Y41D02*
X7Y41D01*
X385Y41D02*
X390Y41D01*
X422Y41D02*
X429Y41D01*
X0Y40D02*
X7Y40D01*
X386Y40D02*
X390Y40D01*
X422Y40D02*
X429Y40D01*
X0Y39D02*
X7Y39D01*
X386Y39D02*
X389Y39D01*
X422Y39D02*
X429Y39D01*
X0Y38D02*
X7Y38D01*
X422Y38D02*
X429Y38D01*
X0Y37D02*
X7Y37D01*
X422Y37D02*
X429Y37D01*
X0Y36D02*
X7Y36D01*
X422Y36D02*
X429Y36D01*
X0Y35D02*
X7Y35D01*
X422Y35D02*
X429Y35D01*
X0Y34D02*
X7Y34D01*
X422Y34D02*
X429Y34D01*
X0Y33D02*
X7Y33D01*
X422Y33D02*
X429Y33D01*
X0Y32D02*
X7Y32D01*
X422Y32D02*
X429Y32D01*
X0Y31D02*
X7Y31D01*
X147Y31D02*
X147Y31D01*
X283Y31D02*
X283Y31D01*
X422Y31D02*
X429Y31D01*
X0Y30D02*
X7Y30D01*
X147Y30D02*
X147Y30D01*
X283Y30D02*
X284Y30D01*
X422Y30D02*
X429Y30D01*
X0Y29D02*
X7Y29D01*
X146Y29D02*
X147Y29D01*
X283Y29D02*
X284Y29D01*
X422Y29D02*
X429Y29D01*
X0Y28D02*
X7Y28D01*
X145Y28D02*
X148Y28D01*
X282Y28D02*
X285Y28D01*
X422Y28D02*
X429Y28D01*
X0Y27D02*
X7Y27D01*
X144Y27D02*
X148Y27D01*
X282Y27D02*
X286Y27D01*
X422Y27D02*
X429Y27D01*
X0Y26D02*
X7Y26D01*
X143Y26D02*
X149Y26D01*
X281Y26D02*
X287Y26D01*
X422Y26D02*
X429Y26D01*
X0Y25D02*
X7Y25D01*
X144Y25D02*
X149Y25D01*
X281Y25D02*
X286Y25D01*
X422Y25D02*
X429Y25D01*
X0Y24D02*
X7Y24D01*
X144Y24D02*
X150Y24D01*
X280Y24D02*
X286Y24D01*
X422Y24D02*
X429Y24D01*
X0Y23D02*
X7Y23D01*
X144Y23D02*
X150Y23D01*
X280Y23D02*
X286Y23D01*
X422Y23D02*
X429Y23D01*
X0Y22D02*
X7Y22D01*
X145Y22D02*
X151Y22D01*
X279Y22D02*
X285Y22D01*
X422Y22D02*
X429Y22D01*
X0Y21D02*
X7Y21D01*
X145Y21D02*
X151Y21D01*
X279Y21D02*
X285Y21D01*
X422Y21D02*
X429Y21D01*
X0Y20D02*
X7Y20D01*
X146Y20D02*
X152Y20D01*
X278Y20D02*
X284Y20D01*
X422Y20D02*
X429Y20D01*
X0Y19D02*
X7Y19D01*
X146Y19D02*
X152Y19D01*
X278Y19D02*
X284Y19D01*
X422Y19D02*
X429Y19D01*
X0Y18D02*
X7Y18D01*
X147Y18D02*
X153Y18D01*
X277Y18D02*
X283Y18D01*
X422Y18D02*
X429Y18D01*
X0Y17D02*
X7Y17D01*
X147Y17D02*
X154Y17D01*
X277Y17D02*
X283Y17D01*
X422Y17D02*
X429Y17D01*
X0Y16D02*
X7Y16D01*
X148Y16D02*
X154Y16D01*
X276Y16D02*
X282Y16D01*
X422Y16D02*
X429Y16D01*
X0Y15D02*
X7Y15D01*
X148Y15D02*
X155Y15D01*
X275Y15D02*
X282Y15D01*
X422Y15D02*
X429Y15D01*
X0Y14D02*
X7Y14D01*
X149Y14D02*
X156Y14D01*
X275Y14D02*
X281Y14D01*
X422Y14D02*
X429Y14D01*
X0Y13D02*
X7Y13D01*
X150Y13D02*
X156Y13D01*
X274Y13D02*
X280Y13D01*
X422Y13D02*
X429Y13D01*
X0Y12D02*
X7Y12D01*
X150Y12D02*
X157Y12D01*
X273Y12D02*
X280Y12D01*
X422Y12D02*
X429Y12D01*
X0Y11D02*
X7Y11D01*
X151Y11D02*
X158Y11D01*
X272Y11D02*
X279Y11D01*
X422Y11D02*
X429Y11D01*
X0Y10D02*
X7Y10D01*
X152Y10D02*
X159Y10D01*
X272Y10D02*
X278Y10D01*
X422Y10D02*
X429Y10D01*
X0Y9D02*
X7Y9D01*
X152Y9D02*
X159Y9D01*
X271Y9D02*
X278Y9D01*
X422Y9D02*
X429Y9D01*
X0Y8D02*
X429Y8D01*
X0Y7D02*
X429Y7D01*
X0Y6D02*
X429Y6D01*
X0Y5D02*
X429Y5D01*
X0Y4D02*
X429Y4D01*
X0Y3D02*
X429Y3D01*
X0Y2D02*
X429Y2D01*
X0Y1D02*
X429Y1D01*
D02*
G04 End of Silk1*
M02*