G04 MADE WITH FRITZING*
G04 WWW.FRITZING.ORG*
G04 DOUBLE SIDED*
G04 HOLES PLATED*
G04 CONTOUR ON CENTER OF CONTOUR VECTOR*
%ASAXBY*%
%FSLAX23Y23*%
%MOIN*%
%OFA0B0*%
%SFA1.0B1.0*%
%ADD10C,0.039370*%
%ADD11C,0.078000*%
%ADD12C,0.075000*%
%ADD13C,0.069445*%
%ADD14R,0.075000X0.075000*%
%ADD15R,0.062992X0.074803*%
%ADD16R,0.078000X0.078000*%
%ADD17C,0.008000*%
%LNCOPPER1*%
G90*
G70*
G54D10*
X166Y304D03*
X266Y604D03*
X216Y404D03*
G54D11*
X66Y854D03*
X366Y854D03*
G54D12*
X66Y604D03*
X366Y604D03*
X66Y504D03*
X366Y504D03*
X66Y404D03*
X366Y404D03*
X66Y304D03*
X366Y304D03*
G54D13*
X316Y54D03*
X216Y54D03*
X116Y54D03*
G54D11*
X366Y729D03*
X266Y729D03*
X166Y729D03*
G54D14*
X66Y604D03*
G54D15*
X266Y179D03*
X388Y179D03*
G54D16*
X366Y729D03*
G54D15*
X44Y179D03*
X166Y179D03*
G54D17*
X216Y254D02*
X245Y211D01*
D02*
X266Y705D02*
X266Y618D01*
D02*
X279Y604D02*
X343Y604D01*
D02*
X216Y390D02*
X216Y254D01*
D02*
X326Y72D02*
X370Y148D01*
D02*
X362Y201D02*
X266Y279D01*
D02*
X266Y279D02*
X266Y591D01*
D02*
X281Y749D02*
X351Y835D01*
D02*
X151Y749D02*
X81Y835D01*
D02*
X166Y211D02*
X166Y291D01*
D02*
X223Y74D02*
X253Y148D01*
D02*
X62Y282D02*
X49Y211D01*
D02*
X105Y72D02*
X62Y148D01*
D02*
X167Y379D02*
X166Y705D01*
D02*
X84Y318D02*
X167Y379D01*
G04 End of Copper1*
M02*